<?xml version="1.0" encoding="UTF-8" standalone="no"?>
<!DOCTYPE svg PUBLIC "-//W3C//DTD SVG 1.1//EN" "http://www.w3.org/Graphics/SVG/1.1/DTD/svg11.dtd">
<svg version="1.1" xmlns="http://www.w3.org/2000/svg" xmlns:xlink="http://www.w3.org/1999/xlink" preserveAspectRatio="xMidYMid meet" viewBox="60.79116905566627 62.702623042755896 537.471067243355 402.17190128114447" width="533.47" height="398.17"><defs><path d="M146.96 461.87C415.94 461.87 565.38 461.87 595.26 461.87C591.83 450.55 549.45 445.08 532.35 441.73C518.39 439 504.1 434.31 493.57 424.33C486.5 417.62 482.14 408.8 479.07 399.67C476.26 391.3 475.88 380.79 470.35 373.69C461.27 362.04 446.12 364.69 434.88 357.19C423.67 349.7 417.44 336.41 414.48 323.65C410.34 305.81 415.4 287.59 410.81 269.77C406.43 252.79 394.04 242.34 381.06 231.64C358.41 212.95 347.82 186.55 338.94 159.37C327.59 124.6 279.27 63.7 279.27 63.7C270.45 63.7 226.35 63.7 146.96 63.7L146.96 461.87Z" id="aUrKBkKGl"></path><linearGradient id="gradientg1o2vgmsWB" gradientUnits="userSpaceOnUse" x1="98.54" y1="119.05" x2="496.64" y2="574.55"><stop style="stop-color: #babeff;stop-opacity: 0.2" offset="0%"></stop><stop style="stop-color: #f6f3ff;stop-opacity: 0.4" offset="100%"></stop></linearGradient><path d="M239.32 363.45C237.93 365.69 236.93 368.15 236.37 370.72C236.27 364.38 236.03 359.28 235.99 358.01C243.04 355.48 248.09 349.31 246.24 344.28C243.09 344.75 240.32 346.61 238.68 349.33C237.32 351.55 236.38 354.01 235.91 356.57C235.71 352.63 235.45 348.69 235.1 344.75C242.05 342.18 247 336.08 245.16 331.09C242.01 331.57 239.24 333.42 237.59 336.15C236.31 338.24 235.41 340.54 234.93 342.95C234.45 338.01 233.9 334.09 233.78 333.1C239.65 329.93 243.25 323.73 240.87 319.6C238.23 320.48 236.12 322.48 235.1 325.07C234.14 327.58 233.68 330.25 233.76 332.94C233.11 328.28 232.4 324.6 232.25 323.67C237.59 319.85 240.37 313.41 237.58 309.62C235.06 310.78 233.18 313.01 232.46 315.7C231.92 317.6 231.72 319.58 231.85 321.56C230.84 316.49 229.77 312.52 229.54 311.51C234.89 307.69 237.67 301.24 234.88 297.45C232.36 298.61 230.48 300.84 229.76 303.52C229.17 305.69 228.97 307.96 229.19 310.2C227.97 305.7 226.75 302.18 226.48 301.29C231 298.07 233.36 292.63 231 289.42C228.87 290.4 227.29 292.28 226.68 294.55C226.15 296.51 226 298.56 226.23 300.59C225.08 297.27 224.01 294.66 223.76 294C227.12 290.65 228.35 285.73 225.92 283.35C224.26 284.48 223.18 286.28 222.98 288.28C222.81 289.82 222.92 291.37 223.3 292.87C222.81 291.7 222.31 290.53 221.78 289.37C222 284.13 219.37 279.23 215.61 279.07C215.06 281.26 215.51 283.58 216.85 285.4C218.1 287.1 219.68 288.54 221.49 289.64C221.99 290.78 222.47 291.93 222.94 293.08C220.38 288.86 215.93 286.33 212.77 288.01C213.41 290.18 214.97 291.95 217.04 292.84C219.04 293.69 221.19 294.13 223.36 294.14C224.71 297.59 225.61 300.38 225.86 301.07C223 295.59 217.39 292.14 213.48 294.23C214.22 296.75 216.05 298.82 218.46 299.86C220.84 300.86 223.39 301.38 225.97 301.39C227.37 305.68 228.25 309.17 228.5 310.03C224.96 304.3 218.89 300.9 214.57 303.2C215.45 306.19 217.61 308.63 220.47 309.86C223.14 311 226 311.61 228.91 311.65C230.1 316.43 230.8 320.31 231 321.27C228.19 314.7 222.48 310.17 217.5 311.76C217.87 315.17 219.73 318.23 222.59 320.13C225.28 321.9 228.29 323.13 231.46 323.73C232.18 327.89 232.61 331.25 232.74 332.09C227.67 326.41 220.15 323.87 215.89 327.37C217.48 330.4 220.34 332.57 223.69 333.28C226.73 333.92 229.86 333.97 232.92 333.42C233.63 339.01 233.99 343.53 234.11 344.65C228.72 339.18 220.99 337.02 216.9 340.77C218.66 343.71 221.64 345.71 225.03 346.24C228.08 346.71 231.2 346.58 234.21 345.87C234.69 351.64 234.91 356.28 234.98 357.43C230.36 351.14 222.82 347.86 218.22 351.11C219.59 354.25 222.29 356.61 225.58 357.57C228.65 358.45 231.86 358.71 235.03 358.36C235.26 362.81 235.44 367.28 235.59 371.74C231.37 364.41 223.66 359.98 218.33 362.91C219.23 366.45 222.14 369.24 225.46 370.75C228.69 372.07 232.14 372.75 235.63 372.74C235.79 377.38 235.93 382.03 236.09 386.66C236.09 386.74 236.16 386.82 236.25 386.82C236.34 386.82 236.41 386.74 236.41 386.66C236.45 382.3 236.46 377.9 236.41 373.49C244.5 370.49 250.28 363.38 248.13 357.56C244.5 357.93 241.31 360.39 239.32 363.45Z" id="beF8BwvPO"></path><linearGradient id="gradientc1vhKGx1rS" gradientUnits="userSpaceOnUse" x1="256.42" y1="386.66" x2="256.42" y2="258.69"><stop style="stop-color: #ad9eea;stop-opacity: 1" offset="0%"></stop><stop style="stop-color: #b3a6eb;stop-opacity: 1" offset="25%"></stop><stop style="stop-color: #c3bcef;stop-opacity: 1" offset="64.5%"></stop><stop style="stop-color: #d7d7f4;stop-opacity: 1" offset="100%"></stop></linearGradient><path d="M417.79 461.15C418.91 459.64 419.9 458.04 420.75 456.37C425 447.98 425.4 438.18 424.72 428.81C423.93 418.02 421.83 407.36 418.47 397.08C417.21 393.24 415.43 389.07 411.72 387.46C408.88 386.22 405.61 386.82 402.61 387.57C390.44 390.58 378.86 395.61 368.35 402.43C377.74 384.47 396.46 373.17 407.43 356.13C408.98 353.72 410.36 350.5 408.72 348.14C406.87 345.49 402.83 346.13 399.78 347.17C373.14 356.34 350.18 373.88 334.34 397.18C341.07 367.71 369.96 349.38 386.44 324.03C388.89 320.26 390.83 314.67 387.38 311.79C385.69 310.38 383.29 310.27 381.1 310.42C373.55 310.93 366.36 313.73 359.5 316.91C334.23 328.65 311.94 345.94 294.28 367.48C298.74 354.73 311.11 346.19 316.46 333.78C317.82 330.63 318.35 326.25 315.45 324.41C313.72 323.31 311.46 323.66 309.47 324.14C282.55 330.74 260.37 378.19 260.37 378.19C260.37 378.19 259.78 332.74 258.12 311.39C257.45 302.78 253.97 281.25 240.57 289.53C226.33 298.32 234.16 387.49 234.16 387.49C234.16 387.49 228.72 345.46 223.69 325.45C222.42 320.41 215.16 309.17 211.01 319.01C210.06 321.62 209.78 324.43 210.21 327.17C212.9 351.08 225.24 391.53 225.24 391.53C225.24 391.53 201.3 327.3 194.17 314.14C187.04 300.98 177.66 288.49 164.66 281.07C146.74 270.85 126.76 280.21 124.79 302.95C120.79 349.25 203.21 441.61 219.89 458.43C178.84 397.62 92.19 356.65 68.5 374.87C65.15 377.45 59.08 383.14 63.15 395.65C67.08 407.75 116.08 461.15 146.36 461.15C200.65 461.15 363.51 461.15 417.79 461.15Z" id="c1KrQMdqP1"></path><path d="M229.49 461.15C222.83 444.43 213.27 418.23 199.99 387.5C169.75 317.49 137.61 270.21 137.61 270.21C129.88 274.01 113.36 288.21 111.7 299.76C106.65 334.85 220.38 461.15 220.38 461.15C222.21 461.15 228.58 461.15 229.49 461.15Z" id="bYeEw3KTv"></path><linearGradient id="gradientg36Gg3xiA" gradientUnits="userSpaceOnUse" x1="217.46" y1="460.58" x2="116.73" y2="274.41"><stop style="stop-color: #5b6dff;stop-opacity: 0.2" offset="0%"></stop><stop style="stop-color: #5b6dff;stop-opacity: 0.102" offset="100%"></stop></linearGradient><path d="M214.37 314.66C221.99 342.9 227.62 371.63 231.19 400.65C237.08 448.14 238.95 461.87 238.95 461.87C238.01 457.03 233.34 432.82 224.92 389.24L203.51 317.49C209.3 315.98 212.92 315.04 214.37 314.66Z" id="a2feJMugTC"></path><linearGradient id="gradientafM0otvC3" gradientUnits="userSpaceOnUse" x1="258.23" y1="446.56" x2="189.76" y2="320.11"><stop style="stop-color: #5b6dff;stop-opacity: 0.2" offset="0%"></stop><stop style="stop-color: #5b6dff;stop-opacity: 0.102" offset="100%"></stop></linearGradient><path d="M246.73 287.21C246.73 287.21 243.86 438.62 250.85 461.15C250.85 461.15 243.25 460.67 243.25 460.67C242.63 455.53 239.49 429.86 233.85 383.63L226.66 290.24C237.36 288.63 244.05 287.62 246.73 287.21Z" id="bxSbEFPVo"></path><linearGradient id="gradientbs4FJbrDs" gradientUnits="userSpaceOnUse" x1="280.63" y1="438.89" x2="205.08" y2="296.61"><stop style="stop-color: #5b6dff;stop-opacity: 0.2" offset="0%"></stop><stop style="stop-color: #5b6dff;stop-opacity: 0.102" offset="100%"></stop></linearGradient><path d="M315.45 324.41C315.45 324.41 291.82 341.78 279.56 367.78C254.21 421.55 253.37 461.87 253.37 461.87C253.37 461.87 249.97 419.96 260.57 375.47C271.18 330.97 312.75 299.04 312.75 299.04C313.29 304.11 314.91 319.34 315.45 324.41Z" id="bzC3RgXs0"></path><linearGradient id="gradientbjbjOT27Z" gradientUnits="userSpaceOnUse" x1="308.81" y1="428" x2="254.1" y2="326.88"><stop style="stop-color: #5b6dff;stop-opacity: 0.2" offset="0%"></stop><stop style="stop-color: #5b6dff;stop-opacity: 0.102" offset="100%"></stop></linearGradient><path d="M359.35 388.95C359.35 388.95 408.72 348.14 408.72 348.14C408.72 348.14 413.22 334.21 407.84 334.21C402.46 334.21 384.5 342.19 384.5 342.19C381.77 344.65 368.09 356.96 343.47 379.13C337.99 389.96 334.94 395.98 334.33 397.19C334.33 397.19 313.36 428.44 303.73 461.87C314.85 447.29 332.06 413.51 359.35 388.95Z" id="b6UrfNmZO"></path><linearGradient id="gradientd1KXPTvvg5" gradientUnits="userSpaceOnUse" x1="370.34" y1="423.58" x2="338.53" y2="364.85"><stop style="stop-color: #5b6dff;stop-opacity: 0.2" offset="0%"></stop><stop style="stop-color: #5b6dff;stop-opacity: 0.102" offset="100%"></stop></linearGradient><path d="M221.61 385.9C218.59 387.95 216.95 391.63 216.65 395.27C216.49 397.9 216.78 400.54 217.5 403.07C214.41 397.53 211.77 393.16 211.14 392.05C216.14 386.49 217.67 378.66 213.65 375.1C211.1 377.02 209.54 379.96 209.39 383.14C209.25 385.74 209.59 388.34 210.39 390.82C207.32 385.75 204.7 381.8 204.07 380.8C208.96 375.24 210.43 367.53 206.44 364.01C203.9 365.92 202.34 368.87 202.18 372.05C202.04 374.49 202.34 376.94 203.06 379.29C200.3 375.17 197.95 371.98 197.38 371.17C201.04 365.6 201.27 358.44 197.21 355.93C195.3 357.95 194.39 360.72 194.73 363.48C195.07 366.13 195.93 368.7 197.27 371.01C194.5 367.23 192.13 364.33 191.56 363.59C194.44 357.7 193.83 350.72 189.58 348.7C187.91 350.93 187.32 353.78 187.96 356.48C188.39 358.4 189.14 360.23 190.18 361.9C186.9 357.94 184.08 354.95 183.4 354.18C186.29 348.28 185.69 341.28 181.43 339.27C179.76 341.49 179.16 344.34 179.8 347.05C180.31 349.23 181.21 351.3 182.45 353.17C179.26 349.8 176.52 347.29 175.86 346.64C178.31 341.66 177.8 335.75 174.21 334.05C172.8 335.92 172.29 338.32 172.83 340.61C173.3 342.58 174.13 344.45 175.29 346.12C172.71 343.75 170.53 341.97 170 341.51C171.37 336.97 170.12 332.06 166.86 331.12C165.92 332.9 165.83 335 166.6 336.85C167.19 338.28 168.02 339.6 169.06 340.73C168.07 339.94 167.08 339.14 166.06 338.37C163.77 333.66 159.13 330.6 155.74 332.24C156.3 334.42 157.79 336.25 159.83 337.22C161.75 338.13 163.82 338.65 165.93 338.75C167.41 339.9 168.55 340.86 168.84 341.09C164.58 338.59 159.47 338.48 157.48 341.46C159.07 343.06 161.28 343.87 163.53 343.68C165.69 343.48 167.79 342.85 169.71 341.83C172.53 344.22 174.65 346.25 175.2 346.74C170.08 343.27 163.51 342.9 161.05 346.59C162.9 348.46 165.49 349.41 168.11 349.18C170.68 348.94 173.17 348.19 175.44 346.97C178.72 350.08 181.14 352.74 181.77 353.38C175.93 350.01 168.98 349.9 166.27 353.97C168.46 356.19 171.52 357.31 174.62 357.04C177.51 356.78 180.33 355.95 182.9 354.6C186.22 358.25 188.67 361.33 189.32 362.08C183.72 357.63 176.54 356.35 172.91 360.12C174.85 362.94 177.95 364.76 181.36 365.07C184.57 365.36 187.81 365 190.88 364.04C193.5 367.35 195.47 370.11 195.98 370.78C188.82 368.19 180.99 369.53 178.9 374.62C181.74 376.54 185.28 377.09 188.57 376.13C191.55 375.25 194.33 373.81 196.76 371.87C200.04 376.46 202.5 380.26 203.14 381.19C195.8 378.93 187.96 380.69 186.15 385.94C189.09 387.69 192.66 388.04 195.89 386.9C198.81 385.86 201.49 384.27 203.8 382.21C206.96 387.07 209.35 391.05 209.97 392.03C202.91 388.68 194.72 389.37 192.21 394.41C194.91 396.52 198.41 397.33 201.76 396.61C204.87 395.92 207.83 394.63 210.45 392.81C213.93 398.54 216.61 403.18 217.29 404.33C210.1 399.88 201.21 399.64 197.9 404.75C200.38 407.44 204.26 408.51 207.9 408.27C211.37 407.9 214.73 406.85 217.8 405.19C220.14 409.21 222.47 413.24 224.82 417.24C224.91 417.42 225.18 417.24 225.08 417.06C223.05 413.21 220.97 409.35 218.84 405.48C223.79 395.17 224.71 388.64 221.61 385.9Z" id="b3oc9lwmQ6"></path><linearGradient id="gradientaMioia1Js" gradientUnits="userSpaceOnUse" x1="276.53" y1="405.63" x2="150.26" y2="149.83"><stop style="stop-color: #ad9eea;stop-opacity: 1" offset="0%"></stop><stop style="stop-color: #b3a6eb;stop-opacity: 1" offset="25%"></stop><stop style="stop-color: #c3bcef;stop-opacity: 1" offset="64.5%"></stop><stop style="stop-color: #d7d7f4;stop-opacity: 1" offset="100%"></stop></linearGradient><path d="M387.49 339.76C389.25 339.57 390.95 339.03 392.5 338.19C394.16 337.27 395.33 335.65 395.69 333.78C392.75 332.57 388.99 335.38 387.29 339.47C386.52 340.14 385.74 340.79 385 341.47C385.77 340.49 386.38 339.39 386.77 338.21C387.33 336.6 387.15 334.84 386.28 333.38C383.57 334.34 382.76 338.53 384.13 342.29C381.98 344.29 380.35 345.99 379.93 346.41C380.82 344.95 381.42 343.35 381.71 341.67C382.05 339.72 381.51 337.72 380.23 336.21C377.29 337.83 377.15 342.83 379.46 346.9C377.69 348.74 375.96 350.62 374.31 352.57C375.23 350.99 375.85 349.25 376.16 347.45C376.56 345.14 375.92 342.76 374.4 340.97C370.92 342.88 370.75 348.78 373.46 353.6C370.76 356.84 368.78 359.59 368.26 360.26C369 358.86 369.5 357.36 369.76 355.8C370.16 353.49 369.52 351.12 368 349.33C364.53 351.22 364.35 357.1 367.04 361.92C365.56 363.99 364.14 366.1 362.75 368.23C363.7 366.29 364.26 364.19 364.4 362.03C364.54 359.69 363.64 357.4 361.93 355.79C358.65 358.1 359.18 364.09 362.51 368.6C360.29 372.03 358.63 374.86 358.2 375.55C358.66 373.61 358.77 371.6 358.54 369.62C358.25 366.95 356.79 364.54 354.55 363.06C351.38 366.21 352.97 372.61 357.34 377.05C354.89 381.27 353.08 384.74 352.6 385.6C353.12 383.55 353.26 381.42 353.02 379.32C352.73 376.65 351.27 374.25 349.03 372.76C345.82 375.94 347.48 382.43 351.93 386.88C349.49 391.57 347.67 395.37 347.2 396.32C347.65 394.21 347.75 392.04 347.49 389.9C347.16 386.79 345.46 383.99 342.85 382.26C339.14 385.93 341.01 393.4 346.11 398.58C343.71 403.63 341.91 407.66 341.44 408.67C341.36 408.86 341.62 409.02 341.72 408.83C344.4 403.61 346.53 399.4 347.07 398.35C349.72 399.58 352.58 400.29 355.5 400.42C358.63 400.56 361.65 399.29 363.76 396.97C360.74 392.85 353.33 393.46 347.51 397.49C349.2 394.17 350.91 390.86 352.66 387.57C354.94 388.95 357.47 389.88 360.11 390.3C362.97 390.74 365.87 389.89 368.04 387.97C365.69 383.88 358.85 383.68 353.09 386.77C355.36 382.51 357.27 379.17 357.74 378.32C359.77 379.92 362.09 381.11 364.57 381.83C367.34 382.63 370.34 382.16 372.73 380.54C370.95 376.24 364.35 375.12 358.31 377.33C360.66 373.24 362.67 370.06 363.16 369.25C365.29 370.74 367.68 371.8 370.2 372.39C373.03 373.04 375.99 372.4 378.29 370.64C376.29 366.48 369.71 365.72 363.83 368.2C365.73 365.23 367.35 362.92 367.74 362.33C370.36 362.98 373.07 363.11 375.74 362.72C378.6 362.28 381.12 360.6 382.61 358.13C379.43 355.19 373.6 356.51 369.13 360.38C371.47 357.12 373.5 354.64 373.98 354C376.2 354.99 378.59 355.54 381.02 355.62C383.65 355.69 386.17 354.59 387.91 352.62C385.45 349.36 379.7 349.75 374.97 352.79C377.34 349.92 379.39 347.76 379.88 347.2C381.84 348.1 383.96 348.61 386.12 348.68C388.34 348.74 390.47 347.82 391.94 346.15C389.73 343.21 384.36 343.78 380.25 346.81C382.28 344.65 384.03 343 384.45 342.58C386.1 343.34 387.89 343.76 389.71 343.82C391.61 343.87 393.44 343.08 394.7 341.65C392.9 339.26 388.69 339.56 385.26 341.79C386.36 340.76 387.27 339.97 387.49 339.76Z" id="a3mwDPGJH9"></path><linearGradient id="gradientcpPXBFhQs" gradientUnits="userSpaceOnUse" x1="335.26" y1="402.65" x2="399.91" y2="337.99"><stop style="stop-color: #ad9eea;stop-opacity: 1" offset="0%"></stop><stop style="stop-color: #b3a6eb;stop-opacity: 1" offset="25%"></stop><stop style="stop-color: #c3bcef;stop-opacity: 1" offset="64.5%"></stop><stop style="stop-color: #d7d7f4;stop-opacity: 1" offset="100%"></stop></linearGradient><path d="M283.29 304.27C280.14 302.38 275.37 304.9 272.68 309.24C273.77 306.47 274.77 304.3 275.01 303.75C276.82 303.83 278.63 303.56 280.34 302.94C282.13 302.28 283.53 300.86 284.16 299.07C281.62 297.53 277.83 299.37 275.48 302.72C276.12 301.36 276.66 300.28 276.79 300.01C278.35 299.17 279.73 298.04 280.85 296.68C282.05 295.2 282.54 293.27 282.18 291.4C279.01 291.37 276.59 295.34 276.5 299.74C275.79 301.11 275.26 302.23 275.12 302.51C275.47 301.32 275.62 300.08 275.55 298.83C275.47 297.14 274.64 295.57 273.29 294.54C271.14 296.43 271.94 300.61 274.61 303.59C273.37 306.22 272.5 308.38 272.26 308.92C272.53 307.26 272.49 305.57 272.14 303.94C271.73 302 270.48 300.34 268.73 299.42C266.61 302.01 268.33 306.68 271.97 309.61C270.54 313.16 269.6 316.09 269.34 316.81C269.59 314.99 269.53 313.15 269.14 311.36C268.65 309.07 267.17 307.1 265.09 306.01C262.58 309.07 264.61 314.61 268.92 318.07C267.64 322.07 266.82 325.34 266.58 326.15C266.74 324.59 266.65 323.02 266.31 321.5C265.82 319.2 264.34 317.24 262.26 316.15C259.75 319.2 261.78 324.72 266.07 328.19C265.17 331.85 264.6 334.81 264.44 335.55C264.58 333.43 264.32 331.3 263.65 329.28C262.92 327.05 261.23 325.27 259.04 324.41C256.86 327.77 259.57 333.13 264.34 336.07C263.56 340.08 263.08 343.32 262.94 344.12C262.64 342.15 262 340.25 261.05 338.5C259.78 336.13 257.53 334.44 254.9 333.9C253.13 338 256.99 343.34 262.69 345.84C261.99 350.66 261.61 354.55 261.49 355.52C261.2 353.44 260.54 351.42 259.54 349.57C258.28 347.2 256.03 345.51 253.4 344.97C251.61 349.11 255.55 354.51 261.34 356.98C260.99 360.48 260.7 363.98 260.46 367.47C260.1 365.36 259.39 363.32 258.36 361.44C256.88 358.68 254.26 356.72 251.2 356.08C249.13 360.87 253.64 367.11 260.3 370.01C259.95 375.6 259.79 380.03 259.73 381.14C259.72 381.35 260.03 381.34 260.05 381.14C260.41 377.25 260.75 373.34 261.11 369.44C264.03 369.6 266.95 369.19 269.71 368.23C272.66 367.18 275 364.88 276.08 361.95C271.74 359.25 265.1 362.57 261.19 368.48C261.53 364.77 261.88 361.06 262.28 357.35C264.91 357.79 267.61 357.7 270.21 357.11C273.02 356.45 275.41 354.58 276.7 352C273 349.07 266.57 351.43 262.38 356.45C262.9 351.65 263.43 347.83 263.54 346.87C266.02 347.6 268.62 347.84 271.19 347.58C274.07 347.3 276.67 345.74 278.29 343.34C275.04 340.02 268.49 341.45 263.7 345.74C264.36 341.07 265.05 337.37 265.2 336.43C267.73 337.02 270.34 337.12 272.91 336.72C275.76 336.27 278.27 334.57 279.75 332.09C276.35 328.97 269.95 330.72 265.43 335.21C266.08 331.74 266.73 329 266.87 328.31C269.54 327.93 272.11 327.04 274.44 325.69C276.93 324.22 278.64 321.72 279.1 318.86C275.05 317.32 270.14 320.72 267.42 325.97C268.38 322.08 269.34 319.02 269.55 318.25C271.98 318.34 274.4 317.96 276.69 317.13C279.15 316.22 281.09 314.26 281.96 311.78C278.47 309.67 273.28 312.18 270.02 316.75C270.77 314.39 271.59 312.06 272.48 309.73C274.64 309.85 276.8 309.53 278.83 308.79C280.91 308.03 282.55 306.37 283.29 304.27Z" id="acu0q5XBJ"></path><linearGradient id="gradientbTUVdKHUl" gradientUnits="userSpaceOnUse" x1="244.24" y1="373.47" x2="331.76" y2="289.65"><stop style="stop-color: #ad9eea;stop-opacity: 1" offset="0%"></stop><stop style="stop-color: #b3a6eb;stop-opacity: 1" offset="25%"></stop><stop style="stop-color: #c3bcef;stop-opacity: 1" offset="64.5%"></stop><stop style="stop-color: #d7d7f4;stop-opacity: 1" offset="100%"></stop></linearGradient><path d="M430.82 318.94L429.94 327.31L436.81 324.73L430.82 318.94Z" id="b22IiDLWW1"></path><path d="M256.68 280.69L264.79 278.46L259.88 273L256.68 280.69Z" id="e28jNDl7l"></path><path d="M190.95 320.96L188.46 329L195.7 327.8L190.95 320.96Z" id="aTVL75vs"></path><path d="M190.91 215.07L182.51 214.57L185.4 221.32L190.91 215.07Z" id="b1ug9aWvOc"></path><path d="M282.86 192.6C282.86 192.6 282.86 192.6 282.86 192.6C279.38 198.2 277.45 201.31 277.07 201.93C277.07 201.93 277.07 201.93 277.07 201.93C271.47 198.45 268.36 196.53 267.74 196.14C267.74 196.14 267.74 196.14 267.74 196.14C271.21 190.54 273.14 187.43 273.52 186.81C273.52 186.81 273.52 186.81 273.52 186.81C279.12 190.28 282.23 192.21 282.86 192.6Z" id="c1TaY1TpHY"></path><path d="M402.93 262.67C402.93 262.67 402.93 262.67 402.93 262.67C403.01 264.54 403.06 265.57 403.07 265.78C403.07 265.78 403.07 265.78 403.07 265.78C401.21 265.86 400.17 265.91 399.96 265.92C399.96 265.92 399.96 265.92 399.96 265.92C399.88 264.05 399.84 263.02 399.83 262.81C399.83 262.81 399.83 262.81 399.83 262.81C401.69 262.73 402.72 262.68 402.93 262.67Z" id="dtJfkOErg"></path><linearGradient id="gradientb435e7eW0K" gradientUnits="userSpaceOnUse" x1="442.13" y1="305.65" x2="439.08" y2="308.81"><stop style="stop-color: #ad9eea;stop-opacity: 1" offset="0%"></stop><stop style="stop-color: #b3a6eb;stop-opacity: 1" offset="25%"></stop><stop style="stop-color: #c3bcef;stop-opacity: 1" offset="64.5%"></stop><stop style="stop-color: #d7d7f4;stop-opacity: 1" offset="100%"></stop></linearGradient><path d="M177.65 287.82C177.65 287.82 177.65 287.82 177.65 287.82C180.06 292.95 181.4 295.8 181.67 296.37C181.67 296.37 181.67 296.37 181.67 296.37C176.54 298.78 173.68 300.12 173.11 300.39C173.11 300.39 173.11 300.39 173.11 300.39C170.7 295.26 169.36 292.41 169.09 291.84C169.09 291.84 169.09 291.84 169.09 291.84C174.22 289.42 177.08 288.08 177.65 287.82Z" id="d11fr5XhbW"></path><linearGradient id="gradientoujJlntP4" gradientUnits="userSpaceOnUse" x1="219.59" y1="286.42" x2="214.73" y2="298.87"><stop style="stop-color: #ad9eea;stop-opacity: 1" offset="0%"></stop><stop style="stop-color: #b3a6eb;stop-opacity: 1" offset="25%"></stop><stop style="stop-color: #c3bcef;stop-opacity: 1" offset="64.5%"></stop><stop style="stop-color: #d7d7f4;stop-opacity: 1" offset="100%"></stop></linearGradient><path d="M400.7 312.78C400.7 312.78 400.7 312.78 400.7 312.78C399.71 316.24 399.15 318.15 399.04 318.54C399.04 318.54 399.04 318.54 399.04 318.54C395.59 317.54 393.67 316.99 393.29 316.87C393.29 316.87 393.29 316.87 393.29 316.87C394.28 313.42 394.84 311.5 394.95 311.12C394.95 311.12 394.95 311.12 394.95 311.12C398.4 312.12 400.32 312.67 400.7 312.78Z" id="bpoCSbMu4"></path><linearGradient id="gradientblLsKFhzl" gradientUnits="userSpaceOnUse" x1="371.24" y1="411.07" x2="363.72" y2="414.97"><stop style="stop-color: #ad9eea;stop-opacity: 1" offset="0%"></stop><stop style="stop-color: #b3a6eb;stop-opacity: 1" offset="25%"></stop><stop style="stop-color: #c3bcef;stop-opacity: 1" offset="64.5%"></stop><stop style="stop-color: #d7d7f4;stop-opacity: 1" offset="100%"></stop></linearGradient><path d="M380.95 253.33C380.95 253.33 380.95 253.33 380.95 253.33C381.44 256.89 381.71 258.86 381.77 259.26C381.77 259.26 381.77 259.26 381.77 259.26C378.21 259.75 376.23 260.02 375.83 260.08C375.83 260.08 375.83 260.08 375.83 260.08C375.34 256.52 375.07 254.54 375.02 254.15C375.02 254.15 375.02 254.15 375.02 254.15C378.57 253.66 380.55 253.38 380.95 253.33Z" id="ghiZEerEH"></path><path d="M184.58 270.44C183.51 270.44 182.63 271.31 182.63 272.39C182.63 273.47 183.51 274.34 184.58 274.34C185.66 274.34 186.54 273.47 186.54 272.39C186.54 271.31 185.66 270.44 184.58 270.44Z" id="a8dXTMCnZ4"></path><linearGradient id="gradientaQWxovu8B" gradientUnits="userSpaceOnUse" x1="185.32" y1="274.2" x2="183.85" y2="270.58"><stop style="stop-color: #ad9eea;stop-opacity: 1" offset="0%"></stop><stop style="stop-color: #b3a6eb;stop-opacity: 1" offset="25%"></stop><stop style="stop-color: #c3bcef;stop-opacity: 1" offset="64.5%"></stop><stop style="stop-color: #d7d7f4;stop-opacity: 1" offset="100%"></stop></linearGradient><path d="M166.02 177.04C164.95 177.04 164.07 177.92 164.07 178.99C164.07 180.07 164.95 180.95 166.02 180.95C167.1 180.95 167.98 180.07 167.98 178.99C167.98 177.92 167.1 177.04 166.02 177.04Z" id="c65xGpZik"></path><linearGradient id="gradienta5iZmXoDw" gradientUnits="userSpaceOnUse" x1="166.76" y1="180.8" x2="165.29" y2="177.19"><stop style="stop-color: #ad9eea;stop-opacity: 1" offset="0%"></stop><stop style="stop-color: #b3a6eb;stop-opacity: 1" offset="25%"></stop><stop style="stop-color: #c3bcef;stop-opacity: 1" offset="64.5%"></stop><stop style="stop-color: #d7d7f4;stop-opacity: 1" offset="100%"></stop></linearGradient><path d="M406.85 369.78C405.77 369.78 404.9 370.65 404.9 371.73C404.9 372.8 405.77 373.68 406.85 373.68C407.93 373.68 408.8 372.8 408.8 371.73C408.8 370.65 407.93 369.78 406.85 369.78Z" id="iD6ACCa9E"></path><linearGradient id="gradientimVu3H7L" gradientUnits="userSpaceOnUse" x1="407.58" y1="373.53" x2="406.12" y2="369.92"><stop style="stop-color: #ad9eea;stop-opacity: 1" offset="0%"></stop><stop style="stop-color: #b3a6eb;stop-opacity: 1" offset="25%"></stop><stop style="stop-color: #c3bcef;stop-opacity: 1" offset="64.5%"></stop><stop style="stop-color: #d7d7f4;stop-opacity: 1" offset="100%"></stop></linearGradient><path d="M228.74 374.16C228.74 374.16 228.74 374.16 228.74 374.16C232.71 424.94 234.91 453.15 235.36 458.79C235.36 458.79 235.36 458.79 235.36 458.79C217.96 460.15 208.29 460.91 206.36 461.06C206.36 461.06 206.36 461.06 206.36 461.06C202.38 410.28 200.18 382.07 199.74 376.43C199.74 376.43 199.74 376.43 199.74 376.43C217.14 375.07 226.8 374.31 228.74 374.16Z" id="f1D297U4ZK"></path><linearGradient id="gradientc15BR9p7o4" gradientUnits="userSpaceOnUse" x1="230.29" y1="458.51" x2="223.77" y2="375.23"><stop style="stop-color: #516dfc;stop-opacity: 1" offset="33.7%"></stop><stop style="stop-color: #546efa;stop-opacity: 1" offset="51.2%"></stop><stop style="stop-color: #5f74f7;stop-opacity: 1" offset="66.9%"></stop><stop style="stop-color: #717df2;stop-opacity: 1" offset="81.8%"></stop><stop style="stop-color: #8b8aea;stop-opacity: 1" offset="96.3%"></stop><stop style="stop-color: #938ee8;stop-opacity: 1" offset="100%"></stop></linearGradient><path d="M233.13 430.33C233.13 430.33 233.13 430.33 233.13 430.33C233.66 437.16 233.96 440.95 234.02 441.71C234.02 441.71 234.02 441.71 234.02 441.71C216.62 443.07 206.95 443.83 205.02 443.98C205.02 443.98 205.02 443.98 205.02 443.98C204.49 437.15 204.19 433.35 204.13 432.6C204.13 432.6 204.13 432.6 204.13 432.6C221.53 431.23 231.2 430.48 233.13 430.33Z" id="fh7F9vlwo"></path><path d="M234.26 444.75C234.26 444.75 234.26 444.75 234.26 444.75C234.48 447.63 234.61 449.23 234.63 449.55C234.63 449.55 234.63 449.55 234.63 449.55C217.23 450.92 207.57 451.67 205.63 451.82C205.63 451.82 205.63 451.82 205.63 451.82C205.41 448.94 205.28 447.34 205.26 447.02C205.26 447.02 205.26 447.02 205.26 447.02C222.66 445.66 232.32 444.9 234.26 444.75Z" id="a4h9q1h8MY"></path><path d="M199.74 376.43C199.74 376.43 199.74 376.43 199.74 376.43C199.74 426.51 199.74 454.34 199.74 459.9C199.74 459.9 199.74 459.9 199.74 459.9C184.58 459.9 176.16 459.9 174.48 459.9C174.48 459.9 174.48 459.9 174.48 459.9C174.48 409.82 174.48 382 174.48 376.43C174.48 376.43 174.48 376.43 174.48 376.43C189.63 376.43 198.05 376.43 199.74 376.43Z" id="f1KJvx9ryo"></path><linearGradient id="gradientbeQ4vmM7d" gradientUnits="userSpaceOnUse" x1="187.11" y1="459.9" x2="187.11" y2="376.43"><stop style="stop-color: #6d79fc;stop-opacity: 1" offset="0%"></stop><stop style="stop-color: #c8a6e0;stop-opacity: 1" offset="100%"></stop></linearGradient><path d="M199.74 437.16C199.74 437.16 199.74 437.16 199.74 437.16C199.74 444.24 199.74 448.17 199.74 448.96C199.74 448.96 199.74 448.96 199.74 448.96C184.58 448.96 176.16 448.96 174.48 448.96C174.48 448.96 174.48 448.96 174.48 448.96C174.48 441.88 174.48 437.95 174.48 437.16C174.48 437.16 174.48 437.16 174.48 437.16C189.63 437.16 198.05 437.16 199.74 437.16Z" id="e4NQ60ghZN"></path><path d="M199.74 451.81C199.74 451.81 199.74 451.81 199.74 451.81C199.74 454.55 199.74 456.08 199.74 456.38C199.74 456.38 199.74 456.38 199.74 456.38C184.58 456.38 176.16 456.38 174.48 456.38C174.48 456.38 174.48 456.38 174.48 456.38C174.48 453.64 174.48 452.11 174.48 451.81C174.48 451.81 174.48 451.81 174.48 451.81C189.63 451.81 198.05 451.81 199.74 451.81Z" id="i4WBNWanP0"></path><path d="M174.48 376.43C174.48 376.43 174.48 376.43 174.48 376.43C174.48 426.51 174.48 454.34 174.48 459.9C174.48 459.9 174.48 459.9 174.48 459.9C153.31 459.9 141.55 459.9 139.2 459.9C139.2 459.9 139.2 459.9 139.2 459.9C139.2 409.82 139.2 382 139.2 376.43C139.2 376.43 139.2 376.43 139.2 376.43C160.37 376.43 172.13 376.43 174.48 376.43Z" id="e2uUQPrdoB"></path><linearGradient id="gradienta6KMHgzOjv" gradientUnits="userSpaceOnUse" x1="156.84" y1="459.9" x2="156.84" y2="376.43"><stop style="stop-color: #516dfc;stop-opacity: 1" offset="33.7%"></stop><stop style="stop-color: #546efa;stop-opacity: 1" offset="51.2%"></stop><stop style="stop-color: #5f74f7;stop-opacity: 1" offset="66.9%"></stop><stop style="stop-color: #717df2;stop-opacity: 1" offset="81.8%"></stop><stop style="stop-color: #8b8aea;stop-opacity: 1" offset="96.3%"></stop><stop style="stop-color: #938ee8;stop-opacity: 1" offset="100%"></stop></linearGradient><path d="M174.48 389.77C174.48 389.77 174.48 389.77 174.48 389.77C174.48 392.83 174.48 394.53 174.48 394.87C174.48 394.87 174.48 394.87 174.48 394.87C153.31 394.87 141.55 394.87 139.2 394.87C139.2 394.87 139.2 394.87 139.2 394.87C139.2 391.81 139.2 390.11 139.2 389.77C139.2 389.77 139.2 389.77 139.2 389.77C160.37 389.77 172.13 389.77 174.48 389.77Z" id="c56J396Yj"></path><path d="M174.48 444.49C174.48 444.49 174.48 444.49 174.48 444.49C174.48 447.23 174.48 448.75 174.48 449.06C174.48 449.06 174.48 449.06 174.48 449.06C153.31 449.06 141.55 449.06 139.2 449.06C139.2 449.06 139.2 449.06 139.2 449.06C139.2 446.31 139.2 444.79 139.2 444.49C139.2 444.49 139.2 444.49 139.2 444.49C160.37 444.49 172.13 444.49 174.48 444.49Z" id="h3E0eO66Tf"></path><path d="M215.54 460.87C215.54 460.87 205.79 375.52 241.99 336.27C268.7 307.34 305.11 305.51 329.86 310.01C404.43 323.55 379.61 459.9 379.61 459.9" id="c3ibWg0BQh"></path><linearGradient id="gradientcJSWW2n6M" gradientUnits="userSpaceOnUse" x1="231.78" y1="477.06" x2="371.22" y2="337.62"><stop style="stop-color: #12178f;stop-opacity: 1" offset="0%"></stop><stop style="stop-color: #1a1995;stop-opacity: 1" offset="19.400000000000002%"></stop><stop style="stop-color: #311fa5;stop-opacity: 1" offset="50.2%"></stop><stop style="stop-color: #552ac0;stop-opacity: 1" offset="88.1%"></stop><stop style="stop-color: #632eca;stop-opacity: 1" offset="100%"></stop></linearGradient><path d="M311.17 316.32C278.85 316.72 261.56 351.07 258.21 357.71C257.82 358.49 257.62 358.92 257.62 358.92C257.12 365.71 254.63 399.7 250.14 460.87C322.46 460.87 362.63 460.87 370.67 460.87C370.67 460.87 368.7 350.92 363.46 341.42C358.22 331.92 347.28 315.89 311.17 316.32Z" id="e1uVMg3GKy"></path><path d="M287.72 328.43C312.83 319.69 334.95 321.13 358.38 333.71" id="aWemMmGZa"></path><path d="M288.82 332.8C300.06 328.15 312.5 326.96 324.65 327.65C336.81 328.33 348.77 330.82 360.68 333.31" id="g4RgzNXayF"></path><path d="M283.84 339.24C308.73 332.37 334.9 331.46 360.21 336.58" id="cjOB9vATF"></path><path d="M289.32 341.68C306.36 339 323.59 337.66 340.85 337.67C349.96 337.68 359.31 338.12 367.66 341.73" id="a182dETWTh"></path><path d="M284.78 346.95C311.41 341.5 338.85 341.24 365.59 346.18" id="b8lVpqiOY"></path><path d="M283.32 351.04C312.09 349.47 340.93 349.51 369.7 351.14" id="f7FNkZYTvV"></path><path d="M291.31 358.19C316.93 357.17 342.59 357.55 368.16 359.32" id="d1ZouICyup"></path><path d="M292.29 363.78C319.41 367.73 346.9 368.42 374.18 365.82" id="aaGegEbbZ"></path><path d="M293.31 371.07C318.23 372.68 343.19 373.32 368.18 372.99" id="buwAHCTTd"></path><path d="M290.3 376.7C316.14 381.77 342.63 382.52 368.71 378.92" id="a1gJuaLZvD"></path><path d="M294.29 388.33C316.53 390.3 338.83 391.22 361.19 391.07" id="e269h16HZe"></path><path d="M287.8 396.39C314.05 398.25 340.37 398.78 366.68 397.96" id="b5C3WpRtTp"></path><path d="M281.81 401.34C311.22 403.11 340.67 403.69 370.15 403.07" id="b3Yp2Ti0vJ"></path><path d="M291.81 410.57L372.17 410.57" id="f7g0taFJP9"></path><path d="M281.33 415.09L369.17 418.18" id="h4NCZ5eXZH"></path><path d="M289.83 422.38C318.24 424.51 346.68 426.06 375.16 427.02" id="bS4R44pG"></path><path d="M283.83 429.59C312.8 429.64 341.76 430.39 370.7 431.84" id="d3S6sHbphI"></path><path d="M293.31 441.07C318.07 438.96 342.97 439.34 367.65 442.2" id="c3BjX3CPRu"></path><path d="M290.31 449.5L368.67 449.5" id="cLOJM9CMv"></path><path d="M304.29 455.37L364.18 455.93" id="e1kS4CsrOh"></path><path d="M286.82 325.53C287.36 324.24 288.82 323.64 290.14 323.19C307.91 317.11 330.27 317.86 347.58 325.18" id="f5CG7Imbqg"></path><path d="M297.87 319.71C302.01 320.23 309.38 321.36 314.71 326.68C316.31 328.27 318.3 329.43 320.47 330.05C322.62 330.66 325.2 330.33 326.68 328.66C327.47 327.68 327.97 326.5 328.14 325.26C328.58 322.69 328.38 320.04 327.54 317.57C327.52 317.52 327.5 317.47 327.48 317.42C322.08 316.59 316.63 316.22 311.17 316.32C306.39 316.38 301.65 317.2 297.14 318.75C297.28 318.95 297.8 319.61 297.87 319.71Z" id="actNxCSf2"></path><path d="M439.88 365.19C445.15 360.8 449.78 355.7 453.64 350.03C454.38 348.93 460.9 337.49 460.33 337.25C458.79 336.6 452.65 345.08 452.65 345.08C452.65 345.08 460.36 334.4 458.6 333.35C457.93 332.95 450.23 343.19 450.23 343.19C450.23 343.19 457.81 332.46 456.28 331.53C455.49 331.04 447.59 341.75 447.59 341.75C447.59 341.75 454.15 331.46 452.91 330.81C451.68 330.17 444.04 340.31 440.66 345.66C437.29 351.02 435.28 362.52 435.28 362.52" id="c4qaZIH0Va"></path><linearGradient id="gradientb4sOCYc6u" gradientUnits="userSpaceOnUse" x1="437.84" y1="364.02" x2="456.5" y2="331.65"><stop style="stop-color: #f9c6b9;stop-opacity: 1" offset="39.300000000000004%"></stop><stop style="stop-color: #f9c3b6;stop-opacity: 1" offset="57.49999999999999%"></stop><stop style="stop-color: #f9b9ac;stop-opacity: 1" offset="70.6%"></stop><stop style="stop-color: #f9a99d;stop-opacity: 1" offset="82.19999999999999%"></stop><stop style="stop-color: #f99387;stop-opacity: 1" offset="92.80000000000001%"></stop><stop style="stop-color: #f98074;stop-opacity: 1" offset="100%"></stop></linearGradient><path d="M435.29 356.44C436.06 352.82 437.06 349.25 438.29 345.76C439.53 342.26 441.36 339 443.71 336.12C443.99 335.79 444.52 335.45 444.81 335.78C444.9 335.92 444.94 336.09 444.93 336.25C444.87 337.26 444.62 338.24 444.19 339.15C443.83 340.06 443.54 340.79 443.47 340.98C442.99 341.87 442.84 342.91 443.05 343.91C443.2 344.28 443.39 344.63 443.62 344.96C445.69 348.27 446.2 354.61 440.57 359.22" id="b1EHGv6P1j"></path><linearGradient id="gradiente4vADQI5pz" gradientUnits="userSpaceOnUse" x1="412.4" y1="373.36" x2="462.56" y2="337.86"><stop style="stop-color: #f9c6b9;stop-opacity: 1" offset="39.300000000000004%"></stop><stop style="stop-color: #f9c3b6;stop-opacity: 1" offset="57.49999999999999%"></stop><stop style="stop-color: #f9b9ac;stop-opacity: 1" offset="70.6%"></stop><stop style="stop-color: #f9a99d;stop-opacity: 1" offset="82.19999999999999%"></stop><stop style="stop-color: #f99387;stop-opacity: 1" offset="92.80000000000001%"></stop><stop style="stop-color: #f98074;stop-opacity: 1" offset="100%"></stop></linearGradient><path d="M443.35 344.17C445.56 347.94 445 352.71 441.98 355.86" id="aoWCUa4yw"></path><path d="M445.98 340.89C448.85 342.33 451.55 344.1 454.01 346.17" id="bUEz8As9g"></path><path d="M339.41 320.23C339.41 320.23 360.02 327.56 373.33 345.53C384.16 360.14 398.95 397.76 398.95 397.76C402.54 393.51 431.29 359.43 434.89 355.17C434.89 355.17 439.86 356.88 443.52 363.18C443.52 367.17 413.84 439.69 396.87 439.36C379.9 439.02 350.71 402.42 350.71 402.42" id="c8Ak9yaLS"></path><path d="M360.49 413.65C367.65 421.35 377.66 431.04 386.7 436.03C382.91 424.84 377.5 403.84 372.76 365.19C372.1 367.77 368.81 380.67 362.87 403.89C361.6 409.09 360.81 412.35 360.49 413.65Z" id="bJw49NBpA"></path><path d="M312.47 461.87C314.77 377.63 298.6 318.24 298.6 318.24C298.6 318.24 278.16 322.88 257.27 345.95C246.19 358.82 257.14 367.46 253.63 388.12C247.14 426.3 242.65 461.87 242.65 461.87C256.62 461.87 298.51 461.87 312.47 461.87Z" id="g3fJxcqVdV"></path><path d="M242.74 461.14C276.65 461.41 298.78 450.15 306.53 443.76C308.59 443.73 310.65 443.81 312.69 444.01C312.69 443.5 312.69 439.37 312.69 438.86C312.35 435.74 311.19 432.77 309.33 430.25C305.15 430 271.69 427.97 267.5 427.71C267.5 427.71 286.82 390.67 286.82 373.08C286.82 373.08 260.12 349.93 253.63 388.12C247.67 423.17 243.4 455.99 242.74 461.14Z" id="d3JljX5qRw"></path><path d="M285.32 324.71C285.32 324.71 287.72 353.18 287.72 360.84C289.62 362.75 298.17 365.57 298.17 365.57C298.17 365.57 291.47 368.87 291.47 371.07C291.47 373.28 309.25 416.56 312.7 436.03" id="a15v2e2pmX"></path><path d="M378.65 461.87C374.83 461.87 344.28 461.87 340.46 461.87C344.82 373 339.43 320.7 339.43 320.7C358.38 328.46 371.34 346.24 372.91 366.65C375.59 395.71 377.51 442.82 378.65 461.87Z" id="d3JYpFNSeK"></path><path d="M351.68 327.47C351.68 327.47 356.68 347.99 356.06 358.61C354.47 360.78 347.52 364.68 347.52 364.68C347.52 364.68 354.63 366.94 354.96 369.13C355.28 371.31 342.66 419.59 342.13 439.35" id="b2pdQHebSc"></path><path d="M304.48 432.29C307.9 430.58 311.54 429.36 315.3 428.65C316.83 428.37 321.78 427.46 322.17 428.34C322.71 429.56 316.55 430.94 318.22 430.94C319.89 430.94 330.85 429.51 330.92 430.61C330.99 431.72 320.61 433.9 320.61 433.9C320.61 433.9 332.55 432.86 332.6 434.25C332.66 435.65 321.52 436.32 321.52 436.32C321.52 436.32 331.85 436.15 331.9 437.47C331.94 438.78 321.29 438.65 321.29 438.65C321.29 438.65 329.5 439.14 329.5 440.02C329.5 440.9 316.79 443.22 302.22 439.41" id="aCzKlqVzd"></path><linearGradient id="gradientaabNM8cJn" gradientUnits="userSpaceOnUse" x1="302.22" y1="434.75" x2="332.61" y2="434.75"><stop style="stop-color: #f9c6b9;stop-opacity: 1" offset="18.4%"></stop><stop style="stop-color: #f9c3b6;stop-opacity: 1" offset="42.8%"></stop><stop style="stop-color: #f9b9ac;stop-opacity: 1" offset="60.5%"></stop><stop style="stop-color: #f9a99d;stop-opacity: 1" offset="76.1%"></stop><stop style="stop-color: #f99387;stop-opacity: 1" offset="90.3%"></stop><stop style="stop-color: #f98074;stop-opacity: 1" offset="100%"></stop></linearGradient><path d="M289.15 371.73C286.4 391.36 258.7 430.33 258.7 430.33C263.44 430.46 301.39 431.45 306.13 431.58C307.83 434.36 308.23 437.74 307.23 440.84C304.2 445.95 255.92 460.87 234.63 460.87C211.66 460.87 223.96 387.78 256.54 346.86" id="a4RLw0OGl"></path><path d="M349.42 273.55C353.31 273.79 356.22 277.99 355.92 282.93C355.62 287.88 352.22 291.69 348.33 291.46C344.44 291.22 341.53 287.02 341.83 282.07C342.13 277.13 345.53 273.31 349.42 273.55Z" id="k2X8TJ5UWS"></path><path d="M327.08 235.69C325.6 233.74 324.97 231.27 323.82 229.1C320.98 223.76 315.03 220.6 309.03 219.73C307 219.33 304.89 219.47 302.92 220.11C299.58 221.41 297.43 224.88 294.06 226.09C292.76 226.49 291.42 226.72 290.06 226.78C285.43 227.13 280.86 227.99 276.42 229.35C274.7 229.86 273.06 230.63 271.57 231.64C267.79 234.5 266.25 239.44 267.73 243.94C268.44 245.96 269.75 247.79 269.97 249.91C270.2 252.11 269.22 254.4 269.93 256.5C270.43 257.67 271.19 258.71 272.14 259.55C273.71 261.29 275.53 262.78 277.55 263.97C279.62 264.93 281.82 265.59 284.08 265.92C286.99 266.6 289.96 266.98 292.95 267.05C295.96 267.11 298.92 266.25 301.43 264.59C303.45 262.93 305.17 260.93 306.49 258.68" id="k7VTC5biu"></path><path d="M298.66 242.27C296.23 245.05 294.69 248.48 292.72 251.6C290.74 254.72 288.08 257.69 284.52 258.66C282.2 259.14 279.82 259.14 277.51 258.65C276.58 258.61 275.7 258.24 275.01 257.61C274.54 256.89 274.29 256.05 274.31 255.19C274.02 252.21 273.25 249.07 271.08 247C270.32 246.3 269.4 245.8 268.4 245.53C269.17 246.89 269.7 248.38 269.98 249.91C270.2 252.11 269.22 254.41 269.94 256.5C270.44 257.67 271.19 258.71 272.15 259.55C273.71 261.29 275.54 262.78 277.55 263.97C279.62 264.94 281.82 265.59 284.08 265.92C286.99 266.6 289.97 266.98 292.96 267.05C295.97 267.11 298.92 266.25 301.43 264.59C303.46 262.93 305.17 260.93 306.5 258.68C308.56 256.38 325.02 237.99 327.08 235.69C322.59 229.55 314.94 232.53 312.06 233.81C307.19 235.98 302.16 238.26 298.66 242.27Z" id="k3fb2Z5op"></path><path d="M319.18 300.87C315.27 310.19 313.1 315.37 312.67 316.41C311.93 318.15 311.94 320.12 312.69 321.86C314.27 325.5 317.65 331.22 323.29 331.22C332.24 331.22 333.4 320.46 333.4 320.46C333.47 319.51 333.77 314.72 334.33 306.11" id="j5yOs9H81"></path><path d="M334.33 306.11L319.18 300.87C318.87 301.61 318.69 302.03 318.66 302.11C322.42 307.54 327.69 311.74 333.81 314.21C333.88 313.13 334.05 310.43 334.33 306.11Z" id="cHjM9sHlG"></path><path d="M355.92 259.84C359.19 266.72 357.19 274.26 355.84 281.37C354.47 288.58 353.4 298.68 348.53 304.53C335.87 319.77 313.46 304.45 309.35 289.2C306.53 278.74 304.75 264.49 312.42 255.51C321.56 244.78 341.12 244.21 351.35 253.65C353.26 255.4 354.81 257.5 355.92 259.84Z" id="b8pJPfz7J"></path><path d="M307.46 278.35C314.66 279.24 327.4 267.94 334.21 254.32C335.67 254.54 336.4 256.55 337.84 257.16C338.36 257.41 338.95 257.46 339.49 257.3C340.05 257.11 340.39 256.56 340.32 255.98C340.66 256.65 341.14 257.24 341.75 257.68C342.37 258.12 343.16 258.23 343.88 257.98C344.6 257.69 345.01 256.93 344.84 256.17C349.22 257.09 353.56 264.03 354.55 268.46C355.86 274.31 356.34 280.86 354.12 290.77C358.99 290.33 364.41 282.65 366.73 278.35C371.48 269.56 368.22 258.07 361.91 250.94C360.31 249.01 358.33 247.42 356.09 246.29C353.41 245.08 350.43 245.34 347.6 244.82C343.11 239.75 334.25 235.26 326.33 234.38C317.6 233.41 306.56 238.4 301.24 245.02C295.95 251.6 292.57 260.33 293.11 269.17C293.59 277.03 304.65 285.37 310.39 290.76" id="h4yVUGgqo5"></path><path d="M343.64 289.51C344.09 290.4 345.66 292.04 344.43 292.85C343.33 293.58 341.43 293.95 340.31 293.05C339.67 292.46 339.33 291.61 339.38 290.73C339.46 289.42 339.65 288.12 339.96 286.85C340.21 285.42 340.87 281.03 343.14 281.49C343.86 281.64 343.19 288.62 343.64 289.51Z" id="b1Y9Ba5dp"></path><linearGradient id="gradientfLdkKmNeq" gradientUnits="userSpaceOnUse" x1="337.87" y1="282.99" x2="348.99" y2="293.53"><stop style="stop-color: #f9c6b9;stop-opacity: 1" offset="13.3%"></stop><stop style="stop-color: #f9c1b4;stop-opacity: 1" offset="33.800000000000004%"></stop><stop style="stop-color: #f9b5a8;stop-opacity: 1" offset="54.7%"></stop><stop style="stop-color: #f9a194;stop-opacity: 1" offset="75.7%"></stop><stop style="stop-color: #f98579;stop-opacity: 1" offset="96.7%"></stop><stop style="stop-color: #f98074;stop-opacity: 1" offset="100%"></stop></linearGradient><path d="M349.47 280.31C348.68 279.8 348.45 278.75 348.96 277.96C349.37 277.32 350.15 277.03 350.88 277.24C351.83 277.7 352.24 278.83 351.82 279.79C351.32 280.58 350.26 280.81 349.47 280.31Z" id="aSiylRdlr"></path><path d="M329.83 278.94C328.87 278.51 328.43 277.39 328.82 276.42C329.14 275.26 330.1 274.51 330.97 274.75C331.93 275.18 332.38 276.3 331.98 277.27C331.67 278.43 330.71 279.18 329.83 278.94Z" id="b15jA4k1lL"></path><path d="M348.96 271.68C349.13 271.44 349.33 271.23 349.56 271.04C349.86 270.79 350.2 270.6 350.56 270.48C350.75 270.42 350.95 270.39 351.15 270.38C351.35 270.37 351.55 270.39 351.74 270.42C351.93 270.47 352.11 270.55 352.29 270.64C352.46 270.73 352.62 270.85 352.76 270.98C353.02 271.25 353.23 271.56 353.37 271.9C353.48 272.16 353.56 272.44 353.6 272.72C353.63 272.93 353.63 273.05 353.63 273.05C353.63 273.05 353.57 272.97 353.47 272.83C353.33 272.65 353.18 272.47 353.02 272.31C352.82 272.1 352.6 271.91 352.35 271.75C352.08 271.58 351.79 271.46 351.49 271.39C351.18 271.32 350.86 271.3 350.55 271.33C350.39 271.37 350.24 271.37 350.09 271.42C349.95 271.45 349.81 271.5 349.67 271.55C349.45 271.63 349.23 271.73 349.02 271.84C348.86 271.93 348.76 271.97 348.76 271.97C348.8 271.91 348.83 271.86 348.96 271.68Z" id="c4d7O51PBb"></path><path d="M327.53 269.33C327.7 269.04 327.91 268.78 328.16 268.56C328.49 268.24 328.88 267.99 329.3 267.81C329.54 267.71 329.78 267.63 330.03 267.58C330.28 267.53 330.54 267.5 330.8 267.48C331.05 267.49 331.31 267.51 331.57 267.55C331.81 267.59 332.05 267.66 332.29 267.75C332.71 267.92 333.1 268.16 333.43 268.47C333.68 268.68 333.89 268.93 334.06 269.21C334.18 269.42 334.24 269.54 334.24 269.54C334.24 269.54 334.12 269.48 333.94 269.36C333.69 269.21 333.44 269.08 333.17 268.96C333 268.89 332.83 268.82 332.66 268.76C332.48 268.69 332.27 268.66 332.08 268.6C331.65 268.52 331.22 268.47 330.79 268.48C330.36 268.49 329.93 268.54 329.51 268.64C329.31 268.72 329.11 268.74 328.93 268.83C328.48 268.99 328.05 269.21 327.64 269.47C327.46 269.6 327.35 269.66 327.35 269.66C327.38 269.6 327.41 269.54 327.53 269.33Z" id="a10ADH8XEG"></path><path d="M337.3 296.36C337.16 296.26 336.96 296.29 336.86 296.44C336.84 296.48 336.82 296.52 336.81 296.57C336.15 301.74 338.76 303.16 340.03 303.24C343.75 303.46 344.15 299 344.07 297.01C344.07 296.84 343.93 296.71 343.76 296.72C343.72 296.72 343.67 296.73 343.63 296.75C341.57 297.57 339.24 297.43 337.3 296.36Z" id="a1py8xpseU"></path><path d="M331.17 283.86C329.8 283.13 328.21 282.9 326.7 283.24C325.01 283.85 323.9 285.47 323.96 287.27C323.99 289.45 324.87 291.08 326.86 291.75C328.56 292.28 330.42 291.83 331.69 290.58C333.26 288.94 333.81 285.5 331.17 283.86Z" id="a2UdlzFxMR"></path><path d="M352.68 285.77C351.25 284.61 349.15 284.83 347.99 286.25C347.36 287.02 347.11 288.02 347.3 288.99C347.3 290.99 347.93 292.48 349.4 293.08C350.71 293.53 352.17 293.07 352.99 291.95C354.17 290.43 354.61 287.26 352.68 285.77Z" id="g4wXrKEMCz"></path><path d="M497.94 418.1C493.75 421.64 491.4 427.87 484.81 425.58C482.18 424.67 482.75 421.78 481 420.07C479.13 418.24 476.09 417.84 474.57 415.62C471.63 411.33 479.67 411.54 476.64 407.52C472.99 402.68 477.8 397.45 481.99 395.31C486.38 393.06 495.56 389.52 499.48 394.31C501.19 396.42 500.71 398.89 499.55 401.13C498.56 403.03 495.9 405.31 496.65 407.66C497.29 409.63 499.68 410.17 500.66 411.92C500.98 412.44 501.13 413.04 501.12 413.65C501.07 415.45 499.33 416.92 497.94 418.1ZM498.94 381.41C494.89 380.69 492.02 386.71 495.79 388.98C497.62 390.26 500.15 389.81 501.43 387.97C502.23 386.82 502.38 385.35 501.83 384.06C501.44 382.71 500.32 381.69 498.94 381.41ZM503.31 403.48C501.38 403.14 499.17 406.68 500.97 407.75C502.89 408.91 505.34 406.28 504.68 404.75C504.5 404.1 503.96 403.62 503.31 403.48Z" id="ddW0saCTu"></path><linearGradient id="gradientcs27ugMiF" gradientUnits="userSpaceOnUse" x1="477.52" y1="418.78" x2="507.36" y2="388.95"><stop style="stop-color: #babeff;stop-opacity: 0.6" offset="0%"></stop><stop style="stop-color: #f6f3ff;stop-opacity: 0.4" offset="100%"></stop></linearGradient><path d="M492.82 453.08L492.82 449.09C497.85 449.09 500.64 449.09 501.2 449.09C503.9 449.08 506.08 446.9 506.09 444.2C506.09 443.47 506.09 437.61 506.09 436.88C506.08 434.18 503.9 431.99 501.2 431.99C500.64 431.99 497.85 431.99 492.82 431.99L492.82 428C497.85 428 500.64 428 501.2 428C506.1 428 510.07 431.98 510.08 436.88C510.08 437.61 510.08 443.47 510.08 444.2C510.07 449.1 506.1 453.08 501.2 453.08C501.2 453.08 498.4 453.08 492.82 453.08Z" id="dmBHnrJcb"></path><linearGradient id="gradientdbyCjaeHF" gradientUnits="userSpaceOnUse" x1="489.56" y1="449.82" x2="508.13" y2="431.26"><stop style="stop-color: #6d79fc;stop-opacity: 1" offset="33.7%"></stop><stop style="stop-color: #707afa;stop-opacity: 1" offset="51.300000000000004%"></stop><stop style="stop-color: #7b80f5;stop-opacity: 1" offset="67.10000000000001%"></stop><stop style="stop-color: #8d8aed;stop-opacity: 1" offset="82.19999999999999%"></stop><stop style="stop-color: #a798e2;stop-opacity: 1" offset="96.7%"></stop><stop style="stop-color: #ae9ce0;stop-opacity: 1" offset="100%"></stop></linearGradient><path d="M500.49 422.37C500.49 440.08 500.49 449.92 500.49 451.88C500.49 456.29 496.92 459.87 492.51 459.87C492.51 459.87 492.51 459.87 492.51 459.87C491.36 459.87 482.19 459.87 481.05 459.87C476.64 459.87 473.06 456.29 473.06 451.88C473.06 449.92 473.06 440.08 473.06 422.37L500.49 422.37Z" id="ajsA6T8Uy"></path><linearGradient id="gradientaTVpWLziC" gradientUnits="userSpaceOnUse" x1="486.78" y1="459.87" x2="486.78" y2="422.37"><stop style="stop-color: #6d79fc;stop-opacity: 1" offset="0%"></stop><stop style="stop-color: #ae9ce0;stop-opacity: 1" offset="100%"></stop></linearGradient><path d="M384.95 454.07L384.95 459.87L292.86 459.87C292.86 458.84 292.86 458.27 292.86 458.15C292.86 455.9 294.69 454.07 296.94 454.07C308.68 454.07 338.01 454.07 384.95 454.07Z" id="aFog4NITV"></path><path d="M350.37 459.87L469.04 459.87C477.38 416.12 482.02 391.82 482.95 386.95C483.16 385.62 482.25 384.36 480.91 384.15C480.79 384.13 480.66 384.12 480.53 384.12C469.34 384.12 379.8 384.12 368.61 384.12C366.38 384.12 364.48 385.74 364.13 387.94C362.3 397.53 357.71 421.51 350.37 459.87Z" id="a2r4m2Xgc"></path><path d="M353.23 459.87L471.9 459.87C480.24 416.12 484.88 391.82 485.81 386.95C486.02 385.62 485.11 384.36 483.77 384.15C483.65 384.13 483.52 384.12 483.39 384.12C472.2 384.12 382.66 384.12 371.47 384.12C369.24 384.12 367.34 385.74 366.99 387.94C365.16 397.53 360.57 421.51 353.23 459.87Z" id="c2sbbyuG5X"></path><linearGradient id="gradientfphqeTEuu" gradientUnits="userSpaceOnUse" x1="387.17" y1="479.49" x2="452.67" y2="366.02"><stop style="stop-color: #b6bcfc;stop-opacity: 1" offset="0%"></stop><stop style="stop-color: #ffcae0;stop-opacity: 1" offset="100%"></stop></linearGradient><path d="M421.01 431.46C417.02 431.58 413.69 428.43 413.58 424.44C413.56 423.94 413.6 423.44 413.69 422.94C414.46 418.14 418.54 414.56 423.41 414.42C427.4 414.31 430.73 417.45 430.85 421.45C430.86 421.95 430.82 422.45 430.73 422.94C429.96 427.75 425.88 431.33 421.01 431.46Z" id="e1zQWtba7j"></path><path d="M316.64 455.97C316.64 455.97 316.64 455.97 316.64 455.97C316.64 457.17 316.64 457.83 316.64 457.97C316.64 457.97 316.64 457.97 316.64 457.97C307.24 457.97 302.02 457.97 300.98 457.97C300.98 457.97 300.98 457.97 300.98 457.97C300.98 456.77 300.98 456.1 300.98 455.97C300.98 455.97 300.98 455.97 300.98 455.97C310.37 455.97 315.59 455.97 316.64 455.97Z" id="a92SMzmC4"></path><path d="M322.34 455.65C322.34 455.65 322.34 455.65 322.34 455.65C322.34 457.34 322.34 458.28 322.34 458.46C322.34 458.46 322.34 458.46 322.34 458.46C321.89 458.46 321.64 458.46 321.59 458.46C321.59 458.46 321.59 458.46 321.59 458.46C321.59 456.77 321.59 455.84 321.59 455.65C321.59 455.65 321.59 455.65 321.59 455.65C322.04 455.65 322.29 455.65 322.34 455.65Z" id="a3B23YYId2"></path><path d="M323.93 455.65C323.93 455.65 323.93 455.65 323.93 455.65C323.93 457.34 323.93 458.28 323.93 458.46C323.93 458.46 323.93 458.46 323.93 458.46C323.48 458.46 323.23 458.46 323.18 458.46C323.18 458.46 323.18 458.46 323.18 458.46C323.18 456.77 323.18 455.84 323.18 455.65C323.18 455.65 323.18 455.65 323.18 455.65C323.63 455.65 323.88 455.65 323.93 455.65Z" id="a5RlDhgtkB"></path><path d="M325.52 455.65C325.52 455.65 325.52 455.65 325.52 455.65C325.52 457.34 325.52 458.28 325.52 458.46C325.52 458.46 325.52 458.46 325.52 458.46C325.07 458.46 324.82 458.46 324.77 458.46C324.77 458.46 324.77 458.46 324.77 458.46C324.77 456.77 324.77 455.84 324.77 455.65C324.77 455.65 324.77 455.65 324.77 455.65C325.22 455.65 325.47 455.65 325.52 455.65Z" id="bagqWFsOq"></path><path d="M327.11 455.65C327.11 455.65 327.11 455.65 327.11 455.65C327.11 457.34 327.11 458.28 327.11 458.46C327.11 458.46 327.11 458.46 327.11 458.46C326.66 458.46 326.41 458.46 326.36 458.46C326.36 458.46 326.36 458.46 326.36 458.46C326.36 456.77 326.36 455.84 326.36 455.65C326.36 455.65 326.36 455.65 326.36 455.65C326.81 455.65 327.06 455.65 327.11 455.65Z" id="elYsEMO9y"></path><path d="M328.7 455.65C328.7 455.65 328.7 455.65 328.7 455.65C328.7 457.34 328.7 458.28 328.7 458.46C328.7 458.46 328.7 458.46 328.7 458.46C328.25 458.46 328 458.46 327.95 458.46C327.95 458.46 327.95 458.46 327.95 458.46C327.95 456.77 327.95 455.84 327.95 455.65C327.95 455.65 327.95 455.65 327.95 455.65C328.4 455.65 328.65 455.65 328.7 455.65Z" id="d1OMgzqf4K"></path><path d="M330.29 455.65C330.29 455.65 330.29 455.65 330.29 455.65C330.29 457.34 330.29 458.28 330.29 458.46C330.29 458.46 330.29 458.46 330.29 458.46C329.84 458.46 329.59 458.46 329.54 458.46C329.54 458.46 329.54 458.46 329.54 458.46C329.54 456.77 329.54 455.84 329.54 455.65C329.54 455.65 329.54 455.65 329.54 455.65C329.99 455.65 330.24 455.65 330.29 455.65Z" id="eQMZxDaCr"></path><path d="M331.87 455.65C331.87 455.65 331.87 455.65 331.87 455.65C331.87 457.34 331.87 458.28 331.87 458.46C331.87 458.46 331.87 458.46 331.87 458.46C331.42 458.46 331.17 458.46 331.12 458.46C331.12 458.46 331.12 458.46 331.12 458.46C331.12 456.77 331.12 455.84 331.12 455.65C331.12 455.65 331.12 455.65 331.12 455.65C331.57 455.65 331.82 455.65 331.87 455.65Z" id="arDp2EoXC"></path><path d="M336.5 455.65C336.5 455.65 336.5 455.65 336.5 455.65C336.5 457.34 336.5 458.28 336.5 458.46C336.5 458.46 336.5 458.46 336.5 458.46C336.06 458.46 335.81 458.46 335.76 458.46C335.76 458.46 335.76 458.46 335.76 458.46C335.76 456.77 335.76 455.84 335.76 455.65C335.76 455.65 335.76 455.65 335.76 455.65C336.21 455.65 336.45 455.65 336.5 455.65Z" id="a27th26igm"></path><path d="M338.09 455.65C338.09 455.65 338.09 455.65 338.09 455.65C338.09 457.34 338.09 458.28 338.09 458.46C338.09 458.46 338.09 458.46 338.09 458.46C337.64 458.46 337.4 458.46 337.35 458.46C337.35 458.46 337.35 458.46 337.35 458.46C337.35 456.77 337.35 455.84 337.35 455.65C337.35 455.65 337.35 455.65 337.35 455.65C337.79 455.65 338.04 455.65 338.09 455.65Z" id="g10aCWQldI"></path><path d="M339.68 455.65C339.68 455.65 339.68 455.65 339.68 455.65C339.68 457.34 339.68 458.28 339.68 458.46C339.68 458.46 339.68 458.46 339.68 458.46C339.23 458.46 338.98 458.46 338.93 458.46C338.93 458.46 338.93 458.46 338.93 458.46C338.93 456.77 338.93 455.84 338.93 455.65C338.93 455.65 338.93 455.65 338.93 455.65C339.38 455.65 339.63 455.65 339.68 455.65Z" id="c2qQOYRB0I"></path><path d="M344.31 455.65C344.31 455.65 344.31 455.65 344.31 455.65C344.31 457.34 344.31 458.28 344.31 458.46C344.31 458.46 344.31 458.46 344.31 458.46C343.86 458.46 343.61 458.46 343.57 458.46C343.57 458.46 343.57 458.46 343.57 458.46C343.57 456.77 343.57 455.84 343.57 455.65C343.57 455.65 343.57 455.65 343.57 455.65C344.01 455.65 344.26 455.65 344.31 455.65Z" id="bvFhcaXWB"></path><path d="M345.9 455.65C345.9 455.65 345.9 455.65 345.9 455.65C345.9 457.34 345.9 458.28 345.9 458.46C345.9 458.46 345.9 458.46 345.9 458.46C345.45 458.46 345.2 458.46 345.15 458.46C345.15 458.46 345.15 458.46 345.15 458.46C345.15 456.77 345.15 455.84 345.15 455.65C345.15 455.65 345.15 455.65 345.15 455.65C345.6 455.65 345.85 455.65 345.9 455.65Z" id="f3oBgJWhwc"></path><path d="M158.5 459.87L525.61 459.87L525.61 461.87L158.5 461.87L158.5 459.87ZM536.13 461.87L595.26 461.87L595.26 459.87L536.13 459.87L536.13 461.87Z" id="a2zb5BXFGU"></path><linearGradient id="gradienta13RTqhZr1" gradientUnits="userSpaceOnUse" x1="595.26" y1="460.87" x2="158.5" y2="460.87"><stop style="stop-color: #ef225f;stop-opacity: 1" offset="0%"></stop><stop style="stop-color: #111890;stop-opacity: 1" offset="100%"></stop></linearGradient></defs><g><g><use xlink:href="#aUrKBkKGl" opacity="1" fill="url(#gradientg1o2vgmsWB)"></use><g><use xlink:href="#aUrKBkKGl" opacity="1" fill-opacity="0" stroke="#000000" stroke-width="1" stroke-opacity="0"></use></g></g><g><use xlink:href="#beF8BwvPO" opacity="1" fill="url(#gradientc1vhKGx1rS)"></use><g><use xlink:href="#beF8BwvPO" opacity="1" fill-opacity="0" stroke="#000000" stroke-width="1" stroke-opacity="0"></use></g></g><g><use xlink:href="#c1KrQMdqP1" opacity="1" fill="#e4e3ff" fill-opacity="1"></use><g><use xlink:href="#c1KrQMdqP1" opacity="1" fill-opacity="0" stroke="#000000" stroke-width="1" stroke-opacity="0"></use></g></g><g><use xlink:href="#bYeEw3KTv" opacity="1" fill="url(#gradientg36Gg3xiA)"></use><g><use xlink:href="#bYeEw3KTv" opacity="1" fill-opacity="0" stroke="#000000" stroke-width="1" stroke-opacity="0"></use></g></g><g><use xlink:href="#a2feJMugTC" opacity="1" fill="url(#gradientafM0otvC3)"></use><g><use xlink:href="#a2feJMugTC" opacity="1" fill-opacity="0" stroke="#000000" stroke-width="1" stroke-opacity="0"></use></g></g><g><use xlink:href="#bxSbEFPVo" opacity="1" fill="url(#gradientbs4FJbrDs)"></use><g><use xlink:href="#bxSbEFPVo" opacity="1" fill-opacity="0" stroke="#000000" stroke-width="1" stroke-opacity="0"></use></g></g><g><use xlink:href="#bzC3RgXs0" opacity="1" fill="url(#gradientbjbjOT27Z)"></use><g><use xlink:href="#bzC3RgXs0" opacity="1" fill-opacity="0" stroke="#000000" stroke-width="1" stroke-opacity="0"></use></g></g><g><use xlink:href="#b6UrfNmZO" opacity="1" fill="url(#gradientd1KXPTvvg5)"></use><g><use xlink:href="#b6UrfNmZO" opacity="1" fill-opacity="0" stroke="#000000" stroke-width="1" stroke-opacity="0"></use></g></g><g><use xlink:href="#b3oc9lwmQ6" opacity="1" fill="url(#gradientaMioia1Js)"></use><g><use xlink:href="#b3oc9lwmQ6" opacity="1" fill-opacity="0" stroke="#000000" stroke-width="1" stroke-opacity="0"></use></g></g><g><use xlink:href="#a3mwDPGJH9" opacity="1" fill="url(#gradientcpPXBFhQs)"></use><g><use xlink:href="#a3mwDPGJH9" opacity="1" fill-opacity="0" stroke="#000000" stroke-width="1" stroke-opacity="0"></use></g></g><g><use xlink:href="#acu0q5XBJ" opacity="1" fill="url(#gradientbTUVdKHUl)"></use><g><use xlink:href="#acu0q5XBJ" opacity="1" fill-opacity="0" stroke="#000000" stroke-width="1" stroke-opacity="0"></use></g></g><g><use xlink:href="#b22IiDLWW1" opacity="1" fill="#000000" fill-opacity="0"></use><g><use xlink:href="#b22IiDLWW1" opacity="1" fill-opacity="0" stroke="#707070" stroke-width="1" stroke-opacity="1"></use></g></g><g><use xlink:href="#e28jNDl7l" opacity="1" fill="#000000" fill-opacity="0"></use><g><use xlink:href="#e28jNDl7l" opacity="1" fill-opacity="0" stroke="#707070" stroke-width="1" stroke-opacity="1"></use></g></g><g><use xlink:href="#aTVL75vs" opacity="1" fill="#000000" fill-opacity="0"></use><g><use xlink:href="#aTVL75vs" opacity="1" fill-opacity="0" stroke="#707070" stroke-width="1" stroke-opacity="1"></use></g></g><g><use xlink:href="#b1ug9aWvOc" opacity="1" fill="#000000" fill-opacity="0"></use><g><use xlink:href="#b1ug9aWvOc" opacity="1" fill-opacity="0" stroke="#707070" stroke-width="1" stroke-opacity="1"></use></g></g><g><use xlink:href="#c1TaY1TpHY" opacity="1" fill="#000000" fill-opacity="0"></use><g><use xlink:href="#c1TaY1TpHY" opacity="1" fill-opacity="0" stroke="#707070" stroke-width="1" stroke-opacity="1"></use></g></g><g><use xlink:href="#dtJfkOErg" opacity="1" fill="url(#gradientb435e7eW0K)"></use><g><use xlink:href="#dtJfkOErg" opacity="1" fill-opacity="0" stroke="#000000" stroke-width="1" stroke-opacity="0"></use></g></g><g><use xlink:href="#d11fr5XhbW" opacity="1" fill="url(#gradientoujJlntP4)"></use><g><use xlink:href="#d11fr5XhbW" opacity="1" fill-opacity="0" stroke="#000000" stroke-width="1" stroke-opacity="0"></use></g></g><g><use xlink:href="#bpoCSbMu4" opacity="1" fill="url(#gradientblLsKFhzl)"></use><g><use xlink:href="#bpoCSbMu4" opacity="1" fill-opacity="0" stroke="#000000" stroke-width="1" stroke-opacity="0"></use></g></g><g><use xlink:href="#ghiZEerEH" opacity="1" fill="#000000" fill-opacity="0"></use><g><use xlink:href="#ghiZEerEH" opacity="1" fill-opacity="0" stroke="#707070" stroke-width="1" stroke-opacity="1"></use></g></g><g><use xlink:href="#a8dXTMCnZ4" opacity="1" fill="url(#gradientaQWxovu8B)"></use><g><use xlink:href="#a8dXTMCnZ4" opacity="1" fill-opacity="0" stroke="#000000" stroke-width="1" stroke-opacity="0"></use></g></g><g><use xlink:href="#c65xGpZik" opacity="1" fill="url(#gradienta5iZmXoDw)"></use><g><use xlink:href="#c65xGpZik" opacity="1" fill-opacity="0" stroke="#000000" stroke-width="1" stroke-opacity="0"></use></g></g><g><use xlink:href="#iD6ACCa9E" opacity="1" fill="url(#gradientimVu3H7L)"></use><g><use xlink:href="#iD6ACCa9E" opacity="1" fill-opacity="0" stroke="#000000" stroke-width="1" stroke-opacity="0"></use></g></g><g><use xlink:href="#f1D297U4ZK" opacity="1" fill="url(#gradientc15BR9p7o4)"></use><g><use xlink:href="#f1D297U4ZK" opacity="1" fill-opacity="0" stroke="#000000" stroke-width="1" stroke-opacity="0"></use></g></g><g><use xlink:href="#fh7F9vlwo" opacity="1" fill="#abbdff" fill-opacity="1"></use><g><use xlink:href="#fh7F9vlwo" opacity="1" fill-opacity="0" stroke="#000000" stroke-width="1" stroke-opacity="0"></use></g></g><g><use xlink:href="#a4h9q1h8MY" opacity="1" fill="#abbdff" fill-opacity="1"></use><g><use xlink:href="#a4h9q1h8MY" opacity="1" fill-opacity="0" stroke="#000000" stroke-width="1" stroke-opacity="0"></use></g></g><g><use xlink:href="#f1KJvx9ryo" opacity="1" fill="url(#gradientbeQ4vmM7d)"></use><g><use xlink:href="#f1KJvx9ryo" opacity="1" fill-opacity="0" stroke="#000000" stroke-width="1" stroke-opacity="0"></use></g></g><g><use xlink:href="#e4NQ60ghZN" opacity="1" fill="#abbdff" fill-opacity="1"></use><g><use xlink:href="#e4NQ60ghZN" opacity="1" fill-opacity="0" stroke="#000000" stroke-width="1" stroke-opacity="0"></use></g></g><g><use xlink:href="#i4WBNWanP0" opacity="1" fill="#abbdff" fill-opacity="1"></use><g><use xlink:href="#i4WBNWanP0" opacity="1" fill-opacity="0" stroke="#000000" stroke-width="1" stroke-opacity="0"></use></g></g><g><use xlink:href="#e2uUQPrdoB" opacity="1" fill="url(#gradienta6KMHgzOjv)"></use><g><use xlink:href="#e2uUQPrdoB" opacity="1" fill-opacity="0" stroke="#000000" stroke-width="1" stroke-opacity="0"></use></g></g><g><use xlink:href="#c56J396Yj" opacity="1" fill="#c5cffc" fill-opacity="1"></use><g><use xlink:href="#c56J396Yj" opacity="1" fill-opacity="0" stroke="#000000" stroke-width="1" stroke-opacity="0"></use></g></g><g><use xlink:href="#h3E0eO66Tf" opacity="1" fill="#c5cffc" fill-opacity="1"></use><g><use xlink:href="#h3E0eO66Tf" opacity="1" fill-opacity="0" stroke="#000000" stroke-width="1" stroke-opacity="0"></use></g></g><g><use xlink:href="#c3ibWg0BQh" opacity="1" fill="url(#gradientcJSWW2n6M)"></use><g><use xlink:href="#c3ibWg0BQh" opacity="1" fill-opacity="0" stroke="#000000" stroke-width="1" stroke-opacity="0"></use></g></g><g><use xlink:href="#e1uVMg3GKy" opacity="1" fill="#ffeefc" fill-opacity="1"></use><g><use xlink:href="#e1uVMg3GKy" opacity="1" fill-opacity="0" stroke="#000000" stroke-width="1" stroke-opacity="0"></use></g></g><g><use xlink:href="#aWemMmGZa" opacity="1" fill="#000000" fill-opacity="0"></use><g><use xlink:href="#aWemMmGZa" opacity="1" fill-opacity="0" stroke="#f4dce9" stroke-width="2" stroke-opacity="1"></use></g></g><g><use xlink:href="#g4RgzNXayF" opacity="1" fill="#000000" fill-opacity="0"></use><g><use xlink:href="#g4RgzNXayF" opacity="1" fill-opacity="0" stroke="#f4dce9" stroke-width="2" stroke-opacity="1"></use></g></g><g><use xlink:href="#cjOB9vATF" opacity="1" fill="#000000" fill-opacity="0"></use><g><use xlink:href="#cjOB9vATF" opacity="1" fill-opacity="0" stroke="#f4dce9" stroke-width="2" stroke-opacity="1"></use></g></g><g><use xlink:href="#a182dETWTh" opacity="1" fill="#000000" fill-opacity="0"></use><g><use xlink:href="#a182dETWTh" opacity="1" fill-opacity="0" stroke="#f4dce9" stroke-width="2" stroke-opacity="1"></use></g></g><g><use xlink:href="#b8lVpqiOY" opacity="1" fill="#000000" fill-opacity="0"></use><g><use xlink:href="#b8lVpqiOY" opacity="1" fill-opacity="0" stroke="#f4dce9" stroke-width="2" stroke-opacity="1"></use></g></g><g><use xlink:href="#f7FNkZYTvV" opacity="1" fill="#000000" fill-opacity="0"></use><g><use xlink:href="#f7FNkZYTvV" opacity="1" fill-opacity="0" stroke="#f4dce9" stroke-width="2" stroke-opacity="1"></use></g></g><g><use xlink:href="#d1ZouICyup" opacity="1" fill="#000000" fill-opacity="0"></use><g><use xlink:href="#d1ZouICyup" opacity="1" fill-opacity="0" stroke="#f4dce9" stroke-width="2" stroke-opacity="1"></use></g></g><g><use xlink:href="#aaGegEbbZ" opacity="1" fill="#000000" fill-opacity="0"></use><g><use xlink:href="#aaGegEbbZ" opacity="1" fill-opacity="0" stroke="#f4dce9" stroke-width="2" stroke-opacity="1"></use></g></g><g><use xlink:href="#buwAHCTTd" opacity="1" fill="#000000" fill-opacity="0"></use><g><use xlink:href="#buwAHCTTd" opacity="1" fill-opacity="0" stroke="#f4dce9" stroke-width="2" stroke-opacity="1"></use></g></g><g><use xlink:href="#a1gJuaLZvD" opacity="1" fill="#000000" fill-opacity="0"></use><g><use xlink:href="#a1gJuaLZvD" opacity="1" fill-opacity="0" stroke="#f4dce9" stroke-width="2" stroke-opacity="1"></use></g></g><g><use xlink:href="#e269h16HZe" opacity="1" fill="#000000" fill-opacity="0"></use><g><use xlink:href="#e269h16HZe" opacity="1" fill-opacity="0" stroke="#f4dce9" stroke-width="2" stroke-opacity="1"></use></g></g><g><use xlink:href="#b5C3WpRtTp" opacity="1" fill="#000000" fill-opacity="0"></use><g><use xlink:href="#b5C3WpRtTp" opacity="1" fill-opacity="0" stroke="#f4dce9" stroke-width="2" stroke-opacity="1"></use></g></g><g><use xlink:href="#b3Yp2Ti0vJ" opacity="1" fill="#000000" fill-opacity="0"></use><g><use xlink:href="#b3Yp2Ti0vJ" opacity="1" fill-opacity="0" stroke="#f4dce9" stroke-width="2" stroke-opacity="1"></use></g></g><g><use xlink:href="#f7g0taFJP9" opacity="1" fill="#000000" fill-opacity="0"></use><g><use xlink:href="#f7g0taFJP9" opacity="1" fill-opacity="0" stroke="#f4dce9" stroke-width="2" stroke-opacity="1"></use></g></g><g><use xlink:href="#h4NCZ5eXZH" opacity="1" fill="#000000" fill-opacity="0"></use><g><use xlink:href="#h4NCZ5eXZH" opacity="1" fill-opacity="0" stroke="#f4dce9" stroke-width="2" stroke-opacity="1"></use></g></g><g><use xlink:href="#bS4R44pG" opacity="1" fill="#000000" fill-opacity="0"></use><g><use xlink:href="#bS4R44pG" opacity="1" fill-opacity="0" stroke="#f4dce9" stroke-width="2" stroke-opacity="1"></use></g></g><g><use xlink:href="#d3S6sHbphI" opacity="1" fill="#000000" fill-opacity="0"></use><g><use xlink:href="#d3S6sHbphI" opacity="1" fill-opacity="0" stroke="#f4dce9" stroke-width="2" stroke-opacity="1"></use></g></g><g><use xlink:href="#c3BjX3CPRu" opacity="1" fill="#000000" fill-opacity="0"></use><g><use xlink:href="#c3BjX3CPRu" opacity="1" fill-opacity="0" stroke="#f4dce9" stroke-width="2" stroke-opacity="1"></use></g></g><g><use xlink:href="#cLOJM9CMv" opacity="1" fill="#000000" fill-opacity="0"></use><g><use xlink:href="#cLOJM9CMv" opacity="1" fill-opacity="0" stroke="#f4dce9" stroke-width="2" stroke-opacity="1"></use></g></g><g><use xlink:href="#e1kS4CsrOh" opacity="1" fill="#000000" fill-opacity="0"></use><g><use xlink:href="#e1kS4CsrOh" opacity="1" fill-opacity="0" stroke="#f4dce9" stroke-width="2" stroke-opacity="1"></use></g></g><g><use xlink:href="#f5CG7Imbqg" opacity="1" fill="#000000" fill-opacity="0"></use><g><use xlink:href="#f5CG7Imbqg" opacity="1" fill-opacity="0" stroke="#f4dce9" stroke-width="2" stroke-opacity="1"></use></g></g><g><use xlink:href="#actNxCSf2" opacity="1" fill="#f4dce9" fill-opacity="1"></use><g><use xlink:href="#actNxCSf2" opacity="1" fill-opacity="0" stroke="#000000" stroke-width="1" stroke-opacity="0"></use></g></g><g><use xlink:href="#c4qaZIH0Va" opacity="1" fill="url(#gradientb4sOCYc6u)"></use><g><use xlink:href="#c4qaZIH0Va" opacity="1" fill-opacity="0" stroke="#000000" stroke-width="1" stroke-opacity="0"></use></g></g><g><use xlink:href="#b1EHGv6P1j" opacity="1" fill="url(#gradiente4vADQI5pz)"></use><g><use xlink:href="#b1EHGv6P1j" opacity="1" fill-opacity="0" stroke="#000000" stroke-width="1" stroke-opacity="0"></use></g></g><g><use xlink:href="#aoWCUa4yw" opacity="1" fill="#000000" fill-opacity="0"></use><g><use xlink:href="#aoWCUa4yw" opacity="1" fill-opacity="0" stroke="#f49e87" stroke-width="1" stroke-opacity="1"></use></g></g><g><use xlink:href="#bUEz8As9g" opacity="1" fill="#000000" fill-opacity="0"></use><g><use xlink:href="#bUEz8As9g" opacity="1" fill-opacity="0" stroke="#f49e87" stroke-width="1" stroke-opacity="1"></use></g></g><g><use xlink:href="#c8Ak9yaLS" opacity="1" fill="#ff5859" fill-opacity="1"></use><g><use xlink:href="#c8Ak9yaLS" opacity="1" fill-opacity="0" stroke="#000000" stroke-width="1" stroke-opacity="0"></use></g></g><g><use xlink:href="#bJw49NBpA" opacity="1" fill="#ea3d3e" fill-opacity="1"></use><g><use xlink:href="#bJw49NBpA" opacity="1" fill-opacity="0" stroke="#000000" stroke-width="1" stroke-opacity="0"></use></g></g><g><use xlink:href="#g3fJxcqVdV" opacity="1" fill="#ff5859" fill-opacity="1"></use><g><use xlink:href="#g3fJxcqVdV" opacity="1" fill-opacity="0" stroke="#000000" stroke-width="1" stroke-opacity="0"></use></g></g><g><use xlink:href="#d3JljX5qRw" opacity="1" fill="#d01d1e" fill-opacity="1"></use><g><use xlink:href="#d3JljX5qRw" opacity="1" fill-opacity="0" stroke="#000000" stroke-width="1" stroke-opacity="0"></use></g></g><g><use xlink:href="#a15v2e2pmX" opacity="1" fill="#000000" fill-opacity="0"></use><g><use xlink:href="#a15v2e2pmX" opacity="1" fill-opacity="0" stroke="#e6191a" stroke-width="1" stroke-opacity="1"></use></g></g><g><use xlink:href="#d3JYpFNSeK" opacity="1" fill="#ff5859" fill-opacity="1"></use><g><use xlink:href="#d3JYpFNSeK" opacity="1" fill-opacity="0" stroke="#000000" stroke-width="1" stroke-opacity="0"></use></g></g><g><use xlink:href="#b2pdQHebSc" opacity="1" fill="#000000" fill-opacity="0"></use><g><use xlink:href="#b2pdQHebSc" opacity="1" fill-opacity="0" stroke="#e6191a" stroke-width="1" stroke-opacity="1"></use></g></g><g><use xlink:href="#aCzKlqVzd" opacity="1" fill="url(#gradientaabNM8cJn)"></use><g><use xlink:href="#aCzKlqVzd" opacity="1" fill-opacity="0" stroke="#000000" stroke-width="1" stroke-opacity="0"></use></g></g><g><use xlink:href="#a4RLw0OGl" opacity="1" fill="#ff5859" fill-opacity="1"></use><g><use xlink:href="#a4RLw0OGl" opacity="1" fill-opacity="0" stroke="#000000" stroke-width="1" stroke-opacity="0"></use></g></g><g><use xlink:href="#k2X8TJ5UWS" opacity="1" fill="#cc729b" fill-opacity="1"></use><g><use xlink:href="#k2X8TJ5UWS" opacity="1" fill-opacity="0" stroke="#000000" stroke-width="1" stroke-opacity="0"></use></g></g><g><use xlink:href="#k7VTC5biu" opacity="1" fill="#0d1d7d" fill-opacity="1"></use><g><use xlink:href="#k7VTC5biu" opacity="1" fill-opacity="0" stroke="#000000" stroke-width="1" stroke-opacity="0"></use></g></g><g><use xlink:href="#k3fb2Z5op" opacity="1" fill="#081466" fill-opacity="1"></use><g><use xlink:href="#k3fb2Z5op" opacity="1" fill-opacity="0" stroke="#000000" stroke-width="1" stroke-opacity="0"></use></g></g><g><use xlink:href="#j5yOs9H81" opacity="1" fill="#f9c6b9" fill-opacity="1"></use><g><use xlink:href="#j5yOs9H81" opacity="1" fill-opacity="0" stroke="#000000" stroke-width="1" stroke-opacity="0"></use></g></g><g><use xlink:href="#cHjM9sHlG" opacity="1" fill="#f49e87" fill-opacity="1"></use><g><use xlink:href="#cHjM9sHlG" opacity="1" fill-opacity="0" stroke="#000000" stroke-width="1" stroke-opacity="0"></use></g></g><g><use xlink:href="#b8pJPfz7J" opacity="1" fill="#f9c6b9" fill-opacity="1"></use><g><use xlink:href="#b8pJPfz7J" opacity="1" fill-opacity="0" stroke="#000000" stroke-width="1" stroke-opacity="0"></use></g></g><g><use xlink:href="#h4yVUGgqo5" opacity="1" fill="#0d1d7d" fill-opacity="1"></use><g><use xlink:href="#h4yVUGgqo5" opacity="1" fill-opacity="0" stroke="#000000" stroke-width="1" stroke-opacity="0"></use></g></g><g><use xlink:href="#b1Y9Ba5dp" opacity="1" fill="url(#gradientfLdkKmNeq)"></use><g><use xlink:href="#b1Y9Ba5dp" opacity="1" fill-opacity="0" stroke="#000000" stroke-width="1" stroke-opacity="0"></use></g></g><g><use xlink:href="#aSiylRdlr" opacity="1" fill="#081466" fill-opacity="1"></use><g><use xlink:href="#aSiylRdlr" opacity="1" fill-opacity="0" stroke="#000000" stroke-width="1" stroke-opacity="0"></use></g></g><g><use xlink:href="#b15jA4k1lL" opacity="1" fill="#081466" fill-opacity="1"></use><g><use xlink:href="#b15jA4k1lL" opacity="1" fill-opacity="0" stroke="#000000" stroke-width="1" stroke-opacity="0"></use></g></g><g><use xlink:href="#c4d7O51PBb" opacity="1" fill="#081466" fill-opacity="1"></use><g><use xlink:href="#c4d7O51PBb" opacity="1" fill-opacity="0" stroke="#000000" stroke-width="1" stroke-opacity="0"></use></g></g><g><use xlink:href="#a10ADH8XEG" opacity="1" fill="#081466" fill-opacity="1"></use><g><use xlink:href="#a10ADH8XEG" opacity="1" fill-opacity="0" stroke="#000000" stroke-width="1" stroke-opacity="0"></use></g></g><g><use xlink:href="#a1py8xpseU" opacity="1" fill="#ffffff" fill-opacity="1"></use><g><use xlink:href="#a1py8xpseU" opacity="1" fill-opacity="0" stroke="#000000" stroke-width="1" stroke-opacity="0"></use></g></g><g><use xlink:href="#a2UdlzFxMR" opacity="1" fill="#efa39c" fill-opacity="1"></use><g><use xlink:href="#a2UdlzFxMR" opacity="1" fill-opacity="0" stroke="#000000" stroke-width="1" stroke-opacity="0"></use></g></g><g><use xlink:href="#g4wXrKEMCz" opacity="1" fill="#efa39c" fill-opacity="1"></use><g><use xlink:href="#g4wXrKEMCz" opacity="1" fill-opacity="0" stroke="#000000" stroke-width="1" stroke-opacity="0"></use></g></g><g><use xlink:href="#ddW0saCTu" opacity="1" fill="url(#gradientcs27ugMiF)"></use><g><use xlink:href="#ddW0saCTu" opacity="1" fill-opacity="0" stroke="#000000" stroke-width="1" stroke-opacity="0"></use></g></g><g><use xlink:href="#dmBHnrJcb" opacity="1" fill="url(#gradientdbyCjaeHF)"></use><g><use xlink:href="#dmBHnrJcb" opacity="1" fill-opacity="0" stroke="#000000" stroke-width="1" stroke-opacity="0"></use></g></g><g><use xlink:href="#ajsA6T8Uy" opacity="1" fill="url(#gradientaTVpWLziC)"></use><g><use xlink:href="#ajsA6T8Uy" opacity="1" fill-opacity="0" stroke="#000000" stroke-width="1" stroke-opacity="0"></use></g></g><g><use xlink:href="#aFog4NITV" opacity="1" fill="#7490f7" fill-opacity="1"></use><g><use xlink:href="#aFog4NITV" opacity="1" fill-opacity="0" stroke="#000000" stroke-width="1" stroke-opacity="0"></use></g></g><g><use xlink:href="#a2r4m2Xgc" opacity="1" fill="#9494f2" fill-opacity="1"></use><g><use xlink:href="#a2r4m2Xgc" opacity="1" fill-opacity="0" stroke="#000000" stroke-width="1" stroke-opacity="0"></use></g></g><g><use xlink:href="#c2sbbyuG5X" opacity="1" fill="url(#gradientfphqeTEuu)"></use><g><use xlink:href="#c2sbbyuG5X" opacity="1" fill-opacity="0" stroke="#000000" stroke-width="1" stroke-opacity="0"></use></g></g><g><use xlink:href="#e1zQWtba7j" opacity="1" fill="#ffe1ff" fill-opacity="1"></use><g><use xlink:href="#e1zQWtba7j" opacity="1" fill-opacity="0" stroke="#000000" stroke-width="1" stroke-opacity="0"></use></g></g><g><use xlink:href="#a92SMzmC4" opacity="1" fill="#646ef2" fill-opacity="1"></use><g><use xlink:href="#a92SMzmC4" opacity="1" fill-opacity="0" stroke="#000000" stroke-width="1" stroke-opacity="0"></use></g></g><g><use xlink:href="#a3B23YYId2" opacity="1" fill="#646ef2" fill-opacity="1"></use><g><use xlink:href="#a3B23YYId2" opacity="1" fill-opacity="0" stroke="#000000" stroke-width="1" stroke-opacity="0"></use></g></g><g><use xlink:href="#a5RlDhgtkB" opacity="1" fill="#646ef2" fill-opacity="1"></use><g><use xlink:href="#a5RlDhgtkB" opacity="1" fill-opacity="0" stroke="#000000" stroke-width="1" stroke-opacity="0"></use></g></g><g><use xlink:href="#bagqWFsOq" opacity="1" fill="#646ef2" fill-opacity="1"></use><g><use xlink:href="#bagqWFsOq" opacity="1" fill-opacity="0" stroke="#000000" stroke-width="1" stroke-opacity="0"></use></g></g><g><use xlink:href="#elYsEMO9y" opacity="1" fill="#646ef2" fill-opacity="1"></use><g><use xlink:href="#elYsEMO9y" opacity="1" fill-opacity="0" stroke="#000000" stroke-width="1" stroke-opacity="0"></use></g></g><g><use xlink:href="#d1OMgzqf4K" opacity="1" fill="#646ef2" fill-opacity="1"></use><g><use xlink:href="#d1OMgzqf4K" opacity="1" fill-opacity="0" stroke="#000000" stroke-width="1" stroke-opacity="0"></use></g></g><g><use xlink:href="#eQMZxDaCr" opacity="1" fill="#646ef2" fill-opacity="1"></use><g><use xlink:href="#eQMZxDaCr" opacity="1" fill-opacity="0" stroke="#000000" stroke-width="1" stroke-opacity="0"></use></g></g><g><use xlink:href="#arDp2EoXC" opacity="1" fill="#646ef2" fill-opacity="1"></use><g><use xlink:href="#arDp2EoXC" opacity="1" fill-opacity="0" stroke="#000000" stroke-width="1" stroke-opacity="0"></use></g></g><g><use xlink:href="#a27th26igm" opacity="1" fill="#646ef2" fill-opacity="1"></use><g><use xlink:href="#a27th26igm" opacity="1" fill-opacity="0" stroke="#000000" stroke-width="1" stroke-opacity="0"></use></g></g><g><use xlink:href="#g10aCWQldI" opacity="1" fill="#646ef2" fill-opacity="1"></use><g><use xlink:href="#g10aCWQldI" opacity="1" fill-opacity="0" stroke="#000000" stroke-width="1" stroke-opacity="0"></use></g></g><g><use xlink:href="#c2qQOYRB0I" opacity="1" fill="#646ef2" fill-opacity="1"></use><g><use xlink:href="#c2qQOYRB0I" opacity="1" fill-opacity="0" stroke="#000000" stroke-width="1" stroke-opacity="0"></use></g></g><g><use xlink:href="#bvFhcaXWB" opacity="1" fill="#646ef2" fill-opacity="1"></use><g><use xlink:href="#bvFhcaXWB" opacity="1" fill-opacity="0" stroke="#000000" stroke-width="1" stroke-opacity="0"></use></g></g><g><use xlink:href="#f3oBgJWhwc" opacity="1" fill="#646ef2" fill-opacity="1"></use><g><use xlink:href="#f3oBgJWhwc" opacity="1" fill-opacity="0" stroke="#000000" stroke-width="1" stroke-opacity="0"></use></g></g><g><use xlink:href="#a2zb5BXFGU" opacity="1" fill="url(#gradienta13RTqhZr1)"></use><g><use xlink:href="#a2zb5BXFGU" opacity="1" fill-opacity="0" stroke="#000000" stroke-width="1" stroke-opacity="0"></use></g></g></g></svg>