<svg xmlns="http://www.w3.org/2000/svg" xmlns:xlink="http://www.w3.org/1999/xlink" width="596.258" height="381.69" viewBox="0 0 596.258 381.69">
  <defs>
    <clipPath id="clip-path">
      <rect id="Rectangle_35" data-name="Rectangle 35" width="596.258" height="381.69" transform="translate(76.871 54.31)" fill="none"/>
    </clipPath>
    <linearGradient id="linear-gradient" x1="-0.108" y1="0.139" x2="0.78" y2="1.283" gradientUnits="objectBoundingBox">
      <stop offset="0" stop-color="#babeff" stop-opacity="0.2"/>
      <stop offset="1" stop-color="#f6f3ff" stop-opacity="0.4"/>
    </linearGradient>
    <linearGradient id="linear-gradient-2" x1="0.5" y1="1" x2="0.5" gradientUnits="objectBoundingBox">
      <stop offset="0" stop-color="#ad9eea"/>
      <stop offset="0.25" stop-color="#b3a6eb"/>
      <stop offset="0.645" stop-color="#c3bcef"/>
      <stop offset="1" stop-color="#d7d7f4"/>
    </linearGradient>
    <clipPath id="clip-path-2">
      <path id="Path_18" data-name="Path 18" d="M336.211,393.166a34.676,34.676,0,0,0,2.96-4.79c4.255-8.4,4.657-18.217,3.975-27.606a133.5,133.5,0,0,0-6.26-31.788c-1.26-3.849-3.044-8.026-6.759-9.641-2.843-1.237-6.119-.636-9.129.109a112.959,112.959,0,0,0-34.324,14.893c9.407-17.991,28.162-29.317,39.15-46.388,1.555-2.416,2.935-5.642,1.293-8-1.85-2.654-5.9-2.017-8.958-.972a130.726,130.726,0,0,0-65.557,50.1c6.746-29.528,35.685-47.89,52.193-73.284,2.455-3.776,4.4-9.379.946-12.264-1.691-1.411-4.1-1.523-6.293-1.372-7.558.517-14.769,3.314-21.642,6.5a185.644,185.644,0,0,0-65.338,50.668c4.477-12.774,16.867-21.331,22.226-33.76,1.362-3.158,1.889-7.552-1.014-9.393-1.737-1.1-3.994-.754-5.992-.264-26.966,6.611-49.182,54.138-49.182,54.138s-.591-45.526-2.26-66.92c-.673-8.621-4.155-30.186-17.578-21.9-14.264,8.809-6.425,98.139-6.425,98.139s-5.445-42.107-10.49-62.145c-1.274-5.058-8.539-16.318-12.7-6.455a16.378,16.378,0,0,0-.8,8.178c2.69,23.944,15.056,64.47,15.056,64.47s-23.987-64.342-31.129-77.529-16.534-25.7-29.562-33.132c-17.955-10.236-37.969-.862-39.939,21.921-4.009,46.382,78.56,138.917,95.269,155.76C96.821,329.52,10.012,288.479-13.712,306.727c-3.364,2.588-9.443,8.29-5.367,20.825,3.943,12.121,53.025,65.614,83.367,65.614Z" fill="none"/>
    </clipPath>
    <linearGradient id="linear-gradient-3" x1="0.898" y1="0.997" x2="0.044" y2="0.022" gradientUnits="objectBoundingBox">
      <stop offset="0" stop-color="#5b6dff" stop-opacity="0.2"/>
      <stop offset="1" stop-color="#5b6dff" stop-opacity="0.102"/>
    </linearGradient>
    <linearGradient id="linear-gradient-4" x1="1.544" y1="0.896" x2="-0.388" y2="0.037" xlink:href="#linear-gradient-3"/>
    <linearGradient id="linear-gradient-5" x1="2.231" y1="0.872" x2="-0.892" y2="0.054" xlink:href="#linear-gradient-3"/>
    <linearGradient id="linear-gradient-6" x1="0.894" y1="0.792" x2="0.02" y2="0.171" xlink:href="#linear-gradient-3"/>
    <linearGradient id="linear-gradient-7" x1="0.702" y1="0.736" x2="0.296" y2="0.211" xlink:href="#linear-gradient-3"/>
    <linearGradient id="linear-gradient-8" x1="0.624" y1="0.7" x2="0.326" y2="0.24" xlink:href="#linear-gradient-3"/>
    <linearGradient id="linear-gradient-9" x1="0.671" y1="1.207" x2="0.239" y2="-0.237" xlink:href="#linear-gradient-3"/>
    <linearGradient id="linear-gradient-10" x1="0.771" y1="0.927" x2="-0.035" y2="-0.671" xlink:href="#linear-gradient-2"/>
    <linearGradient id="linear-gradient-11" x1="-0.103" y1="0.917" x2="1.077" y2="0.061" xlink:href="#linear-gradient-2"/>
    <linearGradient id="linear-gradient-12" x1="-0.098" y1="0.92" x2="1.232" y2="0.063" xlink:href="#linear-gradient-2"/>
    <linearGradient id="linear-gradient-13" x1="12.995" y1="14.373" x2="11.97" y2="15.346" xlink:href="#linear-gradient-2"/>
    <linearGradient id="linear-gradient-14" x1="5.079" y1="1.755" x2="4.053" y2="2.728" xlink:href="#linear-gradient-2"/>
    <linearGradient id="linear-gradient-15" x1="0.83" y1="17.132" x2="-0.196" y2="18.105" xlink:href="#linear-gradient-2"/>
    <linearGradient id="linear-gradient-16" x1="0.688" y1="0.963" x2="0.312" y2="0.037" xlink:href="#linear-gradient-2"/>
    <linearGradient id="linear-gradient-19" x1="0.827" y1="0.992" x2="0.827" y2="0.008" gradientUnits="objectBoundingBox">
      <stop offset="0.337" stop-color="#516dfc"/>
      <stop offset="0.512" stop-color="#546efa"/>
      <stop offset="0.669" stop-color="#5f74f7"/>
      <stop offset="0.818" stop-color="#717df2"/>
      <stop offset="0.963" stop-color="#8b8aea"/>
      <stop offset="1" stop-color="#938ee8"/>
    </linearGradient>
    <linearGradient id="linear-gradient-20" x1="0.5" y1="1" x2="0.5" gradientUnits="objectBoundingBox">
      <stop offset="0" stop-color="#6d79fc"/>
      <stop offset="1" stop-color="#c8a6e0"/>
    </linearGradient>
    <linearGradient id="linear-gradient-21" x1="0.5" y1="1" x2="0.5" y2="0" xlink:href="#linear-gradient-19"/>
    <linearGradient id="linear-gradient-22" x1="0.103" y1="1.106" x2="0.927" y2="0.193" gradientUnits="objectBoundingBox">
      <stop offset="0" stop-color="#12178f"/>
      <stop offset="0.194" stop-color="#1a1995"/>
      <stop offset="0.502" stop-color="#311fa5"/>
      <stop offset="0.881" stop-color="#552ac0"/>
      <stop offset="1" stop-color="#632eca"/>
    </linearGradient>
    <linearGradient id="linear-gradient-23" x1="0.102" y1="0.966" x2="0.846" y2="0.025" gradientUnits="objectBoundingBox">
      <stop offset="0.393" stop-color="#f9c6b9"/>
      <stop offset="0.575" stop-color="#f9c3b6"/>
      <stop offset="0.706" stop-color="#f9b9ac"/>
      <stop offset="0.822" stop-color="#f9a99d"/>
      <stop offset="0.928" stop-color="#f99387"/>
      <stop offset="1" stop-color="#f98074"/>
    </linearGradient>
    <linearGradient id="linear-gradient-24" x1="0.214" y1="0.851" x2="1.421" y2="0.05" xlink:href="#linear-gradient-23"/>
    <linearGradient id="linear-gradient-25" y1="0.5" x2="1" y2="0.5" gradientUnits="objectBoundingBox">
      <stop offset="0.184" stop-color="#f9c6b9"/>
      <stop offset="0.428" stop-color="#f9c3b6"/>
      <stop offset="0.605" stop-color="#f9b9ac"/>
      <stop offset="0.761" stop-color="#f9a99d"/>
      <stop offset="0.903" stop-color="#f99387"/>
      <stop offset="1" stop-color="#f98074"/>
    </linearGradient>
    <linearGradient id="linear-gradient-26" x1="-0.274" y1="0.126" x2="1.744" y2="0.996" gradientUnits="objectBoundingBox">
      <stop offset="0.133" stop-color="#f9c6b9"/>
      <stop offset="0.338" stop-color="#f9c1b4"/>
      <stop offset="0.547" stop-color="#f9b5a8"/>
      <stop offset="0.757" stop-color="#f9a194"/>
      <stop offset="0.967" stop-color="#f98579"/>
      <stop offset="1" stop-color="#f98074"/>
    </linearGradient>
    <linearGradient id="linear-gradient-27" x1="0.117" y1="0.837" x2="1.083" y2="0.17" gradientUnits="objectBoundingBox">
      <stop offset="0" stop-color="#babeff" stop-opacity="0.6"/>
      <stop offset="1" stop-color="#f6f3ff" stop-opacity="0.4"/>
    </linearGradient>
    <linearGradient id="linear-gradient-28" x1="-0.189" y1="0.87" x2="0.887" y2="0.13" gradientUnits="objectBoundingBox">
      <stop offset="0.337" stop-color="#6d79fc"/>
      <stop offset="0.513" stop-color="#707afa"/>
      <stop offset="0.671" stop-color="#7b80f5"/>
      <stop offset="0.822" stop-color="#8d8aed"/>
      <stop offset="0.967" stop-color="#a798e2"/>
      <stop offset="1" stop-color="#ae9ce0"/>
    </linearGradient>
    <linearGradient id="linear-gradient-29" x1="0.5" y1="1" x2="0.5" gradientUnits="objectBoundingBox">
      <stop offset="0" stop-color="#6d79fc"/>
      <stop offset="1" stop-color="#ae9ce0"/>
    </linearGradient>
    <linearGradient id="linear-gradient-30" x1="0.256" y1="1.259" x2="0.75" y2="-0.239" gradientUnits="objectBoundingBox">
      <stop offset="0" stop-color="#b6bcfc"/>
      <stop offset="1" stop-color="#ffcae0"/>
    </linearGradient>
    <linearGradient id="linear-gradient-31" x1="1" y1="0.5" x2="0" y2="0.5" gradientUnits="objectBoundingBox">
      <stop offset="0" stop-color="#ef225f"/>
      <stop offset="1" stop-color="#111890"/>
    </linearGradient>
  </defs>
  <g id="Group_65" data-name="Group 65" transform="translate(-76.871 -54.31)">
    <g id="Group_64" data-name="Group 64" clip-path="url(#clip-path)">
      <path id="Path_8" data-name="Path 8" d="M64.886,393.885H514c-3.44-11.342-45.9-16.815-63.023-20.168-13.989-2.739-28.3-7.434-38.85-17.438-7.091-6.723-11.453-15.555-14.53-24.707-2.818-8.382-3.2-18.909-8.737-26.02-9.094-11.671-24.27-9.022-35.53-16.538-11.233-7.5-17.479-20.809-20.443-33.6-4.143-17.872.923-36.124-3.676-53.971-4.383-17.013-16.8-27.479-29.8-38.205-22.691-18.718-33.305-45.173-42.2-72.4C245.841,56.009,197.435-5,197.435-5H64.886Z" fill="url(#linear-gradient)"/>
      <g id="Group_14" data-name="Group 14">
        <path id="Path_9" data-name="Path 9" d="M166.24,289.394c-3.642.371-6.832,2.832-8.829,5.9a23.368,23.368,0,0,0-2.955,7.281q-.1-6.353-.38-12.736c7.061-2.531,12.128-8.712,10.268-13.757a10.729,10.729,0,0,0-7.576,5.063A21.3,21.3,0,0,0,154,288.4c-.2-3.951-.461-7.9-.814-11.843,6.959-2.573,11.917-8.685,10.074-13.684a10.727,10.727,0,0,0-7.575,5.063,20.713,20.713,0,0,0-2.669,6.814q-.477-4.947-1.152-9.861c5.879-3.175,9.483-9.387,7.1-13.526a9.369,9.369,0,0,0-5.777,5.477,20.277,20.277,0,0,0-1.344,7.882q-.649-4.664-1.509-9.284c5.348-3.83,8.131-10.277,5.338-14.074a9.367,9.367,0,0,0-5.132,6.085,17.513,17.513,0,0,0-.615,5.876q-1.009-5.075-2.313-10.068c5.36-3.829,8.152-10.286,5.356-14.087a9.368,9.368,0,0,0-5.133,6.085,18.524,18.524,0,0,0-.569,6.685q-1.223-4.5-2.719-8.919c4.531-3.228,6.893-8.683,4.533-11.892a7.9,7.9,0,0,0-4.329,5.132,16.145,16.145,0,0,0-.451,6.053q-1.15-3.327-2.477-6.6c3.37-3.357,4.6-8.282,2.168-10.665a6.772,6.772,0,0,0-2.95,4.939,13.094,13.094,0,0,0,.32,4.593c-.489-1.175-.99-2.345-1.515-3.507.219-5.248-2.416-10.155-6.185-10.319A7.6,7.6,0,0,0,134.9,217.1a16.165,16.165,0,0,0,4.655,4.242c.5,1.146.981,2.3,1.446,3.453-2.559-4.233-7.02-6.761-10.186-5.078a7.6,7.6,0,0,0,4.28,4.836,16.428,16.428,0,0,0,6.326,1.306q1.353,3.447,2.509,6.938c-2.866-5.49-8.486-8.941-12.407-6.856a8.869,8.869,0,0,0,4.994,5.643,19.367,19.367,0,0,0,7.521,1.531q1.407,4.3,2.534,8.66c-3.548-5.742-9.626-9.146-13.955-6.845a10.491,10.491,0,0,0,5.907,6.674,22.255,22.255,0,0,0,8.459,1.789q1.192,4.789,2.1,9.639c-2.822-6.584-8.543-11.122-13.528-9.526a11.552,11.552,0,0,0,5.094,8.387,24.618,24.618,0,0,0,8.886,3.61q.729,4.167,1.288,8.369c-5.08-5.693-12.619-8.229-16.887-4.732a11.546,11.546,0,0,0,7.82,5.927,24.111,24.111,0,0,0,9.241.143q.717,5.6,1.194,11.248c-5.4-5.482-13.144-7.646-17.237-3.889a11.55,11.55,0,0,0,8.141,5.478,24.059,24.059,0,0,0,9.2-.37q.476,5.78.775,11.585c-4.636-6.3-12.186-9.588-16.792-6.339a11.549,11.549,0,0,0,7.372,6.475,24.471,24.471,0,0,0,9.469.789c.231,4.467.406,8.939.562,13.409-4.228-7.341-11.956-11.783-17.3-8.842.91,3.545,3.819,6.333,7.15,7.85a26.614,26.614,0,0,0,10.186,1.99c.159,4.656.3,9.308.463,13.945a.16.16,0,0,0,.32,0c.036-4.369.043-8.772,0-13.193C162.6,302.347,168.388,295.221,166.24,289.394Z" fill="url(#linear-gradient-2)"/>
        <g id="Group_13" data-name="Group 13">
          <path id="Path_10" data-name="Path 10" d="M336.211,393.166a34.676,34.676,0,0,0,2.96-4.79c4.255-8.4,4.657-18.217,3.975-27.606a133.5,133.5,0,0,0-6.26-31.788c-1.26-3.849-3.044-8.026-6.759-9.641-2.843-1.237-6.119-.636-9.129.109a112.959,112.959,0,0,0-34.324,14.893c9.407-17.991,28.162-29.317,39.15-46.388,1.555-2.416,2.935-5.642,1.293-8-1.85-2.654-5.9-2.017-8.958-.972a130.726,130.726,0,0,0-65.557,50.1c6.746-29.528,35.685-47.89,52.193-73.284,2.455-3.776,4.4-9.379.946-12.264-1.691-1.411-4.1-1.523-6.293-1.372-7.558.517-14.769,3.314-21.642,6.5a185.644,185.644,0,0,0-65.338,50.668c4.477-12.774,16.867-21.331,22.226-33.76,1.362-3.158,1.889-7.552-1.014-9.393-1.737-1.1-3.994-.754-5.992-.264-26.966,6.611-49.182,54.138-49.182,54.138s-.591-45.526-2.26-66.92c-.673-8.621-4.155-30.186-17.578-21.9-14.264,8.809-6.425,98.139-6.425,98.139s-5.445-42.107-10.49-62.145c-1.274-5.058-8.539-16.318-12.7-6.455a16.378,16.378,0,0,0-.8,8.178c2.69,23.944,15.056,64.47,15.056,64.47s-23.987-64.342-31.129-77.529-16.534-25.7-29.562-33.132c-17.955-10.236-37.969-.862-39.939,21.921-4.009,46.382,78.56,138.917,95.269,155.76C96.821,329.52,10.012,288.479-13.712,306.727c-3.364,2.588-9.443,8.29-5.367,20.825,3.943,12.121,53.025,65.614,83.367,65.614Z" fill="#e4e3ff"/>
          <g id="Group_12" data-name="Group 12">
            <g id="Group_11" data-name="Group 11" clip-path="url(#clip-path-2)">
              <g id="Group_10" data-name="Group 10">
                <path id="Path_11" data-name="Path 11" d="M138.443,393.166h9.123c-6.675-16.749-16.255-42.992-29.554-73.784-30.293-70.137-62.489-117.5-62.489-117.5-7.751,3.81-24.295,18.031-25.959,29.6C24.507,266.64,138.443,393.166,138.443,393.166Z" fill="url(#linear-gradient-3)"/>
                <path id="Path_12" data-name="Path 12" d="M132.419,246.416a622.745,622.745,0,0,1,16.854,86.144c5.893,47.57,7.767,61.333,7.767,61.333l-14.051-72.762-21.454-71.886Z" fill="url(#linear-gradient-4)"/>
                <path id="Path_13" data-name="Path 13" d="M164.838,218.916s-2.874,151.682,4.123,174.25-7.607-.479-7.607-.479l-9.421-77.176-7.206-93.561Z" fill="url(#linear-gradient-5)"/>
                <path id="Path_14" data-name="Path 14" d="M233.68,256.182s-23.668,17.4-35.952,43.449c-25.4,53.863-26.236,94.262-26.236,94.262s-3.412-41.991,7.214-86.566,52.275-76.564,52.275-76.564Z" fill="url(#linear-gradient-6)"/>
                <path id="Path_15" data-name="Path 15" d="M197.456,393.166S205.9,348.5,225.2,315.511c34.94-59.726,80.545-71.972,80.545-71.972s21.511-23.588-1.414-17.471-79.362,50.338-91.859,73.267c-17.71,32.493-28.748,74.109-21.543,97.034S197.456,393.166,197.456,393.166Z" fill="url(#linear-gradient-7)"/>
                <path id="Path_16" data-name="Path 16" d="M221.938,393.893s28.387-48.451,55.725-73.052,49.454-40.885,49.454-40.885S331.626,266,326.236,266s-23.377,7.991-23.377,7.991L261.75,310.995,252.6,329.087S231.587,360.4,221.938,393.893Z" fill="url(#linear-gradient-8)"/>
                <path id="Path_17" data-name="Path 17" d="M-44.512,318.677s20.756-18.265,73.012,9.614S151.971,415,151.971,415L34.714,421.5-22.3,389.879Z" fill="url(#linear-gradient-9)"/>
              </g>
            </g>
          </g>
        </g>
        <path id="Path_19" data-name="Path 19" d="M136.9,337.4c5.722-6.488,7.433-15.506,2.776-19.616-3.029,2.054-4.67,5.735-4.972,9.382a23.368,23.368,0,0,0,.854,7.815q-3.1-5.547-6.378-11.035c5.015-5.577,6.543-13.422,2.512-16.98a10.721,10.721,0,0,0-4.267,8.051,21.307,21.307,0,0,0,1.007,7.694q-3.072-5.076-6.333-10.038c4.9-5.567,6.367-13.3,2.374-16.823a10.724,10.724,0,0,0-4.266,8.051,20.691,20.691,0,0,0,.88,7.255q-2.763-4.125-5.687-8.129c3.666-5.584,3.891-12.759-.171-15.27a9.37,9.37,0,0,0-2.488,7.562,20.244,20.244,0,0,0,2.543,7.549q-2.777-3.787-5.716-7.435c2.887-5.908,2.277-12.9-1.981-14.916a9.37,9.37,0,0,0-1.631,7.792,17.5,17.5,0,0,0,2.228,5.432q-3.285-3.975-6.792-7.74c2.9-5.912,2.292-12.917-1.971-14.935a9.368,9.368,0,0,0-1.631,7.791,18.45,18.45,0,0,0,2.655,6.13q-3.2-3.372-6.607-6.542c2.454-4.989,1.944-10.909-1.655-12.613a7.905,7.905,0,0,0-1.376,6.572,16.133,16.133,0,0,0,2.464,5.525q-2.586-2.375-5.3-4.617c1.372-4.553.121-9.472-3.153-10.413a6.772,6.772,0,0,0-.253,5.747,13.056,13.056,0,0,0,2.46,3.887c-.988-.8-1.985-1.594-3-2.367-2.3-4.722-6.944-7.789-10.339-6.146a7.6,7.6,0,0,0,4.093,4.994,16.2,16.2,0,0,0,6.116,1.532q1.476,1.153,2.906,2.348c-4.262-2.513-9.387-2.622-11.376.362a7.6,7.6,0,0,0,6.062,2.226,16.412,16.412,0,0,0,6.188-1.851q2.829,2.393,5.5,4.919c-5.128-3.475-11.714-3.847-14.177-.151a8.87,8.87,0,0,0,7.074,2.6,19.374,19.374,0,0,0,7.347-2.22q3.28,3.117,6.341,6.422c-5.848-3.373-12.815-3.486-15.533.594a10.489,10.489,0,0,0,8.366,3.073,22.279,22.279,0,0,0,8.3-2.439q3.324,3.651,6.425,7.491c-5.609-4.459-12.8-5.741-16.431-1.969a11.55,11.55,0,0,0,8.463,4.966,24.62,24.62,0,0,0,9.535-1.039q2.621,3.324,5.106,6.757c-7.173-2.6-15.014-1.258-17.112,3.846a11.549,11.549,0,0,0,9.695,1.508,24.113,24.113,0,0,0,8.2-4.26q3.29,4.591,6.389,9.336c-7.353-2.265-15.2-.5-17.02,4.754a11.554,11.554,0,0,0,9.766.96,24.083,24.083,0,0,0,7.922-4.69q3.161,4.861,6.179,9.831c-7.072-3.351-15.277-2.659-17.791,2.386a11.55,11.55,0,0,0,9.562,2.2,24.49,24.49,0,0,0,8.711-3.8q3.483,5.734,6.856,11.538c-7.205-4.457-16.115-4.7-19.426.425,2.482,2.689,6.366,3.763,10.018,3.518a26.627,26.627,0,0,0,9.911-3.081c2.352,4.028,4.685,8.06,7.031,12.069.1.18.361,0,.266-.178Q140.1,343.211,136.9,337.4Z" fill="url(#linear-gradient-10)"/>
        <path id="Path_20" data-name="Path 20" d="M303.619,273.593q1.1-1.029,2.233-2.033a13.568,13.568,0,0,0,5.016-1.578,6.417,6.417,0,0,0,3.2-4.412c-2.945-1.217-6.714,1.6-8.414,5.7-.772.664-1.552,1.319-2.3,2a10.83,10.83,0,0,0,1.781-3.27,5.714,5.714,0,0,0-.5-4.83c-2.709.953-3.522,5.153-2.145,8.919q-2.163,2.01-4.212,4.127a13.556,13.556,0,0,0,1.783-4.742,6.672,6.672,0,0,0-1.484-5.469c-2.948,1.614-3.085,6.623-.774,10.706-1.769,1.845-3.5,3.729-5.151,5.68a15.362,15.362,0,0,0,1.844-5.133,7.906,7.906,0,0,0-1.76-6.485c-3.485,1.907-3.656,7.818-.94,12.651q-2.7,3.249-5.211,6.668a14.471,14.471,0,0,0,1.5-4.466,7.9,7.9,0,0,0-1.76-6.485c-3.477,1.9-3.655,7.791-.958,12.618-1.482,2.069-2.909,4.182-4.3,6.321a16.638,16.638,0,0,0,1.648-6.211,7.913,7.913,0,0,0-2.47-6.249c-3.289,2.309-2.757,8.313.58,12.832q-2.223,3.433-4.312,6.96a17.224,17.224,0,0,0,.335-5.942,9.049,9.049,0,0,0-3.993-6.573c-3.181,3.157-1.585,9.569,2.79,14.016q-2.454,4.234-4.742,8.563a17.651,17.651,0,0,0,.412-6.283,9.054,9.054,0,0,0-3.994-6.573c-3.21,3.187-1.556,9.689,2.911,14.139q-2.454,4.7-4.745,9.459a19.515,19.515,0,0,0,.295-6.426,10.553,10.553,0,0,0-4.654-7.661c-3.711,3.684-1.843,11.167,3.267,16.35q-2.406,5.061-4.676,10.113c-.083.185.181.348.276.162q2.691-5.236,5.363-10.506a22.393,22.393,0,0,0,8.447,2.082,10.551,10.551,0,0,0,8.269-3.46c-3.024-4.128-10.445-3.519-16.279.522,1.7-3.325,3.414-6.645,5.165-9.942a20.552,20.552,0,0,0,7.458,2.732,9.75,9.75,0,0,0,7.949-2.329c-2.35-4.1-9.212-4.3-14.98-1.2q2.277-4.268,4.658-8.467a20.2,20.2,0,0,0,6.841,3.511,9.745,9.745,0,0,0,8.181-1.292c-1.781-4.3-8.4-5.423-14.453-3.212q2.357-4.1,4.863-8.092a20.254,20.254,0,0,0,7.058,3.141,9.753,9.753,0,0,0,8.1-1.75c-2.007-4.168-8.6-4.928-14.487-2.444q1.905-2.98,3.92-5.881a20.675,20.675,0,0,0,8.011.388,9.751,9.751,0,0,0,6.886-4.6c-3.188-2.945-9.031-1.617-13.508,2.253q2.343-3.26,4.861-6.389a18.687,18.687,0,0,0,7.053,1.622,8.854,8.854,0,0,0,6.9-3c-2.465-3.267-8.226-2.873-12.958.164q2.369-2.867,4.912-5.6a16.273,16.273,0,0,0,6.254,1.488,7.485,7.485,0,0,0,5.833-2.538c-2.218-2.94-7.594-2.375-11.717.661q2.041-2.166,4.21-4.235a13.8,13.8,0,0,0,5.267,1.238,6.416,6.416,0,0,0,5-2.175C311.267,271.061,307.058,271.361,303.619,273.593Z" fill="url(#linear-gradient-11)"/>
        <path id="Path_21" data-name="Path 21" d="M196.992,240.536a7.486,7.486,0,0,0,4.467-4.529c-3.153-1.9-7.929.624-10.624,4.974q1.087-2.769,2.328-5.5a13.8,13.8,0,0,0,5.348-.81,6.418,6.418,0,0,0,3.827-3.882c-2.551-1.538-6.343.307-8.7,3.657q.638-1.362,1.313-2.715a13.588,13.588,0,0,0,4.067-3.334,6.417,6.417,0,0,0,1.328-5.286c-3.168-.033-5.6,3.943-5.682,8.351q-.717,1.38-1.389,2.779a10.817,10.817,0,0,0,.43-3.684,5.715,5.715,0,0,0-2.261-4.3c-2.156,1.892-1.35,6.081,1.319,9.062q-1.242,2.642-2.349,5.339a13.451,13.451,0,0,0-.121-4.99,6.67,6.67,0,0,0-3.415-4.522c-2.13,2.59-.4,7.276,3.249,10.205q-1.434,3.563-2.643,7.21a15.377,15.377,0,0,0-.2-5.452,7.908,7.908,0,0,0-4.05-5.363c-2.522,3.067-.482,8.613,3.836,12.087q-1.29,4-2.343,8.086a14.451,14.451,0,0,0-.278-4.655,7.908,7.908,0,0,0-4.05-5.363c-2.517,3.061-.489,8.591,3.811,12.066q-.9,3.662-1.631,7.37a16.514,16.514,0,0,0-.789-6.278,7.91,7.91,0,0,0-4.62-4.88c-2.19,3.366.534,8.734,5.308,11.686q-.783,4.012-1.4,8.065a17.19,17.19,0,0,0-1.9-5.632,9.054,9.054,0,0,0-6.154-4.613c-1.774,4.113,2.089,9.463,7.8,11.963q-.7,4.834-1.2,9.7a17.629,17.629,0,0,0-1.955-5.963,9.051,9.051,0,0,0-6.155-4.612c-1.79,4.15,2.16,9.563,7.958,12.031-.351,3.508-.636,7.018-.876,10.518a19.429,19.429,0,0,0-2.113-6.041,10.555,10.555,0,0,0-7.173-5.375c-2.071,4.8,2.449,11.049,9.121,13.955q-.348,5.6-.572,11.152c-.008.208.3.2.321,0,.363-3.9.705-7.812,1.06-11.724a22.413,22.413,0,0,0,8.616-1.215,10.549,10.549,0,0,0,6.384-6.291c-4.345-2.7-11.005.625-14.913,6.549.339-3.719.692-7.439,1.089-11.151a20.54,20.54,0,0,0,7.94-.244,9.746,9.746,0,0,0,6.508-5.122c-3.707-2.926-10.153-.562-14.35,4.463q.522-4.809,1.168-9.593a20.209,20.209,0,0,0,7.657.71,9.749,9.749,0,0,0,7.111-4.247c-3.257-3.33-9.819-1.9-14.61,2.4q.66-4.683,1.5-9.322a20.236,20.236,0,0,0,7.72.285,9.751,9.751,0,0,0,6.861-4.64c-3.415-3.12-9.818-1.368-14.354,3.13q.657-3.477,1.447-6.919a20.666,20.666,0,0,0,7.578-2.625,9.747,9.747,0,0,0,4.676-6.837c-4.056-1.544-8.983,1.864-11.7,7.123q.96-3.9,2.13-7.738a18.722,18.722,0,0,0,7.15-1.123,8.855,8.855,0,0,0,5.283-5.357c-3.5-2.112-8.7.4-11.963,4.978.753-2.361,1.571-4.7,2.47-7.027A16.261,16.261,0,0,0,196.992,240.536Z" fill="url(#linear-gradient-12)"/>
      </g>
      <g id="Group_15" data-name="Group 15">
        <path id="Path_22" data-name="Path 22" d="M349.258,250.7l-.883,8.382,6.885-2.583Z" fill="none" stroke="#707070" stroke-miterlimit="10" stroke-width="1"/>
        <path id="Path_23" data-name="Path 23" d="M174.805,212.38l8.126-2.237-4.918-5.467Z" fill="none" stroke="#707070" stroke-miterlimit="10" stroke-width="1"/>
        <path id="Path_24" data-name="Path 24" d="M108.954,252.728l-2.492,8.051,7.255-1.2Z" fill="none" stroke="#707070" stroke-miterlimit="10" stroke-width="1"/>
        <path id="Path_25" data-name="Path 25" d="M108.914,146.639l-8.413-.5,2.895,6.76Z" fill="none" stroke="#707070" stroke-miterlimit="10" stroke-width="1"/>
        <rect id="Rectangle_5" data-name="Rectangle 5" width="11" height="11" transform="translate(191.68 118.329) rotate(31.813)" fill="none" stroke="#707070" stroke-miterlimit="10" stroke-width="1"/>
        <rect id="Rectangle_6" data-name="Rectangle 6" width="3.113" height="3.113" transform="matrix(0.999, -0.044, 0.044, 0.999, 318.211, 194.469)" fill="url(#linear-gradient-13)"/>
        <rect id="Rectangle_7" data-name="Rectangle 7" width="9.468" height="9.468" transform="translate(87.059 223.547) rotate(-25.182)" fill="url(#linear-gradient-14)"/>
        <rect id="Rectangle_8" data-name="Rectangle 8" width="6" height="6" transform="translate(313.325 242.866) rotate(16.117)" fill="url(#linear-gradient-15)"/>
        <rect id="Rectangle_9" data-name="Rectangle 9" width="6" height="6" transform="translate(293.354 185.789) rotate(-7.861)" fill="none" stroke="#707070" stroke-miterlimit="10" stroke-width="1"/>
        <circle id="Ellipse_1" data-name="Ellipse 1" cx="1.955" cy="1.955" r="1.955" transform="translate(100.623 202.111)" fill="url(#linear-gradient-16)"/>
        <circle id="Ellipse_2" data-name="Ellipse 2" cx="1.955" cy="1.955" r="1.955" transform="translate(82.029 108.545)" fill="url(#linear-gradient-16)"/>
        <circle id="Ellipse_3" data-name="Ellipse 3" cx="1.955" cy="1.955" r="1.955" transform="translate(323.292 301.627)" fill="url(#linear-gradient-16)"/>
      </g>
      <g id="Group_26" data-name="Group 26">
        <g id="Group_23" data-name="Group 23">
          <rect id="Rectangle_11" data-name="Rectangle 11" width="29.142" height="85.04" transform="translate(117.758 308.294) rotate(-4.472)" fill="url(#linear-gradient-19)"/>
          <rect id="Rectangle_12" data-name="Rectangle 12" width="29.142" height="11.44" transform="translate(122.159 364.561) rotate(-4.472)" fill="#abbdff" opacity="0.55"/>
          <rect id="Rectangle_13" data-name="Rectangle 13" width="29.142" height="4.83" transform="translate(123.289 379.008) rotate(-4.472)" fill="#abbdff" opacity="0.55"/>
        </g>
        <g id="Group_24" data-name="Group 24">
          <rect id="Rectangle_14" data-name="Rectangle 14" width="25.303" height="83.625" transform="translate(92.455 308.294)" fill="url(#linear-gradient-20)"/>
          <rect id="Rectangle_15" data-name="Rectangle 15" width="25.303" height="11.818" transform="translate(92.455 369.136)" fill="#abbdff" opacity="0.55"/>
          <rect id="Rectangle_16" data-name="Rectangle 16" width="25.303" height="4.58" transform="translate(92.455 383.809)" fill="#abbdff" opacity="0.55"/>
        </g>
        <g id="Group_25" data-name="Group 25">
          <rect id="Rectangle_17" data-name="Rectangle 17" width="35.343" height="83.625" transform="translate(57.111 308.294)" fill="url(#linear-gradient-21)"/>
          <rect id="Rectangle_18" data-name="Rectangle 18" width="35.343" height="5.111" transform="translate(57.111 321.656)" fill="#c5cffc" opacity="0.75"/>
          <rect id="Rectangle_19" data-name="Rectangle 19" width="35.343" height="4.58" transform="translate(57.111 376.472)" fill="#c5cffc" opacity="0.75"/>
        </g>
      </g>
      <g id="Group_44" data-name="Group 44">
        <path id="Path_37" data-name="Path 37" d="M133.592,392.885s-9.774-85.5,26.5-124.819c26.751-28.991,63.23-30.816,88.026-26.315,74.705,13.562,49.841,150.168,49.841,150.168" fill="url(#linear-gradient-22)"/>
        <g id="Group_34" data-name="Group 34">
          <g id="Group_28" data-name="Group 28">
            <path id="Path_38" data-name="Path 38" d="M281.775,273.222c-5.248-9.518-16.209-25.581-52.378-25.143-32.386.392-49.7,34.812-53.059,41.461-.392.777-.588,1.21-.588,1.21l-7.5,102.135H289S287.024,282.74,281.775,273.222Z" fill="#ffeefc"/>
            <g id="Group_27" data-name="Group 27">
              <path id="Path_39" data-name="Path 39" d="M205.9,260.21c25.161-8.761,47.321-7.317,70.792,5.291" fill="none" stroke="#f4dce9" stroke-miterlimit="10" stroke-width="2"/>
              <path id="Path_40" data-name="Path 40" d="M207,264.581c11.268-4.652,23.725-5.842,35.9-5.157s24.159,3.18,36.093,5.668" fill="none" stroke="#f4dce9" stroke-miterlimit="10" stroke-width="2"/>
              <path id="Path_41" data-name="Path 41" d="M202.01,271.035a164.838,164.838,0,0,1,76.517-2.667" fill="none" stroke="#f4dce9" stroke-miterlimit="10" stroke-width="2"/>
              <path id="Path_42" data-name="Path 42" d="M207.5,273.477a330.678,330.678,0,0,1,51.627-4.012c9.122.007,18.49.446,26.862,4.066" fill="none" stroke="#f4dce9" stroke-miterlimit="10" stroke-width="2"/>
              <path id="Path_43" data-name="Path 43" d="M202.952,278.765a211.624,211.624,0,0,1,80.957-.773" fill="none" stroke="#f4dce9" stroke-miterlimit="10" stroke-width="2"/>
              <path id="Path_44" data-name="Path 44" d="M201.492,282.861a777.3,777.3,0,0,1,86.539.1" fill="none" stroke="#f4dce9" stroke-miterlimit="10" stroke-width="2"/>
              <path id="Path_45" data-name="Path 45" d="M209.5,290.016a709.273,709.273,0,0,1,76.989,1.132" fill="none" stroke="#f4dce9" stroke-miterlimit="10" stroke-width="2"/>
              <path id="Path_46" data-name="Path 46" d="M210.482,295.621a343.391,343.391,0,0,0,82.034,2.048" fill="none" stroke="#f4dce9" stroke-miterlimit="10" stroke-width="2"/>
              <path id="Path_47" data-name="Path 47" d="M211.505,302.929q37.443,2.417,75,1.921" fill="none" stroke="#f4dce9" stroke-miterlimit="10" stroke-width="2"/>
              <path id="Path_48" data-name="Path 48" d="M208.488,308.561a238.493,238.493,0,0,0,78.552,2.229" fill="none" stroke="#f4dce9" stroke-miterlimit="10" stroke-width="2"/>
              <path id="Path_49" data-name="Path 49" d="M212.481,320.214q33.418,2.964,67.019,2.747" fill="none" stroke="#f4dce9" stroke-miterlimit="10" stroke-width="2"/>
              <path id="Path_50" data-name="Path 50" d="M205.979,328.291A777.522,777.522,0,0,0,285,329.866" fill="none" stroke="#f4dce9" stroke-miterlimit="10" stroke-width="2"/>
              <path id="Path_51" data-name="Path 51" d="M199.985,333.244q44.193,2.661,88.5,1.741" fill="none" stroke="#f4dce9" stroke-miterlimit="10" stroke-width="2"/>
              <path id="Path_52" data-name="Path 52" d="M210,342.5h80.5" fill="none" stroke="#f4dce9" stroke-miterlimit="10" stroke-width="2"/>
              <path id="Path_53" data-name="Path 53" d="M199.5,347.024l88,3.094" fill="none" stroke="#f4dce9" stroke-miterlimit="10" stroke-width="2"/>
              <path id="Path_54" data-name="Path 54" d="M208.013,354.328q42.69,3.2,85.488,4.644" fill="none" stroke="#f4dce9" stroke-miterlimit="10" stroke-width="2"/>
              <path id="Path_55" data-name="Path 55" d="M202,361.545q43.536.076,87.035,2.258" fill="none" stroke="#f4dce9" stroke-miterlimit="10" stroke-width="2"/>
              <path id="Path_56" data-name="Path 56" d="M211.505,373.054a371.839,371.839,0,0,1,74.473,1.131" fill="none" stroke="#f4dce9" stroke-miterlimit="10" stroke-width="2"/>
              <path id="Path_57" data-name="Path 57" d="M208.5,381.5H287" fill="none" stroke="#f4dce9" stroke-miterlimit="10" stroke-width="2"/>
              <path id="Path_58" data-name="Path 58" d="M222.5,387.377l60,.56" fill="none" stroke="#f4dce9" stroke-miterlimit="10" stroke-width="2"/>
              <path id="Path_59" data-name="Path 59" d="M205,257.3c.544-1.289,2-1.891,3.321-2.344,17.811-6.086,40.211-5.334,57.547,1.993" fill="none" stroke="#f4dce9" stroke-miterlimit="10" stroke-width="2"/>
            </g>
            <path id="Path_60" data-name="Path 60" d="M215.333,250.514l.741.957c4.141.517,11.528,1.65,16.861,6.984a13.473,13.473,0,0,0,5.774,3.37c2.156.616,4.735.289,6.224-1.388a6.919,6.919,0,0,0,1.457-3.408,15.58,15.58,0,0,0-.6-7.7c-.017-.051-.041-.1-.059-.151a95.848,95.848,0,0,0-16.336-1.1A44.74,44.74,0,0,0,215.333,250.514Z" fill="#f4dce9" opacity="0.4"/>
          </g>
          <g id="Group_30" data-name="Group 30">
            <g id="Group_29" data-name="Group 29">
              <path id="Path_61" data-name="Path 61" d="M358.333,297.035a73.589,73.589,0,0,0,13.788-15.19c.746-1.1,7.272-12.564,6.7-12.8-1.539-.65-7.693,7.84-7.693,7.84s7.728-10.7,5.962-11.749c-.672-.4-8.38,9.86-8.38,9.86s7.585-10.747,6.057-11.684c-.793-.487-8.706,10.235-8.706,10.235s6.569-10.3,5.333-10.951-8.893,9.515-12.275,14.876-5.39,16.889-5.39,16.889" fill="url(#linear-gradient-23)"/>
              <path id="Path_62" data-name="Path 62" d="M353.734,288.267a85.512,85.512,0,0,1,3.014-10.7,32.347,32.347,0,0,1,5.423-9.655c.284-.336.817-.673,1.1-.339a.715.715,0,0,1,.125.47,7.918,7.918,0,0,1-.742,2.9q-.363.917-.725,1.833a4.335,4.335,0,0,0-.419,2.938,5.348,5.348,0,0,0,.577,1.053c2.069,3.32,2.577,9.67-3.057,14.281" fill="url(#linear-gradient-24)"/>
              <path id="Path_63" data-name="Path 63" d="M361.814,275.977a9.775,9.775,0,0,1-1.374,11.712" fill="none" stroke="#f49e87" stroke-miterlimit="10" stroke-width="1"/>
              <path id="Path_64" data-name="Path 64" d="M364.451,272.687a41.683,41.683,0,0,1,8.044,5.289" fill="none" stroke="#f49e87" stroke-miterlimit="10" stroke-width="1"/>
            </g>
            <path id="Path_65" data-name="Path 65" d="M257.684,251.988s20.649,7.345,33.983,25.345c10.847,14.644,25.666,52.334,25.666,52.334l36-42.667s4.988,1.711,8.653,8.019c0,4-29.74,76.648-46.74,76.314s-46.246-37-46.246-37" fill="#ff5859"/>
            <path id="Path_66" data-name="Path 66" d="M278.8,345.579C285.98,353.3,296,363,305.058,368c-3.79-11.208-9.218-32.242-13.96-70.969L281.19,335.8Z" fill="#ea3d3e" opacity="0.45"/>
          </g>
          <g id="Group_31" data-name="Group 31">
            <path id="Path_67" data-name="Path 67" d="M230.7,393.885C233,309.5,216.8,250,216.8,250s-20.474,4.643-41.4,27.762c-11.1,12.89-.133,21.544-3.65,42.238-6.5,38.25-11,73.885-11,73.885Z" fill="#ff5859"/>
            <path id="Path_68" data-name="Path 68" d="M171.75,320c-5.967,35.114-10.246,68-10.908,73.162,33.973.263,56.139-11.012,63.906-17.412a54.472,54.472,0,0,1,6.172.249l0-5.165a17.8,17.8,0,0,0-3.371-8.624l-41.9-2.54S205,322.56,205,304.935C205,304.935,178.25,281.75,171.75,320Z" fill="#d01d1e" opacity="0.45"/>
            <path id="Path_69" data-name="Path 69" d="M203.492,256.479S205.9,285,205.9,292.679c1.908,1.908,10.471,4.737,10.471,4.737s-6.709,3.3-6.709,5.513S227.467,348.5,230.922,368" fill="none" stroke="#e6191a" stroke-miterlimit="10" stroke-width="1"/>
          </g>
          <g id="Group_32" data-name="Group 32">
            <path id="Path_70" data-name="Path 70" d="M291.25,298.5c2.682,29.108,5.75,95.385,5.75,95.385H258.735c4.374-89.023-1.028-141.42-1.028-141.42A54.248,54.248,0,0,1,291.25,298.5Z" fill="#ff5859"/>
            <path id="Path_71" data-name="Path 71" d="M269.976,259.245s5.009,20.554,4.391,31.2c-1.6,2.17-8.561,6.074-8.561,6.074s7.125,2.271,7.453,4.457-12.322,50.552-12.846,70.355" fill="none" stroke="#e6191a" stroke-miterlimit="10" stroke-width="1"/>
          </g>
          <g id="Group_33" data-name="Group 33">
            <path id="Path_72" data-name="Path 72" d="M222.688,364.255a41.67,41.67,0,0,1,10.838-3.648c1.542-.282,6.5-1.188,6.887-.306.541,1.221-5.627,2.606-3.954,2.606s12.645-1.442,12.717-.333-10.321,3.291-10.321,3.291,11.96-1.041,12.012.356-11.1,2.067-11.1,2.067,10.343-.162,10.39,1.154-10.628,1.189-10.628,1.189,8.229.486,8.229,1.37-12.733,3.2-27.331-.614" fill="url(#linear-gradient-25)"/>
            <path id="Path_73" data-name="Path 73" d="M207.333,303.582c-2.75,19.666-30.506,58.711-30.506,58.711l47.517,1.25a11.182,11.182,0,0,1,1.1,9.275c-3.031,5.123-51.4,20.067-72.73,20.067-23.015,0-10.688-73.218,21.955-114.218" fill="#ff5859"/>
          </g>
        </g>
        <g id="Group_43" data-name="Group 43">
          <g id="Group_35" data-name="Group 35">
            <ellipse id="Ellipse_6" data-name="Ellipse 6" cx="8.986" cy="7.07" rx="8.986" ry="7.07" transform="translate(259.565 222.737) rotate(-86.522)" fill="#cc729b" opacity="0.45"/>
          </g>
          <path id="Path_75" data-name="Path 75" d="M245.334,167.3c-1.488-1.959-2.112-4.426-3.268-6.6-2.849-5.356-8.808-8.516-14.812-9.391a12.173,12.173,0,0,0-6.122.386c-3.349,1.293-5.5,4.773-8.877,5.991a16.054,16.054,0,0,1-4.013.69,62.516,62.516,0,0,0-13.658,2.576,17.3,17.3,0,0,0-4.865,2.289,11.1,11.1,0,0,0-3.845,12.327c.711,2.016,2.027,3.852,2.247,5.979.228,2.2-.755,4.5-.041,6.6a8.5,8.5,0,0,0,2.217,3.056,22.935,22.935,0,0,0,5.415,4.429,23.686,23.686,0,0,0,6.539,1.955,43.925,43.925,0,0,0,8.892,1.125,14.766,14.766,0,0,0,8.488-2.465,22.058,22.058,0,0,0,5.077-5.919" fill="#0d1d7d"/>
          <path id="Path_76" data-name="Path 76" d="M230.284,165.416c-4.875,2.172-9.913,4.461-13.426,8.479-2.434,2.785-3.971,6.222-5.951,9.346s-4.647,6.1-8.217,7.067a17.022,17.022,0,0,1-7.018-.008,3.942,3.942,0,0,1-2.5-1.044,4.26,4.26,0,0,1-.71-2.423c-.284-2.989-1.053-6.132-3.235-8.2a6.385,6.385,0,0,0-2.68-1.475,14.045,14.045,0,0,1,1.578,4.39c.228,2.2-.755,4.5-.041,6.6a8.5,8.5,0,0,0,2.217,3.056,22.935,22.935,0,0,0,5.415,4.429,23.686,23.686,0,0,0,6.539,1.955,44,44,0,0,0,8.892,1.125,14.766,14.766,0,0,0,8.488-2.465,22.058,22.058,0,0,0,5.077-5.919L245.334,167.3C240.837,161.146,233.169,164.131,230.284,165.416Z" fill="#081466"/>
          <path id="Path_77" data-name="Path 77" d="M237.419,232.593l-6.528,15.568a6.955,6.955,0,0,0,.022,5.466c1.582,3.642,4.97,9.373,10.624,9.373,8.963,0,10.13-10.773,10.13-10.773l.929-14.38" fill="#f9c6b9"/>
          <path id="Path_78" data-name="Path 78" d="M252.071,245.96l.525-8.113-15.177-5.254-.523,1.248A33.889,33.889,0,0,0,252.071,245.96Z" fill="#f49e87"/>
          <path id="Path_79" data-name="Path 79" d="M269.65,185.288a20.167,20.167,0,0,1,4.577,6.2c3.274,6.895,1.272,14.452-.08,21.575-1.371,7.218-2.448,17.336-7.326,23.205-12.683,15.259-35.133-.086-39.249-15.362-2.824-10.48-4.609-24.75,3.069-33.756C239.8,176.408,259.4,175.836,269.65,185.288Z" fill="#f9c6b9"/>
          <path id="Path_80" data-name="Path 80" d="M225.68,210.032c7.205.9,19.971-10.426,26.794-24.07,1.461.225,2.194,2.235,3.639,2.848a2.276,2.276,0,0,0,1.654.133,1.237,1.237,0,0,0,.834-1.318,4.614,4.614,0,0,0,1.429,1.7,2.34,2.34,0,0,0,2.134.3,1.588,1.588,0,0,0,.965-1.806c4.388.915,8.732,7.87,9.724,12.308,1.31,5.858,1.791,12.423-.432,22.348,4.88-.437,10.307-8.129,12.635-12.44,4.758-8.809,1.493-20.311-4.831-27.457a18.215,18.215,0,0,0-5.827-4.659c-2.688-1.214-5.67-.949-8.509-1.476-4.494-5.077-13.371-9.574-21.313-10.458-8.737-.974-19.8,4.026-25.133,10.656-5.3,6.592-8.681,15.344-8.142,24.2.478,7.875,11.564,16.224,17.308,21.632" fill="#0d1d7d"/>
          <path id="Path_83" data-name="Path 83" d="M261.418,213.186c.728.151.049,7.136.5,8.03s2.031,2.532.794,3.35c-1.1.729-3,1.1-4.121.2a2.942,2.942,0,0,1-.933-2.326,22.611,22.611,0,0,1,.575-3.891C258.482,217.119,259.152,212.717,261.418,213.186Z" fill="url(#linear-gradient-26)"/>
          <path id="Path_84" data-name="Path 84" d="M270.12,211.482a1.705,1.705,0,1,1-.948-2.554A1.966,1.966,0,0,1,270.12,211.482Z" fill="#081466"/>
          <path id="Path_85" data-name="Path 85" d="M250.243,208.957c-.314,1.16-1.278,1.908-2.151,1.671a1.966,1.966,0,0,1-1.013-2.529c.315-1.16,1.278-1.909,2.152-1.672A1.966,1.966,0,0,1,250.243,208.957Z" fill="#081466"/>
          <path id="Path_86" data-name="Path 86" d="M267.051,203.645s.069-.109.2-.286a3.223,3.223,0,0,1,.606-.643,3,3,0,0,1,1-.564,2.5,2.5,0,0,1,.588-.1,2.671,2.671,0,0,1,.593.042,2.627,2.627,0,0,1,.547.219,2.146,2.146,0,0,1,.469.344,2.743,2.743,0,0,1,.613.918,3.1,3.1,0,0,1,.23.82c.029.213.038.335.038.335s-.067-.08-.17-.22a4.863,4.863,0,0,0-.441-.527,3.905,3.905,0,0,0-.676-.563,3.016,3.016,0,0,0-.865-.36,3.117,3.117,0,0,0-.943-.057c-.156.041-.31.036-.457.088a3.062,3.062,0,0,0-.419.132,4.286,4.286,0,0,0-.648.292C267.148,203.6,267.051,203.645,267.051,203.645Z" fill="#081466"/>
          <path id="Path_87" data-name="Path 87" d="M245.6,201.334s.063-.125.183-.333a3.278,3.278,0,0,1,.631-.773,3.908,3.908,0,0,1,1.147-.755,4.012,4.012,0,0,1,.724-.226,5.473,5.473,0,0,1,.771-.1,5.313,5.313,0,0,1,.77.072,3.727,3.727,0,0,1,.723.2,3.662,3.662,0,0,1,1.145.715,3.14,3.14,0,0,1,.628.749c.123.208.182.329.182.329s-.115-.064-.3-.179a5.676,5.676,0,0,0-.768-.4,5.122,5.122,0,0,0-.517-.2c-.18-.074-.385-.1-.582-.163a6.231,6.231,0,0,0-1.285-.124,6.3,6.3,0,0,0-1.286.167c-.2.072-.4.1-.583.183a6.513,6.513,0,0,0-1.285.646C245.715,201.269,245.6,201.334,245.6,201.334Z" fill="#081466"/>
          <path id="Path_88" data-name="Path 88" d="M261.917,228.47a7.458,7.458,0,0,1-6.35-.393.312.312,0,0,0-.487.21c-.663,5.179,1.953,6.6,3.227,6.68,3.726.226,4.121-4.248,4.049-6.241A.3.3,0,0,0,261.917,228.47Z" fill="#fff"/>
          <g id="Group_39" data-name="Group 39">
            <path id="Path_89" data-name="Path 89" d="M249.949,222.29c1.578-1.643,2.127-5.089-.516-6.736a6.566,6.566,0,0,0-4.486-.624,4.158,4.158,0,0,0-2.74,4.039c.033,2.187.915,3.817,2.908,4.49A4.827,4.827,0,0,0,249.949,222.29Z" fill="#efa39c"/>
          </g>
          <g id="Group_40" data-name="Group 40">
            <path id="Path_90" data-name="Path 90" d="M271.285,223.661c1.187-1.528,1.631-4.7-.309-6.187a3.341,3.341,0,0,0-5.392,3.218c0,2.01.636,3.5,2.106,4.1A3.167,3.167,0,0,0,271.285,223.661Z" fill="#efa39c"/>
          </g>
        </g>
      </g>
      <g id="Group_48" data-name="Group 48">
        <g id="Group_46" data-name="Group 46">
          <g id="Group_45" data-name="Group 45">
            <path id="Path_94" data-name="Path 94" d="M419.691,345.578c-.058,1.81-1.792,3.281-3.191,4.464-4.192,3.548-6.548,9.78-13.151,7.493-2.638-.914-2.064-3.812-3.814-5.524-1.874-1.833-4.925-2.229-6.448-4.455-2.947-4.3,5.108-4.092,2.072-8.119-3.65-4.841,1.168-10.084,5.363-12.229,4.4-2.25,13.6-5.8,17.518-1,1.721,2.112,1.24,4.588.071,6.83-.987,1.9-3.658,4.193-2.9,6.544.635,1.968,3.034,2.513,4.019,4.262A3.268,3.268,0,0,1,419.691,345.578Zm.709-29.637a3.8,3.8,0,0,0-2.9-2.661c-4.058-.722-6.931,5.314-3.156,7.584A4.06,4.06,0,0,0,420.4,315.941Zm2.858,20.724a1.811,1.811,0,0,0-1.381-1.268c-1.934-.344-4.142,3.2-2.343,4.277C421.462,340.832,423.912,338.2,423.258,336.665Z" fill="url(#linear-gradient-27)"/>
          </g>
        </g>
        <g id="Group_47" data-name="Group 47">
          <path id="Path_95" data-name="Path 95" d="M419.763,385.084h-8.389v-4h8.389a4.907,4.907,0,0,0,4.9-4.9v-7.33a4.906,4.906,0,0,0-4.9-4.9h-8.389v-4h8.389a8.911,8.911,0,0,1,8.9,8.9v7.33A8.911,8.911,0,0,1,419.763,385.084Z" fill="url(#linear-gradient-28)"/>
        </g>
        <path id="Rectangle_20" data-name="Rectangle 20" d="M0,0H27.482a0,0,0,0,1,0,0V29.572a8,8,0,0,1-8,8H8a8,8,0,0,1-8-8V0A0,0,0,0,1,0,0Z" transform="translate(391.579 354.312)" fill="url(#linear-gradient-29)"/>
      </g>
      <g id="Group_63" data-name="Group 63">
        <path id="Rectangle_21" data-name="Rectangle 21" d="M4.091,0H92.254a0,0,0,0,1,0,0V5.812a0,0,0,0,1,0,0H0a0,0,0,0,1,0,0V4.091A4.091,4.091,0,0,1,4.091,0Z" transform="translate(211.051 386.073)" fill="#7490f7"/>
        <path id="Path_96" data-name="Path 96" d="M282.449,319.826l-13.78,72.059H387.546l13.938-73.048A2.454,2.454,0,0,0,399.061,316H286.938A4.546,4.546,0,0,0,282.449,319.826Z" fill="#9494f2"/>
        <path id="Path_97" data-name="Path 97" d="M285.314,319.826l-13.781,72.059H390.411l13.938-73.048A2.454,2.454,0,0,0,401.926,316H289.8A4.546,4.546,0,0,0,285.314,319.826Z" fill="url(#linear-gradient-30)"/>
        <path id="Path_98" data-name="Path 98" d="M349.173,354.891a10.156,10.156,0,0,1-9.736,8.537,7.248,7.248,0,0,1-7.338-8.537,10.157,10.157,0,0,1,9.737-8.537A7.247,7.247,0,0,1,349.173,354.891Z" fill="#ffe1ff"/>
        <g id="Group_62" data-name="Group 62">
          <g id="Group_49" data-name="Group 49">
            <rect id="Rectangle_22" data-name="Rectangle 22" width="15.684" height="2" transform="translate(219.186 387.979)" fill="#646ef2"/>
          </g>
          <g id="Group_50" data-name="Group 50">
            <rect id="Rectangle_23" data-name="Rectangle 23" width="0.75" height="2.82" transform="translate(239.837 387.656)" fill="#646ef2"/>
          </g>
          <g id="Group_51" data-name="Group 51">
            <rect id="Rectangle_24" data-name="Rectangle 24" width="0.75" height="2.82" transform="translate(241.428 387.656)" fill="#646ef2"/>
          </g>
          <g id="Group_52" data-name="Group 52">
            <rect id="Rectangle_25" data-name="Rectangle 25" width="0.75" height="2.82" transform="translate(243.02 387.656)" fill="#646ef2"/>
          </g>
          <g id="Group_53" data-name="Group 53">
            <rect id="Rectangle_26" data-name="Rectangle 26" width="0.75" height="2.82" transform="translate(244.61 387.656)" fill="#646ef2"/>
          </g>
          <g id="Group_54" data-name="Group 54">
            <rect id="Rectangle_27" data-name="Rectangle 27" width="0.75" height="2.82" transform="translate(246.202 387.656)" fill="#646ef2"/>
          </g>
          <g id="Group_55" data-name="Group 55">
            <rect id="Rectangle_28" data-name="Rectangle 28" width="0.75" height="2.82" transform="translate(247.793 387.656)" fill="#646ef2"/>
          </g>
          <g id="Group_56" data-name="Group 56">
            <rect id="Rectangle_29" data-name="Rectangle 29" width="0.75" height="2.82" transform="translate(249.384 387.656)" fill="#646ef2"/>
          </g>
          <g id="Group_57" data-name="Group 57">
            <rect id="Rectangle_30" data-name="Rectangle 30" width="0.75" height="2.82" transform="translate(254.024 387.656)" fill="#646ef2"/>
          </g>
          <g id="Group_58" data-name="Group 58">
            <rect id="Rectangle_31" data-name="Rectangle 31" width="0.75" height="2.82" transform="translate(255.616 387.656)" fill="#646ef2"/>
          </g>
          <g id="Group_59" data-name="Group 59">
            <rect id="Rectangle_32" data-name="Rectangle 32" width="0.75" height="2.82" transform="translate(257.206 387.656)" fill="#646ef2"/>
          </g>
          <g id="Group_60" data-name="Group 60">
            <rect id="Rectangle_33" data-name="Rectangle 33" width="0.75" height="2.82" transform="translate(261.847 387.656)" fill="#646ef2"/>
          </g>
          <g id="Group_61" data-name="Group 61">
            <rect id="Rectangle_34" data-name="Rectangle 34" width="0.75" height="2.82" transform="translate(263.438 387.656)" fill="#646ef2"/>
          </g>
        </g>
      </g>
      <path id="Path_99" data-name="Path 99" d="M76.444,391.885H444.226v2H76.444Zm378.319,2H514v-2H454.763Z" fill="url(#linear-gradient-31)"/>
    </g>
  </g>
</svg>
