<svg width="1700" height="1200" viewBox="0 0 1700 1200" fill="none" xmlns="http://www.w3.org/2000/svg">
<path d="M1114.17 867.8H1193.27C1195.67 867.8 1197.77 865.8 1197.77 863.4V862.9C1197.77 860.5 1195.67 858.5 1193.07 858.5H1119.77C1075.37 858.5 1030.97 858.5 986.672 858.5H918.672C916.272 858.5 914.172 860.5 914.172 862.9V863.4C914.172 865.8 916.172 867.8 918.672 867.8H1015.17L988.572 916.6C969.672 951.4 950.772 986.1 931.772 1020.9L900.472 1078.3C899.372 1080.3 900.272 1082.9 902.372 1084.1L902.772 1084.3C904.872 1085.4 907.572 1084.8 908.572 1082.9L1025.67 867.8H1103.67L1220.77 1082.9C1221.77 1084.8 1224.47 1085.5 1226.57 1084.3L1226.97 1084.1C1229.07 1082.9 1229.97 1080.3 1228.87 1078.3L1197.57 1020.9C1178.67 986.1 1159.77 951.4 1140.77 916.6L1114.17 867.8ZM1197.47 828.612V770.469C1197.47 726.124 1197.47 681.881 1197.47 637.639V584.8C1197.47 576.516 1190.76 569.8 1182.47 569.8H1019.27C1010.99 569.8 1004.27 576.516 1004.27 584.8V828.784C1004.27 837.068 1010.99 843.784 1019.27 843.784C1019.28 843.784 1019.28 843.784 1019.29 843.784L1182.49 843.612C1190.77 843.603 1197.47 836.89 1197.47 828.612Z" fill="#D8DEED"/>
<g clip-path="url(#clip0)">
<path d="M988.809 1079.21C988.051 1079.78 987.117 1080.11 986.1 1080.11H930.6C928.1 1080.11 926 1078.01 926 1075.51C926 1073.01 928.1 1070.91 930.6 1070.91H984.674L1084 996.908C1086 995.408 1088.9 995.808 1090.4 997.808C1091.9 999.808 1091.5 1002.71 1089.5 1004.21L989.1 1079.01C989.005 1079.08 988.908 1079.15 988.809 1079.21ZM655.5 1080C653.1 1080 651 1078 651 1075.5C651 1073 653 1071 655.5 1071H814.4C816.9 1071 818.9 1073 818.9 1075.5C818.9 1078 816.9 1080 814.4 1080H655.5Z" fill="#FFCB3D"/>
<path d="M1084.5 996.584C1084.33 996.68 1084.16 996.788 1084 996.908L984.674 1070.91H930.6C930.434 1070.91 930.27 1070.92 930.108 1070.93C930.053 1070.61 930.014 1070.3 930 1070C930.1 1069.3 930.1 1068.5 930.3 1067.7C930.8 1065.9 931.6 1064.2 932.5 1062.7C935.4 1058.1 940.6 1054.9 940.6 1054.9C946.6 1051 952.1 1048.4 958.6 1045.6C962 1044.1 966.8 1042.1 972.4 1039.9C974.2 1034.1 976 1028.3 977.8 1022.4C981.2 1011.1 984.6 999.9 987.9 988.7L1048.1 945L1084.5 996.584ZM816.337 1071.43C815.752 1071.15 815.095 1071 814.4 1071H655.5C655.037 1071 654.592 1071.07 654.174 1071.2C654.009 1070.84 653.883 1070.46 653.8 1070.07V1069.97C653.8 1069.47 653.7 1068.97 653.8 1068.47C653.9 1067.87 653.9 1067.37 654.1 1066.77C655.4 1062.27 658.9 1058.47 661.2 1056.37C661.5 1056.07 661.7 1055.97 662 1055.77C666.4 1053.07 670.9 1050.57 675.6 1048.47C684.8 1044.27 705.2 1035.67 711.3 1032.57C719.2 1028.57 730.1 1021.77 741.5 1009.57C742.1 1009.27 756.811 992 756.811 992C796.737 1005.93 816.7 1012.93 816.7 1013V1069.57C816.7 1070.23 816.571 1070.86 816.337 1071.43Z" fill="#474961"/>
<path d="M888.262 911.945C874.346 938.19 858.096 970.5 839.513 1008.87C836.168 1015.78 828.146 1019.05 820.925 1016.45L746.454 989.59C746.016 989.432 745.586 989.254 745.164 989.056C737.666 985.534 734.443 976.6 737.966 969.102L809.867 816.045C808.412 814.069 806.983 812.107 805.583 810.161C805.495 809.982 805.361 809.935 805.274 809.756C789.618 787.911 793.92 758.223 814.964 744.177C821.934 739.554 828.903 734.931 835.872 730.308C844.844 724.389 855.365 722.273 865.599 723.662C870.714 720.464 876.622 717.832 883.336 716.395C890.13 714.967 896.49 715.037 902.333 715.958L1135.95 714.765C1143.55 798.201 1130.04 842.403 1095.41 847.37C1070.85 850.894 1034.75 851.852 987.101 850.245C1008.8 877.109 1030.46 904.568 1051.56 932.151C1053.07 934.089 1056.33 938.727 1056.32 944.629C1056.26 955.448 1044.86 960.562 1019.68 977.069C990.098 996.616 978.961 1007.28 967.527 1002.06C963.744 1000.46 961.49 997.887 960.563 996.671C948.126 979.871 919.599 948.095 888.262 911.945Z" fill="#A339FF"/>
<path opacity="0.176986" d="M888.459 912.678C897.477 895.656 905.519 881.17 912.586 869.22C917.207 861.405 921.584 854.037 925.57 847.367C947.763 848.789 968.193 849.818 986.86 850.456C1008.62 877.398 1030.35 904.941 1051.52 932.607C1053.02 934.545 1056.29 939.184 1056.27 945.085C1056.22 955.905 1044.82 961.019 1019.64 977.526C990.055 997.073 978.918 1007.73 967.484 1002.52C963.701 1000.92 961.447 998.344 960.52 997.128C948.115 980.37 919.702 948.714 888.459 912.678V912.678ZM810.068 816.833C808.529 814.745 807.019 812.673 805.54 810.618C805.452 810.438 805.318 810.392 805.231 810.213C789.575 788.368 793.877 758.68 814.921 744.634C821.891 740.011 828.86 735.388 835.83 730.765C844.838 724.822 855.408 722.713 865.681 724.136C850.718 733.645 842.626 747.944 841.01 750.968L810.068 816.833Z" fill="#444444"/>
<path d="M956.537 654.162C947.527 653.206 934.668 651.908 917.962 650.269C913.967 649.775 910.175 645.599 910.434 641.253C909.621 630.698 916.651 609.821 918.181 605.4C921.681 595.5 927.981 576.4 930.281 567.6C936.681 542.7 944.581 533.4 947.281 530.7C950.381 527.5 953.381 525.3 955.381 523.9C968.881 514.6 983.181 513.2 990.481 513C990.681 512.9 990.881 512.9 991.081 512.9L1007.43 512.67C1015.94 510.689 1024.3 510.051 1031.11 509.538C1041.09 508.843 1051.4 508.11 1061.56 509.408L1089.38 509.8C1089.58 509.8 1089.78 509.8 1089.98 509.9C1097.28 510.1 1111.58 511.5 1125.08 520.8C1127.08 522.2 1130.08 524.4 1133.18 527.6C1135.88 530.3 1143.78 539.6 1150.18 564.5C1152.48 573.3 1158.78 592.4 1162.28 602.3C1163.37 605.435 1165.69 615.557 1169.24 632.665C1169.54 633.124 1169.75 633.624 1169.85 634.157C1169.93 634.611 1169.92 635.06 1169.83 635.495C1170.02 636.418 1170.21 637.359 1170.41 638.318C1169.59 638.333 1168.78 638.35 1167.97 638.369C1166.83 639.279 1165.27 639.918 1163.5 640.095L1136.37 642.97C1140.75 670.043 1141.27 692.749 1138.81 706.946C1138.81 707.26 1138.7 707.679 1138.59 707.993C1138.04 711.242 965.385 715.119 964.164 713.966C953.061 704.012 955.504 680.227 955.504 680.227C955.852 670.909 956.196 662.234 956.537 654.162Z" fill="#FFCB3D"/>
<path d="M1022.88 534.939L1039.35 525.101L1050.56 536.909L1050.55 537.014C1050.27 539.374 1048.65 541.249 1046.54 541.973L1045.03 644.804C1045.02 645.087 1044.9 645.356 1044.69 645.542L1029.01 659.226C1028.6 659.586 1027.97 659.548 1027.61 659.142L1013.41 643.36C1013.21 643.142 1013.12 642.85 1013.16 642.56L1026.66 539.91C1024.58 539.094 1023.11 537.169 1022.88 534.939Z" fill="#DE3190"/>
<path opacity="0.176986" d="M1041.12 508.091C1035.41 509.106 1014.35 509.344 1013.75 516.21C1013.34 520.786 1013.56 528.72 1014.39 540.011L1039.35 525.101L1057.7 544.424C1068.44 527.274 1070.15 516.568 1062.84 512.303C1051.88 505.907 1046.84 507.075 1041.12 508.091Z" fill="#8C2A00"/>
<path d="M1060.62 486.567L1055.71 517.381C1055.58 518.068 1055.15 518.698 1054.5 518.878C1051.64 519.952 1047.67 521.013 1042.96 521.117C1034.45 521.398 1027.75 518.669 1024.05 516.728C1023.31 516.379 1022.87 515.48 1023.02 514.694L1025.99 497.414C1020.44 498.332 1020.77 498.196 1020.23 498.266C1013.74 498.635 1008.48 497.408 1007.53 497.021C1004.06 496.039 1000.9 492.369 998.534 486.714C995.316 479.162 993.314 467.974 993.578 455.088C993.529 453.244 993.774 451.458 994.019 449.672L997.042 432.025C997.707 428.079 999.433 424.442 1002 421.172C1003.09 419.754 1004.13 418.631 1005.32 417.742C1012.72 411.293 1021.83 410.327 1028.9 410.901C1032.68 411.146 1036.03 411.821 1038.39 412.551C1039.26 412.821 1042.32 413.824 1046.78 414.996C1049.2 415.669 1051.16 416.051 1052.32 416.378C1066.83 419.81 1072.97 419.169 1079.57 424.527C1080.81 425.481 1083.6 427.858 1085.68 431.828C1091.55 443.054 1087.24 455.256 1086.03 458.891C1082.08 469.738 1074.27 475.35 1071.75 477.815C1068.74 480.813 1063.98 484.267 1060.62 486.567ZM915.882 690.976L921.418 650.572L946.398 652.98L956.972 654.146L956.332 677.13C960.427 676.508 964.118 676.293 967.404 676.484C991.527 670.78 1061.63 654.506 1101.36 648.429L1101.15 646.43L1164.2 639.75C1165.97 639.572 1167.53 638.934 1168.66 638.023C1169.01 638.015 1169.37 638.007 1169.72 638C1173.56 667.934 1170.47 705.379 1134.64 715.857H973.12C973.133 715.905 973.148 715.953 973.164 716H899.061C898.652 706.244 904.259 697.903 915.882 690.976Z" fill="#DB9E75"/>
<path opacity="0.2" d="M915.863 691.118L921.418 650.572L956.972 654L956.281 677.071C945.434 678.864 937.608 680.595 932.803 682.265C927.998 683.935 922.351 686.886 915.863 691.118Z" fill="#8C2A00"/>
<path d="M1103.54 646.641C1103.71 647.452 1103.19 648.247 1102.38 648.417C1101.57 648.587 1100.78 648.067 1100.61 647.257C1099.03 639.737 1092.84 614.688 1087.03 591.668C1086.82 590.864 1087.31 590.049 1088.11 589.846C1088.92 589.643 1089.73 590.13 1089.94 590.933C1095.77 614.021 1101.96 639.061 1103.54 646.641ZM958.153 652.976C958.021 653.794 957.251 654.35 956.433 654.218C955.615 654.086 955.059 653.316 955.191 652.498C956.415 644.914 959.614 619.31 962.434 595.735C962.532 594.912 963.279 594.325 964.101 594.423C964.924 594.522 965.511 595.268 965.412 596.091C962.584 619.736 959.387 645.33 958.153 652.976Z" fill="#482D1F"/>
<path d="M1025.77 497.493L1040.99 494.044L1024.39 506.289L1025.77 497.493Z" fill="#482D1F"/>
<path d="M1004.49 453.331C1004.07 454.981 1003.24 457.672 1002.07 458.463C1000.11 459.611 998.905 454.283 1000.77 451.488C1001.51 450.307 1002.24 450.245 1003 450.495C1004.14 450.921 1004.72 452.153 1004.49 453.331ZM1022.12 456.452C1021.89 458.14 1021.36 460.889 1020.15 461.876C1018.35 463.258 1016.52 458.012 1018.11 455.062C1018.75 453.862 1019.49 453.701 1020.28 453.854C1021.46 454.083 1022.25 455.255 1022.12 456.452Z" fill="#482D1F"/>
<path d="M1010.14 475.109C1010.86 475.046 1012.63 474.88 1013.13 473.857C1013.17 473.661 1013.33 473.385 1013.27 473.17C1013.01 472.407 1011.75 472.57 1009.97 472.325C1006.79 471.911 1004.29 471.12 1004.29 471.12C1004.29 471.12 1004.6 473.217 1004.97 473.901C1005.77 475.584 1009.1 475.213 1010.14 475.109Z" fill="#482D1F"/>
<path d="M1007.3 454.081L1007.33 453.947L1007.31 454.013L1007.3 454.081ZM1003.82 464.164C1003.42 465.235 1004.07 466.489 1005.15 466.893C1005.39 466.963 1005.39 466.963 1005.55 467.006C1007.18 467.456 1008.2 467.704 1009.98 468.05C1010.52 468.155 1011.05 467.801 1011.15 467.259C1011.26 466.717 1010.91 466.192 1010.36 466.087C1008.64 465.752 1007.66 465.515 1006.08 465.078L1005.77 464.992C1005.76 464.987 1005.7 464.857 1005.7 464.839L1009.23 454.597L1009.26 454.463L1010.39 448.671C1010.49 448.129 1010.14 447.604 1009.6 447.499C1009.05 447.393 1008.53 447.747 1008.42 448.289L1007.31 454.013L1003.82 464.164Z" fill="#482D1F"/>
<path d="M1069.9 458.054C1069.79 461.017 1068.67 464.048 1066.87 466.312C1064.67 469.177 1062.1 470.474 1058.95 471.244C1058.42 471.376 1058.09 471.917 1058.22 472.454C1058.35 472.99 1058.89 473.318 1059.43 473.187C1060.81 472.848 1061.93 472.478 1063.27 471.802C1065.25 470.805 1067.01 469.415 1068.45 467.543C1070.5 464.958 1071.78 461.518 1071.9 458.127C1071.92 457.576 1071.49 457.112 1070.94 457.091C1070.39 457.071 1069.92 457.502 1069.9 458.054Z" fill="#482D1F"/>
<path d="M1069.96 457.712C1069.95 455.896 1069.59 454.052 1068.77 452.277C1066.49 447.249 1061.08 443.65 1056.06 444.305C1053.24 444.673 1051.07 446.391 1050.84 446.549C1049.9 447.35 1049.13 448.199 1048.5 449.004L996.46 434.946C997.607 423.651 1003.33 416.164 1013.63 412.484C1016.41 411.489 1023.91 410.025 1030.44 410.872C1040.52 412.18 1050.21 414.952 1052.93 415.688C1055.15 416.323 1058.93 416.703 1059.96 417.004C1071.07 418.066 1079.5 422.995 1082.38 425.572C1083.47 426.495 1085.99 428.819 1087.75 432.727C1093.28 444.601 1089 456.91 1087.56 459.686C1086.55 461.629 1085.15 462.784 1085.15 462.784C1080.99 461.758 1075.93 460.067 1069.96 457.712ZM998.188 444.873C997.245 444.486 997.198 443.153 998.019 442.599C999.055 441.985 1000.78 441.505 1002.74 441.887C1006.77 442.669 1010.57 446.159 1005.83 446.46C1003.02 446.73 999.958 445.726 998.188 444.873ZM1018.28 449.491C1017.33 449.104 1017.29 447.77 1018.21 447.236C1019.24 446.622 1020.96 446.142 1023.03 446.543C1027.05 447.325 1030.84 450.913 1026.11 451.115C1023.09 451.446 1020.16 450.265 1018.28 449.491Z" fill="#482D1F"/>
</g>
<path d="M1433.85 127.268H1080.15C1071.78 127.268 1065 134.058 1065 142.435V382.833C1065 391.21 1071.78 398 1080.15 398H1433.85C1442.22 398 1449 391.21 1449 382.833V142.435C1449 134.058 1442.22 127.268 1433.85 127.268Z" fill="#F2F6FB"/>
<path d="M1161.95 234.196C1179.93 234.196 1194.51 219.596 1194.51 201.586C1194.51 183.577 1179.93 168.977 1161.95 168.977C1143.96 168.977 1129.38 183.577 1129.38 201.586C1129.38 219.596 1143.96 234.196 1161.95 234.196Z" fill="#D8DEED"/>
<path d="M1257.38 234.196C1275.37 234.196 1289.95 219.596 1289.95 201.586C1289.95 183.577 1275.37 168.977 1257.38 168.977C1239.39 168.977 1224.81 183.577 1224.81 201.586C1224.81 219.596 1239.39 234.196 1257.38 234.196Z" fill="#D8DEED"/>
<path d="M1352.81 234.196C1370.8 234.196 1385.38 219.596 1385.38 201.586C1385.38 183.577 1370.8 168.977 1352.81 168.977C1334.82 168.977 1320.24 183.577 1320.24 201.586C1320.24 219.596 1334.82 234.196 1352.81 234.196Z" fill="#D8DEED"/>
<path d="M1161.95 344.915C1179.93 344.915 1194.51 330.146 1194.51 311.927C1194.51 293.708 1179.93 278.938 1161.95 278.938C1143.96 278.938 1129.38 293.708 1129.38 311.927C1129.38 330.146 1143.96 344.915 1161.95 344.915Z" fill="#D8DEED"/>
<path d="M1257.38 344.915C1275.37 344.915 1289.95 330.146 1289.95 311.927C1289.95 293.708 1275.37 278.938 1257.38 278.938C1239.39 278.938 1224.81 293.708 1224.81 311.927C1224.81 330.146 1239.39 344.915 1257.38 344.915Z" fill="#D8DEED"/>
<path d="M1352.43 344.915C1370.63 344.915 1385.38 330.146 1385.38 311.927C1385.38 293.708 1370.63 278.938 1352.43 278.938C1334.24 278.938 1319.49 293.708 1319.49 311.927C1319.49 330.146 1334.24 344.915 1352.43 344.915Z" fill="#D8DEED"/>
<path d="M1161.95 201.586C1157.35 201.586 1153.62 198.021 1153.62 193.623C1153.62 189.226 1157.35 185.661 1161.95 185.661C1166.55 185.661 1170.28 189.226 1170.28 193.623C1170.28 198.021 1166.55 201.586 1161.95 201.586ZM1161.95 205.378C1170.31 205.378 1177.09 211.829 1177.09 219.787H1146.8C1146.8 211.829 1153.58 205.378 1161.95 205.378Z" fill="#F2F6FB"/>
<path d="M1257.38 201.587C1252.78 201.587 1249.05 198.022 1249.05 193.624C1249.05 189.226 1252.78 185.661 1257.38 185.661C1261.98 185.661 1265.71 189.226 1265.71 193.624C1265.71 198.022 1261.98 201.587 1257.38 201.587ZM1257 205.378C1265.16 205.378 1271.77 211.829 1271.77 219.787H1242.23C1242.23 211.829 1248.84 205.378 1257 205.378Z" fill="#F2F6FB"/>
<path d="M1352.81 201.587C1348.21 201.587 1344.48 198.022 1344.48 193.624C1344.48 189.226 1348.21 185.661 1352.81 185.661C1357.41 185.661 1361.14 189.226 1361.14 193.624C1361.14 198.022 1357.41 201.587 1352.81 201.587ZM1352.43 205.378C1360.59 205.378 1367.2 211.829 1367.2 219.787H1337.66C1337.66 211.829 1344.28 205.378 1352.43 205.378Z" fill="#F2F6FB"/>
<path d="M1161.95 311.548C1157.35 311.548 1153.62 307.813 1153.62 303.206C1153.62 298.599 1157.35 294.864 1161.95 294.864C1166.55 294.864 1170.28 298.599 1170.28 303.206C1170.28 307.813 1166.55 311.548 1161.95 311.548ZM1161.95 314.581C1170.31 314.581 1177.09 321.372 1177.09 329.748H1146.8C1146.8 321.372 1153.58 314.581 1161.95 314.581Z" fill="#F2F6FB"/>
<path d="M1257.38 311.548C1252.78 311.548 1249.05 307.813 1249.05 303.206C1249.05 298.599 1252.78 294.864 1257.38 294.864C1261.98 294.864 1265.71 298.599 1265.71 303.206C1265.71 307.813 1261.98 311.548 1257.38 311.548ZM1257 314.581C1265.16 314.581 1271.77 321.372 1271.77 329.748H1242.23C1242.23 321.372 1248.84 314.581 1257 314.581Z" fill="#F2F6FB"/>
<path d="M1352.81 311.548C1348.21 311.548 1344.48 307.813 1344.48 303.206C1344.48 298.599 1348.21 294.864 1352.81 294.864C1357.41 294.864 1361.14 298.599 1361.14 303.206C1361.14 307.813 1357.41 311.548 1352.81 311.548ZM1352.43 314.581C1360.59 314.581 1367.2 321.372 1367.2 329.748H1337.66C1337.66 321.372 1344.28 314.581 1352.43 314.581Z" fill="#F2F6FB"/>
<path d="M1188.43 242.538H1135.47C1132.11 242.538 1129.38 245.267 1129.38 248.634V250.091C1129.38 253.458 1132.11 256.188 1135.47 256.188H1188.43C1191.79 256.188 1194.51 253.458 1194.51 250.091V248.634C1194.51 245.267 1191.79 242.538 1188.43 242.538Z" fill="#E1E5F0"/>
<path d="M1283.86 242.538H1230.9C1227.54 242.538 1224.81 245.267 1224.81 248.634V250.091C1224.81 253.458 1227.54 256.188 1230.9 256.188H1283.86C1287.22 256.188 1289.95 253.458 1289.95 250.091V248.634C1289.95 245.267 1287.22 242.538 1283.86 242.538Z" fill="#E1E5F0"/>
<path d="M1379.29 242.538H1325.57C1322.21 242.538 1319.49 245.267 1319.49 248.634V250.091C1319.49 253.458 1322.21 256.188 1325.57 256.188H1379.29C1382.65 256.188 1385.38 253.458 1385.38 250.091V248.634C1385.38 245.267 1382.65 242.538 1379.29 242.538Z" fill="#E1E5F0"/>
<path d="M1188.43 352.499H1135.47C1132.11 352.499 1129.38 355.229 1129.38 358.596V360.053C1129.38 363.42 1132.11 366.149 1135.47 366.149H1188.43C1191.79 366.149 1194.51 363.42 1194.51 360.053V358.596C1194.51 355.229 1191.79 352.499 1188.43 352.499Z" fill="#E1E5F0"/>
<path d="M1283.86 352.499H1230.9C1227.54 352.499 1224.81 355.229 1224.81 358.596V360.053C1224.81 363.42 1227.54 366.149 1230.9 366.149H1283.86C1287.22 366.149 1289.95 363.42 1289.95 360.053V358.596C1289.95 355.229 1287.22 352.499 1283.86 352.499Z" fill="#E1E5F0"/>
<path d="M1379.29 352.499H1325.57C1322.21 352.499 1319.49 355.229 1319.49 358.596V360.053C1319.49 363.42 1322.21 366.149 1325.57 366.149H1379.29C1382.65 366.149 1385.38 363.42 1385.38 360.053V358.596C1385.38 355.229 1382.65 352.499 1379.29 352.499Z" fill="#E1E5F0"/>
<path d="M1065 118.17C1065 109.792 1071.79 103 1080.14 103H1433.86C1442.22 103 1449 109.793 1449 118.17V136.368H1065V118.17Z" fill="#E1E5F0"/>
<g clip-path="url(#clip1)">
<path d="M983.792 58H655.123C643.457 58 634 67.4665 634 79.144V365.856C634 377.534 643.457 387 655.123 387H979.567C991.233 387 1000.69 377.534 1000.69 365.856V74.9152C1000.69 65.5732 993.124 58 983.792 58Z" fill="#E1E5F0"/>
<path d="M816.923 259.291C775.159 259.291 741.304 225.401 741.304 183.595C741.304 141.79 775.159 107.9 816.923 107.9C858.686 107.9 892.542 141.79 892.542 183.595C892.542 225.401 858.686 259.291 816.923 259.291Z" fill="#D8DEED"/>
<path fill-rule="evenodd" clip-rule="evenodd" d="M823.053 217.78C826.885 219.196 826.682 219.052 827.112 219.195C832.74 220.624 837.565 220.445 838.458 220.267C841.675 219.999 845.07 217.32 848.107 212.766C852.217 206.694 855.88 197.228 857.845 185.887C858.203 184.28 858.292 182.673 858.382 181.065L858.739 165.081C858.828 161.51 858.024 157.938 856.237 154.723C855.791 153.83 855.344 153.042 854.854 152.336C855.027 152.254 855.198 152.174 855.366 152.098C854.919 151.473 854.471 150.936 854.113 150.31C847.224 140.743 832.818 139.491 826.197 140.206C825.392 140.296 822.528 140.653 818.412 140.922C816.175 141.1 814.386 141.1 813.312 141.19C799.98 141.726 794.701 140.117 787.991 143.693C786.738 144.319 783.875 145.929 781.369 149.058C774.301 157.91 776.001 169.355 776.448 172.753C778.059 182.946 783.964 189.205 785.754 191.798C787.829 194.857 791.288 198.578 793.829 201.164L792.843 230.029C792.843 230.669 793.118 231.309 793.667 231.583C796.049 233.045 799.439 234.689 803.654 235.603C811.258 237.339 817.763 236.06 821.427 234.963C822.16 234.781 822.71 234.05 822.71 233.319L823.053 217.78Z" fill="#F2F6FB"/>
<path d="M790.32 176.579C790.417 174.283 791.11 171.975 792.573 169.945C795.511 165.832 801.02 163.547 805.427 165.009C807.906 165.832 809.558 167.751 809.742 167.934C812.221 171.041 812.772 174.332 812.772 174.332L812.871 175.307C819.166 168.679 826.997 160.486 832.886 154.186C836.469 155.185 842.38 156.183 849.097 154.731C851.515 154.186 853.575 152.915 855.366 152.099C854.918 151.463 854.47 150.919 854.202 150.465C847.216 140.753 832.528 139.483 825.811 140.209C824.916 140.3 822.05 140.663 817.84 140.935C815.512 141.116 813.721 141.116 812.646 141.207C799.033 141.752 793.659 140.118 786.853 143.749C785.599 144.384 782.643 146.018 780.136 149.194C772.344 158.815 774.225 170.523 775.12 173.246C775.747 175.152 776.912 176.423 776.912 176.423C781.641 176.211 786.02 176.356 790.32 176.579ZM856.129 175.93C857.073 175.732 857.356 174.449 856.696 173.757C855.846 172.967 854.336 172.177 852.449 172.177C848.579 172.177 844.426 174.844 848.768 176.029C851.316 176.72 854.336 176.325 856.129 175.93ZM837.578 176.738C838.507 176.542 838.785 175.272 838.043 174.587C837.207 173.805 835.721 173.023 833.771 173.023C829.964 173.023 825.879 175.76 830.15 176.836C832.843 177.618 835.814 177.129 837.578 176.738Z" fill="#E1E5F0"/>
<path d="M849.452 182.104C849.452 181.003 850.067 179.993 850.991 179.81C851.606 179.718 852.145 179.902 852.529 181.094C853.529 183.939 851.837 188.526 850.529 187.15C849.76 186.232 849.529 183.663 849.452 182.104Z" fill="#E1E5F0"/>
<path d="M833.431 181.818C833.507 180.712 834.266 179.79 835.176 179.79C835.783 179.79 836.315 180.066 836.618 181.265C837.377 184.216 835.252 188.642 834.114 187.075C833.355 185.968 833.355 183.386 833.431 181.818Z" fill="#E1E5F0"/>
<path d="M840.132 200.35C839.492 200.157 837.938 199.675 837.664 198.615C837.664 198.422 837.572 198.133 837.664 197.94C838.029 197.265 839.126 197.651 840.771 197.747C843.696 197.94 846.072 197.651 846.072 197.651C846.072 197.651 845.432 199.579 844.976 200.157C844.062 201.603 841.137 200.639 840.132 200.35Z" fill="#E1E5F0"/>
<path fill-rule="evenodd" clip-rule="evenodd" d="M845.598 176.406C845.131 176.406 844.753 176.785 844.753 177.252V182.49C844.753 182.529 844.755 182.567 844.761 182.606L846.069 192.105C846.07 192.112 846.071 192.119 846.072 192.126C846.072 192.126 846.072 192.126 846.072 192.126C846.072 192.126 846.074 192.159 846.031 192.215C845.991 192.266 845.944 192.294 845.911 192.305C845.884 192.307 845.858 192.309 845.831 192.311C844.756 192.396 843.74 192.476 841.848 192.476C841.381 192.476 841.003 192.854 841.003 193.321C841.003 193.789 841.381 194.167 841.848 194.167C843.806 194.167 844.873 194.083 845.965 193.998C846.009 193.994 846.054 193.991 846.1 193.987C846.125 193.985 846.15 193.982 846.175 193.978C847.089 193.823 847.906 192.913 847.742 191.865L846.443 182.432V177.252C846.443 176.785 846.064 176.406 845.598 176.406Z" fill="#E1E5F0"/>
<path fill-rule="evenodd" clip-rule="evenodd" d="M789.765 173.881C789.304 173.805 788.869 174.117 788.793 174.577C788.292 177.624 788.891 180.849 790.295 183.421C792.51 187.617 796.322 189.32 797.574 189.868C798.001 190.055 798.499 189.86 798.686 189.432C798.873 189.004 798.678 188.505 798.251 188.318C797.055 187.795 793.715 186.284 791.787 182.626L791.781 182.614C790.551 180.365 790.021 177.519 790.461 174.853C790.537 174.392 790.225 173.957 789.765 173.881Z" fill="#E1E5F0"/>
<path d="M801.714 294.812H923.381C926.414 294.812 928.873 297.274 928.873 300.31V302.847C928.873 305.883 926.414 308.345 923.381 308.345H801.714C798.681 308.345 796.222 305.883 796.222 302.847V300.31C796.222 297.274 798.681 294.812 801.714 294.812Z" fill="#D8DEED"/>
<path d="M709.619 331.18H923.381C926.414 331.18 928.873 333.641 928.873 336.678V338.369C928.873 341.405 926.414 343.867 923.381 343.867H709.619C706.586 343.867 704.127 341.405 704.127 338.369V336.678C704.127 333.641 706.586 331.18 709.619 331.18Z" fill="#F2F6FB"/>
<path d="M709.619 294.812H778.902C781.935 294.812 784.394 297.274 784.394 300.31V302.847C784.394 305.883 781.935 308.345 778.902 308.345H709.619C706.586 308.345 704.127 305.883 704.127 302.847V300.31C704.127 297.274 706.586 294.812 709.619 294.812Z" fill="#D8DEED"/>
</g>
<path d="M695.088 206H361.912C352.572 206 345 213.573 345 222.915V518.085C345 527.427 352.572 535 361.912 535H695.088C704.428 535 712 527.427 712 518.085V222.915C712 213.573 704.428 206 695.088 206Z" fill="#F2F6FB"/>
<path d="M345 222.919C345 213.575 352.571 206 361.904 206H695.096C704.432 206 712 213.58 712 222.919V242.368H345V222.919Z" fill="#E1E5F0"/>
<path d="M367.832 233.91C372.502 233.91 376.288 230.123 376.288 225.452C376.288 220.781 372.502 216.995 367.832 216.995C363.161 216.995 359.375 220.781 359.375 225.452C359.375 230.123 363.161 233.91 367.832 233.91Z" fill="#FF5645"/>
<path d="M394.469 233.91C399.373 233.91 403.348 230.123 403.348 225.452C403.348 220.781 399.373 216.995 394.469 216.995C389.565 216.995 385.59 220.781 385.59 225.452C385.59 230.123 389.565 233.91 394.469 233.91Z" fill="#FFCB3D"/>
<path d="M421.106 233.91C425.776 233.91 429.562 230.123 429.562 225.452C429.562 220.781 425.776 216.995 421.106 216.995C416.436 216.995 412.65 220.781 412.65 225.452C412.65 230.123 416.436 233.91 421.106 233.91Z" fill="#3ABF7C"/>
<path d="M422.374 449.578H544.144C547.18 449.578 549.641 452.04 549.641 455.076V456.767C549.641 459.803 547.18 462.265 544.144 462.265H422.374C419.339 462.265 416.878 459.803 416.878 456.767V455.076C416.878 452.04 419.339 449.578 422.374 449.578ZM566.976 449.578H635.471C638.507 449.578 640.968 452.04 640.968 455.076V456.767C640.968 459.803 638.507 462.265 635.471 462.265H566.976C563.94 462.265 561.479 459.803 561.479 456.767V455.076C561.479 452.04 563.94 449.578 566.976 449.578ZM529.346 422.514C486.846 422.514 452.394 388.056 452.394 345.55C452.394 303.044 486.846 268.586 529.346 268.586C571.845 268.586 606.297 303.044 606.297 345.55C606.297 388.056 571.845 422.514 529.346 422.514Z" fill="#474BFF"/>
<path d="M635.471 485.1H422.374C419.339 485.1 416.878 487.561 416.878 490.598V493.135C416.878 496.171 419.339 498.632 422.374 498.632H635.471C638.507 498.632 640.968 496.171 640.968 493.135V490.598C640.968 487.561 638.507 485.1 635.471 485.1Z" fill="#E1E5F0"/>
<path d="M554.853 367.835C557.376 369.239 562.236 372.135 567.75 376.171C574.478 381.26 569.058 391.351 560.741 389.245L549.059 386.262C545.694 385.384 543.358 382.664 543.171 379.417L542.891 374.591C542.61 370.292 546.255 366.694 550.834 366.694C552.236 366.782 553.638 367.133 554.853 367.835Z" fill="#D8DEED"/>
<path d="M540.234 357.884L547.952 356.545L548.774 361.588L548.683 367.891L551.332 391.214C551.332 391.214 528.312 401.389 524.658 396.797L522.471 378.112C522.123 378.227 521.765 378.344 521.399 378.462C513.522 381.041 513.98 380.857 513.43 381.041C507.568 382.33 502.622 381.87 501.706 381.685C494.103 380.672 485.951 366.03 483.203 345.493C482.928 343.835 482.928 342.177 482.836 340.52L483.111 324.035C483.111 320.351 484.119 316.76 485.951 313.628C486.134 313.26 486.317 312.984 486.5 312.707C487.142 311.694 487.783 310.866 488.424 310.129C490.897 307.182 493.828 305.064 496.851 303.59C503.996 300.643 512.056 300.367 516.545 301.012C517.186 301.104 519.201 301.38 522.04 301.748C524.697 302.393 527.262 302.761 529.918 302.853C531.383 302.946 532.483 304.235 532.483 305.708L531.567 329.284C531.475 331.495 533.948 332.876 535.78 331.587C535.78 331.587 535.872 331.587 535.872 331.495C536.147 331.31 538.162 330.113 540.635 330.021C545.032 329.929 549.428 333.705 550.802 338.309C552.268 343.098 550.527 347.979 547.596 351.018C545.49 353.136 543.016 354.057 541.368 354.518C540.543 354.61 539.719 355.347 539.536 356.176C539.536 356.176 539.536 356.268 539.444 356.36L540.234 357.884Z" fill="#F2F6FB"/>
<path d="M539.5 354.992C535.948 348.369 531.776 340.71 528.913 336.474C522.475 329.327 516.037 322.27 509.506 315.123C505.827 316.039 499.757 316.864 492.859 315.214C490.651 314.664 488.72 313.473 487.064 312.648C487.708 311.64 488.352 310.816 488.996 310.082C491.479 307.15 494.422 305.042 497.458 303.576C504.632 300.644 512.726 300.369 517.232 301.01C517.876 301.102 519.9 301.377 522.751 301.743C523.579 301.835 524.406 301.927 525.418 302.018C527.809 302.202 529.649 302.385 530.753 302.476C544.733 303.393 550.159 301.835 557.15 305.684C558.437 306.417 561.38 308.158 563.864 311.365C568.856 317.806 569.35 325.444 569.003 330.668C570.514 337.275 573.251 353.665 565.943 362.907C556.638 374.673 557.755 378.535 557.755 378.535L553.301 375.482L554.714 377.689L550.302 376.414C546.416 374.184 543.914 371.108 542.308 367.948L542.03 367.757L542.134 367.598C539.624 362.439 539.45 357.134 539.5 354.992Z" fill="#D8DEED"/>
<path d="M525.963 346.258L530.498 335.956C530.498 335.956 531.949 333.038 535.124 330.941C535.396 330.759 537.392 329.574 539.841 329.483C544.194 329.391 548.548 333.129 549.909 337.688C551.451 342.429 549.727 347.261 546.825 350.179C543.922 353.096 540.203 353.734 539.024 354.008L534.308 353.552" fill="#F2F6FB"/>
<path d="M493.148 351.686C491.059 355.59 487.038 358.237 482.413 358.237C475.635 358.237 470.152 352.55 470.152 345.55C470.152 338.551 475.635 332.864 482.413 332.864C488.545 332.864 493.617 337.517 494.529 343.586L498.058 343.292C498.138 336.578 503.793 331.172 510.742 331.172C515.964 331.172 520.455 334.225 522.399 338.592L528.295 337.118C528.748 337.005 529.207 337.28 529.32 337.733C529.433 338.186 529.158 338.646 528.705 338.759L522.978 340.191C523.27 341.224 523.426 342.312 523.426 343.436C523.426 350.216 517.74 355.699 510.742 355.699C504.283 355.699 498.943 351.03 498.157 344.981L495.396 345.211L494.675 353.651C494.675 353.797 494.804 353.968 494.828 353.971C495.398 354.017 495.749 354.017 497.192 353.988C497.875 353.974 498.346 353.968 498.903 353.968C499.37 353.968 499.749 354.347 499.749 354.814C499.749 355.281 499.37 355.66 498.903 355.66C498.359 355.66 497.898 355.666 497.226 355.679C495.741 355.709 495.354 355.71 494.719 355.659C493.73 355.632 492.984 354.631 492.987 353.579L493.148 351.686ZM490.17 344.028C490.435 345.617 490.7 348.178 489.993 349.326C488.843 351.18 485.749 346.942 486.279 343.94C486.545 342.704 487.163 342.174 487.871 342.174C489.02 342.086 489.993 342.88 490.17 344.028ZM501 360.769C500.114 361.139 497.535 362.249 496.649 361.139C496.246 360.676 495.521 359.104 495.521 359.104C495.521 359.104 497.696 359.104 500.275 358.641C501.725 358.364 502.773 357.994 503.095 358.456C503.176 358.549 503.095 358.826 503.095 359.011C502.934 359.936 501.564 360.584 501 360.769ZM520.915 339.423C519.272 335.577 515.34 332.864 510.742 332.864C504.664 332.864 499.749 337.604 499.749 343.436C499.749 349.268 504.664 354.008 510.742 354.008C516.82 354.008 521.735 349.268 521.735 343.436C521.735 342.353 521.565 341.307 521.25 340.323C521.089 340.21 520.966 340.041 520.914 339.835C520.879 339.695 520.882 339.554 520.915 339.423ZM482.413 356.545C488.244 356.545 492.984 351.629 492.984 345.55C492.984 339.471 488.244 334.555 482.413 334.555C476.583 334.555 471.843 339.471 471.843 345.55C471.843 351.629 476.583 356.545 482.413 356.545Z" fill="#D8DEED"/>
<path d="M507.928 342.336C507.751 341.189 506.779 340.394 505.629 340.482C504.922 340.482 504.303 341.012 504.038 342.248C503.507 345.25 506.602 349.488 507.751 347.634C508.459 346.486 508.193 343.926 507.928 342.336Z" fill="#D8DEED"/>
<path d="M845.334 471.305L779.666 429C778.789 429.611 778.789 429.611 778 430.308L802.549 504.19C802.549 504.19 812.193 502.882 819.645 498.695L830.78 513C835.185 510.552 838.296 508.628 840.114 507.23C841.932 505.832 844.228 503.597 847 500.526L835.865 486.134C839.022 481.162 842.178 476.19 845.334 471.305Z" fill="#D8DEED"/>
<path d="M570 716V1073.5C570 1077.37 566.866 1080.5 563 1080.5C559.134 1080.5 556 1077.37 556 1073.5L556 709.5C556 706.131 558.379 703.319 561.549 702.651C562.446 702.233 563.446 702 564.5 702H1159.5C1163.37 702 1166.5 705.134 1166.5 709C1166.5 712.866 1163.37 716 1159.5 716H570Z" fill="#D8DEED"/>
<path d="M797.5 673H636.5C628.492 673 622 679.492 622 687.5C622 695.508 628.492 702 636.5 702H797.5C805.508 702 812 695.508 812 687.5C812 679.492 805.508 673 797.5 673Z" fill="#474961"/>
<path d="M788.5 615H627.5C619.492 615 613 621.492 613 629.5C613 637.508 619.492 644 627.5 644H788.5C796.508 644 803 637.508 803 629.5C803 621.492 796.508 615 788.5 615Z" fill="#474961"/>
<path d="M818.5 644H657.5C649.492 644 643 650.492 643 658.5C643 666.508 649.492 673 657.5 673H818.5C826.508 673 833 666.508 833 658.5C833 650.492 826.508 644 818.5 644Z" fill="#DE3190"/>
<path d="M803.5 586H642.5C634.492 586 628 592.492 628 600.5C628 608.508 634.492 615 642.5 615H803.5C811.508 615 818 608.508 818 600.5C818 592.492 811.508 586 803.5 586Z" fill="#DE3190"/>
<defs>
<clipPath id="clip0">
<path d="M650 324H1172V1080H650V324Z" fill="white"/>
</clipPath>
<clipPath id="clip1">
<path d="M634 58H999V387H634V58Z" fill="white"/>
</clipPath>
</defs>
</svg>
