<svg width="1700" height="1200" viewBox="0 0 1700 1200" fill="none" xmlns="http://www.w3.org/2000/svg">
<path d="M466.01 854H1188.41L1239.66 641.198C1249.16 601.767 1287.29 576.196 1327.38 582.384C1329.19 582.663 1330.98 583.018 1332.76 583.446C1368.21 591.984 1390.03 627.642 1381.49 663.091L1323.76 902.802C1314.26 942.233 1276.13 967.804 1236.04 961.616C1234.23 961.337 1232.44 960.983 1230.66 960.554C1209.09 955.359 1192.56 940.122 1184.86 921H469.564C461.856 940.122 445.333 955.359 423.763 960.554C421.983 960.983 420.185 961.337 418.376 961.616C378.292 967.804 340.156 942.233 330.66 902.802L272.929 663.091C264.392 627.642 286.208 591.984 321.657 583.446C323.437 583.018 325.234 582.663 327.044 582.384C367.128 576.196 405.264 601.767 414.76 641.198L466.01 854Z" fill="#E1E5F0"/>
<mask id="mask0" mask-type="alpha" maskUnits="userSpaceOnUse" x="422" y="582" width="810" height="272">
<path d="M522 582H1132C1187.23 582 1232 626.772 1232 682V854H422V682C422 626.772 466.772 582 522 582Z" fill="white"/>
</mask>
<g mask="url(#mask0)">
<path d="M522 582H1132C1187.23 582 1232 626.772 1232 682V854H422V682C422 626.772 466.772 582 522 582Z" fill="#F2F6FB"/>
</g>
<path d="M397.499 976L369.926 1023.76C365.646 1031.17 356.166 1033.71 348.753 1029.43C341.339 1025.15 338.799 1015.67 343.079 1008.26L365.069 970.17C358.637 965.136 354.503 957.301 354.503 948.5C354.503 933.312 366.815 921 382.003 921H1270C1285.19 921 1297.5 933.312 1297.5 948.5C1297.5 956.761 1293.86 964.171 1288.09 969.212L1310.64 1008.26C1314.92 1015.67 1312.38 1025.15 1304.96 1029.43C1297.55 1033.71 1288.07 1031.17 1283.79 1023.76L1256.22 976H397.499Z" fill="#D8DEED"/>
<path d="M969 860H1152C1156.42 860 1160 863.582 1160 868V884C1160 888.418 1156.42 892 1152 892H969C964.582 892 961 888.418 961 884V868C961 863.582 964.582 860 969 860ZM959 732H1142C1146.42 732 1150 735.582 1150 740V756C1150 760.418 1146.42 764 1142 764H959C954.582 764 951 760.418 951 756V740C951 735.582 954.582 732 959 732ZM938 796H1121C1125.42 796 1129 799.582 1129 804V820C1129 824.418 1125.42 828 1121 828H938C933.582 828 930 824.418 930 820V804C930 799.582 933.582 796 938 796Z" fill="#474BFF"/>
<path d="M987 828H1170C1174.42 828 1178 831.582 1178 836V852C1178 856.418 1174.42 860 1170 860H987C982.582 860 979 856.418 979 852V836C979 831.582 982.582 828 987 828ZM993 764H1176C1180.42 764 1184 767.582 1184 772V788C1184 792.418 1180.42 796 1176 796H993C988.582 796 985 792.418 985 788V772C985 767.582 988.582 764 993 764Z" fill="#474961"/>
<path d="M968.5 744H1150V753H968.5C966.015 753 964 750.985 964 748.5C964 746.015 966.015 744 968.5 744ZM985 776H1163V785H985V776ZM951 808H1129V817H951V808ZM979 840H1157V849H979V840ZM982 872H1160V881H982V872Z" fill="#F2F6FB"/>
<path d="M980 145H514C502.954 145 494 153.954 494 165V514C494 525.046 502.954 534 514 534H980C991.046 534 1000 525.046 1000 514V165C1000 153.954 991.046 145 980 145Z" fill="#F2F6FB"/>
<path d="M494 165.004C494 153.956 502.961 145 513.992 145H981.008C992.049 145 1001 153.957 1001 165.004V189H494V165.004Z" fill="#E1E5F0"/>
<path d="M523.5 177C528.747 177 533 172.747 533 167.5C533 162.253 528.747 158 523.5 158C518.253 158 514 162.253 514 167.5C514 172.747 518.253 177 523.5 177Z" fill="#FF5645"/>
<path d="M554.5 177C559.747 177 564 172.747 564 167.5C564 162.253 559.747 158 554.5 158C549.253 158 545 162.253 545 167.5C545 172.747 549.253 177 554.5 177Z" fill="#FFCB3D"/>
<path d="M586.5 177C591.747 177 596 172.747 596 167.5C596 162.253 591.747 158 586.5 158C581.253 158 577 162.253 577 167.5C577 172.747 581.253 177 586.5 177Z" fill="#3ABF7C"/>
<path d="M519 218.697H533.4C534.505 218.697 535.4 219.592 535.4 220.697V225.909C535.4 227.013 534.505 227.909 533.4 227.909H519C517.895 227.909 517 227.013 517 225.909V220.697C517 219.592 517.895 218.697 519 218.697ZM910 218.697H975C976.105 218.697 977 219.592 977 220.697V225.909C977 227.013 976.105 227.909 975 227.909H910C908.895 227.909 908 227.013 908 225.909V220.697C908 219.592 908.895 218.697 910 218.697ZM785.8 218.697H850.8C851.905 218.697 852.8 219.592 852.8 220.697V225.909C852.8 227.013 851.905 227.909 850.8 227.909H785.8C784.695 227.909 783.8 227.013 783.8 225.909V220.697C783.8 219.592 784.695 218.697 785.8 218.697ZM864 218.697H896.8C897.905 218.697 898.8 219.592 898.8 220.697V225.909C898.8 227.013 897.905 227.909 896.8 227.909H864C862.895 227.909 862 227.013 862 225.909V220.697C862 219.592 862.895 218.697 864 218.697Z" fill="#D8DEED"/>
<path d="M542 285.485H676C677.105 285.485 678 286.38 678 287.485V301.909C678 303.014 677.105 303.909 676 303.909H542C540.895 303.909 540 303.014 540 301.909V287.485C540 286.38 540.895 285.485 542 285.485ZM542 315.424H653C654.105 315.424 655 316.32 655 317.424V331.848C655 332.953 654.105 333.848 653 333.848H542C540.895 333.848 540 332.953 540 331.848V317.424C540 316.32 540.895 315.424 542 315.424ZM542 375.303H607C608.105 375.303 609 376.198 609 377.303V391.727C609 392.832 608.105 393.727 607 393.727H542C540.895 393.727 540 392.832 540 391.727V377.303C540 376.198 540.895 375.303 542 375.303ZM542 345.364H676C677.105 345.364 678 346.259 678 347.364V361.788C678 362.892 677.105 363.788 676 363.788H542C540.895 363.788 540 362.892 540 361.788V347.364C540 346.259 540.895 345.364 542 345.364Z" fill="#E1E5F0"/>
<path d="M683.224 432.879H806.176C812.616 432.879 815.082 433.575 817.526 434.882C819.971 436.19 821.889 438.108 823.196 440.553C824.504 442.997 825.2 445.463 825.2 451.903V459.916C825.2 466.356 824.504 468.821 823.196 471.266C821.889 473.71 819.971 475.629 817.526 476.936C815.082 478.243 812.616 478.94 806.176 478.94H683.224C676.784 478.94 674.318 478.243 671.874 476.936C669.429 475.629 667.511 473.71 666.203 471.266C664.896 468.821 664.2 466.356 664.2 459.916V451.903C664.2 445.463 664.896 442.997 666.203 440.553C667.511 438.108 669.429 436.19 671.874 434.882C674.318 433.575 676.784 432.879 683.224 432.879Z" fill="#3ABF7C"/>
<path d="M914 330.568V355.411C914 362.114 909.822 368.106 903.533 370.424C888.022 376.141 872.511 379 857 379C841.489 379 825.978 376.141 810.467 370.424C804.178 368.106 800 362.114 800 355.411V332.052L753.27 315.189C751.541 314.565 750.194 313.184 749.614 311.441C748.566 308.297 750.266 304.9 753.41 303.853L846.049 272.998C853.819 270.41 862.239 270.549 869.919 273.391L952.401 303.915C953.99 304.504 955.257 305.737 955.887 307.31C957.12 310.385 955.627 313.878 952.551 315.111L914 330.568Z" fill="#474BFF"/>
<path opacity="0.176986" d="M914 330.568V355.412C914 362.114 909.822 368.106 903.533 370.424C888.022 376.141 872.511 379 857 379C841.489 379 825.978 376.141 810.467 370.424C804.178 368.106 800 362.114 800 355.412V332.052L845.159 348.347C853.464 351.344 862.581 351.184 870.776 347.899L914 330.568Z" fill="#444444"/>
<path d="M930.5 352.459V325.383L856.442 308.437C855.096 308.129 854.255 306.788 854.563 305.442C854.871 304.096 856.212 303.255 857.558 303.563L933.558 320.953C934.694 321.213 935.5 322.224 935.5 323.39V352.459C938.131 353.466 940 356.014 940 359C940 361.572 938.612 363.821 936.544 365.038C936.725 365.364 936.862 365.653 936.954 365.903C941.315 377.766 946.855 390.345 934.202 390.988C926.932 391.357 925.756 382.896 930.675 365.604C927.952 364.645 926 362.05 926 359C926 356.014 927.869 353.466 930.5 352.459Z" fill="#474961"/>
<path d="M811.372 1029C811.792 1028.87 812.236 1028.8 812.692 1028.8H868.192C870.692 1028.8 872.792 1030.9 872.792 1033.4C872.792 1035.9 870.692 1038 868.192 1038H820.5H660.5C658.015 1038 656 1035.99 656 1033.5C656 1031.01 658.015 1029 660.5 1029H811.372Z" fill="#FFCB3D"/>
<path d="M820.45 1029H812.692C812.236 1029 811.792 1029.07 811.372 1029.2H660.5C659.774 1029.2 659.088 1029.37 658.48 1029.68L657 964.946L731.861 966.013L746.047 926L811.845 945.944C815.131 957.112 818.516 968.28 821.901 979.548C823.693 985.432 825.485 991.215 827.277 996.999C832.853 999.193 837.632 1001.19 841.017 1002.68C847.489 1005.48 852.965 1008.07 858.939 1011.96C858.939 1011.96 864.116 1015.15 867.003 1019.73C867.899 1021.23 868.696 1022.93 869.194 1024.72C869.393 1025.52 869.393 1026.32 869.492 1027.01C869.461 1027.67 869.314 1028.4 869.125 1029.1C868.823 1029.03 868.511 1029 868.192 1029H820.468C820.512 1028.86 820.532 1028.71 820.529 1028.56C820.527 1028.71 820.5 1028.86 820.45 1029Z" fill="#474961"/>
<path opacity="0.176986" d="M820.626 1029C820.696 1028.77 820.706 1028.54 820.658 1028.3C820.558 1027.5 820.558 1026.7 820.358 1026C819.158 1021.2 815.358 1017.2 813.158 1015.1C808.658 1012.2 804.158 1009.6 799.258 1007.3C781.558 998.5 776.458 998.6 764.858 990.7C760.058 987.4 755.658 983.7 751.558 979.5L734.352 966.1L732 966.066L746.205 926L812.003 945.944C815.289 957.112 818.674 968.28 822.059 979.548C823.851 985.432 825.643 991.215 827.435 996.999C833.011 999.193 837.79 1001.19 841.175 1002.68C847.647 1005.48 853.123 1008.07 859.097 1011.96C859.097 1011.96 864.274 1015.15 867.161 1019.73C868.057 1021.23 868.854 1022.93 869.352 1024.72C869.551 1025.52 869.551 1026.32 869.65 1027.01C869.619 1027.68 869.467 1028.43 869.274 1029.13C868.926 1029.05 868.564 1029 868.192 1029H820.626Z" fill="#444444"/>
<path d="M754.479 898.599C754.836 907.132 755.318 914.227 756.011 919.436C756.127 920.739 756.061 930.322 754.27 933.725C748.709 944.144 717.877 941.082 690.418 941.846C662.959 942.611 647.821 945.294 639.649 938.973C635.172 935.528 634.507 929.342 634.24 927.184C633.015 916.191 631.589 905.054 630.085 893.86C595.859 907.439 574.334 915.494 565.51 918.022C556.778 920.523 547.102 921.197 538.303 921.607C463.317 948.845 422.945 904.898 418.693 894.46C402.451 854.59 409.491 820.903 423.276 797.621C431 777.5 630.076 686.972 641.5 682.092C619.993 691.449 652.924 677.211 641.5 682.092C663.007 672.734 673.398 666.176 695.696 669.606C717.987 673.034 743.124 684.463 745.347 699.655C745.347 699.655 747.061 712.103 747.765 718.739C752.422 717.755 756.838 716.72 761.013 715.632C761.027 715.622 761.041 715.613 761.055 715.603C772.045 708.025 812.655 701.77 832.5 710.393C857.033 721.052 871.442 746.768 867.723 773.257C862.413 811.077 859.375 831.579 858.609 834.763C857.467 839.642 843.592 894.823 838.527 915.076C837.414 919.673 832.538 923.16 826.284 923.788C819.395 924.524 777.34 908.079 754.479 898.599Z" fill="#A339FF"/>
<path opacity="0.176986" d="M754.863 898.754C753.185 855.356 754.394 777.092 748.182 718.788C752.768 717.816 757.12 716.794 761.238 715.721C761.252 715.712 761.266 715.702 761.28 715.692C772.27 708.115 812.88 701.86 832.725 710.482C857.258 721.141 871.667 746.858 867.948 773.346C862.637 811.166 859.6 831.668 858.834 834.852C857.692 839.732 843.817 894.913 838.752 915.165C837.639 919.762 832.763 923.249 826.509 923.877C819.636 924.611 777.759 908.244 754.863 898.754ZM630.491 893.877C596.16 907.5 574.574 915.578 565.735 918.111C557.406 920.497 548.218 921.22 539.751 921.638C541.196 921.103 542.653 920.542 544.122 919.954C576.086 907.166 603.401 887.732 626.065 861.652C627.539 872.395 629.05 883.162 630.491 893.877Z" fill="#444444"/>
<path d="M528.471 735.243C473.913 762.042 440.075 781.304 426.958 793.03L423.002 794.998C403.041 768.451 394.966 732.504 398.778 687.157C389.243 684.824 381.067 682.435 377.331 680.687C369.86 677.189 367.837 669.535 371.263 657.725C374.133 646.378 379.939 633.22 388.68 618.252C399.069 600.462 413.726 599.944 423.186 601.131C431.448 594.979 471.722 594.279 479.278 595.811C491.165 598.309 508.792 601.809 518.451 616.147C521.552 620.616 522.994 624.961 523.745 628.066C523.745 628.066 525.187 632.411 526.211 637.145C528.565 647.97 533.233 685.853 528.471 735.243Z" fill="#FFCB3D"/>
<path d="M646.474 592.802L546.893 682.465C544.635 684.498 544.453 687.975 546.486 690.233C548.518 692.49 551.996 692.672 554.253 690.64L653.835 600.976C656.092 598.944 656.274 595.466 654.242 593.209C652.209 590.952 648.731 590.769 646.474 592.802Z" fill="#474961"/>
<path d="M611.661 622.597L552.221 584.229C548.528 581.845 543.711 582.153 540.35 584.987L482.156 634.072C477.934 637.633 477.399 643.942 480.96 648.164C481.556 648.871 482.248 649.492 483.015 650.009L549.648 694.913L612.897 638.459C617.017 634.782 617.376 628.46 613.698 624.34C613.101 623.67 612.415 623.084 611.661 622.597Z" fill="#474BFF"/>
<path d="M447.54 559.283C444.549 555.409 441.87 551.767 440.447 548.77C438.338 544.407 439.437 531.685 443.425 526.609C447.414 521.534 479.043 498.06 479.442 498.032C482.812 497.495 501.803 495.265 512.57 508.747C513.551 509.881 514.44 511.122 515.25 512.67C517.004 516.256 517.982 520.197 517.961 524.208L517.806 542.063C517.733 543.872 517.559 545.689 517.278 547.413C515.264 560.184 511.294 570.787 506.76 577.62C503.411 582.766 499.616 585.838 496.131 586.182C495.141 586.352 489.747 586.629 483.33 585.173C482.911 585.065 483.021 585.154 480.411 584.229L480.945 595.995C489.602 597.805 500.811 600.304 509.828 606.877C496.955 613.726 482.699 616.808 467.059 616.123C460.333 615.828 453.24 614.926 445.781 613.416C440.245 606.863 433.5 603.005 429.734 602.382C428.018 602.099 425.691 601.627 422.966 601.315C423.014 601.274 423.061 601.234 423.109 601.193C426.399 598.484 435.855 596.801 446.176 595.886L446.819 559.056L447.54 559.283ZM531.891 702.598C532.123 702.597 532.355 702.583 532.585 702.557C532.362 702.568 532.139 702.567 531.916 702.554C531.908 702.569 531.899 702.583 531.891 702.598ZM545.268 691.668L549.51 694.491L553.449 690.985C553.579 690.888 553.705 690.784 553.827 690.674L556.182 688.553L612.442 638.492C613.225 637.795 613.873 637.003 614.383 636.149L631.396 620.83C639.1 617.022 645.077 615.518 647.073 618.323C647.073 618.323 617.247 650.667 601.496 667.643C597.375 678.445 591.266 692.26 583.171 709.088C563.004 718.517 544.716 727.262 528.305 735.324C529.362 724.785 529.983 714.762 530.284 705.406C510.692 738.966 480.408 767.327 439.432 790.488C387.03 820.107 378.488 719.125 377.128 680.139C377.321 680.235 377.518 680.328 377.718 680.418C388.465 685.229 438.301 696.318 447.535 694.818C447.8 694.786 448.057 694.724 448.303 694.633L446.734 718.86L504.874 677.563C504.886 677.547 504.898 677.532 504.91 677.516L533.846 640.48C536.056 637.651 540.141 637.15 542.97 639.36C543.856 640.052 544.514 640.929 544.932 641.893L545.769 640.652C547.776 637.676 551.816 636.891 554.792 638.898C556.754 640.222 557.764 642.429 557.649 644.632C559.21 644.483 560.829 644.894 562.179 645.912L562.197 645.925C564.941 647.993 565.489 651.893 563.422 654.636C563.367 654.709 563.31 654.781 563.252 654.851L562.827 655.367C564.872 654.881 567.115 655.396 568.767 656.937C571.393 659.385 571.536 663.498 569.088 666.124L545.268 691.668ZM757.961 899.616C775.515 906.833 801.815 917.126 816.601 921.497L811.845 945.944L755.625 928.903C756.061 925.929 756.044 922.918 755.971 922.103C755.34 917.357 754.894 911.003 754.564 903.391C754.511 901.894 754.452 900.332 754.387 898.705L757.961 899.616ZM657.025 943.025C665.273 943.148 676.105 942.245 690.418 941.846C700.635 941.562 711.319 941.807 720.994 941.69L732.725 963.576L731.861 966.013L657.093 964.948L657.025 943.025Z" fill="#F2A98A"/>
<path opacity="0.2" d="M530.002 704.667C530.401 703.976 530.795 703.283 531.185 702.588C533.044 702.691 534.934 701.999 536.304 700.531L544.72 691.506L549.205 694.49L553.144 690.985C553.273 690.888 553.4 690.784 553.522 690.673L555.877 688.553L612.137 638.492C612.92 637.795 613.567 637.003 614.078 636.149L631.091 620.83C638.795 617.022 644.772 615.518 646.768 618.323C646.768 618.323 616.942 650.667 601.191 667.643C597.069 678.445 590.961 692.26 582.865 709.088C562.699 718.516 544.411 727.262 528 735.324C529.084 724.507 529.71 714.233 530.002 704.667Z" fill="#8C2A00"/>
<path d="M480.414 584.263L466.503 579.559L480.885 595.968L480.414 584.263Z" fill="#482D1F"/>
<path d="M496.285 498.499C501.873 499.928 507.744 502.817 512.204 508.402C513.186 509.536 514.074 510.777 514.884 512.324C515.658 513.906 516.28 515.556 516.733 517.251L466.077 534.916L472.574 500.794C482.265 499.382 490.169 498.617 496.285 498.499Z" fill="#482D1F"/>
<path d="M500.205 500.646C482.468 518.014 471.173 529.362 466.32 534.689C466.141 534.948 465.961 535.215 465.78 535.491C465.565 534.585 464.732 531.638 462.446 528.792C462.233 528.607 460.383 526.531 457.713 525.615C452.899 524.147 446.86 526.675 443.769 531.201C440.484 535.842 440.896 541.727 443.105 546.084C445.314 550.44 449.152 552.277 450.491 552.785L455.875 553.812L456.419 553.565C452.461 561.941 448.852 569.478 446.542 570.024C442.342 571.016 435.866 562.048 431.293 557.703C428.388 554.942 421.407 545.909 419.319 533.328C418.698 529.166 416.393 515.05 425.062 503.93C428.088 500.067 431.681 498.044 433.158 497.167C438.183 494.489 457.474 492.958 472.295 492.147C469.472 487.773 467.755 478.708 467.145 464.953C467.125 464.501 467.259 464.055 467.526 463.688C468.175 462.795 469.426 462.597 470.319 463.247C482.598 472.173 490.413 478.659 493.763 482.703C496.223 478.788 503.401 474.228 515.296 469.022C515.714 468.839 516.182 468.804 516.622 468.924C517.688 469.214 518.317 470.313 518.028 471.379C513.094 489.53 509.34 499.066 506.766 499.986C505.352 500.491 503.164 500.711 500.205 500.646Z" fill="#DE3190"/>
<path d="M512.95 545.547C513.165 544.329 514.3 543.347 515.511 543.463C516.316 543.507 516.956 544.064 517.353 545.44C517.897 548.91 514.413 553.564 513.169 551.546C512.28 550.305 512.676 547.37 512.95 545.547ZM491 544.338C491.215 543.12 492.35 542.139 493.561 542.254C494.366 542.298 495.006 542.855 495.403 544.231C495.947 547.701 492.463 552.356 491.219 550.337C490.33 549.096 490.726 546.162 491 544.338Z" fill="#482D1F"/>
<path d="M505.51 546.842L506.307 556.811C506.31 556.848 506.169 557.011 506.121 557.014C505.575 557.052 505.015 557.055 504.139 557.032C503.969 557.028 503.791 557.022 503.534 557.014C503.211 557.004 503.034 556.998 502.865 556.993C502.285 556.975 501.805 556.963 501.292 556.955C500.74 556.945 500.284 557.385 500.275 557.938C500.266 558.49 500.706 558.945 501.258 558.954C501.761 558.963 502.232 558.975 502.804 558.992C502.972 558.997 503.148 559.003 503.471 559.013C503.731 559.021 503.911 559.027 504.085 559.031C505.021 559.056 505.638 559.053 506.261 559.009C507.41 558.929 508.382 557.811 508.302 556.661L507.504 546.683C507.46 546.132 506.978 545.721 506.427 545.765C505.877 545.809 505.466 546.291 505.51 546.842Z" fill="#482D1F"/>
<path d="M499.74 564.678C499.021 564.428 497.269 563.748 497.1 562.757C497.086 562.558 496.965 562.266 497.158 562.152C497.622 561.618 498.854 562.033 500.684 562.407C503.932 562.981 506.54 563 506.54 563C506.54 563 505.654 564.665 505.083 565.106C503.97 566.387 500.773 565.107 499.74 564.678Z" fill="#482D1F"/>
<path d="M475.495 541.645L469.523 540.261C468.716 540.074 468.214 539.268 468.401 538.461C468.588 537.654 469.394 537.151 470.201 537.338L476.621 538.826C478.842 534.639 483.108 531.658 488.184 531.303C496.007 530.756 502.793 536.655 503.34 544.478C503.353 544.665 503.362 544.851 503.368 545.037L506.408 545.196C507.323 538.7 512.673 533.5 519.48 533.024C527.303 532.477 534.089 538.376 534.636 546.199C535.183 554.022 529.285 560.808 521.461 561.355C513.643 561.902 506.861 556.011 506.306 548.195L503.145 548.029C502.008 554.259 496.773 559.172 490.165 559.634C482.342 560.181 475.556 554.282 475.009 546.459C474.892 544.79 475.069 543.169 475.495 541.645ZM478.714 541.458C478.145 542.938 477.884 544.564 478.002 546.25C478.433 552.42 483.785 557.073 489.956 556.641C496.126 556.21 500.779 550.858 500.347 544.687C499.916 538.517 494.564 533.864 488.393 534.296C484.156 534.592 480.635 537.208 478.984 540.816C478.979 540.847 478.973 540.878 478.966 540.909C478.918 541.114 478.831 541.299 478.714 541.458ZM509.27 547.118C509.269 547.4 509.278 547.685 509.298 547.971C509.729 554.141 515.081 558.794 521.252 558.362C527.422 557.931 532.075 552.579 531.643 546.408C531.212 540.238 525.86 535.585 519.689 536.017C514.009 536.414 509.615 540.982 509.29 546.519C509.308 546.626 509.315 546.737 509.309 546.85C509.304 546.942 509.291 547.032 509.27 547.118Z" fill="#482D1F"/>
<path d="M626.992 862.346L618.372 778.846C618.287 778.022 617.55 777.423 616.726 777.508C615.902 777.593 615.303 778.33 615.388 779.154L624.008 862.654C624.093 863.478 624.83 864.077 625.654 863.992C626.478 863.907 627.077 863.17 626.992 862.346Z" fill="#482D1F"/>
<path fill-rule="evenodd" clip-rule="evenodd" d="M454.286 669.581C455.113 669.537 455.819 670.172 455.863 670.999L454.365 671.079C455.863 670.999 455.863 670.999 455.863 670.999L455.863 671.005L455.864 671.017L455.866 671.058C455.868 671.093 455.87 671.145 455.872 671.211C455.878 671.343 455.884 671.535 455.89 671.78C455.902 672.27 455.911 672.971 455.9 673.831C455.879 675.548 455.779 677.909 455.464 680.476C455.149 683.036 454.615 685.841 453.71 688.431C452.809 691.007 451.504 693.479 449.581 695.261C448.973 695.824 448.024 695.787 447.461 695.18C446.898 694.572 446.934 693.623 447.542 693.06C448.967 691.739 450.062 689.775 450.878 687.441C451.689 685.122 452.187 682.544 452.486 680.11C452.784 677.681 452.88 675.435 452.9 673.794C452.91 672.975 452.902 672.31 452.891 671.852C452.885 671.623 452.879 671.447 452.875 671.329C452.872 671.27 452.87 671.225 452.869 671.197L452.868 671.165L452.867 671.159C452.867 671.159 452.867 671.158 452.867 671.158M454.286 669.581C453.459 669.625 452.824 670.331 452.867 671.158L454.286 669.581Z" fill="#482D1F"/>
<g clip-path="url(#clip0)">
<path d="M1024.15 161.995C1024.15 156.475 1028.63 152 1034.15 152H1123.75L1160.15 188.349V303.001C1160.15 308.523 1155.66 313 1150.15 313H1034.15C1028.63 313 1024.15 308.526 1024.15 303.005V161.995Z" fill="#F2F6FB"/>
<path d="M1118.51 240.974L1073.16 263.787C1072.82 263.961 1072.4 263.822 1072.22 263.476C1072.17 263.379 1072.15 263.271 1072.15 263.162V217.536C1072.15 217.149 1072.46 216.836 1072.85 216.836C1072.96 216.836 1073.07 216.862 1073.16 216.911L1118.51 239.724C1118.85 239.897 1118.99 240.318 1118.82 240.664C1118.75 240.798 1118.64 240.907 1118.51 240.974Z" fill="#D8DEED"/>
<path d="M1123.75 152L1160.15 188.349L1126 194.501C1120.56 195.481 1116.91 191.868 1117.84 186.421L1123.75 152Z" fill="#D8DEED"/>
</g>
<path d="M1024 359.995C1024 354.475 1028.48 350 1034 350H1123.6L1160 386.349V501.001C1160 506.523 1155.51 511 1150 511H1034C1028.48 511 1024 506.526 1024 501.005V359.995Z" fill="#F2F6FB"/>
<path d="M1123.6 350L1160 386.349L1125.85 392.501C1120.41 393.481 1116.76 389.868 1117.69 384.421L1123.6 350Z" fill="#D8DEED"/>
<path d="M1055 460.505V418.05C1055 417.188 1055.37 416.367 1056.02 415.798C1061.12 411.308 1067.35 409.426 1074.71 410.151C1082.57 410.925 1087.78 414.912 1090.34 422.111V468.519C1090.34 469.071 1089.89 469.519 1089.34 469.519C1089.03 469.519 1088.73 469.373 1088.54 469.125C1085.01 464.492 1081.01 461.594 1076.54 460.431C1072.12 459.282 1066.33 460.227 1059.17 463.266C1057.65 463.914 1055.89 463.203 1055.24 461.678C1055.08 461.307 1055 460.908 1055 460.505ZM1129.43 460.505C1129.43 460.908 1129.35 461.307 1129.19 461.678C1128.54 463.203 1126.78 463.914 1125.26 463.266C1118.1 460.227 1112.31 459.282 1107.89 460.431C1103.42 461.594 1099.42 464.492 1095.89 469.125C1095.7 469.373 1095.4 469.519 1095.09 469.519C1094.54 469.519 1094.09 469.071 1094.09 468.519V422.111C1096.65 414.912 1101.86 410.925 1109.72 410.151C1117.08 409.426 1123.31 411.308 1128.41 415.798C1129.06 416.367 1129.43 417.188 1129.43 418.05V460.505Z" fill="#D8DEED"/>
<defs>
<clipPath id="clip0">
<path d="M1024 152H1161V313H1024V152Z" fill="white"/>
</clipPath>
</defs>
</svg>
