<?xml version="1.0" encoding="utf-8"?>
<!-- Generator: Adobe Illustrator 23.0.1, SVG Export Plug-In . SVG Version: 6.00 Build 0)  -->
<svg version="1.1" id="Layer_1" xmlns="http://www.w3.org/2000/svg" xmlns:xlink="http://www.w3.org/1999/xlink" x="0px" y="0px"
	 viewBox="0 0 255 208" style="enable-background:new 0 0 255 208;" xml:space="preserve">
<style type="text/css">
	.st0{fill:url(#SVGID_1_);}
	.st1{fill:url(#SVGID_2_);}
	.st2{fill:url(#SVGID_3_);}
	.st3{fill:url(#SVGID_4_);}
	.st4{fill:#7E57C2;}
	.st5{fill:url(#SVGID_5_);}
	.st6{fill:url(#SVGID_6_);}
	.st7{fill:url(#SVGID_7_);}
	.st8{opacity:0.15;enable-background:new    ;}
	.st9{fill:#56CCF2;}
	.st10{fill:#F2C94C;}
	.st11{fill:#F58A8A;}
	.st12{fill:#6FCF97;}
	.st13{fill:#FFFFFF;}
</style>
<linearGradient id="SVGID_1_" gradientUnits="userSpaceOnUse" x1="123.0153" y1="133.1218" x2="120.7713" y2="2.9112" gradientTransform="matrix(1 0 0 -1 0 210)">
	<stop  offset="0" style="stop-color:#FFFFFF;stop-opacity:0"/>
	<stop  offset="1" style="stop-color:#F78988;stop-opacity:0.6"/>
</linearGradient>
<path class="st0" d="M188.5,135.8c0,9.2-1.9,18.3-5.6,26.7c-3.7,8.4-9.2,15.9-16,22.1c-1.9,1.7-3.9,3.3-6,4.8
	c-2.7,1.9-5.5,3.6-8.4,5.1h0c-0.6,0.3-1.3,0.6-1.9,0.9c-0.3,0.1-0.6,0.3-0.9,0.4c-1.9,0.8-3.8,1.6-5.7,2.3c-1.5,0.5-3.1,1-4.7,1.4
	c-9.2,2.4-18.8,2.9-28.2,1.3c-1.1-0.2-2.2-0.4-3.3-0.6l-0.9-0.2c-2.8-0.6-5.5-1.5-8.2-2.5c-1.6-0.6-3.1-1.2-4.6-1.9
	c-0.6-0.3-1.2-0.5-1.7-0.8c-0.4-0.2-0.8-0.4-1.2-0.6c-10.4-5.4-19.2-13.5-25.5-23.5c-6.2-9.9-9.7-21.3-10.1-33
	c-0.4-11.7,2.4-23.3,8.1-33.6c5.6-10.3,13.9-18.9,24-25c10.1-6.1,21.6-9.3,33.4-9.5c11.8-0.2,23.4,2.8,33.7,8.5
	c10.3,5.8,18.8,14.1,24.8,24.2C185.4,112.6,188.5,124.1,188.5,135.8z"/>
<linearGradient id="SVGID_2_" gradientUnits="userSpaceOnUse" x1="134.5955" y1="73.9398" x2="152.7455" y2="41.8258" gradientTransform="matrix(1 0 0 -1 0 210)">
	<stop  offset="0" style="stop-color:#E57373"/>
	<stop  offset="1" style="stop-color:#AD1457"/>
</linearGradient>
<path class="st1" d="M139.4,140.5c4.2,4.3,16.6,21.2,16.6,21.2l-7.6,11l-6.8-21.9L139.4,140.5z"/>
<linearGradient id="SVGID_3_" gradientUnits="userSpaceOnUse" x1="-6448.8188" y1="-32623.8262" x2="-8360.8193" y2="-42125.2266" gradientTransform="matrix(1 0 0 -1 0 210)">
	<stop  offset="0" style="stop-color:#E57373"/>
	<stop  offset="1" style="stop-color:#AD1457"/>
</linearGradient>
<path class="st2" d="M152.4,194.6c-0.6,0.3-1.3,0.6-1.9,0.9c-0.3,0.1-0.6,0.3-0.9,0.4c-1.9,0.8-3.8,1.6-5.7,2.3
	c-1.5,0.5-3.1,1-4.7,1.4c-9.2,2.4-18.8,2.9-28.2,1.3c-1.1-0.2-2.2-0.4-3.3-0.6c-4,2.7-7.7,5.1-10.1,6.1l0.2-1.7l0.8-7.1l1.9-16.5
	l7.6-7.3L91,175.1c0,0,1.8-24.8,8.8-29.9c7-5.1,14.4-9.7,14.4-9.7c0.9,0.6,1.8,1,2.9,1.3l0,0c2.4,0.7,5,0.9,7.5,0.8
	c3-0.1,6-2.9,6.2-3.1c0,0,4.7,0.9,8.7,6.1c2,2.7,3.4,5.7,4.2,8.9c1,3.8,2.7,12.6,4.7,23.2C149.7,179.5,151,187.1,152.4,194.6z"/>
<linearGradient id="SVGID_4_" gradientUnits="userSpaceOnUse" x1="202.052" y1="62.18" x2="152.519" y2="33.287" gradientTransform="matrix(1 0 0 -1 0 210)">
	<stop  offset="0" style="stop-color:#FFF8E1"/>
	<stop  offset="1" style="stop-color:#FFCC80"/>
</linearGradient>
<path class="st3" d="M156,161.7l7.3,8.5l25.7-25.4l1-5.2l5.1-4.4l-2.3,6.8v8.8c0,0-19.8,31.9-25.3,33.6
	c-6.4,1.9-19.1-11.7-19.1-11.7L156,161.7z"/>
<path class="st4" d="M129.3,173.4l6,14.3l7.7-3.3l-5.7-14L129.3,173.4z"/>
<linearGradient id="SVGID_5_" gradientUnits="userSpaceOnUse" x1="25140.7109" y1="-16971.5898" x2="22470.0078" y2="-15158.3916" gradientTransform="matrix(1 0 0 -1 0 210)">
	<stop  offset="0" style="stop-color:#FFF8E1"/>
	<stop  offset="1" style="stop-color:#FFCC80"/>
</linearGradient>
<path class="st5" d="M137.6,182.6c-1,0.8-2.4,0.6-4.2,0.7c-2.4,0.1-4.7,1-6.5,2.5c-2.4,2-9.1,7.2-15.7,12c-1.2,0.9-2.4,1.7-3.6,2.5
	c-4,2.7-7.7,5.1-10.1,6.1c-0.6,0.3-1.3,0.5-2.1,0.6c-3.4,0.1-4.2-7-4.4-12.7c-0.1-1.9-0.1-3.6-0.1-4.9c-0.1-5,0-14.3,0-14.3
	l17.1-1.3l-1.8,11.8l-0.3,2.1v0l5.1-1.9l0.2-0.1l18.2-6.7l1.3-2.2l0.8,2h0.1l7.8-1C139.4,177.9,139.6,181,137.6,182.6z"/>
<linearGradient id="SVGID_6_" gradientUnits="userSpaceOnUse" x1="139.5681" y1="94.477" x2="112.5262" y2="83.264" gradientTransform="matrix(1 0 0 -1 0 210)">
	<stop  offset="0" style="stop-color:#FFF8E1"/>
	<stop  offset="1" style="stop-color:#FFCC80"/>
</linearGradient>
<path class="st6" d="M133.7,108.2c-0.4-1.2-0.8-2-0.9-2.3v-0.1c0,0-0.4,1-3.4,0.7c-3-0.2-4-1.7-4-1.7s0.9,3.2-2.6,4.5
	c-3.4,1.3-4.8,0.5-4.8,0.4c0.2,0.2,2.8,3,1.1,5.3c-1.8,2.3-6,1.9-6,1.9v0c0.5,1.2,1.1,2.3,1.7,3.4c0.3,0.6,0.7,1.1,1,1.6v0
	c0.9,1.5,2.1,2.7,3.6,3.7c-0.6,3.7-2.5,7.2-5.2,9.8l0,0c0.9,0.5,1.9,0.9,2.9,1.3c1.9,0.7,4.5,1.4,6.8,1.2c2.7-0.3,5.1-1.5,6.9-3.5
	l-1.2-4.5l-1.1-4C138,123.6,135.4,113,133.7,108.2z M128,126.1l0.2,0l0.3-0.1c-0.4,0.2-0.8,0.3-1.2,0.3c0.2-0.1,0.4-0.1,0.7-0.2
	L128,126.1z"/>
<linearGradient id="SVGID_7_" gradientUnits="userSpaceOnUse" x1="132.3932" y1="125.9216" x2="100.9603" y2="83.1572" gradientTransform="matrix(1 0 0 -1 0 210)">
	<stop  offset="0" style="stop-color:#FFB74D"/>
	<stop  offset="1" style="stop-color:#F4511E"/>
</linearGradient>
<path class="st7" d="M139.4,105.8c-3.9,3.6-5.6,2.6-5.8,2.5v0c-0.4-1.2-0.8-2-0.9-2.3l0-0.1c0,0-0.4,1-3.4,0.7c-3-0.2-4-1.7-4-1.7
	s0.9,3.2-2.6,4.5c-3.4,1.3-4.8,0.5-4.8,0.4c0.2,0.2,2.8,3,1.1,5.3c-1.8,2.3-6,1.9-6,1.9v0c0.5,1.2,1.1,2.3,1.7,3.4
	c0.3,0.6,0.7,1.1,1,1.6v0c0,0-1.4,2.7-3.9,2.7c-2.5-0.1-2.6-2.5-2.6-2.5s-1.8,3.2-7.3,0.1c-5.5-3.1-1.8-7.5-1.8-7.5s-3.9-3-3.9-7.4
	c0-4.4,6.1-7.8,6.1-7.8s-2.2-5.1,1.5-8c3.7-2.8,9.1-0.9,9.1-0.9s-0.1-6.6,5.5-6.5c5.6,0.1,6.9,3.5,6.9,3.5s5-3.9,10-0.2
	c5,3.6,2.9,10,2.9,10S143.5,102,139.4,105.8z"/>
<path class="st8" d="M129.6,130c-2.4-0.7-6.6-3.6-6.6-3.6c1.7,0.2,3.4,0.1,5-0.3l0.2,0l0.3-0.1h0L129.6,130z"/>
<path class="st8" d="M110.4,158.5l-2.3,15.3l-1.8,11.8l-4.2,3.5l9.2-3.3C111.3,185.8,108.9,179,110.4,158.5z"/>
<path class="st8" d="M107.7,200.3c1.1,0.2,2.2,0.4,3.3,0.6c0.1-1,0.2-2.1,0.3-3.2L107.7,200.3z"/>
<g>
	<path class="st9" d="M85.4,10H58c-3.8,0-6.9,3-6.9,6.8V44c0,3.8,3.1,6.8,6.9,6.8h27.4c3.8,0,6.9-3,6.9-6.8V16.8
		C92.3,13,89.2,10,85.4,10z"/>
</g>
<g>
	<path class="st10" d="M227.3,113h-27.4c-3.8,0-6.9,3-6.9,6.8V147c0,3.8,3.1,6.8,6.9,6.8h27.4c3.8,0,6.9-3,6.9-6.8v-27.2
		C234.1,116,231.1,113,227.3,113z"/>
</g>
<g>
	<path class="st11" d="M44.3,113H16.9c-3.8,0-6.9,3-6.9,6.8V147c0,3.8,3.1,6.8,6.9,6.8h27.4c3.8,0,6.9-3,6.9-6.8v-27.2
		C51.1,116,48.1,113,44.3,113z"/>
</g>
<g>
	<path class="st12" d="M182.3,10h-27.4c-3.8,0-6.9,3-6.9,6.8V44c0,3.8,3.1,6.8,6.9,6.8h27.4c3.8,0,6.9-3,6.9-6.8V16.8
		C189.1,13,186.1,10,182.3,10z"/>
</g>
<g>
	<path class="st13" d="M74.9,40.8v-2.6c0-0.2,0-0.3,0.1-0.4l1.2-2.7c0.1-0.2,0.2-0.5,0.2-0.7v-0.8H81V21.1h-2.5v-1.8h-3.9
		c-1.2,0-2.3,0.7-2.9,1.8c-0.5-1-1.6-1.8-2.9-1.8h-3.9v1.8h-2.5v12.6H67v0.7c0,0.3,0.1,0.6,0.2,0.9l1.4,2.6c0.1,0.2,0.1,0.3,0.1,0.5
		v2.5h-8.3v0.7h22.2v-0.7H74.9z M80.3,21.8v11.1h-7.5v0.4c0,0.6-0.5,1.1-1.1,1.1c0,0-0.1,0-0.1,0c-0.2-0.8-0.6-1.5-1.2-2.1h8.1V21.8
		H80.3z M65.6,20h3.2c1.4,0,2.5,1.1,2.5,2.5v2.9h0.7v-2.9c0-1.4,1.1-2.5,2.5-2.5h3.2v11.5h-5.7v-5.4h-0.7v5.4h-1.4v-1.8
		c0-1.2-1-2.2-2.2-2.2c-0.4,0-0.7,0.3-0.7,0.7v3.2h-1.4V20z M63.1,32.9V21.8h1.8v10.4H67v0.7H63.1z M67.9,34.9
		c-0.1-0.2-0.1-0.3-0.1-0.5v-6.1c0.8,0,1.4,0.6,1.4,1.4V32l0.6,0.6c0.8,0.8,1.2,1.7,1.2,2.8h0.7c0-0.1,0-0.2,0-0.4c0,0,0,0,0,0
		c0.9,0,1.6-0.6,1.8-1.4h2.2v0.8c0,0.2,0,0.3-0.1,0.4l-1.2,2.7c-0.1,0.1-0.1,0.3-0.1,0.4h-4.7c0-0.2-0.1-0.3-0.2-0.5L67.9,34.9z
		 M69.6,40.1h3.2v-0.7h-3.2v-0.7h4.7v0.7h-0.7v0.7h0.7v0.7h-4.7V40.1z"/>
	<path class="st13" d="M74.6,28.6h0.7v0.7h-0.7V28.6z"/>
	<path class="st13" d="M76,28.6h0.7v0.7H76V28.6z"/>
	<path class="st13" d="M73.1,28.6h0.7v0.7h-0.7V28.6z"/>
	<path class="st13" d="M72.8,30.1h4.3v0.7h-4.3V30.1z"/>
	<path class="st13" d="M72.8,27.2h4.3v0.7h-4.3V27.2z"/>
	<path class="st13" d="M72.8,24.7h4.3v0.7h-4.3V24.7z"/>
	<path class="st13" d="M72.8,23.3h4.3V24h-4.3V23.3z"/>
	<path class="st13" d="M72.8,21.8h4.3v0.7h-4.3V21.8z"/>
	<path class="st13" d="M68.1,23.3h0.7V24h-0.7V23.3z"/>
	<path class="st13" d="M69.6,23.3h0.7V24h-0.7V23.3z"/>
	<path class="st13" d="M66.7,23.3h0.7V24h-0.7V23.3z"/>
	<path class="st13" d="M66.3,21.8h4.3v0.7h-4.3V21.8z"/>
	<path class="st13" d="M66.3,24.7h4.3v0.7h-4.3V24.7z"/>
	<path class="st13" d="M66.3,26.1h4.3v0.7h-4.3V26.1z"/>
</g>
<g>
	<g>
		<g>
			<path class="st13" d="M175.7,34.8c1.1-1.5,1-3.5-0.3-4.9c-0.3-0.3-0.7-0.6-1-0.7v-3.3l-4.6-4.6h-9.4v18.2h13.9v-3.6
				c0.2-0.1,0.4-0.2,0.6-0.4l2.9,2.9l0.8-0.7L175.7,34.8z M170,23.2l2.4,2.4H170V23.2L170,23.2z M173.2,38.5h-11.8V22.4h7.5v4.3h4.3
				v2.2c-1.1-0.2-2.3,0.2-3.2,1.1c-1.5,1.5-1.5,3.8,0,5.3c0.9,0.9,2,1.2,3.2,1.1V38.5z M174.6,34.4c-1,1-2.7,1-3.8,0
				c-1-1-1-2.7,0-3.8c1-1,2.7-1,3.8,0C175.6,31.7,175.6,33.4,174.6,34.4z"/>
		</g>
	</g>
	<g>
		<g>
			<rect x="162.5" y="27.8" class="st13" width="7.5" height="1.1"/>
		</g>
	</g>
	<g>
		<g>
			<rect x="162.5" y="29.9" class="st13" width="5.4" height="1.1"/>
		</g>
	</g>
	<g>
		<g>
			<rect x="162.5" y="34.2" class="st13" width="5.4" height="1.1"/>
		</g>
	</g>
	<g>
		<g>
			<rect x="162.5" y="32" class="st13" width="5.4" height="1.1"/>
		</g>
	</g>
</g>
<g id="surface1">
	<path class="st13" d="M40.4,128.1L40.4,128.1c0-0.2,0-0.5,0-0.7c0-1.3-1-2.3-2.3-2.4c-2.7-0.1-4.7-1-6.5-2.7l0,0
		c-0.6-0.5-1.4-0.5-2,0l0,0c-1.8,1.7-3.8,2.6-6.5,2.7c-1.3,0.1-2.3,1.1-2.3,2.4c0,0.3,0,0.5,0,0.7l0,0c-0.1,2.7-0.1,6.1,1,9.2
		c0.6,1.7,1.6,3.2,2.8,4.4c1.4,1.4,3.3,2.5,5.5,3.2c0.1,0,0.1,0,0.2,0.1c0.1,0,0.2,0,0.3,0c0.1,0,0.2,0,0.3,0c0.1,0,0.2,0,0.2-0.1
		c2.2-0.8,4.1-1.9,5.5-3.3c1.2-1.2,2.2-2.7,2.8-4.4C40.6,134.2,40.5,130.8,40.4,128.1z M38.1,136.9c-1.2,3.2-3.6,5.5-7.5,6.8
		c0,0,0,0,0,0c0,0-0.1,0-0.1,0c0,0,0,0,0,0c-3.8-1.3-6.3-3.6-7.5-6.8c-1-2.8-1-6-0.9-8.7l0,0c0-0.2,0-0.5,0-0.8c0-0.6,0.5-1,1-1.1
		c1.5-0.1,2.8-0.4,4.1-0.9c1.2-0.5,2.3-1.2,3.3-2.2c0.1,0,0.1,0,0.2,0c1,1,2.1,1.7,3.3,2.2c1.2,0.5,2.5,0.8,4.1,0.9
		c0.6,0,1,0.5,1,1.1c0,0.3,0,0.5,0,0.8C39.1,130.9,39.2,134,38.1,136.9z"/>
	<path class="st13" d="M30.6,127.6c-3.2,0-5.8,2.6-5.8,5.8c0,3.2,2.6,5.8,5.8,5.8c3.2,0,5.8-2.6,5.8-5.8
		C36.4,130.2,33.8,127.6,30.6,127.6z M30.6,137.9c-2.4,0-4.4-2-4.4-4.4c0-2.4,2-4.4,4.4-4.4c2.4,0,4.4,2,4.4,4.4
		C35,135.9,33,137.9,30.6,137.9z"/>
	<path class="st13" d="M32.2,131.6l-2.7,2.7l-0.7-0.7c-0.3-0.3-0.7-0.3-1,0c-0.3,0.3-0.3,0.7,0,1l1.2,1.2c0.1,0.1,0.3,0.2,0.5,0.2
		c0.2,0,0.3-0.1,0.5-0.2l3.2-3.2c0.3-0.3,0.3-0.7,0-1C32.9,131.4,32.5,131.4,32.2,131.6z"/>
</g>
<g>
	<g>
		<g>
			<polygon class="st13" points="213.6,130.3 209.5,134.4 210.7,135.6 212.3,133.9 212.7,133 212.7,141.8 214.5,141.8 214.5,133 
				214.8,133.9 216.5,135.6 217.7,134.4 			"/>
		</g>
	</g>
	<g>
		<g>
			<path class="st13" d="M219.3,129.4L219.3,129.4c-1-2.6-3.5-4.3-6.3-4.3c-3.7,0-6.6,2.9-6.7,6.6c0,0.1,0,0.3,0,0.4
				c-2,0-3.6,1.6-3.5,3.6c0,2,1.6,3.6,3.6,3.5h4.4v-1.8h-4.4c-1,0-1.8-0.8-1.8-1.8s0.8-1.8,1.8-1.8l1.8,0c0,0-0.1-1.8-0.1-2.2
				c0-2.3,1.6-4.3,3.8-4.8c2.6-0.6,5.2,1.1,5.8,3.7l0.2,0.8l0.8-0.2c0.2,0,0.4-0.1,0.6-0.1c1.7,0,3.1,1.4,3.1,3.1
				c0,1.7-1.4,3.1-3.1,3.1h-3.1v1.8h3.1c2.7,0,4.9-2.2,4.9-4.9C224.2,131.6,222.1,129.4,219.3,129.4z"/>
		</g>
	</g>
</g>
</svg>
