<svg width="192" height="132" viewBox="0 0 192 132" fill="none" xmlns="http://www.w3.org/2000/svg">
<path d="M191.995 66.0002C191.989 78.1294 188.67 90.0228 182.404 100.377C176.137 110.731 167.164 119.146 156.468 124.701C155.842 125.032 155.205 125.347 154.564 125.653C154.276 125.795 153.994 125.928 153.701 126.06C151.873 126.905 149.998 127.663 148.076 128.335C146.561 128.87 145.006 129.353 143.435 129.771C128.603 133.753 112.857 132.371 98.93 125.866C98.3594 125.597 97.7888 125.322 97.2283 125.037C86.8014 119.779 77.9562 111.81 71.6067 101.953C65.2572 92.0957 61.6336 80.7083 61.1104 68.9672C60.5872 57.2261 63.1833 45.557 68.6306 35.1658C74.0778 24.7745 82.1785 16.038 92.0958 9.8588C102.013 3.67961 113.387 0.281924 125.043 0.0168C136.699 -0.248324 148.213 2.62873 158.397 8.35069C168.58 14.0727 177.064 22.432 182.97 32.565C188.877 42.698 191.993 54.2371 191.995 65.9901V66.0002Z" fill="url(#paint0_linear)"/>
<path d="M100.854 106.742L93.623 95.3556C93.623 95.3556 113.654 72.0118 115.659 70.6323C115.659 70.6323 105.555 87.7202 100.854 106.742Z" fill="url(#paint1_linear)"/>
<path d="M93.623 95.3555L79.9896 107.572L54.9093 95.3555L35.7217 96.4142C35.7217 96.4142 47.6736 100.486 51.0364 100.318L54.4044 100.15C54.4044 100.15 75.0008 120.17 79.7372 121.697C84.4735 123.225 100.031 111.252 100.031 111.252L100.934 106.778L93.623 95.3555Z" fill="url(#paint2_linear)"/>
<path d="M131.241 67.8681C129.346 68.7928 127.309 69.385 125.217 69.6191C122.798 69.9856 119.122 68.6316 119.122 68.6316C121.899 66.4276 121.253 61.2304 121.253 61.2304L121.313 61.1999C124.277 60.9708 126.757 59.2758 128.489 57.6367C127.863 62.0856 131.241 67.8681 131.241 67.8681Z" fill="url(#paint3_linear)"/>
<path d="M131.241 51.3148V54.3689C130.452 55.5554 129.53 56.6468 128.494 57.6216V57.6216C126.762 59.2657 124.283 60.9608 121.319 61.1847C119.972 61.2885 118.62 61.0885 117.36 60.5994C109.281 57.5452 114.962 41.3837 114.962 41.3837C117.527 34.8071 129.14 37.9885 129.14 37.9885C130.695 39.8566 130.993 45.0741 130.933 45.5832C130.674 46.2983 130.335 46.9814 129.923 47.6193C129.923 47.6193 132.13 45.5221 132.887 46.9168C133.644 48.3115 131.241 51.3148 131.241 51.3148Z" fill="url(#paint4_linear)"/>
<path d="M131.241 54.3788V51.3246C131.241 51.3246 133.639 48.3468 132.882 46.9419C132.125 45.537 129.918 47.6444 129.918 47.6444C130.33 47.0065 130.669 46.3234 130.928 45.6083C130.988 45.0993 130.736 40.177 129.135 38.0136C129.135 38.0136 117.522 34.8323 114.957 41.4088C114.957 41.4088 111.634 40.5588 108.771 36.5731C104.09 30.0525 109.68 29.2534 115.219 30.5106C121.94 32.0377 128.676 27.0289 136.376 32.1192C144.076 37.2094 137.174 48.7795 131.241 54.3788Z" fill="#262F72"/>
<g filter="url(#filter0_d)">
<path d="M78.3838 25.96H12.8681C11.2841 25.96 10 27.2544 10 28.8512V89.7508C10 91.3476 11.2841 92.642 12.8681 92.642H78.3838C79.9678 92.642 81.2519 91.3476 81.2519 89.7508V28.8512C81.2519 27.2544 79.9678 25.96 78.3838 25.96Z" fill="white"/>
</g>
<path d="M20.9116 38.0443C20.7297 38.2518 20.4961 38.4064 20.235 38.4922C19.9234 38.6012 19.5953 38.6546 19.2655 38.65C18.9232 38.6579 18.5851 38.5736 18.2859 38.4057C18.0025 38.2398 17.7755 37.9914 17.6346 37.6931C17.4741 37.3493 17.3929 36.9734 17.3972 36.5936V36.2983C17.3881 35.9119 17.4621 35.5281 17.6144 35.1734C17.7452 34.8725 17.9636 34.6187 18.2405 34.4455C18.5756 34.2626 18.9544 34.1767 19.3349 34.1974C19.7155 34.218 20.0829 34.3444 20.3966 34.5626C20.6978 34.8402 20.879 35.2258 20.9015 35.6366H20.0381C20.0185 35.4291 19.9253 35.2357 19.7755 35.092C19.6168 34.9693 19.4198 34.9079 19.2201 34.9189C19.0854 34.9113 18.9512 34.9387 18.8301 34.9984C18.7089 35.0581 18.605 35.1482 18.5283 35.2599C18.3511 35.5682 18.2685 35.9224 18.291 36.278V36.5529C18.2691 36.911 18.3592 37.2671 18.5485 37.5709C18.6359 37.687 18.7501 37.7798 18.8813 37.841C19.0125 37.9022 19.1565 37.9301 19.3009 37.9221C19.5565 37.9446 19.8111 37.8682 20.0128 37.7083V36.9601H19.2049V36.3034H20.9015L20.9116 38.0443Z" fill="#64B5F6"/>
<path d="M72.8294 34.1909H26.4054C25.8393 34.1909 25.3804 34.6536 25.3804 35.2242V38.9808C25.3804 39.5515 25.8393 40.0142 26.4054 40.0142H72.8294C73.3955 40.0142 73.8545 39.5515 73.8545 38.9808V35.2242C73.8545 34.6536 73.3955 34.1909 72.8294 34.1909Z" fill="#E7EEF2"/>
<path d="M73.8545 43.3027H25.3804V44.3208H73.8545V43.3027Z" fill="#BBDEFB"/>
<path d="M73.8545 45.5933H25.3804V46.6113H73.8545V45.5933Z" fill="#E7E8E9"/>
<path d="M73.8545 47.8838H25.3804V48.9018H73.8545V47.8838Z" fill="#E7E8E9"/>
<path d="M73.8545 50.1743H25.3804V51.1924H73.8545V50.1743Z" fill="#E7E8E9"/>
<path d="M73.8545 54.4604H25.3804V55.4785H73.8545V54.4604Z" fill="#BBDEFB"/>
<path d="M73.8545 56.751H25.3804V57.769H73.8545V56.751Z" fill="#E7E8E9"/>
<path d="M73.8545 59.0415H25.3804V60.0596H73.8545V59.0415Z" fill="#E7E8E9"/>
<path d="M73.8545 61.332H25.3804V62.3501H73.8545V61.332Z" fill="#E7E8E9"/>
<path d="M73.8545 65.4912H25.3804V66.5093H73.8545V65.4912Z" fill="#BBDEFB"/>
<path d="M73.8545 67.7817H25.3804V68.7998H73.8545V67.7817Z" fill="#E7E8E9"/>
<path d="M73.8545 70.0723H25.3804V71.0903H73.8545V70.0723Z" fill="#E7E8E9"/>
<path d="M73.8545 72.3628H25.3804V73.3809H73.8545V72.3628Z" fill="#E7E8E9"/>
<path d="M73.8545 76.5215H25.3804V77.5395H73.8545V76.5215Z" fill="#BBDEFB"/>
<path d="M73.8545 78.812H25.3804V79.8301H73.8545V78.812Z" fill="#E7E8E9"/>
<path d="M73.8545 81.1025H25.3804V82.1206H73.8545V81.1025Z" fill="#E7E8E9"/>
<path d="M73.8545 83.3936H25.3804V84.4116H73.8545V83.3936Z" fill="#E7E8E9"/>
<path d="M148.706 92.4591C152.16 102.823 154.72 114.82 156.467 124.701C155.841 125.032 155.205 125.347 154.564 125.653C154.276 125.795 153.993 125.927 153.7 126.06C151.872 126.905 149.997 127.663 148.075 128.335C146.561 128.87 145.005 129.353 143.435 129.771C128.603 133.752 112.856 132.371 98.9297 125.866C98.3591 125.597 97.7885 125.322 97.228 125.037C98.2379 119.809 99.4396 113.665 100.848 106.747C101.36 104.24 101.897 101.63 102.459 98.9186C105.352 85.0273 109.503 77.4633 112.932 73.3656L112.967 73.3249C113.618 72.5459 114.324 71.8144 115.078 71.1361C115.099 71.1114 115.122 71.0893 115.148 71.0699C115.32 70.9172 115.492 70.7747 115.653 70.6372C117.718 68.9422 119.122 68.6317 119.122 68.6317L119.248 68.6775H119.319C120.416 69.1135 121.565 69.3994 122.738 69.5276H122.934H122.965C123.713 69.5998 124.466 69.6117 125.217 69.5632H125.262C127.346 69.4293 129.376 68.8387 131.21 67.8325V67.8325C133.361 68.5497 135.387 69.6026 137.214 70.9528C142.435 74.8163 152.953 88.9825 152.953 88.9825L148.706 92.4591Z" fill="url(#paint5_linear)"/>
<path d="M167.94 111.802C167.909 113.217 166.632 116.088 164.764 119.57C162.128 121.487 159.353 123.202 156.463 124.701C155.836 125.032 155.2 125.347 154.559 125.653C154.271 125.795 153.988 125.927 153.695 126.06C151.868 126.905 149.993 127.663 148.07 128.335L152.948 112.662L140.325 99.3004L148.702 92.4591L152.948 88.9927C152.948 88.9927 168.071 106.33 167.94 111.802Z" fill="url(#paint6_linear)"/>
<defs>
<filter id="filter0_d" x="0" y="19.96" width="91.2519" height="86.6821" filterUnits="userSpaceOnUse" color-interpolation-filters="sRGB">
<feFlood flood-opacity="0" result="BackgroundImageFix"/>
<feColorMatrix in="SourceAlpha" type="matrix" values="0 0 0 0 0 0 0 0 0 0 0 0 0 0 0 0 0 0 127 0"/>
<feOffset dy="4"/>
<feGaussianBlur stdDeviation="5"/>
<feColorMatrix type="matrix" values="0 0 0 0 0 0 0 0 0 0 0 0 0 0 0 0 0 0 0.15 0"/>
<feBlend mode="normal" in2="BackgroundImageFix" result="effect1_dropShadow"/>
<feBlend mode="normal" in="SourceGraphic" in2="effect1_dropShadow" result="shape"/>
</filter>
<linearGradient id="paint0_linear" x1="126.789" y1="7.16766" x2="124.513" y2="137.263" gradientUnits="userSpaceOnUse">
<stop stop-color="white" stop-opacity="0"/>
<stop offset="1" stop-color="#F78988" stop-opacity="0.6"/>
</linearGradient>
<linearGradient id="paint1_linear" x1="106.231" y1="68.2094" x2="102.384" y2="103.453" gradientUnits="userSpaceOnUse">
<stop stop-color="#42A5F5"/>
<stop offset="1" stop-color="#1565C0"/>
</linearGradient>
<linearGradient id="paint2_linear" x1="62.5339" y1="105.322" x2="104.455" y2="110.833" gradientUnits="userSpaceOnUse">
<stop stop-color="#FFE082"/>
<stop offset="1" stop-color="#FFA726"/>
</linearGradient>
<linearGradient id="paint3_linear" x1="9417.78" y1="2544.52" x2="9420.77" y2="2315.66" gradientUnits="userSpaceOnUse">
<stop stop-color="#FFE082"/>
<stop offset="1" stop-color="#FFA726"/>
</linearGradient>
<linearGradient id="paint4_linear" x1="14987.3" y1="4075.82" x2="15780.5" y2="4075.82" gradientUnits="userSpaceOnUse">
<stop stop-color="#FFE082"/>
<stop offset="1" stop-color="#FFA726"/>
</linearGradient>
<linearGradient id="paint5_linear" x1="42948.6" y1="15103.6" x2="48847.7" y2="20773.6" gradientUnits="userSpaceOnUse">
<stop stop-color="#42A5F5"/>
<stop offset="1" stop-color="#1565C0"/>
</linearGradient>
<linearGradient id="paint6_linear" x1="23009.9" y1="12265.9" x2="22606.5" y2="9747.27" gradientUnits="userSpaceOnUse">
<stop stop-color="#FFE082"/>
<stop offset="1" stop-color="#FFA726"/>
</linearGradient>
</defs>
</svg>
