<svg width="171" height="132" viewBox="0 0 171 132" fill="none" xmlns="http://www.w3.org/2000/svg">
<path d="M171 66.5004C170.993 78.5377 167.645 90.3409 161.32 100.617C154.996 110.892 145.941 119.244 135.147 124.756C134.661 125.009 134.172 125.251 133.679 125.484L133.577 125.534L133.226 125.701C132.935 125.842 132.65 125.974 132.354 126.105C130.51 126.944 128.617 127.696 126.678 128.363C125.577 128.744 124.464 129.096 123.34 129.419L121.995 129.788C107.027 133.739 91.1354 132.369 77.081 125.913C76.5052 125.645 75.9294 125.373 75.3638 125.09L74.3446 124.584C64.2575 119.344 55.7007 111.618 49.498 102.15C48.8457 101.163 48.2241 100.153 47.633 99.119C47.1064 98.2198 46.5968 97.3088 46.1042 96.386C41.3168 87.1399 38.8272 76.8935 38.8428 66.5004C38.8428 65.2745 38.8768 64.0553 38.9448 62.8429C39.9001 45.8107 47.5204 29.82 60.1848 18.2717C72.8493 6.72334 89.5587 0.528632 106.759 1.00507C123.96 1.48151 140.294 8.59151 152.288 20.8229C164.283 33.0542 170.99 49.4419 170.985 66.5004H171Z" fill="url(#paint0_linear)"/>
<path d="M91.9454 64.1709C91.9454 64.1709 77.1679 57.2249 75.8837 47.6671C74.5996 38.1093 75.5016 28.9759 82.8649 26.4197C82.8649 26.4197 87.5223 11.6992 104.032 17.6147C120.543 23.5302 117.939 41.2919 126.963 43.4186C135.988 45.5454 152.839 36.5888 156.055 47.5155C159.27 58.4423 148.696 57.7755 141.669 67.0504C134.642 76.3252 145.496 81.195 143.509 87.5804C141.522 93.9657 134.016 98.3556 134.016 98.3556L91.9454 64.1709Z" fill="url(#paint1_linear)"/>
<path d="M71.71 85.1358L75.8833 96.3858H76.3369L82.8645 67.0508C78.742 70.6324 71.71 85.1358 71.71 85.1358Z" fill="url(#paint2_linear)"/>
<path d="M64.3826 100.654L61.7379 101.973C58.4563 103.922 53.5542 103.367 53.5542 103.367C56.204 106.322 71.1242 109.666 75.318 109.58L76.0925 99.1133H66.7979L64.3826 100.654Z" fill="url(#paint3_linear)"/>
<path d="M133.679 125.469L133.577 125.519L133.226 125.686C132.935 125.827 132.65 125.959 132.354 126.09C130.51 126.929 128.617 127.681 126.678 128.348C125.577 128.729 124.464 129.081 123.34 129.404L121.995 129.773C107.027 133.724 91.1355 132.353 77.0811 125.898C76.5053 125.63 75.9295 125.357 75.3639 125.075L74.3447 124.569C74.4874 120.235 74.7065 115.047 75.0275 109.576C75.2314 106.156 75.4811 102.625 75.7766 99.1191C75.8531 98.2047 75.9346 97.2954 76.0161 96.3861C77.2187 83.4639 79.1449 71.4814 82.2329 67.6724L82.2787 67.6219C82.6708 67.087 83.2239 66.689 83.8584 66.4853C88.3172 65.4345 91.4612 65.0809 91.9555 64.1716C92.4498 63.2623 91.9555 61.474 91.9555 61.474L92.8421 61.3528C94.1314 61.1608 96.6333 60.7567 99.0029 60.1505C99.0178 60.1551 99.0338 60.1551 99.0487 60.1505C101.143 59.6099 103.125 58.9128 104.093 58.0742L106.081 63.3128C106.081 63.3128 121.026 61.4386 126.861 67.0712C126.897 67.0975 126.929 67.1281 126.958 67.1622C127.019 67.2173 127.077 67.2764 127.131 67.339C127.478 67.7029 127.787 68.1006 128.053 68.5261C129.954 71.5571 131.299 83.7216 132.232 96.9165C132.446 99.9475 132.64 103.08 132.808 106.146C133.195 113.228 133.485 120.089 133.679 125.469Z" fill="url(#paint4_linear)"/>
<path opacity="0.15" d="M133.577 125.534L133.225 125.701C132.935 125.842 132.65 125.973 132.354 126.105C130.509 126.943 128.617 127.696 126.677 128.363C125.577 128.743 124.464 129.095 123.34 129.419C116.455 122.149 113.724 112.713 113.724 112.713L132.797 106.146L133.577 125.534Z" fill="black"/>
<path d="M126.856 67.0508C133.761 73.7695 135.264 87.8738 133.99 98.3712C132.716 108.869 130.352 118.699 125.439 118.396C120.527 118.093 103.528 106.403 96.9595 100.028L100.797 92.7284L114.677 98.4621V83.1808L126.856 67.0508Z" fill="url(#paint5_linear)"/>
<path d="M126.856 67.0508C133.761 73.7695 135.264 87.8738 133.99 98.3712C132.716 108.869 130.352 118.699 125.439 118.396C120.527 118.093 103.528 106.403 96.9595 100.028L100.797 92.7284L114.677 98.4621V83.1808L126.856 67.0508Z" fill="url(#paint6_linear)"/>
<g filter="url(#filter0_d)">
<path d="M91.1453 96.3857H27.4541V99.1187H91.1453V96.3857Z" fill="url(#paint7_linear)"/>
<path d="M63.4347 62.8428H15L27.4539 96.3859H75.8835L63.4347 62.8428Z" fill="url(#paint8_linear)"/>
</g>
<path d="M41.9971 99.1191C41.9971 99.1191 50.354 103.267 55.6638 103.368C60.9735 103.469 66.803 99.1191 66.803 99.1191H41.9971Z" fill="url(#paint9_linear)"/>
<path d="M100.796 92.7281C100.796 92.7281 93.4483 89.0505 90.2839 88.6464C87.1194 88.2423 77.2949 96.3856 77.2949 96.3856H91.1552L96.9745 100.028L100.796 92.7281Z" fill="url(#paint10_linear)"/>
<path d="M103.472 49.789C103.508 52.5552 103.712 55.3167 104.083 58.0586C100.797 59.8924 96.9493 60.8775 92.832 61.3574L92.5925 58.0586L92.4498 56.038V55.9723C91.6561 55.9546 90.8737 55.783 90.1465 55.4671C85.1731 53.3404 84.103 42.944 84.103 42.944C86.0954 42.8632 88.6892 39.3018 88.6892 39.3018C90.1414 41.5043 96.878 45.7578 100.786 44.6161C104.695 43.4744 104.389 40.7415 104.389 40.7415C105.096 41.037 105.707 41.5193 106.157 42.1357C106.606 42.7522 106.876 43.4791 106.937 44.2372C107.146 46.9045 103.472 49.789 103.472 49.789Z" fill="url(#paint11_linear)"/>
<path opacity="0.15" d="M100.134 52.7236C99.2115 54.2694 95.0381 56.7296 92.5973 58.0683L92.4546 56.0476C92.6075 56.0476 92.7552 55.9971 92.8979 55.9668C94.8906 55.6172 96.8033 54.9138 98.5439 53.8906C98.5648 53.8825 98.5838 53.8705 98.6 53.8552C99.1231 53.5486 99.6131 53.1898 100.062 52.7843L100.134 52.7236Z" fill="black"/>
<path opacity="0.15" d="M108.95 96.103L119.763 100.488L114.667 96.8456V83.2061C114.667 83.2061 113.072 95.0573 108.95 96.103Z" fill="black"/>
<defs>
<filter id="filter0_d" x="0" y="47.8428" width="116.145" height="76.2759" filterUnits="userSpaceOnUse" color-interpolation-filters="sRGB">
<feFlood flood-opacity="0" result="BackgroundImageFix"/>
<feColorMatrix in="SourceAlpha" type="matrix" values="0 0 0 0 0 0 0 0 0 0 0 0 0 0 0 0 0 0 127 0"/>
<feOffset dx="5" dy="5"/>
<feGaussianBlur stdDeviation="10"/>
<feColorMatrix type="matrix" values="0 0 0 0 0 0 0 0 0 0 0 0 0 0 0 0 0 0 0.2 0"/>
<feBlend mode="normal" in2="BackgroundImageFix" result="effect1_dropShadow"/>
<feBlend mode="normal" in="SourceGraphic" in2="effect1_dropShadow" result="shape"/>
</filter>
<linearGradient id="paint0_linear" x1="105.193" y1="8.09397" x2="102.971" y2="137.225" gradientUnits="userSpaceOnUse">
<stop stop-color="white"/>
<stop offset="1" stop-color="#E57373"/>
</linearGradient>
<linearGradient id="paint1_linear" x1="75.3996" y1="57.2804" x2="156.656" y2="57.2804" gradientUnits="userSpaceOnUse">
<stop stop-color="#EF9A9A"/>
<stop offset="1" stop-color="#D81B60"/>
</linearGradient>
<linearGradient id="paint2_linear" x1="76.6834" y1="82.8827" x2="74.2742" y2="110.514" gradientUnits="userSpaceOnUse">
<stop stop-color="#7E57C2"/>
<stop offset="1" stop-color="#4527A0"/>
</linearGradient>
<linearGradient id="paint3_linear" x1="6813.02" y1="2527.43" x2="6789.49" y2="3103.43" gradientUnits="userSpaceOnUse">
<stop stop-color="#7E57C2"/>
<stop offset="1" stop-color="#4527A0"/>
</linearGradient>
<linearGradient id="paint4_linear" x1="20341.2" y1="14858" x2="24468.7" y2="22492.9" gradientUnits="userSpaceOnUse">
<stop stop-color="#7E57C2"/>
<stop offset="1" stop-color="#4527A0"/>
</linearGradient>
<linearGradient id="paint5_linear" x1="13960.4" y1="9770.53" x2="17624.5" y2="15926.1" gradientUnits="userSpaceOnUse">
<stop stop-color="#7E57C2"/>
<stop offset="1" stop-color="#4527A0"/>
</linearGradient>
<linearGradient id="paint6_linear" x1="118.759" y1="72.7491" x2="113.038" y2="119.812" gradientUnits="userSpaceOnUse">
<stop offset="0.14" stop-color="#7E57C2" stop-opacity="0"/>
<stop offset="0.26" stop-color="#724DBB" stop-opacity="0.21"/>
<stop offset="0.48" stop-color="#5F3DAF" stop-opacity="0.55"/>
<stop offset="0.66" stop-color="#5131A7" stop-opacity="0.79"/>
<stop offset="0.81" stop-color="#482AA2" stop-opacity="0.94"/>
<stop offset="0.91" stop-color="#4527A0"/>
</linearGradient>
<linearGradient id="paint7_linear" x1="27.4541" y1="97.7497" x2="91.1454" y2="97.7497" gradientUnits="userSpaceOnUse">
<stop stop-color="#D2D4D5"/>
<stop offset="1" stop-color="#AAACAE"/>
</linearGradient>
<linearGradient id="paint8_linear" x1="537.989" y1="4198.71" x2="4142.02" y2="8332.05" gradientUnits="userSpaceOnUse">
<stop stop-color="#D2D4D5"/>
<stop offset="1" stop-color="#AAACAE"/>
</linearGradient>
<linearGradient id="paint9_linear" x1="43.5767" y1="94.5575" x2="63.884" y2="103.339" gradientUnits="userSpaceOnUse">
<stop stop-color="#FFF8E1"/>
<stop offset="1" stop-color="#FFCC80"/>
</linearGradient>
<linearGradient id="paint10_linear" x1="7875.06" y1="2941.73" x2="8393.29" y2="3509.97" gradientUnits="userSpaceOnUse">
<stop stop-color="#FFF8E1"/>
<stop offset="1" stop-color="#FFCC80"/>
</linearGradient>
<linearGradient id="paint11_linear" x1="8044.47" y1="3227.22" x2="8499.41" y2="4088.69" gradientUnits="userSpaceOnUse">
<stop stop-color="#FFF8E1"/>
<stop offset="1" stop-color="#FFCC80"/>
</linearGradient>
</defs>
</svg>
