<svg xmlns="http://www.w3.org/2000/svg" xmlns:xlink="http://www.w3.org/1999/xlink" width="980.24" height="906.182" viewBox="0 0 980.24 906.182">
  <defs>
    <clipPath id="clip-path">
      <path id="Path" d="M146.649,14.755,373.024,258.619a150.4,150.4,0,0,1-7.9,212.551h0a150.4,150.4,0,0,1-212.551-7.9L68.009,372.173A254.622,254.622,0,0,1,81.4,12.328h0a46.181,46.181,0,0,1,65.25,2.427Z" transform="translate(0.997 0.797)" fill="none"/>
    </clipPath>
    <clipPath id="clip-path-2">
      <path id="Path-2" data-name="Path" d="M102.647,7.062,384.468,184.054a150.4,150.4,0,0,1,47.376,207.354h0A150.4,150.4,0,0,1,224.49,438.784L119.211,372.666a254.621,254.621,0,0,1-80.2-351.072h0A46.18,46.18,0,0,1,102.647,7.062Z" transform="translate(0.115 0.848)" fill="none"/>
    </clipPath>
  </defs>
  <g id="_5" data-name="5" transform="translate(-287.63 -29.698)">
    <path id="Path-3" data-name="Path" d="M146.649,14.755,373.024,258.62A150.4,150.4,0,0,1,152.568,463.265L68.009,372.173A254.62,254.62,0,0,1,81.4,12.328a46.18,46.18,0,0,1,65.249,2.427Z" transform="translate(455 215)" fill="#f3ca3e"/>
    <g id="Clipped" transform="translate(454 214)">
      <path id="Path-4" data-name="Path" d="M146.649,14.755,373.024,258.619a150.4,150.4,0,0,1-7.9,212.551h0a150.4,150.4,0,0,1-212.551-7.9L68.009,372.173A254.622,254.622,0,0,1,81.4,12.328h0a46.181,46.181,0,0,1,65.25,2.427Z" transform="translate(0.997 0.797)" fill="none"/>
      <g id="Clipped-2" data-name="Clipped" clip-path="url(#clip-path)">
        <g id="Group" transform="translate(-171 -39)">
          <path id="Path-5" data-name="Path" d="M77.61,0,0,43.7" transform="translate(572.26 334.5)" fill="none" stroke="#ffa161" stroke-linecap="round" stroke-miterlimit="10" stroke-width="31"/>
          <path id="Path-6" data-name="Path" d="M0,0,38.6,68.56" transform="translate(642.87 412.85)" fill="none" stroke="#ffa161" stroke-linecap="round" stroke-miterlimit="10" stroke-width="31"/>
          <path id="Path-7" data-name="Path" d="M0,0,38.6,68.56" transform="translate(311.91 471.59)" fill="none" stroke="#ffa161" stroke-linecap="round" stroke-miterlimit="10" stroke-width="31"/>
          <path id="Path-8" data-name="Path" d="M0,0,38.6,68.56" transform="translate(498.86 372.58)" fill="none" stroke="#ffa161" stroke-linecap="round" stroke-miterlimit="10" stroke-width="31"/>
          <path id="Path-9" data-name="Path" d="M0,0,38.6,68.56" transform="translate(539.12 228.57)" fill="none" stroke="#ffa161" stroke-linecap="round" stroke-miterlimit="10" stroke-width="31"/>
          <path id="Path-10" data-name="Path" d="M43.7,77.62,0,0" transform="translate(350.931 328.55)" fill="none" stroke="#ffa161" stroke-linecap="round" stroke-miterlimit="10" stroke-width="31"/>
          <path id="Path-11" data-name="Path" d="M43.7,77.62,0,0" transform="translate(452.25 514.28)" fill="none" stroke="#ffa161" stroke-linecap="round" stroke-miterlimit="10" stroke-width="31"/>
          <path id="Path-12" data-name="Path" d="M68.56,0,0,38.6" transform="translate(247.721 399.17)" fill="none" stroke="#ffa161" stroke-linecap="round" stroke-miterlimit="10" stroke-width="31"/>
          <path id="Path-13" data-name="Path" d="M68.57,0,0,38.6" transform="translate(543.24 485.95)" fill="none" stroke="#ffa161" stroke-linecap="round" stroke-miterlimit="10" stroke-width="31"/>
          <path id="Path-14" data-name="Path" d="M68.56,0,0,38.6" transform="translate(391.82 443.61)" fill="none" stroke="#ffa161" stroke-linecap="round" stroke-miterlimit="10" stroke-width="31"/>
          <path id="Path-15" data-name="Path" d="M68.56,0,0,38.6" transform="translate(432 295.42)" fill="none" stroke="#ffa161" stroke-linecap="round" stroke-miterlimit="10" stroke-width="31"/>
          <path id="Path-16" data-name="Path" d="M77.62,0,0,43.69" transform="translate(325.271 106.63)" fill="none" stroke="#ffa161" stroke-linecap="round" stroke-miterlimit="10" stroke-width="31"/>
          <path id="Path-17" data-name="Path" d="M0,0,38.6,68.57" transform="translate(395.891 184.97)" fill="none" stroke="#ffa161" stroke-linecap="round" stroke-miterlimit="10" stroke-width="31"/>
          <path id="Path-18" data-name="Path" d="M0,0,38.6,68.57" transform="translate(64.92 243.71)" fill="none" stroke="#ffa161" stroke-linecap="round" stroke-miterlimit="10" stroke-width="31"/>
          <path id="Path-19" data-name="Path" d="M0,0,38.6,68.56" transform="translate(251.87 144.71)" fill="none" stroke="#ffa161" stroke-linecap="round" stroke-miterlimit="10" stroke-width="31"/>
          <path id="Path-20" data-name="Path" d="M0,0,38.6,68.56" transform="translate(292.141 0.69)" fill="none" stroke="#ffa161" stroke-linecap="round" stroke-miterlimit="10" stroke-width="31"/>
          <path id="Path-21" data-name="Path" d="M43.7,77.62,0,0" transform="translate(103.95 100.68)" fill="none" stroke="#ffa161" stroke-linecap="round" stroke-miterlimit="10" stroke-width="31"/>
          <path id="Path-22" data-name="Path" d="M43.69,77.62,0,0" transform="translate(205.271 286.41)" fill="none" stroke="#ffa161" stroke-linecap="round" stroke-miterlimit="10" stroke-width="31"/>
          <path id="Path-23" data-name="Path" d="M68.56,0,0,38.6" transform="translate(0.74 171.3)" fill="none" stroke="#ffa161" stroke-linecap="round" stroke-miterlimit="10" stroke-width="31"/>
          <path id="Path-24" data-name="Path" d="M68.56,0,0,38.6" transform="translate(296.26 258.08)" fill="none" stroke="#ffa161" stroke-linecap="round" stroke-miterlimit="10" stroke-width="31"/>
          <path id="Path-25" data-name="Path" d="M68.56,0,0,38.6" transform="translate(144.84 215.74)" fill="none" stroke="#ffa161" stroke-linecap="round" stroke-miterlimit="10" stroke-width="31"/>
          <path id="Path-26" data-name="Path" d="M68.56,0,0,38.6" transform="translate(185.021 67.55)" fill="none" stroke="#ffa161" stroke-linecap="round" stroke-miterlimit="10" stroke-width="31"/>
        </g>
      </g>
    </g>
    <path id="Path-27" data-name="Path" d="M49.98,0,0,197.19l318.35,10.73,10.62-41.87Z" transform="translate(287.63 405.53)" fill="#7e53c5"/>
    <path id="Path-28" data-name="Path" d="M129.47,66.64,0,46.77,17.46,0,69.57,12.09Z" transform="translate(771.65 869.24)" fill="#24272d"/>
    <path id="Path-29" data-name="Path" d="M129.46,66.63,0,46.77,17.46,0l52.1,12.09Z" transform="translate(902.96 831.51)" fill="#24272d"/>
    <path id="Path-30" data-name="Path" d="M0,29.06,113.12,0,256.3,174.41a103.8,103.8,0,0,1,22.45,77.58L253.37,460.51l-92.78-1,27.88-217.9-137.22-96c-25.14-22-41.8-52.94-46.87-87Z" transform="translate(743.68 387.02)" fill="#ff5654"/>
    <path id="Path-31" data-name="Path" d="M20.41,17c38.38-18.55,101.33-20,129-13.46s55.79,117.1,55.79,117.1l63.37,90-62.07,39.88-74.19-106.41,29.46-26.31s-26.92,41.65-33.83,71.94H0s8.12-60,10.39-94.32" transform="translate(728.97 199.738)" fill="#24272d"/>
    <path id="Path-32" data-name="Path" d="M120.79,241.58A120.79,120.79,0,1,0,0,120.79,120.791,120.791,0,0,0,120.79,241.58Z" transform="translate(883.4 345.44)" fill="#7e53c5"/>
    <path id="Path-33" data-name="Path" d="M743.39,0c0,205.28-166.41,371.7-371.69,371.7S0,205.28,0,0" transform="translate(381.59 466.23)" fill="#7e53c5"/>
    <path id="Path-34" data-name="Path" d="M1.11,0,19.87,46.3,0,97.04" transform="translate(878.891 252.54)" fill="none" stroke="#fff" stroke-miterlimit="10" stroke-width="3"/>
    <path id="Path-35" data-name="Path" d="M2.833,0h116.43l100,205.22a105,105,0,0,1,4.41,81l-73.92,207.17H45.163l66.45-246.68L26.533,125.97A147.229,147.229,0,0,1,.483,29.74Z" transform="translate(726.677 389.25)" fill="#ff5654"/>
    <path id="Path-36" data-name="Path" d="M14.97.009h8.42A41.169,41.169,0,0,1,33.6,1.079c6.24,1.33,8.53,5.86,19,6.37,11.83.59,3.33,10.88-2.37,12-4.45.84-9.81-1.37-13.4,1.39,1,2.6,1.19,8.31,14.5,19.55,7.62,6.43,21,8.2,18,24.12-4.17,12.17-23.14,12.89-28.36,10.75-15.25-6.25-27.31-19-33.6-29.35A110.493,110.493,0,0,1,0,30.369" transform="translate(905.34 413.671)" fill="#fac6b8"/>
    <path id="Path-37" data-name="Path" d="M151.17,122.24l56.1,42.41-54.93,58.67L24.269,135.85S-19.731,29.8,10.759,0" transform="translate(744.111 239.28)" fill="#24272d"/>
    <path id="Path-38" data-name="Path" d="M37.63,96.12c20.783,0,37.63-21.517,37.63-48.06S58.413,0,37.63,0,0,21.517,0,48.06,16.848,96.12,37.63,96.12Z" transform="translate(854.98 45.21)" fill="#24272d"/>
    <path id="Path-39" data-name="Path" d="M25.72,136.386a25.71,25.71,0,0,0,24.73-18.72l23.89-84.3a25.72,25.72,0,1,0-49.48-14L.97,103.676a25.74,25.74,0,0,0,24.75,32.74Z" transform="translate(810.09 90.064)" fill="#fac6b8"/>
    <path id="Path-40" data-name="Path" d="M27.02,97.949l4.49,1.25a36.891,36.891,0,0,0,46.58-32.45l2.27-26.76A36.891,36.891,0,0,0,53.09,1.229h0a36.89,36.89,0,0,0-45.1,26.21L1.23,52.959a36.89,36.89,0,0,0,25.79,44.99Z" transform="translate(832.29 91.061)" fill="#fac6b8"/>
    <path id="Path-41" data-name="Path" d="M2.94,0,9.3,23.57,0,23.74" transform="translate(891.68 134.13)" fill="none" stroke="#25282d" stroke-miterlimit="10" stroke-width="3"/>
    <path id="Path-42" data-name="Path" d="M4.51,9.02A4.51,4.51,0,1,0,0,4.51,4.51,4.51,0,0,0,4.51,9.02Z" transform="translate(878.891 134.27)" fill="#24272d"/>
    <path id="Path-43" data-name="Path" d="M4.51,9.02A4.51,4.51,0,1,0,0,4.51,4.51,4.51,0,0,0,4.51,9.02Z" transform="translate(900.58 134.27)" fill="#24272d"/>
    <path id="Path-44" data-name="Path" d="M7.82,5.12S2.28,4.81,0,0" transform="translate(874.29 161.68)" fill="none" stroke="#25282d" stroke-miterlimit="10" stroke-width="3"/>
    <path id="Path-45" data-name="Path" d="M.355,133.182c-5,58.42,44.42,39.43,44.42,39.43s-31.57,64.12,39.08,58.77,89.93-55.54,87.2-84.24c-1.09-11.44-7-20.3-13.77-28.85,38.72-5.95,38.13-32.51,38.13-32.51S257.5,109.9,257,62.332,207.525-.488,178.585.012a60.474,60.474,0,0,0-17.92,3.11c-18.63,6.06-33.06,15.94-57.78,16.33-68.3,1.08-74.86,65.58-74.86,65.58S3.715,93.642.355,133.182Z" transform="translate(673.275 29.698)" fill="#24272d"/>
    <path id="Path-46" data-name="Path" d="M28.937,45.847l.01,0A16.609,16.609,0,0,0,37.8,24.085l-5.87-13.924A16.609,16.609,0,0,0,10.171,1.309l-.009,0A16.61,16.61,0,0,0,1.309,23.071l5.87,13.923A16.611,16.611,0,0,0,28.937,45.847Z" transform="translate(821.661 110.499)" fill="#fac6b8"/>
    <path id="Path-47" data-name="Path" d="M0,0,8.34,19.74" transform="translate(835.6 122.3)" fill="none" stroke="#25282d" stroke-miterlimit="10" stroke-width="3"/>
    <path id="Path-48" data-name="Path" d="M152.81,0,48.12,27.88l-16,4.25a32.127,32.127,0,0,1-12.3-2.441A32.024,32.024,0,0,1,9.4,22.724,31.946,31.946,0,0,1,2.44,12.3,32.037,32.037,0,0,1,0,0Z" transform="translate(1074.76 459.67)" fill="#ffc774"/>
    <path id="Path-49" data-name="Path" d="M13.39,26.78A13.39,13.39,0,1,0,0,13.39,13.387,13.387,0,0,0,13.39,26.78Z" transform="translate(1006.74 400.76)" fill="#ffc774"/>
    <path id="Path-50" data-name="Path" d="M128.5,0,0,101.663l65.25,82.47L193.75,82.47Z" transform="translate(1074.12 404.109)" fill="#ff5654"/>
    <path id="Path-51" data-name="Path" d="M0,90.17l85.8-8.58L113.97,0" transform="translate(1088.95 419.32)" fill="none" stroke="#fff" stroke-miterlimit="10" stroke-width="3"/>
    <path id="Path-52" data-name="Path" d="M12.38,0,0,53.09" transform="translate(1141.31 514.91)" fill="none" stroke="#fff" stroke-miterlimit="10" stroke-width="3"/>
    <path id="Path-53" data-name="Path" d="M0,.42,54.51.58" transform="translate(1193.82 482.74)" fill="none" stroke="#fff" stroke-miterlimit="10" stroke-width="3"/>
    <path id="Path-54" data-name="Path" d="M152.8,32.13H0A32.089,32.089,0,0,1,32.12,0h0l16,4.26Z" transform="translate(1074.77 427.54)" fill="#ffc774"/>
    <path id="Path-55" data-name="Path" d="M98.95,114.5,19.05,54.99,0,0" transform="translate(820.72 265.45)" fill="none" stroke="#fff" stroke-miterlimit="10" stroke-width="3"/>
    <path id="Path-56" data-name="Path" d="M51.59,110.75S31.26,98.89,26,83.39,0,0,0,0" transform="translate(737.28 278.39)" fill="none" stroke="#fff" stroke-miterlimit="10" stroke-width="3"/>
    <path id="Path-57" data-name="Path" d="M11.15,0,0,20.46,11.15,34.63" transform="translate(838.29 615.48)" fill="none" stroke="#fff" stroke-miterlimit="10" stroke-width="3"/>
    <path id="Path-58" data-name="Path" d="M102.648,7.062,384.469,184.054a150.4,150.4,0,1,1-159.978,254.73l-105.28-66.118a254.621,254.621,0,0,1-80.2-351.072A46.18,46.18,0,0,1,102.648,7.062Z" transform="translate(295.114 266.848)" fill="#f3ca3e"/>
    <g id="Clipped-3" data-name="Clipped" transform="translate(295 265)">
      <path id="Path-59" data-name="Path" d="M102.647,7.062,384.468,184.054a150.4,150.4,0,0,1,47.376,207.354h0A150.4,150.4,0,0,1,224.49,438.784L119.211,372.666a254.621,254.621,0,0,1-80.2-351.072h0A46.18,46.18,0,0,1,102.647,7.062Z" transform="translate(0.115 0.848)" fill="none"/>
      <g id="Clipped-4" data-name="Clipped" clip-path="url(#clip-path-2)">
        <g id="Group-2" data-name="Group" transform="translate(-163 -41)">
          <path id="Path-60" data-name="Path" d="M62.981,0,0,62.98" transform="translate(595.73 225.16)" fill="none" stroke="#ffa161" stroke-linecap="round" stroke-miterlimit="10" stroke-width="31"/>
          <path id="Path-61" data-name="Path" d="M0,0,55.63,55.64" transform="translate(673.07 302.49)" fill="none" stroke="#ffa161" stroke-linecap="round" stroke-miterlimit="10" stroke-width="31"/>
          <path id="Path-62" data-name="Path" d="M0,0,55.64,55.63" transform="translate(370.14 448.19)" fill="none" stroke="#ffa161" stroke-linecap="round" stroke-miterlimit="10" stroke-width="31"/>
          <path id="Path-63" data-name="Path" d="M0,0,55.63,55.64" transform="translate(523.53 302.49)" fill="none" stroke="#ffa161" stroke-linecap="round" stroke-miterlimit="10" stroke-width="31"/>
          <path id="Path-64" data-name="Path" d="M0,0,55.63,55.63" transform="translate(523.53 152.96)" fill="none" stroke="#ffa161" stroke-linecap="round" stroke-miterlimit="10" stroke-width="31"/>
          <path id="Path-65" data-name="Path" d="M62.98,62.98,0,0" transform="translate(369.21 299.93)" fill="none" stroke="#ffa161" stroke-linecap="round" stroke-miterlimit="10" stroke-width="31"/>
          <path id="Path-66" data-name="Path" d="M62.98,62.99,0,0" transform="translate(516.8 451.51)" fill="none" stroke="#ffa161" stroke-linecap="round" stroke-miterlimit="10" stroke-width="31"/>
          <path id="Path-67" data-name="Path" d="M55.64,0,0,55.64" transform="translate(299.22 377.26)" fill="none" stroke="#ffa161" stroke-linecap="round" stroke-miterlimit="10" stroke-width="31"/>
          <path id="Path-68" data-name="Path" d="M55.63,0,0,55.64" transform="translate(607.2 381.26)" fill="none" stroke="#ffa161" stroke-linecap="round" stroke-miterlimit="10" stroke-width="31"/>
          <path id="Path-69" data-name="Path" d="M55.63,0,0,55.64" transform="translate(449.97 381.26)" fill="none" stroke="#ffa161" stroke-linecap="round" stroke-miterlimit="10" stroke-width="31"/>
          <path id="Path-70" data-name="Path" d="M55.63,0,0,55.63" transform="translate(448.76 227.73)" fill="none" stroke="#ffa161" stroke-linecap="round" stroke-miterlimit="10" stroke-width="31"/>
          <path id="Path-71" data-name="Path" d="M62.98,0,0,62.99" transform="translate(296.51 72.2)" fill="none" stroke="#ffa161" stroke-linecap="round" stroke-miterlimit="10" stroke-width="31"/>
          <path id="Path-72" data-name="Path" d="M0,0,55.63,55.64" transform="translate(373.85 149.54)" fill="none" stroke="#ffa161" stroke-linecap="round" stroke-miterlimit="10" stroke-width="31"/>
          <path id="Path-73" data-name="Path" d="M0,0,55.64,55.64" transform="translate(70.92 295.23)" fill="none" stroke="#ffa161" stroke-linecap="round" stroke-miterlimit="10" stroke-width="31"/>
          <path id="Path-74" data-name="Path" d="M0,0,55.63,55.64" transform="translate(224.31 149.54)" fill="none" stroke="#ffa161" stroke-linecap="round" stroke-miterlimit="10" stroke-width="31"/>
          <path id="Path-75" data-name="Path" d="M0,0,55.63,55.64" transform="translate(224.31)" fill="none" stroke="#ffa161" stroke-linecap="round" stroke-miterlimit="10" stroke-width="31"/>
          <path id="Path-76" data-name="Path" d="M62.98,62.99,0,0" transform="translate(69.99 146.97)" fill="none" stroke="#ffa161" stroke-linecap="round" stroke-miterlimit="10" stroke-width="31"/>
          <path id="Path-77" data-name="Path" d="M62.98,62.98,0,0" transform="translate(217.58 298.56)" fill="none" stroke="#ffa161" stroke-linecap="round" stroke-miterlimit="10" stroke-width="31"/>
          <path id="Path-78" data-name="Path" d="M55.64,0,0,55.64" transform="translate(0 224.31)" fill="none" stroke="#ffa161" stroke-linecap="round" stroke-miterlimit="10" stroke-width="31"/>
          <path id="Path-79" data-name="Path" d="M55.63,0,0,55.64" transform="translate(307.98 228.31)" fill="none" stroke="#ffa161" stroke-linecap="round" stroke-miterlimit="10" stroke-width="31"/>
          <path id="Path-80" data-name="Path" d="M55.63,0,0,55.64" transform="translate(150.75 228.31)" fill="none" stroke="#ffa161" stroke-linecap="round" stroke-miterlimit="10" stroke-width="31"/>
          <path id="Path-81" data-name="Path" d="M55.63,0,0,55.64" transform="translate(149.54 74.77)" fill="none" stroke="#ffa161" stroke-linecap="round" stroke-miterlimit="10" stroke-width="31"/>
        </g>
      </g>
    </g>
    <path id="Path-82" data-name="Path" d="M0,0,209.27,131.66s23.49,16.6,34.3,33.47" transform="translate(472.96 320.34)" fill="none" stroke="#fff" stroke-miterlimit="10" stroke-width="3"/>
  </g>
</svg>
