<svg xmlns="http://www.w3.org/2000/svg" width="255.805" height="215.707" viewBox="0 0 255.805 215.707">
  <g id="Group_15" data-name="Group 15" transform="translate(-205.721 -155.855)">
    <path id="Path_4" data-name="Path 4" d="M399.272,159.119C380.7,152.1,358.3,156.65,343.929,170.347c-16.6,15.832-23.062,42.3-43.85,52.006-15.475,7.225-33.872,2.506-50.536,6.248-24.053,5.4-41.5,29.075-43.58,53.639-1.6,18.857,4.811,37.622,15.4,53.059,9.9,14.423,27.666,22.4,44.031,27.124,24.211,6.988,51.441,9.163,76.574,9.139,18.636-.018,37.378-1.429,55.608-5.437,15.1-3.319,30.926-7.3,43.322-17.025,5.8-4.555,12.369-11.335,14.736-18.512,2.955-8.964,1.883-20.316-.533-29.257-3.992-14.77-12.257-27.962-18.416-41.967-3.911-8.892-3.89-17.5-5.083-26.946-1.3-10.322-1.937-20.729-3.786-30.978-1.652-9.156-4.387-18.295-9.119-26.358C413.7,166.554,408.279,162.521,399.272,159.119Z" fill="#e1e2ff"/>
    <path id="Path_5" data-name="Path 5" d="M309.964,294.008a71.943,71.943,0,0,1,9.065,29.362,74.443,74.443,0,0,1-.375,15.791c-.379,2.986,1.374,8.843-3.419,8.945-2.167.046-4.118-1.208-6.177-1.886-4.608-1.515-9.588-.115-14.409.423a79.914,79.914,0,0,1-11.591.166,68.89,68.89,0,0,1-14.415-1.512c-4.7-1.175-9.255-3.448-12.345-7.174-2.153-2.594-3.537-6.107-2.649-9.359a10.905,10.905,0,0,1,2.784-4.54,18.911,18.911,0,0,1,6.512-4.427c3.638-1.48,8.365-2.406,9.5-6.165.946-3.134-1.319-6.208-2.983-9.027s-2.5-7.084.256-8.85c2.152-1.379,5.193-.226,7.438-1.449,3.034-1.653,2.559-6.07,1.787-9.438q-1.44-6.279-2.26-12.679c-.441-3.44-.231-7.829,2.959-9.19,3.3-1.407,6.716,1.767,8.513,4.871a35.729,35.729,0,0,1,3.907,9.919c.607,2.648.945,5.449,2.419,7.73,2.7,4.174,5.476,1.709,9.054,2.472C306.5,288.622,308.465,291.377,309.964,294.008Z" fill="#7970e5"/>
    <path id="Path_6" data-name="Path 6" d="M276.369,221.822c-8.537,1.025-17.195.6-25.738,1.57s-17.292,3.543-23.465,9.527" fill="none" stroke="#e1e2ff" stroke-miterlimit="10" stroke-width="1.121"/>
    <g id="Group_2" data-name="Group 2">
      <path id="Path_7" data-name="Path 7" d="M315.175,348.394c-.381-1.025-8.3-2.829-9.6-3.319q-4.754-1.791-9.406-3.841c-5.527-2.436-12.038-4.6-16.812-8.274a3.632,3.632,0,0,1-1.759-2.6,2.474,2.474,0,0,1,1.86-2.192,5.485,5.485,0,0,1,3.036.168,1.779,1.779,0,0,0,1.14.082,1.137,1.137,0,0,0,.475-1.476,3.011,3.011,0,0,0-1.175-1.229c-3.734-2.568-8.162-3.924-12.094-6.177-3.5-2.005-7.383-5.55-8.094-9.767-.688-4.08,3.417-6.827,3.742-10.888.249-3.121-1.647-5.943-3.147-8.691s-2.633-6.238-.967-8.887c2.024-3.219,7.087-3.011,10.1-.69s4.578,5.991,6.355,9.352c1.417,2.681,3.752,6.881,6.2,8.741a4.01,4.01,0,0,0,4.567.424,14.75,14.75,0,0,0,2.019-2.324c2.586-2.77,7.65-1.415,9.695,1.775s1.8,7.328.957,11.023a11.543,11.543,0,0,0-.495,4.846c.332,1.6,1.789,3.12,3.406,2.858,1.007-.164,1.847-.964,2.866-1.023a2.841,2.841,0,0,1,2.624,2.119,9.2,9.2,0,0,1,.13,3.6C309.982,331.462,311.935,339.666,315.175,348.394Z" fill="#5d5ae0"/>
      <path id="Path_8" data-name="Path 8" d="M267.137,284.518a109.338,109.338,0,0,0,12.393,26.341c.065.338.132.674.2,1.013a.389.389,0,0,0,.623.2c.3.443.591.888.895,1.328-4.563-3.244-9.127-6.212-12.909-10.5a.272.272,0,0,0-.414.352c4,4.658,8.664,9.457,14.46,11.819.009,0,.016,0,.025,0,6.235,8.726,13.941,17.457,22.975,23.277.387.249.94-.3.568-.633-4.148-3.766-8.217-7.461-12.074-11.359a53.759,53.759,0,0,0-5.207-23.211c-.092-.19-.43-.1-.364.119a131.289,131.289,0,0,1,4.767,22.257,102.672,102.672,0,0,1-9.78-11.466c-1.016-1.4-1.99-2.84-2.943-4.29-.49-6.425-2.985-12.764-6.151-18.267-.13-.227-.489-.064-.372.177a66.544,66.544,0,0,1,5.017,15.75,116.879,116.879,0,0,1-11.111-23.1C267.614,283.988,267.028,284.176,267.137,284.518Z" fill="#7970e5" opacity="0.382"/>
    </g>
    <path id="Path_9" data-name="Path 9" d="M370.408,281.113a25.959,25.959,0,0,0,4.9-5.345,19.233,19.233,0,0,0,2.952-7.867c.313-2.185.649-5.847-.554-7.817a14.512,14.512,0,0,0-2.058-2.344,8.631,8.631,0,0,1-2.5-4.407c-.292-1.783.282-3.576.7-5.332a22.5,22.5,0,0,0,.477-8.9,14.288,14.288,0,0,0-3.942-7.9c-1.074-1.044-2.331-1.876-3.5-2.813a28.16,28.16,0,0,1-7.9-10.535,36.346,36.346,0,0,1-2.151-6.338,7.838,7.838,0,0,0-.583-2.358,17.374,17.374,0,0,0-2.486-2.2,43.893,43.893,0,0,1-5.044-6.345c-2.827-4.045-5.559-8.179-8.491-12.149-1.479-2-1.274-3.614-4.041-4.058a26.252,26.252,0,0,0-11.525.41A35.016,35.016,0,0,0,308.142,195.4a29.046,29.046,0,0,0-6.22,12.374c-.97,4.337-1.822,8.881-2.387,13.3a7.045,7.045,0,0,1-2.929,3.83c-2.7,1.531-6.359.365-8.992,2.006-3.955,2.466-2.8,9.091-3.3,12.989-.26,2.033-.685,4.349-2.526,5.564-2.772,1.828-6.732.019-9.8.926-7.175,2.121-6.055,12.6-2.785,17.454a14.346,14.346,0,0,0,8.924,5.836c4.212,1.06,7.643,3.938,8.456,8.349.521,2.83.142,5.734.005,8.608-.2,4.109.465,7.354,3.181,10.475,5.838,6.711,15.2,9.723,24.074,9.132a20.374,20.374,0,0,0,9.789-2.848,32.774,32.774,0,0,0,5.43-4.928c2.886-2.97,6.069-5.829,9.964-7.235,3.959-1.429,8.255-1.25,12.282-2.379,2.144-.6,3.17-1.108,5.392-1.091a14.009,14.009,0,0,0,5.712-1.138,24.729,24.729,0,0,0,4.826-3.006C368.314,282.816,369.383,281.988,370.408,281.113Z" fill="#463360"/>
    <path id="Path_10" data-name="Path 10" d="M312.037,306.311c-8.319.1-16.829-2.937-22.266-9.193-2.714-3.128-3.375-6.368-3.184-10.483.134-2.87.515-5.774,0-8.611-.819-4.406-4.25-7.287-8.465-8.341a14.388,14.388,0,0,1-8.925-5.842c-3.263-4.843-4.384-15.326,2.792-17.456,3.061-.9,7.03.908,9.8-.92,1.839-1.222,2.265-3.531,2.523-5.561.5-3.9-.651-10.528,3.307-12.994,2.274-1.427,5.412-.964,7.952-1.513-.254,1.1-2.329,1.511-3.253,2.083a6.745,6.745,0,0,0-2.894,3.142,9.315,9.315,0,0,0-.488,2.774,31.991,31.991,0,0,0,.019,7.986c.4,2.147.766,5.059-.624,6.927-1.408,1.893-4.157,2.172-5.968,3.684-2.533,2.116-2.567,6.037-1.613,9.2a18.2,18.2,0,0,0,4.226,7.4c1.966,2.035,3.173,4.322,5.747,5.8,1.788,1.025,3.734,1.872,5.156,3.363a10.442,10.442,0,0,1,1.967,3.129,30.029,30.029,0,0,1,1.869,8.411,24.007,24.007,0,0,0,1.035,5.445,18.049,18.049,0,0,0,3.227,5.489A25.072,25.072,0,0,0,312.037,306.311Z" fill="#523d6b" opacity="0.342"/>
    <path id="Path_11" data-name="Path 11" d="M378.265,267.9a19.347,19.347,0,0,1-2.949,7.871,26.131,26.131,0,0,1-4.91,5.348c-1.021.874-2.1,1.693-3.173,2.5-.325.247-.65.482-.987.729a19.393,19.393,0,0,0,2.22-6.649c.314-2.186.65-5.853-.549-7.826a15.71,15.71,0,0,0-2.063-2.343,8.6,8.6,0,0,1-2.5-4.406c-.292-1.783.291-3.577.706-5.326a22.521,22.521,0,0,0,.482-8.9,14.443,14.443,0,0,0-3.947-7.9c-1.076-1.043-2.332-1.873-3.5-2.8A28.258,28.258,0,0,1,349.2,227.65a35.427,35.427,0,0,1-2.152-6.335,8.266,8.266,0,0,0-.583-2.366,18.158,18.158,0,0,0-2.489-2.2,43.8,43.8,0,0,1-5.046-6.346c-2.825-4.036-5.561-8.173-8.487-12.142-1.47-1.994-3.215-4.035-2.041-6.5a9.649,9.649,0,0,1,7.771-5.352c3.593-.291,4.31,2.35,6.08,4.844,2.2,3.094,4.305,6.247,6.476,9.358a43.135,43.135,0,0,0,5.046,6.346,16.672,16.672,0,0,1,2.477,2.2,7.467,7.467,0,0,1,.583,2.354,36.707,36.707,0,0,0,2.153,6.335,28.112,28.112,0,0,0,7.9,10.539c1.166.93,2.422,1.771,3.5,2.814a14.287,14.287,0,0,1,3.936,7.893,22.507,22.507,0,0,1-.471,8.9,13.647,13.647,0,0,0-.706,5.337,8.64,8.64,0,0,0,2.5,4.406,14.6,14.6,0,0,1,2.052,2.343C378.915,262.059,378.579,265.714,378.265,267.9Z" fill="#523d6b" opacity="0.342"/>
    <g id="Group_5" data-name="Group 5">
      <g id="Group_3" data-name="Group 3">
        <path id="Path_12" data-name="Path 12" d="M334.618,269.425c-6.223-1.278-8.286-9.7-8.9-14.957-.3-2.556-.639-5.112-.942-7.68-.426-3.6-.8-7.209-1.009-10.83-.247-4.261,1.446-12.468,7.523-11.223,6.009,1.233,8.611,9.72,8.913,14.956.18,3.218.494,6.413.864,9.609.347,2.96.728,5.931,1.076,8.9C342.657,262.5,340.515,270.636,334.618,269.425Z" fill="#fcd6b1"/>
      </g>
      <g id="Group_4" data-name="Group 4">
        <path id="Path_13" data-name="Path 13" d="M341.065,249.3c-.942.583-1.906,1.143-2.859,1.693a7.91,7.91,0,0,1-2.927,1.188,7.274,7.274,0,0,1-4.171-1.222,43.235,43.235,0,0,1-6.334-4.171c-.426-3.6-.8-7.209-1.009-10.83-.247-4.261,1.446-12.468,7.523-11.223,6.009,1.233,8.611,9.72,8.913,14.956C340.381,242.909,340.7,246.1,341.065,249.3Z" fill="#fcd6b1"/>
        <path id="Path_14" data-name="Path 14" d="M312.515,219.63c0,6.409,1.568,13.117,5.484,18.312a37.489,37.489,0,0,0,12.1,10,7.279,7.279,0,0,0,4.177,1.219,7.746,7.746,0,0,0,2.921-1.189c3.719-2.147,7.539-4.382,10.147-7.794,2.466-3.227,3.643-7.258,4.323-11.263,1.179-6.947,2.187-15.738-2.552-21.515-3.723-4.537-10.16-6.679-15.885-6.678C323.419,200.718,312.515,206.814,312.515,219.63Z" fill="#fcd6b1"/>
      </g>
    </g>
    <path id="Path_15" data-name="Path 15" d="M324.324,218.777a6.123,6.123,0,0,1,6.388.325" fill="none" stroke="#68411d" stroke-miterlimit="10" stroke-width="0.841"/>
    <path id="Path_16" data-name="Path 16" d="M318.443,225.966c.475,3.17-1.183,6.046-3.7,6.423s-4.949-1.885-5.424-5.055,1.183-6.046,3.7-6.424S317.968,222.8,318.443,225.966Z" fill="#fcd6b1"/>
    <path id="Path_17" data-name="Path 17" d="M338.258,212.81a31.622,31.622,0,0,1-3.4,3.289,26.46,26.46,0,0,1-8.993,5.11c-3.317,1.023-8.052,1.6-11.33.458-2.452-.854-1.789-3.274-2.279-5.539q-.329-1.518-.539-3.058a26.915,26.915,0,0,1-.2-6.187,13.841,13.841,0,0,1,.582-2.949c2.316-7.106,9.022-16.1,17.537-15.256,3.015.3,6.2,2.451,8.923,3.684,1.844.834,3.812,1.779,4.786,3.553a7.378,7.378,0,0,1,.707,3.845C343.863,204.627,341.527,209.125,338.258,212.81Z" fill="#523d6b" opacity="0.428"/>
    <path id="Path_18" data-name="Path 18" d="M336.495,212.687a31.521,31.521,0,0,1-3.4,3.289,26.475,26.475,0,0,1-8.994,5.111c-3.316,1.023-8.051,1.6-11.329.457-2.452-.854-1.789-3.274-2.279-5.539q-.328-1.518-.539-3.058a26.908,26.908,0,0,1-.2-6.186,13.836,13.836,0,0,1,.582-2.95c2.316-7.106,9.022-16.1,17.537-15.256,3.014.3,6.195,2.451,8.923,3.684,1.844.834,3.812,1.779,4.786,3.553a7.38,7.38,0,0,1,.707,3.845C342.1,204.505,339.765,209,336.495,212.687Z" fill="#463360"/>
    <path id="Path_19" data-name="Path 19" d="M339.641,207.093c3.859,2.7,8.135,5.05,10.61,9.023a13.569,13.569,0,0,1,1.993,8.2c-.224,2.781-1.31,5.472-1.23,8.261a10.4,10.4,0,0,0,7.928,9.452.589.589,0,0,0,.614-.921,8.749,8.749,0,0,1-1.733-6.188c.318-2.825,2.035-5.352,2.108-8.216.054-2.1-.965-3.751-2.041-5.407a12.442,12.442,0,0,1-1.526-8.129c.411-1.917,1.065-3.786,1.3-5.731.528-4.3-1.035-8.658-3.495-12.225a26.09,26.09,0,0,0-12.278-9.563c-2.544-.948-6.679-2.284-9.418-1.617-2.412.587-2.72,5.864-2.715,8.151a14.269,14.269,0,0,0,2.4,8.086,26.464,26.464,0,0,0,6.431,6.068C338.938,206.6,339.288,206.846,339.641,207.093Z" fill="#523d6b" opacity="0.428"/>
    <path id="Path_20" data-name="Path 20" d="M341.105,207.279c3.86,2.7,8.135,5.05,10.611,9.023a13.579,13.579,0,0,1,1.993,8.205c-.225,2.78-1.31,5.472-1.231,8.26a10.4,10.4,0,0,0,7.928,9.452.589.589,0,0,0,.614-.921,8.748,8.748,0,0,1-1.732-6.188c.317-2.825,2.034-5.352,2.107-8.215.054-2.105-.965-3.752-2.041-5.407a12.452,12.452,0,0,1-1.526-8.13c.412-1.917,1.065-3.785,1.3-5.731.529-4.3-1.034-8.658-3.495-12.225a25.881,25.881,0,0,0-25.226-10.891c-1.7.258-3.812.314-4.22,2.372-.318,1.6.912,3.351,1.566,4.717a40.2,40.2,0,0,0,12.3,14.927Q340.575,206.91,341.105,207.279Z" fill="#463360"/>
    <g id="Group_6" data-name="Group 6">
      <path id="Path_21" data-name="Path 21" d="M312.15,220.675a17.7,17.7,0,0,0,11.094-1.663,28.274,28.274,0,0,0,8.842-7.1" fill="none" stroke="#392a51" stroke-miterlimit="10" stroke-width="1.121"/>
      <path id="Path_22" data-name="Path 22" d="M312.682,220.646a28.877,28.877,0,0,0,15.789-10.769" fill="none" stroke="#392a51" stroke-miterlimit="10" stroke-width="1.121"/>
      <path id="Path_23" data-name="Path 23" d="M312.384,220.53a6.539,6.539,0,0,0,2.638-2.608q2.292-3.392,4.434-6.883" fill="none" stroke="#392a51" stroke-miterlimit="10" stroke-width="1.121"/>
    </g>
    <path id="Path_24" data-name="Path 24" d="M350.492,243.061c.734,3.466,3.663,6.068,6.8,7.722s6.6,2.617,9.712,4.3,6,4.36,6.627,7.846" fill="none" stroke="#392a51" stroke-miterlimit="10" stroke-width="1.121"/>
    <path id="Path_25" data-name="Path 25" d="M346.8,246.5a5.233,5.233,0,0,0,1.408,3.744,15.5,15.5,0,0,0,3.182,2.58" fill="none" stroke="#392a51" stroke-miterlimit="10" stroke-width="1.121"/>
    <path id="Path_26" data-name="Path 26" d="M305.982,227.266a8.566,8.566,0,0,1-6.226,5.139,16.835,16.835,0,0,0-3.68.7c-2.273,1-3.211,3.794-3.116,6.274s.95,4.878,1.143,7.353-.495,5.292-2.635,6.55c-1.988,1.17-4.735.7-6.491,2.2-1.883,1.6-1.624,4.629-.593,6.878s2.667,4.266,3.131,6.7" fill="none" stroke="#392a51" stroke-miterlimit="10" stroke-width="1.121"/>
    <path id="Path_27" data-name="Path 27" d="M359.938,273.132c1.663-2.129,3.389-4.312,5.741-5.641s5.514-1.6,7.638.066a9.945,9.945,0,0,1,2.494,3.507,124.1,124.1,0,0,1,5.627,12.972c1.927,5.241,4.127,11.289,9.379,13.188,3.942,1.424,8.582-.006,12.356,1.817,4.45,2.149,5.81,7.815,5.939,12.754s-.358,10.247,2.23,14.456c2.73,4.441,8.746,7.627,8.129,12.8-.421,3.538-3.953,5.837-7.332,6.963-13.736,4.579-28.69-1.944-43.118-.739-5.13.428-11.091,1.578-14.774-2.018-1.744-1.7-2.53-4.138-3.152-6.494a86.726,86.726,0,0,1,6.289-60.482" fill="#7970e5"/>
    <g id="Group_7" data-name="Group 7">
      <path id="Path_28" data-name="Path 28" d="M358.62,297.946c.334-3.766.684-7.6,2.11-11.1s4.119-6.687,7.743-7.763c3.343-.993,7.187-.147,10.217-1.873,2.72-1.548,3.987-4.7,5.415-7.489s3.676-5.687,6.8-5.8c3.8-.137,6.475,4.166,6.251,7.962S394.781,279.04,393,282.4c-2.313,4.367-3.737,9.987-1.669,14.665,1.544,3.494,5.733,7.57,3.8,11.7-.923,1.971-3.066,3.037-5.116,3.767s-4.254,1.327-5.813,2.846-2.1,4.356-.46,5.787c1.964,1.715,5.53.349,7.3,2.257a3.809,3.809,0,0,1,.86,2.746c-.16,4.468-4.693,7.312-8.677,9.341-5.253,2.676-14.144,5.275-18.064,9.626-5.827-14.205-7.281-31.9-7.777-47.111" fill="#5d5ae0"/>
      <path id="Path_29" data-name="Path 29" d="M390.934,269.671a109.367,109.367,0,0,0-14.808,25.064c-.243.244-.483.488-.728.732a.388.388,0,0,0,.183.628c-.2.495-.4.989-.6,1.488.116-5.6,0-11.041,1.421-16.58a.272.272,0,0,0-.523-.145c-1.6,5.926-2.946,12.484-1.639,18.6,0,.01.012.012.014.021-3.707,10.064-6.591,21.345-6.322,32.089.012.46.773.611.843.114.781-5.548,1.546-10.991,2.6-16.372a53.766,53.766,0,0,0,16.262-17.362c.106-.183-.163-.409-.3-.233a131.25,131.25,0,0,1-15.721,16.46,102.943,102.943,0,0,1,3.979-14.536c.59-1.63,1.229-3.242,1.892-4.846,5.037-4.019,8.874-9.648,11.643-15.361.115-.235-.222-.44-.355-.208a66.561,66.561,0,0,1-10.2,13.007,116.954,116.954,0,0,1,12.853-22.182C391.64,269.768,391.155,269.389,390.934,269.671Z" fill="#7970e5" opacity="0.382"/>
    </g>
    <g id="Group_8" data-name="Group 8">
      <path id="Path_30" data-name="Path 30" d="M372.815,343.505c2.69-25.355,16.1-49.021,35.087-66.04,3.277-2.937,6.817-5.749,10.994-7.132" fill="none" stroke="#3131a8" stroke-miterlimit="10" stroke-width="1.121"/>
      <path id="Path_31" data-name="Path 31" d="M409.62,275.275l7.792-2.647c2.193-.746,4.6-1.671,5.629-3.747a.784.784,0,0,0,.1-.579c-.093-.279-.432-.381-.724-.42a8.73,8.73,0,0,0-6.507,2.26,58.792,58.792,0,0,0-6.212,5.307" fill="#3131a8"/>
      <path id="Path_32" data-name="Path 32" d="M401.645,282.613a19.666,19.666,0,0,1,1.756-11.722c.257-.523.626-1.1,1.206-1.161.7-.076,1.232.66,1.391,1.35a6.919,6.919,0,0,1-.412,3.566,49.217,49.217,0,0,1-3.12,7.652" fill="#3131a8"/>
      <path id="Path_33" data-name="Path 33" d="M394.256,291.208a20.583,20.583,0,0,1,1.838-12.27c.269-.548.655-1.149,1.262-1.215.737-.08,1.291.69,1.457,1.412a7.259,7.259,0,0,1-.431,3.733,51.549,51.549,0,0,1-3.267,8.011" fill="#3131a8"/>
      <path id="Path_34" data-name="Path 34" d="M386.924,302.412a20.587,20.587,0,0,1-2.161-12.218,1.867,1.867,0,0,1,.81-1.554c.673-.31,1.443.244,1.83.876a7.25,7.25,0,0,1,.779,3.677,51.527,51.527,0,0,1-.549,8.633" fill="#3131a8"/>
      <path id="Path_35" data-name="Path 35" d="M406.818,278.647a17.5,17.5,0,0,0,10.434-1.492c.467-.226.98-.55,1.04-1.066.072-.625-.58-1.1-1.192-1.245a6.156,6.156,0,0,0-3.174.345,43.865,43.865,0,0,0-6.823,2.73" fill="#3131a8"/>
      <path id="Path_36" data-name="Path 36" d="M399.31,286.688a20.874,20.874,0,0,0,12.455-1.781c.558-.27,1.17-.657,1.241-1.272.086-.747-.691-1.313-1.422-1.486a7.347,7.347,0,0,0-3.789.412,52.2,52.2,0,0,0-8.145,3.258" fill="#3131a8"/>
      <path id="Path_37" data-name="Path 37" d="M391.811,296.354a20.876,20.876,0,0,0,12.456-1.781c.558-.27,1.17-.657,1.241-1.272.086-.747-.692-1.313-1.423-1.486a7.348,7.348,0,0,0-3.789.411,52.344,52.344,0,0,0-8.145,3.259" fill="#3131a8"/>
      <path id="Path_38" data-name="Path 38" d="M384.622,307.424a20.884,20.884,0,0,0,12.456-1.781c.558-.27,1.17-.657,1.241-1.272.086-.747-.691-1.313-1.423-1.486a7.344,7.344,0,0,0-3.788.411,52.357,52.357,0,0,0-8.146,3.259" fill="#3131a8"/>
    </g>
    <g id="Group_9" data-name="Group 9">
      <path id="Path_39" data-name="Path 39" d="M300.982,344.311a110.048,110.048,0,0,1-36.809-34.6c-2.44-3.662-4.718-7.567-5.491-11.9" fill="none" stroke="#3131a8" stroke-miterlimit="10" stroke-width="1.121"/>
      <path id="Path_40" data-name="Path 40" d="M262.25,307.7q-.753-4.045-1.508-8.09c-.425-2.277-1-4.792-2.9-6.106a.78.78,0,0,0-.558-.186c-.29.052-.439.373-.519.657a8.73,8.73,0,0,0,1.308,6.763,58.7,58.7,0,0,0,4.367,6.9" fill="#3131a8"/>
      <path id="Path_41" data-name="Path 41" d="M268.375,316.643a19.664,19.664,0,0,1-11.351-3.41c-.482-.33-1-.776-.977-1.36.025-.707.829-1.125,1.534-1.184a6.931,6.931,0,0,1,3.471.916,49.306,49.306,0,0,1,7.129,4.181" fill="#3131a8"/>
      <path id="Path_42" data-name="Path 42" d="M275.828,325.183a20.591,20.591,0,0,1-11.883-3.57c-.5-.345-1.043-.813-1.022-1.423.026-.741.867-1.178,1.606-1.24a7.253,7.253,0,0,1,3.633.959,51.642,51.642,0,0,1,7.463,4.377" fill="#3131a8"/>
      <path id="Path_43" data-name="Path 43" d="M285.871,334.039a20.587,20.587,0,0,1-12.4.395c-.587-.166-1.248-.438-1.422-1.023-.211-.711.448-1.394,1.128-1.686a7.238,7.238,0,0,1,3.75-.247,51.588,51.588,0,0,1,8.467,1.775" fill="#3131a8"/>
      <path id="Path_44" data-name="Path 44" d="M265.188,310.957a17.5,17.5,0,0,0,.012-10.54c-.157-.495-.4-1.049-.906-1.181-.609-.161-1.172.416-1.4,1a6.149,6.149,0,0,0-.111,3.19,43.715,43.715,0,0,0,1.728,7.143" fill="#3131a8"/>
      <path id="Path_45" data-name="Path 45" d="M272.075,319.536a20.875,20.875,0,0,0,.015-12.582c-.187-.591-.483-1.252-1.082-1.41-.727-.192-1.4.5-1.674,1.2a7.339,7.339,0,0,0-.133,3.809,52.276,52.276,0,0,0,2.063,8.527" fill="#3131a8"/>
      <path id="Path_46" data-name="Path 46" d="M280.572,328.337a20.875,20.875,0,0,0,.015-12.582c-.188-.591-.483-1.252-1.082-1.41-.727-.191-1.4.5-1.674,1.2a7.339,7.339,0,0,0-.133,3.809,52.374,52.374,0,0,0,2.062,8.527" fill="#3131a8"/>
      <path id="Path_47" data-name="Path 47" d="M290.5,337.032a20.875,20.875,0,0,0,.015-12.582c-.188-.591-.483-1.252-1.082-1.41-.727-.192-1.4.5-1.674,1.2a7.339,7.339,0,0,0-.133,3.809,52.374,52.374,0,0,0,2.062,8.527" fill="#3131a8"/>
    </g>
    <g id="Group_10" data-name="Group 10">
      <path id="Path_48" data-name="Path 48" d="M379.227,350.334a110.062,110.062,0,0,0,28.615-41.63c1.6-4.1,3-8.4,2.836-12.794" fill="none" stroke="#3131a8" stroke-miterlimit="10" stroke-width="1.121"/>
      <path id="Path_49" data-name="Path 49" d="M409.293,306.33l-.246-8.226c-.069-2.316-.044-4.894,1.541-6.584a.779.779,0,0,1,.506-.3c.294-.011.508.271.647.531a8.732,8.732,0,0,1,.159,6.887,58.573,58.573,0,0,1-2.8,7.675" fill="#3131a8"/>
      <path id="Path_50" data-name="Path 50" d="M405.208,316.367a19.66,19.66,0,0,0,10.367-5.745,1.781,1.781,0,0,0,.666-1.536c-.175-.686-1.049-.924-1.751-.831a6.925,6.925,0,0,0-3.2,1.633,49.268,49.268,0,0,0-6.077,5.6" fill="#3131a8"/>
      <path id="Path_51" data-name="Path 51" d="M399.74,326.3a20.589,20.589,0,0,0,10.853-6.014,1.865,1.865,0,0,0,.7-1.608c-.182-.718-1.1-.967-1.832-.87a7.247,7.247,0,0,0-3.347,1.71,51.538,51.538,0,0,0-6.361,5.862" fill="#3131a8"/>
      <path id="Path_52" data-name="Path 52" d="M391.81,337.084a20.582,20.582,0,0,0,12.2-2.249c.539-.288,1.127-.694,1.172-1.3.055-.739-.733-1.266-1.46-1.408a7.238,7.238,0,0,0-3.717.557,51.593,51.593,0,0,0-7.9,3.533" fill="#3131a8"/>
      <path id="Path_53" data-name="Path 53" d="M407.114,310.133a17.485,17.485,0,0,1-2.252-10.3,1.586,1.586,0,0,1,.635-1.347c.56-.286,1.233.158,1.583.681a6.162,6.162,0,0,1,.787,3.094,43.764,43.764,0,0,1-.171,7.347" fill="#3131a8"/>
      <path id="Path_54" data-name="Path 54" d="M402.207,319.981a20.878,20.878,0,0,1-2.688-12.292,1.894,1.894,0,0,1,.757-1.608c.67-.341,1.472.189,1.89.813a7.338,7.338,0,0,1,.94,3.693,52.332,52.332,0,0,1-.2,8.771" fill="#3131a8"/>
      <path id="Path_55" data-name="Path 55" d="M395.775,330.387a20.888,20.888,0,0,1-2.689-12.292,1.9,1.9,0,0,1,.758-1.608c.67-.341,1.472.188,1.89.813a7.349,7.349,0,0,1,.94,3.693,52.229,52.229,0,0,1-.2,8.771" fill="#3131a8"/>
      <path id="Path_56" data-name="Path 56" d="M387.919,340.993A20.879,20.879,0,0,1,385.23,328.7a1.9,1.9,0,0,1,.758-1.607c.67-.342,1.472.188,1.89.813a7.349,7.349,0,0,1,.94,3.693,52.225,52.225,0,0,1-.2,8.771" fill="#3131a8"/>
    </g>
    <path id="Path_57" data-name="Path 57" d="M310.217,236.861h-.457" fill="none" stroke="#392a51" stroke-miterlimit="10" stroke-width="1.121"/>
    <path id="Path_58" data-name="Path 58" d="M337.608,221.656a37.589,37.589,0,0,0,.106,4.909,9.317,9.317,0,0,0,.294,2.436c.2.5.95.706,1.451.857a5.138,5.138,0,0,1,.772.257,1.041,1.041,0,0,1,.554.57.968.968,0,0,1-.166.839,2.342,2.342,0,0,1-.662.582,8.931,8.931,0,0,1-1.68.859" fill="none" stroke="#e59e6e" stroke-linecap="round" stroke-linejoin="round" stroke-width="0.561"/>
    <g id="Group_11" data-name="Group 11">
      <path id="Path_59" data-name="Path 59" d="M341.552,236.44a5.893,5.893,0,0,1-1.311,3.139,6.379,6.379,0,0,1-7.882,1.794,8.419,8.419,0,0,1-1.693-1.2,7.044,7.044,0,0,1-2.467-4.462,20.267,20.267,0,0,0,4.2.863,17.121,17.121,0,0,0,4.417.1,9.243,9.243,0,0,0,4.653-2.108A7.032,7.032,0,0,1,341.552,236.44Z" fill="#523d6b"/>
      <path id="Path_60" data-name="Path 60" d="M340.241,239.579a6.379,6.379,0,0,1-7.882,1.794,8.419,8.419,0,0,1-1.693-1.2,6.517,6.517,0,0,1,5.079-2.22A6.691,6.691,0,0,1,340.241,239.579Z" fill="#f85c55"/>
    </g>
    <path id="Path_61" data-name="Path 61" d="M351.093,227.957c0,1.029-2.094,1.863-4.676,1.863s-4.676-.834-4.676-1.863,2.093-1.864,4.676-1.864S351.093,226.927,351.093,227.957Z" fill="#fcc2a2"/>
    <g id="Group_13" data-name="Group 13">
      <path id="Path_62" data-name="Path 62" d="M360.224,291.934a21.676,21.676,0,0,1-1.286-3.687,7.415,7.415,0,0,1-.135-3.63c.762-2.866,5.52-4.441,8.052-5.152,1.18-.332,2.795-.258,3.858-.807a99.885,99.885,0,0,0,5.012,13.773q1.514,3.34,3.309,6.543c1.174,2.086,2.623,3.778,3.968,5.738a28.127,28.127,0,0,1,4.524,12.775,32.834,32.834,0,0,1,.119,6.582c-.18,2.034-.7,3.218-2.464,1.473-.7-.689-1.558-1.144-2.256-1.829-2.286-2.247-4.072-4.975-6.413-7.2a47.232,47.232,0,0,1-5.233-5.189,29.488,29.488,0,0,1-2.142-3.385l-6.183-10.825A58.243,58.243,0,0,1,360.224,291.934Z" fill="#f9b485"/>
      <path id="Path_63" data-name="Path 63" d="M369.576,347.638a2.916,2.916,0,0,1-.247.157,5.933,5.933,0,0,1-2.545.594,239.6,239.6,0,0,1-29.072.617c-5.225-.213-10.438-.583-15.651-1.009-2.433-.2-5.651-.168-7.894-1.278-2.186-1.1-.47-4.07.012-6.144a100.561,100.561,0,0,0,2.769-16.1c.785-11.358-3.151-20.81-8.465-30.6-2.309-4.261-4.742-8.5-6.278-13.1a28.692,28.692,0,0,1-1.1-13.936c.706-4.126,5.886-4.821,9.272-5.931a97.665,97.665,0,0,0,11.068-4.624c.988-.466,4.24-2.114,4.24-2.114s1.462,1.927,2.024,2.5a12.637,12.637,0,0,0,6.228,3.448,8.384,8.384,0,0,0,4.227.179c2.654-.846,3.449-3.788,3.449-6.31,0,.3,4.294,3.14,4.7,3.476l6.346,5.236a16.266,16.266,0,0,1,5.841,7.725l1.749,3.834c.516,1.133,1.031,2.265,1.558,3.4,0,.023.012.034.012.045.156.325.3.651.448.976.2.437.4.874.605,1.323.113.258.225.5.337.762,2.421,5.516,4.025,10.988,2.04,17.019-.728,2.209-1.85,4.272-2.657,6.447a30.266,30.266,0,0,0-1.02,16.078,41.009,41.009,0,0,0,1.626,5.359q2.219,6.1,4.428,12.21C368.376,339.936,371.919,345.934,369.576,347.638Z" fill="#f7b228"/>
      <path id="Path_64" data-name="Path 64" d="M348.968,256.577c3.017.94,6.039,1.877,9.1,2.746a14.643,14.643,0,0,1,3.214,1.191c2.631,1.475,4.075,4.37,5.365,7.1q1.886,3.981,3.77,7.961a22.709,22.709,0,0,1,2.2,6.609c-2.48,1.079-5.024,1.9-7.433,3.18-2.459,1.309-4.613,3.354-7.062,4.578,1.527-1.18-9.38-21.3-10.335-23.183-1.878-3.7-4.563-3.646-5.673-7.888-.727-2.775.067-1.587-.467-4.886.034.212,1.117.577,1.3.653a14.693,14.693,0,0,0,1.415.513Q346.663,255.855,348.968,256.577Z" fill="#f7b228"/>
      <path id="Path_65" data-name="Path 65" d="M365.248,297.79c-.728,2.209-1.85,4.272-2.657,6.447a30.266,30.266,0,0,0-1.02,16.078c-7.86,2.332-16.3,2.971-24.543,3.408-3.2.157-6.525.281-9.451-1-3.745-1.637-6.2-5.281-8.084-8.914a62.546,62.546,0,0,1-6.9-25.832c-.067-1.457.056-2.96-.045-4.406-.1-1.345-.572-2.657-.056-4.014a2.246,2.246,0,0,1,2.6-1.5,3.192,3.192,0,0,1,1.256,1.009c5,5.942,7.041,14.7,13.9,18.993,7.165,4.473,16.482,3.733,24.464.986a12.029,12.029,0,0,0,5.135-2.892c2.108-2.276,2.377-5.685,2.3-8.79-.112-4.059-.617-9.43-1.973-13.2l.067.1a14.455,14.455,0,0,1,1.558,3.4c0,.023.012.034.012.045a11.384,11.384,0,0,0,.7,1.828c.123.157.235.314.358.471.113.258.225.5.337.762C365.629,286.287,367.233,291.759,365.248,297.79Z" fill="#f85c55" opacity="0.28"/>
      <path id="Path_66" data-name="Path 66" d="M386.894,326.454a.808.808,0,0,1-.09.1c-.449.482-1.245.437-1.839.628-.785.246-1.592.471-2.41.65a18.439,18.439,0,0,1-4.833.482c-4.036-.146-7.825-1.8-11.57-3.3q-2.488-.993-5.023-1.9-5.449-1.951-11.032-3.476c-1.85-.5-3.723-.964-5.595-1.4-2.691-.617-7.2-1.286-9.713-2.441s-3.046-2.873-4.178-5.4a4.541,4.541,0,0,1-.415-2.814c.224-.942-1.183-1.705-.219-1.773.549-.044-.005-.19.511,0,10.382,4.014,23.88,3.948,35.462,4.833,1.951.146,3.935.337,5.976.583.247.023.5.057.751.09,2.713.359,5.55-.986,8.129-.078,2.825,1,4.821,3.655,5.762,6.491a14.035,14.035,0,0,1,.527,4.485c0,.785-.022,1.57.023,2.354A2.893,2.893,0,0,1,386.894,326.454Z" fill="#f9b485"/>
      <path id="Path_67" data-name="Path 67" d="M373.018,313.151a6.9,6.9,0,0,1-1.256,1.009,49.028,49.028,0,0,0-4.843,4.686,48.117,48.117,0,0,0-4.642,6.1c-.022.034-.033.057-.056.09q-5.448-1.95-11.032-3.476c1.412-2.186,3.812-3.5,6.11-4.708a47.686,47.686,0,0,1,9.743-4.283,21.324,21.324,0,0,1,3.151-.617c.717-.079,2.321-.426,2.836.325A.688.688,0,0,1,373.018,313.151Z" fill="#ffcba1" opacity="0.492"/>
      <path id="Path_68" data-name="Path 68" d="M300.933,284.482c4.532,9.573,8.035,19.605,12.839,29.054a74.151,74.151,0,0,0,8.386,13.338c1.3,1.594,2.656,3.851,4.416,4.863,2.341,1.347,5.836.675,8.279.048a71.651,71.651,0,0,0,16.47-6.952c1.906-1.044,4-1.71,5.858-2.787,2.128-1.238,4.253-2.481,6.395-3.7q3.375-1.916,6.782-3.778c1.736-.949,3.961-2.891,5.951-3.078a1.553,1.553,0,0,0,.848-.216c.865-.685-.241-2.048-.829-2.456L375,307.9a9.444,9.444,0,0,0-2.061-1.189c-2.486-.923-4.424.336-6.77,1.032-5.265,1.562-10.9,2.254-16.3,3.314a102.2,102.2,0,0,1-17.161,1.887,2.716,2.716,0,0,1-1.69-.333,2.789,2.789,0,0,1-.862-1.626c-1.028-3.8-13.112-30.58-17.387-35a60.938,60.938,0,0,0-10.866,8.6" fill="#fcd6b1"/>
      <path id="Path_69" data-name="Path 69" d="M329.368,260.492c12.583,6.369,13.092.715,14.21-2.369" fill="none" stroke="#f7b228" stroke-miterlimit="10" stroke-width="0.561"/>
      <path id="Path_70" data-name="Path 70" d="M321.957,290.606a.643.643,0,0,0-.081-.458q-3.591-7.134-7.181-14.269a57.423,57.423,0,0,0-5.349-9.173c-1.394-1.829-3.28-3.749-5.73-3.044-2.468.709-4.184,3.211-4.79,5.836a22.168,22.168,0,0,0,.086,8.053c.433,3.064,1.927,19.773,5.006,20.16,1.01.126,3.365-1.752,4.324-2.215q2.278-1.1,4.633-2.012t4.769-1.622c.771-.227,1.558-.406,2.338-.6C320.529,291.124,321.807,291.163,321.957,290.606Z" fill="#f7b228"/>
      <g id="Group_12" data-name="Group 12">
        <path id="Path_71" data-name="Path 71" d="M324.547,254.679a93,93,0,0,0,18.607,44.442" fill="none" stroke="#333" stroke-miterlimit="10" stroke-width="0.841"/>
        <path id="Path_72" data-name="Path 72" d="M343.208,254.7a145.182,145.182,0,0,1,.058,46.158" fill="none" stroke="#333" stroke-miterlimit="10" stroke-width="0.841"/>
      </g>
      <rect id="Rectangle_3" data-name="Rectangle 3" width="18.218" height="12.245" rx="1.284" transform="translate(334.522 298.246) rotate(-5.027)" fill="#fff"/>
      <rect id="Rectangle_4" data-name="Rectangle 4" width="15.245" height="9.167" rx="1.284" transform="translate(336.137 299.649) rotate(-5.027)" fill="#eaeaea"/>
    </g>
    <path id="Path_73" data-name="Path 73" d="M313.244,224.886a2.424,2.424,0,0,0-.857,2.979,2.823,2.823,0,0,0,1.1,1.174" fill="none" stroke="#e59e6e" stroke-linecap="round" stroke-linejoin="round" stroke-width="0.561"/>
    <path id="Path_74" data-name="Path 74" d="M340.169,226.6a7.741,7.741,0,0,1,.671-3.275,2.961,2.961,0,0,1,1.572-1.705,2.32,2.32,0,0,1,2.321.672,4.822,4.822,0,0,1,1.122,2.255,10.866,10.866,0,0,1,.31,2.153" fill="none" stroke="#68411d" stroke-miterlimit="10" stroke-width="0.841"/>
    <path id="Path_75" data-name="Path 75" d="M324.424,227.292a7.741,7.741,0,0,1,.671-3.275,2.958,2.958,0,0,1,1.572-1.705,2.32,2.32,0,0,1,2.321.672,4.812,4.812,0,0,1,1.122,2.255,10.854,10.854,0,0,1,.31,2.153" fill="none" stroke="#68411d" stroke-miterlimit="10" stroke-width="0.841"/>
    <path id="Path_76" data-name="Path 76" d="M329.3,229.44c0,1.029-2.093,1.864-4.676,1.864s-4.676-.835-4.676-1.864,2.094-1.864,4.676-1.864S329.3,228.411,329.3,229.44Z" fill="#fcc2a2"/>
    <path id="Path_77" data-name="Path 77" d="M309.31,230.4a5.447,5.447,0,0,1-1.894,4.785,38.518,38.518,0,0,1-4.358,3.127c-6.258,4.514-2.707,10.655-3.662,16.879A12.828,12.828,0,0,1,294.338,263c-1.16.82-2.515,1.464-3.3,2.648a6.675,6.675,0,0,0-.819,3.858" fill="none" stroke="#392a51" stroke-miterlimit="10" stroke-width="1.121"/>
    <path id="Path_78" data-name="Path 78" d="M314.3,241.143a10.288,10.288,0,0,1-1.891,4.824c-1.114,1.531-2.684,2.812-3.222,4.627-.8,2.691.9,5.86-.518,8.284" fill="none" stroke="#392a51" stroke-miterlimit="10" stroke-width="1.121"/>
    <path id="Path_79" data-name="Path 79" d="M340.412,218.521a6.121,6.121,0,0,1,6.367.612" fill="none" stroke="#68411d" stroke-miterlimit="10" stroke-width="0.841"/>
    <path id="Path_80" data-name="Path 80" d="M322.041,298.29a.989.989,0,0,0-.483-.214.683.683,0,0,0-.629.716,1.815,1.815,0,0,0,.4.973,14.224,14.224,0,0,0,2.525,2.8,15.222,15.222,0,0,1-5.073-.628,2.44,2.44,0,0,0-1.018-.166.758.758,0,0,0-.693.656.989.989,0,0,0,.336.657,4.9,4.9,0,0,0,1.629,1.139,2.438,2.438,0,0,0-1.019-.157.831.831,0,0,0-.738.628c-.066.439.341.793.715,1.033a14.3,14.3,0,0,0,4.364,1.87,3.031,3.031,0,0,0-1.214-.087,1.03,1.03,0,0,0-.847.778c-.08.538.419.981.9,1.226a18.48,18.48,0,0,0,4.22,1.038,47.184,47.184,0,0,1,5.935,2.332.786.786,0,0,0,.744.016.67.67,0,0,0,.208-.36,2.276,2.276,0,0,0-.4-2.018,5.875,5.875,0,0,1-.59-.713,5.15,5.15,0,0,1-.255-1.942C330.424,302.926,325.574,300.859,322.041,298.29Z" fill="#f9b485"/>
    <path id="Path_81" data-name="Path 81" d="M408.8,203.731a22.939,22.939,0,0,0-11.3-7.077,36.326,36.326,0,0,0-5.579-1.106c-9.687-1.193-20.856,1.593-24.8,11.564a16.187,16.187,0,0,0-1.217,6.721c-.439.325-.869.839-1.24,1.17l-.79.7c-.136.122-.62.417-.576.652.064.284.51.312.727.388.421.147.839.3,1.258.452l1.485.535a11.569,11.569,0,0,0,4.394,5.215c6.328,4.224,14.494,4.762,22,3.547,4.86-.787,9.722-2.376,13.56-5.571a13.908,13.908,0,0,0,4.853-7.553A11.35,11.35,0,0,0,408.8,203.731Z" fill="#fff"/>
    <text id="Hello_" data-name="Hello!" transform="translate(376.97 218.022)" fill="#523d6b" font-size="16.81" font-family="Helvetica"><tspan x="0" y="0">Hello!</tspan></text>
    <path id="Path_82" data-name="Path 82" d="M435.234,213.549a132.016,132.016,0,0,0,12.993,54.245c4.709,9.778,10.7,19.176,12.748,29.833" fill="none" stroke="#e1e2ff" stroke-miterlimit="10" stroke-width="1.121"/>
    <path id="Path_83" data-name="Path 83" d="M370.752,186.068a4.254,4.254,0,1,1-4.254-4.253A4.255,4.255,0,0,1,370.752,186.068Z" fill="#fff"/>
    <path id="Path_84" data-name="Path 84" d="M263.766,267.5a4.253,4.253,0,1,1-4.254-4.254A4.253,4.253,0,0,1,263.766,267.5Z" fill="#f7b228"/>
    <circle id="Ellipse_4" data-name="Ellipse 4" cx="4.253" cy="4.253" r="4.253" transform="translate(233.57 292.786)" fill="#fff"/>
    <path id="Path_85" data-name="Path 85" d="M267.16,238.91a3.361,3.361,0,1,1-3.361-3.362A3.362,3.362,0,0,1,267.16,238.91Z" fill="#7970e5"/>
    <circle id="Ellipse_5" data-name="Ellipse 5" cx="4.253" cy="4.253" r="4.253" transform="translate(388.336 239.851)" fill="#7970e5"/>
    <path id="Path_86" data-name="Path 86" d="M427.594,317.316a4.253,4.253,0,1,1-4.254-4.254A4.254,4.254,0,0,1,427.594,317.316Z" fill="#fff"/>
    <path id="Path_87" data-name="Path 87" d="M384.069,236.224a2.1,2.1,0,1,1-2.1-2.1A2.1,2.1,0,0,1,384.069,236.224Z" fill="#fff"/>
    <path id="Path_88" data-name="Path 88" d="M248.862,316.764a2.1,2.1,0,1,1-2.1-2.1A2.1,2.1,0,0,1,248.862,316.764Z" fill="#f7b228"/>
    <path id="Path_89" data-name="Path 89" d="M423.988,296.923a2.1,2.1,0,1,1-2.1-2.105A2.1,2.1,0,0,1,423.988,296.923Z" fill="#fff"/>
    <path id="Path_90" data-name="Path 90" d="M386.359,256.638a2.1,2.1,0,1,1-2.1-2.1A2.1,2.1,0,0,1,386.359,256.638Z" fill="#f7b228"/>
    <path id="Path_91" data-name="Path 91" d="M447.294,310.113a2.1,2.1,0,1,1-2.1-2.1A2.1,2.1,0,0,1,447.294,310.113Z" fill="#7970e5"/>
    <path id="Path_92" data-name="Path 92" d="M241.758,256.411a2.1,2.1,0,1,1-2.1-2.1A2.1,2.1,0,0,1,241.758,256.411Z" fill="#fff"/>
    <circle id="Ellipse_6" data-name="Ellipse 6" cx="2.104" cy="2.104" r="2.104" transform="translate(413.174 287.453)" fill="#f7b228"/>
    <rect id="Rectangle_5" data-name="Rectangle 5" width="11.799" height="4.6" rx="1.024" transform="matrix(0.992, -0.124, 0.124, 0.992, 351.595, 281.605)" fill="#8c5c07"/>
    <g id="Group_14" data-name="Group 14">
      <path id="Path_93" data-name="Path 93" d="M401.959,350.413H284.238a2.991,2.991,0,0,1-2.992-2.992h0a2.991,2.991,0,0,1,2.992-2.992H401.959a2.991,2.991,0,0,1,2.992,2.992h0A2.991,2.991,0,0,1,401.959,350.413Z" fill="#8c5c07"/>
      <path id="Path_94" data-name="Path 94" d="M362.105,346.61c11.81.1,23.618.321,35.426.539" fill="none" stroke="#8c5c07" stroke-miterlimit="10" stroke-width="0.561"/>
      <path id="Path_95" data-name="Path 95" d="M289.883,348.806c11.81.1,23.618.321,35.426.539" fill="none" stroke="#8c5c07" stroke-miterlimit="10" stroke-width="0.561"/>
      <path id="Path_96" data-name="Path 96" d="M294.1,347.4c11.81.1,23.618.321,35.426.539" fill="none" stroke="#8c5c07" stroke-miterlimit="10" stroke-width="0.561"/>
      <path id="Path_97" data-name="Path 97" d="M336.3,347.847c11.81.1,23.618.321,35.426.539" fill="none" stroke="#8c5c07" stroke-miterlimit="10" stroke-width="0.561"/>
      <path id="Path_98" data-name="Path 98" d="M317.4,346.217c11.809.1,23.618.321,35.426.538" fill="none" stroke="#8c5c07" stroke-miterlimit="10" stroke-width="0.561"/>
    </g>
    <path id="Path_99" data-name="Path 99" d="M217.182,279.366a64.609,64.609,0,0,0,14.136,55.892" fill="none" stroke="#fff" stroke-miterlimit="10" stroke-width="1.121"/>
    <path id="Path_100" data-name="Path 100" d="M432.954,197.9a29.483,29.483,0,0,1,.849,7.467" fill="none" stroke="#e1e2ff" stroke-miterlimit="10" stroke-width="1.121"/>
    <path id="Path_104" data-name="Path 104" d="M301.521,188.2c-.731,1.357-1.891,2.184-1.864,3.724.035,1.986,1.969,4.148,4.046,3.135a4.112,4.112,0,0,0,1.593-1.527,4.964,4.964,0,0,0,.7-4.113c-.581-1.793-3.534-3.523-4.591-1.175" fill="#e1e2ff"/>
    <path id="Path_101" data-name="Path 101" d="M296.044,204.89a6.85,6.85,0,0,0-.516.789,10.585,10.585,0,0,0-.824,2.264c-1,3.574-2.25,6.25-6.209,7.119-2.68.588-6.024-.067-7.334-2.745a7.132,7.132,0,0,1-.153-5.144,16.094,16.094,0,0,1,5.53-7.917,25.2,25.2,0,0,1,8.74-4.317,3.09,3.09,0,0,1,1.111-.173,2.263,2.263,0,0,1,1.142.483,4.514,4.514,0,0,1,1.634,3.9,7.449,7.449,0,0,1-1.681,4C297.021,203.739,296.495,204.289,296.044,204.89Z" fill="#e1e2ff"/>
  </g>
</svg>
