<svg xmlns="http://www.w3.org/2000/svg" xmlns:xlink="http://www.w3.org/1999/xlink" width="333.875" height="209.368" viewBox="0 0 333.875 209.368">
  <defs>
    <linearGradient id="linear-gradient" x1="-0.248" y1="-0.475" x2="0.361" y2="0.319" gradientUnits="objectBoundingBox">
      <stop offset="0" stop-color="#b0daff"/>
      <stop offset="1" stop-color="#1484ef"/>
    </linearGradient>
    <linearGradient id="linear-gradient-2" x1="4.309" y1="1.838" x2="-0.651" y2="0.177" xlink:href="#linear-gradient"/>
    <linearGradient id="linear-gradient-3" x1="1.658" y1="1.54" x2="0.448" y2="0.453" xlink:href="#linear-gradient"/>
    <linearGradient id="linear-gradient-4" x1="0.483" y1="-0.846" x2="0.504" y2="0.654" xlink:href="#linear-gradient"/>
    <linearGradient id="linear-gradient-5" x1="1.844" y1="-0.919" x2="0.463" y2="0.652" xlink:href="#linear-gradient"/>
    <linearGradient id="linear-gradient-6" x1="1.001" y1="-0.518" x2="0.255" y2="1.256" gradientUnits="objectBoundingBox">
      <stop offset="0.005" stop-color="#1384ef"/>
      <stop offset="1" stop-color="#001376"/>
    </linearGradient>
    <linearGradient id="linear-gradient-7" x1="1.554" y1="-0.188" x2="0.533" y2="1.031" xlink:href="#linear-gradient-6"/>
    <linearGradient id="linear-gradient-8" x1="1.218" y1="-0.466" x2="0.368" y2="0.957" gradientUnits="objectBoundingBox">
      <stop offset="0" stop-color="#b0daff"/>
      <stop offset="1" stop-color="#0e81ee"/>
    </linearGradient>
    <linearGradient id="linear-gradient-9" x1="0.347" y1="-0.466" x2="-0.504" y2="0.957" xlink:href="#linear-gradient-8"/>
    <linearGradient id="linear-gradient-10" x1="1.066" y1="15.599" x2="0.76" y2="7.447" gradientUnits="objectBoundingBox">
      <stop offset="0" stop-color="#fff"/>
      <stop offset="1" stop-color="#acccef"/>
    </linearGradient>
    <linearGradient id="linear-gradient-11" x1="0" y1="0.5" x2="1" y2="0.5" xlink:href="#linear-gradient-10"/>
    <linearGradient id="linear-gradient-12" x1="0.195" y1="1.565" x2="0.889" y2="-0.86" xlink:href="#linear-gradient-10"/>
  </defs>
  <g id="_8" data-name="8" transform="translate(-325.87 -174.074)">
    <g id="Group_41" data-name="Group 41">
      <g id="Group_11" data-name="Group 11">
        <ellipse id="Ellipse_1" data-name="Ellipse 1" cx="7.225" cy="11.747" rx="7.225" ry="11.747" transform="translate(494.196 247.771)" fill="#ff2e2e"/>
        <path id="Path_5" data-name="Path 5" d="M524.438,286.98a8.774,8.774,0,0,1-4.756.4,27.111,27.111,0,0,1-11.827-3.773c-3.491-2.293-6.2-6.06-6.4-10.232-.134-2.832.862-5.575,1.515-8.334a35.187,35.187,0,0,0,.693-12.276" fill="#0b0042"/>
        <path id="Path_6" data-name="Path 6" d="M540.255,274.354a15.6,15.6,0,0,0,5.972,20,2.036,2.036,0,0,1,.988.95c.209.623-.262,1.255-.725,1.721a17.452,17.452,0,0,1-7.687,4.492c-4.331,1.2-8.934.672-13.376-.007-3.44-.525-7.184-1.318-9.348-4.044a15.8,15.8,0,0,0,3.263-17.175" fill="#ffc3c5"/>
        <path id="Path_7" data-name="Path 7" d="M541.038,270.668c-1.781,4.172-1.178,5.124-4.066,8.266-.626.682-2.612,3.077-3.537,3.952a24.345,24.345,0,0,1-4.134,2.563,14.13,14.13,0,0,1-4.342,1.519c-1.933.22-2.852.32-4.334-.709,0,0-.205-3.947-1.006-5.213" fill="#ff9798"/>
        <path id="Path_8" data-name="Path 8" d="M498.792,248.837c1.565,5.561-2.087,11.108-3.257,16.764-1.252,6.054.726,12.909,5.649,16.647a17.646,17.646,0,0,1-.548-12.5c.961-2.874,2.663-5.481,3.381-8.425.77-3.155.356-6.463-.062-9.684" fill="#0b0042"/>
        <path id="Path_9" data-name="Path 9" d="M519.64,223.1c8.594-5.932,23.871-2.936,30.638,4.616,5.231,5.84,7.531,13.693,11.719,20.322a34.614,34.614,0,0,1,4.526,10.807c1.348,6.941-.075,14.071-6.514,17.74,3.879-6.374,1.539-13.593-3.943-16.315" fill="#0b0042"/>
        <path id="Path_10" data-name="Path 10" d="M511.33,238.495c-2.978,2.156-6.131,6.3-6.73,9.93s1.994,7.037,2.57,10.406c.838,4.906-.253,9.162,1.857,13.67a25.148,25.148,0,0,0,5.3,7.13c1.883,1.593,3.3,3.324,5.72,3.781,1.906.359,3.173-.2,5.052-.675a35.857,35.857,0,0,0,14.471-7.981c4.234-4.193,5.68-6.061,7.065-11.857a38.161,38.161,0,0,0-.368-17.709" fill="#ffc7c9"/>
        <path id="Path_11" data-name="Path 11" d="M504.942,253.118a28.872,28.872,0,0,1,6.57-9.552,3.538,3.538,0,0,1,1.3-.9c1.813-.585,3.186,1.55,4.357,3.055,3.137,4.032,11.737,7.648,16.81,7.039a95.24,95.24,0,0,1,15.271-.767c-3.3-7.793-12.209-18.558-19.63-22.628-3-1.643-6.379-2.9-9.77-2.483-5.108.632-8.959,4.818-12.131,8.871-1.591,2.032-3.221,4.428-2.786,6.972" fill="#ff9798"/>
        <path id="Path_12" data-name="Path 12" d="M514.837,231.351c-.507,6.693-7.057,10.516-8.312,17.11a24.148,24.148,0,0,0-.05,6.638,29.049,29.049,0,0,0,2.92,8.311c-3.369-.529-7.535-4.523-8.829-7.678a23.728,23.728,0,0,1-.135-18.035c2.406-5.683,7.293-15.066,20.172-14.633" fill="#0b0042"/>
        <path id="Path_13" data-name="Path 13" d="M506.179,232.764c6.177,2.752,8.51,10.48,14.026,14.392a21.906,21.906,0,0,0,10.733,4.333,26.392,26.392,0,0,0,7.187-1.005c-2.411-2.265-5.985-5.261-6.024-8.568a25.491,25.491,0,0,0,16.892,10.056l-6.258-16.244a32.287,32.287,0,0,0-1.722-3.938,18.576,18.576,0,0,0-14.087-9.067,25.069,25.069,0,0,0-16.5,4.3c-2.166,1.432-4.241,3.283-5,5.766" fill="#0b0042"/>
        <path id="Path_14" data-name="Path 14" d="M551.08,236.113a33.285,33.285,0,0,0-2.623-4.119,19.923,19.923,0,0,0-6.119-5.386,17.712,17.712,0,0,0-12.058-1.832l7.931,17.9c.237.72.5,1.472.771,2.237l-3.044.9s5.1,3.553,5.1,14.2c0,8.34-2.47,11.848-3.24,16.265a11.3,11.3,0,0,0-.168,3.98v.029c.148,1.334.424,2.751.631,4.426a1.377,1.377,0,0,0,1.988,1.441,36.644,36.644,0,0,0,10.011-3.276c3.1-1.67,6.6-4.332,7.935-7.592a21.36,21.36,0,0,0,1.514-6.87C560.249,257.131,556.549,246.006,551.08,236.113Z" fill="#0b0042"/>
        <g id="Group_5" data-name="Group 5">
          <path id="Path_15" data-name="Path 15" d="M515.862,256.926a23.738,23.738,0,0,1-1.778,7.384.838.838,0,0,0,.039.678.651.651,0,0,0,.4.3,8.95,8.95,0,0,0,3.584.553,29.744,29.744,0,0,0-2.242-8.912" fill="#ff9798"/>
          <g id="Group_3" data-name="Group 3">
            <path id="Path_16" data-name="Path 16" d="M512.642,250.834a17.456,17.456,0,0,0-6.514.537,8.439,8.439,0,0,0-2.4,1.091,4.637,4.637,0,0,0-1.556,2.117c-.281.668.81.96,1.087.3a3.242,3.242,0,0,1,1.31-1.62,8.525,8.525,0,0,1,2.227-.9,17.334,17.334,0,0,1,5.845-.394c.722.067.718-1.06,0-1.128Z" fill="#0b0042"/>
          </g>
          <ellipse id="Ellipse_2" data-name="Ellipse 2" cx="1.161" cy="1.479" rx="1.161" ry="1.479" transform="translate(509.342 255.873)" fill="#0b0042"/>
          <ellipse id="Ellipse_3" data-name="Ellipse 3" cx="1.161" cy="1.479" rx="1.161" ry="1.479" transform="translate(525.689 254.416)" fill="#0b0042"/>
          <path id="Path_17" data-name="Path 17" d="M513.132,270.272l13.839-1.6s-3.289,5.677-7.113,6.208C514.682,275.6,513.132,270.272,513.132,270.272Z" fill="#fff"/>
          <circle id="Ellipse_4" data-name="Ellipse 4" cx="3.395" cy="3.395" r="3.395" transform="translate(528.278 260.249)" fill="#ff9798"/>
          <ellipse id="Ellipse_5" data-name="Ellipse 5" cx="2.005" cy="3.395" rx="2.005" ry="3.395" transform="translate(507.113 263.705) rotate(-9.67)" fill="#ff9798"/>
          <g id="Group_4" data-name="Group 4">
            <path id="Path_18" data-name="Path 18" d="M522.932,250.634a17.347,17.347,0,0,1,5.749-1.23,8.589,8.589,0,0,1,2.331.246,3.414,3.414,0,0,1,1.831,1.314c.454.566,1.248-.237.8-.8a4.43,4.43,0,0,0-2.052-1.523,8.651,8.651,0,0,0-2.638-.37,17.666,17.666,0,0,0-6.317,1.273c-.669.261-.378,1.351.3,1.087Z" fill="#0b0042"/>
          </g>
        </g>
        <g id="Group_10" data-name="Group 10">
          <g id="Group_7" data-name="Group 7">
            <ellipse id="Ellipse_6" data-name="Ellipse 6" cx="9.112" cy="11.747" rx="9.112" ry="11.747" transform="translate(535.91 247.771)" fill="#ff2e2e"/>
            <g id="Group_6" data-name="Group 6">
              <path id="Path_19" data-name="Path 19" d="M546.066,248.8a36.517,36.517,0,0,0-2.038-7.54c-1.8-4.829-4.5-9.563-8.6-12.807a18.853,18.853,0,0,0-7.964-3.771,22.928,22.928,0,0,0-10.367.356A19.428,19.428,0,0,0,504.778,235.7a38.3,38.3,0,0,0-3.252,12.146c-.034.288-.067.575-.1.863a1,1,0,0,0,1,.995,1.018,1.018,0,0,0,1-.995c.034-.288.067-.575.1-.863.018-.152.037-.3.056-.457.011-.086.023-.173.034-.259.037-.288-.022.151.019-.144.119-.841.252-1.679.414-2.512a34.776,34.776,0,0,1,1.788-6.251c1.8-4.523,5.083-8.72,9.834-10.6a19.119,19.119,0,0,1,17.327,1.5c4.076,2.718,6.924,7.231,8.7,11.588a42.438,42.438,0,0,1,1.817,5.55c.247.974.4,1.962.624,2.94.01.045.014.092.021.137a1,1,0,0,0,1.224.7,1.021,1.021,0,0,0,.7-1.224Z" fill="#ff2e2e"/>
            </g>
            <ellipse id="Ellipse_7" data-name="Ellipse 7" cx="7.288" cy="9.395" rx="7.288" ry="9.395" transform="translate(538.761 249.436)" fill="#e80c0c"/>
          </g>
          <g id="Group_9" data-name="Group 9">
            <g id="Group_8" data-name="Group 8">
              <path id="Path_20" data-name="Path 20" d="M544.245,265.144a56.993,56.993,0,0,1-12.19,8.147,58.5,58.5,0,0,1-7,3.056c-.677.244-.385,1.334.3,1.087a63.588,63.588,0,0,0,18.536-10.517c.39-.317.779-.638,1.151-.976.538-.488-.261-1.284-.8-.8Z" fill="#0b0042"/>
            </g>
            <ellipse id="Ellipse_8" data-name="Ellipse 8" cx="2.569" cy="1.514" rx="2.569" ry="1.514" transform="translate(521.341 276.927) rotate(-20.024)" fill="#0b0042"/>
          </g>
        </g>
      </g>
      <g id="Group_12" data-name="Group 12">
        <path id="Path_21" data-name="Path 21" d="M658.144,380.092H340.893c-4.284,0-8.578-.082-12.861,0h-.562a1.658,1.658,0,0,0,0,3.314H644.721c4.285,0,8.578.082,12.861,0h.562a1.658,1.658,0,0,0,0-3.314Z" fill="#0b0042"/>
      </g>
      <g id="Group_13" data-name="Group 13">
        <circle id="Ellipse_9" data-name="Ellipse 9" cx="22.227" cy="22.227" r="22.227" transform="translate(601.803 213.187)" opacity="0.17" fill="url(#linear-gradient)"/>
        <path id="Path_22" data-name="Path 22" d="M623.287,249.384a9.565,9.565,0,0,0,6.124-4.482,8.586,8.586,0,0,0,.562-1.163c1.414-2.722,1.3-7.239,1.193-8.747a17.236,17.236,0,0,0-2.262-8.781,5.212,5.212,0,0,0-.746-1.2,9.754,9.754,0,0,0-6.912-3.644c-1.261-.15-2.483.521-2.423,1.322l.583,7.849c.058.789,1.339,1.267,2.55.946a14.489,14.489,0,0,0,3.59-1.433,15.4,15.4,0,0,1,.974,5.237v.056a22.87,22.87,0,0,1-.187,4.84,14.566,14.566,0,0,0-3.759-.914c-1.261-.151-2.483.52-2.423,1.321l.583,7.85C620.795,249.227,622.075,249.706,623.287,249.384Z" fill="url(#linear-gradient-2)"/>
      </g>
      <g id="Group_14" data-name="Group 14">
        <circle id="Ellipse_10" data-name="Ellipse 10" cx="16.046" cy="16.046" r="16.046" transform="translate(510.978 174.074)" opacity="0.26" fill="url(#linear-gradient-3)"/>
        <path id="Path_23" data-name="Path 23" d="M533.428,187.23a6.411,6.411,0,1,0-12.807,0A6.989,6.989,0,0,0,521,189.5h0l.032.072a6.84,6.84,0,0,0,.47,1.041l5.75,9.117,5.57-9.641h-.007a6.96,6.96,0,0,0,.613-2.859Zm-6.215,2.89a3.078,3.078,0,1,1,3.078-3.078A3.078,3.078,0,0,1,527.213,190.12Z" fill="url(#linear-gradient-4)"/>
      </g>
      <g id="Group_16" data-name="Group 16">
        <path id="Path_24" data-name="Path 24" d="M455.927,229.54a16.968,16.968,0,1,0-7.153,5.239h-.007l8.448,3.2-1.279-8.446Z" opacity="0.43" fill="url(#linear-gradient-5)"/>
        <g id="Group_15" data-name="Group 15">
          <circle id="Ellipse_11" data-name="Ellipse 11" cx="1.385" cy="1.385" r="1.385" transform="translate(434.862 218.238)" fill="#fff"/>
          <circle id="Ellipse_12" data-name="Ellipse 12" cx="1.385" cy="1.385" r="1.385" transform="translate(440.945 218.238)" fill="#fff"/>
          <circle id="Ellipse_13" data-name="Ellipse 13" cx="1.385" cy="1.385" r="1.385" transform="translate(447.027 218.238)" fill="#fff"/>
        </g>
      </g>
      <circle id="Ellipse_14" data-name="Ellipse 14" cx="1.652" cy="1.652" r="1.652" transform="translate(466.387 292.277)" fill="#238df0" opacity="0.67"/>
      <circle id="Ellipse_15" data-name="Ellipse 15" cx="1.856" cy="1.856" r="1.856" transform="translate(457.514 278.541)" fill="#238df0" opacity="0.67"/>
      <g id="Group_37" data-name="Group 37">
        <g id="Group_33" data-name="Group 33">
          <g id="Group_17" data-name="Group 17">
            <path id="Path_25" data-name="Path 25" d="M593.289,380.092c3.944-7.707,9.4-14.968,16.984-19.134,7.145-3.921,15.576-4.8,23.019-8.117a37.757,37.757,0,0,0,9.452-6.048c-1.084,6.942-2.218,14.035-5.53,20.232-2.446,4.578-6.053,8.608-7.486,13.6" fill="url(#linear-gradient-6)"/>
            <path id="Path_26" data-name="Path 26" d="M641.113,349.654a59.877,59.877,0,0,1-10.194,12.4c-3.674,3.393-7.7,6.369-11.484,9.619a66.636,66.636,0,0,0-1.1-10.315c-.1-.518-.885-.3-.789.218a65.241,65.241,0,0,1,1.082,10.479.36.36,0,0,0,.1.223c-.356.312-.724.609-1.074.927a30.3,30.3,0,0,0-6.02,7.209.41.41,0,0,0,.708.413c2.923-5.079,7.667-8.623,12.16-12.224,1.065-.854,2.127-1.718,3.176-2.6a.364.364,0,0,0,.206.043q3.9-.759,7.85-1.166c.519-.053.524-.873,0-.819-2.341.24-4.669.588-6.984,1.009a68.92,68.92,0,0,0,7.723-7.586,62.62,62.62,0,0,0,5.341-7.42C642.1,349.619,641.392,349.207,641.113,349.654Z" fill="#fff" opacity="0.33"/>
          </g>
          <g id="Group_18" data-name="Group 18">
            <path id="Path_27" data-name="Path 27" d="M515.192,335.464c-.807-8.619-3.179-17.383-8.684-24.065-5.182-6.29-12.689-10.226-18.371-16.07a37.734,37.734,0,0,1-6.537-9.121c-1.566,6.85-3.142,13.858-2.362,20.841.576,5.159,2.432,10.239,1.914,15.4" fill="url(#linear-gradient-7)"/>
            <path id="Path_28" data-name="Path 28" d="M482.054,289.47a59.887,59.887,0,0,0,4.873,15.3c2.154,4.513,4.786,8.767,7.1,13.19a66.684,66.684,0,0,1,4.84-9.174c.281-.445.933.051.653.5a65.217,65.217,0,0,0-4.889,9.331.354.354,0,0,1-.177.17c.215.421.446.834.654,1.26a30.317,30.317,0,0,1,2.919,8.926.41.41,0,0,1-.81.121c-.833-5.8-3.926-10.851-6.764-15.86-.673-1.188-1.339-2.384-1.988-3.591a.364.364,0,0,1-.206-.037q-3.339-2.149-6.859-3.992c-.462-.241-.164-1,.3-.76,2.085,1.09,4.118,2.276,6.111,3.525a69.038,69.038,0,0,1-4.36-9.908,62.8,62.8,0,0,1-2.212-8.871.413.413,0,0,1,.815-.13Z" fill="#fff" opacity="0.33"/>
          </g>
          <g id="Group_25" data-name="Group 25">
            <path id="Path_29" data-name="Path 29" d="M557.138,380.519a65.214,65.214,0,0,1,18.014-37.258c7.19-7.325,16.049-12.868,23.111-20.316a60.72,60.72,0,0,0,15.665-31.231,77.757,77.757,0,0,1,1.585,62.307c-3.761,9.075-9.283,17.485-11.62,27.026" fill="url(#linear-gradient-8)"/>
            <g id="Group_24" data-name="Group 24" opacity="0.31">
              <g id="Group_19" data-name="Group 19">
                <path id="Path_30" data-name="Path 30" d="M591.2,332.746c-.567,6.513.076,13.093.442,19.6.029.524.848.527.819,0-.366-6.509-1.01-13.089-.442-19.6C592.064,332.221,591.245,332.224,591.2,332.746Z" fill="#fff"/>
              </g>
              <g id="Group_20" data-name="Group 20">
                <path id="Path_31" data-name="Path 31" d="M599.507,342.048l15.266-6.57c.482-.207.066-.913-.414-.707l-15.265,6.57C598.611,341.548,599.028,342.254,599.507,342.048Z" fill="#fff"/>
              </g>
              <g id="Group_21" data-name="Group 21">
                <path id="Path_32" data-name="Path 32" d="M583.963,364.611l15.265-6.57c.483-.207.066-.913-.413-.707l-15.266,6.57C583.067,364.111,583.483,364.817,583.963,364.611Z" fill="#fff"/>
              </g>
              <g id="Group_22" data-name="Group 22">
                <path id="Path_33" data-name="Path 33" d="M574.6,350.475a98.86,98.86,0,0,0,4.6,19.69c.171.495.962.283.79-.218a97.784,97.784,0,0,1-4.572-19.472c-.067-.516-.886-.522-.819,0Z" fill="#fff"/>
              </g>
              <g id="Group_23" data-name="Group 23">
                <path id="Path_34" data-name="Path 34" d="M574.692,381.184c4.082-11.773,12.677-21.081,19.616-31.191a143.417,143.417,0,0,0,9.778-17.379,148.16,148.16,0,0,0,7.766-17.458,53.863,53.863,0,0,0,3.123-20.833c-.03-.524-.849-.527-.818,0a52.152,52.152,0,0,1-2.549,18.98,126.6,126.6,0,0,1-7.573,17.581,155.5,155.5,0,0,1-9.671,17.57c-3.383,5.052-7.168,9.815-10.7,14.764-3.935,5.518-7.534,11.314-9.765,17.748-.172.5.618.714.79.218Z" fill="#fff"/>
              </g>
            </g>
          </g>
          <g id="Group_32" data-name="Group 32">
            <path id="Path_35" data-name="Path 35" d="M514.7,380.519a65.222,65.222,0,0,0-18.015-37.258c-7.19-7.325-16.049-12.868-23.111-20.316a60.718,60.718,0,0,1-15.664-31.231,77.749,77.749,0,0,0-1.585,62.307c3.761,9.075,9.283,17.485,11.619,27.026" fill="url(#linear-gradient-9)"/>
            <g id="Group_31" data-name="Group 31" opacity="0.31">
              <g id="Group_26" data-name="Group 26">
                <path id="Path_36" data-name="Path 36" d="M480.644,332.746c.567,6.513-.077,13.093-.443,19.6-.029.524-.848.527-.818,0,.366-6.509,1.009-13.089.442-19.6C479.779,332.221,480.6,332.224,480.644,332.746Z" fill="#fff"/>
              </g>
              <g id="Group_27" data-name="Group 27">
                <path id="Path_37" data-name="Path 37" d="M472.331,342.048l-15.265-6.57c-.483-.207-.066-.913.413-.707l15.265,6.57C473.227,341.548,472.811,342.254,472.331,342.048Z" fill="#fff"/>
              </g>
              <g id="Group_28" data-name="Group 28">
                <path id="Path_38" data-name="Path 38" d="M487.876,364.611l-15.266-6.57c-.483-.207-.066-.913.413-.707l15.266,6.57C488.772,364.111,488.355,364.817,487.876,364.611Z" fill="#fff"/>
              </g>
              <g id="Group_29" data-name="Group 29">
                <path id="Path_39" data-name="Path 39" d="M497.238,350.475a98.94,98.94,0,0,1-4.6,19.69c-.171.495-.962.283-.789-.218a97.929,97.929,0,0,0,4.572-19.472c.066-.516.886-.522.819,0Z" fill="#fff"/>
              </g>
              <g id="Group_30" data-name="Group 30">
                <path id="Path_40" data-name="Path 40" d="M497.146,381.184c-4.081-11.773-12.677-21.081-19.616-31.191a143.565,143.565,0,0,1-9.778-17.379,148.322,148.322,0,0,1-7.766-17.458,53.884,53.884,0,0,1-3.123-20.833c.031-.524.85-.527.819,0a52.108,52.108,0,0,0,2.549,18.98,126.373,126.373,0,0,0,7.573,17.581,155.334,155.334,0,0,0,9.67,17.57c3.383,5.052,7.169,9.815,10.7,14.764,3.935,5.518,7.534,11.314,9.765,17.748.173.5-.618.714-.79.218Z" fill="#fff"/>
              </g>
            </g>
          </g>
        </g>
        <g id="Group_34" data-name="Group 34">
          <circle id="Ellipse_16" data-name="Ellipse 16" cx="0.762" cy="0.762" r="0.762" transform="translate(442.315 291.628)" fill="#238df0" opacity="0.45"/>
          <circle id="Ellipse_17" data-name="Ellipse 17" cx="1.652" cy="1.652" r="1.652" transform="translate(466.387 292.327)" fill="#238df0" opacity="0.45"/>
          <circle id="Ellipse_18" data-name="Ellipse 18" cx="1.856" cy="1.856" r="1.856" transform="translate(457.514 278.592)" fill="#238df0" opacity="0.25"/>
        </g>
        <g id="Group_35" data-name="Group 35">
          <circle id="Ellipse_19" data-name="Ellipse 19" cx="0.762" cy="0.762" r="0.762" transform="translate(641.123 376.377)" fill="#238df0" opacity="0.48"/>
          <circle id="Ellipse_20" data-name="Ellipse 20" cx="1.652" cy="1.652" r="1.652" transform="translate(645.189 362.055)" fill="#238df0" opacity="0.48"/>
          <circle id="Ellipse_21" data-name="Ellipse 21" cx="1.652" cy="1.652" r="1.652" transform="translate(633.469 340.433)" fill="#238df0" opacity="0.48"/>
        </g>
        <g id="Group_36" data-name="Group 36">
          <circle id="Ellipse_22" data-name="Ellipse 22" cx="0.762" cy="0.762" r="0.762" transform="translate(585.075 308.322)" fill="#238df0" opacity="0.48"/>
          <circle id="Ellipse_23" data-name="Ellipse 23" cx="1.652" cy="1.652" r="1.652" transform="translate(602.604 290.508)" fill="#238df0" opacity="0.48"/>
          <circle id="Ellipse_24" data-name="Ellipse 24" cx="1.856" cy="1.856" r="1.856" transform="translate(586.632 287.201)" fill="#238df0" opacity="0.48"/>
        </g>
      </g>
      <path id="Path_41" data-name="Path 41" d="M427.739,325.45s-23.361-46.638,9.5-89.72" fill="none" stroke="#707070" stroke-miterlimit="10" stroke-width="0.5" opacity="0.4"/>
      <path id="Path_42" data-name="Path 42" d="M459.884,212.106s19.285-17.2,51.515-18.339" fill="none" stroke="#707070" stroke-miterlimit="10" stroke-width="0.5" opacity="0.4"/>
      <path id="Path_43" data-name="Path 43" d="M544.7,191.948s36.682-1.828,64.748,25.476" fill="none" stroke="#707070" stroke-miterlimit="10" stroke-width="0.5" opacity="0.4"/>
      <path id="Path_44" data-name="Path 44" d="M638.757,254.354s27.984,51.851-20.2,90.736" fill="none" stroke="#707070" stroke-miterlimit="10" stroke-width="0.5" opacity="0.4"/>
      <g id="Group_38" data-name="Group 38">
        <path id="Path_45" data-name="Path 45" d="M541.588,289.991C537,293.767,532.483,295.3,526,294.9a9.71,9.71,0,0,1-6.586-2.507,16.53,16.53,0,0,0-5.2,8.468c-1.849,9.744-1.957,19.647-2.061,29.507l-.495,47.143a.579.579,0,0,0,.1.408.9.9,0,0,0,.53.212A99.422,99.422,0,0,0,534.73,379.4c3.381-.192,6.891-.542,10.071.42-.458-4.227.855-8.429,2.019-12.563,2.556-9.073,4.449-18.349,4.075-27.657-.126-3.112-.5-6.215-.626-9.328-.207-5.241.312-10.485.241-15.729a70.543,70.543,0,0,0-1.739-14.616c-.88-3.89-4.242-6.8-7.191-9.935" fill="#fff"/>
        <path id="Path_46" data-name="Path 46" d="M519.418,292.39c-.224,6.815-.923,12.937-.99,20.755-.031,3.6-.213,6.357-.2,9.958.005,2.475-.181,4.947-.367,7.417l-3.523,46.788a1.251,1.251,0,0,1-.261.808,2.053,2.053,0,0,1-1.539.352l-17.61-.647,1.448-12.613a69.367,69.367,0,0,0,.673-12.843c-.3-4.27-1.4-8.49-1.5-12.766a54.9,54.9,0,0,1,.692-8.467l1.6-11.956c.954-7.125,2.122-14.684,7.637-20.242a42.765,42.765,0,0,1,5.214-4.234c2.38-1.735,5.568-1.984,8.725-2.31" fill="#f49595"/>
        <path id="Path_47" data-name="Path 47" d="M514.592,293.3c-2.85,0-5.534,1.624-8.9,2.8-3.626,1.269-5.952,3.631-8.58,6.135-2.313,2.2-7.578,9.39-9.651,11.822-5.9,6.919-11.607,14.935-16.9,22.324-4.077,5.689-7.078,6.837-12.588,11.152-3.827,3-8.308,5.015-12.619,7.261A124.724,124.724,0,0,0,428.1,365.662a2.442,2.442,0,0,0-1.227,2.935l.85,6.074a1.821,1.821,0,0,0,.354,1.007,1.791,1.791,0,0,0,1.174.433,70.779,70.779,0,0,0,11.465.11,66.535,66.535,0,0,0,11.439-1.382,78.467,78.467,0,0,0,10.874-3.664c5.336-2.093,10.71-4.2,15.547-7.281,9.147-5.816,15.849-14.73,21.829-23.771a37.121,37.121,0,0,0,3.034-5.222,39.27,39.27,0,0,0,2.124-6.912q1.643-6.833,3.246-13.675" fill="#f49595"/>
        <path id="Path_48" data-name="Path 48" d="M541.588,289.991a274.043,274.043,0,0,1-.55,27.812c-2.03,23.548-2.326,37.419-6.978,60.593a1.507,1.507,0,0,0,.283,1.551,2.4,2.4,0,0,0,1.467.339l20.1.335a2.45,2.45,0,0,0,1.18-.176,1.663,1.663,0,0,0,.7-.961c2.685-7.039,3.113-14.515,3.348-21.893q.467-14.676.022-29.357c-.284-9.42-.823-19.031,2.348-28.081.466-1.33,1.513-2.578.561-3.716a8.281,8.281,0,0,0-2.613-1.558c-5.369-2.226-14.078-3.562-19.866-4.888" fill="#f49595"/>
        <path id="Path_49" data-name="Path 49" d="M518.986,292.791s.882.137,1.75,2.669a65.094,65.094,0,0,1,1.788,25.521c-1.713,11.171-2.135,26.116-1.142,29.691.787,2.834,3.766,11.073,20.953-.2S543.6,362.39,543.6,362.39l-30.659,7.894s-6.3-25.322-5.77-26.216" fill="#f49595" opacity="0.18"/>
        <path id="Path_50" data-name="Path 50" d="M537.27,357.276s6.137-2.38,11.946-9.878,5.035-12.763,5.035-16.934-.7-27.209,7.249-26.514,1.39,39.324,1.39,39.324L552.563,355.19l-11.525,4.965" fill="#e88585"/>
        <path id="Path_51" data-name="Path 51" d="M563.529,296.1a41.561,41.561,0,0,0-5.8,14.354c-1.526,7.269-.926,10.364-.993,18.73-.037,4.733.8,9.565-.794,15.543-1.231,4.631-4.912,6.829-9.238,8.861s-8.948,3.338-13.444,4.955c-10.718,3.853-20.9,6.655-30.966,11.989-3.1,1.644.309,5.534.269,6.152a2.29,2.29,0,0,0,.429,1.25c1.874,3.216,2.182,2.552,3.944,3.707.635.415,2.613-.515,3.277-.15.636.35,2.4-.067,3.128-.1a67.579,67.579,0,0,0,8.242-.5c13.367-2.34,24.906,1.54,37.411-3.746,3.414-1.443,6.852-3.037,9.547-5.588,3.818-3.615,5.755-8.772,7.168-13.844,5.327-19.126,4.535-40.745-6.056-57.52a8.946,8.946,0,0,0-6.121-4.1" fill="#f49595"/>
        <path id="Path_52" data-name="Path 52" d="M501.01,372.052s-9.319-1.619-13.192-.8-9.272,2.057-9.161,5.125l22.353.021" fill="#ffc7c9"/>
        <path id="Path_53" data-name="Path 53" d="M495.669,371.277s1.993-15.549.76-25.371c0,0,2.867-19.558,4.676-17.641s2.278,9.9,1.356,16.191-2.693,22.264-1.828,27.847" fill="#e88585"/>
      </g>
      <g id="Group_40" data-name="Group 40">
        <rect id="Rectangle_6" data-name="Rectangle 6" width="163.391" height="4.267" rx="1.625" transform="translate(367.916 376.377)" fill="url(#linear-gradient-10)"/>
        <g id="Group_39" data-name="Group 39">
          <path id="Path_54" data-name="Path 54" d="M468.022,380.644H370.484a2.583,2.583,0,0,1-2.568-2.312l-6.8-64.643a2.583,2.583,0,0,1,2.569-2.853h98.444a2.582,2.582,0,0,1,2.572,2.349l5.9,64.642a2.583,2.583,0,0,1-2.579,2.817Z" fill="url(#linear-gradient-11)"/>
          <path id="Path_55" data-name="Path 55" d="M464.844,380.644H367.307a2.584,2.584,0,0,1-2.569-2.311l-6.8-64.644a2.582,2.582,0,0,1,2.568-2.853H458.95a2.584,2.584,0,0,1,2.573,2.348l5.9,64.643a2.583,2.583,0,0,1-2.579,2.817Z" fill="url(#linear-gradient-12)"/>
          <circle id="Ellipse_25" data-name="Ellipse 25" cx="5.404" cy="5.404" r="5.404" transform="translate(403.445 341.192)" fill="#fff" opacity="0.48"/>
        </g>
      </g>
    </g>
  </g>
</svg>
