<svg width="1395" height="980" viewBox="0 0 1395 980" fill="none" xmlns="http://www.w3.org/2000/svg">
<g clip-path="url(#clip0)">
<path d="M166.173 762.8H87.0714C84.6714 762.8 82.5714 760.8 82.5714 758.4V757.9C82.5714 755.5 84.6714 753.5 87.2714 753.5H160.571C204.971 753.5 249.371 753.5 293.671 753.5H361.671C364.071 753.5 366.171 755.5 366.171 757.9V758.4C366.171 760.8 364.171 762.8 361.671 762.8H265.17L291.771 811.6C310.671 846.4 329.571 881.1 348.571 915.9L379.871 973.3C380.971 975.3 380.071 977.9 377.971 979.1L377.571 979.3C375.471 980.4 372.771 979.8 371.771 977.9L254.671 762.8H176.671L59.5714 977.9C58.5714 979.8 55.8714 980.5 53.7714 979.3L53.3714 979.1C51.2714 977.9 50.3714 975.3 51.4714 973.3L82.7714 915.9C101.671 881.1 120.571 846.4 139.571 811.6L166.173 762.8ZM82.8714 723.612V665.469C82.8714 621.124 82.8714 576.882 82.8714 532.639V479.8C82.8714 471.516 89.5872 464.8 97.8714 464.8H261.071C269.356 464.8 276.071 471.516 276.071 479.8V723.784C276.071 732.068 269.356 738.784 261.071 738.784C261.066 738.784 261.061 738.784 261.056 738.784L97.8557 738.612C89.5776 738.604 82.8714 731.89 82.8714 723.612Z" fill="#D8DEED"/>
</g>
<path d="M126.5 976H229.1C231.5 976 233.6 974.269 233.6 972.192V970.808C233.6 968.731 231.6 967 229.1 967H126.6C124.2 967 122.1 968.731 122.1 970.808V972.192C121.9 974.269 124 976 126.5 976ZM302.475 966.908L203.149 892.908C201.149 891.408 198.249 891.808 196.749 893.808C195.249 895.808 195.649 898.708 197.649 900.208L298.049 975.008C300.049 976.508 302.949 976.108 304.449 974.108C305.949 972.108 305.549 969.208 303.549 967.708L302.475 966.908H301.049C298.549 966.908 296.449 968.962 296.449 971.408C296.549 973.951 298.549 975.908 301.049 975.908H356.549C359.049 975.908 361.149 973.853 361.149 971.408C361.149 968.962 359.049 966.908 356.549 966.908H302.475Z" fill="#FFCB3D"/>
<path d="M215.05 913.236L149.6 904.37L126.373 967.002C126.42 967.001 126.466 967 126.513 967H229.013C229.21 967 229.403 967.011 229.592 967.031L221.874 918.32L215.05 913.236ZM203.035 892.887C203.044 892.894 203.053 892.901 203.062 892.908L302.389 966.908H356.462C357.018 966.908 357.554 967.009 358.052 967.194C358.255 966.464 358.416 965.689 358.449 965C358.349 964.3 358.349 963.5 358.149 962.7C357.649 960.9 356.849 959.2 355.949 957.7C353.049 953.1 347.849 949.9 347.849 949.9C341.849 946 336.349 943.4 329.849 940.6C326.449 939.1 321.649 937.1 316.049 934.9C314.249 929.1 312.449 923.3 310.649 917.4C307.249 906.1 303.849 894.9 300.549 883.7L240.349 840L203.035 892.887Z" fill="#474961"/>
<path d="M243.116 782.22L243.428 781.121C244.144 779.218 244.074 779.148 243.219 780.913C243.727 774.351 244.187 767.2 244.6 759.395L245.909 737.551L268.927 728.82C260.251 746.68 251.595 764.801 243.049 783.058C243.072 782.78 243.094 782.5 243.116 782.22V782.22ZM127.706 743.854C127.816 796.823 129.52 868.965 130.1 893.481C130.2 896.833 129.8 905.904 135.8 911.622C137.5 913.298 139.2 913.988 142.4 915.467C144.9 916.65 156.1 920.2 178.5 922.172C179.9 922.27 181.4 922.369 182.9 922.27C205.882 921.387 211.641 919.821 220.464 917.087L197.808 900.208C195.808 898.708 195.408 895.808 196.908 893.808C198.386 891.836 201.226 891.419 203.222 892.845L220.589 868.231C227.431 872.07 238.796 875.196 256.176 881.183C289.701 892.76 303.135 900.264 312.891 892.843C316.155 890.471 317.679 887.63 318.274 886.273C333.239 850.981 391.356 751.673 421.44 677.957C421.48 677.768 421.598 677.694 421.638 677.505C431.29 653.743 419.518 631.798 387.59 615.755C374.819 610.788 364.541 608.288 356.134 607.687L356.152 607.658C233.455 598.331 165.412 595.045 152.021 597.799C131.936 601.931 116.946 611.268 107.211 630.548C97.4766 649.827 93.9281 671.25 99.8853 701.053C105.388 728.581 121.154 741.906 127.706 743.854Z" fill="#474BFF"/>
<path d="M219.602 868.528C215.142 865.474 211.81 861.974 210.924 858.504C209.628 853.67 210.514 849.129 212.517 844.653C223.471 820.171 231.058 803.935 235.293 795.915C235.68 795.182 236.588 794.902 237.32 795.289C238.053 795.675 238.333 796.583 237.946 797.315C233.751 805.259 226.183 821.456 215.255 845.878C213.508 849.783 212.743 853.704 213.826 857.745C214.485 860.325 217.394 863.38 221.297 866.053C221.981 866.521 222.155 867.454 221.687 868.138C221.219 868.821 220.285 868.996 219.602 868.528Z" fill="#482D1F"/>
<path opacity="0.176986" d="M127.411 744.125C127.407 742.413 127.405 740.72 127.405 739.051C127.405 718.543 127.305 700.895 127.105 689.557C126.905 680.585 125.405 631.289 144.805 621.035C146.505 620.148 148.205 619.458 151.605 618.176C154.305 617.19 168.305 612.063 186.305 612.852C198.005 613.345 215.605 614.134 230.105 626.458C250.105 643.514 249.605 670.43 249.405 674.768L245.602 738.22L268.51 729.532C284.617 696.372 300.799 664.107 316.492 633.522C324.177 618.581 333.318 606.336 356.366 608.185L356.411 608.113C233.714 598.786 165.67 595.499 152.28 598.254C132.194 602.385 117.205 611.723 107.47 631.003C97.7354 650.282 94.1868 671.704 100.144 701.508C105.497 728.288 120.564 741.627 127.411 744.125Z" fill="#444444"/>
<path d="M150.023 503.364C143.98 502.961 138.443 502.403 133.413 501.688C127.813 501.688 119.113 500.688 114.913 494.688C108.813 486.088 115.813 472.188 123.613 456.588C133.013 437.888 139.375 430.725 149.613 421.088C167.042 404.681 179.323 402.592 189.23 410.18C189.362 410.281 189.492 410.392 189.62 410.513C194.043 409.319 198.705 408.71 203.513 408.776L225.513 409.154C253.413 409.438 276.613 432.032 276.213 459.352V461.053L275.613 513.709L275.513 563.196C274.446 569.278 273.879 572.572 273.813 573.076C273.713 573.927 273.713 574.683 273.613 575.534C273.413 577.803 273.113 579.882 272.513 581.962C272.313 582.813 266.397 586.5 266.097 587.351C183.75 593.678 142.177 595.959 141.377 594.194C139.754 590.445 142.637 560.168 150.023 503.364Z" fill="#FFCB3D"/>
<path d="M207.045 406.37C208.734 404.233 210.269 402.232 211.649 400.366C216.731 402.461 222.295 404.607 228.341 406.806C228.934 407.022 229.58 407.045 230.187 406.873C231.78 406.42 232.705 404.76 232.252 403.167L231.084 399.058C226.84 396.334 224.695 394.641 223.639 393.838C223.369 393.598 218.334 390.574 218.064 390.334L218.056 374.459C218.01 373.344 208.637 359.742 210.932 354.927C213.595 350.365 221.542 342.738 226.246 343.802C228.003 344.251 237.417 348.325 237.752 346.66L242.268 321.002C242.504 319.322 243.96 318.318 245.646 318.555C249.314 319.07 252.912 319.374 256.692 319.1C257.188 319.169 257.598 319.126 257.995 319.182C261.62 319.289 280.925 320.793 289.252 336.369C289.95 337.877 290.648 339.386 291.148 340.867C292.433 344.674 292.671 348.737 291.79 352.844L288.172 370.67C287.783 372.192 287.393 373.713 286.864 375.28C289.723 374.725 291.912 374.511 293.431 374.639C300.424 375.23 301.468 378.823 296.565 385.416L275.218 410.22C308.998 489.72 325.376 540.595 324.354 562.844L373.719 565.327C390.472 569.519 414.247 574.833 414.247 574.833C413.639 589.228 395.95 587.241 387.304 585.308L363.082 590.952L344.916 595.021C341.393 597.645 335.113 605.212 316.617 605.212C293.775 605.212 234.494 602.785 138.772 597.931C120.369 595.667 110.351 591.62 108.718 585.79C106.268 577.045 97.0571 572.01 116.313 517.752C118.53 511.51 120.741 505.645 122.89 500.188C126.619 501.5 130.7 501.81 133.819 501.81C148.89 503.953 168.509 504.69 192.677 504.023C189.818 511.19 187.717 517.077 186.434 519.41C183.158 526.396 181.537 530.026 181.57 530.299L274.514 552.832L274.919 514.776L275.019 513.831L275.619 461.176V459.474C275.908 439.681 264.336 422.369 247.327 414.224C252.305 415.365 257.124 415.667 261.783 415.13C269.823 414.204 275.9 406.085 280.014 390.772L279.925 390.788C281.166 388.548 282.367 386.152 283.512 383.613C275.758 400.779 265.391 411.453 257.855 410.836C253.478 410.321 249.184 409.214 245.101 407.331C244.583 406.975 244.947 407.272 238.421 403.505L236.252 409.85C243.145 411.974 246.428 414.222 246.027 413.975C243.962 416.677 242.673 418.283 240.39 420.012C226.885 430.492 208.945 428.145 194.638 423.417C193.181 416.238 191.379 411.825 189.231 410.18C188.514 409.632 187.788 409.134 187.05 408.69C194.391 407.269 201.058 406.57 207.045 406.37Z" fill="#ED9474"/>
<path opacity="0.2" d="M247.089 414.224C252.067 415.365 256.885 415.667 261.544 415.13C269.584 414.204 275.661 406.085 279.775 390.772L279.687 390.788C282.116 386.403 284.394 381.415 286.391 375.941C286.471 375.72 286.548 375.5 286.622 375.281C289.483 374.725 291.673 374.511 293.192 374.639C300.185 375.23 301.23 378.823 296.326 385.416L274.98 410.22C308.938 490.141 325.311 541.133 324.098 563.196L320.87 563.033C312.779 561.518 305.079 560.335 304.627 560.473L274.273 553.114L274.68 514.776L274.78 513.831L275.38 461.176V459.474C275.67 439.681 264.097 422.369 247.089 414.224Z" fill="#8C2A00"/>
<path d="M238.554 403.251C245.024 406.985 244.664 406.69 245.179 407.045C249.263 408.928 253.556 410.035 257.933 410.55C264.38 411.078 272.897 403.344 280.079 390.353L280.393 390.297C275.938 406.42 269.69 414.945 261.65 415.871C253.61 416.798 245.052 414.736 235.974 409.686L238.554 403.251ZM238.71 367.119L238.787 367.076L236.171 354.792C235.514 352.276 234.095 350.158 232.338 348.295C230.892 347.082 229.306 346.153 227.552 345.704C222.854 344.64 217.19 347.58 214.527 352.154C211.964 356.742 212.09 362.314 215.027 366.564C216.857 369.346 219.591 371.447 222.776 372.5L223.965 372.644L232.713 403.422C233.166 405.016 232.241 406.675 230.647 407.128C230.048 407.298 229.411 407.278 228.824 407.069C189.849 393.244 170.874 381.086 171.899 370.596C172.804 361.322 181.669 347.431 198.492 328.922C199.871 326.271 201.694 323.685 204.105 321.404C206.561 319.023 209.612 317.432 212.791 316.364C221.27 313.516 227.032 316.346 242.734 318.149C245.903 318.594 250.613 318.852 256.638 319.093C257.133 319.163 257.543 319.119 257.94 319.175C261.56 319.28 279.951 319.779 289.233 336.499C289.092 336.782 282.399 334.831 277.789 335.294C257.91 337.348 247.589 369.827 238.971 367.202C238.888 367.18 238.801 367.153 238.71 367.119ZM275.341 362.92C273.291 363.136 270.053 363.186 267.377 362.103C262.862 360.459 267.609 358.299 271.895 358.699C273.89 358.878 275.363 359.893 276.242 360.825C276.837 361.615 276.359 362.861 275.341 362.92ZM292.231 364.89C290.154 365.304 286.972 365.665 284.156 364.865C279.401 363.49 284.006 360.906 288.235 360.995C290.455 361.004 291.843 361.906 292.835 362.753C293.642 363.472 293.263 364.732 292.231 364.89Z" fill="#482D1F"/>
<path d="M266.797 374.14C265.973 372.812 266.759 370.095 267.293 368.453C267.573 367.18 268.872 366.555 269.962 366.708C270.641 366.904 271.477 367.426 271.48 368.84C271.714 372.205 267.806 376.301 266.797 374.14ZM283.15 376.337C282.525 375.037 283.113 372.292 283.646 370.651C283.926 369.377 285.226 368.752 286.315 368.905C286.994 369.102 287.83 369.623 287.833 371.037C288.067 374.403 284.06 378.485 283.15 376.337Z" fill="#482D1F"/>
<path d="M283.204 368.705C283.353 368.173 283.044 367.621 282.512 367.471C281.98 367.321 281.428 367.631 281.278 368.163L279.665 373.894L279.639 374.016L278.066 384.497C278.012 384.61 277.907 384.674 277.775 384.668C275.946 384.218 274.027 384.414 272.223 385.134C271.71 385.338 271.46 385.92 271.665 386.433C271.869 386.946 272.451 387.196 272.964 386.991C274.418 386.412 275.935 386.262 277.351 386.624L277.46 386.645C278.616 386.808 279.657 386.116 279.993 385.047L280.028 384.895L281.607 374.375L283.204 368.705Z" fill="#482D1F"/>
<path d="M270.843 393.491C270.163 393.295 268.437 392.648 268.194 391.503C268.221 391.305 268.065 390.98 268.192 390.796C268.559 390.343 271.629 390.774 271.629 390.774C275.675 391.444 276.693 391.385 276.92 391.922C276.978 392.233 276.922 392.629 276.103 393.423C274.976 394.981 271.904 393.842 270.843 393.491Z" fill="#482D1F"/>
<path d="M179.208 529.693C179.885 529.216 180.821 529.378 181.298 530.056C181.775 530.733 181.612 531.669 180.935 532.146L164.374 543.806C163.697 544.283 162.761 544.121 162.284 543.443C161.807 542.766 161.97 541.83 162.647 541.353L179.208 529.693ZM195.399 482.287C195.123 481.506 195.533 480.649 196.314 480.373C197.095 480.097 197.952 480.507 198.228 481.288C198.298 481.487 198.415 481.842 198.563 482.331C198.808 483.137 199.052 484.032 199.28 484.993C199.902 487.618 200.289 490.241 200.325 492.717C200.435 500.382 197.124 505.288 189.493 505.187C188.665 505.176 188.002 504.496 188.013 503.668C188.024 502.839 188.705 502.177 189.533 502.188C195.166 502.262 197.414 498.932 197.325 492.76C197.293 490.53 196.936 488.114 196.361 485.685C196.148 484.787 195.92 483.951 195.693 483.202C195.558 482.758 195.455 482.445 195.399 482.287Z" fill="#482D1F"/>
<path d="M1134.7 755.613V755.8C1134.7 758.2 1132.6 760.2 1130.2 760.2H1054.7L1081.3 809C1100.3 843.8 1119.2 878.5 1138.1 913.3L1169.4 970.7C1170.5 972.7 1169.6 975.3 1167.5 976.5L1167.1 976.7C1165 977.9 1162.3 977.2 1161.3 975.3L1044.2 760.2H966.2L849.1 975.3C848.1 977.2 845.4 977.8 843.3 976.7L842.9 976.5C840.8 975.3 839.9 972.7 841 970.7L872.3 913.3C891.3 878.5 910.2 843.8 929.1 809L955.701 760.2H855.6C853.1 760.2 851.1 758.2 851.1 755.8V755.3C851.1 752.9 853.2 750.9 855.6 750.9H923.6C967.9 750.9 1012.3 750.9 1056.7 750.9H1125.87L1134.3 682.7C1140.1 636.3 1145.8 589.8 1151.6 543.3L1161.1 466.5C1161.4 463.8 1163.7 461.8 1166.2 462.1L1166.7 462.2C1169.1 462.5 1170.8 465 1170.5 467.5L1134.8 755.1C1134.77 755.275 1134.74 755.446 1134.7 755.613Z" fill="#D8DEED"/>
<path d="M1134.7 755.613V755.8C1134.7 758.2 1132.6 760.2 1130.2 760.2H1054.7L1081.3 809C1100.3 843.8 1119.2 878.5 1138.1 913.3L1169.4 970.7C1170.5 972.7 1169.6 975.3 1167.5 976.5L1167.1 976.7C1165 977.9 1162.3 977.2 1161.3 975.3L1044.2 760.2H966.199L849.099 975.3C848.099 977.2 845.399 977.8 843.299 976.7L842.899 976.5C840.799 975.3 839.899 972.7 840.999 970.7L872.299 913.3C891.299 878.5 910.199 843.8 929.099 809L955.701 760.2H855.599C853.099 760.2 851.099 758.2 851.099 755.8V755.3C851.099 752.9 853.199 750.9 855.599 750.9H923.599C967.899 750.9 1012.3 750.9 1056.7 750.9H1125.87L1134.3 682.7C1140.1 636.3 1145.8 589.8 1151.6 543.3L1161.1 466.5C1161.4 463.8 1163.7 461.8 1166.2 462.1L1166.7 462.2C1169.1 462.5 1170.8 465 1170.5 467.5L1134.8 755.1C1134.77 755.275 1134.74 755.446 1134.7 755.613Z" fill="#D8DEED"/>
<path d="M566.491 0H194.509C192.019 0 190 2.01644 190 4.50386V287.496C190 289.984 192.019 292 194.509 292H566.491C568.981 292 571 289.984 571 287.496V4.50386C571 2.01644 568.981 0 566.491 0Z" fill="#F2F6FB"/>
<path d="M353.071 120.103H407.929V141.874C407.929 143.531 406.586 144.874 404.921 144.874H356.079C354.417 144.874 353.071 143.525 353.071 141.874V120.103Z" fill="#E1E5F0"/>
<path d="M265.148 229.697H320.006V251.468C320.006 253.125 318.664 254.468 316.998 254.468H268.156C266.495 254.468 265.148 253.118 265.148 251.468V229.697Z" fill="#E1E5F0"/>
<path d="M353.071 229.697H407.929V251.468C407.929 253.125 406.586 254.468 404.921 254.468H356.079C354.417 254.468 353.071 253.118 353.071 251.468V229.697Z" fill="#E1E5F0"/>
<path d="M441.746 229.697H496.604V251.468C496.604 253.125 495.261 254.468 493.596 254.468H444.754C443.092 254.468 441.746 253.118 441.746 251.468V229.697Z" fill="#E1E5F0"/>
<path d="M353.071 77.3209C353.071 75.66 354.413 74.3136 356.079 74.3136H404.921C406.582 74.3136 407.929 75.6595 407.929 77.3209V125.12H353.071V77.3209ZM265.148 186.402C265.148 184.743 266.49 183.398 268.156 183.398H316.998C318.659 183.398 320.006 184.737 320.006 186.402V234.951H265.148V186.402ZM353.071 186.402C353.071 184.743 354.413 183.398 356.079 183.398H404.921C406.582 183.398 407.929 184.737 407.929 186.402V234.951H353.071V186.402ZM441.746 186.402C441.746 184.743 443.088 183.398 444.754 183.398H493.596C495.257 183.398 496.604 184.737 496.604 186.402V234.951H441.746V186.402Z" fill="#474BFF"/>
<path d="M468.047 183.907V180.804V168.137C468.047 167.315 467.373 166.643 466.54 166.643H296.714C295.886 166.643 295.207 167.315 295.207 168.145V183.907H289.947V165.145C289.947 163.07 291.631 161.388 293.703 161.388H469.551C471.626 161.388 473.308 163.069 473.308 165.147V172.282V183.907H468.047Z" fill="#E1E5F0"/>
<path d="M383.13 144.874H377.87V183.907H383.13V144.874Z" fill="#E1E5F0"/>
<path d="M190 15.0162C190 6.72296 196.734 0 205.024 0H555.976C564.274 0 571 6.72358 571 15.0162V33.0283H190V15.0162Z" fill="#E1E5F0"/>
<path d="M212.169 24.0206C216.112 24.0206 219.308 20.8279 219.308 16.8895C219.308 12.9511 216.112 9.75836 212.169 9.75836C208.226 9.75836 205.03 12.9511 205.03 16.8895C205.03 20.8279 208.226 24.0206 212.169 24.0206Z" fill="#FF5645"/>
<path d="M235.465 24.0206C239.408 24.0206 242.604 20.8279 242.604 16.8895C242.604 12.9511 239.408 9.75836 235.465 9.75836C231.522 9.75836 228.326 12.9511 228.326 16.8895C228.326 20.8279 231.522 24.0206 235.465 24.0206Z" fill="#FFCB3D"/>
<path d="M259.512 24.0206C263.454 24.0206 266.651 20.8279 266.651 16.8895C266.651 12.9511 263.454 9.75836 259.512 9.75836C255.569 9.75836 252.373 12.9511 252.373 16.8895C252.373 20.8279 255.569 24.0206 259.512 24.0206Z" fill="#3ABF7C"/>
<g clip-path="url(#clip1)">
<path d="M627.5 967.507H788.5C790.985 967.507 793 969.522 793 972.007C793 974.492 790.985 976.507 788.5 976.507H627.5C625.015 976.507 623 974.492 623 972.007C623 969.522 625.015 967.507 627.5 967.507ZM968.966 967.692L1066.78 894.768C1067.49 894.28 1068.2 893.992 1069 894.006C1070.4 893.93 1071.79 894.555 1072.67 895.67L1072.96 896.175C1074.43 897.901 1073.98 900.594 1072.16 901.962L972.642 976.537L914.03 976.714C911.731 976.674 909.862 974.841 909.802 972.54L909.813 971.94C909.953 969.642 911.786 967.774 914.086 967.814L968.966 967.692Z" fill="#A339FF"/>
<path d="M791.379 968.533C790.808 968.271 790.173 968.124 789.503 968.124L627.803 967.5C628.108 967.435 627.478 967.5 627.803 967.5C627.803 967.172 627.646 967.014 627.803 966.385C629.003 961.585 632.903 957.585 635.103 955.585C639.703 952.685 644.303 950.185 649.103 947.885C666.903 939.285 673.003 939.385 684.703 931.585C689.503 928.285 694.004 924.585 698.104 920.485C700.837 917.752 707.8 912.833 719 906.5L806.504 906.679L791.379 968.533ZM1069.62 894.64C1068.97 894.707 1068.38 894.976 1067.79 895.385L969.97 968.309L915.089 968.431C914.644 968.424 914.217 968.487 913.816 968.611C913.687 967.975 913.617 967.302 913.63 966.598C913.742 965.9 913.756 965.1 913.97 964.304C915.253 959.526 919.124 955.493 921.359 953.531C925.909 950.71 930.553 948.191 935.393 945.975C944.906 941.424 951.117 939.368 956.592 937.251C957.403 935.86 958.176 934.431 958.925 932.884C959.86 930.9 960.798 928.716 961.741 926.232C963.737 920.766 965.135 915.189 966.134 909.506L971 894.289L972.5 889L1033.5 844L1069.62 894.64Z" fill="#474961"/>
<path d="M851.083 607.317C861.073 603.797 869.1 603.936 869.1 603.936C914.1 603.836 1077.4 603.536 1080.2 603.736C1084.2 604.036 1104.55 603.268 1116.7 625.136C1116.8 625.136 1116.8 625.236 1116.8 625.236C1118.6 628.636 1120.5 632.836 1122.2 638.036C1125.4 648.136 1127.6 661.736 1126.6 678.536C1126 685.236 1125.1 699.836 1116.6 713.836C1107.8 728.436 1095.6 738.236 1077.5 744.436C1062.1 749.636 1047 747.236 1028.4 745.536H1028.2C1027.5 745.436 1026.1 745.136 1024.4 744.836L1021 744.236C1019.1 743.836 1017.4 743.536 1016.6 743.436H1016.4C999.2 740.336 983.9 737.536 968.6 734.636L967.9 734.536C966.67 734.293 965.441 734.053 964.211 733.815C966.783 737.386 969.35 740.981 971.909 744.602C978.509 753.902 984.909 763.202 991.109 772.402L1016.21 807.902C1020.01 813.202 1018.31 820.602 1012.41 824.302L981.509 843.502L953.509 862.102L948.009 865.602C942.509 869.002 935.834 867.402 931.609 863.002C920.428 851.358 899.447 823.993 873.109 794.202C872.073 793.03 871.041 791.867 870.016 790.713C855.213 818.304 836.837 854.308 826.1 872.336C824 875.936 819.9 877.836 815.7 877.236L736.3 865.436C729.5 864.436 725.5 857.136 728.4 850.836C743.1 818.536 761.8 767.636 777.7 733.436C781.8 724.636 785.7 715.936 789.3 707.736C789.873 706.437 790.467 705.083 791.078 703.686C785.105 695.49 781.589 689.626 778.509 682.202C775.009 673.802 771.809 666.102 772.009 655.702C772.309 640.302 780.009 622.802 795.409 613.402C804.009 608.102 812.409 607.802 817.409 607.402C824.109 607.202 831.809 607.302 840.409 607.302C844.899 607.266 848.279 607.243 851.083 607.317Z" fill="#3ABF7C"/>
<path opacity="0.176986" d="M849.615 607.287C837.918 611.649 823.873 621.075 816.856 641.436C816.762 641.624 801.261 678.949 790.691 703.154C784.952 695.234 781.522 689.464 778.509 682.202C775.009 673.802 771.809 666.102 772.009 655.702C772.309 640.302 780.009 622.802 795.409 613.402C804.009 608.102 812.409 607.802 817.409 607.402C824.109 607.202 831.809 607.302 840.409 607.302C844.143 607.272 847.109 607.251 849.615 607.287V607.287ZM963.947 733.45C966.608 737.14 969.262 740.858 971.909 744.602C978.509 753.902 984.909 763.202 991.109 772.402L1016.21 807.902C1020.01 813.202 1018.31 820.602 1012.41 824.302L981.509 843.502L953.509 862.102L948.009 865.602C942.509 869.002 935.834 867.402 931.609 863.002C920.428 851.358 899.446 823.993 873.109 794.202C871.934 792.873 870.766 791.556 869.605 790.251C873.264 783.43 876.705 777.125 879.756 771.736C879.756 771.736 882.556 766.736 888.556 757.236C893.456 749.436 898.556 742.636 902.856 736.936C905.156 733.836 908.356 729.536 912.356 724.536C916.856 725.136 921.356 725.736 925.856 726.436C932.056 727.536 938.256 728.736 944.556 729.836C951.071 731.02 957.515 732.205 963.947 733.45Z" fill="#444444"/>
<path d="M893.301 703.737C898.76 711.002 900.446 713.042 902.201 714.759C903.821 716.342 905.427 718.285 910.801 725.437C911.299 726.099 912.239 726.233 912.901 725.735C913.563 725.238 913.697 724.297 913.199 723.635C907.74 716.37 906.054 714.33 904.299 712.614C902.679 711.03 901.073 709.087 895.699 701.935C895.202 701.273 894.261 701.139 893.599 701.637C892.937 702.135 892.803 703.075 893.301 703.737Z" fill="#482D1F"/>
<path d="M1000.12 410.277C1018.19 405.095 1036.79 409.63 1050.29 420.843L1051 421.32C1053.07 422.805 1055.36 425.265 1057.76 428.397C1059.49 430.517 1061.06 432.78 1062.47 435.177C1073.26 452.008 1084.48 477.88 1086.01 487.898C1086.01 490.858 1084.19 493.392 1081.61 494.447L1096.97 546.713C1097.91 549.804 1102 562.286 1103 581.277C1103.67 593.938 1097.34 601.558 1084.01 604.138C1068.36 603.976 1042.19 604.269 1005.49 605.016C968.783 605.764 946.854 566.065 939.7 485.92C931.801 459.709 944.206 432.45 967.804 420.852L964.81 412.157C964.45 411.113 965.005 409.975 966.05 409.615L994.415 399.848C995.46 399.488 996.598 400.043 996.958 401.088L1000.12 410.277Z" fill="#A339FF"/>
<path d="M986.118 369.081L994.539 400.515L966.526 410.161L964.464 401.973C964.063 402.181 963.65 402.395 963.225 402.612C955.227 406.872 955.692 406.521 955.117 406.783C949.029 409.132 943.648 409.597 942.643 409.602C934.226 409.883 922.881 395.691 916.195 374.172C915.609 372.424 915.321 370.644 914.934 368.875L912.267 351.157C911.65 347.2 912.028 343.138 913.552 339.459C914.191 337.883 914.84 336.407 915.62 335.219C924.421 320.418 943.578 320.918 947.001 320.961C947.399 320.919 947.807 320.977 948.205 320.935C952.079 321.433 955.387 320.381 958.957 319.905C960.548 319.738 961.977 320.895 962.243 322.476L965.416 347.883C965.65 349.468 968.702 348.058 974.572 343.653C981.847 347.48 986.252 350.956 987.787 354.079C990.33 359.141 989.303 364.679 986.586 368.483C986.433 368.69 986.277 368.889 986.118 369.081ZM881.856 561.414C895.878 558.023 911.566 554.239 928.918 550.061L938.372 486.666C938.504 485.233 938.702 483.544 939.014 481.646C939.326 483.082 939.697 484.517 940.129 485.95C949.308 511.179 957.841 532.567 965.728 550.115C986.569 547.093 1006.25 544.794 1020.46 541.604C1020.48 540.248 1019.07 524.19 1016.23 493.43L1079.11 495.614C1079.18 495.617 1079.26 495.618 1079.33 495.619C1080.94 505.898 1081.5 518.538 1081 533.539C1080.05 562.066 1083.15 585.32 1065.63 597.782C1061.55 600.693 1060.38 602.682 1046.35 603.768C1017.01 606.038 990.37 605.376 963.348 604.194C972.566 604.642 981.728 605.04 990.968 605.279C950.163 607.217 815.297 608.852 803.528 608.458C789.64 607.994 782.622 603.452 779.811 596.768C777.554 591.402 791.234 584.374 793.319 583.29C793.739 583.072 798.151 581.91 806.555 579.805C800.274 578.776 794.731 575.889 795.097 568.863C795.097 568.863 848.333 560.677 863.185 558.588L862.844 558.822C866.383 558.364 870.129 558.312 874.2 559.078C876.454 559.47 879.006 560.248 881.856 561.414ZM953.5 862L982 843L1012 824.5C1013.64 823.472 1015.54 821.974 1016.5 820.5L1033.5 844L972.561 888.906L953.5 862ZM738 865.5L814.5 877L806.5 907L719 906.5L738 865.5Z" fill="#F2A98A"/>
<path opacity="0.2" d="M965.322 549.958C956.272 551.271 947.004 552.72 937.868 554.438C915.936 558.562 899.143 561.767 887.49 564.052C885.132 562.834 882.932 561.821 880.889 561.012C895.015 557.596 910.838 553.779 928.358 549.561L937.812 486.166C937.943 484.733 938.142 483.044 938.454 481.146C938.766 482.582 939.137 484.017 939.569 485.45C948.808 510.843 957.392 532.346 965.322 549.958ZM990.408 604.779C949.602 606.717 814.736 608.352 802.967 607.958C789.079 607.494 782.062 602.952 779.251 596.268C776.993 590.902 790.673 583.874 792.759 582.79C793.181 582.571 797.65 581.395 806.167 579.262C810.889 580.09 816.089 579.79 819.466 579.416C828.815 580.337 838.068 581.16 847.417 582.082C850.355 583.242 853.292 584.402 856.23 585.561C861.094 593.833 898.761 600.126 913.388 601.203C917.874 601.52 920.568 601.752 926.742 601.95C948.635 602.862 969.315 604.233 990.408 604.779Z" fill="#8C2A00"/>
<path d="M918.456 368.952C918.833 370.621 919.424 373.375 918.555 374.673C917.45 376.599 913.886 372.348 914.248 369.092C914.4 367.669 915.054 367.198 915.85 367.114C917.043 366.989 918.132 367.779 918.456 368.952ZM936.096 366.494C936.572 368.154 937.064 370.917 936.194 372.215C935.09 374.141 931.526 369.891 931.888 366.635C932.04 365.211 932.694 364.74 933.49 364.657C934.683 364.531 935.772 365.322 936.096 366.494Z" fill="#482D1F"/>
<path d="M933.235 387.106C933.91 386.834 935.538 386.06 935.722 384.934C935.701 384.736 935.769 384.427 935.648 384.238C935.188 383.683 933.926 384.118 932.157 384.505C929.006 385.138 926.389 385.111 926.389 385.111C926.389 385.111 927.394 387.016 927.943 387.461C929.105 388.948 932.172 387.52 933.235 387.106Z" fill="#482D1F"/>
<path d="M910.192 362.078C909.177 361.983 908.654 360.832 909.277 360.062C910.088 359.173 911.475 358.021 913.454 357.713C917.511 357.085 922.237 359.002 918.007 360.854C915.327 362.141 912.113 362.178 910.192 362.078ZM939.046 320.17C931.274 316.015 925.819 308.892 924.921 300.349C923.362 285.519 936.124 272.022 953.426 270.204C970.727 268.385 986.017 278.933 987.575 293.763C988.517 302.721 984.234 311.192 976.881 316.897C981.18 316.46 984.601 316.555 988.619 318.039C990.084 318.589 993.544 319.934 996.794 323.112C1006.06 331.891 1005.72 344.898 1005.72 348.719C1005.32 360.224 1000.03 368.221 997.922 371.157C993.022 378.108 988.502 381.854 984.363 382.398C981.965 378.932 980.074 375.624 978.692 372.476C980.429 371.698 982.86 370.259 984.68 367.622C987.298 363.828 988.335 358.389 985.813 353.526C983.51 348.841 978.141 345.585 973.409 346.484C970.744 346.966 968.813 348.677 968.535 348.907C966.148 351.144 964.702 354.02 964.2 355.128C964.205 354.982 964.211 354.836 964.216 354.69C959.453 353.381 951.587 350.286 944.705 343.167C942.344 340.8 940.471 338.282 939.027 336.021C935.174 337.633 928.835 339.505 921.23 338.897C918.532 338.685 916.13 337.563 913.982 336.98C913.968 336.96 913.961 336.95 913.961 336.95C913.83 336.662 915.08 334.918 915.059 334.719C920.954 324.551 931.977 321.226 939.046 320.17ZM929.486 360.05C928.471 359.956 927.947 358.804 928.67 358.024C929.481 357.134 930.869 355.983 932.947 355.664C937.003 355.037 941.74 357.053 937.5 358.805C934.72 360.103 931.507 360.139 929.486 360.05Z" fill="#DE6903"/>
<path d="M965.397 407.454L974.137 395.82L963.895 401.455L965.397 407.454Z" fill="#482D1F"/>
<path d="M1019.43 542.657C1018.67 542.345 1018.3 541.47 1018.61 540.702C1018.92 539.935 1019.8 539.567 1020.57 539.879L1034.07 545.379C1034.83 545.692 1035.2 546.567 1034.89 547.334C1034.58 548.102 1033.7 548.47 1032.93 548.157L1019.43 542.657ZM1016.77 491.141C1017.22 491.832 1017.03 492.763 1016.34 493.22C1015.65 493.677 1014.72 493.487 1014.26 492.796C1006.28 480.71 1002.21 466.704 1002.52 452.237C1002.53 451.408 1003.22 450.751 1004.05 450.768C1004.88 450.786 1005.53 451.472 1005.52 452.3C1005.22 466.157 1009.11 479.564 1016.77 491.141Z" fill="#482D1F"/>
<path d="M923.716 369.237L923.706 369.092L923.706 369.165L923.716 369.237ZM923.631 379.859L923.637 379.97C923.751 381.056 924.599 381.986 925.701 382.052C925.902 382.051 926.014 382.047 926.125 382.043C927.185 382 927.941 381.931 930.65 381.647C931.199 381.589 931.598 381.097 931.54 380.547C931.482 379.998 930.99 379.6 930.441 379.658C927.78 379.937 927.045 380.004 926.046 380.044C925.942 380.048 925.838 380.052 925.734 380.055C925.756 380.052 925.661 379.946 925.632 379.8L925.706 369.106L925.696 368.961L924.881 363.114C924.805 362.567 924.299 362.186 923.752 362.262C923.205 362.338 922.824 362.844 922.9 363.391L923.706 369.165L923.631 379.859Z" fill="#482D1F"/>
</g>
<path d="M769.548 594.509C770.545 596.27 772.435 597.46 774.6 597.46H918.3C921.5 597.46 924 594.86 924 591.66C924 588.46 921.4 585.86 918.3 585.86H778.525L729.8 454.76C728.7 451.76 725.4 450.26 722.4 451.36C719.4 452.46 717.9 455.76 719 458.76L769.1 593.56C769.223 593.896 769.374 594.213 769.548 594.509Z" fill="#474961"/>
<path d="M573 566.126C547.458 563.734 529.515 527.25 538.52 495.825C543.543 478.298 555.145 463.951 573 452.834V440C573 435.582 576.582 432 581 432H638H651L639.821 494.669C646.735 501.706 651 511.355 651 522V596H573V566.126ZM573 550.962V546V471.124C562.747 479.27 556.116 488.872 552.94 499.957C549.525 511.872 551.048 525.124 556.542 535.798C560.898 544.259 567.038 549.69 573 550.962Z" fill="#E1E5F0"/>
<path d="M663 528H704V576.5C704 587.822 694.822 597 683.5 597C672.178 597 663 587.822 663 576.5V528ZM507 528H548V576.5C548 587.822 538.822 597 527.5 597C516.178 597 507 587.822 507 576.5V528Z" fill="#F2F6FB"/>
<path d="M663 555H704V576.5C704 587.822 694.822 597 683.5 597C672.178 597 663 587.822 663 576.5V555ZM507 572H548V576.5C548 587.822 538.822 597 527.5 597C516.178 597 507 587.822 507 576.5V572ZM573 522H651V597H573V522Z" fill="#474BFF"/>
<path d="M896.329 71H501.671C499.091 71 497 73.0924 497 75.6735V369.326C497 371.908 499.091 374 501.671 374H896.329C898.909 374 901 371.908 901 369.326V75.6735C901 73.0924 898.909 71 896.329 71Z" fill="#F2F6FB"/>
<path d="M497 86.5824C497 77.9765 503.97 71 512.574 71H885.426C894.027 71 901 77.9806 901 86.5824V104.494H497V86.5824ZM566.279 176.245H832.261V344.933C832.261 346.65 830.862 348.043 829.147 348.043H569.393C567.674 348.043 566.279 346.647 566.279 344.933V176.245ZM590.778 202.144V223.974C590.778 225.692 592.173 227.083 593.894 227.083H615.659C617.387 227.083 618.776 225.691 618.776 223.974V202.144C618.776 200.426 617.38 199.035 615.659 199.035H593.894C592.166 199.035 590.778 200.427 590.778 202.144ZM590.778 249.476V271.306C590.778 273.024 592.173 274.415 593.894 274.415H615.659C617.387 274.415 618.776 273.023 618.776 271.306V249.476C618.776 247.758 617.38 246.367 615.659 246.367H593.894C592.166 246.367 590.778 247.759 590.778 249.476ZM638.025 202.144V223.974C638.025 225.692 639.42 227.083 641.141 227.083H662.906C664.634 227.083 666.023 225.691 666.023 223.974V202.144C666.023 200.426 664.627 199.035 662.906 199.035H641.141C639.413 199.035 638.025 200.427 638.025 202.144ZM638.025 249.476V271.306C638.025 273.024 639.42 274.415 641.141 274.415H662.906C664.634 274.415 666.023 273.023 666.023 271.306V249.476C666.023 247.758 664.627 246.367 662.906 246.367H641.141C639.413 246.367 638.025 247.759 638.025 249.476ZM685.271 202.144V223.974C685.271 225.692 686.667 227.083 688.388 227.083H710.153C711.881 227.083 713.269 225.691 713.269 223.974V202.144C713.269 200.426 711.874 199.035 710.153 199.035H688.388C686.66 199.035 685.271 200.427 685.271 202.144ZM685.271 249.476V271.306C685.271 273.024 686.667 274.415 688.388 274.415H710.153C711.881 274.415 713.269 273.023 713.269 271.306V249.476C713.269 247.758 711.874 246.367 710.153 246.367H688.388C686.66 246.367 685.271 247.759 685.271 249.476ZM732.518 202.144V223.974C732.518 225.692 733.914 227.083 735.635 227.083H757.4C759.128 227.083 760.516 225.691 760.516 223.974V202.144C760.516 200.426 759.121 199.035 757.4 199.035H735.635C733.907 199.035 732.518 200.427 732.518 202.144ZM779.765 202.144V223.974C779.765 225.692 781.16 227.083 782.882 227.083H804.646C806.375 227.083 807.763 225.691 807.763 223.974V202.144C807.763 200.426 806.368 199.035 804.646 199.035H782.882C781.153 199.035 779.765 200.427 779.765 202.144ZM779.765 249.476V271.306C779.765 273.024 781.16 274.415 782.882 274.415H804.646C806.375 274.415 807.763 273.023 807.763 271.306V249.476C807.763 247.758 806.368 246.367 804.646 246.367H782.882C781.153 246.367 779.765 247.759 779.765 249.476ZM590.778 296.807V318.638C590.778 320.356 592.173 321.747 593.894 321.747H615.659C617.387 321.747 618.776 320.355 618.776 318.638V296.807C618.776 295.09 617.38 293.699 615.659 293.699H593.894C592.166 293.699 590.778 295.091 590.778 296.807ZM638.025 296.807V318.638C638.025 320.356 639.42 321.747 641.141 321.747H662.906C664.634 321.747 666.023 320.355 666.023 318.638V296.807C666.023 295.09 664.627 293.699 662.906 293.699H641.141C639.413 293.699 638.025 295.091 638.025 296.807ZM685.271 296.807V318.638C685.271 320.356 686.667 321.747 688.388 321.747H710.153C711.881 321.747 713.269 320.355 713.269 318.638V296.807C713.269 295.09 711.874 293.699 710.153 293.699H688.388C686.66 293.699 685.271 295.091 685.271 296.807ZM732.518 296.807V318.638C732.518 320.356 733.914 321.747 735.635 321.747H757.4C759.128 321.747 760.516 320.355 760.516 318.638V296.807C760.516 295.09 759.121 293.699 757.4 293.699H735.635C733.907 293.699 732.518 295.091 732.518 296.807ZM779.765 296.807V318.638C779.765 320.356 781.16 321.747 782.882 321.747H804.646C806.375 321.747 807.763 320.355 807.763 318.638V296.807C807.763 295.09 806.368 293.699 804.646 293.699H782.882C781.153 293.699 779.765 295.091 779.765 296.807Z" fill="#E1E5F0"/>
<path d="M757.402 246.367H735.632C733.912 246.367 732.518 247.762 732.518 249.482V271.3C732.518 273.02 733.912 274.415 735.632 274.415H757.402C759.122 274.415 760.516 273.02 760.516 271.3V249.482C760.516 247.762 759.122 246.367 757.402 246.367Z" fill="#FFCB3D"/>
<path d="M566.279 142.759C566.279 141.036 567.678 139.639 569.393 139.639H829.147C830.867 139.639 832.261 141.031 832.261 142.759V181.838H566.279V142.759ZM657.08 153.705C656.22 153.705 655.523 154.402 655.523 155.263V166.214C655.523 167.074 656.22 167.771 657.08 167.771H741.461C742.32 167.771 743.017 167.074 743.017 166.214V155.263C743.017 154.402 742.32 153.705 741.461 153.705H657.08Z" fill="#D8DEED"/>
<path d="M1116 597H108C104.134 597 101 600.134 101 604C101 607.866 104.134 611 108 611H1116C1119.87 611 1123 607.866 1123 604C1123 600.134 1119.87 597 1116 597Z" fill="#D8DEED"/>
<path d="M458.452 594.509C457.455 596.27 455.565 597.46 453.4 597.46H309.7C306.5 597.46 304 594.86 304 591.66C304 588.46 306.6 585.86 309.7 585.86H449.475L498.2 454.76C499.3 451.76 502.6 450.26 505.6 451.36C508.6 452.46 510.1 455.76 509 458.76L458.9 593.56C458.777 593.896 458.626 594.213 458.452 594.509Z" fill="#474961"/>
<defs>
<clipPath id="clip0">
<path d="M51 460H381V980H51V460Z" fill="white"/>
</clipPath>
<clipPath id="clip1">
<path d="M614 220H1136V976H614V220Z" fill="white"/>
</clipPath>
</defs>
</svg>
