<svg xmlns="http://www.w3.org/2000/svg" xmlns:xlink="http://www.w3.org/1999/xlink" width="1118.822" height="894.08" viewBox="0 0 1118.822 894.08"><defs><radialGradient id="a" cx="482.733" cy="-54.061" r="6725.413" gradientTransform="matrix(0.124, -0.001, 0, 0.027, 422.957, -52.109)" gradientUnits="userSpaceOnUse"><stop offset="0.172" stop-color="#8595dd"/><stop offset="0.637" stop-color="#cbd2f0" stop-opacity="0.42"/><stop offset="0.989" stop-color="#fff" stop-opacity="0"/></radialGradient><clipPath id="b"><circle cx="51.833" cy="51.833" r="51.833" transform="matrix(0.159, -0.987, 0.987, 0.159, 0, 102.34)" fill="none"/></clipPath><linearGradient id="c" x1="10.134" y1="0.709" x2="11.223" y2="0.699" gradientUnits="objectBoundingBox"><stop offset="0" stop-color="#eef4fb"/><stop offset="0.311" stop-color="#e3edf8"/><stop offset="1" stop-color="#cfe1f3"/></linearGradient></defs><g transform="translate(17.195 -63.372)"><ellipse cx="479.982" cy="59.449" rx="479.982" ry="59.449" transform="translate(60.979 724.244)" fill="url(#a)"/><path d="M96.158,289.491c119.314-35.3,185.606,27.37,254.642,93.333,78.969,75.456,115.06,79.587,171.034,40.6,265.806-185.113,534.964-14.117,519,99.791,0,0,11.194,179.4-14.913,182.667-67.462,8.44-227.222,135.729-386.137,132.286C467.841,834.446,361.017,798.4,218.1,780.166c-102.39-13.064-268.674,22.962-286.039,17.4-.738-46.335-9.642-94.069,0-143.561C-48.863,556.1-3.685,454.215-5.15,362.236-5.15,362.236,38.924,306.427,96.158,289.491Z" transform="translate(55.197 80.183)" fill="#d9daff"/><path d="M87.841,289.124C200.953,255.1,263.8,315.505,329.247,379.087c74.864,72.731,109.079,76.714,162.144,39.138C743.379,239.8,1035.232,494.815,1020.1,604.609c0,0-11.936,119.529-36.686,122.677-63.956,8.136-229.549,94.025-380.2,90.706C440.2,814.4,338.932,779.657,203.446,762.081c-97.067-12.592-254.708,22.133-271.171,16.773C-69.813,645.535-6.112,492.561-8.2,359.242-8.2,359.242,33.582,305.448,87.841,289.124Z" transform="translate(80.96 139.367)" fill="#e3f5fd"/><g transform="translate(143.454 63.372)"><g transform="translate(0.902 67.948)" opacity="0.52"><line y2="29.293" transform="translate(14.696 67.264)" fill="none" stroke="#e9f2f4" stroke-miterlimit="10" stroke-width="0.25"/><g transform="translate(0 50.528)"><path d="M254.414,176.726a14.7,14.7,0,1,1-14.7-14.693A14.7,14.7,0,0,1,254.414,176.726Z" transform="translate(-225.022 -162.033)" fill="#888bff"/></g><line y2="28.438" transform="translate(14.696 19.183)" fill="none" stroke="#e9f2f4" stroke-miterlimit="10" stroke-width="0.25"/><path d="M254.414,158.445a14.7,14.7,0,1,1-14.7-14.693A14.7,14.7,0,0,1,254.414,158.445Z" transform="translate(-225.022 -143.752)" fill="#888bff"/><g transform="translate(6.736 3.075)"><path d="M234.256,163.427l-6.8-8.75,6.159,2.575,14.164-12.388Z" transform="translate(-227.459 -144.864)" fill="#fff"/></g><g transform="translate(0 102.04)"><path d="M254.414,195.363a14.7,14.7,0,1,1-14.7-14.693A14.7,14.7,0,0,1,254.414,195.363Z" transform="translate(-225.022 -180.67)" fill="#888bff"/></g><g transform="translate(6.736 52.443)"><path d="M234.256,181.288l-6.8-8.75,6.159,2.575,14.164-12.388Z" transform="translate(-227.459 -162.726)" fill="#fff"/></g><g transform="translate(6.736 104.529)"><path d="M234.256,200.133l-6.8-8.75,6.159,2.575,14.164-12.388Z" transform="translate(-227.459 -181.57)" fill="#fff"/></g><rect width="60.06" height="8.109" transform="translate(38.076 4.63)" fill="#918dff"/><rect width="105.112" height="22.619" transform="translate(38.076 16.166)" fill="#e9f2f4"/><rect width="105.112" height="22.619" transform="translate(38.076 66.476)" fill="#e9f2f4"/><rect width="105.112" height="22.619" transform="translate(38.076 117.424)" fill="#e9f2f4"/><rect width="60.06" height="8.109" transform="translate(38.076 55.488)" fill="#918dff"/><rect width="60.06" height="8.109" transform="translate(38.076 105.955)" fill="#918dff"/></g><g transform="translate(252.695)" opacity="0.57"><g transform="translate(0)" clip-path="url(#b)"><circle cx="51.833" cy="51.833" r="51.833" transform="matrix(0.159, -0.987, 0.987, 0.159, 0, 102.34)" fill="#918dff"/><path d="M360.861,148.993l-17.383,54.3-49.912-47.953,70.7-15.9Z" transform="translate(-284.045 -143.858)" fill="#e9f2f4"/><path d="M325.575,148.993l-17.383,54.3,59.225-36.442-38.44-27.407Z" transform="translate(-248.759 -143.858)" fill="#0caaee"/><path d="M308.192,235.748V183.915l59.225-36.442,4.52,61.655L320.4,242.871Z" transform="translate(-248.759 -124.482)" fill="#49e9c9"/></g></g><g transform="translate(415.406 8.966)"><line x2="147.973" fill="none" stroke="#dee2e6" stroke-miterlimit="10" stroke-width="1"/><line x2="147.973" transform="translate(0 10.162)" fill="none" stroke="#dee2e6" stroke-miterlimit="10" stroke-width="1"/><line x2="147.973" transform="translate(0 20.325)" fill="none" stroke="#dee2e6" stroke-miterlimit="10" stroke-width="1"/><line x2="147.973" transform="translate(0 30.488)" fill="none" stroke="#dee2e6" stroke-miterlimit="10" stroke-width="1"/><line x2="147.973" transform="translate(0 40.65)" fill="none" stroke="#dee2e6" stroke-miterlimit="10" stroke-width="1"/><line x2="147.973" transform="translate(0 50.813)" fill="none" stroke="#dee2e6" stroke-miterlimit="10" stroke-width="1"/><line x2="147.973" transform="translate(0 64.162)" fill="none" stroke="#dee2e6" stroke-miterlimit="10" stroke-width="1"/><line x2="147.973" transform="translate(0 74.099)" fill="none" stroke="#dee2e6" stroke-miterlimit="10" stroke-width="1"/><line x2="147.973" transform="translate(0 84.036)" fill="none" stroke="#dee2e6" stroke-miterlimit="10" stroke-width="1"/><line x2="147.973" transform="translate(0 93.973)" fill="none" stroke="#dee2e6" stroke-miterlimit="10" stroke-width="1"/></g><g transform="translate(439.193 147.603)" opacity="0.58"><line x2="65.86" transform="translate(31.357 123.828)" fill="none" stroke="#e9f2f4" stroke-miterlimit="10" stroke-width="1"/><line x2="65.86" transform="translate(31.357 138.261)" fill="none" stroke="#e9f2f4" stroke-miterlimit="10" stroke-width="1"/><line x2="65.86" transform="translate(31.357 152.694)" fill="none" stroke="#e9f2f4" stroke-miterlimit="10" stroke-width="1"/></g><g transform="translate(0 165.716)"><g transform="translate(89.043 329.358)"><path d="M242.822,518.752h5.86l47.785-232.945h-12.1Z" transform="translate(-242.822 -285.808)" fill="#c7c7c7"/><path d="M412.874,518.752h-5.86L359.229,285.808h12.1Z" transform="translate(38.024 -285.808)" fill="#c7c7c7"/></g><g transform="translate(15.882 114.158)"><path d="M243.237,249.694a16.581,16.581,0,0,0-3.788,7.552c.921-2.027,2.034-4.1,3.914-5.293,2.406-1.525,5.6-1.317,8.027-2.819,2.269-1.4,3.43-4.02,4.464-6.477-1.979,1.474-3.8,2.962-6.2,3.594A12.443,12.443,0,0,0,243.237,249.694Z" transform="translate(-177.797 -174.714)" fill="#482c3b"/><g transform="translate(0 108.167)"><g transform="translate(43.781 184.248)"><g transform="translate(0 0)"><rect width="8.897" height="86.218" transform="translate(51.08 129.636) rotate(180)" fill="#a6aeba"/><rect width="14.303" height="12.552" transform="translate(53.783 43.419) rotate(180)" fill="#d2dceb"/><rect width="10.801" height="26.906" transform="translate(52.031 123.361) rotate(180)" fill="#d2dceb"/><rect width="14.303" height="12.552" transform="translate(53.783 135.913) rotate(180)" fill="#d2dceb"/><rect width="34.672" height="23.762" transform="translate(63.967 30.867) rotate(180)" fill="#a6aeba"/><rect width="96.728" height="17.794" rx="0.541" transform="translate(96.728 17.794) rotate(180)" fill="#a6aeba"/><path d="M240.313,368.021l27.307-13.539v-9.442l-30.891,20.707Z" transform="translate(-228.14 -220.117)" fill="#a6aeba"/><circle cx="6.398" cy="6.398" r="6.398" transform="translate(2.191 144.159)" fill="#a6aeba"/><circle cx="6.398" cy="6.398" r="6.398" transform="translate(40.233 144.159)" fill="#a6aeba"/><path d="M277.279,368.021l-27.307-13.539v-9.442l30.891,20.707Z" transform="translate(-196.189 -220.117)" fill="#a6aeba"/><path d="M269.946,357.076a6.4,6.4,0,1,1-6.4-6.4A6.4,6.4,0,0,1,269.946,357.076Z" transform="translate(-178.875 -206.518)" fill="#a6aeba"/><rect width="3.465" height="20.841" transform="translate(48.364 150.478) rotate(180)" fill="#a6aeba"/></g></g><path d="M249.079,448.438a6.759,6.759,0,0,1-6.8-5.146c-2.338-9.637-6.583-27.629-6.679-72.58-.106-49.6-10.415-87.322-13.968-103.221a10.307,10.307,0,0,1,4.921-11.187h0a13.966,13.966,0,0,1,6.962-1.86h86.193s35.433,63.382,40.081,85.1,11.139,105.085,11.139,105.085Z" transform="translate(-221.383 -254.444)" fill="#ff8a95"/><path d="M245.508,448.6s-8.05-15.783-8.183-77.893c-.109-51.141-10.272-93.274-13.2-109.538a5.716,5.716,0,0,1,5.641-6.73h91.673s35.433,63.382,40.078,85.1,11.142,105.085,11.142,105.085Z" transform="translate(-215 -254.444)" fill="#ff5a5d"/><path d="M0,0H90.415a1.309,1.309,0,0,1,1.309,1.309V18.893a0,0,0,0,1,0,0H0a0,0,0,0,1,0,0V0A0,0,0,0,1,0,0Z" transform="translate(114.124 194.161) rotate(180)" fill="#ff8a95"/><path d="M1.639,0h132.9a0,0,0,0,1,0,0V17.255a1.639,1.639,0,0,1-1.639,1.639H1.639A1.639,1.639,0,0,1,0,17.255V1.639A1.639,1.639,0,0,1,1.639,0Z" transform="translate(178.323 194.161) rotate(180)" fill="#f74455"/></g><path d="M244.571,268.815s13.333-4.221,14.674-10.023c1.092-4.716,2.833-19.353,2.833-19.353h23.254s-.891,13.077,0,17.316c2.211,10.531,15.425,14,15.425,14l1.884,32.9-34.276,28.734L235.3,299.163Z" transform="translate(-187.817 -182.478)" fill="#fec4ad"/><path d="M288.02,238.809c5.863,7.818,4.672,8.924,3.867,19.7a86.9,86.9,0,0,1-4.624,22.182c-1.58,4.061-9.849,21.523-24.588,15.149-8.156-3.525-17.418-12.214-20.087-18.193-1.959-4.382-2.993-12.282-3.143-19.575-.15-7.166-.188-16.462.072-21.807C240.42,217.388,277.294,224.5,288.02,238.809Z" transform="translate(-178.093 -217.711)" fill="#fec4ad"/><g transform="translate(36.752 86.337)"><path d="M305.171,294.515c12.7-2.751,19.766,1.331,27.373,10.46s4.563,31.181,0,49.432-22.056,139.849-22.056,139.849H297.561s-3.32-47.913-5.6-82.9,5.528-85.093,5.528-85.093l-49.363-31.751S293.77,296.986,305.171,294.515Z" transform="translate(-193.614 -137.978)" fill="#133a50"/><path d="M312.984,303.061c9.7,9.05,38.228,24.311,32.532,43.176l-38.221,16.2s-38.836-14.077-50.749-41.753l-11.91-27.673,25.595-10.183Z" transform="translate(-202.034 -164.143)" fill="#133a50"/><path d="M303.335,301.812c7.03,5.075,26.028,13.435,22.226,35.051-1.938,11.023-33.014,77.6-49.988,105.583-8.648,14.261-24.059,44.108-24.059,44.108l-14.449,3.457S248.2,453.782,255.8,420.321s29.744-73.409,29.744-73.409-16.35-11.04-28.519-16.363-18.715-7.491-.464-24.98S289.647,291.925,303.335,301.812Z" transform="translate(-220.3 -138.572)" fill="#133a50"/><path d="M284,265.711c1.993,8.381,4.471,16.558,7.5,21.858s65.724,28.4,65.724,28.4H320.615s-34.857-4.576-44.8-17.937-19.169-32.324-19.169-32.324Z" transform="translate(-173.052 -205.431)" fill="#fec4ad"/><path d="M263.64,249.956c6.484,2.884,12.473,19.264,17.261,33.222s5.191,20.544,5.191,20.544-16.753,9.579-25.639,7.184c0,0-8.439-30.318-2.628-45.634Z" transform="translate(-175.142 -243.441)" fill="#133a50"/><path d="M288.329,388.06c18.261-.73,36.518-1.174,54.772-1.1-8.873-5.754-16.7-9.763-18.411-11.47-3.8-3.8-2.512-37.675.283-48.2s2.624-22.714.6-28.144-4.925-44.589-4.925-44.589l-12.309-4.576s3.774,28.41-26.083,28.41c-29.973,0-30.1-30.348-30.1-30.348l-19.1,4.232s-1.409,36.993-.7,53.779,8.682,45.862,10.965,61.072c1.775,11.838-1.512,19.077-3.774,27.8C254.742,388.947,271.437,387.476,288.329,388.06Z" transform="translate(-232.152 -248.047)" fill="#133a50"/><path d="M253.615,349.448c-4.105-.822-5.559.819-9.252,3.283a15.6,15.6,0,0,1-7.8,2.461v11.084h28.54Z" transform="translate(-221.504 -3.921)" fill="#ff5e69"/><path d="M280.053,349.9s-.416,3.843-6.573,5.576-10.344-3.351-10.344-3.351l-1.365,12.552,48.647.3Z" transform="translate(-160.692 -2.32)" fill="#ff5e69"/></g><path d="M355.2,330.79c-5.464-.648-10.712-5.76-31.874-6.013-3.8-.044-28.942-4.948-35.74-6.955-13.357-3.938-20.175-8.706-20.175-8.706s-7.757-28.915-10.716-47.261c-8.6-.942-17.182-2.044-25.711-3.488-.3,22.905,15.923,63.632,21.325,67.693,10.514,7.91,35.225,7.518,41.16,7.627,13.746.249,72.324,1.829,72.324,1.829S370.307,332.585,355.2,330.79Z" transform="translate(-198.23 -136.809)" fill="#fec4ad"/><path d="M265.733,313.267s-7.794-45.767-10.05-50.582c-11.675-24.888-27.71-11.627-25.356,7.634,1,8.2,1.638,29.389,5.784,49.4C245.435,320.235,259.263,316.99,265.733,313.267Z" transform="translate(-200.365 -159.251)" fill="#133a50"/><g transform="translate(86.241 118.002)"><path d="M263.725,338.03h23.066l23.065-80.7H292.319Z" transform="translate(-205.47 -257.326)" fill="#a6aeba"/><path d="M265.665,338.03h90.021l23.065-80.7H288.73Z" transform="translate(-200.789 -257.326)" fill="#d2dceb"/><rect width="103.265" height="6.02" transform="translate(154.898 84.895) rotate(180)" fill="#d2dceb"/><rect width="51.633" height="6.02" transform="translate(51.633 84.895) rotate(180)" fill="#a6aeba"/><path d="M280.991,276.007c-2.607,6.18-.771,12.852,4.1,14.9s10.924-1.29,13.531-7.467.771-12.852-4.1-14.9S283.6,269.83,280.991,276.007Z" transform="translate(-166.674 -231.731)" fill="#a6aeba"/></g><path d="M234.793,300.224c-3.4,16.363,4.645,52.121,57.854,61.461L323,373.981s12.081-13.586,8.276-32.348-25.113-25.9-39.153-48.6c0,0-22.056-9.221-36.228-4.283S234.793,300.224,234.793,300.224Z" transform="translate(-190.652 -67.008)" fill="#133a50"/><path d="M304.422,255.008s-6.4.249-14.265-11.606c0,0,.846,5.368-6.8,12.6s-14.514,5.272-15.667,8.764a26.469,26.469,0,0,0-1.259,6.631s-1.283-.017-2.525-1.891c-.819-1.235-1.235-4.242-2.624-5.16-3.495-2.317-9.5.785-7.576,7.586,1.2,4.245,5.788,7.088,5.788,7.088-.089,11.61,4.651,15.179,4.651,15.179s-7.863,3.566-11.862,1.932c-5.75-2.355-7.211-5.958-7-12.459a15.424,15.424,0,0,1-7.692-4c-8.016-7.955,1.229-30.611,4.941-33.413,0,0-8.764-12.412,2.249-20.749,11.173-8.46,15.49,5.214,15.49,5.214,3.709-2.8,18.923-3.74,26.673-.853C308.773,238.01,304.422,255.008,304.422,255.008Z" transform="translate(-189.953 -222.748)" fill="#482c3b"/><path d="M258.971,228.763c.686,4.433.034,14.732-11.845,22.793" transform="translate(-159.275 -208.235)" fill="none" stroke="#482c3b" stroke-miterlimit="10" stroke-width="0.25"/></g><g transform="translate(518.505 222.326)"><g transform="translate(37.815 184.248)"><rect width="8.897" height="86.218" transform="translate(45.648 43.419)" fill="#a6aeba"/><rect width="14.303" height="12.552" transform="translate(42.945 30.867)" fill="#d2dceb"/><rect width="10.801" height="26.906" transform="translate(44.696 96.455)" fill="#d2dceb"/><rect width="14.303" height="12.552" transform="translate(42.945 123.361)" fill="#d2dceb"/><rect width="34.672" height="23.762" transform="translate(32.76 7.105)" fill="#a6aeba"/><rect width="96.728" height="17.794" rx="0.541" fill="#a6aeba"/><path d="M423.83,368.021l-27.307-13.539v-9.442l30.891,20.707Z" transform="translate(-339.275 -220.117)" fill="#a6aeba"/><path d="M416.5,357.076a6.4,6.4,0,1,1-6.4-6.4A6.4,6.4,0,0,1,416.5,357.076Z" transform="translate(-321.961 -206.519)" fill="#a6aeba"/><circle cx="6.398" cy="6.398" r="6.398" transform="translate(43.699 144.158)" fill="#a6aeba"/><path d="M386.864,368.021l27.307-13.539v-9.442L383.28,365.747Z" transform="translate(-371.226 -220.117)" fill="#a6aeba"/><circle cx="6.398" cy="6.398" r="6.398" transform="translate(5.656 144.158)" fill="#a6aeba"/><rect width="3.465" height="20.841" transform="translate(48.364 129.636)" fill="#a6aeba"/></g><path d="M498.947,448.438a6.766,6.766,0,0,0,6.8-5.146c2.338-9.637,6.58-27.629,6.678-72.58.106-49.6,26.106-87.322,29.656-103.221a10.3,10.3,0,0,0-4.921-11.187h0a13.943,13.943,0,0,0-6.958-1.86H428.32s-35.433,63.382-40.081,85.1S377.1,444.629,377.1,444.629Z" transform="translate(-348.322 -254.444)" fill="#ff8a95"/><path d="M501.868,448.6s8.05-15.783,8.184-77.893c.109-51.141,25.963-93.274,28.9-109.538a5.718,5.718,0,0,0-5.641-6.73H425.944s-35.433,63.382-40.081,85.1-11.139,105.085-11.139,105.085Z" transform="translate(-354.054 -254.444)" fill="#ff5a5d"/><g transform="translate(0 175.268)"><path d="M0,0H119.946a0,0,0,0,1,0,0V17.585a1.309,1.309,0,0,1-1.309,1.309H0a0,0,0,0,1,0,0V0A0,0,0,0,1,0,0Z" transform="translate(35.977)" fill="#ff8a95"/><path d="M1.639,0H49.325a1.639,1.639,0,0,1,1.639,1.639V18.893a0,0,0,0,1,0,0H1.638A1.638,1.638,0,0,1,0,17.255V1.639A1.639,1.639,0,0,1,1.639,0Z" fill="#f74455"/></g></g><g transform="translate(431.651 198.94)"><path d="M456.561,252.33c-8.3,8.265-8.866,49.8-17.264,71.361,0,0-57.247,22.38-83.339,28.953l9.057,9.545s77.565-18.643,87.4-25.189c15.036-10,23.776-50.476,25.209-70.723S465.239,243.693,456.561,252.33Z" transform="translate(-312.477 -247.591)" fill="#fec4ad"/><path d="M393.061,281.178l-6.364-1.5s-13.091-1.2-17.281-1.8-9.2,4.191-14.927,5.986a54.392,54.392,0,0,0-11.272,5.354h4.573l9.327,1.529,8.409-1.529s10.019-.932,15.787,0,14.442,0,14.442,0Z" transform="translate(-343.216 -174.627)" fill="#fec4ad"/></g><g transform="translate(415.956 112.694)"><path d="M415.821,293.082c-17.766,5.887-39.549,15.323-45.93,21.261s-18.947,14.36-8.811,46.975c6.477,20.837,34.713,126.4,34.713,126.4l14.306-2.546S405.016,424,399.924,378.248c-2.467-22.182-3.307-28.369-3.307-28.369l19.2-7.818c24.342-10,16-51.81,16-51.81Z" transform="translate(-293.625 -58.426)" fill="#fec4ad"/><path d="M397.341,302.273c-6.382,5.935-10.89,3.948-20.465,36.73-6.119,20.947-28.434,126.584-28.434,126.584l13.33,5.784c18.025-50.493,18-50.445,39.064-91.427a182.483,182.483,0,0,0,14.487-39.46l38.934-2.338c24.342-10.006,16-45.535,16-45.535S403.72,296.335,397.341,302.273Z" transform="translate(-314.913 -52.727)" fill="#fec4ad"/><path d="M484.782,302.143c0,17.056,12.347,35.9-1.962,55.3-12.941,17.541-88.615,11.982-88.615,11.982s10.675-18.486.539-32.481c-6.477-8.944-21.411-17.227-21.411-17.227l42.333-13.671,33.986-26.4Z" transform="translate(-254.861 -84.007)" fill="#5153e5"/><path d="M425.322,296.345c-2.29,7.781-18.527,7.627-30.512-6.9s-20.67-39.29-8.709-56.786,27.959,16.387,33.409,34.406S425.322,296.345,425.322,296.345Z" transform="translate(-237.863 -209.124)" fill="#b56537"/><path d="M383.5,236.013c-3.215,3.819-.14,18.363.423,20.523,1.092,4.177-1.027,9.927.184,10.9s1.815.181,3.873.665c.219.051,5.853,11.1,6.849,13.391,1.515,3.484,9.685-2.689,12.159-.072,1.792,1.894,1.87,5.409,2.478,9.767l-4.778,19.292,38.986-7.508s-11.381-16.951-14.285-24.7.723-16.224-.242-26.635-5.617-23.793-20.343-25.182C395.972,225.24,387.372,231.413,383.5,236.013Z" transform="translate(-233.818 -212.721)" fill="#fec4ad"/><path d="M388.989,379.59s9.9-2.174,26.117,0,40.252-2.375,40.252-2.375-9.849-50.783-9.245-73.818,2.426-47.882,2.426-47.882l-43.187-7.272s-10.456,3.74-16.363,20.605S383.986,358.476,388.989,379.59Z" transform="translate(-226.979 -159.775)" fill="#e4ddd7"/><path d="M405.318,245.311c-3.184,3.181-13.637,7.272-13.637,11.821s-8.183,43.641-7.73,51.821,3.46,39.272,1.641,48.818-1.819,30.71-1.819,30.71l7.907-1.819s-2.273-54.069,0-74.071,16.363-56.823,16.363-56.823l-5.3-1.819Z" transform="translate(-229.671 -166.846)" fill="#133a50"/><path d="M406.959,255.892l-12.985-.454s-4.368,20-4.368,58.516c0,32.42,6.641,76.132,6.641,76.132a79.782,79.782,0,0,0,23.7,4.341,56.466,56.466,0,0,0,24.032-4.546s-2.273-31.707,0-62.618,10.538-37.941,8.941-58.188c-2.648-33.58-33.034-21.82-33.034-21.82Z" transform="translate(-215.6 -166.971)" fill="#133a50"/><path d="M390.886,259.813s20.913-10,24.093-16.367c0,0,2.273,5.457,1.819,8.183s-20.455,21.82-20.455,21.82Z" transform="translate(-212.512 -171.346)" fill="#5153e5"/><path d="M429.514,313.171c5.129-25.81-8.6-33.4-23.612-42.6s-23.847-24.718-23.847-24.718,5.812-18.885,22.762-22.759,38.6,6.692,44.071,33.413c3.877,18.947,8.948,25.622,21.793,34.87,15.493,11.156,20.128,39.59,2.055,53.291-16.722,12.675-7.054-17.432-13.258-34.327-1.048-2.86-14.053,11.678-21.312,14.08C430.541,326.944,428.688,317.324,429.514,313.171Z" transform="translate(-233.818 -222.319)" fill="#b56537"/><path d="M394.337,245.311s-1.365,6.365,2.727,10l-7.726,10.91s-2.276-8.637,0-12.275S394.337,245.311,394.337,245.311Z" transform="translate(-218.689 -166.846)" fill="#0caaee"/><path d="M380.781,345.872s.416,3.842,6.573,5.576S397.7,348.1,397.7,348.1l1.362,12.552L379.4,374.507H363.073l8.835-9.8Z" transform="translate(-279.614 75.769)" fill="#133a50"/><path d="M374.251,340.777s-2.9,5.382,2.44,8.907,10.876-.044,10.876-.044l-2.522,12.371-46.429-14.524Z" transform="translate(-338.617 63.476)" fill="#133a50"/><g transform="translate(59.069 87.912)"><path d="M481.826,255.057c-4.488,10.822-17.664,46.364-26.062,67.921,0,0-61,19.544-87.1,26.117l9.057,9.545s74.405-11.395,90.544-18.913c16.367-7.627,31.87-60.093,34.624-73.863C506.871,245.962,486.672,243.372,481.826,255.057Z" transform="translate(-325.187 -248.079)" fill="#fec4ad"/><path d="M405.771,280.482l-6.365-1.495s-13.091-1.2-17.281-1.8-9.2,4.191-14.927,5.986a54.508,54.508,0,0,0-11.272,5.358H360.5l9.323,1.529,8.412-1.529s10.019-.932,15.787,0,14.442,0,14.442,0Z" transform="translate(-355.926 -177.972)" fill="#fec4ad"/></g></g><g transform="translate(266.398 39.468)"><path d="M311.34,202.25l-16.548,38.375,4.242,1.829,16.561-38.4a.858.858,0,0,0-.457-1.13q-1.336-.568-2.675-1.13A.858.858,0,0,0,311.34,202.25Z" transform="translate(-294.792 -198.762)" fill="#364469"/><path d="M301.625,213.726l-2.761-1.191,4.644-10.767a1.5,1.5,0,0,1,1.976-.785h0a1.505,1.505,0,0,1,.785,1.976Z" transform="translate(-284.968 -200.861)" fill="#364469"/></g><g transform="translate(234.003)"><path d="M365.585,250.3s-16.271,44.692-22.192,44.477c-4.447-.16-34.191-40.818-38.975-47.855s-14.077-23.578-14.077-23.578l12.1-3.764s20.834,25.09,26.182,29.594,7.6,6.194,7.6,6.194l6.194-16.923Z" transform="translate(-273.138 -116.232)" fill="#fec4ad"/><path d="M322.856,215.1c-6.552,1.74-8.815,7.573-11.627,19.605a239.319,239.319,0,0,1-6.911,23.393l21.547,10.036s3.887-21.394,5.32-34.908S328.576,213.577,322.856,215.1Z" transform="translate(-239.412 -127.592)" fill="#364469"/><path d="M357.185,349.781v15.828H326.768s1.143-5.73,15.568-8.371l2.123-7.457Z" transform="translate(-185.251 197.893)" fill="#133a50"/><path d="M338.349,349.781v15.828H307.932s1.143-5.73,15.568-8.371l2.123-7.457Z" transform="translate(-230.695 197.893)" fill="#133a50"/><path d="M385.231,256.269s5.535,50.322,5.726,104.385,3.416,214.695,3.416,214.695H372.54s-22.51-155.23-30.693-189.98-29.458-128.447-29.458-128.447Z" transform="translate(-219.942 -27.715)" fill="#133a50"/><path d="M348.872,202.717s1.413,11.006,2.573,16.606,2.126,8.549,2.979,10.258c1.894,3.791,13.5,15.336,13.5,15.336s-36.194,19.111-46.835,19.111-6.914-21.346-6.914-21.346,11.6-9.17,13.333-13.8,2.693-18.053,2.693-18.053Z" transform="translate(-217.15 -156.916)" fill="#fec4ad"/><path d="M356.638,311.3s-4.092,82.37-4.907,98.591,0,165.184,0,165.184-20.459.553-20.459,0S311.984,418,309.486,378.031s-1.038-87.339-4.355-92.867,8.955-28.816,8.955-28.816l28.956,7.723Z" transform="translate(-238.825 -27.527)" fill="#133a50"/><path d="M379.121,211.931l37.215,16.053s-7.357,30.12-7.767,42.091-4.7,106.535-4.7,106.535-11.425,17.7-66.4,10.651c-21.2-2.717-31.618-13.047-31.618-13.047s5.941-104.139,7.579-116.111,5.726-35.911,5.726-35.911l17.93-5.518,7.32,10.914Z" transform="translate(-235.714 -134.686)" fill="#e9f2f4"/><path d="M314.335,257.9" transform="translate(-215.247 -23.785)" fill="none" stroke="#aebfde" stroke-miterlimit="10" stroke-width="0.25"/><path d="M317.15,216.519" transform="translate(-208.456 -123.617)" fill="none" stroke="#aebfde" stroke-miterlimit="10" stroke-width="0.25"/><path d="M350.206,210.029,317.15,232.174l9.087,10.447,25.628-26.1Z" transform="translate(-208.457 -139.273)" fill="#364469"/><path d="M323.525,227.587l-9.018,7.241,1.7-18.153,3.375-4.744Z" transform="translate(-214.832 -134.686)" fill="#364469"/><g transform="translate(0 80.608)"><path d="M357.659,290.115,325.88,299.3a7.433,7.433,0,0,1-8.477-3.747l-30.949-66.123a4.948,4.948,0,0,1,3.28-7.068l31.5-9.306c5.74-.56,8.6.56,10.057,3.6l31.021,65.618C363.777,285.344,363.218,287.495,357.659,290.115Z" transform="translate(-283.807 -212.916)" fill="#97a3cc"/><path d="M357.359,290.62l-31.932,9.241a7.467,7.467,0,0,1-8.525-3.75l-31.065-66.416a4.965,4.965,0,0,1,3.307-7.091l31.666-9.337a7.681,7.681,0,0,1,8.835,3.757l31.28,66.222C362.4,286.337,360.8,289.64,357.359,290.62Z" transform="translate(-285.299 -212.755)" fill="url(#c)"/></g><g transform="translate(43.592 86.805)"><path d="M418.773,248.3s-29.546,49.043-33.488,50.732-54.919-31.5-64.488-37.7-17.585-12.279-18.78-13.265-4.047-10.978-3.942-10.944a15.557,15.557,0,0,0,1.338-1.761l1.266.669-.669-3.976,1.2-2.252,1.16.389.386-4.013,1.761-3.027s5.02,5.679,8.115,9.057a45.816,45.816,0,0,0,6.757,5.911,49.113,49.113,0,0,1,0-6.474c.283-1.126-.563-4.784-.563-4.784l4.938,2.966s4.351,13.726,5.2,14.811,3.1,9.528,14.92,14.033c21.169,8.064,32.922,11.1,32.922,11.1-.836-.123,19.274-36.651,19.274-36.651Z" transform="translate(-298.073 -194.419)" fill="#fec4ad"/><path d="M371.406,239.756c-2.809,13.357-22.366,42.508-22.366,42.508l-23.987-17.971s9.391-18.78,14.633-28.618c5.8-10.89,11.211-24.117,21.476-20.257C371.071,219.144,373.658,229.057,371.406,239.756Z" transform="translate(-232.984 -214.732)" fill="#364469"/></g><path d="M316.156,195.424c-2.556,2.317-6.8,6.975-6.46,9.7s.908,10.784,2.263,15.292,4,16.333,5.924,21.523,4.153,12.313,5.75,12.982,15.606-1.8,18.24-3.737,16.616-17.292,13.64-28.649c0,0,3.665.474,5.914-10.753.587-2.931-11.32-11.251-13.169-14.156-4.5-7.057-20.909-1.5-25.6-1.14S316.156,195.424,316.156,195.424Z" transform="translate(-226.487 -177.787)" fill="#fec4ad"/><path d="M314.655,216.631s.918-3.976,4.559-3.126,10.9.358,16.23-1.133a40.806,40.806,0,0,0,10.1-4.651s1.447,7.074,3.3,8.692,3.027,4.914,3.706,7.17,3.556,2.908,3.556,2.908,1.317-6.32,4.15-6.764c5.617-.88,4.935,6.7,2.624,9.166a46.611,46.611,0,0,1-4.74,4.361,28.927,28.927,0,0,0,1.8,5.614c1.133,2.362,4.607,5.651,4.607,5.651s1.478-15.073,5.044-21.987,3.348-19.629-6.951-22.308c0,0-2.351-11.483-15.882-10.907s-24.339,5.982-30.3,5.409-7.736-1.805-7.736-1.805-2.979,9.784.9,14.971A34.229,34.229,0,0,1,314.655,216.631Z" transform="translate(-231.446 -189.296)" fill="#7b2b1a"/></g><g transform="translate(417.603 232.16)"><path d="M376.222,338.03h-12.65l-12.649-80.7h9.617Z" transform="translate(-310.574 -257.326)" fill="#a6aeba"/><path d="M401.116,338.03H351.749l-12.649-80.7h49.368Z" transform="translate(-339.1 -257.326)" fill="#d2dceb"/><rect width="53.662" height="6.02" transform="translate(11.986 78.875)" fill="#d2dceb"/><rect width="67.66" height="6.02" transform="translate(65.648 78.875)" fill="#a6aeba"/><path d="M356.619,276.007c1.43,6.18.423,12.852-2.245,14.9s-5.993-1.29-7.419-7.467-.423-12.852,2.246-14.9S355.193,269.83,356.619,276.007Z" transform="translate(-321.717 -231.731)" fill="#a6aeba"/></g><g transform="translate(0 317.679)"><rect width="607.667" height="11.679" transform="translate(607.667 11.679) rotate(180)" fill="#dbdbdb"/><g transform="translate(64.848 11.679)"><path d="M235.732,518.752h5.86l47.785-232.945h-12.1Z" transform="translate(-235.732 -285.808)" fill="#dbdbdb"/><path d="M405.784,518.752h-5.86L352.139,285.808h12.1Z" transform="translate(45.114 -285.808)" fill="#dbdbdb"/></g></g></g><g transform="translate(565.503 126.15)" opacity="0.51"><rect width="17.613" height="37.042" transform="translate(17.202 53.885)" fill="#49e9c9"/><rect width="17.613" height="23.151" transform="translate(43.003 67.775)" fill="#49e9c9"/><rect width="17.613" height="34.137" transform="translate(68.804 56.789)" fill="#49e9c9"/><rect width="17.613" height="60.394" transform="translate(94.606 30.532)" fill="#49e9c9"/><path d="M402.832,183.486l17.613-6.159,17,6.159,51.6-41.523" transform="translate(-385.63 -141.963)" fill="none" stroke="#99e6cf" stroke-miterlimit="10" stroke-width="1"/><path d="M397.791,228.485H527.433V149.568" transform="translate(-397.791 -123.616)" fill="none" stroke="#e9f2f4" stroke-miterlimit="10" stroke-width="0.25"/></g></g></g></svg>