<?xml version="1.0" encoding="utf-8"?>
<!-- Generator: Adobe Illustrator 23.0.1, SVG Export Plug-In . SVG Version: 6.00 Build 0)  -->
<svg version="1.1" xmlns="http://www.w3.org/2000/svg" xmlns:xlink="http://www.w3.org/1999/xlink" x="0px" y="0px"
	 viewBox="0 0 500 500" style="enable-background:new 0 0 500 500;" xml:space="preserve">
<style type="text/css">
	.st0{fill:#200753;}
	.st1{fill:#080A08;}
	.st2{fill:#351165;}
	.st3{fill:#FFFFFF;}
	.st4{fill:#9B989B;}
	.st5{fill:#464E4F;}
	.st6{font-family:'Rubik-Light';}
	.st7{font-size:6.2906px;}
	.st8{font-size:4.932px;}
	.st9{font-family:'Rubik-Bold';}
	.st10{font-size:8.3363px;}
	.st11{fill:none;stroke:#FFFFFF;stroke-width:0.5242;stroke-miterlimit:10;}
	.st12{fill:#FF5851;}
	.st13{fill:#FFCF54;}
	.st14{fill:#06D1C3;}
	.st15{fill:#F2006E;}
	.st16{fill:none;stroke:#FFFFFF;stroke-width:0.1607;stroke-miterlimit:10;}
	.st17{fill:#D1D1D1;}
	.st18{fill:#EFF5F9;}
	.st19{fill:#D0D5D9;}
	.st20{fill:#828587;}
	.st21{fill:#FF9E54;}
	.st22{fill:#1F95E3;}
	.st23{fill:#1F5897;}
	.st24{fill:#E352AA;}
	.st25{font-size:7.9135px;}
	.st26{letter-spacing:1;}
	.st27{fill:none;stroke:#FFFFFF;stroke-width:0.9082;stroke-miterlimit:10;}
</style>
<g id="BACKGROUND">
	<rect class="st0" width="500" height="500"/>
</g>
<g id="OBJECTS">
	<g>
		<path class="st1" d="M449.4,397.7H35.2c-1.4,0-2.5-1.1-2.5-2.5l0,0c0-1.4,1.1-2.5,2.5-2.5h414.2c1.4,0,2.5,1.1,2.5,2.5l0,0
			C451.9,396.5,450.8,397.7,449.4,397.7z"/>
		<g>
			<path class="st1" d="M408.8,387.5H79.4V181.2c0-8.9,7.2-16.1,16.1-16.1h297.2c8.9,0,16.1,7.2,16.1,16.1V387.5z"/>
			<rect x="82.8" y="181.2" class="st2" width="322.5" height="196.1"/>
			<path class="st3" d="M405.3,181.1c0-7.4-6-13.4-13.4-13.4H96.2c-7.4,0-13.4,6-13.4,13.4v0.1h322.5V181.1z"/>
			<g>
				<rect x="42.2" y="386.6" class="st4" width="403.7" height="3.4"/>
				<rect x="204.9" y="386.6" class="st5" width="78.3" height="3.4"/>
				<path class="st5" d="M445.9,390c0,0-22.6,5.1-35.2,5.1c-12.5,0-343.7,0-343.7,0s-13.5-1-23.1-5.1H445.9z"/>
			</g>
			<text transform="matrix(1 0 0 1 121.2665 196.1409)" class="st3 st6 st7"> MYBLOG</text>
			<text transform="matrix(1 0 0 1 268.828 195.7161)" class="st3 st6 st8">NEWS</text>
			<text transform="matrix(1 0 0 1 290.5712 195.7161)" class="st3 st6 st8">ABOUT</text>
			<text transform="matrix(1 0 0 1 108.7538 196.6761)" class="st3 st9 st10">B</text>
			<rect x="108.3" y="190.6" class="st11" width="7.1" height="7.1"/>
			<g>
				<path class="st12" d="M392.3,174.4c0,1-0.8,1.9-1.9,1.9s-1.9-0.8-1.9-1.9s0.8-1.9,1.9-1.9S392.3,173.4,392.3,174.4z"/>
				<path class="st13" d="M387.1,174.4c0,1-0.8,1.9-1.9,1.9s-1.9-0.8-1.9-1.9s0.8-1.9,1.9-1.9S387.1,173.4,387.1,174.4z"/>
				<path class="st14" d="M381.8,174.4c0,1-0.8,1.9-1.9,1.9c-1,0-1.9-0.8-1.9-1.9s0.8-1.9,1.9-1.9
					C380.9,172.6,381.8,173.4,381.8,174.4z"/>
			</g>
			<rect x="336.3" y="187" class="st15" width="59.4" height="14.3"/>
			<line class="st16" x1="263.6" y1="192" x2="263.6" y2="195.7"/>
			<line class="st16" x1="287.6" y1="192" x2="287.6" y2="195.7"/>
			<path class="st17" d="M178.2,264h-32.5c-4.7,0-8.5-3.8-8.5-8.5l0,0c0-4.7,3.8-8.5,8.5-8.5h32.5c4.7,0,8.5,3.8,8.5,8.5l0,0
				C186.7,260.2,182.9,264,178.2,264z"/>
			<path class="st17" d="M206.1,242.8h-60.3c-4.7,0-8.5-3.8-8.5-8.5l0,0c0-4.7,3.8-8.5,8.5-8.5h60.3c4.7,0,8.5,3.8,8.5,8.5l0,0
				C214.6,239,210.7,242.8,206.1,242.8z"/>
			<path class="st17" d="M223.6,281.2h-84.4c-1,0-1.9-0.8-1.9-1.9l0,0c0-1,0.8-1.9,1.9-1.9h84.4c1,0,1.9,0.8,1.9,1.9l0,0
				C225.4,280.4,224.6,281.2,223.6,281.2z"/>
			<path class="st17" d="M223.6,290.6h-84.4c-1,0-1.9-0.8-1.9-1.9l0,0c0-1,0.8-1.9,1.9-1.9h84.4c1,0,1.9,0.8,1.9,1.9l0,0
				C225.4,289.7,224.6,290.6,223.6,290.6z"/>
			<path class="st17" d="M223.6,299.9h-84.4c-1,0-1.9-0.8-1.9-1.9l0,0c0-1,0.8-1.9,1.9-1.9h84.4c1,0,1.9,0.8,1.9,1.9l0,0
				C225.4,299.1,224.6,299.9,223.6,299.9z"/>
			<path class="st17" d="M223.6,309.3h-84.4c-1,0-1.9-0.8-1.9-1.9l0,0c0-1,0.8-1.9,1.9-1.9h84.4c1,0,1.9,0.8,1.9,1.9l0,0
				C225.4,308.5,224.6,309.3,223.6,309.3z"/>
			<path class="st17" d="M223.6,318.7h-84.4c-1,0-1.9-0.8-1.9-1.9l0,0c0-1,0.8-1.9,1.9-1.9h84.4c1,0,1.9,0.8,1.9,1.9l0,0
				C225.4,317.8,224.6,318.7,223.6,318.7z"/>
			<path class="st17" d="M223.6,328h-84.4c-1,0-1.9-0.8-1.9-1.9l0,0c0-1,0.8-1.9,1.9-1.9h84.4c1,0,1.9,0.8,1.9,1.9l0,0
				C225.4,327.2,224.6,328,223.6,328z"/>
			<path class="st15" d="M324.9,328.3h-83.1c-2.4,0-4.4-2-4.4-4.4v-93.8c0-2.4,2-4.4,4.4-4.4h83.1c2.4,0,4.4,2,4.4,4.4V324
				C329.3,326.4,327.3,328.3,324.9,328.3z"/>
			<text transform="matrix(1 0 0 1 341.6513 195.7161)" class="st3 st6 st8">SEARCH</text>
			<g>
				<path class="st14" d="M392,190c-1.2-1.2-3.2-1.2-4.4,0c-1.2,1.2-1.2,3.2,0,4.4c1.2,1.2,3.2,1.2,4.4,0
					C393.2,193.1,393.2,191.2,392,190z M388.3,193.7c-0.9-0.9-0.9-2.2,0-3.1c0.9-0.9,2.2-0.9,3.1,0c0.9,0.9,0.9,2.2,0,3.1
					S389.1,194.6,388.3,193.7z"/>
				
					<rect x="386" y="193" transform="matrix(0.7071 0.7072 -0.7072 0.7071 251.4668 -216.0367)" class="st14" width="1" height="5.1"/>
				
					<rect x="385" y="195.4" transform="matrix(0.7071 0.7072 -0.7072 0.7071 251.8873 -215.0214)" class="st13" width="1" height="2.2"/>
			</g>
			<path class="st18" d="M303.4,277.6c2.1-2.4,3.4-5.5,3.4-9c0-7.6-6.1-13.7-13.7-13.7c-3.8,0-7.3,1.6-9.7,4.1
				c-2.5-2.5-5.9-4.1-9.7-4.1c-7.6,0-13.7,6.1-13.7,13.7c0,3.5,1.3,6.6,3.4,9l-0.1,0l0.6,0.6c0,0,0,0,0.1,0.1l19.4,19.4l19-19
				c0.3-0.2,0.5-0.5,0.7-0.7L303.4,277.6L303.4,277.6z"/>
			<rect x="401.8" y="181.2" class="st14" width="3.5" height="103.9"/>
			<rect x="401.8" y="285" class="st15" width="3.5" height="92.3"/>
			<g>
				<polygon class="st13" points="380.2,211.7 380.2,244.7 405.5,244.7 418.6,257.7 418.6,244.7 418.6,222.5 418.6,211.7 				"/>
				<g>
					<rect x="385.5" y="220.9" class="st3" width="27.9" height="2.1"/>
					<rect x="385.5" y="227.6" class="st3" width="27.9" height="2.1"/>
					<rect x="385.5" y="234.2" class="st3" width="27.9" height="2.1"/>
				</g>
			</g>
			<g>
				<g>
					<g>
						<rect x="27.1" y="252.5" class="st19" width="134.2" height="102.5"/>
						<rect x="27.1" y="252.5" class="st18" width="134.2" height="8.8"/>
						<g>
							<path class="st12" d="M157.2,256.9c0,0.7-0.6,1.3-1.3,1.3c-0.7,0-1.3-0.6-1.3-1.3s0.6-1.3,1.3-1.3
								C156.6,255.6,157.2,256.2,157.2,256.9z"/>
							<path class="st13" d="M153.5,256.9c0,0.7-0.6,1.3-1.3,1.3c-0.7,0-1.3-0.6-1.3-1.3s0.6-1.3,1.3-1.3
								C152.9,255.6,153.5,256.2,153.5,256.9z"/>
							<path class="st14" d="M149.8,256.9c0,0.7-0.6,1.3-1.3,1.3c-0.7,0-1.3-0.6-1.3-1.3s0.6-1.3,1.3-1.3
								C149.2,255.6,149.8,256.2,149.8,256.9z"/>
						</g>
					</g>
					<rect x="32.6" y="265.9" class="st14" width="123.3" height="81.9"/>
				</g>
				<polygon class="st18" points="105.3,303.7 86.9,293.1 86.9,314.3 				"/>
				<rect x="70" y="345.4" class="st20" width="85.9" height="2.4"/>
				<rect x="32.6" y="345.4" class="st18" width="37.3" height="2.4"/>
			</g>
		</g>
		<g>
			<path class="st21" d="M375.8,354.5l-29.3-5.7l-17.2,28.4c0,0,3.5-0.2,6.9-1.1c3.3-0.9,12-17.1,12-17.1l5-0.6"/>
			<path class="st13" d="M387.9,407V396h32.6l-29.3-45.2c-2.2-3.4-6-5.5-10.1-5.5h-48.4l-18,32c0,0,5.9,0.8,8.1-1.2
				c2.2-2,12.6-14.8,14.8-15.1c2.2-0.2,20.7,20.2,20.7,20.2l-20.1-11.4c0,0-5.1,0.7-1.4,5.9c2.9,4,16.1,19,24.7,27.5
				c2.4,2.4,5.7,3.7,9.1,3.7H387.9z"/>
			<polygon class="st13" points="383.1,407.1 500,408.3 500,358.7 385.5,379.2 			"/>
		</g>
		<g>
			<path class="st21" d="M75.9,331.9l27,12.6l-2.8,33.1c0,0-2.7-2.2-4.9-5c-2.2-2.7,0.3-20.9,0.3-20.9l-3.7-3.4"/>
			<path class="st13" d="M35.2,367.2l6.5-8.9l-26.3-19.2l50.3-19.3c3.8-1.5,8.1-0.9,11.4,1.5l39.1,28.5l-4.3,36.5
				c0,0-5.2-2.9-5.9-5.8c-0.6-2.9-1.5-19.4-3.1-20.9c-1.7-1.5-28.7,4.2-28.7,4.2l22.9,2.7c0,0,3.7,3.6-2.4,5.6
				c-4.7,1.6-24.2,5.9-36.1,7.7c-3.4,0.5-6.8-0.3-9.5-2.3L35.2,367.2z"/>
			<polygon class="st13" points="0,290.3 0,342.3 39,370.1 53.6,346.2 			"/>
		</g>
		<g>
			<path class="st14" d="M425.8,324h-81.3c-5.2,0-9.5-4.3-9.5-9.5v-0.3c0-5.2,4.3-9.5,9.5-9.5h81.3c5.2,0,9.5,4.3,9.5,9.5v0.3
				C435.4,319.7,431.1,324,425.8,324z"/>
			<circle class="st3" cx="345.7" cy="314.3" r="6.1"/>
			<path class="st3" d="M425.6,310.1h-67.2c-0.5,0-0.9-0.4-0.9-0.9l0,0c0-0.5,0.4-0.9,0.9-0.9h67.2c0.5,0,0.9,0.4,0.9,0.9l0,0
				C426.5,309.7,426.1,310.1,425.6,310.1z"/>
			<path class="st3" d="M425.6,315.2h-67.2c-0.5,0-0.9-0.4-0.9-0.9l0,0c0-0.5,0.4-0.9,0.9-0.9h67.2c0.5,0,0.9,0.4,0.9,0.9l0,0
				C426.5,314.8,426.1,315.2,425.6,315.2z"/>
			<path class="st3" d="M425.6,320.4h-67.2c-0.5,0-0.9-0.4-0.9-0.9l0,0c0-0.5,0.4-0.9,0.9-0.9h67.2c0.5,0,0.9,0.4,0.9,0.9l0,0
				C426.5,320,426.1,320.4,425.6,320.4z"/>
		</g>
		<g>
			<path class="st22" d="M356.7,291.4h-41c-1.9,0-3.5-1.5-3.5-3.5v-32.6h47.9v32.6C360.1,289.8,358.6,291.4,356.7,291.4z"/>
			<path class="st23" d="M332.8,234.8l-20.4,20.4H360l-20.4-20.4C337.7,232.9,334.7,232.9,332.8,234.8z"/>
			<polygon class="st3" points="312.4,255.1 312.3,255.3 336.2,279.3 360.1,255.3 360,255.1 			"/>
			<path class="st3" d="M360.3,255.3h-48.1v-5.1c0-1.2,1-2.2,2.2-2.2h43.6c1.2,0,2.2,1,2.2,2.2V255.3z"/>
			<rect x="324.8" y="254.3" class="st24" width="22.7" height="1.8"/>
			<rect x="324.8" y="259.2" class="st24" width="22.7" height="1.8"/>
			<rect x="324.8" y="264.1" class="st24" width="22.7" height="1.8"/>
		</g>
	</g>
	<g>
		<path class="st15" d="M287.4,126h-77.3c-4.4,0-7.9-3.6-7.9-7.9l0,0c0-4.4,3.6-7.9,7.9-7.9h77.3c4.4,0,7.9,3.6,7.9,7.9l0,0
			C295.3,122.5,291.8,126,287.4,126z"/>
		<text transform="matrix(1 0 0 1 215.8774 120.4963)" class="st3 st6 st25 st26">RedPencilIt</text>
	</g>
	<line class="st27" x1="198.7" y1="143.5" x2="301.3" y2="143.5"/>
</g>
<g id="DESIGNED_BY_FREEPIK">
</g>
</svg>
