<svg xmlns="http://www.w3.org/2000/svg" xmlns:xlink="http://www.w3.org/1999/xlink" width="433.455" height="376.9" viewBox="0 0 433.455 376.9"><defs><filter id="a" x="0" y="0" width="433.455" height="376.9" filterUnits="userSpaceOnUse"><feOffset dy="7" input="SourceAlpha"/><feGaussianBlur stdDeviation="32" result="b"/><feFlood flood-opacity="0.161"/><feComposite operator="in" in2="b"/><feComposite in="SourceGraphic"/></filter></defs><g transform="matrix(1, 0, 0, 1, 0, 0)" filter="url(#a)"><path d="M388.579,195.241l-19.735-20.3a4.243,4.243,0,0,0-3.14-1.346,4.072,4.072,0,0,0-3.14,1.346l-136.8,137.806-49.785-49.785a4.336,4.336,0,0,0-6.279,0l-19.959,19.959a4.468,4.468,0,0,0,0,6.391l62.792,62.792c4.037,4.037,8.97,6.391,13.119,6.391,5.943,0,11.1-4.373,13.007-6.167h.112l149.916-150.7a4.793,4.793,0,0,0-.112-6.391Z" transform="translate(-52.4 -84.6)" fill="#3a3ca5"/></g></svg>