<svg xmlns="http://www.w3.org/2000/svg" width="384.001" height="517.007" viewBox="0 0 384.001 517.007">
  <g id="Group_787" data-name="Group 787" transform="translate(-330.328 -78)">
    <g id="Group_781" data-name="Group 781" transform="translate(330.328 168.845)">
      <g id="Group_770" data-name="Group 770" transform="translate(100.904 0)">
        <g id="Group_768" data-name="Group 768">
          <g id="Group_754" data-name="Group 754" transform="translate(80.711 401.406)">
            <path id="Path_1894" data-name="Path 1894" d="M712.66,1080.44l12.05,7.724,4.182,6.14a45.374,45.374,0,0,1-6.694,2.745c-2.409.6-21.5-1.441-21.5-1.441l-.518-11.181Z" transform="translate(-700.177 -1080.44)" fill="#273140"/>
          </g>
          <g id="Group_755" data-name="Group 755" transform="translate(15.612 407.147)">
            <path id="Path_1895" data-name="Path 1895" d="M584.973,1094.824l5.956,6.677s4.845,9.052,2.415,8.913-15.631.569-16.519-.945-7.9-6.788-8.815-7.816.02-9.522.02-9.522Z" transform="translate(-567.607 -1092.132)" fill="#273140"/>
          </g>
          <g id="Group_756" data-name="Group 756" transform="translate(6.951 208.492)">
            <path id="Path_1896" data-name="Path 1896" d="M610.048,711.3l-14.964,90.975L576,888.93l-17.006-.972,3.277-91.456s-12.257-84.056-12.3-108.919Z" transform="translate(-549.968 -687.583)" fill="#2e4661"/>
          </g>
          <g id="Group_757" data-name="Group 757" transform="translate(57.366 198.232)">
            <path id="Path_1897" data-name="Path 1897" d="M699.842,705.153,693,873.063l-17.5.81-9.307-85.315-13.552-75.287,36.17-46.582Z" transform="translate(-652.636 -666.689)" fill="#2e4661"/>
          </g>
          <g id="Group_760" data-name="Group 760" transform="translate(0 67.017)">
            <g id="Group_758" data-name="Group 758" transform="translate(15.79 25.025)">
              <path id="Path_1898" data-name="Path 1898" d="M567.968,450.438h0Z" transform="translate(-567.968 -450.438)" fill="none"/>
            </g>
            <g id="Group_759" data-name="Group 759">
              <path id="Path_1899" data-name="Path 1899" d="M631.211,480.75c-9.176-44.655,2.475-66.185-17.609-78.6,0,0-32.719-8.99-53.562,5.971q-.433.312-.861.632L551.6,424.5l-5.748,70.635s-16.079,92.733-7.545,93.481c9.67.848,54.061-19.839,62.491-19.35s34.215,5.107,58.555-3.179C680.225,558.986,640.387,525.4,631.211,480.75Z" transform="translate(-535.814 -399.476)" fill="#677b91"/>
            </g>
          </g>
          <g id="Group_761" data-name="Group 761" transform="translate(47.694 68.32)">
            <path id="Path_1900" data-name="Path 1900" d="M639.953,402.129l-6.364.238-.648,6.406,23.383,65.39,5.239-28.336-5.723-41.154Z" transform="translate(-632.94 -402.129)" fill="#fff"/>
          </g>
          <g id="Group_763" data-name="Group 763" transform="translate(55.777 72.337)">
            <g id="Group_762" data-name="Group 762">
              <path id="Path_1901" data-name="Path 1901" d="M668.981,455.178c-.049-2.585-.17-4.9-.383-6.778-1.47-12.979-10.735-29.916-10.735-29.916a67.271,67.271,0,0,1-.76-6.924l-7.7-1.248.495,8.04,3.324,3.475s8.076,30.9,8.23,43.286c.016,1.3,0,2.638-.049,3.99l3.3,9.226Z" transform="translate(-649.401 -410.311)" fill="#2e4661"/>
            </g>
          </g>
          <g id="Group_764" data-name="Group 764" transform="translate(64.915 165.483)">
            <path id="Path_1902" data-name="Path 1902" d="M677.021,600l-9.012,71.2,19,2.681,13.138-1.021L683.53,611.085Z" transform="translate(-668.009 -599.997)" fill="#fff"/>
          </g>
          <g id="Group_767" data-name="Group 767" transform="translate(20.605)">
            <g id="Group_765" data-name="Group 765" transform="translate(18.878 25.224)">
              <path id="Path_1903" data-name="Path 1903" d="M640.067,360.3l-13.086.539a65.372,65.372,0,0,1-.753-10.406c-3.763-.756-8.173-2.063-9.326-5.724a10.827,10.827,0,0,1-.292-3.6c.156-5-1.246-10.059.467-14.986.568-1.633.12-3.508.833-5.082,1.252-2.763,4.22-4.312,7.107-5.242,7.367-2.375,15.827-1.9,22.379,2.223a11.826,11.826,0,0,1,4.334,4.3c1.477,2.812,1.144,6.191.774,9.345q-.512,4.367-1.025,8.735c-.393,3.349-1.1,7.193-4.041,8.842-1.562.876-3.538.962-4.9,2.125C640.136,353.422,641.044,357.294,640.067,360.3Z" transform="translate(-616.218 -314.367)" fill="#e7caad"/>
            </g>
            <g id="Group_766" data-name="Group 766">
              <path id="Path_1904" data-name="Path 1904" d="M639.253,269.247a12.814,12.814,0,0,1-3.015-.56c-3.264-1.1-5.7-3.665-9.155-4.667a30.729,30.729,0,0,0-21.838,2.424c-6.13,3.212-14.718,4.976-20.1,9.051a17.408,17.408,0,0,0-5.084,6.655,26.228,26.228,0,0,0,3.8,27.474,37.469,37.469,0,0,0,4.759,4.525c3.511,2.874,7.728,6.44,12.089,7.073-.428-3.761-5.506-15.1-3.061-18.574,3.242-4.61,10.332-5.1,15.446-5.055,6.093.054,10.906-2.309,16.96-2.518,3.084-.107,6.609.217,8.8-1.96,2.528-2.517,7.668-10.265,8.763-13.567a8.08,8.08,0,0,0-2.394-8.3C643.258,269.494,641.3,269.436,639.253,269.247Z" transform="translate(-577.774 -263)" fill="#3a3029"/>
            </g>
          </g>
        </g>
        <g id="Group_769" data-name="Group 769" transform="translate(73.94 68.686)">
          <path id="Path_1905" data-name="Path 1905" d="M735.557,438.787,695.92,402.875l-9.531,8.037L719.2,465.706l14.809,1.421s4.267-15.253,5.147-16.871Z" transform="translate(-686.389 -402.875)" fill="#6d8299"/>
        </g>
      </g>
      <g id="Group_777" data-name="Group 777" transform="translate(0 137.495)">
        <g id="Group_771" data-name="Group 771" transform="translate(0 232.029)">
          <path id="Path_1906" data-name="Path 1906" d="M367.122,1016.912a28.223,28.223,0,1,0-16.944,53.842,29.129,29.129,0,0,0,8.773,1.4,28.257,28.257,0,0,0,8.171-55.24Z" transform="translate(-330.328 -1015.513)" fill="#e65154"/>
        </g>
        <g id="Group_773" data-name="Group 773" transform="translate(14.198 232.083)">
          <g id="Group_772" data-name="Group 772">
            <path id="Path_1907" data-name="Path 1907" d="M398.461,1030.8a27.371,27.371,0,0,0-16.624-13.836,29.714,29.714,0,0,0-7.157-1.345,28.307,28.307,0,0,1-13.817,52.819c-.539,0-1.08-.022-1.622-.055a30.176,30.176,0,0,0,5.652,2.423,29.133,29.133,0,0,0,8.773,1.4,28.412,28.412,0,0,0,24.795-41.4Z" transform="translate(-359.242 -1015.623)" fill="#a73b3d"/>
          </g>
        </g>
        <g id="Group_774" data-name="Group 774" transform="translate(20.915)">
          <path id="Path_1908" data-name="Path 1908" d="M545.829,592.353c-11.657-20.359-31.253-34.989-58.244-43.483s-51.551-7.766-73.02,2.153c-18.663,8.624-32.343,23.254-40.657,43.485a13.206,13.206,0,0,0,8.247,17.614l16.071,5.057a13.2,13.2,0,0,0,16.035-7.268c4.835-10.928,11.691-18.343,20.961-22.666,11.221-5.233,24.76-5.416,40.239-.545,15.432,4.857,26.277,12.908,32.232,23.928,5.927,10.986,6.518,24.229,1.757,39.359-6.562,20.855-16.958,33.025-30.9,36.171-14.677,3.311-35.292.7-61.31-7.776l-6.955-2.189a13.212,13.212,0,0,0-16.551,8.627l-19.06,60.568a13.2,13.2,0,0,0,8.627,16.551l16.3,5.13a13.2,13.2,0,0,0,16.551-8.627L428.5,719.215a.952.952,0,0,1,1.157-.63c30.632,8.746,56.09,9.345,75.668,1.779,20.822-8.047,35.891-26.462,44.787-54.733C558.977,637.471,557.535,612.817,545.829,592.353Z" transform="translate(-372.921 -543)" fill="#e65154"/>
        </g>
        <g id="Group_776" data-name="Group 776" transform="translate(88.4 0.003)">
          <g id="Group_775" data-name="Group 775">
            <path id="Path_1909" data-name="Path 1909" d="M615.773,592.356C604.116,572,584.52,557.367,557.529,548.873c-16.708-5.257-32.488-6.978-47.18-5.174a127.835,127.835,0,0,1,23.833,5.174c26.991,8.494,46.587,23.124,58.244,43.483,11.706,20.465,13.147,45.118,4.286,73.278-8.9,28.271-23.966,46.686-44.787,54.733a78.255,78.255,0,0,1-19.686,4.659c16.492,1.582,30.894.033,43.033-4.659,20.822-8.047,35.891-26.462,44.787-54.733C628.921,637.475,627.479,612.821,615.773,592.356Z" transform="translate(-510.349 -543.007)" fill="#a73b3d"/>
          </g>
        </g>
      </g>
      <g id="Group_778" data-name="Group 778" transform="translate(68.356 71.692)">
        <path id="Path_1910" data-name="Path 1910" d="M533.252,409l-18.783,5.789-44.938,76.6,3.064,14.809L530.81,535.3l8.171-15.831-36.768-28.086,22.469-30.64,8.681-49.024Z" transform="translate(-469.531 -408.997)" fill="#6d8299"/>
      </g>
      <g id="Group_779" data-name="Group 779" transform="translate(162.318 59.097)">
        <path id="Path_1911" data-name="Path 1911" d="M682.16,393.592l-9.536-10.243-9.192,2.553-2.553,9.192,8.171,1.532,7.675,1.549Z" transform="translate(-660.879 -383.349)" fill="#d6bba0"/>
      </g>
      <g id="Group_780" data-name="Group 780" transform="translate(131.086 183.729)">
        <path id="Path_1912" data-name="Path 1912" d="M603.191,637.154l9.173,1.888-1.473,5.4,7.945,9.3L607.944,657.7l-10.667-9.091Z" transform="translate(-597.277 -637.154)" fill="#e7caad"/>
      </g>
    </g>
    <g id="Group_786" data-name="Group 786" transform="translate(533.199 78.001)">
      <g id="Group_783" data-name="Group 783" transform="translate(13.577)">
        <g id="Group_782" data-name="Group 782">
          <path id="Path_1913" data-name="Path 1913" d="M782.827,157.243a19.56,19.56,0,0,0,24.166,29.934A28.378,28.378,0,0,0,858.3,193.4a34.414,34.414,0,0,0,60.244-29.162,28.373,28.373,0,0,0-14.3-54.866c.006-.21.014-.419.013-.63A19.555,19.555,0,0,0,870.49,95.377a34.41,34.41,0,0,0-63.851,11.446,28.371,28.371,0,0,0-23.811,50.421Zm31.041,1.487c-.039.04-.076.083-.115.123l-.029-.041Z" transform="translate(-771.112 -78.001)" fill="#dee2e6"/>
        </g>
      </g>
      <g id="Group_785" data-name="Group 785" transform="translate(0 119.244)">
        <g id="Group_784" data-name="Group 784">
          <path id="Path_1914" data-name="Path 1914" d="M788.784,338.428a11.987,11.987,0,0,1-17.46,12.484,9.4,9.4,0,0,1-18.41-3.33,8.608,8.608,0,1,1,.629-17.049,11.99,11.99,0,0,1,22.891-2.182A11.988,11.988,0,0,1,788.784,338.428Z" transform="translate(-743.463 -320.834)" fill="#ced4da"/>
        </g>
      </g>
    </g>
  </g>
</svg>
