<svg xmlns="http://www.w3.org/2000/svg" xmlns:xlink="http://www.w3.org/1999/xlink" width="289" height="289.5" viewBox="0 0 289 289.5">
  <defs>
    <filter id="Ellipse_80" x="0" y="0" width="289" height="289.5" filterUnits="userSpaceOnUse">
      <feOffset dy="-5" input="SourceAlpha"/>
      <feGaussianBlur stdDeviation="1.5" result="blur"/>
      <feFlood flood-color="#00e1b4" flood-opacity="0.961"/>
      <feComposite operator="in" in2="blur"/>
      <feComposite in="SourceGraphic"/>
    </filter>
  </defs>
  <g id="Services_Green" data-name="Services Green" transform="translate(-838.5 -875.5)">
    <g transform="matrix(1, 0, 0, 1, 838.5, 875.5)" filter="url(#Ellipse_80)">
      <circle id="Ellipse_80-2" data-name="Ellipse 80" cx="140" cy="140" r="140" transform="translate(4.5 9.5)" fill="#fff"/>
    </g>
    <g id="Group_654" data-name="Group 654" transform="translate(543.65 -304.622)">
      <path id="Path_1803" data-name="Path 1803" d="M1141.17,1635.494V1727.6a5.766,5.766,0,0,1-5.766,5.766h-87.561a5.767,5.767,0,0,1-5.766-5.766v-92.106a5.765,5.765,0,0,1,5.766-5.765H1135.4A5.765,5.765,0,0,1,1141.17,1635.494Z" transform="translate(-669.276 -360.825)" fill="#949494"/>
      <path id="Path_1804" data-name="Path 1804" d="M1278.2,1248.713l-2.119,3.668-2.119-3.668-2.119,3.668-2.119-3.668-2.118,3.668-2.119-3.668-2.119,3.668-2.119-3.668-2.119,3.668-2.12-3.668-2.119,3.668-2.119-3.668-2.122,3.668-2.118-3.668-2.119,3.668-2.12-3.668-2.119,3.668-2.119-3.668-2.119,3.668-2.119-3.668-2.119,3.668-2.119-3.668-2.119,3.668-2.119-3.668-2.119,3.668-2.119-3.668-2.119,3.668-2.119-3.668-2.119,3.668-2.119-3.668-2.119,3.668-2.119-3.668-2.119,3.668-2.119-3.668-2.119,3.668-2.119-3.668-2.118,3.668-2.12-3.668-2.119,3.668-2.119-3.668-2.119,3.668-2.119-3.668-2.119,3.668-2.119-3.668-2.122,3.668-2.119-3.668-2.119,3.668-2.119-3.668-2.119,3.668-2.119-3.668-2.119,3.668-2.119-3.668-2.119,3.668-2.119-3.668-2.119,3.668-2.119-3.668-2.119,3.668-2.119-3.668-2.119,3.668-2.119-3.668-2.119,3.668-2.119-3.668-2.119,3.668-2.121-3.668-2.119,3.668-2.119-3.668-2.119,3.668-1.936-3.351v113.782a9.731,9.731,0,0,1-7.4,9.445,12.525,12.525,0,0,0,2.646.284h136.392a12.492,12.492,0,0,0,12.492-12.492V1249.1Z" transform="translate(-749.604 0)" fill="#fbf9fa"/>
      <rect id="Rectangle_606" data-name="Rectangle 606" width="125.496" height="7.893" transform="translate(398.6 1343.311)" fill="#00e1b4"/>
      <rect id="Rectangle_607" data-name="Rectangle 607" width="125.023" height="2.342" transform="translate(398.759 1354.124)" fill="#d1d3d4"/>
      <rect id="Rectangle_608" data-name="Rectangle 608" width="125.023" height="2.342" transform="translate(398.759 1359.288)" fill="#d1d3d4"/>
      <rect id="Rectangle_609" data-name="Rectangle 609" width="27.963" height="2.343" transform="translate(464.898 1339.248)" fill="#d1d3d4"/>
      <rect id="Rectangle_610" data-name="Rectangle 610" width="125.182" height="4.352" transform="translate(398.6 1288.623)" fill="#949494"/>
      <path id="Rectangle_611" data-name="Rectangle 611" d="M22.957,0H39.048a22.96,22.96,0,0,1,22.96,22.96v0A22.961,22.961,0,0,1,39.047,45.921H22.963A22.963,22.963,0,0,1,0,22.958v0A22.957,22.957,0,0,1,22.957,0Z" transform="translate(398.6 1295.669)" fill="#d1d3d4"/>
      <rect id="Rectangle_612" data-name="Rectangle 612" width="44.682" height="4.684" transform="translate(464.898 1296.254)" fill="#d1d3d4"/>
      <rect id="Rectangle_613" data-name="Rectangle 613" width="44.682" height="4.684" transform="translate(464.898 1303.461)" fill="#d1d3d4"/>
      <rect id="Rectangle_614" data-name="Rectangle 614" width="27.128" height="4.684" transform="translate(464.898 1310.668)" fill="#d1d3d4"/>
      <rect id="Rectangle_615" data-name="Rectangle 615" width="38.704" height="19.125" transform="translate(471.296 1260.107)" fill="#00e1b4"/>
      <rect id="Rectangle_616" data-name="Rectangle 616" width="27.128" height="4.684" transform="translate(464.898 1332.305)" fill="#d1d3d4"/>
      <rect id="Rectangle_617" data-name="Rectangle 617" width="44.682" height="4.684" transform="translate(464.898 1318.252)" fill="#d1d3d4"/>
      <rect id="Rectangle_618" data-name="Rectangle 618" width="44.682" height="4.684" transform="translate(464.898 1325.459)" fill="#d1d3d4"/>
      <rect id="Rectangle_619" data-name="Rectangle 619" width="66.298" height="26.184" transform="translate(398.6 1260.107)" fill="#e8e8e8"/>
      <path id="Path_1805" data-name="Path 1805" d="M394.311,2933.405a29.809,29.809,0,0,1-.31,4.282,29.482,29.482,0,0,1-29.168,25.2c-.428,0-.851-.011-1.274-.028a29.478,29.478,0,1,1,30.751-29.45Z" transform="translate(0 -1567.502)" fill="#c6c6c6"/>
      <path id="Rectangle_620" data-name="Rectangle 620" d="M2.323,0h9.805a.4.4,0,0,1,.4.4V4.56a.029.029,0,0,1-.029.029H2.266A2.266,2.266,0,0,1,0,2.323v0A2.323,2.323,0,0,1,2.323,0Z" transform="translate(340.039 1363.678)" fill="#868e96"/>
      <path id="Path_1806" data-name="Path 1806" d="M645.82,3199.721a14.58,14.58,0,1,1-1.583-6.6A14.572,14.572,0,0,1,645.82,3199.721Z" transform="translate(-266.417 -1833.819)" fill="#5a6572"/>
      <path id="Path_1807" data-name="Path 1807" d="M3590,2954.575l-32.54,42.17a.582.582,0,0,0,.089.816l2.4,1.854a.581.581,0,0,0,.812-.122l32.54-42.169a.523.523,0,0,0,.069-.115l-3.278-2.53A.574.574,0,0,0,3590,2954.575Z" transform="translate(-3051.244 -1615.374)" fill="#677383"/>
      <path id="Path_1808" data-name="Path 1808" d="M2144.741,3482.994c.325-.405,1.662-.084,2.018-.468.627-.674.662-3.086.507-3.759-.25-1.077-1.523-.028-4.448-2.048-8.049-5.56-20.66-4.435-20.66-4.435a11.034,11.034,0,0,0-6.741-1.462s-11.014-6.249-20.643-4.523c-3.5.628-4.224-.855-4.9.022-.419.545-1.387,2.758-1.1,3.63.166.5,1.516.758,1.644,1.262.765,3.009-1.873,8.378,4.226,11.827s14.058,2.977,17.186-1.469c2.335-3.7,3.078-7.408,5.964-6.829.1.016.206.035.286.052s.182.043.279.07c2.867.67,2,4.355,2.6,8.688,1,5.342,8.055,9.067,15.032,8.455S2142.8,3485.417,2144.741,3482.994Zm-44.111.567a23.9,23.9,0,0,1-2.347-.626,14.536,14.536,0,0,1-1.939-.781c-.288-.142-.564-.292-.829-.456a6.749,6.749,0,0,1-2.393-2.343,5.672,5.672,0,0,1-.648-1.985,11.941,11.941,0,0,1,.187-4.141c.405-1.871.875-3.307,2.422-4.418a7.566,7.566,0,0,1,5.011-1.017,27.713,27.713,0,0,1,3.824.606c.579.125,1.177.275,1.776.449.294.085.588.175.881.272.607.2,1.209.425,1.79.677,2.338,1.011,4.341,2.436,4.981,4.313.247.723-.605,2.779-.944,3.667C2110.742,3482.128,2106.015,3484.73,2100.63,3483.561Zm29.7,6.458a12.011,12.011,0,0,1-2.539-.848,10.869,10.869,0,0,1-1.747-1.02c-.225-.162-.441-.329-.648-.5a9.6,9.6,0,0,1-2.981-4.4,9.172,9.172,0,0,1-.42-3.388c.059-.948.136-3.177.66-3.735,1.463-1.551,4.143-1.978,6.9-1.846a25.116,25.116,0,0,1,4.074.552c.539.117,1.085.242,1.624.383q.468.12.927.257a17.592,17.592,0,0,1,1.829.647,7.006,7.006,0,0,1,3.506,2.754c.951,1.655.782,3.161.377,5.034s-1.4,4.284-2.965,5.4C2136.713,3490.878,2133.5,3490.7,2130.332,3490.019Z" transform="translate(-1660.462 -2099.788)" fill="#515151"/>
      <path id="Path_1809" data-name="Path 1809" d="M2162.522,3513.764a6.757,6.757,0,0,1-2.393-2.343,5.661,5.661,0,0,1-.647-1.985l7.621-9.577a27.859,27.859,0,0,1,3.823.606c.579.125,1.177.275,1.777.45Z" transform="translate(-1727.468 -2131.854)" fill="#a1d0d6" opacity="0.19"/>
      <path id="Path_1810" data-name="Path 1810" d="M2234.421,3538.721a14.694,14.694,0,0,1-1.939-.781l10.232-13.033c.607.2,1.208.426,1.79.677Z" transform="translate(-1796.6 -2155.575)" fill="#a1d0d6" opacity="0.19"/>
      <path id="Path_1811" data-name="Path 1811" d="M2727.5,3635.542a9.6,9.6,0,0,1-2.98-4.4l7.137-8.968a25.307,25.307,0,0,1,4.074.551c.539.116,1.085.243,1.623.384Z" transform="translate(-2262.559 -2247.683)" fill="#a1d0d6" opacity="0.19"/>
    </g>
  </g>
</svg>
