<svg xmlns="http://www.w3.org/2000/svg" xmlns:xlink="http://www.w3.org/1999/xlink" width="152.969" height="83.864" viewBox="0 0 152.969 83.864"><defs><filter id="a" x="0" y="0" width="152.969" height="83.864" filterUnits="userSpaceOnUse"><feOffset dy="3" input="SourceAlpha"/><feGaussianBlur stdDeviation="3" result="b"/><feFlood flood-opacity="0.102"/><feComposite operator="in" in2="b"/><feComposite in="SourceGraphic"/></filter></defs><g transform="translate(-1226.031 -2937)"><g transform="translate(2766 3126.864) rotate(180)"><g transform="matrix(-1, 0, 0, -1, 1539.97, 189.86)" filter="url(#a)"><g transform="translate(143.97 71.86) rotate(180)" fill="#fff"><path d="M 67.90050506591797 65.19967651367188 L 61.52276229858398 59.62388229370117 L 61.38141632080078 59.50030136108398 L 61.19367218017578 59.50030136108398 L 6.000307559967041 59.50030136108398 C 2.967434644699097 59.50030136108398 0.4999983906745911 57.03288269042969 0.4999983906745911 54.00000762939453 L 0.4999983906745911 6.00029993057251 C 0.4999983906745911 2.967427253723145 2.967434644699097 0.5000091195106506 6.000307559967041 0.5000091195106506 L 128.9691009521484 0.5000091195106506 C 132.0014953613281 0.5000091195106506 134.468505859375 2.967427253723145 134.468505859375 6.00029993057251 L 134.468505859375 54.00000762939453 C 134.468505859375 57.03288269042969 132.0014953613281 59.50030136108398 128.9691009521484 59.50030136108398 L 74.60732269287109 59.50030136108398 L 74.41957855224609 59.50030136108398 L 74.27823638916016 59.62388229370117 L 67.90050506591797 65.19967651367188 Z" stroke="none"/><path d="M 67.90050506591797 64.53553009033203 L 73.94914245605469 59.24744415283203 L 74.23183441162109 59.00030136108398 L 74.60732269287109 59.00030136108398 L 128.9691009521484 59.00030136108398 C 131.7257843017578 59.00030136108398 133.968505859375 56.75717163085938 133.968505859375 54.00000762939453 L 133.968505859375 6.00029993057251 C 133.968505859375 3.243136405944824 131.7257843017578 1.000009059906006 128.9691009521484 1.000009059906006 L 6.000307559967041 1.000009059906006 C 3.243125677108765 1.000009059906006 0.9999983906745911 3.243136405944824 0.9999983906745911 6.00029993057251 L 0.9999983906745911 54.00000762939453 C 0.9999983906745911 56.75717163085938 3.243125677108765 59.00030136108398 6.000307559967041 59.00030136108398 L 61.19367218017578 59.00030136108398 L 61.56916046142578 59.00030136108398 L 61.85185241699219 59.24744415283203 L 67.90050506591797 64.53553009033203 M 67.90050506591797 65.86380767822266 L 61.19367218017578 60.00030136108398 L 6.000307559967041 60.00030136108398 C 2.6865074634552 60.00030136108398 -1.615767018847691e-06 57.31380844116211 -1.615767018847691e-06 54.00000762939453 L -1.615767018847691e-06 6.00029993057251 C -1.615767018847691e-06 2.686500072479248 2.6865074634552 9.115323337027803e-06 6.000307559967041 9.115323337027803e-06 L 128.9691009521484 9.115323337027803e-06 C 132.2829132080078 9.115323337027803e-06 134.968505859375 2.686500072479248 134.968505859375 6.00029993057251 L 134.968505859375 54.00000762939453 C 134.968505859375 57.31380844116211 132.2829132080078 60.00030136108398 128.9691009521484 60.00030136108398 L 74.60732269287109 60.00030136108398 L 67.90050506591797 65.86380767822266 Z" stroke="none" fill="#00e1b4"/></g></g></g><text transform="translate(1304 2984)" fill="#343a40" font-size="16" font-family="Sahel"><tspan x="-45.59" y="0">آپلود مستندات</tspan></text></g></svg>