<svg xmlns="http://www.w3.org/2000/svg" xmlns:xlink="http://www.w3.org/1999/xlink" width="167.819" height="91.111" viewBox="0 0 167.819 91.111"><defs><filter id="a" x="0" y="0" width="167.819" height="91.111" filterUnits="userSpaceOnUse"><feOffset dy="3" input="SourceAlpha"/><feGaussianBlur stdDeviation="3" result="b"/><feFlood flood-opacity="0.102"/><feComposite operator="in" in2="b"/><feComposite in="SourceGraphic"/></filter></defs><g transform="translate(-1226.031 -2937)"><g transform="translate(1384.85 3016.111) rotate(180)"><g transform="matrix(-1, 0, 0, -1, 158.82, 79.11)" filter="url(#a)"><g transform="translate(158.82 79.11) rotate(180)" fill="#fff"><path d="M 75.37142944335938 72.44644165039062 L 68.25631713867188 66.22537994384766 L 68.11495971679688 66.10179901123047 L 67.92720031738281 66.10179901123047 L 6.000298500061035 66.10179901123047 C 2.967418432235718 66.10179901123047 0.4999984800815582 63.63438034057617 0.4999984800815582 60.60150146484375 L 0.4999984800815582 6.000301837921143 C 0.4999984800815582 2.967421770095825 2.967418432235718 0.5000016689300537 6.000298500061035 0.5000016689300537 L 143.8191223144531 0.5000016689300537 C 146.8519744873047 0.5000016689300537 149.3193969726562 2.967421770095825 149.3193969726562 6.000301837921143 L 149.3193969726562 60.60150146484375 C 149.3193969726562 63.63438034057617 146.8519744873047 66.10179901123047 143.8191223144531 66.10179901123047 L 82.81643676757812 66.10179901123047 L 82.62870025634766 66.10179901123047 L 82.48733520507812 66.22537994384766 L 75.37142944335938 72.44644165039062 Z" stroke="none"/><path d="M 75.37142944335938 71.78230285644531 L 82.15825653076172 65.84893798828125 L 82.44094085693359 65.60179901123047 L 82.81643676757812 65.60179901123047 L 143.8191223144531 65.60179901123047 C 146.5762786865234 65.60179901123047 148.8193969726562 63.35868072509766 148.8193969726562 60.60150146484375 L 148.8193969726562 6.000301837921143 C 148.8193969726562 3.24312162399292 146.5762786865234 1.000001668930054 143.8191223144531 1.000001668930054 L 6.000298500061035 1.000001668930054 C 3.243118524551392 1.000001668930054 0.9999985098838806 3.24312162399292 0.9999985098838806 6.000301837921143 L 0.9999985098838806 60.60150146484375 C 0.9999985098838806 63.35868072509766 3.243118524551392 65.60179901123047 6.000298500061035 65.60179901123047 L 67.92720031738281 65.60179901123047 L 68.30271911621094 65.60179901123047 L 68.58541870117188 65.84898376464844 L 75.37142944335938 71.78230285644531 M 75.37139892578125 73.11060333251953 L 67.92720031738281 66.60179901123047 L 6.000298500061035 66.60179901123047 C 2.686498403549194 66.60179901123047 -1.513671918473847e-06 63.91530227661133 -1.513671918473847e-06 60.60150146484375 L -1.513671918473847e-06 6.000301837921143 C -1.513671918473847e-06 2.686501741409302 2.686498403549194 1.666259777266532e-06 6.000298500061035 1.666259777266532e-06 L 143.8191223144531 1.666259777266532e-06 C 147.1329040527344 1.666259777266532e-06 149.8193969726562 2.686501741409302 149.8193969726562 6.000301837921143 L 149.8193969726562 60.60150146484375 C 149.8193969726562 63.91530227661133 147.1329040527344 66.60179901123047 143.8191223144531 66.60179901123047 L 82.81643676757812 66.60179901123047 L 75.37139892578125 73.11060333251953 Z" stroke="none" fill="#00e1b4"/></g></g></g><text transform="translate(1309.547 2989.531)" fill="#343a40" font-size="16" font-family="Sahel"><tspan x="-62.234" y="0">ثبت نهایی و پرداخت</tspan></text></g></svg>