<svg xmlns="http://www.w3.org/2000/svg" xmlns:xlink="http://www.w3.org/1999/xlink" width="761.667" height="478.333" viewBox="0 0 761.667 478.333"><defs><filter id="a" x="723.667" y="192.333" width="38" height="38" filterUnits="userSpaceOnUse"><feOffset dy="5" input="SourceAlpha"/><feGaussianBlur stdDeviation="3" result="b"/><feFlood flood-color="#00e1b4" flood-opacity="0.161"/><feComposite operator="in" in2="b"/><feComposite in="SourceGraphic"/></filter><filter id="c" x="294.667" y="194.333" width="38" height="38" filterUnits="userSpaceOnUse"><feOffset dy="5" input="SourceAlpha"/><feGaussianBlur stdDeviation="3" result="d"/><feFlood flood-color="#00e1b4" flood-opacity="0.161"/><feComposite operator="in" in2="d"/><feComposite in="SourceGraphic"/></filter><filter id="e" x="294.667" y="440.333" width="38" height="38" filterUnits="userSpaceOnUse"><feOffset dy="5" input="SourceAlpha"/><feGaussianBlur stdDeviation="3" result="f"/><feFlood flood-color="#00e1b4" flood-opacity="0.161"/><feComposite operator="in" in2="f"/><feComposite in="SourceGraphic"/></filter></defs><g transform="translate(631.501 -685.566) rotate(90)"><g transform="translate(589.732 328)"><path d="M430.164,0H0" transform="translate(304.665 -439.499) rotate(90)" fill="none" stroke="#ffaa5a" stroke-width="1"/><path d="M246.076.845H0" transform="translate(304.333 -10.512)" fill="none" stroke="#ffaa5a" stroke-width="1"/><path d="M208.5,19.011H0" transform="translate(95.833 -458.678)" fill="none" stroke="#ffaa5a" stroke-width="1"/><path d="M313,0H0" transform="translate(550.665 -9.499) rotate(90)" fill="none" stroke="#ffaa5a" stroke-width="1"/><g transform="matrix(0, -1, 1, 0, 95.83, 303.5)" filter="url(#a)"><circle cx="10" cy="10" r="10" transform="translate(752.67 196.33) rotate(90)" fill="#ff5a5d"/></g><g transform="matrix(0, -1, 1, 0, 95.83, 303.5)" filter="url(#c)"><circle cx="10" cy="10" r="10" transform="translate(323.67 198.33) rotate(90)" fill="#ff5a5d"/></g><g transform="matrix(0, -1, 1, 0, 95.83, 303.5)" filter="url(#e)"><circle cx="10" cy="10" r="10" transform="translate(323.67 444.33) rotate(90)" fill="#ff5a5d"/></g></g></g></svg>