<svg xmlns="http://www.w3.org/2000/svg" xmlns:xlink="http://www.w3.org/1999/xlink" width="807.208" height="865.616" viewBox="0 0 807.208 865.616">
  <defs>
    <filter id="Path_1875" x="40" y="0" width="767.208" height="687.616" filterUnits="userSpaceOnUse">
      <feOffset dy="3" input="SourceAlpha"/>
      <feGaussianBlur stdDeviation="10" result="blur"/>
      <feFlood flood-color="#d25f5f" flood-opacity="0.302"/>
      <feComposite operator="in" in2="blur"/>
      <feComposite in="SourceGraphic"/>
    </filter>
    <filter id="Path_1875-2" x="0" y="178" width="767.208" height="687.616" filterUnits="userSpaceOnUse">
      <feOffset dy="3" input="SourceAlpha"/>
      <feGaussianBlur stdDeviation="10" result="blur-2"/>
      <feFlood flood-color="#d25f5f" flood-opacity="0.302"/>
      <feComposite operator="in" in2="blur-2"/>
      <feComposite in="SourceGraphic"/>
    </filter>
  </defs>
  <g id="Group_737" data-name="Group 737" transform="translate(324.193 -2626.959) rotate(2)">
    <g id="Group_749" data-name="Group 749" transform="translate(1469.827 3048.878) rotate(112)" opacity="0.45">
      <g transform="matrix(-0.41, -0.91, 0.91, -0.41, 255.44, 1732.61)" filter="url(#Path_1875)">
        <path id="Path_1875-3" data-name="Path 1875" d="M515.612,0h0c-13.04,240.522-231.228,358.118-231.228,358.118L479.508,584.03S726.393,451,710.646,178.487Z" transform="matrix(-0.41, 0.91, -0.91, -0.41, 892.88, 4.75)" fill="#f8f9fa" opacity="0.83"/>
      </g>
      <line id="Line_40" data-name="Line 40" x2="114.107" y2="114.107" transform="translate(439.934 1033.495)" fill="none" stroke="#ced4da" stroke-width="1"/>
      <line id="Line_41" data-name="Line 41" x2="114.107" y2="114.107" transform="translate(431.157 1077.382)" fill="none" stroke="#ced4da" stroke-width="1"/>
      <line id="Line_42" data-name="Line 42" x2="114.107" y2="114.107" transform="translate(416.11 1115)" fill="none" stroke="#ced4da" stroke-width="1"/>
      <line id="Line_43" data-name="Line 43" x2="114.107" y2="114.107" transform="translate(396.047 1150.11)" fill="none" stroke="#ced4da" stroke-width="1"/>
      <line id="Line_44" data-name="Line 44" x2="114.107" y2="114.107" transform="translate(374.73 1181.458)" fill="none" stroke="#ced4da" stroke-width="1"/>
      <line id="Line_45" data-name="Line 45" x2="114.107" y2="114.107" transform="translate(350.906 1216.567)" fill="none" stroke="#ced4da" stroke-width="1"/>
      <line id="Line_46" data-name="Line 46" x2="115.855" y2="115.599" transform="translate(281.94 1265.47)" fill="none" stroke="#ced4da" stroke-width="1"/>
      <line id="Line_47" data-name="Line 47" x2="114.107" y2="114.107" transform="translate(317.05 1239.138)" fill="none" stroke="#ced4da" stroke-width="1"/>
    </g>
    <g id="Group_744" data-name="Group 744" transform="translate(1436.064 3228.166) rotate(112)">
      <g transform="matrix(-0.41, -0.91, 0.91, -0.41, 76.56, 1768.47)" filter="url(#Path_1875-2)">
        <path id="Path_1875-4" data-name="Path 1875" d="M515.612,0h0c-13.04,240.522-231.228,358.118-231.228,358.118L479.508,584.03S726.393,451,710.646,178.487Z" transform="matrix(-0.41, 0.91, -0.91, -0.41, 852.88, 182.75)" fill="#f8f9fa" opacity="0.83"/>
      </g>
      <line id="Line_40-2" data-name="Line 40" x2="114.107" y2="114.107" transform="translate(439.934 1033.495)" fill="none" stroke="#ced4da" stroke-width="1"/>
      <line id="Line_41-2" data-name="Line 41" x2="114.107" y2="114.107" transform="translate(431.157 1077.382)" fill="none" stroke="#ced4da" stroke-width="1"/>
      <line id="Line_42-2" data-name="Line 42" x2="114.107" y2="114.107" transform="translate(416.11 1115)" fill="none" stroke="#ced4da" stroke-width="1"/>
      <line id="Line_43-2" data-name="Line 43" x2="114.107" y2="114.107" transform="translate(396.047 1150.11)" fill="none" stroke="#ced4da" stroke-width="1"/>
      <line id="Line_44-2" data-name="Line 44" x2="114.107" y2="114.107" transform="translate(374.73 1181.458)" fill="none" stroke="#ced4da" stroke-width="1"/>
      <line id="Line_45-2" data-name="Line 45" x2="114.107" y2="114.107" transform="translate(350.906 1216.567)" fill="none" stroke="#ced4da" stroke-width="1"/>
      <line id="Line_46-2" data-name="Line 46" x2="115.855" y2="115.599" transform="translate(281.94 1265.47)" fill="none" stroke="#ced4da" stroke-width="1"/>
      <line id="Line_47-2" data-name="Line 47" x2="114.107" y2="114.107" transform="translate(317.05 1239.138)" fill="none" stroke="#ced4da" stroke-width="1"/>
    </g>
  </g>
</svg>
