<svg id="Layer_1" data-name="Layer 1" xmlns="http://www.w3.org/2000/svg" xmlns:xlink="http://www.w3.org/1999/xlink" viewBox="0 0 722.96 179.84"><defs><style>.cls-1{isolation:isolate;}.cls-2{fill:#2e3749;}.cls-3{fill:url(#linear-gradient);}</style><linearGradient id="linear-gradient" x1="4" y1="97.08" x2="299.92" y2="97.08" gradientTransform="matrix(1, 0, 0, -1, 0, 192)" gradientUnits="userSpaceOnUse"><stop offset="0" stop-color="#f85032"/><stop offset="1" stop-color="#e73827"/></linearGradient></defs><title>Asset 2</title><g id="Layer_1-2" data-name="Layer 1-2"><g class="cls-1"><path class="cls-2" d="M359.28,115H345.2L332.88,96h-2.64v19H318.48V59.88H341c5.84,0,10.4,1.76,13.52,5.36A18.25,18.25,0,0,1,359.36,78c0,8.4-4.8,15.6-13.76,17.52Zm-29-44.8V85.72h9.92c4.24,0,7-3.84,7-7.76s-2.56-7.76-6.64-7.76Z" transform="translate(-4 -5)"/><path class="cls-2" d="M400.72,108.2c-3.44,5-9.12,7.6-17,7.6a19.39,19.39,0,0,1-13.92-5.44c-3.76-3.68-5.6-8.4-5.6-14.16s1.84-10.4,5.6-14a19.32,19.32,0,0,1,13.92-5.36,18.27,18.27,0,0,1,13.6,5.52q5.52,5.4,5.52,14.16c0,1-.08,2.16-.16,3.44H375.28c.56,4.08,4.8,6.24,9.2,6.24,3.6,0,6.32-1.2,8.16-3.52ZM391.6,93c-1.12-8.48-14.4-8.56-16.16,0Z" transform="translate(-4 -5)"/><path class="cls-2" d="M448.32,115h-11v-4.64c-1.84,3.44-6.16,5.44-11,5.44a17.41,17.41,0,0,1-12.8-5.36c-3.52-3.6-5.28-8.32-5.28-14q0-8.76,5.28-14.16a17.49,17.49,0,0,1,12.8-5.44c4.8,0,9.12,2.08,11,5.36V57.32h11ZM428.4,87.32a8.56,8.56,0,0,0-8.64,8.88c0,5.44,3.84,9,8.64,9a8.7,8.7,0,0,0,8.64-9C437,90.76,433.2,87.32,428.4,87.32Z" transform="translate(-4 -5)"/><path class="cls-2" d="M459.92,115V59.88h22.64c5.92,0,10.4,1.76,13.52,5.36A18.48,18.48,0,0,1,500.72,78a18.48,18.48,0,0,1-4.64,12.72C493,94.2,488.48,96,482.56,96H471.68v19Zm11.76-44.8V85.72H482c4.24,0,7-3.84,7-7.76s-2.56-7.76-6.64-7.76Z" transform="translate(-4 -5)"/><path class="cls-2" d="M540.64,108.2c-3.44,5-9.12,7.6-17,7.6a19.39,19.39,0,0,1-13.92-5.44c-3.76-3.68-5.6-8.4-5.6-14.16s1.84-10.4,5.6-14a19.32,19.32,0,0,1,13.92-5.36,18.27,18.27,0,0,1,13.6,5.52q5.52,5.4,5.52,14.16c0,1-.08,2.16-.16,3.44H515.2c.56,4.08,4.8,6.24,9.2,6.24,3.6,0,6.32-1.2,8.16-3.52ZM531.52,93c-1.12-8.48-14.4-8.56-16.16,0Z" transform="translate(-4 -5)"/><path class="cls-2" d="M561.44,115H550.32V77.64h11.12v5.44a12.47,12.47,0,0,1,10.8-6.24c8.64,0,13.68,5.36,13.68,15.84V115H574.8V95.08c0-4.8-2.56-7.44-6.48-7.44-4.56,0-6.88,2.56-6.88,7.6Z" transform="translate(-4 -5)"/><path class="cls-2" d="M630.08,84.76l-9,6.48a8,8,0,0,0-7.2-3.76A9.26,9.26,0,0,0,607.36,90a7.91,7.91,0,0,0-2.8,6.24,8.41,8.41,0,0,0,2.8,6.48,9.26,9.26,0,0,0,6.48,2.48,8,8,0,0,0,7.2-3.76l9,6.4a19.51,19.51,0,0,1-16.24,8,20.47,20.47,0,0,1-14.32-5.52,18.33,18.33,0,0,1-6-14.08,17.87,17.87,0,0,1,6-13.92,20.76,20.76,0,0,1,14.32-5.44A19.65,19.65,0,0,1,630.08,84.76Z" transform="translate(-4 -5)"/><path class="cls-2" d="M650.08,63.8a6.7,6.7,0,0,1-6.8,6.56,6.53,6.53,0,1,1,0-13A6.63,6.63,0,0,1,650.08,63.8ZM648.8,77.64V115h-11V77.64Z" transform="translate(-4 -5)"/><path class="cls-2" d="M659,57.32h11.12V115H659Z" transform="translate(-4 -5)"/><path class="cls-2" d="M681.76,59.88h11.68V115H681.76Z" transform="translate(-4 -5)"/><path class="cls-2" d="M719.12,77.64H727v8.8h-7.84V115h-11V86.44h-6.8v-8.8h6.8V63.32h11Z" transform="translate(-4 -5)"/></g><path class="cls-3" d="M227.92,149H176V126.92A71.9,71.9,0,0,0,227.92,149Zm0-144H176V27.08A71.9,71.9,0,0,1,227.92,5Zm69.36,169.32L291.22,170,176,88.71v60.52l109.24,33.61,6.6,2A7.51,7.51,0,0,0,298,177.5,7.43,7.43,0,0,0,297.28,174.32ZM227.92,5H176V61.39h36.8a13.6,13.6,0,0,1,.74,27.19c-.25,0-.49,0-.74,0H176V149h51.92a72,72,0,1,0,0-144ZM83,149h86V5H83ZM76,5,4,77l72,72Z" transform="translate(-4 -5)"/></g></svg>