<svg id="Layer_1" data-name="Layer 1" xmlns="http://www.w3.org/2000/svg" viewBox="0 0 356.6 207.33"><defs><style>.cls-1{fill:#ff5a5d;}.cls-2{fill:#453d3d;}</style></defs><title>logo-last</title><path class="cls-1" d="M102.17,138.1H67L36.18,90.5h-6.6v47.6H.18V.3h56.4c14.6,0,26,4.4,33.8,13.4q12,13.2,12,31.8c0,21-12,39-34.4,43.8ZM29.58,26.1V64.9h24.8c10.6,0,17.4-9.6,17.4-19.4,0-9.6-6.4-19.4-16.6-19.4Z"/><path class="cls-1" d="M101.82,138V0h89V26h-58V57h51V83h-51v29h58v26Z"/><path class="cls-1" d="M190.82,0V138l117-69Zm81,54.26,25,14.74-25,14.74Z"/><path d="M330.82,69"/><path class="cls-2" d="M0,206.33v-68.9H28.3c7.4,0,13,2.2,16.9,6.7a24.69,24.69,0,0,1,0,31.8c-3.9,4.4-9.5,6.6-16.9,6.6H14.7v23.8Zm14.7-56v19.4H27.6c5.3,0,8.7-4.8,8.7-9.7s-3.2-9.7-8.3-9.7Z"/><path class="cls-2" d="M56.4,206.33v-68.9H100v12.9H71V166H96.4v12.7H71v14.7h29.9v12.9Z"/><path class="cls-2" d="M160.7,137.43v68.9H147.6l-24-41.7v41.7H109v-68.9h13.4l23.6,41.2v-41.2Z"/><path class="cls-2" d="M231.5,192.23c-6.1,9.3-16.7,15.1-29,15.1A33,33,0,0,1,177.8,197a36.64,36.64,0,0,1,0-50.1,33,33,0,0,1,24.7-10.3,34.55,34.55,0,0,1,28.7,14.6l-11.9,8.2q-6.15-9-16.8-9a18.32,18.32,0,0,0-14.2,6.3,21.65,21.65,0,0,0-5.7,15.3,22,22,0,0,0,5.7,15.3,18.56,18.56,0,0,0,14.2,6.2,20.91,20.91,0,0,0,17.2-9.5Z"/><path class="cls-2" d="M236.8,137.43h14.6v68.9H236.8Z"/><path class="cls-2" d="M262.6,206.33v-68.9h14.7v56h25.8v12.9Z"/><path class="cls-1" d="M322.4,142.33a8.38,8.38,0,0,1-8.51,8.2,8.48,8.48,0,0,1-8.7-8.2c0-4.5,3.9-8.1,8.7-8.1A8.3,8.3,0,0,1,322.4,142.33Zm-1.61,17.3v46.7H307v-46.7Z"/><path class="cls-1" d="M346.79,159.63h9.81v11h-9.81v35.7H333v-35.7h-8.5v-11H333v-17.9h13.8Z"/></svg>