<svg id="Layer_1" data-name="Layer 1" xmlns="http://www.w3.org/2000/svg" xmlns:xlink="http://www.w3.org/1999/xlink" viewBox="0 0 703 179.84"><defs><style>.cls-1{fill:#2e3749;}.cls-2{fill:url(#linear-gradient);}</style><linearGradient id="linear-gradient" y1="92.08" x2="295.92" y2="92.08" gradientTransform="matrix(1, 0, 0, -1, 0, 182)" gradientUnits="userSpaceOnUse"><stop offset="0" stop-color="#f85032"/><stop offset="0.32" stop-color="#fa5340"/><stop offset="1" stop-color="#ff5859"/></linearGradient></defs><title>logo-2</title><g id="Layer_1-2" data-name="Layer 1-2"><path class="cls-1" d="M355.28,110H341.2L328.88,91h-2.64v19H314.48V54.88H337c5.84,0,10.4,1.76,13.52,5.36A18.25,18.25,0,0,1,355.36,73c0,8.4-4.8,15.6-13.76,17.52Zm-29-44.8V80.72h9.92c4.24,0,7-3.84,7-7.76s-2.56-7.76-6.64-7.76Z" transform="translate(0 0)"/><path class="cls-1" d="M394.72,103.2c-3.44,5-9.12,7.6-17,7.6a19.4,19.4,0,0,1-13.92-5.44c-3.76-3.68-5.6-8.4-5.6-14.16s1.84-10.4,5.6-14a19.31,19.31,0,0,1,13.92-5.36,18.27,18.27,0,0,1,13.6,5.52q5.52,5.4,5.52,14.16c0,1-.08,2.16-.16,3.44h-27.4c.56,4.08,4.8,6.24,9.2,6.24,3.6,0,6.32-1.2,8.16-3.52ZM385.6,88c-1.12-8.48-14.4-8.56-16.16,0Z" transform="translate(0 0)"/><path class="cls-1" d="M440.32,110h-11v-4.64c-1.84,3.44-6.16,5.44-11,5.44a17.43,17.43,0,0,1-12.8-5.36c-3.52-3.6-5.28-8.32-5.28-14q0-8.76,5.28-14.16a17.51,17.51,0,0,1,12.8-5.44c4.8,0,9.12,2.08,11,5.36V52.32h11ZM420.4,82.32a8.56,8.56,0,0,0-8.65,8.47c0,.14,0,.27,0,.41,0,5.44,3.84,9,8.64,9a8.71,8.71,0,0,0,8.65-8.75,2.18,2.18,0,0,1,0-.25C429,85.76,425.2,82.32,420.4,82.32Z" transform="translate(0 0)"/><path class="cls-1" d="M449.92,110V54.88h22.64c5.92,0,10.4,1.76,13.52,5.36A18.47,18.47,0,0,1,490.72,73a18.48,18.48,0,0,1-4.64,12.72C483,89.2,478.48,91,472.56,91H461.68v19Zm11.76-44.8V80.72H472c4.24,0,7-3.84,7-7.76s-2.56-7.76-6.64-7.76Z" transform="translate(0 0)"/><path class="cls-1" d="M528.64,103.2c-3.44,5-9.12,7.6-17,7.6a19.4,19.4,0,0,1-13.92-5.44c-3.76-3.68-5.6-8.4-5.6-14.16s1.84-10.4,5.6-14a19.31,19.31,0,0,1,13.92-5.36,18.27,18.27,0,0,1,13.6,5.52q5.52,5.4,5.52,14.16c0,1-.08,2.16-.16,3.44H503.2c.56,4.08,4.8,6.24,9.2,6.24,3.6,0,6.32-1.2,8.16-3.52ZM519.52,88c-1.12-8.48-14.4-8.56-16.16,0Z" transform="translate(0 0)"/><path class="cls-1" d="M547.44,110H536.32V72.64h11.12v5.44a12.47,12.47,0,0,1,10.8-6.24c8.64,0,13.68,5.36,13.68,15.84V110H560.8V90.08c0-4.8-2.56-7.44-6.48-7.44-4.56,0-6.88,2.56-6.88,7.6Z" transform="translate(0 0)"/><path class="cls-1" d="M614.08,79.76l-9,6.48a8,8,0,0,0-7.2-3.76A9.27,9.27,0,0,0,591.36,85a7.91,7.91,0,0,0-2.8,6.24,8.4,8.4,0,0,0,2.8,6.48,9.26,9.26,0,0,0,6.48,2.48A8,8,0,0,0,605,96.4l9,6.4a19.49,19.49,0,0,1-16.24,8,20.45,20.45,0,0,1-14.32-5.52,18.32,18.32,0,0,1-6-14.08,17.87,17.87,0,0,1,6-13.92,20.78,20.78,0,0,1,14.32-5.44A19.65,19.65,0,0,1,614.08,79.76Z" transform="translate(0 0)"/><path class="cls-1" d="M632.08,58.8a6.7,6.7,0,0,1-6.8,6.56,6.53,6.53,0,1,1,0-13A6.63,6.63,0,0,1,632.08,58.8ZM630.8,72.64V110h-11V72.64Z" transform="translate(0 0)"/><path class="cls-1" d="M639,52.32h11.12V110H639Z" transform="translate(0 0)"/><path class="cls-1" d="M659.76,54.88h11.68V110H659.76Z" transform="translate(0 0)"/><path class="cls-1" d="M695.12,72.64H703v8.8h-7.84V110h-11V81.44h-6.8v-8.8h6.8V58.32h11Z" transform="translate(0 0)"/><path class="cls-2" d="M223.92,144H172V121.92A71.9,71.9,0,0,0,223.92,144Zm0-144H172V22.08A71.9,71.9,0,0,1,223.92,0Zm69.36,169.32L287.22,165,172,83.71v60.52l109.24,33.61,6.6,2A7.51,7.51,0,0,0,294,172.5,7.43,7.43,0,0,0,293.28,169.32ZM223.92,0H172V56.39h36.8a13.6,13.6,0,0,1,.74,27.19c-.25,0-.49,0-.74,0H172V144h51.92a72,72,0,1,0,0-144ZM79,144h86V0H79ZM72,0,0,72l72,72Z" transform="translate(0 0)"/></g></svg>