<?xml version="1.0" encoding="iso-8859-1"?>
<!-- Generator: Adobe Illustrator 19.0.0, SVG Export Plug-In . SVG Version: 6.00 Build 0)  -->
<svg version="1.1" id="Capa_1" xmlns="http://www.w3.org/2000/svg" xmlns:xlink="http://www.w3.org/1999/xlink" x="0px" y="0px"
	 viewBox="0 0 480.006 480.006" style="enable-background:new 0 0 480.006 480.006;" xml:space="preserve">
<g>
	<path style="fill:#78B9EB;" d="M336.084,194.566c-0.08-0.88-0.08-1.68-0.08-2.48v7.92h0.8
		C336.402,198.217,336.161,196.397,336.084,194.566z"/>
	<path style="fill:#78B9EB;" d="M144.004,200.006v-16c0.02,5.57-1.153,11.081-3.44,16.16
		C141.684,200.086,142.884,200.006,144.004,200.006z"/>
	<path style="fill:#78B9EB;" d="M442.884,410.566c-6.406-29.478-32.474-50.519-62.64-50.56h-76.24v16
		c-0.053,17.651-14.349,31.947-32,32h-64c-17.651-0.053-31.947-14.349-32-32v-16h-76.24c-30.166,0.041-56.234,21.082-62.64,50.56
		l-13.12,61.44h432L442.884,410.566z"/>
	<path style="fill:#78B9EB;" d="M140.564,200.166c2.287-5.079,3.46-10.59,3.44-16.16v-40h192v48.08c0,0.8,0,1.6,0.08,2.48
		c0.077,1.831,0.318,3.652,0.72,5.44c17.052,0.395,30.769,14.147,31.12,31.2c3.502,0.688,7.077,0.93,10.64,0.72
		c22.048-1.378,38.805-20.368,37.428-42.417c-0.815-13.042-7.949-24.864-19.108-31.663c20.896-7.168,32.025-29.919,24.857-50.815
		c-5.84-17.025-22.332-28.053-40.297-26.945c-4.7,0.282-9.309,1.421-13.6,3.36c0.147-1.81,0.173-3.627,0.08-5.44
		c-1.056-16.857-15.03-29.991-31.92-30c-0.032-22.122-17.992-40.03-40.115-39.997c-10.418,0.015-20.421,4.089-27.885,11.357
		c-15.861-15.441-41.235-15.101-56.677,0.759c-1.189,1.222-2.299,2.518-3.323,3.881c-17.64-13.241-42.673-9.674-55.914,7.965
		c-4.481,5.97-7.2,13.078-7.846,20.515c-4.903-2.947-10.519-4.497-16.24-4.48c-17.673,0-32,14.327-32,32
		c-0.011,2.922,0.393,5.831,1.2,8.64c-21.771,3.747-36.383,24.434-32.636,46.205c1.374,7.982,5.138,15.359,10.796,21.155
		c-15.433,15.85-15.095,41.21,0.755,56.643c7.464,7.268,17.467,11.342,27.885,11.357c3.153-0.008,6.294-0.384,9.36-1.12
		C117.048,210.539,127.759,201.593,140.564,200.166L140.564,200.166z"/>
</g>
<g>
	<path style="fill:#1E81CE;" d="M450.708,408.862c-7.338-33.076-36.584-56.674-70.464-56.856h-68.24v-8.8
		c18.611-3.827,31.976-20.199,32-39.2v-32.8c15.712-3.236,27.984-15.524,31.2-31.24c0.304,0,0.608,0.048,0.912,0.048
		c0.992,0,1.984,0,2.952-0.096c26.457-1.664,46.557-24.46,44.893-50.918c-0.692-11.001-5.148-21.428-12.621-29.53
		c21.794-15.092,27.228-44.994,12.136-66.789c-10.742-15.513-29.577-23.293-48.136-19.883c-2.998-16.247-15.66-28.988-31.888-32.088
		c-4.079-26.243-28.659-44.211-54.903-40.132c-7.407,1.151-14.443,4.018-20.545,8.372c-18.917-13.496-44.777-11.54-61.448,4.648
		c-6.938-3.703-14.688-5.625-22.552-5.592c-20.832,0.084-39.251,13.545-45.656,33.368c-21.34-5.713-43.271,6.955-48.983,28.295
		c-0.903,3.371-1.36,6.846-1.361,10.337c0,0.92,0,1.832,0.096,2.744c-25.037,8.82-38.184,36.266-29.364,61.303
		c1.499,4.256,3.591,8.28,6.212,11.953c-15.424,21.609-10.41,51.631,11.199,67.055c8.131,5.803,17.867,8.93,27.857,8.945
		c0.024,19.001,13.389,35.373,32,39.2v32.8c0.024,19.001,13.389,35.373,32,39.2v8.8h-68.24
		c-33.89,0.182-63.142,23.798-70.464,56.888l-13.12,61.44c-0.923,4.321,1.831,8.572,6.151,9.495c0.55,0.117,1.11,0.177,1.673,0.177
		h432c4.418,0,8-3.581,8.001-7.999c0-0.562-0.059-1.123-0.177-1.673L450.708,408.862z M184.004,360.006v-16h112v32
		c0,13.255-10.745,24-24,24h-64c-13.255,0-24-10.745-24-24V360.006z M344.004,254.638v-45.184c0.32,0.104,0.648,0.184,0.96,0.304
		c0.448,0.184,0.896,0.384,1.336,0.584c0.853,0.41,1.681,0.869,2.48,1.376c0.368,0.232,0.744,0.448,1.104,0.696
		c1.05,0.739,2.04,1.56,2.96,2.456l0.16,0.144c0.952,0.962,1.816,2.006,2.584,3.12c0.24,0.344,0.448,0.712,0.664,1.072
		c0.517,0.81,0.982,1.651,1.392,2.52c0.2,0.432,0.384,0.864,0.56,1.304c0.358,0.914,0.66,1.849,0.904,2.8
		c0.104,0.416,0.232,0.8,0.32,1.248c0.295,1.409,0.461,2.841,0.496,4.28c0.006,0.319,0.033,0.637,0.08,0.952
		C359.857,242.364,353.477,251.267,344.004,254.638L344.004,254.638z M72.004,184.006c-0.034-8.37,3.228-16.417,9.08-22.4
		c3.049-3.111,3.049-8.089,0-11.2c-12.342-12.65-12.093-32.909,0.557-45.251c4.631-4.519,10.523-7.527,16.899-8.629
		c4.356-0.737,7.29-4.866,6.553-9.222c-0.054-0.317-0.126-0.63-0.217-0.938c-0.588-2.069-0.881-4.21-0.872-6.36
		c0-13.255,10.745-24,24-24c4.275-0.018,8.473,1.139,12.136,3.344c3.792,2.268,8.704,1.033,10.972-2.758
		c0.628-1.05,1.007-2.23,1.108-3.45c1.479-16.463,15.254-29.091,31.784-29.136c6.931-0.045,13.682,2.205,19.2,6.4
		c3.535,2.651,8.549,1.935,11.2-1.6c6.066-8.03,15.536-12.765,25.6-12.8c8.37-0.034,16.417,3.228,22.4,9.08
		c3.111,3.049,8.089,3.049,11.2,0c12.695-12.34,32.989-12.053,45.329,0.641c5.801,5.967,9.053,13.957,9.07,22.279
		c0,4.418,3.582,8,8,8c12.604,0.007,23.054,9.763,23.928,22.336c0.077,1.474,0.059,2.952-0.056,4.424
		c-0.373,4.403,2.894,8.274,7.297,8.646c1.377,0.117,2.76-0.125,4.015-0.702c3.394-1.517,7.033-2.411,10.744-2.64
		c17.639-1.104,32.832,12.3,33.936,29.939c0.9,14.375-7.915,27.58-21.536,32.261c-4.183,1.421-6.423,5.965-5.001,10.148
		c0.602,1.771,1.805,3.276,3.401,4.252c8.885,5.426,14.56,14.849,15.2,25.24c1.114,17.633-12.25,32.844-29.88,34.008
		c-0.944,0.056-1.92,0.072-2.888,0.048c-0.056-0.264-0.16-0.504-0.216-0.8c-0.136-0.64-0.344-1.24-0.512-1.864
		c-0.433-1.608-0.968-3.187-1.6-4.728c-0.296-0.712-0.6-1.408-0.936-2.096c-0.713-1.451-1.514-2.856-2.4-4.208
		c-0.36-0.56-0.68-1.128-1.064-1.664c-1.278-1.813-2.707-3.515-4.272-5.088c-0.224-0.224-0.488-0.4-0.712-0.616
		c-1.397-1.32-2.886-2.539-4.456-3.648c-0.6-0.424-1.224-0.8-1.848-1.176c-1.321-0.832-2.692-1.583-4.104-2.248
		c-0.696-0.328-1.384-0.656-2.104-0.944c-1.634-0.646-3.31-1.18-5.016-1.6c-0.536-0.144-1.04-0.336-1.6-0.448
		c-0.136,0-0.256-0.08-0.384-0.104v-48.728c0-4.418-3.582-8-8-8H144.004c-4.418,0-8,3.582-8,8v40
		c0.008,3.074-0.434,6.134-1.312,9.08c-0.176,0-0.344,0.112-0.52,0.152c-0.472,0.128-0.936,0.288-1.408,0.432
		c-1.265,0.363-2.509,0.793-3.728,1.288c-0.552,0.224-1.096,0.456-1.64,0.704c-1.144,0.528-2.248,1.104-3.336,1.728
		c-0.464,0.272-0.944,0.528-1.408,0.8c-1.439,0.905-2.821,1.899-4.136,2.976l-0.392,0.344c-1.218,1.042-2.372,2.156-3.456,3.336
		c-0.432,0.472-0.8,0.968-1.24,1.456c-0.72,0.864-1.408,1.744-2.056,2.664c-0.408,0.576-0.8,1.16-1.176,1.76
		c-0.608,0.968-1.152,1.976-1.68,3c-0.288,0.568-0.6,1.112-0.864,1.688c-0.064,0.136-0.136,0.248-0.192,0.384
		c-17.57,1.909-33.36-10.787-35.269-28.357C72.067,186.3,72.004,185.153,72.004,184.006L72.004,184.006z M120.004,232.006
		c0.005-2.318,0.353-4.623,1.032-6.84c0.506-1.642,1.187-3.224,2.032-4.72c0.184-0.328,0.352-0.664,0.544-0.976
		c0.828-1.357,1.788-2.63,2.864-3.8c0.272-0.296,0.584-0.568,0.872-0.848c0.9-0.876,1.868-1.678,2.896-2.4
		c0.384-0.272,0.736-0.576,1.136-0.8c1.222-0.743,2.507-1.378,3.84-1.896c0.256-0.096,0.528-0.176,0.8-0.264v45.2
		C126.423,251.261,120.008,242.187,120.004,232.006L120.004,232.006z M152.004,304.006v-152h176v152c0,13.255-10.745,24-24,24h-128
		C162.749,328.006,152.004,317.26,152.004,304.006z M382.78,464.006l-6.888-41.312l-15.776,2.624l6.448,38.688h-253.12l6.448-38.688
		l-15.776-2.624l-6.888,41.312H33.892L44.94,412.27c5.697-25.746,28.455-44.121,54.824-44.264h68.24v8
		c0.026,22.08,17.92,39.974,40,40h64c22.08-0.026,39.974-17.92,40-40v-8h68.24c26.358,0.143,49.111,18.5,54.824,44.232
		l11.048,51.768H382.78z"/>
	<circle style="fill:#1E81CE;" cx="288.004" cy="208.006" r="16"/>
	<circle style="fill:#1E81CE;" cx="192.004" cy="208.006" r="16"/>
</g>
<g>
</g>
<g>
</g>
<g>
</g>
<g>
</g>
<g>
</g>
<g>
</g>
<g>
</g>
<g>
</g>
<g>
</g>
<g>
</g>
<g>
</g>
<g>
</g>
<g>
</g>
<g>
</g>
<g>
</g>
</svg>
