<svg xmlns="http://www.w3.org/2000/svg" width="1484.417" height="801.671" viewBox="0 0 1484.417 801.671">
  <path id="Path_1503" data-name="Path 1503" d="M316.421,36.665c3.443-.714,5.772.274,7.607-.714.411,1.153-1.064.359-.726,1.35,2.83-.193,5.212-.98,6.595-2.576,0,.794-.609,1.056.3,1.225,3.273-1.012,5.349-2.975,8.586-2.838-1.149.266-2.467.335-2.632,1.592,3.189.992,5.426-1.866,9.235-1.338.3-1.33.762-1.08,2.269-1.616a.864.864,0,0,1-.6-.625c1.544-.278,2.971-.532,4.539-.714-10.473-2.656-24.126,3.035-34.857,5.285C318.936,35.774,316.389,35.863,316.421,36.665ZM1442.458,719.052c1.669-.4-1.177-.6.028-1.661-1.419-.1-.278,1.088-.343,1.653-4.148,2.431-5.067,12.436-4.652,16.8a3.667,3.667,0,0,1,3.217.661c1.608-.407,2.06-1.753,3.02-2.7.4,1.246-.73,1.02-1,1.661,2.233,1.161,1.145-2.5,2.644-1.338.23-2.749.75-.532,2.023-2.3a1.053,1.053,0,0,1,.629,1c-.419-.012-.282-.585-.645-.689-.77.782-.419.943-.786,1.649l1.746.028c-.149-1.294,1.4-1.052.943-2.653.762-.367,1.294.181,1.669-.984-.536-.085-.8.48-.931-.012,1.491-.556,1.491-2.628,3.241-2.947.238.717-.915,1.068.35.959.617-3.527,4.511-5.333,3.959-9.159C1452.753,721.382,1445.844,722.132,1442.458,719.052ZM378.838,49.468c-.931.189-.927,1.512-1.653,2.02-1.467-.286-1.915.4-3.265.258-.3-.665-.7-1.294-1.028-1.919-2.229.1-3.781.714-4.551,2.326.847.81,1.447.867,1.29,1.983,1,.169,1.209-.339,2.02-.375,1.209,1.072,3.406,2.423,2.269,4.922a9.373,9.373,0,0,0,5.249-.677c.447-.746-.951-1.314,0-1.645,4.519,2.237,10.715-1.254,11.489-4.866-.822.967-2.29-.407-.984-1.052-.572-.4.27-1.846,2.7-1.649-1.036-1.657,2.221-.556,2.636-1.907-.081-1.1-2-.294-2.278-.992.746-.093,1.56-.1,1.548-.992-2.628.3-7.873.355-7.151,2-2.286-1.451-5.458-1.008-7.675.343.609.258-1.774.419-2.931.625C376.383,49.391,378.218,48.767,378.838,49.468ZM1337.847,527.16c-.089-1.113-1.81-2.217-.572-3.58,1.088,1.725,3.983,2.612,3.624,3.886a4.5,4.5,0,0,1,2.906-2.282c.19-1.782-1.508-1.7-2.265-2.648-1.419,1.056-2.657.988-4.265.008-.036-.621.326-.73.347-1.294-2.056-2.717-7.018,1.4-8.876-2.024.109-.544.125-1.346.645-1.616,2.85.286,5.023.193,6.591-1.975-1.959,0-6.571-.552-7.9,1-1.737-1.588-5-2.141-7.945-2.225-.113-.863-.214-1.741-1.3-1.693-1.992-.028-1.024,2.923-2.556,3.277-2.81-.782-6.224-.6-9.175-1-.266-1.415-1.141-2.12-1.749-3.261-2.588,1.238-3.926-1.3-6.825-2-.581,1.907-4.833.379-5.245-.323-1.326,2.326-1.693,4.063-3.386,5.587.129-1.346-.593-.185-1.254-.278,1.717,1.846,5.2.012,6.881,1.919.016.814-1.084.625-1,1.612C1309.69,522.371,1323.48,523.093,1337.847,527.16ZM384.164,38.669c3.241-.125,5.728.064,5.531,2.286,2.665.419,5.591-.266,8.945.008-.185-1.826.4-.193,1.25-.355.061-3.305,4.833-.9,3.576-3.318,2.33-.895,3.124-2.116,4.3-3.592-1.395.4-1.395-.528-2.326-.6a12.547,12.547,0,0,0-2.943.943c-.81-1.677-6.809-1.516-7.9-.327l1.713.016c.081,1.608.673,1.955.286,2.939-.75-.621-1.661-.891-1.588-2.326-3.632-1.238-9.171,2.415-11.553,2.729C384.176,38.463,385.655,37.06,384.164,38.669Zm21.99-11.843c-.592.617.04.379,0,1.358,2.612,0,5.148.06,6.575-1.088.036-.758-.581-.931-.718-1.5.58-.552,1.737-.375,2.024-1.1-.818-1.084-2.733-1.173-2.636-1.608-1.225-.222-3.459-.722-4.62.024l-.016-1.367c-3.076-.286-8.522-.822-10.187,1.342.56.185-1.092.621-1.971,2.685C397.523,27.027,403.158,24.967,406.153,26.825Zm-56.867,7.212c-6.188-.278-18.765,4.245-20.022,5.954.867.5,3.805.447,3.906,1,1.7.214,1.911.149,2.971-.746.907,2.479,5.019,1.044.959,1.979,6.139,4.027,15.931-1.258,23.038-1.633,4.176,1.85,13.6-.2,16.378-3.922-1.459-1.677-4.458-.4-5.889.617.125-.935-.544-3.741.988-4.87-3.9.077-7.449,2.511-7.534,3.555a1.373,1.373,0,0,0-.98,1.987c-2.056,1.036-9.187-2.1-9.88-2.9a13.093,13.093,0,0,0-4.257.306C348.9,34.791,350.81,34.045,349.286,34.037Zm890.375,336.072c5.2,6.1,5.954,14.959,9.183,22.671.044-.411-.028-.919.363-1,1.266,2.769,3.483,6.47,1.967,9.231a2.3,2.3,0,0,0,1.016-.323c-.061,1.431-.48,1.689-.339,3.289.6.238,1.109-1,1.31-.02a99.4,99.4,0,0,0-1.645,23.707c2.157-.3-.31-3.16,1.673-3.656.484,2.427,2.842,1.5,2.33,3.918,1.6-.193,2.27,2.124,1.907,2.991,2.644,1.31,7.683,7.623,4.93,11.489.266,1.262,1.218-1.145,1.3-.012-.189,2.987,2.29,6.309,1.633,8.542,3.664,6.639,9.287,10.642,15.782,15.782.839-2.358,2.846-.4,3.979-.689a15.387,15.387,0,0,0-4.631-9.175c1.951-11.674-4.821-17.894-11.533-24.3-2.874,1.387-4.071-1.633-5.547-1.653.673-4.382-3-8.232-3.983-12.8-1.282-.177-1.431.963-2.983.625-2.451-8.36,4.611-16.914,2.366-25.3,1.242-.149,3.8-.83,4.64.347l-.057,4.571c1.649-.379,3.431.383,5.3-.274,1.278,1.229,2.1,2.87,3.285,4.245,1.125-.206-1.447-1.08-.383-1.318,2.435-.145,3.769,4.313,4.664,7.865.992-.222.641-.222,1.564,0a1.764,1.764,0,0,1,.73-1.649c.113.689.8.955.621,2.016-.318.46,4.563.512,4.914,3.951,1.58-.528,2.241.266,3.007,1.3-2.632.754-.617,6.494-1.347,8.211,4.237.153,3.294-4.874,7.611-4.6.528-1.173-1.133-1.685-.343-1.967.476.447,1.157,1.407,1.947.609.161-1.318-.177-1.866,1.314-2.846.307-1.278-1.1-.742-1.326-1.4,2.092.423.649-.927,1.608-1.629.577.387.464,1.379,1.379,1.35,3.527-1.818,5.922-4.587,9.513-6.313a17.523,17.523,0,0,0,.314-8.1c.77-.185.4.891.992.935a48.976,48.976,0,0,0-8.2-21.732c-1.254,1.189-1.327-2.407-2.653-.625a120.18,120.18,0,0,1-13.815-16.463c.73-3.314.782-6.164,3.954-7.558-.717-3.237,1.133-2.947,1.943-3.257,0-.564-.891-.165-.943-.673a15.16,15.16,0,0,1,15.157-3c-2.713,1.814,1.431,9.949,4.192,5.99-.455-1.447-1.915-1.794-2.3-3.305,5.559-2.378,9.251-6.526,16.439-7.272.3-1.862-.9-2.35-1.294-3.6,1.109.322,1.036-.508,1.967-.335.54.726.274,2.257.629,2.963,1.25-.222,1.435.633,2.652.371.56-1.072-1.217-1.346-.363-1.633.5.1.577.556,1.036.645.617-.439-.738-2.112.988-2.011-.548.488-.371,1.572.681,1.375.782-.4.879-1.572,2-1.685.322.633.584,1.161,1.52.988.089-.435-.036-1.161.383-1.35.766,0,.419.967,1.052,1.072a4.4,4.4,0,0,1,3.3-1.338c-.189-1.25.56-2.322,1.245-1.661-.472-1.072-.028-1.121,0-2.342,1.778,1.5,2.274-2.636,3.584-.568.209-.629-.4-1.955.415-2.007.056.23-.028.673.323.681.258-.923,1.157-1.3,1.238-2.338-.117-.722-1.435-.085-1.266-.943.633.024.653-.508,1-.685,1.386.778,1.375-.657,2.548,0-.343-3.164,2.487-3.056,2.37-5.95.452.411,1.322,1.133,1.552.008-2.056.089.8-2.112-.3-2.923-1.1.1-2.06.669-2.612-.363,4.6-.621,5.277-8.489,5.249-11.525,1.737.629.983-1.419,1.649-1.9.448.464.222,1.431,1.306,1.274-.359-1.87,1.052-.093,1.342-1.008a12.5,12.5,0,0,0-2.636-2.6h1.636c.161-.589-.4-.83,0-1.016.15-1.254-1.112-1-1.636-1.645,1.2-.572,1.652-.109,2.636.657-.27-1.149-.145-2.963-1.649-3.6.036.347-.149.875-.343.335.194-.9,1.826-1.06,1.02-1.963-2.592.314-2.471-2.136-4.571-2.282-1.3-.069-1.3,1.149-2.668.988-.073-.5-.548-.576-.641-.988,2.008-.943,2.9-3.092,5.273-3.7-2.394-2.818-6.611-6.913-10.828-5.849,3-2.2,5.567,1.536,9.465,1.35-7.736-5.317-11.444-16.112-20.3-19.087-.556-2.608,1.5-5.119,2.923-6.954-.645.234-1.725-.851-.992-.919.911-.955.427,1.189,1.895.661-.282-1.564,1.987-2.435.012-3.31,4.217-.161,4.273-3.5,7.566-1.29-.246-1.733-.129-1.846-.262-3.584-1.652.161-2.289-.669-3.277-1.056-3.015,2.652-5.841-3.382-9.614-.314-1.536,6.954-6.486-.967-8.5-3.3a2.027,2.027,0,0,1-.613.992c-2.584-.673-7.466-2.636-6.3-6.837a13.906,13.906,0,0,0,5.861,0,3.541,3.541,0,0,0,.012-3c2.463-1.729,5.37-4.45,5.636-7.208,5.119-.476,8.417,3.326,4.995,6.9.464,1.149,1.826,1.431,2.576,2.342-1.072.157-.427.879-.254,1.54-1.233.322-2.346.867-1.661,2.028.943.149,1.1-.6,2.278-.367.585-.645-.056-.419,0-1.262,2.35-1.5,8.377-8.344,13.117-3.322.032-.452-.1-.915.3-1,4.354.871,5.007,5.845,3.677,9.864l2.29.008c0,.883-.54.7.016,1.338,1.544-.351,1.592.814,2.592.992.7-.189.411-1.35.971-1.592,1.161,1.008,1.657,1.423,3.305.593,1.355,2.362,3.177,3.241,4.249,5.253-2.2-.746-.839.75-2.278-.327.762,1.754-.633-.157-.689,1.62a1.524,1.524,0,0,0,2.31.617c2.092,4.067,3.882,5.809,2.261,9.554,1.459.077,1.221,1.729,2.044,2.306-1.141-.673-.1,1.2-.959,2.028,1.3.391,1-.609,1.645-.967.339.419.351,1.278.955,1.62.4-.923.544-1.592,1.653-1.02-.1-.971-.036-1.834.895-1.637-.81.838.524,1.193,1.084,1.621-.371-.955,2.6-2.032.23-2.923a5.812,5.812,0,0,1,4.277.613c0-.847-.129-1.931.73-1.947.129.717,1.431.117,1.612.726,1.665-1.584,1.02-3.87.665-6.309a51.593,51.593,0,0,0-19.672-19.668c0-.673.528.2.613-.351-.738-.371-.5-1.661-1.266-1.991,1.048-.528,1.181-2.157,3.2-1.6,1.645-1.439,1.862-4.346,4.317-5.007a28.083,28.083,0,0,0-2.7-4.95c.589-1.971.935-4.333,3.052-3.914.27-.891-.536-.83-.351-1.625l1.677-.008c-.476-1.076.254-2.935.633-4.245.742,1.254,1.092,1.35,2.608.689.226.943.415,1.935,1.306,2.233,15.221,3.035,13.371-18.624,16.4-32.821-1.8-8.631-10.582-13.948-9.469-22.36a6.585,6.585,0,0,1-2.991-.935c.117-2.963-3.039-2.7-4.62-3.975.762.222-8.139-7.7-15.076-6.595.685.226.524,2.225.617,2.959-.617.528-2.564,1.588-3.636.677.2-.778-5.571-5.148-7.534-6.228-1.862,1.391-6.563.206-7.49-1.35,5.5-4.277,4.269-11.444,8.542-16.709-.3-.73-1.008-1.02-1-2,1.584-7.57,11.751-7.458,18.688-4.954,1.012-.6-.879-.984-.04-1.314,4.676.637,8.219.714,11.174,0,.189-.629-.831-.955-1.572-1.608,6.9.484,10.348.589,15.875,2.616-1.705-.121-2.4.589-4.108.286,1.56,3.354,6.438.044,8.57,1.02-.839-.447,2.052-.633.334-1.342,2.911.814,5.394.093,7.869.322-.488-1.483-4.507-3.084-4.865-1.661-3.858-1.161-1.911-7.482-.705-9.469-4.027-3.926,7.377-4.12,9.912-2.656.5-.242-.177-1.564.891-1.294,1.766,1.306,4.748,4.253,5.954,4.563a15.122,15.122,0,0,0,1.338,2.693,13.479,13.479,0,0,0,2.193-1.334c-.568-1.278.875-3.189,1.471-4.261,1.455-.137,1.766-.4,3.273.02-1.806-1.665-3.886-2.971-5.313-4.978,2.149-1.1,8.554,4.914,10.485,6.885-1.25.967.685,1.612,1.012,1.975-1.149.661-2.62.931-3.918,1.951,0,5.091-1.262,10.356-1.326,14.165-.661-.48-1.9-.27-2.669-.637.061,1.262-.637,1.818-2.237,1.266.661,1.9,1.584,6.462,2.246,7.582,6.454,11.839,25.5,21.647,33.845,31.858,2.9-3.954,1.363-8.8-1.568-11.783,1.209.726,1.5-1.858,3.249-1.625.431.254,1.725,1.25,1.971.621-1.971-1.52-7.333-4.6-3.979-7.877,2.008-.169,3.132.705,4.289-.347-1.354-3.769-5.982-4.269-7.554-7.865.722-1.189,1.286-1.8.028-2.665.987.589,1.121.585,1.258,1.31,1.213.218,1.548,1.326,3.362,1.02-.427-5.406-9.65-3.483-8.594-9.263a7.989,7.989,0,0,0-4.66-1.6c-.705.439.548.826-.274.98-6.656-1.9-3.564-9.425-7.845-12.484,1.637-.322,1.979.669,2.886,1,1.06-.165-1.25-1.064,0-1.33,1.491.367,1.939,1.733,3.934,1.653.153-1.028-.9-.851-.911-1.653a3.747,3.747,0,0,0,1.959-1.979c2.137.363,1.782,3.241,4.253,3.293.5-.512.331-1.931.331-2.927,6.724-2.83,11.654,1.584,16.777,1.939-.536-1.008-1.895-1.217-2.314-2.294,2.475-.911,1.068-1.947,3.624-2.959.286-1.072-1.113-.439-1.02-1.358,1.508-.327,1.81-2.935,4.886-3.213-.359-.129-.468-.335-.584-.7,1.834.189,2.886-2.592,5.905-2.947.964-.564-.838-.984,0-1.358,2.407,1.4,6.97,2.132,9.828,2.072-4.765-6.817-17.41-8.961-23-12.537,4.164,1.173,6.772.137,8.2-2.592a2.792,2.792,0,0,1-1.25-1.358c-.947-.069-1.056.726-2.092.661-.766-1.907-3.43-2-4.168-3.959,1.963.371,28.584,7.373,37.8,8.24.544.5,1.895,1.951,2.971.992a30.067,30.067,0,0,0-4.035-2.661c.81-.133-9.34-10.332-17.035-11.759-.371,1.475,2.443-.056,2.62.963-2.943.927-3.5.407-2.624,2.906-21.877-11.348-45.757-16.354-74.946-18.015.323-.093.673.008.7-.339-4.35.782-7.99-1.689-12.8-1.33,2.274,3.027,6.514,4.277,10.2,5.922-5.591,2.116-12.617-2.378-17.733-3.93-9.167,2.08-20.966-.02-30.874.008-3.632-6.1-13.65-6.675-22.429-6.248a116.741,116.741,0,0,1-22.977-1.338c-1.5-2-5.579-1.431-8.256-2.334.589-.508,1.354.339,2.633.016-2.717-1.866-12.259-5.144-14.448-.705.024.093.024.093.1.081l-.1.012c-.109.169-.174.447-.3.613-1.681-.363-3.128.895-3.277-.613,1.6.439,2-.411,2.314-1.262-4.91-3.93-17.934-1.717-25.388-3.68.294,1.25,2.181.758,2.717,1.637a16.127,16.127,0,0,1-4.624.351c-.218,1.6.685,1.971,1.935,1.943.359-.693,1.262-.75,2.37-.625a9.251,9.251,0,0,1-1.33,1.637c1.886.177,2.935,1.153,4.349,1.955-3,.048-4.708-1.02-6.663-.246-.435,1.375.972.955,1.274,1.576-1.217.379-2-.613-3.946-1.008,1.31-.314,2.346,1.008,2.322-.593-1.471.06-3.983-.347-3.672.585-1.733-.46-3.156-1.3-5.543-1.334-3.35,3.414-10.437-.589-13.057-.935-.186,2.862,3.059,3.168.891,5.6-4.825-1.04-9.485-2.294-13.061-4.644.48-.165,1.649.375,1.592-.343-.891-.137-3.7-1.774-2.31-.335a8.417,8.417,0,0,1-4.571-1.54c1.322.02,3.721,1.512,4.551-.012-.8-1.6-3.709-1.165-5.527-1.693.488-.347,1.334-.447,1.657-1.04-2.028.048-2.141-.085-.681-.629-1-.2-2.886.407-3.265-.314a.938.938,0,0,0,.948-.653c-7.264-2.644-18.757-3.1-24.328-2.624.83,1.407,3.382,1.044,3.342,3.3-5.136-.992-17.733.629-19.027-2.947-6.373-.278-14.576-2.274-19.837.343-1.234-.806-2.971-2.846-4.511-2.314.335.31,1.177.31,1.234.98-1.725.657-12.069-2.681-12.053.351,1,.722-9.848,4.285-10.88,4.257.48-.572,9.118-6.76,9.183-7.566,3.068-1.33,7.369-1.346,8.223-4.922-1.681-.637-6.143-3.048-6.885-3.048-3.181-3-23.606-3.031-23.683-4.2-3.314-.794-6.712.189-9.191-.992.4-.714-8.582-3.656-12.529-.661.423.758-13.367,5.764-13.742,5.289-4.6.411-8.417-.314-10.812,1.3,1.109.919-12.347,2.959-17.124,3.922.407.532,4.37,3.858,5.24,5.611-7.135.838-15.012.939-22.683,1.278.58,1.266-.23.544-.282,1.6,3.842,3.374,9.388,4.866,14.117,7.268-8.1.806-17.89-1.439-17.136-.625-1.536.6-3.168-.339-4.97-.564,1.979,1.286,3.842,2.519,5.47,3.531a3.754,3.754,0,0,1,2.8,1.322,12.214,12.214,0,0,1-2.8-1.322c-2.914-.48-6.857-.1-8-3.273a4.057,4.057,0,0,1,2.531-.258c-3.785-2.511-7.78-4.741-10.436-3.68,1,.722,2.806.669,2.967,2.278-1.282,1.975.54,6.478,1.975,8.848-1.975,12.1,17.047,2.878,21.324,11.194-.387.7-1.673.653-2.016,1.621.984,1.612,3.826,1.282,5.66,1.963a16.893,16.893,0,0,1-5.934-1c1-5.18-9.324-8.046-12.827-3.93.379,2.04,3.318,1.467,3.636,3.576-.577,1.762-2.209,2.334-1.3,4.64a36.585,36.585,0,0,1-4.616,1.983c-.113.548.935,1.383.008,1.689-5.192-.234-10.025-.8-13.52-2.652,4.4,0,7.163.8,10.88-1.354-.044-1.391.766-1.205.31-2.6.705-.456-4.974-10.642-7.538-14.516,1.5-2.713-3.926-4.071-5.527-5.817,2.431-1.419.661-4.789-.722-5.914-4.132-.528-8.554-.7-12.815-1.036.774,5.265-.959,13.581-.335,14.754-.75.177-.988,1.1-.879,1.983,4.95-1.173,6.788,3.342,11.114,3.93-.214,1.314-.391,2.511-1.354,2.975a20.538,20.538,0,0,0-11.827-3.922c.117-.488.387-.576,0-.984-1.29-.185-3.495.407-4.265-.31-1.173-2.87-13.6-3.048-18.39-2.326-.044,2.757,3.543,1.979,3.946,4.293-1.4.847-2.874.355-3.632,1.25.31.419,1.157.2.976,1.072-1.246.258-2.681.435-3.193-.685.133-.718.923-.653.258-1.363-3.507-.859-12.638.439-16.66,2.987-1.7-.734-3.572.685-4.43-.653,2.427-.1-.411-1,0-2.342.181-.709,1.447-.266,1.774-.939-8.469.5-13.246,5.853-20.756,5.253-.294,1.06,1.088.439,1.06,1.334a9.937,9.937,0,0,0-3.4.633l.012,3.676c-4.527.705-7.393-.012-11.11-3.023,1.052-1.475,3.455-1.685,6.208-1.653-1.7-4.906-9.634-4.289-14.838-4.3,3.374.883,5.978,3.217,4.366,7.256,3.983.278,2.83,4.43,2.967,6.623-1.229-2.584-5.47-2.056-8.2-2.987-2.241,2.491-6.534,2.886-8.618,5.583.9,1.923,3.507,2.153,3.963,4.66-2.947.173-6.143-1.713-9.235-.709,1.028-1.451-3.519-2.451-5.861-2.616.234,1.088-.157,1.58-1.383,1.266,1.1,2.149,3.374,3.922,6.329,2.947.258.976.939,1.415,1.314,2.346-6.01,1.528-8.977-2.665-13.855-3.229.621-1.935-1.354-3.322-2.6-4.325,1.262.121.984-1.2,1.62-1.7-.713-2.169-3.148-2.665-5.861-2.894-.193-2.769-4.422-1.625-5.893-4.616,8.5,2.536,29.447,10.735,36.094,0-1.786-2.06-6.675-5.587-8.187-4.6-7.9-2.37-15.927-8.2-25.634-5.91a1.356,1.356,0,0,1,.29-1.016c-1.121-.173-1.532.258-2.334.359,1.04-1.621-4.257-3.092-5.849-1.612-1.479-.734-4.354-3.168-2.02-3-2.011-2.592-10.5-2.31-11.553-2.58a1.275,1.275,0,0,0,1.4-1.334c-2.12-.262-12.585.851-15.1,0,.44,1.318.077.834-1.076.649.976,2.673-10.211,2.673-11.456,3.608,1.052.4-14.415,4.95-12.775,5.248-.988,2.483-15.7,11.755-15.475,12.545-1.145-1.109-5.6,7.038-5.889,8.171-1.181.665-28.641,18.128-29.282,18.035-.363,1.278,2.016,11.061,1.036,11.553.1.75-.6.669-.3,1.6,1.379,1.27,4.152,5.922,6.232,6.591-.451.044-.746.06-.641.657,5.942,1.754,11.073-2.29,13.391-5.575,1.06,1.33,2.124-.008,3.3-.375.738-.955-.5-1.83.714-2.261a4.681,4.681,0,0,0,.645,2.261h2.007c-.581,4.519,2.81,10.134,7.457,14.468-1.6.25-1.362,1.262-1.955,1.354-.056.613-3.684,2.592-5.252,1.947.4.129.141,3.148-1.032,3.632.943,1.2,3.221,1.653,3.362,1.919-.492.089-3.18-.734-3.64.689.367.06,3.177,1.189,4.62,1.633.056-1.383.766-2.072,2.281-1.987.327-1.6-1.834.157-1.592-.645-.726-1.717.024-1.931.286-2.906,2.374.129,3.237-1.3,3.58-.367-1.048-.258,4.882-.274,5.341-1.616a1.964,1.964,0,0,1,2.282-.351c.089-.621-.443-.81,0-.959,1.629.052,3.664-.25,4.857.331,2.173-3.426,3.729-7.6,2.685-10.187,1.189.347,1.1-1.967.339-3,1.52.153.629-.427.3-1,2.007.133,3.188-2.455,4.668-.947.556-2.084,2.128-1.242,3.2-2.951-.427-.8-1.371-.359-1.6-.718,1.205-.649-.226-4.2-1.608-6.522-1.762.7-1.491-.532-3.374-.3.4-1.181.593-8.4,1.346-8.6-.794-.06,2.064-3.539,3.322-3.3,2.773-4.172,8.623-3.572,11.807-8.554-.58-.544-1.427-.951-1.657-1.947,1.737-1.536,1.314-3.35,4.269-3.644.161-.435-.323-1.625.347-1.588,3.031.943,13.472-.988,11.521,4.942-4.277,1.5-9.832,6.446-11.521,8.889-1-.677-1.854.314-2.66-.379.294,2.1-1.2,2.3-1.653,3.628,3.019,2.443,1.451,7.885,3.007,11.481,1.818-.782,3.676,1.862,5.91,1.342.81,1.415.4,2.124,1.012,2.636,9.034-2.382,13.3-3.632,22.977-4.261-.012.4-.589.27-.665.6,1.451,2.205,6.442.822,7.881,2.983-1.77,0-3-.536-4.612-.669-1.5,1.367-2.919,2-4.857,1.318-.121,1.012.907,1.326.274,1.939-8.8-1.246-15.375-1.524-20.708,2.7,2.411-.286,2.024,2.415,2.951,3.6,1.669.238,2.459.435,3.584-.29-.9,2.084-.451,4.184.008,6.542-3.241,2.818-6.111-.9-7.844-3.322-4.471.141-4.523,3.5-6.619,5.244-.028,4.817,2.632,11.122-3.886,10.505.947,3.854-6.68,5.111-6.954.685-8.51.657-16.644,7.921-22.336,3.616.77-.8,1.492-.02,1.991-.637-.718-.093-.718-.891-.331-1.342-1.306.451-1.068-.649-2.007-.621-.8.641-.056,1.072-.677,1.608-2.124-.895-5.639,1.161-7.425,2.644-.754-.556-2.463-.012-3.035-.681,1.879.278-2.37-4.914.371-5.841.165-1.512-3.592-3.366-4.362-2.4.1-.609,3.882-9.638,2.665-12.162.528.1.923-.407.331-.589-2.64,2.7-7.909,2.733-10.146,5.873.4.407-.056.589-.323.016-.359.887-.27,5.631-.306,6.865,1.024.451,2.1,6.147,1.858,6.873,1.9.044,1.008,2.068.02,2.354a17.077,17.077,0,0,1-5.893.681,26.151,26.151,0,0,0-1.262,2.592c.23-2.2-5.071-.673-5.019-.278-2.06.226-2.374,2.3-4.539,2.62-.173-.593,1.044-1.35.024-1.673-1.391,3.261-12.246,12.069-15.532,13.166,1.246,5.386-3.048,5.785-6.869,6.9-.476.738.044,1.794-.25,1.971-1.842.959-3.8-.322-5.978-.012-.419-.98.3-1.084-.306-1.943-1.024.863-2.628-.387-3.289.331.734.8,2.181,3.983,1.6,5.954-1.846.036-3.233-.407-5.559.585-.435-.822-.742-1.891-1.951-2-2.737,1.983-5.8.028-7.586,2.616.468,1.358,1.367,3.588,2.249,4.027.947-.943,6.256,2.165,7.921,1.568-.705,1.846,2.463,3,1.709,4.329,2.366,2.773,6.284,2.326,3.688,6.2.834.48,1.891.838,2.221,1.959-.673.081-1.556-2.165-1.709-.621-.226,1.362-1.52,4.745-.322,4.616-1.092,4.063-2.777,10.872-8.5,7.216-9.469,1.931-26.214-5.676-31.2,3.3a1.656,1.656,0,0,1,.657,2.318c.633.262,1.068-1.056,1.294,0,.234,6.176-1.4,16.564-5.285,22.981,1.459-.435,1.5.46,1.354,1.637.9.262.8-.443,1.649-.331.951,2.636-.851,6.954-.758,8.872,1.512-1.221,3.572-.278,5.406-.008,7-4.845,6.01,5.14,11.444,5.853,1.895-5.164,12.714-4.317,17.047-4.2,1.278-3.039,3.467-5.631,7.22-5.285-1.786-2.257,2.769-5.4,4.668-7.252-5.236-3.285.8-9.477,3.89-11.452a2,2,0,0,1-.959-.689c3.914-2.306,8.989-3.422,12.456-6.184-.129-1.625-.319-1.637.339-2.685-2.741-2.523.734-6.752,4.023-7.2,7.453,4.853,15.882.585,22.941-5.353a52.611,52.611,0,0,1,6.627,3.37c-.351,2.6,1.681,2.931,1.258,5.6,1.75.347,3.33,1.826,2.979,3.322,4.474.818,5.744,4.91,9.163,6.893,1.532-.528,9.755,4.825,9.558,6.236,1.657.1,1.8,1.467,3.64.641.657,2.523,2.483,5.458,2.644,7.506-.125.713-1.411.089-1.689.713.415.984.343,2.249-.689,2.584-3.66-.427-8.747,3.342-11.843.028-.629.447-1.326.814-1.931,1.29-.4-.306-2.33.52-2.27,2.016,4.9,1.33,8.82,5.559,13.774,5.9-1.173-.9.931-1.25.645-2.306-1.927-2.06,3.124-4.93,3.983-4.914-.141-2.04,4.942-7.881,4.922-8.872-.806-.976-2.644-5.559-.681-6.575a4.025,4.025,0,0,0,3.922,1.258c.512,1.467.9,2.971,2.624,3.011-.314-1.367.7-1.27.625-2.278-2.87-4.289-8.78-5.454-13.089-8.219.173-.984,1.782-.746,1.318-2.326-7.308.984-11.223-3.777-12.484-9.868-2.834-1.806-6.99-2.181-6.651-7.224.778.794,1.064-.371,1.35-.931-1.02-.331-1.407-1.282-1.633-2.374.266-.069.411-.238.3-.637,1.653.637,12.742,5.1,11.908,5.281,1.745,2.459,3.983,4.261,5.91,6.579,1.185-.234,2.145-.572,2.955.323-2.007.081.407,1.234-1.032,1.568,2.185.931,4.817-.552,5.543,1.367-.895-.935-3.1-.661-4.184,0,1.177.738,4.87-1.016,3.318.98,1.048.46,2.62.451.887-.359,4.608.984,6.619,4.422,10.259,6.28-1.137,2.06,1.878,9.667,2.306,11.561-.786-.1,3.124,3.717,4.253,5.853-1.008-.141-.5.4.661.645.415.766,4.22,11.779,5.6,12.194.81-.472,1.915.943,2.858,1.915.1-1.024,2.58.355,3.7-.581-1.229-1.487,2.185-11,2.89-11.279,1.7.367,1.036,2.777,3.362,2.423-.323-2.072-2.608-1.842-2.334-4.309-2.935.54-3.543-3.305-5.486-1.693.085-1.161-1.762-1.225-.778-2.229.911.189,1.661.895,1.028,1.439,2.943-2.08,3.938-7.72,3.37-8.066.379-1.431-1.8-.976-.726-1.911,4.1-.314,11.13.834,11.485,1.266.895.016,5.14,10.179,4.982,10.134-.669.036-.222,1.1-1.354.726-.177,1.229,6.563,12.238,7.522,11.811-.46.709,5.6,1.012,5.212,2.588,1.149.439,2.2.967,3.338,1.354a3.445,3.445,0,0,1,3.592-.645c.617-.951.02-3.108.726-3.934,7.208.52,9.937,7.595,17.072,3.959a4.881,4.881,0,0,1,2.9-3.35c1.991-.024,2.237,1.536,4.337,1.33.919-.677,1.217-2.016,2.931-1.955,0,.415.407.464.3.992-.173,1.338-1.818,1.181-1.907,2.592,1.391,2.6.347,6.538,1.927,10.215-3.983,7.421-5.2,26.4-17.08,20.236.286.242-.738.705-.947.786.318-1.165-1.177-.589-1.318-1.33-.226-.536.959-1.322-.008-1.6-1.109,1.475-2.717-.141-4.019-.359-.516.145.391,1.165-.935.976-.641-.1.238-.536-.355-.617-2.773.714-4.983,2.5-7.514,4.184-7.433-.9-12.484-5.535-20.74-3.878-.387-1.02-.871-1.915-1.23-2.959-3.326-.294-9.066.339-9.578-3.612-7.208-4.7-20.24.609-15.193,10.142-1.225,1.75-2.415,3.672-5.184,3.983-4.612-6.43-18.922-3.285-20.079-13.153-4.132-.012-5.817-2.709-9.856-2.955-3.926,2.237-6.345-1.669-10.15-1.616-.455-1.689-.443-3.608-1.927-4.289-.992.185-.584,1.673-1.7,1.645-1.076-.742-2.245-1.475-2.322-3.241,2.7-2.068,6.192-4.007,5.353-8.61-1.685-.738-3.249-1.669-3.031-4.289,1.927-.145,1.891-2.233,3.257-2.9-.25-.6,0-1.838-1.024-1.665a4.529,4.529,0,0,1-3.213,1.979c1.012-.9-1.076-1.564,0-2.6-4.652-2.689-6.95,2.519-12.452,1.963a2.578,2.578,0,0,0-2.624-1.346c-.431,1.846-3.015.6-4.007.016-1.443,1.415-3.954,1.713-5.849,2.592-8.4-2.91-20.7-.177-26.678,5.023-5.365-1.439-10.005,8.756-14.73,2.241-3.455,2.5-11.069,2.358-12.162-2.983-.323.726-1.354.726-2.249.742-2.87,15.395-21.691,14.036-22.046,31.124,1.947,7.724-7.756,14.766-16.475,16.108-2.415,3.717-3.181,9.139-8.2,10.219-1.483,6.043-3.833,11.206-7.736,14.814.085-.028.1.133.177.318-2.281,5.954-8.07,10.1-7.211,18.023.141-.81.008-2.016.951-2-.193,1.338.887,1.423.645,2.689.645.722,1.048-.331,1.693.351a6.82,6.82,0,0,1-.036,5.506c-.036-.306.125-.855-.334-.935,2.193,8.562.879,24.9-6.9,30.914.585.576.6-.222,1.713,0,1.306,2.112,2.072,4.874,3.221,7.224-1.028-.274-.988.476-1.665.6a14.479,14.479,0,0,1,0,5.91,7.714,7.714,0,0,1,3.632,3.983c2.068.415,2.552-.77,3.922-1.044-.919,1.044-.548,1.367-1.286,2.342.984.258,1.657-1.387,1.967-.621-.4.528-1.532.379-1.282,1.62,1.177.976,2.358,2.306,2.33,3.616,1.383.439-.1-1.834,1.294-1.278,1.072,5.97,7.393,7.635,8.51,12.75-1.181-.3-.5,1.048-.649,1.62.415.834.951-.572,1.326.371-.7.794-1.375-.589-1.681.625,2.157,1.33,1.669,3.539,3.588,4.62-.584.193-1.939-.492-1.56.665,12.077,3.946,16.346,15.584,28.548,19.418,6.937-5.115,20.623-7.288,29.262-2.685,5.3-2.185,9.235-5.66,16.1-6.208,4.535-5.4,21.885-5.519,23.014,2.628-1.237,5.418,6.655,8.8,9.864,4.555,1.109.8,2.806.335,5.833.359.117-.435-.351-1.685.4-1.6.8.677.056,1.08.617,1.927,1.048.222.939-.589,1.971-.322-.3,1.35.52,1.673.339,2.955a2.941,2.941,0,0,1,1.915,1c1.072.383.266-1.076,1.391-.705,1.878,3.64,1.931,12.384-1.391,17.451,1.987.085,1.06.927,1.383,2.681-.617-.645-.621.173-1.681-.036.327,1.463,1.387,2.128,2.334,2.939-1.552.439-1.427-.754-2.007-1.31-.028,2.241-.19,5.478-1.943,6.921-.016-.6-1.262-.927-1.56-.645.718,1.338,1.741,2.4,1.9,4.579.4.79,1.06-.58,1.274.318,2.233,9.945,14.867,16.225,16.717,27.6l-.9.008c2.189,5.091,5.248,10.449,5.91,16.084a2.708,2.708,0,0,0-2.056,1.689c2.084,6.405,8.425,18.2-.185,22.292-3.249,3.959-3.019,13.887-6.635,18.378-1.705,19.9,10.739,27.665,14.439,43.016-.3.012-.351-.169-.625-.258A123.222,123.222,0,0,0,810.6,633.96c2.939,12.488,15.657,23.058,14.754,37.1a1.255,1.255,0,0,1-1.282-.351c-.012.8-.492,1.064-.3,2,2,.693,2.652,5.256,2.894,8.3.988-.548-.48-1.431.427-1.673l1.286.012-.028,1.628c1.262-.238,1.588.363,2.6.318.016,2.761,2.33,1.629,3.68,2.6,1.512-2.818,5.635-2.983,8.885-2.6,3.733-3.6,9.775-2.253,15.064-1.395.472-1.6,2.874-1.334,4.265-.576.6-.633-.246-.653.028-1.625,1.459-1.02,2.58-.278,4.882-.387,12.363-6.6,20.28-17.628,27.875-28.923,5.132-2.576,6.317-10.844,6.6-17.41a1.187,1.187,0,0,1-.621.947c-.278-.5-.818-.846-.971-1.552,2.947-6.732,14.8-4.479,16.1-12.839-.464-.734-.778.439-1.076-.355.984-2.435,2.217-9.558.431-9.5-.871-4.583-.77-8.167-3.382-10.823,1.137-.544.27-2.89,1.076-3.652.081.282,0,.71.318.71,3.1-1.383,3.326-5.748,7.595-5.914,5.724-12.1,23.9-10.908,24.965-26.988-.46-.71-.871.415-1.064-.327.8-.52.326-1.8-.625-.939,1.387-1.358-.536-5.4.6-7.647-.456-.1-.726.536-.9,0,.3-.544,1.173-.484,1.266-1.266-2.62-6.845,1.225-10.642-.947-14.762-.955.367-2.032-1.346-3.6-1.967-.222-5.724-3.37-12.343-.762-18.442-9.005-7.131,3.491-15.717,4.035-25.251,2.032-.415,3.269-2.2,4.216-2.665-.455-.089-.343-.714-.641-.988.968-.008,1.391-.572,2.334-.681,12.436-22.356,38.67-31,44.66-59.789,2.773-3.616,5.325-7.558,5.22-14.081,2.681-2.318-.355-6.127,1.713-9.239-6.172-.536-12.218,5.527-20.369,3.963-4.785,3.572-10.312,2.33-16.108,4.547-2.765-1.693-4.156-4.745-6.276-7.159-.556.089-2.241.818-2.669.016,1.443-.621,2.411-1.883,3.938-2.342-3.176-7.6-9.973-12.154-15.713-18.067-.984-.246-.935.6-2.011.274-.681-.967-.528-2.9-1.883-3.229-1.064.722.556,2.136-.439,2.612-3.946-8.086-4.555-19.535-12.758-22.663a39.49,39.49,0,0,1-1.923-13.786c.056.367-.089.927.3.98.161-1.959-2.987-3.3-2.31-6.885-3.334-2.8-8.034-4.273-7.57-10.815.512-.185,1.717.363,1.645-.355-9.207-9.961-12.295-23.912-19.712-34.2.79-.028.363-1.4.971-1.629,2.515,5.075,4.265,10.828,9.562,13.166,1.544-2.677.548-7.909,2.983-10.5-.681,1.612-.387,6.47-1.633,8.546.443.5,1.633-.379,2.894-.016,4.986,7.994,10.642,14.141,13.476,23.013,11.6,3.414,5.535,17.922,13.19,23.937,8.022,2.37,7.179,13.669,13.782,17.414l-.016,1.673c3.8,1.717,2.318,7.466,2.943,10.84-.7-.693-.625.161-.988.645,4.047,2.785,2.576,11.09,5.615,15.157,2.249,1.113,5.51-.931,7.877-.3,4.18-5.027,13.149-5.986,19.3-7.929,2.975-6.026,12.464-5.579,17.753-9.231.335-1.371-.439-1.633-.274-2.894,3.838-6.974,16.423-2.6,17.1-10.884,6.938,1.06,4.688-8.494,11.493-6.551-1.258-2.951-1.508-8.465,1.322-9.868a1.6,1.6,0,0,1-.343,1.282,2.028,2.028,0,0,1,1.629.347c1.02-5.474,5.986-6.974,6.248-13.174-4.978-8.187-20.006-6.248-20.1-19.333.327-1.169,1.52-2.947,0-3.914-3,3.559-7.2,11.134-11.178,13.053l.028.008c-.028.447-.613.339-1.024.339a3.3,3.3,0,0,0,1-.347c-1.407-.891-1.971.451-1.56.681-1.649-.6-4.4-.016-5.93-.669-.23,1.326-1.987,1.415-3.612,1.326-.3-.52-.137-1.608-.673-1.963-.012.359-.407.27-.351-.379-.762,0-.927.641-1.947.351,2.136-2.169-2.971-4.938-2.882-2.6-.984-3.451-3.318-5.523-4.656-8.526.484.048.476.593,1.036.7,1.629-2.08-2.362-2.721-.456-3.963-1.842-.818-2.781-2.918-4.479-2.951,0-1.064-2.326-2.677-2.959-3.064-.3-3.342-5.982-9.32-6.3-10.453.581-1.564,5.277-4.833,5.277-5.648.677,1.27,2.814.895,3.265,2.35,1.238-.028,1.217-1.367,2.58-1.367.319,3.265,3.862,3.064,3.676,6.639,1.79-.266,1.024.516,1.036,1.645,3.6,6.869,11.239,8.1,16.366,13.125,2.511-.992,11.952.065,13.109-1.943-.714-1.1-1.891,1.129-2.584,0,6.168-4.168,7.01,4.749,8.59,7.562,4.8.641,12.263,2.842,16.737,1.895a5.8,5.8,0,0,0,6.236,1.338l-.008,1.076c3.047-.826,4.358-1.733,9.179-1.088,1.27-2.137,4.563-.335,6.264.375,1.241-2.173,5.825-.971,8.183-2,1.58.456,2.286,1.608,1.87,3.95,1.431-.58,2.141.278,3.092.351,2.056,6.825,7.5,8.34,14.157,12.194.492-.73,2.322-1.842,3.245-1.1-.617,3.116-3.845,2.338-5.6,3.7.121-1.548-.524-.3-1-1.367.911,6.546,13.734,16.483,17.439,5.269-.1-.895-1.29-.762-1.641-1.342,1.641.343.673-2.116,2.656-2.27-.846,1.395.839,1.9,0,3.261.528.669,1.334-.54,1.592.669-.988-.113-1.064.689-.988,1.677.625.661.641.25.343,1.254,2.995,2.673.109,9.425,1.959,13.2.258.056.705.008.709.318,2.116,8.115,3,15.556,7.26,21.365,4.108,9.312,10.993,24.356,14.77,35.82.689,2.136,4,7.417,6.563,7.5,4.741.234,3.088-9.7,10.2-6.893-.855-.907-2.5.06-2.971-1.58,1.028-1.4,1.242-3.33,2.273-4.628,1.012-.464,1.1.141,2.584,0-.871-8.876,1.379-18.035-.008-26.017-.452-3.213-1.842-6.692,2-7.865.21.452.33.822.641,1.02,1.1-.4,1.778-1.931,2.266-3.612,2.8.839,6.6-1.2,4.652-3.93,8.151-4.41,10.078-14.967,19.744-17.757.915-2.145,1.838-2.769,2.588-4.571-.3-1.165-1.064-1.741-.959-3.281.476-2.689,4.821-1.524,5.535-3.934a9.556,9.556,0,0,0,4.987,1.915c-.766-.568.738-.556,1.62-.31-.008-1.52,6.579-6.885,8.224-5.587.984-.117,10.642,12.92,13.23,15.608-.125-.274-.125-.435.226-.435,2.475.955,9.445,23.255,9.884,22.643.637.58,1.391,2.419,2.31,3.277.657-.988,1.552-.617,2.266.306C1233.978,375.72,1241.149,375.982,1239.662,370.109ZM868.039,111.877c1.234-2.185,1.2-1.79,3.007-3.269,3.572,1.479,7.465,2.576,9.525,5.591-.363,1.088-1.1,1.661-1.4,3-1.2.069-1.556-.794-2.906-.709-.806.048-.6,1.052-.6,1.967-.653.351-1.177-.984-1.31,0C872.651,115.86,870.906,113.341,868.039,111.877Zm44.447,114.338a5.356,5.356,0,0,1-1.693-2.6c-1.673,0-2.4.492-4.007-.008-2.451-4.152-16.374-1.58-19.011,3.6-9.312.427-16.265-1.983-19.019-8.2.689-.415.572-1.552,1.915-1.391a4.219,4.219,0,0,1,1.052-4.2c.988.435,1.3.27,1.895-.31-.867-5.156,1.177-6.075.722-8.872.947-.028.528.951.327,1.612,1-.443,2.249-.637,3.318-1.02.133-2.342.452-3.168-.669-4.515,1.9-.149,4.531-2.407,4.914-5.325.629-.528,2.463,0,2.959-.625.939,1.161,1.121,1.189,2.919,1.322-.585.27-.859.814-1.592,1.008.331.887,1.363-.1,1.935,0-1.06,1.367,5.958.705,7.615.967-.064.451-.064.9.306,1.012-1.822,1.044-4.523,1.169-5.329,3.217,1.919.081,3.084,1.1,5.333,1.669.306.859.262,2.431-.754,2.979,2.906,3.793,4.978-2.112,7.949-.988.552-.8,1.487-1.193,1.959-1.963a6.8,6.8,0,0,0,4.668.258c-.665-1.028-.133-1.455.6-1.975-1.217-1.544-3.2.653-3.991-.6-.839,1.54-2.056.689-3.6.609,1.088-3.136-2.769-1.375-2.592-4.563.782.4.77,1.411,1.246,2.028,1-.6-.657-1.213-.266-2.378,6.978-2.866,10.916-5.055,20.119-5.914a9.827,9.827,0,0,1-6.627,3.314c.173,1.955,2.673,1.681,3.58,2.935-1.354.262-4.479,2.177-3,4.93-2.693-.568-1.568.552-4.221-.609-.407.492.859,1.35-.7,1.6,9.336,3.6,16.032,10.187,25.424,14.427C942.881,232.129,918.827,227.372,912.486,226.215Zm80.533,27.915c-4.68.141-6.494-3.33-9.558-4.874-5.724-2.991-8.856-2.3-7.643-10.5.581.274.839.822.431,1.221,1.729.645.169-3.152,1.576-1.955-1.113-1.379-.064-2.947-.31-5.2.911-.722,3.273-1.677,4.289-.343-.609-1.7-1.83-2.584-4.277-2.33-3.495-7.333-13.2-9.542-12.9-19.075-1.189-1.06-4.087-2.761-5.2-4.894,2.08-1.169,2.564-3.789,3.249-6.272,2.2,1.157,2.737-1.629,5.019-.6.181-.98-.528-.838-.367-1.645,3.088-2.491,6.567-3.753,10.493-5.942,1.721.331,2.951,1.258,4.587,1.637,8.558-5.039,2.874,13,10.836,7.869a9.5,9.5,0,0,1,1.955,3c-1.141-.089-1.217-.472-2.213.032,0-.681,1.072-.246.9-1.036-4.458-.423-13.347-3.62-14.693,1.024.1,1.33,1.58,1.427,2.245,2.286-1.068,1.342-2.6-1.234-5.18-.363-.548,2.205,1.052,2.411,2.935,2.338.641,2.673,3.535,3.12,3.535,6.51,2.189-.371,2.6.915,3.281,1.987a5.936,5.936,0,0,1,4.3.617c-1.971,5.821,3.753,10.6,3.938,16.773.113-.847,1.016-.472,2.661-.266-.5,1.435,1.092,1.455.278,2.3-.689.113-.609-.468-.689-1a2.272,2.272,0,0,0-.278,2.959c.528-.133.254-1.072,1.354-.617.843.895,1.423,2.056,2.87,2.229-.818,4.555,1.092,8.377,2,12.19C999.082,251.72,996.313,254.094,993.019,254.13ZM1524.845,622.77c-.387,1.524-1.552,2.9-2.6,4.628-.012-1.858-2.06-1.754-1.254-4.241-2.205-.326-1.56-3.519-2.693-4.664-.967.226-.589.214-1.637-.032-.613-1.246-.375-1.129-.355-2.955-1.229-.54-.508.218-1.669.379-.883-2.681,2.411-6.712-.641-7.877.343,1.129.056.77.407,1.915-.738-.75-2.12-.895-2.016-2.584-.931.065-1.125.552-.613-.3-1.491-.464,0,2.149-1.04,2.213-1.451-.77-1.6-4.083-.577-5.531-.987-2.06-2.064-3.914-3.039-5.97.657-.464.492.077,1.245,0,.024-1.451-1.447-3.866-2.592-2.27-.189-1.4-2.749-3.555-2.89-1.947-.6-.879-.238-2.632-1.024-3.358.383,1.133-1.02.552-1.617.722-.04-.508.044-1.238-.371-1.346-.423.177-2.334.339-3.193-2.286.5-1.048,1.431-2.6.226-3.563-.068.226-1.08.959-.947.282,1.939-2.072.589-6.284,1.343-8.207-3.781-1.7-1.778-8.933-1.314-11.791-1.25-1.306-3.511-1.524-3.273-4.265-1.371-.665-2.431,1.443-3.951,1.556-1.411-2.443-.875-6.716-.359-9.8-.766-.867-2.737-3.87-.984-5.253-.137-.589-1.612.02-1.649-.657.641-3.164-.73-5.656-1-6.905-1.266-.012-1.31,1.334-2.629,1.35.012,4.563-2.9,6.3-3.942,9.812.826-.073,1.258.1,1.27.649-5.172,8.651-2.1,26.271-14.052,30.245-1.225-1.617-4.3-1.173-3.914-4.321-4.563-1.185-7.038-4.35-10.207-6.849.887-.016.859-1.633,0-1.608,0,.879-.435,3.023-1.689,1.229.556-.129,1.951-1.741.975-1.254-.173.464-.8.73-1.625.641a29.165,29.165,0,0,0-4.934-4.563,16.708,16.708,0,0,1,5.276-7.264c-.512-.79-1.354.5-1.927-.318.133-2.185.81-2.419,2.9-2.943.016.347-.512.758.028.927.657-.629.94-1.677,1.641-2.31a.781.781,0,0,1-.621-.976c.923.153,2.233-1.814,2.556-3.237-.984-.206-2.395-1-1.584-1.959-1.052.7-1.745-.052-2.713,1,1.318-.113-.161.935.992,1.193-.343.931-.677,1.084-1.592.758a2.422,2.422,0,0,0,0-1.975c-.351.161-1.242,1.524-1.6.665.843-1.2,1.955-2.036,1.9-3.261-1.205,1.689-3.172,2.6-5.265,3.58-.161-.705-1.258-.738-1.3-1.649-1.572.7-4.716-.29-4.257-1.661-2.459,1.31-4.245-.391-5.269-2.318-.262.528-.459,1.04-1.286.98-.875-.5.782-2.213-.323-2.951-.31,2.58-3.543-.157-4.277,1.971.883.077,1.31.512,1.31,1.346.766-.121,1.258-.556,2.306-.391,1.911,3.584-1.935,5.212-5.6,4.914-.9.012-.657-1.153-1.254-1.637.113,1.568-.613.826-1.346.718.427,1.649-1.556,1.935-2.29,1.35-.222,2.447-4.966,3.523-2.358,5.849a4.049,4.049,0,0,1-2.624.984c-.061,2.789-2.665,3.265-3.237,5.6.931.343,1.27,1.4,1.629,2.278-.923-.085-.323,1.274-1.057,1.362-.177-.726-.786-.976-1.552-1.359-.194.621.391,1.991-.31,2.044.213-2.29-2.213-2.044-4.047-2.4-.153.516.448,1.778-.3,1.705.008-.375-.1-.782-.561-.593-.355.508-.024,1.685-1,1.568.109-1.334.935-1.919,1.334-2.939-2.451-1.794-3.467-5.039-6.591-5.914-1.048.536-.532,2.608-2.12,2.592a2.214,2.214,0,0,1,.443-1.25c-1.092,0-1.435.935-1.967,1.629-.016-.879.157-1.947-.705-1.991-.718,1.447.209,3.3-1.584,4.325-.782-1.286.028-2.032-1.334-2.314.568,2.741-2.076,1.532-2.653,1.572.855,1.6-.4,2.257,1.012,3.987a7.806,7.806,0,0,0-2.592-1.286c1.205,1.229-1,.895,0,2.576-1.218-1.185-1.218.391-2.33-.629-.242,2.088-1.729,3.39.008,4.95-1.278-.371-.9,1.238-2.016,1.959-.488-1.185-1.4-1.092-2.318-.3.125-.855-.089-1.459-.971-1.371-.246,1.217-.484,1.576-.258,2.33-.572-.423-.786-.407-.992.306.693.222.79,1.633,1.911,2.29-.778.472-.568.661-1.625.31.052,1.1,0,1.975-.641,2.286a9.548,9.548,0,0,1-1.633-5.849c-2.366,2.253-7.59,5.353-5.337,10.2-5.1,4.47-9.126,13.149-18.656,11.186-2.467,1.907-7.607,4.6-10.6,3.91-.927-.117-1.262.443-1.895.613a2.067,2.067,0,0,1,.29-.984c-5.611,3.322-12.222,7.466-16.02,11.481.415-.818.174-2.286.544-3.293-4.2,6.264-8.514,15.411-3.818,24.013-.943.758-.339,3.031-1.766,3.305-.464-.653,0-2.443-.52-2.959.137.685-.589,1.766-.774,1.016a2.936,2.936,0,0,0-.6-3.624c-1.5,1.383.222,3.995,1.068,5.216a2.236,2.236,0,0,1-1.427,1.4c-.157-2.245-1.141-3.487-1.842-5.172,3.064,12.19,5.768,28.963,1.846,40.94-.306,3.156-1.463,5.587-3.995,6.51-.238-.254-.56-.649-.867-.919-.524,1.709-1.592,2.757-1.439,5.256,4.3,2.02,7.8,5.809,13.27,4.273,6.224-3.1,13.049-8.635,22.961-7.272.165.689-.971,1.024.351.992,1.21-.4,4.418-1.645,5.253.016,10.8-10.715,28.589-11.932,45.6-15.451,1.959.887,3.019,2.443,4.6,3.576a3.669,3.669,0,0,1,2.737-.617c.189,1.552,2.628,2.165,3.813.98-.133.907.733.617.738,1.35-.061.613-.871.331-.71,1.278,1.048.117,1.689-1.278,2.02.028-1.1,1.5-2.06,1.927-1.3,3.918,3.084-.48,3.051,5.583,1.862,8.171.166-.863-.4-1.06-.806-.6.161,1.189,1.519,1.185,1.165,2.963.971.286.718-.669,1.411-.669.065,1.528.927.278,1.588,1.342-.766-1.092-.274-1.342-.677-2.644,5.168-4.309,10.63-6.329,14.854-11.557-1.254,5.906-6.406,7.691-7.937,13.129h-2.25c-.322,1.153-1.318,1.451-1.661,2.29,1.984-.024,3.076-1.237,4.958-.677,1.484-1.741,2.568-4.14,4.184-5.869,1.79,4.4-1.5,6.627-3.543,8.937,1.927.331,2.439-.633,3.833-.705,3.552,2.08,1.673,7.937-.29,10.195,1.157,1.161.79,3.834,2.092,4.91,2.358-.6,2.35,1.242,3.5,2.007,5.579.867,13.061,3.636,15.778-1.991,1.036-.129,1.431-1.064,2.624-1,.1,1.733-1.3,3.1-2.624,2.358-.04.556.379.705.322,1.342a2.78,2.78,0,0,1,3.955,2.221c1.137-.6,1.5-.193,1.371,1.334,1.072-.129,1.245-1.048,1.556-1.959-.7-.21-1.072.879-.967-.355.625-.931,1.27,1.234,2.023-.02,3.89-1.221,6.663-4.978,12.146-5.611,1.536-.121,3.188.407,4.865.028,7.558-1.564,8.07-15.709,14.851-16.084,10.706-14.056,29.076-27.371,32.507-46.636-1.258-.25-.572,1.4-1.338,1.649-1.6-3.4,2.918-7.2,1.657-11.227C1523.37,627.591,1525.913,625.088,1524.845,622.77ZM282.935,57.087c.286,1.346-.653,1.524-.653,2.6,12.879-.036,20.8-8.155,33.462-8.88-2.79.641-5.571,1.423-8.187,2.261-.552,1.2,1.109.181,1,1.036-3.019.484-6.188.726-7.256,3.334.927-.355,2.233-.665,2.628.258-.75-.069-1.2.1-1.294.657,3.116.379,6.724-.693,8.921-.322-3.7,1.318-9.638.31-11.827,2.983.089.488,1,.274.572,1.278,7.252.794,15.584-2.052,20.377,1.326-7.155.806-25.984-2.007-22.6,4.934,3.451,1.137,6.208-.27,9.151.959-.121,1.08-1.725.7-1.645,1.983.089,1.54,1.028.9-.294,1.681a104.19,104.19,0,0,0,31.5-4.978c-.056.875-1.246.5-1.238,1.314,1.669,0,3.543-.077,4.491.7-.726-.113-1.213.077-1.234.657,4.648.351,10.557.943,14.762-1.354-1.024-1.342.032-.476.673-1.608-1.234-.984-2.278.435-3.68.266a6.1,6.1,0,0,0-1.3-1.25c1.35-.1,1.556,1.1,3.358.625a4.123,4.123,0,0,1,2.612-1.6c1.318,1.54,1.842.157,3.878.976a7.091,7.091,0,0,0,2.3-2.656c-1.463-.367-2.769,1.048-1.939-.661-2.169.306-2.536-1.141-3.672-1.983-.766.468-.149.649-.585,1a5.078,5.078,0,0,1-2.6-2.951,12.3,12.3,0,0,0,3.539-2.2c-.589-3,2.056-4.075,2.628-6.663-.572-.81-1.822-.984-2.27-2.016-7.8-3.172-8.723,9.05-13.823,7.558,1.024-1.056,1.431-2.415,2.669-3.914-1.088-1.1-3.124-2.878-5.3-1.987.786,1.629-.121,1,.641,2.346-.568-.314-1.109.967-1.286-.028.27-.085.625.012.625-.339-2.378-.548-4.434.967-5.2.967.363-.915,1.947-.56,1.947-1.919-4.261-2.592-7.538.492-11.473.27a5.936,5.936,0,0,0,4.354-2.636c-3.709-1.52-9.538,1.878-13.593,1.036,3.785-.492,7.187-1.205,10.59-1.931-.508-4.063-6.446-4.926-9.929-2.991-2.914-2.572-18.942-4.043-20,1.661-2.475,1.33-7.32,1.866-7.893,3.922a47.443,47.443,0,0,0-11.243,4.922C280.218,55.027,281.113,56.333,282.935,57.087ZM71.685,89.956l.073-.012c.052,0,.052,0,.177-.069A.2.2,0,0,0,71.685,89.956ZM411.7,33.094a2.415,2.415,0,0,1,2.689,2.278c3.185-.576,5.773.044,8.51-.665.492.988-.46,1.709.609,2.334-2.27,1.677-5.039,2.1-5.236,5.168,3.378.734,9.453,1.274,12.525-.246-.121.766-1.568.161-1.375,1.326,5.011-.161,15.209,1.346,20.389-1.717.141.637-.359.734-.294,1.33,5.14,1.467,10.823-.677,14.77-1.608-.314-.331-.669-.685-.984-1.04,1.415,0,2.6-.177,2.648-1.568-1.362-.391-2.665-1.645-4.221-.713,0-.367.359-.447.3-.931-7.373,0-15.064.173-19.1,1.975-3.394-.669-4.737-1.419-7.2-.331.052-.722-.492-.734-.709-1.048-1.133-.214-1.705,1.725-2.592.645.1-.726,1.552-.165,1.282-1.242a2.393,2.393,0,0,1-2.27-1.358c1.7-.177,4.253.536,4.555-.976-1.447.3-1.971-.451-3.269-.367-.012-.379.468-.447.363-.992-2.725-.847-5.458.262-8.594.032.726-2.342-11.267-2.693-10.735-.641C412.675,32.876,411.978,31.856,411.7,33.094Zm674.446-10.227c-4.007-1.395-15.149-6.555-15.028-7.264-6.547-1.25-16.346-.355-16.471.371-.367.1-.133.322,0,.621-1.484-.04-.653.556-.21,1.3-.443.98-2.927-.282-3.37.641,2.777,1.266,11.609.653,12.44,1.028C1061.987,19.469,1077.555,25.632,1086.146,22.867ZM949.213,59.618c-.54.02-1.217-.048-1.274.371,1.536.193.589.641-.016.992,1.576.363,3.644.887,5.236.339,1.584,1.1,8.941,1.911,11.186,0-9.792-1.076-15.35-9.856-5.845-14.46.383-.911-1.411-1.1-.435-1.35.637.665,1.963-.714,2.358-1.294-.322-.109-1.455-.887-.738-.927,2.1,1.044,1.024-1.451,3.664-.419.318-.834,1.354-1.048,2.334-1.3,4.382-5.732,18.164-2.741,24.356-8.227-2.318-2.773-8.022-1.85-11.235-.625-.109.617.5.629.6.98-4.237.028-10.078,2.241-16.068.984-.73.435.363,1.242-.326,1.242-2.9-.246-10.1,1.149-9.513,3.4-.758-.81-4.172-.254-2.33.645-.9.7-2.02-.468-3.463-.008-.335,1.383,1.766.484,2.241,1.3-.7.028-1.153.177-1.407.645.7.2,2.185-.427,2.334.274H947.9c-.383,1.165,1.1.274.645,1.35-1.979.988-3.229,2.737-5.615,3.338.778.593,2.31.335,2.967.935-.343.093-.218.387,0,.653-1.044.1-1.512.9-2.967.625.073,1.387-.492,1.794-2.318,2-.157,1.439,1.794.7,2.032,1.673-.5.629-.762,1.391-1.246,1.983-1.391.081-1.616-.54-2.717,0C939.571,60.828,946.4,55.966,949.213,59.618Zm299.6-17.08c.512-.734-.774-1.274.016-1.282,4.873-.5,12.262,2.165,15.83-1.649.169-.9-1.556.165-1.338-.645-.23-.883,1.5.189,1.338-.705-6.107-1.342-12.92-1.693-18.515-2.511.415.081-.923.169-.923.556.871.6,1.822,1.08,2.677,1.633-4.918-.56-11.424-4.6-14.508-1.306C1235.485,40.394,1242.036,41.9,1248.816,42.539ZM1107.184,24.459c-3.3-.726-8.651-3.749-12.085-.976.173-1.346-.439-1.25.012-2.221-2.556-.548-3.809,0-5.64.258-.722,2.233.238,3.35-.58,5.531C1094.571,26.4,1102.721,27.229,1107.184,24.459ZM810.9,19.3c1.6.851,4.511.25,6.248.919-.443.028-.971-.024-.98.322,7.127.984,18.12,3.039,24.961-1.649-5.063-2.024-9.759-1.524-14.069-1.31.323-.024.879.044.879-.339-.488-1.161-2.709-.375-3.58.008,1.112-.089.407,1.318.363,1.326-2.519-1.338-6.268-1.371-9.538-1.967-.5,1.169,1.064.169.992.963-1.209.278-2.241-1.326-2.669,0,.5-.024,1.9.544,1.06.734-1.06-.536-4.08-.689-4.914.02a3.663,3.663,0,0,1,2.519.58C811.729,18.929,810.967,18.783,810.9,19.3ZM491.286,182.563s-1.963.548-3.318.992c-.012-.443-.137-1.463-.717-1.661.423-.064-.109-4.325-1.637-3.261.238-.278.726-1.834.024-1.975-.593.984-1.387-.149-1.62,1.294.73.3,1.395-1.145,1.62-.322-1.709,1-2.431.689-2.644-.355-1.266-.468-.621.859-1.258,1-.266-1.475-2.624.7-1.975-1.991,1-.427-.012-1.5-.306-2.6-1.157.7-2.5,2.983-3.963,2.241,2.6-2.83,6.059-4.995,8.534-8.123-.476-.859-1.213.3-1.342-.375,1.387-.5,3.318-.4,3.656-1.963-1.33-.439-1.52.552-2.314.633a1.426,1.426,0,0,1,.266-.992c-4.438.714-5.906,4.067-9.183,5.281-1.117,3.761-6.885,6.208-6.623,9.211a1.123,1.123,0,0,1-1.6.02c-1.117,1.02-5.95,3.164-4.878,4.217.778-.314-.258,2.116-2.378,2.987l.012,2.274c5.273-1.31,12.351.895,16.161-.971a1.524,1.524,0,0,0,1.616,1.673c.472-.242,2.346-1.234,2.673-.709-2.27,1.221-4.7,2.153-6.22,3.934,4.241.2,7.163-3.209,10.432-5.523,1.334,2.81-1.911,3.656-2.306,5.889,1.036,1.032,3.785.335,4.616,1.354,1.548-1.883,5.111-5.506,3.628-7.244-.488.774-3.044,0-4.346,1.58a1.114,1.114,0,0,0-.258-.963C487.041,185.155,489.738,184.977,491.286,182.563ZM790.614,21.887c-.008,1.25-2.056.58-2.664,1.229,2.761,2.032,7.925,5.035,11.839,2.024-.4-.036-.976.081-1.068-.314.439.012.343-.52.7-.669,1.935.859,4.5,1.749,6.913.02-.355.4-.516.988-1,1.411-3.628.133-5.946,1.854-9.546,1.221-.6,2.858,4,.617,4.579,2.29-.451.919-3.06-1.032-3.318.661,1.387,1.367,3.9,1.56,6.349,1.975-.065,1.149,3.378,2.588,5.531,1.612.121-.629-.419-.629-.645-.947,2-.407.984-3.749,4.3-3,.572-1-.089-1.657.3-2.322h1.939c.177-.58-.355-1.883.371-1.907,2.124-.1,4.386-1.6,6.208-.335-.895.177-2.592-.443-2.9.327,1.959.653,3.08,2.217,5.224,2.592-.967.476-2.036.895-2.33,2.012a20.824,20.824,0,0,0,5.97-.669,1.805,1.805,0,0,0-.318,1.677,46.164,46.164,0,0,0,8.143-2.616c-1.858-1.262-4.628.246-6.184-1.334.383-.113.9.064.927-.363-.871-.645-2.842-.2-4.217-.339.706-2.4-2.439-1.08-3.326-1.939.4-.06.8-.089.665-.7-4.067-1.052-9.122-.532-10.166-3.249-1.649-.665-2.588,1.205-2.943.657-.323-1.024,1.028-.488.967-1.346-3.023-1.153-4.144-.27-6.95-1.213a.838.838,0,0,1-.6.943c.258,1.637,2.83,2.89,2.6,3.862-2.636-1.443-4.914-5.18-8.514-2.91-.447.855,1.282,1.068.286,1.3-.5-1.1-1.766-.532-2.286-.976.46-.693,2.193-.242,2.278-1.258-1.629,0-6.256-.258-6.49.669-1.407-1.56-2.9.169-4.66.262A2.518,2.518,0,0,0,790.614,21.887Zm-358.823-.625c.492,0,1.088-.081.935.641a33.086,33.086,0,0,0,3.946-.641c-.008.266-.23.331-.266.653,2.374-.193,3.757-1.072,5.865-.387-.363.064-5.829.278-8.223,1.637a7.406,7.406,0,0,1,1.681,2.681c3.483,1.758,9.812-1.109,10.473-1,.681.516.58,1.669,1.641,1.625,1.326-.306,2.487-.81,2.931-2,.629.3,2.58-1.04,3.612-1.338-.036.367,7.03-.971,10.384-1.991a3.141,3.141,0,0,1,1.794-.9c-.044.226-.81.589-1.794.9-2.737,2.012-7.079,6.942-7.429,7.038-.222,2.076,3.007.705,4,1.6-2.874-.1-4.45.54-6.631-.347.484-.423-6.542-2.447-7.522-.322,1.334-.06,0,.484,0,.984.589.089,1.657-.331,1.282.661-4.212.476-9.195.456-11.8,2.608,0-.4.427-.4.363-.963-1.306.117-3.309-.484-3.3.976,6.208.867,14.306,2.83,21.99-.012,3.584,2.947,6.462-.947,10.2.988-.23.754-1.572.427-1.645,1.326,6.256-1.52,11.859-3.056,11.186-3.563-.887-.879,5.289-2.04,7.518-3.342-.4-.262.266-1.012-.617-1.29,7.776.758,12.061-.838,16.423-4-1.08-.589,1.463.742,2.947-1.588-1.125-.891-3.894.814-5.281-.367,1.568.278.415-.524.976-.617,3.914.911,6.631-.254,10.227,0,.435-.173.024-1.246.657-1.358,11.855.016,24.183-5.1,36.135-7.167-.734-.266-2.177.4-2.27-.339,5.986-.351,12.081-.621,16.374-2.673-1.06-1.088-5.76.254-5.591-1.629-8.542.637-16.415-1.866-25.223-.3-4.309-.77-11.843-.214-18.5,0,.911.266,1.875.322,2.374.935-3.039-.73-9.933-2.157-11.2.012-.516-.814-3.608-.963-4.587-.29a4.392,4.392,0,0,1,.988.625c-3.048-1.056-7.353.536-8.284,1.649-9.437-2.245-20.551.742-31.543,2.028,1.947.29,2.237.633,2.342,2.241,2.669.411,5.97,2.608,9.546,1,.024.427-.629.266-.673.657,2.89.415,8.884.935,10.872-.669,1.951,2.415,9.3-.625,12.819.367-3.914,1.068-9.671.447-13.528,1.58.762.738-14.818,1.717-14.383,1.012-1.83-.536-4.446-1.342-4.362-1.983-2.294-.113-5.587-.431-5.224-2.906-2.749-.4-5.365-1.205-7.518,0,.4.069.758.5.31.593-1.3.262-5.244-.4-6.583,1.35.75.177,2.334-.5,2.007.669-3.023-1.04-6.3,1.08-5.954,2.012-1.693.177-2.632-.447-4.237-.415.262,1.032-.955.7-.633,1.661.326.5,1.246.5,1.608,1C433.4,20.565,431.815,20.545,431.791,21.263Zm69.952,61.4c-.052-1.516-13.432-7.155-14.492-6.869.085-.387-.895-1.838-1.358-3a11.838,11.838,0,0,1-4.861-.681c1.733-.081-.5-.58-.641-.992,1.08-.331,2.02,1.092,2.588.02-1.229-.73,1.322-.456,1.04-1.258A39.1,39.1,0,0,0,489,69.507c-.23-3.1-4.362-.718-5.643-2.314,1.246-.976,2.906-4.043,3.858-4.2-.863-1.717-4.317-1.649-4.539-2.326-1.342-.016-3.152,1.088-3.967.669.7-.5,2.044-.234,1.7-1.681-2.79-.335-3.092.576-.951-.6-1.084-3.217-8.082-2.467-7.607-2.681-.484-.185-1.915.4-1.987-.375.52-.27,1.238-.181,1-1.254a3.694,3.694,0,0,1-1.983-1.971c-2.056-.705-3.777.274-4.918-1.29,1.439.008,2.918.081,3.612-.677-.339-4.636-8.635-3.152-13.512-4.257-.911.685-2.2,1.262-2.576,2.568,1.693.169,8.385.967,11.815,2.35-2.955-.052-6.764,2.108-7.236,2.3-.984-1.1-6.954.173-8.88,1.3,0-.391-.343-.391-.3-.955,2.052-.133,3.572-4.817,3.322-5.313,1.145.173.891-.931.879-1.907-5.958-.028-14.189.847-15.088,2.939-1.826-.359-4.97.593-5.551,3.229.258.693,1.838-.064,1.983.705-.427.052-.226.355,0,.714-2.149-1.08-4.313.359-5.9.955,1.427.294,3.164,1.213,3.2,2.012-.214.794-4.507,0-4.5-2.012.609-.947,2.044-3,1.9-3.68,3.414-2.282,8.155-3.185,11.855-5.2-14.222-1.242-24.324,4.535-29.923,12.146,2.237.129,2.056.705,0,1.334.863,0-.048.883-.617.613-.133,1.056.98.951.6,2.326,1.451.282,20.478,2.7,24.989,2.27A20.393,20.393,0,0,0,439,67.894c2.02-.7,3.1-2.338,6.168-1.947.375-.766,1.209-1.072,1.048-2.342-.568-.524-1.532.367-1.971-.621,1.508.343,2.818-1.084,3.3,1.33,1.08.355,1.274,1.169.947,2.253,1.161-.27,2.056-1.076,3.015,0-.867,0-1.62-.069-1.677.625,1.879.31-1.2,3.834-1.661,4.587,2.592.161,7.57-1.548,7.57-.919-.258.536,3.793,3.076,4.616,3.592a33.949,33.949,0,0,1-.371,4.918c-4.289,1.9-8.57,3.83-12.815,5.877.7.734,2.407,2.072,1.322,3.314-4.664-.331-9.255,2.02-15.387-.347-.427,3.092-6.534,1.419-6.272,5.934,3.265,1.689,4.825.609,9.191.347.379-.911.476-.814.653-1.25,2.362,1.33,7.909.339,8.868-.419,0,1.08-.988,2.814.661,2.024-.085,1.878,1.439,4.293,3.624,2.58a49.34,49.34,0,0,0,.379,6.9c.786.012,4.212-1.334,5.216-1.318.613,3.809,8.445,3.217,12.186,5.007.073-1.165.911-1.447,1.29-2.386-1.931-3.1-6.059-4.027-7.155-7.828,2.132-.266,2.366,1.431,3.8,1.951.177-.572-.266-1.673.722-1.342,1.766,4.233,7.429,5.6,7.873,5.635.947-.613-.536-1.693.314-2.044.222.286,1.754-2.689,2.943-3.922.335,1.189.641-2.241.335-3.241,1.1.008.782-2.12.673-3.007-1.528.4-3.031-1.649-3.942-.657,1.483-1.721-2.02-3.668-2.608-3.277,1.028-1.137.8-.834,0-1.927a16.666,16.666,0,0,1,3.938.339,16.075,16.075,0,0,1,1.939-3.322c.081.842,2.443,1.479,2.665,1.35-.113,1.02,2.878,4.789,2.947,6.184,1.483-.681,2.233-.153,3.289,1.02,2.777-.738,9.965-5.728,10.187-5.918.322-1.064-1.052-.439-.98-1.27,1.439.185-.31-.7.641-.705.484,1.181,2.765.456,3.6,0-.512-.077-.593-1.238-.512-1.137A1.95,1.95,0,0,0,501.742,82.664Zm191.811,83.778c7.062-.443,11.1-4.2,16.83-4.918.834-1.9,2.673-7.22.629-9.86,1.677.464,3.7-1.512,4.66-2.959-1.056-1.5-1.907-1.6-2.31-3.922-2.362-.806-4.237,1.165-5.285-1-3.414.806-5.539,1.673-7.506,4.261.593.4,1.85.056,2.253.673-1.153,1-3.108,1.076-4.217,1.943,0-1.858-2.91-.693-4.023-.693-.375.556-.242,1.786-1.044,2.02,1.173.758,2.149.2,3.011.669-1.3.242-2.076,1.169-3,1.975.472.1.262.359,0,.661,2.249-.008,3.1,1.145,5.067.939-2.3.661-2.709,3.035-4.712,3.983.665.331,1.165-.988,1.342,0-1.754.1-.52,1.044-1.7,1.612.4-1.242-3.4.04-1.935.988-.024-.5,2.06-.5,1.935-.008-1.29-.141-1.564.778-2.245,1.371.939-.109.891.9,1.955.254-.068.5-.5.564-.609,1.024.9.435,1.673-.9,1.919,0C693.775,165.237,693.981,166.083,693.554,166.442Zm17.769-33.837c1.512-.085,3.027,2.519,4.35,1.608-.649,1.8-2.3,1.278-3,3.318.448.024.911-.1.968.31-.484.951-1.306-.137-1.306.951,2.314.347,2.979-.9,4.313-1.62-.5,1.411-1.024,1.254-1,2.681a4.8,4.8,0,0,0-4.337,2.257c1.088-.383,1.181-.185.7.7,1.766,0,1.625-1.883,2.927-2.334.81,1.794-.589,2.2-.581,3.942,2.149-.294,1.633-3.551,3.172-3.592,1.254.363,1.27,1.887,2.02,2.62-1.612.258-1.395,2.27-2.894,2.58.161.77,1.036,2.415,1.645,1.709-1-1.274,1.661-.173,1.886.31.851-1.4,3.406-.689,5.043-2-.492,1.064-1.471,1.411-1.77,2.661.843.73.939,2.136,2,2.612a.734.734,0,0,1,1.326-.25c-.7,4-4,5.519-8.179,4.225-.387,1.2.822.927.689,1.931-.673.363-1.5.625-1.758,1.338a5.618,5.618,0,0,0,2.64-.657c1.75,3.749-2.648,4.491-5.523,5.575.141,1.169.968.451.282,1.6,1.52.984,2.3-.415,4.007-.25.073.427.375.544-.036.939,1.048.214,1.5-.242,2.29-.31.911,2.858,4.12-.085,5.3.322-1.213.2-1.484,1.375-2.354,2.007-2.862-.842-4.454.133-6.635.963-.343,3.511-4.358,3.326-5.877,5.926,1.431-1.334,1.931.464,3,.008.7-1.7,4.692-2.7,6.571-1,.488-2.233,3.9-4.257,5.95-2.012,1.395-.955,3.664-.947,5.9-.274.464-.218,0-1.3.685-1.379,3.039.879,7.965-.093,11.134-1.608-.226-.992.318-1.169.335-1.975-.879.331-2.519.572-2.935-.339.9-.419.742-1.354.951-1.677,2.185-.77,3.955-2.189,3.632-5.6-1.072-1.33-5.257-1.967-6.587-.278a.823.823,0,0,1-.629-.653c.06-.939,1.564-.4,1.237-1.641-1.153-2.346-1.907-2.794-1.923-5.6-6.131-1.693-5.4-12.508-13.081-10.493.839-.766,2.491-.794,3.14-1.653a.911.911,0,0,1-.891-.681c2.523-1.185,3.451-3.922,4.93-6.228-2.233-1.862-6.405-.883-9.558-.343.625-.959,1.358-1.137,0-1.612,2.04-1.25,4.608-2.342,4.926-4.285-3.326-.016-6.458,1.294-8.51.008-.939.516-.4,2.447-2.02,2.338,1.048,1.419-1.439.7-.012,1.592-.786.524-1.395-.145-2.229.617-.4,1.342.008,2.685-.415,3.322a2.28,2.28,0,0,1-.855-.633,1.692,1.692,0,0,0-1.02-1.975C713.04,132.238,711.589,130.836,711.323,132.605ZM1523.2,533.082c1,.028,1.85.028,1.641-.976-1.979-.153-3.1.052-4.245-1.371-.024-1.052,1.443-1.423.7-2.245-1.068-.774-2.137.572-3.689.286-.54-6.563-6.873-7.357-7.433-13.782.25-.008.335-.254.561-.294a6.074,6.074,0,0,0,4.281-.3c-.641-6-6.506-5.111-10.86-7.6,1.935-5.974-4.6-6.268-6.224-9.848-6.349-1.109-13.407-6.1-19.732-7.256a.575.575,0,0,0,.427-.625c-6.4-.3-10.146-3.85-15.516-5.918-1.721.278-2.528,1.451-3.979,1.919-.1.826.686.754.363,1.661-1.6.274-2.33,1.447-4.293.693-1.758,2.975-2.721,6.921-7.534,6.934a40.333,40.333,0,0,1-2.31-6.272,6.306,6.306,0,0,1-.633,2.955c-1.242-2.257-.762-5.656-1.322-6.252a17.462,17.462,0,0,0,.919-2.64c-1.346-.9-.839-2.427-.891-3.281-4.241.177-5.454-2.757-9.57-2.632-1.593,1.379-3.29,2.886-5.575,2.648-.476.415.5,2.463-.959,2.64.476-1.725-.863-1.649-1.024-2.632a8.759,8.759,0,0,1-2.665.318c2.52,5.115,8.006,2.806,9.88,8.889,1.637-.383,6.652-.1,8.623-.7-1.31.488.052.415-.016,1.366-1.6-.322-.435.48-.988.556-1.733.488-1.947-.633-3.293-.556-.964.492-1.137,1.713-1.959,2.27-.729-1.036-3.515-.895-4.309.032.367.024.335.492.3.951,2.878-.7,2.773,2.64,4.346,2.338-1.149.423.6.758.323,1.588l-1.04.028c.258,1.233.266,2.769,1.29,3.3,1.2-1.5,2.406,1.338,3.015.31-.431-.323-1.214-.323-1.334-.984,1.044-.766,1.068-2.689,1.967-3.612.129,2.266,2.709,2.072,3.568,3.624.234-1.85,1.02.935,1.649-.3,4.027,5.035,14.246,3.959,17.773,9.453a24.028,24.028,0,0,0,3.269,7.506c-.335.181-.564.56-1.286.375.758,1.721.831,2.173,1.286,3.318-3.362-1.874-6.853,3.31-6.526,6.236a16.847,16.847,0,0,1,6.248-.331c.927-2.286,3.181-1.145,5.97-1.6,2.141,5.676,7.385,6.716,13.734,7.147a16.976,16.976,0,0,1,4.237-2.245c.161-2.58-1.854-3-3.177-4.011,1.467.843,2.608-.532,4.47-.327-.827-2,.955-.754,1.616-1.29.685-.613-.3-1.266-.222-2.229,1.5,1.338,2.278.081,3.624.911.081-.552-.556-.8.016-.911,4.712,1.766,9.687,1.7,10.094,8.175,4.35,5.7,7.53,7.8,16.415,8.171.089,2.028,2.681,2.318,4.628,1.358.238-1.234-1.306-.822-1.6-1.653.923-.145,2.528.407,2.58-.649C1527.03,535.872,1523.809,535.2,1523.2,533.082ZM1290.619,54.446ZM1161.14,423.013c-.625-2.27-4.168-9.493-7.562-6.861,2.846.081.629,6.534-.625,9.2,1.612,4.47.681,9.715,3.652,13.113,9.288,1.334,9.9-9.542,5.571-15.443C1161.636,422.848,1161.249,423.525,1161.14,423.013Zm215.224-267.757c12.73,12.831,22.739,28.427,33.188,43.669.435-2.181-1.508-3.434-.633-4.942,2.862.617,5.233,1.733,6.522,3.963-3.237-7.643-13.863-8.1-14.133-18.753,3.539-1.689,7.369,2.435,9.557,2.971-5.345-4.071-14.032-11.992-19.41-16.741-1.919-1.7-6.393-9.4-6.228-7.574-2.011-2.016-5.184-5.688-9.554-8.534.617,1.3-1.439.064-1.27.992,2.741.536,4.116,2.451,4.962,4.97C1378.222,154.764,1377.146,153.611,1376.364,155.256ZM991.35,545.921c-.633,1.612-1.165,3.14-3.056,3.318,1.907,1.161.5,3.3.423,5.176-1.334.746-2.322.774-3.019,2.677-.576-.443-.363-1.814-1.657-1.673a3.6,3.6,0,0,0,.351,3.6c-1.036.2-1.29,1.08-1.959,1.661.758,1.592-.391,3.1-1.294,3.951.008-.609.846-1.951.044-2.286a12.509,12.509,0,0,0-2.149,4.023,1.452,1.452,0,0,0-.887-.75c-1.479,1.153-4.027,2.781-2.943,4.6-1.125.149.012-1.895-1.314-1.645-.81.427-.125.645-.673.976-.826-1.427-2.58.883-3.555,1.342-.093-.439.044-.919-.427-1.044-.778,1.415-2.689,1.685-4.608,2.011.931,3.612-2.108,5.2-2.87,8.215,1.616,7.913,3.285,15.282-1.322,21.679-.379.435-1.54.19-1.891.7a12.879,12.879,0,0,0,.633,13.089c-2.552,6.643,2.342,11.392,7.159,12.807a63,63,0,0,1,9.481-3.588c5.3-15.1,12.275-30.225,15.06-46.692.822-.649.468-2.431,2.149-2.249,1.628-2.685-2.149-6.381.911-8.55a3.14,3.14,0,0,0,1.725,3.261c2.237-6.506,0-18.982-4.313-22.961C992.5,547.908,992.028,545.76,991.35,545.921ZM1388.9,531.07c-.524-1.02-.713-.109-1.705-.645-1.225.661-3.624,3.781-1.685,4.6-.855.177-1.778.4-1.625,1.653,8.034-2.507,14-8.179,21.421-12.2C1398.995,524.508,1391.948,525.677,1388.9,531.07ZM1291.88,55.708v-.093a6.665,6.665,0,0,0-1.262-1.169C1290.542,55.4,1290.9,55.8,1291.88,55.708ZM1304.1,353.739c-.492,1.084-1.552.661-2.3.943.2,2.443-2.253,2.084-2.644,3.934a17.27,17.27,0,0,1,.98,4.273,19.019,19.019,0,0,0,5.9,1.955c-.068-1.4.834-1.25,1.657-1.012,2.048-1.766,1.9-5.7,3.9-8.147C1310.536,351.389,1306.86,354.892,1304.1,353.739Zm56.205-11.553c.947-3.709,3.055-14.218,2.278-18.749C1353.528,320.248,1353.359,340.227,1360.308,342.186ZM650.2,331.322c-.355.246-.625.472-.911.7C649.8,332.285,650.058,331.56,650.2,331.322Zm.714-235.484a2.049,2.049,0,0,0-.323,1.6c7.135-2.685,13.879,5.486,20.039.343,7.482-1.326,14.056-2.947,19.063-7.55-1.084-.234-.206-1.117-.355-2.322a6.153,6.153,0,0,0-2.588-.339c.443-1.951-1.274.21-1.7-.988.77.073,1.06-.25,1.028-.963-.226-.718-1.838.093-1.975-.722.81-.371,1.536-.822,2.281-1.254-2.64.125-4.5,1.951-4.91-.669l-2.963.008c-.161.8.548.681.266,1.665-1.975.149-3.487-.113-4.914,1.314a2.328,2.328,0,0,0-2.56-1.326c-.8.4.826,1.326-.657,1.326-.5-.335-.5-1.157-.975-1.326-1.532-.347-1.411.967-2.971.609-.681.238-1.508-.709-3.628-.347-.846.685.367,3.3-1.342,3-.48-.064-.21-.879-.967-.681a9.244,9.244,0,0,0-1.947,2.33c-.193-1.483.06-1.367-.641-2.322.83.089.863-.8.959-1.6-1.979-.58-4.358-3.83-6.929-1.677.681.2.818.951,1.306,1.3-.931.714-1.238-1.109-2.919-.625-1.157.447-4.841,3.2-4.978,3.93,4.092.653,3.1,2.612,1.032,2.979,1.221,1.971,3.6-.145,6.559.6-.992,1.653.839,1.633,1.314,1.673-1.346.516.052,1.04.314,1.669C653.19,95.56,651.977,96.995,650.909,95.838ZM405.8,98.071c2.5-.218,3.386.971,5.176,1.322a11.812,11.812,0,0,1,4.7-1.592c-.214-1.072-1.181-1.27-1.29-2.31a6.585,6.585,0,0,1-4.269.347c4.95-2.415-1.931-3.576-2.616-5.926l-2.386.008c.98-.939-.589-1.072-.621-2.016,1.084.016-10.013,3.846-12.492,7.933-2.415.54-5.079.8-5.91,2.951a40.821,40.821,0,0,1,6.647-.7c-.206,1.407-1.806,1.423-1.762,2.951,6.131-.093,9.542-4.62,14.226-5.212a1.253,1.253,0,0,0-1.028.653c.367.6,2.689-.83,2.939.7C406.242,97.091,405.7,97.265,405.8,98.071ZM148.832,174.335c1.02.286,1.02-.54,2.028-.335-.25,1.165.617.512,1.028.339-.008.629-.943.451-.758,1.354,1.016.347,2.31-.564,2.366-.012a.993.993,0,0,0,0,1.306c-.992.028-1.278.758-1.616,1.306.875.435.75.04,2.205-.02-.5,1.209.121.681.717,1.342-.012.528-.971.189-.951.641.98,1.637,2.048-.274,3.221.967a2.292,2.292,0,0,0-1.266.31c1.621,2.132,4.571,3.688,7.538,2.693-.008-2.4.069-2.334-.008-5.212-.943-.492-2.213-.472-2.632-1.375.976-1.346-.113-3.172.673-4.918-4.547.488-9.207-5.539-12.174-1.294-.069.653.967.318,1.024.947C149.332,172.916,149.989,173.71,148.832,174.335ZM1436.564,215c-.339-.895.331-.806.234-1.616-1.012-.25-.7.863-1.29,1.012-2.2-1.814-3.9-3.4-4.64-6.611-.327.959-.419,2.221-1.205,2.7-7.772-1.435-13.278-5.865-19.5-9.55.282,1.072-.613.5-.971.294a36.88,36.88,0,0,1,6.615,13.512c-1.3.609-3.326-1.072-4.91-.669,0,1.3,1.5,1.028,1.863,2.012-.468.625-.742,1.508-1.895,1.528a24.342,24.342,0,0,0,6.244,7.925c.81-.867.286-1.338.657-2.29.54.093,2.14.851,2.656-.322-1.677-1.911-5.917-1.008-6.3-4.241a3.132,3.132,0,0,1,3,1.258c1.451,0,1.185-1.641,2.624-1.633,3.66,1.076,6.635,2.785,10.2,3.938C1426.861,216.081,1433.049,216.065,1436.564,215ZM536.579,504.88c-.722-.476-1.036-1.367-2.6-1-2.024-2.677-5.289-3.942-6.567-7.24-4.833-4.857-12.714-5.377-18.809-5.93-3.6,1.185-4.6-2.673-8.506-2.294-.125.6.544.883,0,.947-.851-1.165-3.144,1.35-3.632,1.35.238-.818,1.354-.709.984-1.931-2.789-.492-1.451,3.394-3.309,3.882-.625-1.4.661-3.378,1.322-4.539-.383-2.02-2.112-3.838-2.91-5.281.044.734-1.137.189-1.645.363-.556.778.508,1.242-.665,1.242-.456-.988,1.032-1.782,0-2.257a1.1,1.1,0,0,1-.661.653c1.056-1.52-2.431-.1-1.032-1.6-.54-.153-.54.456-.895.625-.262-1.443-2.548-.2-1.741-1.947-2.153,1.016-3.894-1.358-5.494-2.012-4.35.036-6.095,1.064-6.933,5.615-2.5-.435-3.551,3.172-5.277,4.579a20.637,20.637,0,0,0,1.326-3.656c-2.342,1.455-4.523.984-6.22.992,5.9-.008,10.6-2.83,10.823-9.5-3.89-1.379-6.885-.032-11.541-1-.407.726-1.169,1.238-.859,2.62-1.395-.129-1.838.705-2.378,1.366a2.5,2.5,0,0,0-.238-1.669c-1.258-.331-1.955,1.657-2.35,1.008,2.648-1.145,3.495-4.991,6.22-6.913.177,1.649-1.294,2.068-.971,2.963-1.121.02-2.217.234-2.048,1.645,2.128.117,2.221-1.54,3.652-1.971.407.576,1.725.278,2.3.665.343-1.048,1.677-1.056,1.689-2.33-1.887-.415-2.6.472-4.011.677.282-1.1,2.939-1.883,1.411-2.608-.75.568-1.75.685-2.02.27.867-1.169,1.483-.528,2.552-1.33.177-.6-.363-.625-.532-.951,1.629-.9,1.072-1.814,1.234-4.261-.75-.431-1.141-1.238-2.628-.967.589-.621.456-2.382-.6-2.354-1.125.125.871,1.463-.4,1.653-2.963-4.192-.681-12.19-5.244-14.423-.113.488.21,1.177-.367,1.35a20.788,20.788,0,0,0-.58-3.039c-4.6-2.874-10.376-9.376-18.14-7.53-.689-1.181-3.826-.794-3.826.637-1.358-.826-4.176-1.709-6.01-.943-1.5-2.552-4.587-6.22-7.494-5.253,1.548-5.99-5.115-10.775-10.8-10.537a11.951,11.951,0,0,0-.448-3.233c-.556.21-.008,1.528-.637,1.568-.758-.419-1.221.834-1.294,0,.448-1.23,1.52-1.927,1.907-3.257-.512-1.641-3.378-.9-3.495-2.979-1.673.992-2.5-.544-3.709-.883-.476.177.141,1.524-.887,1.234,0-2.225-1.919-2.5-2.314-4.269,2.1-.04,4.426.109,5.228-1.306-4.664.585-9.143-.4-12.851,1.294-.089.621,2.346-.734,2.648.327-4.7,1.25-9.8,4.6-12.529-.955-4.116-.415-6.72.955-10.42.955-.322-3.027-2.245-7.32-7.574-5.869-.967-.891-.351-3.4-1.342-4.293-2-.625-2.669,2.939-1.233,3.592.02.617.867-.734,1.584-.649-.085.637.355.714.31,1.35-3.33.242-8.522,2.233-10.187,4.249.193-2.028-1.322-2.382-1.306-4.93,1.987-.673,4.079-1.165,4.571-3.265-.262-1.338-1.217-2.052-2.959-2.052-.593.81-1.387.714-2.628,1.379a9.782,9.782,0,0,1-10.8,5.24c-1.113,1.3-.746,2.548-1.645,3.616a1.137,1.137,0,0,1,.008-1.637c-1.294.173-1.346-.722-2.35-.681-4.063,3.475-4.821,5.519-4.555,10.223-4.184-.149-3.467,4.733-7.212,4.9.153.742,1.314,2.133.226,2.983-3.31-3-4.366-8.219-11.118-7.893.79-1.052-1.939-.681-2.927-.959-2.721,2.213-5.793,4.317-10.154,4.962a20.665,20.665,0,0,0-1.967-2.374c-1,.589.838,1.016,0,1.278-.943.089-1.717-.008-2.036-.56.431-.6,1.145-.717,1.032-1.681-4.817-2.064-6.893-6.728-8.538-11.851.355-.947,2.334-2.576.516-3.632a49.944,49.944,0,0,0,4.043-17.7c.778.782.859-.665,1.342-1-2.1-1.532-4.7-5.644-7.256-4.676-1.076-2.648-4.9.645-6.9-1.508-1.637,2.431-6.631,1.653-9.517.609-.859.29-1.358,1.157-2.278,1.334-.734-.419-1.286-.959-1.959-1.375-.133.4-.008.951-.419.955a5.652,5.652,0,0,1-1.3-.943c4.753-2.81,4.305-9.509,6.272-14.435-.532-.024-1.165.161-1.306-.355.774-.407.774-1.556,1.608-1.887-.625,1.665.456,1.467.286,3.229,1.891-1.576,2.326-4.579,3.358-6.893-.589-.109-.907.468-1,0,.726-.093,2.294-.976,1.306-1.616-.1.806-1.483.189-1.306-.4,1.653-3.809,8.328-7.123,5.24-11.767-7.062,1.229-20.135-.81-19.321,10.2-2.217,1.971-2.5,5.817-6.276,6.22-.274,1.024.9.653.988,1.338-.718.681-2.467,1.991-3.229.689.58-.524,1.616-.56,1.935-1.363-1,0-1.209.681-1.951.939-4.1-.947-9.562,2.378-14.439,2.636-.214-3.4-4.519-2.7-6.619-4.249-.4-6.083-6.135-9.908-4.567-15.806a3.647,3.647,0,0,0-1.342-1.963c.044,1.342,1.754,2.044.367,3-2.991-6.224,3.237-14.46,1.234-18.708.976.012.641-.568,1.359,0-.266-1.113-.451-1.649.306-.665,2.5-4.333,3.713-7.421,3.838-12.214.02-.242-.069-.3-.21-.3.081-.472.21-.851.266-1.266,0,.532-.036,1.076-.056,1.568a1.312,1.312,0,0,1,.012.689c.226,5.708.722-3.785.419-4.217-.008.524-.855-.637-1.262-.726,1.165.286,1.137,0,1.9.359.685-2.427,3.273-4.12,2-5.3l1.286.008c-.052.56-1.391,1.35-.677,1.673.8-1.463,2.431-1.983,3.612-2.91.318-.439-1.109-1.354-.27-2.012.677.939,1.363.089,2.241.919a17.505,17.505,0,0,0,7.264-4.934c.129.645-1.568,1-.677,1.342.145-.633.911-.625,1.358-.955.081-1.048-.915-1.076-.681-2.334.814.113.774-.528,1.588-.286.024.637-.782.359-.6,1.31,1.584-.181.593.387.306.935,4.966-1.967,7.8-3.539,13.52-1.246a1.489,1.489,0,0,1,1.274-1.6c-.282.891.693.54,1.322.633-.6,1.528.895.971,1.306,1.6.069.625-.464.617-.681.98,1.7.343,3.136,1.4,4.97,0,.947-.137.31,1.2,1.072,1.3a6.29,6.29,0,0,0,1.286-2.592c.306,1.294,3.047,1.225,2.2,3.265a4.376,4.376,0,0,0,2.33-.988c-.048-1.9-2.741-1.169-2.644-3.322,1.08.371,1.173.282.717-.625h1.326l.016-1.6c-1.064-.121-1.29,1.044-2.032.27.113-.46.548-.528.673-.947-1.512-.484-2.979.927-3.314-.383.322-.544,1.145-.544,1.62-.992,3.644,1.7,8.36.613,11.194-1.612.5,1.439.4,2.322-.617,2.991,2.3-.383,3.612-1.822,5.559-1.661a1.529,1.529,0,0,0-1.625.681c2.14.419,3.858-1.447,5.289-.669-.411.1-1.028-.073-1.052.27,1.1.568,2.193,1.459,3.644.7-.411,2.29,1.608,1.705.343,3.334,10.34-5.825,13.879,4.458,11.4,11.823.226-.314.56-.379.653-.681.58.669-.161,1.911-1.217,2.032.867,1.229.314,3.9,1.907,4.491.371-.258.161-1.181,1.064-.939-1.536,1.02.129,2.785-1.35,2.6-.109,1.338.435.016,1.358.339a7.06,7.06,0,0,0,.294,3.233,2.419,2.419,0,0,1,1.6.351c.157,1.661,1.032,2.527,1.7,3.672-.665,0-.423-.883-1.322-.718-.371,2.233,2.467,1.072,3.58.992.492.895-1.346,1.072-.331,1.358,10.388-9.679-4.805-37.348,8.921-44.419,1.217-.4,3.946-.976,5.18-2.9,4.3-.31,5.918-8.175,11.477-6.284.657-3.249,6.631-5.934,8.578-4.591.089-.984,2.145-1.06,1.35-1.971-.335-1.072,4.188-3.2,4.6-5.543-.838-1.169-3.2.093-3.322-.7,1.391-1.028,1.62-1.028,3.7-.975,0,.847-.2,1.931.6,2.04.1-2.781-1.911-6.365-2.991-6.627.375-1.072-1.737-1.371-.931-1.971.839.585,2.245-.943,2.951-.367a13.805,13.805,0,0,0-.343-5.228c.58,0,3.612-7.5,6.236-7.865-1.238,1.818-3.507,4.809-2.588,5.265-1.286-.314-.726,3.753.6,4.563-1.33,1.113.484-.427,3-1.955-.064.754-2.028,1.286-1,1.955a17.571,17.571,0,0,0,2.951-4.886c-.322-1.5-1.387-2.169-1.04-4.281,1.08.976,3.06,1.358,1.717,2.935,3.237-2.56,8.453-6.2,7.558-10.457,3.971.842,9.219-1.072,12.117-2.693-.7.379-3.16.629-1.544-.318-2.665,1.177-6.623,1.177-8.344,1.645,3.136-2.475,8.308-2.475,12.194-2.584.7-.649.782-1.919,1.645-2.322.572.637.572.2.411,1.25,1.286,0,1.967-.8,2.858-1.229,0,.371-.375.427-.25.955a7.045,7.045,0,0,0,3.862-1.342c-.161-.722.536-2.322-.617-1.959.383,1.354.028,2-1.342,2.334-.024-.46-.58-.326-.669-.685.379-1.915-.552-3.076-1.205-2.979,2.757-1.762,3.886-8.461,8.86-8.207.4-.387.137-1.641.891-1.665.04.435,0,1.012.359,1.02.834-1.092,1.5-.738,2.592-1.012.746-1.141,1.1-2.689,2.648-2.939-.1.447-.5.564-.6.98.822-.214.8.56,1.58.371.081-.431-.04-.988.335-1.1.02.589-.02,1.278.73,1.1.859-.371.137-1.1.593-1.358,1.318,1,4.261-1.467,6.522-1.6a2,2,0,0,1,.726-2.322c4.777.814,9.977-1.883,13.069-3.9-.411,1.411-2.6,1.234-2.914,2.87,2.024-.226,3.9-1.145,5.607.036a3.717,3.717,0,0,0-2.713,1.326c-.48-.218.064-1.6-.585-1.693-2.862,2.338-7.284,3.217-10.166,5.555a1.3,1.3,0,0,0,1.016-.266c-1.137,1.2-2.342,2.951-2.342,4.317,1.483-.181,1.306,1.242,2.959,1.616,2.459-2.173,6.353-3.092,7.836-6.276a15.568,15.568,0,0,1,2.983.609c3.777-2.685,10.8-3.394,14.459-5.188-.169-.536-1.5.012-1.645-.629,1.25.5.242-1.133,1.036-1.032,2.37.947,4.982-.834,7.236-1.923-.306-.939.411-.851.266-1.717a4.379,4.379,0,0,1-2.592-.963,8.888,8.888,0,0,0,1.975-2.959c-1.274.081-.165-.234-.327-.992-3.555,1.891-6.684,4.132-7.953,8.3-1.08.069-1.842-.153-1.629-1.354a10.793,10.793,0,0,1-9.505-.992c.661-.129,1.431-.157,1.29-1.024-1.491.048-3.056.036-3.543-.992.714-1.338-.423-3,.637-4.261-.778-.4-1.637.774-1.637.016,1.5-1.528,4.426-3.447,4.954-4.918a2.53,2.53,0,0,0-1.318,1.282c-.4-.411-1.149-.391-1.33-.883a21.552,21.552,0,0,1-2.64.895,9.3,9.3,0,0,0-2.9-2.29c4.144.851,7.7-.411,11.122-1.991-.073-1.459.871-1.895.617-3.584-14.935-4.128-26.4,7.885-36.143,12.154,3.112-2,7.482-4.281,8.554-7.2,5.861-3.66,15.028-6.905,20.7-11.912,7.385.4,16.04-1.213,21.99,1.04a33.377,33.377,0,0,0,13.569-3.95c3.3-5.132,14.222-2.85,18.394-8.26-.726-1.35-.576-.976.572-1.58-.226-.613-1.794.1-1.927-.633.842-.762,1.113-.089,1.9-.669-1.431-.484,1.713-1.387-.556-2.012a1.824,1.824,0,0,0,1.963-1.258c-.012-1.6-3.318-2.217-1.967-3-1.657-.206-3.551,1.088-4.346,1.322-.012-.339-.242-.375-.278-.653,1.052.185,1.209-.492,1.951-.661.23-1.153-2.882-2.4-3.6-2.991,1.447-.58,2.056-2.846,2.6-3.6-1.205.318-3.394,1.342-4.289.012-.044-.625-.77-.681-.27-1.629-2.556,1.181-1.141.206-3.362,0,.613.008-4.329-5.091-3.89-5.962-.58-.2-1.387.967-1.657,0,1.443.125-.113-.955-.29-1.266,1.814.673,4.366-2.386,4.535-3.628-.25-.766-2.669-1.8-2.89-2.29.98,0,2.536-2.407,1.552-2.326-1.016.552-.214-1.254-1.234-1.6.637-.081.609-.883.98-1.3-.512-.935-2.822-8.655-3.358-8.61.431-.476,1.2-.838,1.032-1.911-.472-.189-.3-1.092-1.318-.718a10.2,10.2,0,0,1-5.627,4.269c-.5,1.048,1.3,1.375.391,1.637-2.362.58-3.18,3.088-5.627,3.942-1.931-1.036-4.527,2.878-7.836,2.689a1.763,1.763,0,0,1,.31-1.024c-1.963.814-1.427,1.338-.657-.585-1.887.564-.988-1.447-1.629-2.011-1.266.133-3.168-.335-3.967.294.98-.472.589-2.3,2.322-1.955.516-1.35-1.669-.089-1.661-.984.5-1.25,2.648-1.794,1.661-3.624,1.379-2.032,3.628-3.414,4.559-5.9-1.193.214-1.528,1.375-2.914,1.294-.069-.641.375-.726.33-1.322-2.048.427-4.358.234-5.6-.919.568-.665-.089-.472-.012-1.35h1.314c-.322-1.552-3.648-1.439-2.661-3.265-1.818.085-2.181-1.262-3.221-2.036-6.7,4.7-17.031-5.1-20.712,3.709-.133.984.875.814,1,1.584-1.088,1.451-3.946,2.7-4.535,4.047.314-.375.943.2.943.572-1.294,1.221-.306,2.568-1.661,3.588.447.032,1.266-.085,1.322.351-3.382,2.346-8.094,3.967-9.9,7.917,11.549,9.247-9.239,20.482-19.063,22,1.056.556-.411,1.556-.016,2.58.419.036.98-.085,1.032.379-.274,1.109-4.2,6.559-2.632,9.525-2.116,2.278-4.212,3.709-5.39,6.389.048-.593-.488-.851-.508-1.866a5.118,5.118,0,0,0-3.636,3.015c-.9-.56-1.616-1.721-2.991-1.032,1.943-2.4-.637-4.922-2.608-5.523.657-.193,1.423-.189,1.29-1a15.879,15.879,0,0,1-1.278-3.293c3.31-3.765,4.16-7.925,6.917-12.2-3.838-.27-8.683-1.8-12.17-.25-.3-3.95-5.466-3.2-7.861-4.914-1.935-6.272-10.3-7.272-17.426-5.652,2.241-2.068,2.233-6.442,3.592-9.5-1.173.585-3.753-.613-5.244.27-.722-3.172,2.652-4.6,3.608-7.2a2.771,2.771,0,0,1-1.971-.593c1.818.177,2.713-.641,4.188-.7,1.959-3.241,7.071-5.821,11.215-7.889-.927-2.056,4.519-1.254,3.66-3.269,1.185-.415.468,1.234,1.685.988-.548-2.9,3.144-1.572,4.233-3-.4,0-.927.081-1.064-.347,3.354-.814,8.772.427,8.9-3.576-1.109-1.189-4.374-.141-5.849-1,1.822.564.891-1.157,1.282-1.254,4.458,1.725,9.812,1.77,11.5-1.685,4.216,3.124,12.142-2.471,16.112-5.579.012-.56-.931-.173-.931-.653a27.626,27.626,0,0,0,9.118-4.608c-.581-.488,1.834-1.165,3.273-1.967a2.306,2.306,0,0,1-.226,1.653c1.056-.052,3.414,1.741,2.608,2.9,1.161.266,2.282.77,3.221.359-.242-1.3-1.8-.1-1.04-1.967-1.036.093.306-.9,1.286-.726.508-1.322,1.387-2.068,1.036-.923,5.184-1.262,10.082-2.914,13.835-5.6a4.005,4.005,0,0,0-1.616-2.568c.1-1.016,1.346-.794,1.616-1.689-.625-.322-1.072.992-1.342,0,.492-.04.411-.484.31-.919,2.2-.2,5.023-.206,6.24-2.072-.149-.375-1.27.008-1.326-.593,1.084-.327,2.286-.4,2.7-1.33a6.623,6.623,0,0,0-3.007-.327c.27-.988-.339-.875-.258-1.689.387,0,1.133.085,1.278-.29-4.144-.383-8-1.052-11.767-.955-.343,1.54-2.048,1.689-2.007,3.559.818.008-5.474,6.091-8.9,5.922.177-.609.685-.794.7-1.637-2.681-.157-2.27,1.637-3.576,2.016-.351,1,.83.641.911,1.334-1.3,1.52-4.2,1.814-5.248,2.229.915-1.177-1.06-1.645-1.04-2.971.411-1.113,2.479-1.685,3.338-1.947a5.6,5.6,0,0,0,2.04-3.289c-.258-1.1-1.858-.774-1.733-2.282-4.491-.109-6.039,4.475-9.215,4.6-.137-1.955,2.193-1.455,1.709-3.608-.145-.447-1.842-.947-1.04-1.338,1.209.984,3,.109,4.015-.967-1.121-.044-3.608.254-2.028-.653-1.306.109-2.3.548-3.648.645-.218-.633-1.193-.814-1.588-1.3,1.411-.133,4.861-1.2,2.572-1.983,1.346.25,3.737.911,3.684-1.008-1.665,1.056-.536-1.9-1.967-1.919a30.663,30.663,0,0,0,1.242-3.89c-.689-.556-1.79-.633-2.6-1.084a1.485,1.485,0,0,1,.734-.947c2.862-.669,6.4-1.556,6.579-3.942,8.4,1.383,12.875-3.342,18.64-5.6-7.276-.46-11.859-1.915-18.37-.351-.6.645-.052.851,0,1.709-5.341-1.056-7.711,6.341-9.86,9.106-1.548.3-3.4.335-4.309,1.346,1.822.8-2.072,1.258-3.519,1.016a11.859,11.859,0,0,1-2.64,2.955c.427.012-2.076,2.935-3.414,4.3,1.661.335,3.2,2,4.978.959-.306,1.25,1.213.435,1.088,1.608-2.1,1.258-3.761,1.536-5.031,2.955,2.471.637,3.047-1.4,3.942-.633-4.108,4.575-12.654,2.785-14.726,9.247.222-.552-.218-1.1-.4-1.721a31.343,31.343,0,0,1,3.987-4.567c-2.056.064-3.624.81-4.648-1.02a15.414,15.414,0,0,0,9.868-1.939c-.52-.169-1.915.419-1.915-.29-.214-.959.585-.673.572-1.342-1.467-2.576-6.345-5.124-7.139-1.326-.109-.6-.548-.794-1.4-.7.359,2.862-5.394,1-6.131,3.648.7.718,1.85.117,1.931.657,1.411-.048-.322,1.35-1.7,1.963-.383,1.423-.25,2.02-2.27,1.955-4.007.637-14.375,2.79-17.378-.6-1.919-.31-2.761.585-4.636.286.532-2.044-.693-1.149-1.31-1.645.343-.794.895-1.246.971-2.342-5.232-1.669-10.88,1.54-14.447,3.7.629.161,1.467-.955,1.705-.008-.149.447-.54.617-.379,1.27a2.51,2.51,0,0,0-1.7.327c.556,2.076-1.911,2.245-.294,3.684-1.193-.536-.169,1.072-.967.98a1.41,1.41,0,0,0-1.326.318,1.332,1.332,0,0,1,.419-1.032c-1.617.036-1.544,2.233-3.048,1.342.54-.814.754-.629.391-1.62.907-.173,1.947-.274,2.257-1.02-1.878-.238.065-1.387-.681-1.927a5.979,5.979,0,0,1-1.983,1.258l.016-1.971c-5.466-1.016-14.963,1.254-22.292-.367,2.189-1.419,5.369-1.786,7.925-2.842-3.5-4.172-14.31-2.765-19.156-3.314.157-.758,1.2-.657,1.036-1.709-4.664-4.833-10.932.451-16.818-.294,1.375-.238,2.709-.375,3.342-1.326-.536-.04-1.165.113-1.342-.306,1.113-.58,2.237-.984,2.725-2.342-1.608,1.169-3.156.4-4.333,1.665.625.371,1.064-.988,1.29,0-3.467.536-3.785,2.157-6.889,2.588-.572-.266-1.04-.431-1-1.25,1.189-2.06,1.8-5.377-1.6-4.289-.343,1.072-.371.705.318,1.294-3.354-.089-5.422,2.624-7.869,2.342.709-.145,1.395-.306,1.6-1.036-1.068-.359-1.814,1.028-2.221,0,.746-.089,1.483-.165,1.213-1.306-7.107,1.125-13.879,2.834-20.821,4.083a1.065,1.065,0,0,0,.794-.814c-.883.081-1.117.726-1.08-.625-3.555,1.616-10.235,1.612-11.706,4.309.488.117,1.7-.411,1.681.25-.318.149-.476.314-.371.669-6.813-.589-9.009-6.039-16.088-4.217-8-4.313-23.691-3.83-34.865-4.95,1.806-.266-.967-.165-.568-.984.641-.073.585-.895.9-1.338-1.846.282-6.446,1.205-8.159.375,1.125-.415-.113-.9.016-1.342a2.65,2.65,0,0,1-2.016.685c-2.362-2.769-11.7.145-16.435.657-15.487,1.6-32.6,10.2-47.6,13.141,4.539.133,3.2,4.475,3.874,7.244,2.463-.992,3.592.536,2.628-.347-1.943-.1-8.223,6.228-11.843,3.628,1.665.133,2.568-1.346,3.632-1.419-7.393-1.367-16.689,4.386-24.662,4.341.536,2.028,3.479,1.608,5.232,2.286-1.209-.21-2.757.9-3.451.383-.834.879-.907,2.427-2.1,2.914,4.217,1.29,11.908,1.145,13.157-.016.585,1.121-1.564,1.665,0,1.665,3.2-1.633,6.7-1.975,9.9-2.967-.891,1.633-3.225,1.794-4.95,2.592.379.077.911.016.963.375-4.112,5.1-11.577,4.753-18.765,6.546.145-.617-.375-.6-.568-.963-7.744,2.608-15.3,6.857-21.748,9.812,1.258,0,.109.314.4,1.068,1.121.266,2.149-1.338,2.959-.4-.758,3.177-6.039,1.745-6.611,4.954.572,1.4,1.322,2.7.343,3.959,5.607-.589,8.961-3.95,8.86-2.423.089-.4-6.809,8.365-8.856,8.614,2.229,1.278,4.136-.294,3.87.423,2.781-.181,6.422-2.072,6.635-1.342a2.36,2.36,0,0,1,1.35,2.322c2.661-.98,3.265-3.293,6.172-3.318a11.081,11.081,0,0,0-.935,2.648c2.592-.492,5.148-2.729,7.2-2.624-4.6,2.213-9.481,4.277-12.432,8.163-6.5,2.854-3.39,4.942,4.257.681,8.352-2.487,16.91-4.712,23.626-8.856-.855-.189-1.8-.169-2.286-.649a135.488,135.488,0,0,1,21.627-8.885c-2.455,1.423-6.1,3.475-6.53,5.885.218-.222,1.552-1,1.629-.294-2.012,1.1-5.22.814-6.563,2.6,6.482,0,11.106-2.967,17.16-4.64,5.966,1.5,11.025-5.281,17.334-4.583a2.142,2.142,0,0,0-.919.661c.891-.06.584,1.133,1.951.669-.3.564-.855.959-1,1.608,1.858.189,3.019-1.983,4.18-1.238a4.369,4.369,0,0,0-2.217,1.6c.431.625,2.439.544,1.673,1.322,4.273.383,8.389-1.25,12.117-.347-.25.722-1.145.919-1.584,1.354,3.265,1.85,6.353.226,9.179-1.016-.286.919.625.661.625,1.33a8.6,8.6,0,0,0-4.257,1.306,24.29,24.29,0,0,1,4.853,7.55c1.882-.931,3.817-.044,4.72-2.318-1.242.306-2.237-1.471-2.318-2.269,1.915-.085,2.548,2.3,2.318,3.656,3.366.274,5.954.713,5.91,2.862.407.085,1.157-.073,1.246.363-1.121.137.572,1.5-.351,1.318-1.076.2-3-.431-3.572.327.568.331,1.653.153,1.975.669.024,1.173-2.028.218-1.983,1.306a3.165,3.165,0,0,1,2.318.661c-.98,1.262-3.209,6.361-3.967,8.236,1.907-.339,2.777-.1,3.983,1.633a10.32,10.32,0,0,0-3.322,1.963c.935-.081,1.129.081.677.718,1.3.177-2.157.883-.677,3.535-.048-.488,1.971-.5,1.971-.012-2.02.012-3.987,2.056-1.971,4.265a9.278,9.278,0,0,1,5.236-2.6c-1.729.173-1.157,3.043-3.261,1.963-.83,1.471-.137,2.632-1.3,3.946.451.258,1.705-.383,1.6.343-1.234.927-2.721,1.645-3.632,2.959,1.173.1,2.572-1.358,1.733.3,1.564-.347,2.656-1.189,4.184-1.58-.407,1.016.532.742.693,1.286-5.039-.048-6.345,3.233-9.255,5.906a2.259,2.259,0,0,0,2.3,2.572c.177-.814,2.648-1.02,2.685-.931-.863,1.3.23.371.625.939-.339.911,7.2,4.12,7.917,4.325-1.012,1.145-.568,2.935-.294,3.584-.722.778-1.133,4.14.294,4.656-.963.073-9.159,2.394-11.779,1.616-1.387,3.559-2.483,7.607-3.741,10.6.081-.161.04-.339-.222-.407-.323.9-1.064,1.354-1.354,2.294.4.052.992-.028,1.048.294-9.324,10.92-17.878,22.526-24.4,36.151.411.548.988.814.988,1.7a48.064,48.064,0,0,0-2.245,5.563c5.285,3.189,5.918,10.642,1.27,15.387,1.2,3.64,4.341,7.373,1.338,10.566,3.8.988,7.832,1.685,9.276,5.192,6.929,2.205,1.77,15.745,5.18,20.744-2.249,4.753,5.059,5.906,5.22,11.146-.7.855-.806,2.29-1.915,2.652-.117.705.988,1.778.367,2-1.028-.552.081-1.294-1.04-1.33-.887.758-2.544.081-3.616-.008-.23,2.217,2.471,1.439,2.02,3.995,1.524.443,2.943,1.177,3.265,2.955,1.068,0,1.342-.653,2.652-.4,3.334,2.971,5.164,7.873,1.645,12.2,1.346-.177-.411.806.947.988.036-.6-.044-1.181.645-1,2.427,3.942,7.538,5.164,7.9,11.106,4.362-.351,3.358-4.305,2.636-6.837-1.028,0-1.254-.951-1.923-2.036-1.322-.411-.1,1.528-1.375,1-2.185-.98-.419-4.668.661-4.575-.645-.069-.27-1.056-1-1-.081.379,0,.923-.343,1-.851-1.588.012-3.209-1.274-4.559.2-.911,1.129-1.06,1.254-1.955-1.1-.492-.935,1.967-1.592.875.931-2.145.036-6.575-1.7-6.164-.282-9.32-12.331-19.954-4.225-28.923,2.3,2.044,4.2,1.06,6.579,3.588-1.737,3.12-.677,9.207.327,11.485-1.959-.238-2.785,2.217-1.665,3.015,1.4.282.681-1.612,1.935-1.35.447,2.7,2.483,3.793,2.894,6.288,1.451.339,1.927-.383,2.8.6-2.564,3.414,2.58,3.664,2.266,6.909a2.668,2.668,0,0,0,1.572-.286c.3.685.834.883.689,1.983-2.177,2.249-2.749,5.825,1.02,5.22.2,1.846,2.431,1.681,3.233,3,.028.976-.48,1.346-.3,2.6,6.2,3.834,8.248,12.19,10.888,18.7-.234,1.971-1.649,2.862-2.374,4.253,1.157-.3,1.157.472,1.084,1.358a3.242,3.242,0,0,0-2.338.645c-.282,7.542,7.429,7.183,9.183,12.811,2.673.464,4.918,2.85,7.824,2,3.39,4.575,8.651,7.312,15.479,8.53,5.011,5.676,14.125,6.357,20.639,1.911-.141-.439-1.225,0-1.266-.621,1.133-.258,1.358.181,2.3.355-.423,0-.774.1-.641.637,1.036.161,1.669-.089,2-.609-.7,1.5,1.7,1.822,1.983.9a34.8,34.8,0,0,0,19.752,15.81c4.071-.089,5.66,2.423,9.792,2.229.48-.343.472-1.165.98-1.58.322,1.048.645.959,1.246.335-.262,1.246.847.907.73,1.947-.742.891-1.076-.988-1.975.012,3.084,4.14,6.365,7.9,9.554,11.855-.528.935-.919-.129-1.282.951.548.173,1.435.2,1.262,1-.56,1.524-1.036,1.028-1.278,2.62.077,2.632,2.939,2.5,3.862,4.273.27-.778,1.141-.867,1.362-1.629-.326-.919-1.677-.8-1.649-1.967,1.423.621,2.882,1.266,2.66,3.6,3.048.8,6.809,3.043,4.277,5.881a4.04,4.04,0,0,0,2.588,1.35c.625-1.173-1.141-1.689-.327-1.951,1.35.439,1.258,4.184,2.616,3.564-.814-.093.032-1.161.339-1.258a5.137,5.137,0,0,0,2.592.016c-.77.984,2.02.621,2.955.975-.58,1.423,2.048,4.523,3.306,2.33.689,1.161-1.641,1.072-.669,1.584.129-.484.734-.322,1.076-.7.282,1.238,0,1.621.282,2.354,1.786.963,2.725-1.544,4.894-1.314.02-2.2-1.874-2.56-2.249-4.237,2.584-2.112,8.586-8.78,10.453-1.35.637.262,1.084-.98,1.4-.008-.665.355.137,2.124-1.387,1.616,1.306,4.023,3.459,6.168,5.317,8.885-.629,2.656-.391,2.894.31,5.265.149,1.064-1.608.109-1.294,1.33,1.713,2.1-.032,6.4.984,7.869-.709-.077-1.032.286-.984.992.27.79,1.177,1.02,1.588,1.592-1.266,1.262-1.266,3.785-3.241,4.317a8.1,8.1,0,0,1-.653,2.931c-.734-.81-2.124.552-3.946.669-.851,1.487-.645,2.435,0,3.946a1.7,1.7,0,0,0-2.652,1.314c.814-.06,1.072.528,1.266,1.028-1.149,2.261-4.8,2.08-6.869,3.551,1,3.2-.169,5.978-2.33,6.933,1.117,1.721-.185,3.382-1.951,3.938.181,2.536,1.959,6.139-.3,7.53,1.282,1.693,4.233,1.717,3.914,4.926,1.717-.161.1-1.592,1.931-1.6.141-.645-.351-.653-.572-1.012.544.117.98-1.556,1.286-.669.052,6.736-11.3,7.957-6.575,15.117a.92.92,0,0,0-.689.963c.637,1.282,2.3,1.54,2.08,3.6-.766.77-1.121-.218-1.7.363l-.016,1.633c11.614,5.4,15.4,20.337,20.426,31.253,3.4,3.519,8.723,10.469,8.183,14.83,4.333,13,20.982,13.774,28.609,23.606,9.977,4.358,9.03,21.655,9.151,32.245-.443-.113-.46-.451-.98-.367v2.951c.468.847.992-.6,1.27.331.3,9.074,1.016,15.6,1.379,24.618-3.769,6.1,2.37,12.053-.709,15.778,5.914,14.036,4.442,25.275,3.688,38.779-.451-.1-.585-.544-1.024-.645-.218,1.6.79,2,.705,3.6-1.048.23-1.25-.306-2.032-.318-.069,5.837,8.6,11.9,4.97,17.1.9,4.543.762,8.264,4.571,10.8-1.524.472-.851-.27-2.338-.343.314,3.064,1.7,4.862,1.62,8.913a6.726,6.726,0,0,0,3.636.681c-.552-1.439-.488-1.036.693-1.673-1.024-.657-1.528-1-.673-1.979a2.182,2.182,0,0,1-1.935-1.334c1.362.064.012-.508.024-.943.415-.109.576-.512,1.338-.351-.322-1.314-1.782-1.334-1.729-2.983,2.487.585.822-1.733,2.04-1.919.532.359,1.358.58,1.568,1.254-.185.742-.992,1.08-.266,1.713a1.421,1.421,0,0,0,1.858-.032c-.2,1.113.621,1.02.746,1.621-.863-.645-.782-.435-1.979-.319.847,2.749,2.2,4.265,1.254,7.244,1.064.971.984,1.354,1.713,2.278-.5.516-.323,1.645-1.008,2.024a20.689,20.689,0,0,1,2.314,1.274c-2.076-.363-.242,1.294-1.629,1.266,1.181,1.745,1.1,4.527,2.592,4.329-1.221,1.318-1.7.657-3.983.633.222.83.331,1.693,1.391,1.693.54-.02.234-.915.669-.955-.46,1.459,1.25.863,1.625,1.588-.274,1.242.4,1.6.306,2.612-1.9-.536-2.556-3.16-4.216-2.9.5-1.217-.576-3.1-1.653-3.624-.855,1.532.838,1.451.625,2.588-.552-.476-1.072-.194-.984.693.681.621.9-.008,1.306-.347-.008.814.524,1.032.7,1.584-.568-.818-2.713-.722-3.273.02A1.436,1.436,0,0,0,383.144,751c-.9,1.282-2.475,1.854-2.906,3.58.625.685,1.016,1.512,2.261,1.62,1.137-.762-1.616-1.443-.693-1.907a1.851,1.851,0,0,0,1.326-.4c.274,1.657,2.556,1.25,3.648,2.028.161-.617-.5-.915.032-1.08a11.8,11.8,0,0,0,2.64,1.737c-2.217,1.955-.689,2.141-2.048,3.914.431.452,1.471.262,2.322.254-.29.754-1,1.076-.979,2.056a8.864,8.864,0,0,1,4.019,2.233c-2.153-.633-.278,1.544-1.395,1.987-.677-1.959-1.963-4.136-3.608-4.225.6-.7-.2-.617,0-1.689-.5.584-2.652.568-1.629,1.693-.754-.512-.641-.7-1.625-.343,1.358,1.451.125,2.435,1.625,3.954,1.524-.955,1.387.274,2.951-.709-.226.98.286,1.7.363,2.354-1.044.641-1.02-1.77-3-1.056.633,1.883,1.161,1.1.984,2.7.9-.7,1.778-1.318,2.7,0-.919-.081-1.08-.613-1.7.008-.1,1.338,1.552.826,1.689,1.967-.613.04-1.689-.359-1.391.637a3.244,3.244,0,0,0,4.031.278c-1.157,1.117.838.883.669,2.04-.681-.185-2.1-1.27-2.733-.351.714-.085.2,1.189.306,1.625,1.874-.1.21,2.588,2.427,2.661-.681-1.056.4-1.681-.681-2.334,1.29-1.741.967-1.786,2.29-3.277-.286.963.649.681.641,1.318-.6.093-1.721-.327-1.35.657.73.746,2.157.71,2.608,1.633-.915.306-.79-.415-1.625-.3-.56,1.145,1.1.181,1.012.963-.407.069-.141.367.008.689-.8.73-.625-.52-1.725-.322-.008,2.036,1.774,3.382,3.652,1.959-.653-.137-.653-.887.016-.988-.016,2.507,3.088,1.955,3.878,3.576-.314.024-.355-.367-.895-.278a2.8,2.8,0,0,0,2.612,2.249c-.008,1.177.794,1.395,1.286,2-1.294-.641-2.923-1.108-3.9-2a1.056,1.056,0,0,1,.895.359c.016-1.008-.709-1.262-1.262-1.653-.081,1.85-.161.6-1.383,1.294,1.705,1.4,4.41,1.532,5.648,3.326-.226.637-1.411.516-1.294,1.608,1.068-.278.669.955,1.612.706.859-.451-.693-1.242.339-1.677-.3.875.472.867.4,1.689.959.089,1.193-1.346,1.568,0-1.556.226,1.181.762.681,1.927.939.359,2.241-.48,2.282-.044-.718.6-1.342.4-1.278,1.088-1.943-1.814-5.829-1.713-7.848-3.406,1.56,3,6.845,2.362,9.151,4.688-.593.3-1.092-1-1.322,0,.355.028.278.391-.339.327.3,1.064.923,1.5,1.927.955-.141,1.088.661,1.161.391,2.314h1.342c.234-1.109.218-.7-.359-1.342.738.48,1.165-.81,1.383.016.226.883-.7.617-.7,1.322a9.928,9.928,0,0,0,2.842-.347c-.8,1.951,1.282.278.419,2,1.758.117-.016-1.169.947-1.62.883.157.826,1.306,1.955,1.262a1.113,1.113,0,0,1,2.056-.282c.056.875-1.016.766-1.282,1.242.669-.665-.113-.677-1.056-.609-.173,1.173.113,1.794,1.056,1.967,2.632-1.887,4.051.617,7.562.661-2.072.774-2.963-.359-4.974-.31,1.657.883,3.8,2.08,5.861,1.967.028-1.673-1.161-.1-1.294-1.258,1.205-.4,1.955-1.258,3.293-.4-2.536,1.04,2.665,4.152,4.261,3.285-.722.068-1.9-1.121-1.294-1.354a1.087,1.087,0,0,0,1.608,0,3.78,3.78,0,0,0,.306,1.713c2.431-.834,3.358.488,4.986,1.258-.734-1.9-2.556-2.648-4.309-3.644,1.117.4.8-.484,1.338-.552a2.214,2.214,0,0,0,3.6.951c.351.576.657,1.153,1.677.919,1.3-.927-1.072-1.882-.355-2.161,2.709,1.032,4.9-.234,7.554,0-.093-.911.568-.774.363-1.729-8.018-.335-14.395-4.837-19.381-9.183a1.839,1.839,0,0,1,.984.278c-.891-1.661-2.62-2.411-4.229-3.257-.774,1.544-3.584-.089-3.33-1.653a21.923,21.923,0,0,1,4.93,1.024c-2.717-3.862-7.8-5.442-7.881-11.863,3.37-.726,5.317-3.531,2.951-6.873.738-3.648,5-4.9,5.914-7.228-.895-8.151-16.955-4.716-11.864-15.83,2.564-.4,3.031-2.245,6.232-1.234.492-1.52-1.286-.738-.984-1.967,2.487-1.629.323-3.882-.653-6.216.173-2.4,2.35-2.858,3.342-4.366-1.717-.093-3.289-.2-3.62-1.669.919-.024,1.177-.923,2.612-.661.625.48.79,1.455,1.306,2.024.891-.044,2.181.21,2.628-.314a4.808,4.808,0,0,0-2.306-4.62c-.375.782-1.629.576-2,1.286.887-.081,1.447.214,1.391,1l-2.334.012c-.012-.895.468-.621-.02-1.322-3.721-.2-6.143-6.538-4.648-8.864,1.677,1.858,11.5,5.043,12.879-.4-.3-.915-1.56-1.032-1.959-1.87.532-1.092-.036-1.592.012-2.947.419.359.774.351.871-.351.262-2.878-3.261-3.842-2.9-5.91,7.167,3.221,17.261-.649,22.332-3.652.016-4.563,4.878-7.9,1.024-11.46-2.37.863-4.285-3-2.616-5.325-2.3-3.471-9.864-3.826-8.534-8.84.677,1.427,2.519,1.846,3.233,3.318h3.62c.9,1.4,3.362,1.209,4.293,2.584,3.08-.532,5.188-.83,7.885.351a54.637,54.637,0,0,0,4.922-3.241c1.826-5.4,4.785-9.731,6.587-15.169,7.812-2.959,5.1-16.556,12.46-20.075.161-2.511.693-4.733.959-7.151-1.705-.177-.177,1.338-.959,1.6-.089-1.242-.52-2.217.335-2.927-2.149-2.576-1.088-7.3-.992-9.787-.089.383-1.2-.145-1.31-.4,1.75.423.911-.834,1.322-1.02.3.355.661.71.98,1.06,1.87-3.729,6.168-8.224,9.171-8.615a4.329,4.329,0,0,1,2.02-1.653,28.077,28.077,0,0,1,3.249,1.359c.464-2.048-.963-.955-.971-1.975a9.59,9.59,0,0,1,4.3-1.979c.25-1.161-1.33-.447-.98-1.62,1.419.113,1.072-1.088,2.322-.367-.169,1.04-1.35,1.455.625,1.306-.464-.653.222-2.366,2.02-1.294-.677.048-1.77-.339-1.371.629,3.592-.439,6.426-1.322,10.191-.641-.278-1.076.472-1,.669-1.616-1.875-2.048,2.866-3.249,4.309-4.3-.734-2.947-.254-3.785.246-6.579,6.309-3.592,2.773-14,7.558-19.627-.318-8.768.359-18.245-1.25-25.686,1.862-1.028.9-2.85,1.967-4.293.992.085.278,1.915.947,2.33,5.015-3.584,4.4-12.855,10.565-15.439,2.818-4.261,8.752-11.6,7.816-19.76C546.471,512.189,544.319,501.809,536.579,504.88ZM331.562,223.66c-.052-1.181,1.125-1.165,1.286-1.987,5.966,1.54,8.735-5.333,16.451-2.963-.149-.476-.79-.351-1.318-.343,1.346-1.705,5.188-.895,7.248-1.983C350.754,220.237,338.314,227.211,331.562,223.66Zm9.844-26.972c4.825.181,8.631,1.487,13.1,2-.387.838.891,3.459,1.294,3.209.508,1.189-.4,1.411.367,3.314-1.016-.891-2.056.145-1.661,1.669-1.375.073-2.415-.23-2.6-1.318-.508.149-.258,1.036-1.35.633.842-1.52-.778-2.124-.617-3.93-.851-.125-.722.617-1.689.375.625,5.422-4.612,10.332-8.812,13.109-.411-1.129,1.165-2.975.609-5.224-1.907-2.624-3.761,1.318-5.885,1.584.939-3.084,6.349-4.829,6.3-9.179-1.1-1.919-3.527-2.749-5.99-3.31-1.334,1.947-4.66,3.572-5.2,5.228-1.512.794.564-1.229.633-1.907-10.775,3.172-7.066,18.781-18.337,21.341-.318-10.142,6.442-16.044,11.759-21.675-1.786-.161-3.394,2.7-5.539,3.293.887-2.2,4.97-4.051,6.49-6.542.089,1.028.75.234,2.036.02.1.484-.286.476-.3.959,6.184-3.757,15.616-2.084,22.26.681a2.56,2.56,0,0,0,1.987-2.024c-.129-.851-1.25,1.379-.951-.685-1.709.83-2.27-.427-4.317.689v-1.012c-2.326,1.625-3.039-1.318-4.934.02C340.3,197.341,341.16,197.232,341.406,196.687Zm-18.087-13.145A1.751,1.751,0,0,0,323,184.55c1.983-.1,2.2-2.084,3.66-2.665.693-.4-1.371,1.3-1.709,1.947a24.016,24.016,0,0,0,4.966-2.3c-.52-1.278-1.947.847-1.987-.008,1.407-1.939,4.878,1.217,7.881.669-1.133,4.047.75,5.309,4.648,4.325-.081.984-.984,1.278-1.35,1.963-.113,1.092,1.177.8.939,1.951-.693.411-.705,1.625-1.6,1.967.133.456.786.29,1.334.331-1.322.585-.2,1.778-1.641,2-.077.722,1.1.077,1.641.262.081,2.527-.758,2.963-.351.411-1.121-.109-2.7.177-3.281-.411-.081-.992.871-.79.967-1.608-4.652-.484-10.977,4.3-13.077-.653-1.979.524-2.016-.911-2.967.669.012-1.471,3.064-2.886,4.926-3.6-5.9-.246-10.453,5.22-16.862,4.575-.714-.81,2.366-.625,2.048-1.947-1.915.552-4.934.842-7.506,1.637C308.915,189.254,318.042,188.3,323.318,183.542Zm-30.556-26.928c1.024-1.782,2.818-2.681,3.987-4.305.923.435,2.269.266,3.314.669,1.423,3.85-2.189,8.014-1.407,11.2-.693.907-3,.484-3.249,1.923-.8-.774,1.375-1.439,1.342-2.6-.02-1.254-.7-1.064-1.02-1.35-1.145.085-1.217,2.265-2.31,1.358.855-2.616-.8-2.806-.657-5.6.984-.177,2.056-.149,2.64-.665C295.173,156.417,293.105,157.332,292.763,156.614Zm-3.7-53.263c-.177,1.177-6.7.367-3.825,1.367-10.457,1.6-23.086,12.037-35.53,6.522,6.385.589,10.1-2.322,15.471-3.576-.79-.883-.492-1.786.012-2.967-.327-.4-2.237-.81-1.286-1.346,1.016.766,5.107,1.6,6.466,3.612C278.75,108.064,282.37,102.743,289.062,103.352ZM272.748,80.717c-1.625,1.8-5.6,1.173-7.252,2.963,2.229,2.318,14.81-1.951,10.17-.371,1.508,1.62-3.257,1.794-4.261,3.019-.161.52.218.653.75.653-5.321-.3-9.477-.492-11.541,4.551-.681-.242.589-1.342.625-1.943-2.1.472-3.838,1.407-6.2,1.6,1.6-1.04,3.846-1.54,5.861-2.253-4.716-3.2-8.381,4.757-13.786,1.294,2.044-1.733,7.405-1.842,7.9-3.906,1-1.1,4.753.56,5.265-1.052-3.838-2.584-9.187.331-14.072.363C251.891,82.051,265.1,82.721,272.748,80.717Zm348.943-5.6c14.4-.411,29.306-5.922,40.355-10.537-6.942.379-12.4-2.12-16.7-.988.383-1.689,2.886-.83,5.244-1.592-1.979-2.411,1.479-2.826-.359-3.979,5.148-1.052,4.031,6.938,10.219,4.946.52-.347.326-1.415.653-1.959.947.278,3.5-.609,4.313-2.991-.633-.544-2.794-.544-2.652.669-1.5-1.621,2.145-1.052,2.265-2.338a3.3,3.3,0,0,0-2.052.431.126.126,0,0,1,.113-.1c-.435-.456-1.794-.6-.02-.693-3.588-1.612-6.8-3-8.812-4.515-.576-1.33,1.391-.081,1.282-1.028.181-1.4,3.156-.617,6.869-.976-.713-1.346-3.523-.685-4.938-1.274,1.048-.222,12.315-3.213,9.8-2.673,1.125-1.963,6.647-.887,6.994-2,1.028,1.508,4.8,1.282,5.547-.25-.879-1.242-5.281-2.507-4.93-3.035.56-2.056,4.841-4.083,4.93-4.559-4.608-.98-6.788-1.262-8.844-2.588,3.342-1.54,12.621.911,15.786-2.342-2.419-1.322-5.813-.347-7.965-1.975,2.024-1.161-1.4-.718-3.906-.343a20.686,20.686,0,0,1,12.5-6.538c-.073-1.088-2.185-.1-2.024-1.35,5.2-.8,8.51-2.241,13.52-3.559-.117-1.451-2.866-.21-3.616-1,6.071-.085,11.843-1.842,18.386-3.584-8.284-3.519-20.192.883-26.537,0h.911c-4.4-.617-6.877,1.338-5.934-1.322a7,7,0,0,0-2.846-1.092,23.171,23.171,0,0,0,6.131-1.278,120.075,120.075,0,0,0-13.391-1.947c1.342-2.064-8.086-.625-10.247-1.641H639.1c-9.4,3.447-22.179.254-33.192,2.028.919.863-7.707,1.419-15.113,1.584a1.863,1.863,0,0,0,2.29,1.975c-4.539,1.524-5.019-.976-9.578-1.346-1.556.77.568,1.762-1.568,2.338-2.338-.012,1.169-1.161-.718-1.967-8.288-.464-16.5,1.068-25.3,1.6-.31,1.258-.46,1.205-1.6,2.652-8.449-.939-16.927,1.653-25.021,3.608,1.431,1.883,4.305.552,7.256,1.012-7.881,6.756-25.94,2.85-34.812,7.873,6.7,4.132,12.295,2.7,20.389,2.636-4.777,1.846-14.705.069-20.083,2.644,2.116,1.334,4.124.891,6.946,1.608-.585.98,6.583,2.5,9.175,1.705.085.709-.935.306-.988.887,9.538-1.512,17.1-1.161,25.029,2.318a5.289,5.289,0,0,1-2.35.73c1.181,1.7,3.463,5.885.593,5.906.927,1.35,4.692-1.161,3.66.3,1.032,1.165.681,12.045,3.664,11.154-2.882,1.52,2.519,3.144,4.9,4.289-.842,1.08-1.125,1.358-.355,2.592-3.539-1.08-10.993,9.63-14.718,10.215.738,2.689-3.237,7.357-2.032,7.611a51.347,51.347,0,0,0-4.894,2.588c-.242,2.225,1.359,2.511,0,4.567,3.354-1.616.907,1.407,2.923,1.673-.464,1.54.681,5.664-.016,6.208-.911,0,2.342,7.042.947,8.594,2.467,1.737,2.7,2.8,2.04,4.9,2.395,1,11.98,4.962,11.468,4.95.234.754,1.435.528,1.641,2.282.633.838,4.059,1.572,5,2.322,2.048.278,2.274-2.128,4.257-.971,2.507-5.99,7.865-9.074,9.521-13.851a2.853,2.853,0,0,0-2.334-.609c8.864-1.379,9.723-6.873,14.778-9.921-1.213-2.35-1.5-2.161-2.858-2.265.355-1.971,3.842.355,5.454-1.62.98-.653-.411-1.411,0-1.7,2.685-.6,3.967-.008,7.611-.625-.572-1.524,2.894-2.87,3.572-3.6,2.165.379-3.721,2.35-2.588,3.926,12.069-1.77,17.906-6.933,28.29-12.807.7-1.467-2.29-1.919-.718-2.334C620.164,73.759,621.179,74.1,621.691,75.114Zm816.155,184.314c-4.954-3.16-3.1-10.948-6.595-15.512.29-.028.359-.262.6-.351,1.068-.25,1.048.572,1.681.705.411-8.752-6.422-11.739-10.118-18.749-1.806.318-2.205-.665-3.318-.935a5.406,5.406,0,0,0,.3,2.592c.891,0,1.314-.548,2.3-.621a10.155,10.155,0,0,1,.689,1.971c-1.371-.593-1.846-.988-1.975.266-.859-1.161-1.576-2.415-3.362-2.58-.141,1.407,1.233,1.407,1.016,2.971-.488.012-1.137-.089-1,.661.206,1.556,3.455,3.148,1,4.257,4.994,1.044,3.1,6.627,4.35,10.8-.411.984-1.524,1.246-1.987,1.967,1.367,3.85-3.491,3.983-4.656,6.293-1.693-.028-1.749-1.745-2.713-2.455.838.27,1.528-1.641,1.044-2.128-1.229-.129-1.56.814-2.616.927,3.052,3.265-1.326,7,1,9.912-.548,1.479-2.257.963-3.325,1.274-.335-.407-.318-1.205-.645-1.657-4.088,2.326-9.654.641-12.416,2.326-.625,2.233-2.842,6.087-5.966,5.9a6.422,6.422,0,0,0,.943,2.967c-1.6-.27-2.258.371-1.915,1.967-1.762-.976-.5,1.512-2.318.387.681,1.419-1.306.423-.979,1.56,1.02,1.415,1.895,2.914,2.926,4.281.431-.476.331-1.487,1.334-1.3.326,1.415.085.9-.294,1.967.121.814.331,1.395,1.1,1.681,1.06-1.314-.766-2.233.512-3.664-.484-.794-1.35-.274-1.637-.613,1.3-.367-1.27-1.254.032-1.608,1.6.9,1.818,2.777,2.935,3.519-2.132,3.2,1.068,5.031.008,7.26a13.283,13.283,0,0,0,3.322,1.29c.125-1.475-1.548-1.117-1.367-2.6,1.48.391,1.544,2.169,1.9,3.64,1.04-.959,2.229-1.54,1.032-3.007.665.189,1.121.992,1.681.367-.347-2.31-1.455-6.817.024-9.227-.609-.439-1.842-1.242-1.338-1.959l-2.306.012c.375-.637.9-.863.694-1.967-.673,0-.48-.907-1.3-.73-1.338,1.766-3.467-.355-3.68-1.939,2.016.988,5.394-.379,6.252,1.689.363-1.278-1.06-2.544-.028-3.293,2.967,1.7,4.7-1.524,7.313-.669.855-2.854,6.091-1.814,7.494-.617a6.036,6.036,0,0,0-1.29,1.612c1.334,2.209,2.777,4.39,5.881,4.966.286-2.024.935-3.277,1.044-4.644,1.177-.31.814-.73,2.278-.322.322-2.06-2.124-1.439-2.641-2.648.077-.931-.282-2.278.609-2.314.254,3.842,1.653.818,2.983,2.306a.809.809,0,0,0-.927.669c1.685-.266,4.229-.661,5.89,0,.109-2.237.185-3.487,1.943-3.007-.754.992.584,1.947.705,3.023,1.02,0,1.076-.863,1.318-1.661-.016-1.032-1.048-.943-.694-2.274.311-.032.427-.278.694-.379,1.262-.6,1.782,1.975,1.89.359-.544-.089-1.072-1.923-.306-2.314.818-.089,1.266.1,1.351.669-1.568.661-.355,2.838.677,3.616.411-.939,1.625-1.076,1.919-1.983C1435.508,261.286,1436.516,259.677,1437.846,259.427Zm-660.16-18.741c.145-.488.762-.165,1.032-.016.842-.669.649-1.246,1.084-1.919,1.1-.181,1.516.371,2.237.593.754-4.938,1.81-8.094-.008-12.444-1.036.089-1.052-.766-1.951-.681-.867,1.334-3,3.5-4.676,1.983a5.93,5.93,0,0,0-.371,2.326,2.277,2.277,0,0,1,1.088,3.6c.085,1.133.919-.028,1.028.7-1.367,1.749-.685,3.3-1.036,5.172C777.473,239.026,776.606,240.1,777.686,240.687ZM390.4,345.967c-1.512-1.556-6.442-1.121-8.643-2.878-2.2-1.721-3.963-3.967-5.091-3.749-1.109.218-2,1.532-2.842,1.334a42.771,42.771,0,0,1-8.034-4.692c-2.189-1.79-12.843-.4-16.612.895-3.789,1.338-3.954,3.12-5.9,5.724,0,0,7.026-.4,8.776-.407,1.806.008,8.876,2.652,15.084,5.107,6.164,2.423,7.776,1.729,9.546,2.628,1.729.9-.02,2.463,3.3,2.874,3.3.512,10.412.25,13.976.669,3.576.488,1.959-2,.641-2.628C393.27,350.216,391.944,347.535,390.4,345.967Zm17.527,15.975c-.907.609-5.777-.641-7.848-.955-2.149-.318-1.04,1.391-.7,2.245.27.826,1.431,1.092,3.289,1.713,0,0,10.8.468,11.69,1.633.895,1.088,5.555-1.367,6.405-3.592.887-2.2,8.014-.838,9.969-1.056,2.012-.274-.637-2.709-2.2-3.358-1.556-.673-4.394-1.762-4.495-3.527-.044-1.834-3.269-1.572-6.547-2.677-3.35-1.113-3.128.923-3.128.923s-5.124,0-8.191.189c-3.14.214-.451,1.818.839,2.689,1.346.875,1.346,1.729,2.685,3.289C411,361.047,408.81,361.3,407.927,361.942Zm908.688,129.716c4.031,2.943,21.949,1.963,27.609,1.266,5.644-.633,3.338-8.264,4.515-11.206,1.149-2.818,4.446-7.405,4.466-12.327,0-5.007,5.349-5.382,9-5.382,3.729.1-6.329-8.594-7.341-9.957-.979-1.314-1.656-5.3-1.29-7.6.31-2.314,3.962-5.688,5.571-6.357,1.677-.665,4.366-2.669,3.047-3.652-1.342-1-3.354-2.362-5.313-3.987-2.036-1.669-4.954-4.6-6.317-5.652-1.387-1-5.349,2.64-5.349,2.64-1.955,2.322-6.958,8.723-8.953,9.985-1.975,1.342-4.99,5.023-7.663,9.005-2.645,3.987-8.623,3.322-9.622,3.314-1,.008-.363,5.011-.343,6.684l-3.942,1.883s-4.7-3.253-5.7-3.91-1.342,4.35-1.342,11.279c-.008,6.954,3.677,5,6.317,9.534C1316.538,481.71,1312.665,488.643,1316.615,491.658Zm-36.538-5.994c-1.35-1.334-6.675-7-8.973-11.36-2.338-4.265-6.99-6.639-10.626-8.59-3.656-1.991-5.378-4.946-8.3-8.324a34.939,34.939,0,0,0-7.01-6.329c-1.334-.649-10.324-6.289-10.324-6.289a9.673,9.673,0,0,0-.617,4.66c.31,2.326,6.317,7.329,8.57,9.638,0,0,17.007,25.92,20.647,33.547,3.676,7.663,17.652,20.268,21.248,20.063,3.58-.189,6.667-9.062,7.7-14.371C1293.384,492.924,1281.4,487.027,1280.077,485.664Zm93.384-89.135c2.947-.31,4.983,1.068,8.461,3.834,3.414,2.91,5.156,1.842,5.483.484.347-1.286-2.318-6.917-2.318-6.917s-8.679-1.322-11.609-1.338c-3.035-.008-2.02-4.656-3.055-6.268-1-1.649,2.354-7.067,4.023-9.384,1.661-2.3.645-6.639-.968-8.659-1.725-2.012-5.664-1.62-9.009-3.273-3.285-1.689-2.975.645-3.285,1.963-.379,1.294,1.3,7.256,1.625,10.34,0,0-.028,3.289-2.967,2.943-3-.322,1.625,5.664,4.277,7.683,2.661,1.967,2.645,2.991,2.354,6C1366.149,396.884,1370.442,396.875,1373.461,396.529Zm5.978,30.265c-1.028.012-6.671,1.669-7.05,4.011-.3,2.338.734,3.672,1.871,3.39,0,0,1.8-3.092,2.951-3.309a12.419,12.419,0,0,1,5.849.895c2.709,1,2.338,4.672,4.656,7.986,2.31,3.285,3.334-.008,4-1,.665-.975-1.991-5.027,1.576-7.163,3.539-2.225.431,1.564,2.084,4.18,1.636,2.673,2.616-4.995,2.3-7.651-.306-2.717-3.688-2.314-3.386-4.446.274-2.112-1.221-4.523-4.213-7.22-2.942-2.765-2.048,1.354-2.048,1.354s-.964,4-2.9,5.857C1383.217,425.545,1380.375,426.782,1379.44,426.794Zm1.363,62.865c.645,1.286,1.983,7.627,2.648,9.965.613,2.306,5.325-2.314,5.514-5.373.169-2.987-2.8-8.925-2.8-8.925s-3.7-4.329-4.011-6.014c-.395-1.661,9.267-2.286,10.94-4.3,1.714-1.975-5.01.363-5.01.363s-5.9-.347-7.631.258c-1.633.677-.955,2.322-1.959,3.406-1.012.947-2.709-3.394-2.709-3.394s.673-6.611,1.983-7.6c1.351-1.012,3.681-.351,9.691.314a27.829,27.829,0,0,0,10.622-.992c.395-.073,2.717-4.341,3.709-7.6,0,0-1.713-2.036-2.729-2.036-1.02.016-3.27,5.994-5.623,6.647-2.3.661-11.989-1.012-14.943-1-3.035,0-3.672,1.661-5.68,4.922-1.955,3.322.355,4.4.355,5.93.044,1.528-3,6.792-5.317,9.126-2.374,2.334-.371,5.982-.371,5.982l2.709,3.584s2.979,9.356,4.325,8.651c1.3-.625-.367-12.222.306-14.907C1375.457,483.951,1380.161,488.317,1380.8,489.659Z" transform="translate(-44.395 -5.118)" fill="#f1f3f5"/>
</svg>
