<svg xmlns="http://www.w3.org/2000/svg" viewBox="0 0 512 512" width="48px" height="48px"><path fill="#74CCCF" d="M311,149.5c2.7-11.3,4.1-24.2-1.6-34.4c-8.2-14.8-25.3-20.9-41.6-20.8c-18.5,0.2-36.1,6-54.4,7.2c-16.4,1-32.7-1.5-49.1-1.8c-13.1-0.2-28.1,0.2-39.7,7.1c-9,5.3-15.4,13.6-18.5,23.6c-7.2,23.1-3.7,47.9-5.2,71.7c-1,16.2-3,32.4-3.4,48.7c-0.3,16.1,0,32.2,1.2,48.3c1.1,15.5,1.9,31.1,3.1,46.6c0.9,11.5,1.9,23.2,5.1,34.4c3.1,10.8,8.1,21.3,16.8,28.7c9.9,8.4,22.6,12.2,35.5,12.6c13.5,0.5,26.9-1.2,40.3-2.6c12.3-1.2,24-1.3,36.2,0.1c20.7,2.3,52.6,8.2,65.6-13.5c11.7-19.7,9-44,8.3-66c-0.4-0.3-0.8-0.7-1.2-1.1c-6.3-8-10.4-19.2-13-28.9c-2.9-10.8-8-20.9-11.9-31.4c-4.6,1.3-9.3,2.5-13.9,4c-5.4,1.8-10.1,4.7-15.3,7.1c-3.7,1.7-7.6,3.2-11.2,5.2c-2.1,1.2-7.2,3.3-7.8,6c-0.8,3.7-4.3,4.8-7.1,4c-1.8-0.2-3.5-1.2-4.5-3.2c-3.9-8,0.1-18.1,2.8-25.9c3.3-9.5,6.2-19.2,9.8-28.6c7.7-20.4,17.4-39.4,32.3-55.6c11.9-13,26-23.7,41.4-32.2c-0.3-0.6-0.4-1.4-0.4-2.2v-3C309.5,151.8,310.1,150.5,311,149.5z"/><path fill="#127274" d="M342.8,363.7c-3.3-27.4-4.8-54.7-5.2-82.2c-11,18.2-15.1,38.7-15.2,60.1c0,1.6-0.6,3-1.6,4c0.3,7.7,0.7,15.3,0.3,23.1c-0.5,10-1.6,20-4.7,29.6c-6.4,19.8-22.2,31.6-42.8,33.5c-20.9,1.9-41.5-4.5-62.3-3c-22.4,1.6-46,6.9-68.2,1.5c-24.3-5.9-40.7-24-47-47.9c-2.9-11.3-4.3-22.9-5.2-34.5c-1.2-15.3-1.9-30.7-3-46c-1.1-16.1-1.7-32.1-1.4-48.3c0.3-16,2.1-31.8,3.2-47.8c1.7-24.3-2-50.1,4.5-73.8c2.7-9.9,7.2-19.9,14.8-27.1c9.2-8.5,20.7-13.1,33-15c27.6-4.1,55.2,3.5,82.8-1.1c27.1-4.5,58.9-12.1,82.5,7c17.6,14.3,19.1,36.3,14.2,56.8c4.4-2.2,8.8-4.3,13.3-6.3c0.1-0.3,0.1-0.5,0.2-0.8c4.2-10.8,3.9-23,3.6-34.4c-0.1-5.6-0.4-11.2-0.3-16.8c0-4.9,0.4-9.9-0.3-14.8c-1.2-7.9-4.8-16-12.1-20c-9.5-5.1-20.3-4.1-30.7-4.1c-28.6,0.1-57.1,1.4-85.7,2.8c-28.1,1.4-56.2,3.1-84,7.2c-1.7,0.2-3-0.2-3.9-1c-15.2,0.5-28.2,7.3-37.3,19.9c-10,13.8-14.8,31.1-17.3,47.8c-2.4,16.5-2.2,32.9-0.2,49.4c3.8,31.8,4,63.8,3.6,95.8c-0.2,16.2-0.6,32.4-0.6,48.5c0,15.7,0.7,31.3,1,47c0.2,13.7-0.1,27.5,1.1,41.1c1.1,12.9,3.1,27.2,10.2,38.3c12.4,19.2,35.6,24.5,57.1,25.2c28.8,1,57.7-2.1,86.6-1.6c14.2,0.2,28.3,1.3,42.5,2.4c11.4,0.9,22.9,1.6,34.2,0.4c10.9-1.1,22.1-3.8,30.7-10.9c9-7.4,14-18.4,15.8-29.8C352.6,413.5,345.7,388.1,342.8,363.7z M235.7,454.3c-0.5,5.7-4.9,11.1-9.8,13.6c-9.8,5.1-23.2,1.9-31.5-4.8c-1.8-1.5-2.3-3.3-1.8-5.1c-0.3-0.4-0.5-0.8-0.7-1.3c-3.9-8.9-0.5-17.7,9.3-20c7.8-1.9,17.7-0.8,24.8,3C231.4,442.7,236.3,447.5,235.7,454.3z"/><path fill="#74CCCF" d="M224,451.7c-1.7-1.5-3.8-2.6-6-3.2c-4.4-1.2-9.2-2-13.8-1.1c-4,0.8-3.5,2.3-1.9,5.9c0.4,0.9,0.5,1.7,0.5,2.5c4.7,3.2,12,5.1,17.2,3C222,457.7,226.6,454,224,451.7z"/><path fill="#FEBF10" d="M421.7,136.9c-11.1-12.9-21.8-28.6-37.9-35.2c0.7,11.8,2.4,23.6,1.6,35.5c-0.1,1.1-0.4,2-0.9,2.7c-0.1,1.9-1.2,3.7-3.6,4.4c-10.9,3-22.1,4.9-32.8,8.7c-9.6,3.4-19,7.9-28,12.7c-15.6,8.3-30.2,18.4-42.2,31.4c-13.8,15-23.1,32-30.4,50.9c-3.6,9.4-6.5,19-9.8,28.4c-1,2.9-2.5,6.4-3.5,10c4.5-2.8,9.8-4.8,14-6.7c5.6-2.5,10.6-5.8,16.4-7.8c6.8-2.3,13.9-3.9,20.7-6.1c2.8-0.9,6.1,0.5,7,3.4c3.7,11.8,9.9,22.7,13.1,34.6c1.8,6.5,4,13.7,7.2,20.1c2.5-22.5,9.9-44.4,25.6-61.5c4.6-5,9.6-9.8,15.3-13.5c4.6-2.9,9.4-5,14.3-7.4c6.4-3.2,19.2-10.6,24.8-2.6c1.5,2.2,1.2,4.4,0,6.1c0.1,11.6,0.6,23.2,1.8,34.7c1.6-1.2,3.2-2.4,4.7-3.7c4.7-3.8,8.1-8,11.8-12.7c8.1-10.3,15.5-21.2,23-32c3.9-5.7,7.5-11.6,11.2-17.5c3.1-4.9,6.8-9.7,9.4-14.9c2.6-5.2,5.4-12.3,10.4-16.1C452.8,165.5,435.4,152.9,421.7,136.9z"/><path d="M476.5,181c-12.6-21-32.9-35.1-48.5-53.5c-13.7-16.2-27.1-33.9-49-38.8c-3.7-0.8-6.6,2.4-6.5,5.8c0.1,13.4,2.9,26.7,2.1,40.1c-9,2.4-18.1,4.3-27,7c1.9-8.7,2.2-17.6,2.1-26.5c0-6.2-0.3-12.4-0.4-18.7c-0.1-5.5,0.4-11-0.2-16.5c-1-9.4-4.6-18.2-11.2-25c-7.1-7.2-17.7-10.1-27.5-10.4c-30.7-1.1-61.6,0.9-92.2,2.3c-30.4,1.4-60.9,3-91.1,7.3c-0.7-0.4-1.5-0.6-2.5-0.6c-17.8-0.7-33.9,6.4-45.6,19.8c-11.7,13.4-17.8,31-21.3,48.1c-3.5,17-4.4,34.8-2.9,52.1c1.2,13.5,3,26.8,3.8,40.3c0.9,16.3,1.1,32.5,1,48.8c-0.2,32.4-1.4,64.7-0.3,97.1c0.9,27.2-1.4,55.6,6.4,82c6.8,23.4,24.5,37.8,47.7,43.6c24.4,6,50.7,3,75.4,2.2c15.8-0.5,31.6-0.8,47.4-0.3c13.1,0.4,26.2,1.9,39.3,2.7c22,1.3,46.9,1.1,64.9-13.6c19.3-15.8,21.9-41.7,20-64.9c-1-11.7-3.1-23.2-4.8-34.8c-2.3-16.2-4-32.6-5.3-48.9c-1.6-20-1.7-40-1.7-60.1c0-0.1,0-0.2,0-0.3c5.1-5.2,11.1-9.6,17.5-12.7c3.3-1.6,6.6-3.2,9.9-4.7c1.8-0.9,3.7-1.6,5.6-2.3c0.2,13.3,0.8,26.8,2.7,40c-0.4,1.2-0.7,2.5-0.7,4c-0.1,3.9,5.6,6.7,8.6,4.1c8.1-7,17.3-12.6,24.2-20.9c8.2-9.8,15.1-20.8,22.5-31.3c7.4-10.5,14-21.5,21.1-32.3c2.4-3.7,4.5-7.2,6.5-11.2c1.4-2.8,3.2-7.7,6.5-8.6c2.5-0.6,3.6-2.5,3.7-4.4C477.5,185.3,477.8,183.1,476.5,181z M348.9,438.2c-1.7,11.4-6.7,22.4-15.8,29.8c-8.6,7.1-19.9,9.7-30.7,10.9c-11.4,1.2-22.9,0.4-34.2-0.4c-14.2-1.1-28.3-2.2-42.5-2.4c-28.9-0.5-57.8,2.5-86.6,1.6c-21.5-0.7-44.7-6-57.1-25.2c-7.1-11.1-9.1-25.5-10.2-38.3c-1.2-13.7-0.9-27.4-1.1-41.1c-0.3-15.7-1-31.3-1-47c0-16.2,0.4-32.4,0.6-48.5c0.4-32,0.2-64-3.6-95.8c-2-16.5-2.2-32.9,0.2-49.4c2.4-16.7,7.3-34,17.3-47.8c9.1-12.6,22.1-19.5,37.3-19.9c0.9,0.8,2.3,1.3,3.9,1c27.8-4.1,55.9-5.9,84-7.2c28.6-1.4,57.1-2.7,85.7-2.8c10.4,0,21.2-1,30.7,4.1c7.3,4,10.9,12.1,12.1,20c0.7,4.9,0.4,9.8,0.3,14.8c0,5.6,0.2,11.2,0.3,16.8c0.3,11.4,0.6,23.6-3.6,34.4c-0.1,0.3-0.2,0.5-0.2,0.8c-4.5,1.9-8.9,4.1-13.3,6.3c4.9-20.5,3.4-42.5-14.2-56.8c-23.6-19.1-55.4-11.5-82.5-7c-27.6,4.6-55.2-2.9-82.8,1.1c-12.3,1.8-23.8,6.4-33,15C101.4,112,97,122,94.3,132c-6.5,23.8-2.8,49.6-4.5,73.8c-1.1,15.9-2.9,31.8-3.2,47.8c-0.3,16.2,0.2,32.2,1.4,48.3c1.1,15.3,1.8,30.7,3,46c0.9,11.6,2.3,23.2,5.2,34.5c6.3,23.9,22.6,42,47,47.9c22.3,5.4,45.8,0.1,68.2-1.5c20.8-1.5,41.4,4.8,62.3,3c20.7-1.9,36.4-13.7,42.8-33.5c3.1-9.6,4.1-19.6,4.7-29.6c0.4-7.8,0-15.4-0.3-23.1c0.9-1,1.6-2.3,1.6-4c0.1-21.4,4.2-41.9,15.2-60.1c0.4,27.5,1.9,54.8,5.2,82.2C345.7,388.1,352.6,413.5,348.9,438.2z M310,158.7c-15.4,8.5-29.5,19.3-41.4,32.2c-14.9,16.2-24.5,35.2-32.3,55.6c-3.6,9.4-6.5,19.1-9.8,28.6c-2.7,7.7-6.7,17.9-2.8,25.9c1,2,2.7,3,4.5,3.2c2.8,0.8,6.3-0.3,7.1-4c0.6-2.7,5.7-4.8,7.8-6c3.6-2,7.4-3.5,11.2-5.2c5.2-2.4,9.8-5.2,15.3-7.1c4.6-1.5,9.2-2.7,13.9-4c3.9,10.5,8.9,20.5,11.9,31.4c2.6,9.7,6.8,21,13,28.9c0.4,0.5,0.8,0.8,1.2,1.1c0.7,22,3.5,46.3-8.3,66c-12.9,21.8-44.9,15.9-65.6,13.5c-12.3-1.4-24-1.3-36.2-0.1c-13.4,1.4-26.8,3.1-40.3,2.6c-12.9-0.5-25.6-4.2-35.5-12.6c-8.7-7.4-13.7-18-16.8-28.7c-3.2-11.1-4.2-22.9-5.1-34.4c-1.2-15.5-1.9-31.1-3.1-46.6c-1.1-16.1-1.5-32.1-1.2-48.3c0.3-16.3,2.3-32.4,3.4-48.7c1.5-23.7-2-48.6,5.2-71.7c3.1-10,9.6-18.3,18.5-23.6c11.6-6.9,26.6-7.4,39.7-7.1c16.4,0.3,32.7,2.8,49.1,1.8c18.3-1.2,35.9-7,54.4-7.2c16.2-0.1,33.4,6,41.6,20.8c5.7,10.2,4.3,23.2,1.6,34.4c-0.9,1-1.5,2.3-1.5,3.9v3C309.5,157.3,309.7,158,310,158.7z M454.4,199.1c-2.6,5.2-6.3,9.9-9.4,14.9c-3.7,5.9-7.2,11.8-11.2,17.5c-7.5,10.8-14.9,21.7-23,32c-3.7,4.7-7.1,8.9-11.8,12.7c-1.6,1.3-3.2,2.5-4.7,3.7c-1.3-11.5-1.7-23.2-1.8-34.7c1.2-1.6,1.6-3.9,0-6.1c-5.6-8-18.4-0.6-24.8,2.6c-4.8,2.4-9.7,4.5-14.3,7.4c-5.7,3.6-10.8,8.5-15.3,13.5c-15.7,17.1-23.1,39-25.6,61.5c-3.2-6.4-5.5-13.6-7.2-20.1c-3.2-11.9-9.4-22.9-13.1-34.6c-0.9-2.9-4.2-4.3-7-3.4c-6.8,2.2-13.9,3.8-20.7,6.1c-5.8,2-10.9,5.3-16.4,7.8c-4.2,1.8-9.4,3.9-14,6.7c1-3.6,2.5-7.2,3.5-10c3.3-9.5,6.2-19.1,9.8-28.4c7.3-18.9,16.6-35.9,30.4-50.9c12-13,26.7-23.1,42.2-31.4c9-4.8,18.4-9.2,28-12.7c10.6-3.8,21.9-5.7,32.8-8.7c2.5-0.7,3.6-2.5,3.6-4.4c0.5-0.7,0.9-1.6,0.9-2.7c0.8-11.9-0.9-23.6-1.6-35.5c16.1,6.6,26.8,22.3,37.9,35.2c13.8,16,31.1,28.6,43.1,46.1C459.7,186.8,457,193.9,454.4,199.1z"/><path d="M225.9,439.8c-7.1-3.8-17-4.8-24.8-3c-9.8,2.3-13.2,11.1-9.3,20c0.2,0.5,0.5,0.9,0.7,1.3c-0.4,1.7,0,3.6,1.8,5.1c8.3,6.7,21.6,9.9,31.5,4.8c5-2.6,9.3-8,9.8-13.6C236.3,447.5,231.4,442.7,225.9,439.8z M219.9,458.6c-5.2,2.2-12.6,0.2-17.2-3c0-0.8-0.1-1.6-0.5-2.5c-1.6-3.6-2.1-5.1,1.9-5.9c4.6-0.9,9.4-0.1,13.8,1.1c2.2,0.6,4.3,1.7,6,3.2C226.6,454,222,457.7,219.9,458.6z"/></svg>