<svg xmlns="http://www.w3.org/2000/svg" xmlns:xlink="http://www.w3.org/1999/xlink" width="153" height="107.131" viewBox="0 0 153 107.131"><defs><clipPath id="a"><path d="M454.774,143.3v-6.461a15.525,15.525,0,0,0-15.525-15.525H329.095a15.525,15.525,0,0,0-15.525,15.525V143.3Z" transform="translate(-313.57 -121.311)" fill="#2b7b79"/></clipPath></defs><g transform="translate(-319.57 -89.703)"><g transform="translate(331.367 89.703)"><path d="M14.643,0H126.559A14.644,14.644,0,0,1,141.2,14.644V74.97a14.644,14.644,0,0,1-14.644,14.644H14.643A14.643,14.643,0,0,1,0,74.97V14.643A14.643,14.643,0,0,1,14.643,0Z" fill="#adb5bd"/><rect width="39.519" height="7.933" transform="translate(91.248 10.333)" fill="#5153e5"/><path d="M0,0H77.5V7.933H0Z" transform="translate(13.748 10.333)" fill="#5153e5"/><path d="M474.884,160.262A9.3,9.3,0,0,0,459.91,162.8a9.321,9.321,0,1,0,0,8.109,9.317,9.317,0,1,0,14.974-10.645Z" transform="translate(-343.943 -96.334)" fill="#ff5a5d"/><text transform="translate(6.41 54.828)" fill="#454c53" font-size="8" font-family="Roboto-Regular, Roboto" letter-spacing="0.251em"><tspan x="0" y="0">0002 0003 0004 0005</tspan></text><text transform="translate(57.405 41.595)" fill="#5153e5" font-size="25" font-family="Roboto-Light, Roboto" font-weight="300" letter-spacing="0.091em"><tspan x="0" y="0">CARD</tspan></text></g><g transform="translate(319.57 107.221)"><rect width="141.203" height="89.613" rx="14.643" transform="translate(0 0)" fill="#adb5bd"/><path d="M454.774,143.3v-6.461a15.525,15.525,0,0,0-15.525-15.525H329.095a15.525,15.525,0,0,0-15.525,15.525V143.3Z" transform="translate(-313.57 -121.311)" fill="#adb5bd"/><g clip-path="url(#a)"><line y1="32.24" x2="24.031" transform="translate(8.405 -5.127)" fill="none" stroke="#2b7b79" stroke-miterlimit="10" stroke-width="6"/><line y1="32.24" x2="24.031" transform="translate(34.124 -5.127)" fill="none" stroke="#2b7b79" stroke-miterlimit="10" stroke-width="6"/><path d="M0,32.24,24.031,0" transform="translate(59.843 -5.127)" fill="none" stroke="#2b7b79" stroke-width="6"/><line y1="32.24" x2="24.031" transform="translate(85.562 -5.127)" fill="none" stroke="#2b7b79" stroke-miterlimit="10" stroke-width="6"/><line y1="32.24" x2="24.031" transform="translate(111.281 -5.127)" fill="none" stroke="#2b7b79" stroke-miterlimit="10" stroke-width="6"/></g><rect width="141.203" height="13.842" transform="translate(0 14.527)" fill="#5153e5"/><path d="M454.916,164.26a8.154,8.154,0,0,0-13.127,2.223,8.17,8.17,0,1,0,0,7.108,8.167,8.167,0,1,0,13.127-9.331Z" transform="translate(-324.588 -125.276)" fill="#ff5a5d"/><text transform="translate(6.837 62.416)" fill="#454c53" font-size="8" font-family="Roboto-Regular, Roboto" letter-spacing="0.251em"><tspan x="0" y="0">0002 0003 0004</tspan></text></g></g></svg>