<svg xmlns="http://www.w3.org/2000/svg" width="135.709" height="131.04" viewBox="0 0 135.709 131.04"><g transform="translate(-832 -752.763)"><g transform="translate(0 -12)"><g transform="translate(837.999 770.997)" fill="none" stroke="#868e96" stroke-width="1"><circle cx="60.483" cy="60.483" r="60.483" stroke="none"/><circle cx="60.483" cy="60.483" r="59.983" fill="none"/></g><g transform="translate(832 764.763)"><path d="M275.9,217.9s0,.348-.012,1.024c0,.169,0,.358-.01.567s-.016.438-.026.688-.015.518-.034.805-.037.595-.057.921c-.093,1.3-.241,2.91-.53,4.783a56.988,56.988,0,0,1-1.363,6.366c-.04.147-.079.3-.121.445l-.133.447-.272.912c-.2.611-.393,1.24-.623,1.874s-.467,1.282-.716,1.941c-.265.653-.529,1.324-.83,2a56.208,56.208,0,0,1-4.525,8.365A57.162,57.162,0,0,1,250.7,265.169a57.968,57.968,0,0,1-5.511,3.263,56.315,56.315,0,0,1-6.074,2.706,55.384,55.384,0,0,1-6.573,2.029c-.564.145-1.138.263-1.711.39-.286.066-.576.116-.865.173s-.579.114-.87.166l-.877.146-.44.073-.442.062-.886.125c-.3.039-.594.07-.892.1-.6.075-1.2.123-1.8.178-.3.031-.6.044-.9.065s-.605.041-.909.056l-.913.035-.458.018-.459.006-.919.013c-.309,0-.614-.006-.922-.008-.614,0-1.232-.031-1.851-.053-.31-.008-.619-.035-.929-.052s-.621-.034-.931-.062c-.62-.057-1.244-.1-1.866-.179-.311-.036-.623-.068-.935-.108l-.935-.13c-.313-.04-.624-.092-.935-.144s-.624-.1-.936-.156c-.621-.122-1.248-.228-1.868-.371-1.247-.258-2.487-.582-3.725-.928-.616-.183-1.236-.361-1.849-.567s-1.226-.413-1.839-.627c-.306-.109-.608-.228-.913-.342l-.456-.173c-.152-.059-.3-.122-.453-.183l-.906-.37-.9-.392A57.014,57.014,0,0,1,196,165.745l.9-.4.908-.372c.151-.061.3-.125.454-.184l.457-.174c.305-.115.608-.235.914-.345.614-.216,1.224-.439,1.842-.633s1.235-.386,1.853-.571c1.241-.35,2.483-.677,3.733-.939.622-.144,1.25-.252,1.873-.376.313-.057.626-.106.938-.158s.624-.106.938-.147l.937-.132c.312-.041.625-.074.937-.111.623-.079,1.249-.125,1.871-.183.311-.029.623-.043.934-.064s.621-.046.932-.054c.621-.023,1.24-.055,1.857-.057.31,0,.614-.01.928-.01l.918.011.458.005.46.017.918.034c.305.014.608.037.912.054s.607.034.908.064c.6.054,1.206.1,1.8.174.3.035.6.066.9.1l.89.124.444.062.441.073.88.145c.292.051.583.11.873.164s.581.106.868.172c.576.126,1.151.243,1.718.387a55.578,55.578,0,0,1,6.6,2.024,56.525,56.525,0,0,1,6.1,2.7,58.332,58.332,0,0,1,5.541,3.266A57.43,57.43,0,0,1,266.9,186.6a56.474,56.474,0,0,1,4.567,8.4c.3.674.571,1.348.839,2,.252.663.505,1.309.724,1.95s.428,1.27.631,1.884l.276.916.134.45c.043.149.082.3.123.447a57.354,57.354,0,0,1,1.384,6.4c.3,1.884.447,3.5.543,4.812q.032.492.06.927c.02.289.024.56.036.81l.027.692c.009.21.007.4.011.571.009.68.014,1.03.014,1.03Zm-.365,0s0-.346-.012-1.017c0-.168,0-.356-.01-.564s-.016-.435-.025-.683-.015-.515-.034-.8-.037-.591-.057-.915c-.093-1.295-.239-2.891-.526-4.753a56.563,56.563,0,0,0-1.355-6.324c-.04-.146-.078-.294-.12-.442l-.132-.445-.27-.906c-.2-.607-.39-1.232-.619-1.862s-.464-1.273-.711-1.928c-.264-.649-.526-1.315-.825-1.982a55.787,55.787,0,0,0-4.5-8.312,56.807,56.807,0,0,0-15.852-16.033,57.659,57.659,0,0,0-5.475-3.242A55.942,55.942,0,0,0,238.984,165a55.042,55.042,0,0,0-6.53-2.016c-.561-.144-1.13-.261-1.7-.387-.284-.066-.572-.115-.859-.172s-.575-.113-.864-.164l-.871-.145-.437-.073-.439-.062-.88-.124c-.295-.038-.59-.069-.887-.1-.591-.075-1.188-.121-1.785-.176-.3-.03-.6-.044-.9-.065s-.6-.041-.9-.056l-.905-.035-.453-.018-.458-.006-.918-.013c-.3,0-.609.006-.913.009-.612,0-1.225.031-1.84.052-.308.007-.615.035-.923.051s-.617.034-.925.062c-.616.056-1.236.1-1.854.178-.309.036-.62.067-.929.108l-.929.129c-.311.04-.62.092-.929.143s-.62.1-.93.155c-.618.121-1.24.227-1.857.368-1.239.257-2.47.578-3.7.922-.612.182-1.228.359-1.837.563s-1.218.411-1.827.623c-.3.108-.6.227-.907.34l-.453.172c-.151.058-.3.121-.45.182l-.9.367-.893.39a56.649,56.649,0,0,0-.054,103.52l.895.392.9.37c.15.061.3.124.451.183l.454.173c.3.114.6.234.908.343.61.215,1.216.436,1.83.629s1.227.384,1.841.568c1.233.347,2.467.673,3.709.932.618.143,1.242.25,1.861.373.31.056.622.1.932.157s.62.1.931.145l.931.131c.31.041.621.073.931.11.62.078,1.241.124,1.859.182.309.029.619.042.928.064s.617.046.925.054c.616.023,1.23.055,1.845.056.307,0,.616.011.919.01l.916-.011.457-.005.456-.017.91-.034c.3-.014.6-.036.906-.054s.6-.033.9-.063c.6-.053,1.2-.1,1.792-.173.3-.035.594-.065.89-.1l.884-.123.441-.061.438-.072.874-.144c.29-.051.579-.109.868-.163s.577-.106.863-.171c.572-.125,1.144-.241,1.707-.385a55.258,55.258,0,0,0,6.56-2.011,56.2,56.2,0,0,0,6.065-2.687,57.7,57.7,0,0,0,5.505-3.245A57.079,57.079,0,0,0,266.595,249a56.139,56.139,0,0,0,4.538-8.348c.3-.67.567-1.339.833-1.992.251-.658.5-1.3.72-1.938s.425-1.262.626-1.871l.274-.911.134-.447c.043-.148.082-.3.122-.444a56.9,56.9,0,0,0,1.376-6.36c.293-1.872.444-3.478.539-4.781q.032-.489.059-.92c.02-.288.024-.557.036-.805s.019-.478.027-.687.007-.4.011-.567c.009-.675.014-1.024.014-1.024Z" transform="translate(-151.413 -150.739)" fill="#fff"/><path d="M178.755,396.607a10.036,10.036,0,1,1-10.036-10.037A10.036,10.036,0,0,1,178.755,396.607Z" transform="translate(-154.218 -359.052)" fill="#d9daff"/><circle cx="11.044" cy="11.044" r="11.044" transform="translate(33.516 22.32) rotate(-88.707)" fill="#d9daff"/><path d="M1080.667,67.291a11.437,11.437,0,1,1-11.437-11.437A11.437,11.437,0,0,1,1080.667,67.291Z" transform="translate(-981.953 -55.854)" fill="#d9daff"/><path d="M1348.421,473.19a10.352,10.352,0,1,0,10.352-10.352A10.352,10.352,0,0,0,1348.421,473.19Z" transform="translate(-1243.158 -435.434)" fill="#d9daff"/><path d="M144.695,876.746a8.976,8.976,0,1,1-8.976-8.976A8.976,8.976,0,0,1,144.695,876.746Z" transform="translate(-126.742 -804.619)" fill="#3a3ca5"/><path d="M1043.4,1548.692a9.744,9.744,0,1,1-9.745-9.744A9.744,9.744,0,0,1,1043.4,1548.692Z" transform="translate(-947.691 -1427.594)" fill="#3a3ca5"/><path d="M163,1241.68a10.036,10.036,0,1,1-10.037-10.037A10.036,10.036,0,0,1,163,1241.68Z" transform="translate(-133.683 -1138.919)" fill="#d9daff"/><circle cx="11.044" cy="11.044" r="11.044" transform="translate(98.995 100.176) rotate(-45)" fill="#ff5a5d"/><path d="M1502.932,858.414a10.036,10.036,0,1,1-10.036-10.037A10.036,10.036,0,0,1,1502.932,858.414Z" transform="translate(-1367.223 -787.225)" fill="#d9daff"/><g transform="translate(35.7 112.912)"><g transform="translate(0)"><path d="M465.016,1489.381a9.064,9.064,0,1,1-9.064-9.065A9.064,9.064,0,0,1,465.016,1489.381Z" transform="translate(-446.887 -1480.316)" fill="#ff5a5d"/></g></g><g transform="translate(39.234 34.197)"><g transform="translate(3.394 0)"><path d="M614.423,1318.561c-.152-.59-.359-1.167-.546-1.737-.228-.557-.45-1.106-.708-1.616a12.687,12.687,0,0,0-.806-1.44,12.431,12.431,0,0,0-.845-1.208,11.127,11.127,0,0,0-1.524-1.584,5.819,5.819,0,0,0-.674-.487s.177.247.449.685c.134.222.293.49.467.8s.347.675.556,1.053c.179.4.391.813.582,1.272.207.448.38.942.58,1.439s.343,1.04.542,1.565c.143.547.334,1.087.468,1.646.124.54.286,1.069.39,1.607h1.483c-.011-.074-.022-.149-.034-.224C614.728,1319.742,614.551,1319.155,614.423,1318.561Z" transform="translate(-606.714 -1245.879)" fill="#c4c4c3"/><path d="M1124.481,1326.23c.2-.525.335-1.069.541-1.565s.373-.992.58-1.44c.191-.459.4-.873.582-1.272.209-.379.376-.747.557-1.052s.333-.579.466-.8c.272-.439.449-.686.449-.686a5.857,5.857,0,0,0-.674.487,11.1,11.1,0,0,0-1.525,1.584,12.564,12.564,0,0,0-.846,1.208,12.863,12.863,0,0,0-.805,1.44c-.258.511-.48,1.06-.708,1.616-.187.57-.394,1.146-.546,1.736-.1.447-.22.89-.307,1.335h1.529c.08-.313.165-.626.238-.943C1124.147,1327.318,1124.338,1326.778,1124.481,1326.23Z" transform="translate(-1080.062 -1254.114)" fill="#c4c4c3"/><g transform="translate(0 27.147)"><path d="M656.248,824.955s-.055.529-.157,1.461l18.427-.734Z" transform="translate(-649.877 -824.955)" fill="#24282a"/><path d="M913.173,824.955l-18.27.727,18.427.734C913.227,825.484,913.173,824.955,913.173,824.955Z" transform="translate(-870.262 -824.955)" fill="#24282a"/><path d="M620.682,835.209l-2.4-.1-18.427-.734-18.427.734c-.629,5.707-3.066,26.555-5.867,33.857a54.134,54.134,0,0,0,48.588,0c.293-.131.585-.263.879-.4C625.022,868.571,619.111,845.6,620.682,835.209Z" transform="translate(-575.556 -833.653)" fill="#24282a"/></g><rect width="14.177" height="16.773" transform="translate(18.042 45.118)" fill="#efcba8"/><path d="M809.056,1032.954l14.474-7.1-14.478-3.309Z" transform="translate(-791.036 -980.148)" fill="#c39b7f"/><g transform="translate(7.15 5.926)"><path d="M668.219,568.695c0,12.6,7.872,22.839,17.663,23.12v-41.7C676.26,550.433,668.219,556.271,668.219,568.695Z" transform="translate(-668.219 -550.105)" fill="#daae8c"/><path d="M897.959,549.928c-.275,0-.549.006-.822.015v41.7c.137,0,.274.013.412.013,9.983,0,18.075-10.357,18.075-23.134S907.942,549.928,897.959,549.928Z" transform="translate(-879.474 -549.928)" fill="#efcba8"/></g><g transform="translate(4.641)"><path d="M889.842,715.561q.19-.177.383-.36l-.182-.173A1.621,1.621,0,0,1,889.842,715.561Z" transform="translate(-870.232 -696.363)" fill="#24282a"/><path d="M635.7,780.638c0-.023,0-.046,0-.069C635.7,780.613,635.7,780.638,635.7,780.638Z" transform="translate(-635.697 -756.847)" fill="#24282a"/><path d="M914.749,494.024c.322-6.343-.768-20.893-17.55-20.893q-1.245,0-2.4.062C912.033,474.107,914.441,484.99,914.749,494.024Z" transform="translate(-874.806 -473.131)" fill="#24282a"/><path d="M902.275,724.073c-.8-.615-1.644-1.325-2.52-2.14A5.635,5.635,0,0,0,902.275,724.073Z" transform="translate(-879.38 -702.735)" fill="#24282a"/><path d="M1101.139,764.655c-.532.293-1.069.564-1.613.8,1.194.041,2.479.056,3.864.041,0,0,.055-.313.12-.867C1103.234,764.174,1102.6,763.853,1101.139,764.655Z" transform="translate(-1063.737 -741.708)" fill="#24282a"/><path d="M635.7,746.732a1.709,1.709,0,0,1,.211-.8c-.059-.5-.126-1.193-.169-2.032C635.713,744.872,635.7,745.82,635.7,746.732Z" transform="translate(-635.703 -723.01)" fill="#24282a"/><path d="M859.7,721.933c-.876.815-1.715,1.525-2.52,2.14A5.634,5.634,0,0,0,859.7,721.933Z" transform="translate(-840.09 -702.735)" fill="#24282a"/><path d="M1151.328,743.9c-.043.838-.11,1.533-.169,2.032a1.71,1.71,0,0,1,.211.8C1151.37,745.82,1151.361,744.872,1151.328,743.9Z" transform="translate(-1111.386 -723.01)" fill="#24282a"/><path d="M894.8,715.2q.192.183.382.36a1.617,1.617,0,0,1-.2-.533Z" transform="translate(-874.806 -696.363)" fill="#24282a"/><path d="M1153.894,780.571v.069S1153.9,780.615,1153.894,780.571Z" transform="translate(-1113.91 -756.849)" fill="#24282a"/><path d="M638.438,764.633c.065.554.121.867.121.867,1.384.014,2.669,0,3.863-.041-.544-.239-1.081-.51-1.613-.8C639.35,763.853,638.714,764.174,638.438,764.633Z" transform="translate(-638.227 -741.708)" fill="#24282a"/><path d="M655.69,473.193q-1.155-.061-2.4-.062c-16.781,0-17.871,14.55-17.549,20.893.043.838.11,1.533.169,2.032.276-.459.912-.78,2.371.023.532.293,1.069.564,1.613.8,6.888-.234,10.741-1.31,12.894-2.412.8-.615,1.644-1.325,2.52-2.14a1.621,1.621,0,0,0,.2-.533l.182.173.182-.173a1.618,1.618,0,0,0,.2.533c.876.815,1.715,1.525,2.52,2.14,2.154,1.1,6.007,2.179,12.894,2.412.544-.239,1.081-.51,1.613-.8,1.459-.8,2.094-.482,2.371-.023.059-.5.126-1.193.169-2.032C675.332,484.99,672.923,474.107,655.69,473.193Z" transform="translate(-635.697 -473.131)" fill="#24282a"/></g><path d="M1111.887,755.931c-.389,2.667.358,4.985,1.667,5.177s2.686-1.813,3.074-4.48-.359-4.985-1.667-5.178S1112.275,753.264,1111.887,755.931Z" transform="translate(-1070.409 -729.964)" fill="#efcba8"/><path d="M631.5,752.305c.254,2.632-.515,4.861-1.716,4.978s-2.38-1.922-2.634-4.554.515-4.862,1.716-4.979S631.245,749.673,631.5,752.305Z" transform="translate(-623.123 -726.556)" fill="#daae8c"/></g><g transform="translate(0 52.175)"><path d="M922.152,1163.878c-.181.305-.348.674-.557,1.053-.178.4-.391.813-.582,1.272-.207.447-.379.941-.58,1.439s-.343,1.04-.541,1.565c-.143.547-.333,1.087-.469,1.646-.073.316-.158.63-.238.943h9.834c-1.414-5.392-5.687-17.15-16.562-20.467l-4.7-2.014c-1.01,2.479-1.983,5.189-5.662,5.6v16.823h-1.494v.053h17.051c.087-.445.211-.888.307-1.335.152-.59.359-1.166.546-1.735.228-.557.45-1.106.708-1.617a12.893,12.893,0,0,1,.805-1.439,12.638,12.638,0,0,1,.846-1.208,11.09,11.09,0,0,1,1.525-1.584,5.861,5.861,0,0,1,.674-.487s-.176.246-.449.685C922.485,1163.3,922.326,1163.566,922.152,1163.878Z" transform="translate(-872.13 -1149.316)" fill="#fff"/><path d="M558.709,1178.986v-16.8c-3.509-.336-4.517-2.763-5.741-5.023l-3.717,1.555c-4.161,1.129-15.114,5.478-17.687,20.32h9.983c-.1-.538-.266-1.067-.39-1.607-.134-.559-.325-1.1-.468-1.646-.2-.525-.336-1.069-.542-1.565s-.373-.992-.58-1.44c-.191-.459-.4-.874-.582-1.272-.209-.378-.376-.748-.556-1.053s-.333-.579-.467-.8c-.272-.439-.449-.686-.449-.686a5.819,5.819,0,0,1,.674.487,11.149,11.149,0,0,1,1.524,1.584,12.444,12.444,0,0,1,.845,1.208,12.69,12.69,0,0,1,.806,1.44c.258.51.48,1.059.708,1.616.187.57.394,1.146.546,1.737.128.595.3,1.181.379,1.775q.017.112.034.224h17.01v-.053Z" transform="translate(-531.564 -1156.558)" fill="#e3e2e2"/><path d="M884.693,1222.036h-.031c-.441,0-.875-.021-1.3-.062v16.8h2.825v-16.823A13.561,13.561,0,0,1,884.693,1222.036Z" transform="translate(-856.217 -1216.346)" fill="#5153e5"/></g></g><g transform="translate(38.03 3.768)"><g transform="translate(0 0)"><path d="M523.23,78.77l6.817,5.5c-.034.007-.151.592-.187.592l-.886,3.328-11.387-.21-.953-3.329c-.035,0-.185-.375-.22-.381Z" transform="translate(-516.379 -78.77)" fill="#0c3b47"/><rect width="10.876" height="6.167" transform="translate(1.312 2.746)" fill="#d8d9e6"/><path d="M529.029,115.459h-.265v-6.786a.409.409,0,0,0-.447-.356H517.289a.41.41,0,0,0-.447.356v6.786h-.294a.59.59,0,0,0-.59.59v3.619a.59.59,0,0,0,.59.59h12.481a.59.59,0,0,0,.59-.59v-3.619A.59.59,0,0,0,529.029,115.459Zm-10.7-6.561h8.952a.525.525,0,1,1,0,1.022h-8.952a.525.525,0,1,1,0-1.022Zm0,1.481h8.952a.525.525,0,1,1,0,1.022h-8.952a.525.525,0,1,1,0-1.022Zm0,1.482h8.952a.525.525,0,1,1,0,1.022h-8.952a.525.525,0,1,1,0-1.022Zm0,1.482h8.952a.525.525,0,1,1,0,1.022h-8.952a.525.525,0,1,1,0-1.022Z" transform="translate(-515.958 -106.037)" fill="#fff"/><path d="M529.835,203.686l-1.669,1.39a.28.28,0,0,1-.183.066.283.283,0,0,1-.182-.066l-1.668-1.39-4.568,4.567a.532.532,0,0,0,.138.028h12.56a.542.542,0,0,0,.14-.028Z" transform="translate(-521.132 -194.047)" fill="#3a3ca5"/><path d="M639.017,150.235a.56.56,0,0,0-.034-.17l-4.524,3.77,4.531,4.532a.577.577,0,0,0,.027-.139Z" transform="translate(-625.314 -144.564)" fill="#3a3ca5"/><path d="M515.993,150.055a.549.549,0,0,0-.035.171v7.993a.544.544,0,0,0,.029.139l4.531-4.532Z" transform="translate(-515.958 -144.555)" fill="#3a3ca5"/></g></g><g transform="translate(79.707 4.617)"><g transform="translate(0 0)"><path d="M1135,117.519l.738-1.272a.552.552,0,0,1,.754-.2l2.085,1.21a2.568,2.568,0,0,0-3.3-2.469,1.1,1.1,0,0,1-.363-.249l-3.124-3.25h0l-2.2-2.294a1.1,1.1,0,0,1-.248-.408,2.571,2.571,0,0,0-3.738-2.991l2.085,1.21a.551.551,0,0,1,.2.754l-.738,1.272a.553.553,0,0,1-.755.2l-2.084-1.21a2.569,2.569,0,0,0,3.305,2.47,1.1,1.1,0,0,1,.363.248l3.124,3.251h0l2.2,2.295a1.091,1.091,0,0,1,.247.408,2.571,2.571,0,0,0,3.738,2.99l-2.084-1.21A.55.55,0,0,1,1135,117.519Z" transform="translate(-1123.04 -105.06)" fill="#696969"/><path d="M1194.325,103.642l-.9-.9-1.516.616-.615,1.517-5.992,5.992a.639.639,0,1,0,.9.9l5.993-5.992,1.516-.615Z" transform="translate(-1179.129 -102.74)" fill="#535352"/><g transform="translate(0 7.615)"><path d="M1110.493,208.69a1,1,0,0,1-1.415.063l-.9-.9a1,1,0,0,1,.063-1.415l4.677-4.677a1,1,0,0,1,1.415-.063l.9.9a1,1,0,0,1-.063,1.415Z" transform="translate(-1107.914 -201.434)" fill="#ff5a5d"/><g transform="translate(0.547 0.547)"><path d="M1115.926,213.187c-.326.327-.651.531-.726.456l-.181-.18c-.074-.074.13-.4.456-.726l3.742-3.742c.327-.326.652-.53.727-.456l.18.181c.075.074-.13.4-.456.726Z" transform="translate(-1115.004 -208.523)" fill="#3a3ca5"/><path d="M1133.452,230.714c-.327.326-.652.53-.726.456l-.18-.181c-.075-.075.129-.4.456-.726l3.742-3.742c.326-.326.651-.53.725-.456l.181.18c.074.075-.13.4-.455.726Z" transform="translate(-1131.178 -224.698)" fill="#3a3ca5"/><path d="M1124.692,221.95c-.327.326-.652.53-.726.456l-.18-.181c-.074-.074.13-.4.455-.726l3.743-3.741c.326-.327.651-.531.725-.456l.181.181c.074.075-.13.4-.456.726Z" transform="translate(-1123.094 -216.61)" fill="#3a3ca5"/></g></g></g></g><g transform="translate(107.85 33.871)"><g transform="translate(0 0)"><g transform="translate(0 3.805)"><path d="M1390.078,583.643a.678.678,0,0,1-.676-.635h-.729a.678.678,0,0,1-1.352,0h-.73a.678.678,0,0,1-1.353,0h-3.283c-.006.256,0,.512.013.766a3.773,3.773,0,0,0,2.075,3.107,3.893,3.893,0,0,0,1.824.4c.453.005.909-.01,1.363.008-.272.776-.568,1.545-.854,2.318q1.632-1.137,3.26-2.28a.233.233,0,0,1,.1-.043,6.423,6.423,0,0,0,.987-.042c-.03-.144-.112-.27-.147-.413a4.121,4.121,0,0,1-.141-1.51c-.032-.1.037-.2.042-.3a3.121,3.121,0,0,1,1.269-2.012h-.991A.678.678,0,0,1,1390.078,583.643Z" transform="translate(-1381.953 -583.008)" fill="#d33827"/></g><g transform="translate(0.002)"><path d="M1392.974,534.788l0,0,0,0-.009-.009a.145.145,0,0,1-.019-.023.991.991,0,0,1-.16-.129,3.823,3.823,0,0,0-2.547-.931c-1.539,0-3.075,0-4.614,0a3.889,3.889,0,0,0-2.719,1.288v0l-.006.006h0a4.164,4.164,0,0,0-.724,1.279,3.876,3.876,0,0,0-.2,1.232h3.283c0-.014,0-.029,0-.043a.678.678,0,1,1,1.357,0c0,.015,0,.029,0,.043h.73c0-.014,0-.029,0-.043a.678.678,0,1,1,1.357,0c0,.015,0,.029,0,.043h.729c0-.014,0-.029,0-.043a.679.679,0,0,1,1.357,0c0,.015,0,.029,0,.043h.991a3.034,3.034,0,0,1,1.4-.562,8.6,8.6,0,0,1,.861-.032A3.673,3.673,0,0,0,1392.974,534.788Z" transform="translate(-1381.977 -533.689)" fill="#ea4128"/></g></g><path d="M1506.415,584.363a3.37,3.37,0,0,0-.022-.361,2.637,2.637,0,0,0-2.64-2.233c-.942,0-1.886-.005-2.827,0a2.652,2.652,0,0,0-2.569,2.777,2.71,2.71,0,0,0,.392,1.563,2.627,2.627,0,0,0,2.19,1.258c.123.021.264-.031.371.046q.948.668,1.9,1.328a.331.331,0,0,0,.509-.326c-.1-.354-.269-.685-.368-1.043a4.312,4.312,0,0,0,1.019-.067,2.646,2.646,0,0,0,1.728-1.3A2.941,2.941,0,0,0,1506.415,584.363Z" transform="translate(-1491.372 -579.058)" fill="#3a3ca5"/></g><g transform="translate(107.582 93.756)"><g transform="translate(0 0)"><path d="M1430.787,1251.74a6.72,6.72,0,1,1-6.72-6.72A6.721,6.721,0,0,1,1430.787,1251.74Z" transform="translate(-1417.346 -1245.02)" fill="#d8d9e6"/><path d="M1428.932,1262.433a5.826,5.826,0,1,0,5.826-5.826A5.827,5.827,0,0,0,1428.932,1262.433Z" transform="translate(-1428.038 -1255.713)" fill="#f5f6f6"/><g transform="translate(3.059 2.445)"><path d="M1457.078,1323.4a.279.279,0,0,1,.23-.474l3.425.411a.279.279,0,0,1-.067.553l-3.424-.411A.278.278,0,0,1,1457.078,1323.4Z" transform="translate(-1456.996 -1319.358)" fill="#002942"/><path d="M1502.91,1281.156a.206.206,0,0,1-.046-.24l2.23-4.126a.183.183,0,0,1,.264-.053.213.213,0,0,1,.088.273l-2.23,4.126a.183.183,0,0,1-.264.053A.245.245,0,0,1,1502.91,1281.156Z" transform="translate(-1499.306 -1276.703)" fill="#002942"/></g><g transform="translate(6.226 5.8)"><path d="M1501.209,1325.761l-.014-.019-3.144-5.34a.14.14,0,0,1,.049-.191.142.142,0,0,1,.191.05l3.144,5.34a.14.14,0,0,1-.227.161Z" transform="translate(-1498.032 -1320.192)" fill="#002942"/></g><g transform="translate(1.878 1.878)"><path d="M1466.293,1360.734" transform="translate(-1464.394 -1353.684)" fill="#002942"/><path d="M1501,1269.675a.314.314,0,1,1-.313-.314A.314.314,0,0,1,1501,1269.675Z" transform="translate(-1495.848 -1269.361)" fill="#002942"/><path d="M1501,1387.059a.314.314,0,1,1-.313-.314A.314.314,0,0,1,1501,1387.059Z" transform="translate(-1495.848 -1377.688)" fill="#002942"/><path d="M1559.385,1329.682a.314.314,0,1,1,.313-.314A.313.313,0,0,1,1559.385,1329.682Z" transform="translate(-1550.014 -1324.449)" fill="#002942"/><path d="M1442,1329.682a.314.314,0,1,1,.313-.314A.313.313,0,0,1,1442,1329.682Z" transform="translate(-1441.686 -1324.449)" fill="#002942"/><path d="M1532.139,1279.881a.172.172,0,1,1-.172-.172A.172.172,0,0,1,1532.139,1279.881Z" transform="translate(-1524.842 -1278.911)" fill="#002942"/><path d="M1553.583,1301.834a.172.172,0,1,1-.172-.172A.172.172,0,0,1,1553.583,1301.834Z" transform="translate(-1544.632 -1299.17)" fill="#002942"/><path d="M1553.358,1359.68a.172.172,0,1,1-.172-.172A.172.172,0,0,1,1553.358,1359.68Z" transform="translate(-1544.424 -1352.552)" fill="#002942"/><path d="M1531.8,1381.237a.172.172,0,1,1-.172-.172A.172.172,0,0,1,1531.8,1381.237Z" transform="translate(-1524.529 -1372.446)" fill="#002942"/><path d="M1474.07,1381.35a.172.172,0,1,1-.172-.172A.172.172,0,0,1,1474.07,1381.35Z" transform="translate(-1471.254 -1372.55)" fill="#002942"/><path d="M1452.4,1359.793a.172.172,0,1,1-.172-.172A.172.172,0,0,1,1452.4,1359.793Z" transform="translate(-1451.253 -1352.656)" fill="#002942"/><circle cx="0.172" cy="0.172" r="0.172" transform="translate(0.809 2.492)" fill="#002942"/><path d="M1474.07,1280.165a.172.172,0,1,1-.172-.172A.172.172,0,0,1,1474.07,1280.165Z" transform="translate(-1471.254 -1279.173)" fill="#002942"/></g></g></g><g transform="translate(80.631 117.445)"><path d="M1089.567,1593.1l-1.05.359s-2.045-1.05-2.957-.884-2.846.663-3.177,1.271-.8,2.21,0,2.155,1.16-1.327,1.16-1.492,1.851.138,1.851.138a12.643,12.643,0,0,1,4.006,2.569s1.188-.387,1.326-.884Z" transform="translate(-1079.234 -1592.553)" fill="#fff"/><path d="M1069.519,1646.171a.58.58,0,0,1-.765.294h0a.58.58,0,0,1-.236-.785l.176-.36a.58.58,0,0,1,.765-.293h0a.58.58,0,0,1,.236.785Z" transform="translate(-1067.105 -1639.682)" fill="#fff"/><path d="M1079.2,1652.266a.644.644,0,0,1-.838.349h0a.644.644,0,0,1-.237-.876l.2-.408a.644.644,0,0,1,.838-.348h0a.645.645,0,0,1,.237.875Z" transform="translate(-1075.734 -1645.036)" fill="#fff"/><path d="M1090.182,1657.927a.663.663,0,0,1-.851.376h0a.662.662,0,0,1-.224-.9l.209-.426a.663.663,0,0,1,.851-.375h0a.663.663,0,0,1,.224.9Z" transform="translate(-1085.599 -1650.088)" fill="#fff"/><g transform="translate(0 0.515)"><path d="M1100.555,1665.558a.662.662,0,0,1-.851.376h0a.662.662,0,0,1-.224-.9l.208-.426a.663.663,0,0,1,.851-.375h0a.662.662,0,0,1,.224.9Z" transform="translate(-1094.926 -1657.465)" fill="#fff"/><path d="M1065.525,1602.3l-2.218-1.767-2.059-1.06-1.544-.184s-.734,1.861-1.674,1.53-.043-2.5-.043-2.5l-1.553-.658-1.326,3.26.857.737a10.463,10.463,0,0,0,.71.835.778.778,0,0,1,.557-.246.707.707,0,0,1,.314.073.737.737,0,0,1,.4.615.8.8,0,0,1,.355-.086.716.716,0,0,1,.32.074.766.766,0,0,1,.413.612.811.811,0,0,1,.411-.119.7.7,0,0,1,.311.072.525.525,0,0,0,.735.7.7.7,0,0,1,.312.072.843.843,0,0,1,.324,1.117c.161.1.66.381.913.243a.808.808,0,0,0,.331-.607.9.9,0,0,0,1.023,0c.442-.387.193-.663.193-.663s.636.276.912,0a.776.776,0,0,0,.194-.663s.387.276.829-.276A.9.9,0,0,0,1065.525,1602.3Z" transform="translate(-1055.109 -1597.661)" fill="#fff"/></g></g><g transform="translate(11.6 94.834)"><g transform="translate(0)"><g transform="translate(10.238 10.623)"><path d="M296.513,1398.384c-.01-.028-.017-.057-.029-.084a.6.6,0,0,0-.2-.245q-.656-.453-1.314-.9c-.178-.121-.36-.237-.543-.352a.889.889,0,0,0-.375-.133.27.27,0,0,0-.183.037c-.224.141-.451.277-.677.414l-.044.029,3.161,2.209c.006-.016.01-.027.012-.037.049-.2.1-.393.148-.589.019-.077.035-.154.054-.231C296.518,1398.461,296.516,1398.422,296.513,1398.384Z" transform="translate(-293.145 -1396.665)" fill="#ea4128"/></g><g transform="translate(6.562 1.95)"><path d="M245.7,1286.605c.025.305.056.61.088.915.01.1.028.2.045.3a.08.08,0,0,0,.089.075.466.466,0,0,0,.109-.012.913.913,0,0,0,.241-.1.9.9,0,0,0,.254-.194c.072-.087.139-.179.208-.269a.093.093,0,0,0,.019-.071q-.092-1.214-.182-2.428a.319.319,0,0,0-.084-.2.645.645,0,0,0-.08-.075,1.442,1.442,0,0,0-.552-.265c-.054-.013-.109-.019-.164-.029l-.144.009-.032.019c0,.012,0,.023,0,.034C245.574,1285.08,245.632,1285.842,245.7,1286.605Z" transform="translate(-245.511 -1284.255)" fill="#ea4128"/></g><path d="M213.451,1294.369a1.145,1.145,0,0,1-.459.078.846.846,0,0,1-.561-.246,1.937,1.937,0,0,1-.226-.273c-.254-.35-.486-.715-.716-1.082-.558-.893-1.1-1.8-1.626-2.709a.691.691,0,0,1-.043-.091,1.534,1.534,0,0,1-.11-.469,1.093,1.093,0,0,1,.1-.564,1.07,1.07,0,0,1,.374-.422c.048-.032.1-.061.147-.092,0-.017,0-.035,0-.052-.012-.135-.024-.271-.036-.406q-.054-.589-.108-1.179c-.023-.255-.045-.509-.069-.763q-.056-.618-.112-1.236c0-.017,0-.034-.006-.05l-.018,0-.038,0a4.121,4.121,0,0,0-.626.133,3.22,3.22,0,0,0-1.045.514,2.167,2.167,0,0,0-.874,1.666c0,.068-.01.136-.015.2q.012.206.025.411c0,.018.009.037.011.055.022.189.04.378.064.567.03.234.057.469.1.7.005.032.011.064.016.1.047.278.1.555.155.831.068.334.153.663.25.991.009.028.016.057.025.085l.022.071a9.8,9.8,0,0,0,.505,1.324,5.388,5.388,0,0,0,.52.9c.381.516.777,1.021,1.2,1.5a12.764,12.764,0,0,0,.95.979c.117.107.236.211.358.313a6.5,6.5,0,0,0,1.105.755,3.771,3.771,0,0,0,1.169.408,1.654,1.654,0,0,0,.409.023c.153-.014.306-.02.459-.029a.543.543,0,0,0,.122-.021,8.2,8.2,0,0,0,1.177-.466,5.443,5.443,0,0,0,.782-.461l.043-.032-3.075-2.127A1.59,1.59,0,0,1,213.451,1294.369Z" transform="translate(-203.757 -1282.819)" fill="#3a3ca5"/><path d="M168.7,1258.988a8.24,8.24,0,1,0,8.24,8.24A8.24,8.24,0,0,0,168.7,1258.988Zm0,15.751a7.511,7.511,0,1,1,7.511-7.511A7.511,7.511,0,0,1,168.7,1274.739Z" transform="translate(-160.464 -1258.988)" fill="#ea4128"/></g></g><g transform="translate(38.948 117.445)"><path d="M538.823,1570.478a.721.721,0,0,1,.074.636c-.049.109-.257.163-.461.118s-.421.15-.481.43a.47.47,0,0,0,.262.591c.2.044.37.393.381.512s-.141.271-.339.335a.47.47,0,0,0-.2.613c.087.274.322.444.521.381s.411-.031.472.073a.72.72,0,0,1-.011.64.549.549,0,0,0,.774.7.72.72,0,0,1,.636-.074c.11.049.163.256.119.461s.149.421.43.482a.47.47,0,0,0,.591-.261c.044-.2.393-.37.513-.382s.27.141.335.34a.47.47,0,0,0,.613.2c.273-.088.445-.322.381-.521s.159-.519.255-.589.3-.011.458.128a.548.548,0,0,0,.7-.774.722.722,0,0,1-.074-.637c.049-.109.257-.162.462-.118s.421-.149.481-.43a.47.47,0,0,0-.261-.59c-.2-.044-.37-.394-.382-.513s.141-.271.34-.335a.469.469,0,0,0,.2-.613c-.088-.274-.323-.444-.522-.381s-.519-.16-.589-.256-.012-.3.129-.457a.548.548,0,0,0-.774-.7.723.723,0,0,1-.636.073c-.109-.05-.162-.257-.119-.461s-.149-.421-.43-.482a.469.469,0,0,0-.59.261c-.044.2-.394.37-.513.381s-.27-.141-.334-.34a.469.469,0,0,0-.613-.2c-.274.088-.445.322-.381.521s-.159.519-.256.588-.3.012-.457-.128a.549.549,0,0,0-.7.774Zm2.311-.147a2.277,2.277,0,1,1-1.47,2.865A2.276,2.276,0,0,1,541.135,1570.332Z" transform="translate(-534.161 -1566.326)" fill="#3a3ca5"/><path d="M489.553,1540.271a.464.464,0,0,1,.048.409c-.031.071-.165.1-.3.076s-.27.1-.309.277a.3.3,0,0,0,.168.38c.131.028.237.253.245.33s-.091.174-.218.215a.3.3,0,0,0-.13.395c.056.176.207.286.335.245s.264-.02.3.047a.464.464,0,0,1-.007.411.353.353,0,0,0,.5.451.461.461,0,0,1,.409-.047c.07.031.1.165.076.3s.1.271.277.31a.3.3,0,0,0,.38-.168c.028-.131.253-.238.33-.245s.174.091.215.219a.3.3,0,0,0,.394.13c.176-.057.286-.208.245-.336s.1-.333.165-.378.194-.007.294.082a.353.353,0,0,0,.451-.5.464.464,0,0,1-.047-.409c.032-.07.165-.1.3-.076s.271-.1.31-.276a.3.3,0,0,0-.168-.38c-.131-.028-.238-.253-.246-.33s.091-.174.218-.215a.3.3,0,0,0,.13-.394c-.057-.176-.208-.286-.336-.245s-.334-.1-.378-.165-.008-.194.082-.294a.353.353,0,0,0-.5-.451.466.466,0,0,1-.409.048c-.071-.032-.105-.165-.076-.3s-.1-.271-.277-.309a.3.3,0,0,0-.379.168c-.029.131-.253.238-.33.246s-.174-.091-.215-.219a.3.3,0,0,0-.395-.13c-.176.056-.286.208-.245.335s-.1.333-.165.378-.194.008-.294-.082a.353.353,0,0,0-.451.5Zm1.487-.095a1.465,1.465,0,1,1-.946,1.844A1.465,1.465,0,0,1,491.04,1540.177Z" transform="translate(-488.984 -1539.067)" fill="#fff"/><path d="M489.7,1605.268a.356.356,0,0,1,.036.314c-.024.054-.127.08-.228.059s-.208.074-.238.212a.232.232,0,0,0,.129.292c.1.022.183.195.189.253s-.069.134-.168.166a.233.233,0,0,0-.1.3c.043.135.159.22.257.188s.2-.016.233.036a.353.353,0,0,1-.006.316.271.271,0,0,0,.383.346.358.358,0,0,1,.315-.037c.054.025.081.127.058.229s.074.208.213.238a.233.233,0,0,0,.292-.129c.021-.1.194-.183.253-.189s.133.07.165.168a.233.233,0,0,0,.3.1c.135-.043.22-.159.188-.258s.079-.256.126-.291.15-.005.226.064a.272.272,0,0,0,.346-.383.355.355,0,0,1-.036-.314c.024-.054.127-.081.228-.058s.208-.074.238-.213a.233.233,0,0,0-.129-.292c-.1-.022-.183-.194-.189-.254s.069-.134.168-.165a.232.232,0,0,0,.1-.3c-.044-.135-.16-.22-.258-.188s-.256-.079-.29-.127-.006-.149.064-.226a.271.271,0,0,0-.383-.346.357.357,0,0,1-.315.036c-.054-.024-.08-.127-.059-.228s-.074-.208-.213-.238a.233.233,0,0,0-.292.129c-.021.1-.194.183-.254.189s-.133-.069-.165-.168a.233.233,0,0,0-.3-.1c-.135.043-.22.16-.188.258s-.079.257-.127.291-.149.006-.226-.064a.272.272,0,0,0-.347.383Zm1.142-.073a1.126,1.126,0,1,1-.727,1.417A1.127,1.127,0,0,1,490.842,1605.2Z" transform="translate(-489.241 -1599.306)" fill="#06232e"/></g><g transform="translate(118.793 64.53)"><g transform="translate(10.662 4.967)"><path d="M1662.612,959.253a1.36,1.36,0,1,0,0-2.72h-.655v2.72Z" transform="translate(-1661.957 -956.533)" fill="#0e3239"/></g><path d="M1663.167,904.429a.391.391,0,0,1-.391.391h0a.391.391,0,0,1-.391-.391V892.557a.391.391,0,0,1,.391-.391h0a.391.391,0,0,1,.391.391Z" transform="translate(-1651.69 -892.166)" fill="#d03032"/><path d="M1526.214,942.512a2.442,2.442,0,1,0,0,4.884h.016Z" transform="translate(-1523.772 -938.627)" fill="#d03032"/><path d="M1555.749,998.163s1.015,4.376,1.687,4.477.941-.336.739-.907a23.606,23.606,0,0,1-.47-4.131c.067-.37-2.069.557-2.069.557" transform="translate(-1553.177 -989.386)" fill="#0e3239"/><g transform="translate(2.572 0.035)"><path d="M1558.042,896.469h-.942v4.894h.942a7.207,7.207,0,0,1,7.351,3.845V892.624A7.207,7.207,0,0,1,1558.042,896.469Z" transform="translate(-1557.1 -892.624)" fill="#fffef1"/></g><path d="M1562.858,919.192s4.937.84,7.423-2.821c0,0-.772,3.325-7.356,3.426Z" transform="translate(-1559.842 -914.503)" fill="#c1bfbb"/></g><g transform="translate(8.259 32.006)"><g transform="translate(0 0)"><g transform="translate(0 0.781)"><path d="M220.719,476.475a.825.825,0,0,1-.815.834H208.678a.824.824,0,0,1-.815-.834v-7.827a.824.824,0,0,1,.815-.834H219.9a.825.825,0,0,1,.815.834Z" transform="translate(-207.863 -467.814)" fill="#26394c"/><rect width="11.679" height="7.874" transform="translate(0.589 0.811)" fill="#f7faf4"/><g transform="translate(4.172 0.962)"><rect width="1.313" height="1.313" fill="#ee5747"/><g transform="translate(1.622)"><rect width="1.313" height="1.313" fill="#ee5747"/></g><g transform="translate(3.244)"><rect width="1.313" height="1.313" fill="#ee5747"/></g><g transform="translate(6.488)"><rect width="1.313" height="1.313" fill="#ee5747"/></g><g transform="translate(4.866)"><rect width="1.313" height="1.313" fill="#ee5747"/></g></g><g transform="translate(0.928 2.524)"><rect width="1.313" height="1.313" fill="#ee5747"/><g transform="translate(3.244)"><rect width="1.313" height="1.313" fill="#ee5747"/></g><g transform="translate(1.622)"><rect width="1.313" height="1.313" fill="#ee5747"/></g><g transform="translate(4.866)"><rect width="1.313" height="1.313" fill="#ee5747"/></g><g transform="translate(6.488)"><rect width="1.313" height="1.313" fill="#ee5747"/></g><g transform="translate(9.732)"><rect width="1.313" height="1.313" fill="#ee5747"/></g><g transform="translate(8.11)"><rect width="1.313" height="1.313" fill="#ee5747"/></g></g><g transform="translate(0.928 4.085)"><rect width="1.313" height="1.313" fill="#ee5747"/><rect width="1.313" height="1.313" transform="translate(3.244)" fill="#71cdf6"/><rect width="1.313" height="1.313" transform="translate(1.622)" fill="#ee5747"/><rect width="1.313" height="1.313" transform="translate(4.866)" fill="#ee5747"/><rect width="1.313" height="1.313" transform="translate(6.488)" fill="#ee5747"/><rect width="1.313" height="1.313" transform="translate(9.732)" fill="#ee5747"/><rect width="1.313" height="1.313" transform="translate(8.11)" fill="#ee5747"/></g><g transform="translate(0.928 5.647)"><rect width="1.313" height="1.313" fill="#ee5747"/><g transform="translate(3.244)"><rect width="1.313" height="1.313" fill="#ee5747"/></g><g transform="translate(1.622)"><rect width="1.313" height="1.313" fill="#ee5747"/></g><g transform="translate(4.866)"><rect width="1.313" height="1.313" fill="#ee5747"/></g><g transform="translate(6.488)"><rect width="1.313" height="1.313" fill="#ee5747"/></g><g transform="translate(9.732)"><rect width="1.313" height="1.313" fill="#ee5747"/></g><g transform="translate(8.11)"><rect width="1.313" height="1.313" fill="#ee5747"/></g></g><g transform="translate(0.928 7.209)"><rect width="1.313" height="1.313" fill="#ee5747"/><g transform="translate(3.244)"><rect width="1.313" height="1.313" fill="#ee5747"/></g><g transform="translate(1.622)"><rect width="1.313" height="1.313" fill="#ee5747"/></g></g></g><g transform="translate(2.607)"><path d="M242.416,458.8a.35.35,0,0,1-.385.3h0a.35.35,0,0,1-.385-.3v-.807a.35.35,0,0,1,.385-.3h0a.35.35,0,0,1,.385.3Z" transform="translate(-241.646 -457.694)" fill="#71cdf6"/><path d="M272.107,458.8a.35.35,0,0,1-.385.3h0a.35.35,0,0,1-.385-.3v-.807a.35.35,0,0,1,.385-.3h0a.35.35,0,0,1,.385.3Z" transform="translate(-269.047 -457.694)" fill="#71cdf6"/><path d="M301.8,458.8a.35.35,0,0,1-.385.3h0a.35.35,0,0,1-.385-.3v-.807a.35.35,0,0,1,.385-.3h0a.35.35,0,0,1,.385.3Z" transform="translate(-296.447 -457.694)" fill="#71cdf6"/><path d="M331.49,458.8a.35.35,0,0,1-.385.3h0a.35.35,0,0,1-.385-.3v-.807a.35.35,0,0,1,.385-.3h0a.35.35,0,0,1,.385.3Z" transform="translate(-323.848 -457.694)" fill="#71cdf6"/></g></g></g><g transform="translate(2.607 66.466)"><path d="M193.191,934.05a1.744,1.744,0,0,0-2.128-2.165l.985.993-.265.968-.971.255-.984-.994a1.747,1.747,0,0,0,2.22,2.128l0,.005,4.051,4.089a.825.825,0,1,0,1.172-1.161Zm3.568,5.144a.315.315,0,1,1,.317-.314A.315.315,0,0,1,196.759,939.194Z" transform="translate(-186.509 -928.702)" fill="#1f2f3e"/><path d="M157.721,897.281l.039-1.42-1.4-.038a3.676,3.676,0,0,0-.532-1.4l1.012-.96-.979-1.032-1.011.958a3.7,3.7,0,0,0-1.373-.609l.038-1.4-1.421-.039-.038,1.4a3.728,3.728,0,0,0-1.4.534l-.96-1.011-1.031.976.955,1.014a3.75,3.75,0,0,0-.608,1.374l-1.4-.038-.039,1.421,1.395.038a3.812,3.812,0,0,0,.532,1.4l-1.009.958.976,1.031,1.013-.958a3.747,3.747,0,0,0,1.372.61l-.038,1.395,1.42.039.038-1.4a3.789,3.789,0,0,0,1.138-.381l-.693-.671a2.845,2.845,0,1,1,1.664-1.8l.677.741a3.819,3.819,0,0,0,.26-.773Z" transform="translate(-147.578 -891.342)" fill="#fff"/></g></g></g></g></svg>