<?xml version="1.0" encoding="UTF-8"?>
<svg width="261px" height="254px" viewBox="0 0 261 254" version="1.1" xmlns="http://www.w3.org/2000/svg" xmlns:xlink="http://www.w3.org/1999/xlink">
    <!-- Generator: Sketch 62 (91390) - https://sketch.com -->
    <title>Group 5</title>
    <desc>Created with Sketch.</desc>
    <g id="Page-1" stroke="none" stroke-width="1" fill="none" fill-rule="evenodd">
        <g id="Group-5" transform="translate(1.000000, 0.000000)">
            <g id="Group-2" transform="translate(18.000000, 0.000000)" fill="#FF6251" fill-opacity="0.1">
                <rect id="Rectangle" x="21" y="40" width="150" height="150" rx="8"></rect>
                <rect id="Rectangle" x="0" y="27" width="62" height="62" rx="8"></rect>
                <rect id="Rectangle" x="171" y="0" width="27" height="27" rx="2"></rect>
            </g>
            <g id="undraw_reviewed_docs_neeb" transform="translate(0.000000, 89.000000)" fill-rule="nonzero">
                <rect id="Rectangle" fill="#3F3D56" x="197" y="159" width="63" height="1"></rect>
                <polygon id="Path" fill="#FFC999" points="236 69 236 73.2858623 238.916541 78 241 69.4285862"></polygon>
                <path d="M234.797864,31.6555112 L237.228325,31 C237.228325,31 241.020367,31.6555112 241.020367,35.8538368 C241.020367,40.0521624 241.909293,56.8454007 241.909293,56.8454007 L241.020367,66.5015225 C241.020367,66.5015225 242.353757,66.9213541 241.909293,68.180846 C241.464828,69.4403379 240.575918,72.3791442 240.131428,71.9593156 C239.686937,71.539487 239.686963,70.6998237 239.686963,70.6998237 C239.686963,70.6998237 232.575534,71.9593156 233.019999,70.6998237 C233.464464,69.4403318 233.464464,66.5015103 233.908928,66.5015103 C234.353393,66.5015103 233.464464,53.9065701 233.464464,53.9065701 L234.797864,31.6555112 Z" id="Path" fill="#FF5859"></path>
                <polygon id="Path" fill="#FFC999" points="197 67.2632302 202.352985 74.0001527 208.941343 82 211 72.3158457 207.319263 71.7249948 203.588358 66"></polygon>
                <path d="M210.559837,65 C210.559837,65 204.231237,68.3951214 208.450305,91.3122024 L209.716023,114.229274 L210.559837,152 L218.997972,152 L220.685597,114.653662 L225.74847,90.8878118 L233.764698,112.107321 L230.811352,149.87805 L242.20283,151.575609 L246,109.136597 L239.249493,77.7317199 L234.18662,68.8195243 L233.131853,66.4853947 L210.559837,65 Z" id="Path" fill="#2F2E41"></path>
                <path d="M211.55711,151 L210.233384,154.883826 C210.233384,154.883826 208.468418,161.788413 214.645802,160.92534 C220.823186,160.062266 218.616978,156.17843 218.616978,156.17843 L218.175736,151 L211.55711,151 Z" id="Path" fill="#2F2E41"></path>
                <path d="M231.292808,149.860247 C231.292808,149.860247 230,154.161482 230,156.312091 C230,158.462701 230.861876,159.398494 230.861876,159.398494 C230.861876,159.398494 255.425334,161.043449 254.994395,158.892831 C254.563457,156.742212 251.977831,155.881967 251.977831,155.881967 L245.944702,154.591606 L241.63532,151.150619 L233.016561,149 L231.292808,149.860247 Z" id="Path" fill="#2F2E41"></path>
                <circle id="Oval" fill="#FFC999" cx="222" cy="12" r="8"></circle>
                <polygon id="Path" fill="#FFC999" points="227.731005 16 229 27.6097708 226.038603 33 218.846201 25.1221346 218 18.4879369"></polygon>
                <path d="M225.615403,28.3212574 L218.979854,23 L217.576932,24.9080257 L207,29.1745584 L207.423077,47.9473004 C207.423077,47.9473004 207.846155,63.7334704 210.384615,65.4400816 L209.326925,66.9333691 L234.5,68 L234.5,56.4803719 L240,31.7344829 L230.269232,26.1879926 L229.058222,24.4606292 L225.615403,28.3212574 Z" id="Path" fill="#FF5859"></path>
                <path d="M208.565385,30.2681685 L207.932352,29 L206.392343,29.4275914 C206.392343,29.4275914 203.350088,30.688457 201.177055,36.1522018 C199.004023,41.6159466 192.919502,53.8043048 192.919502,53.8043048 C192.919502,53.8043048 191.181068,55.9057475 192.484894,58.0071871 C193.788719,60.1086267 195.092541,64.7317975 195.092541,64.7317975 C195.092541,64.7317975 193.788719,64.3115089 194.657936,65.992663 C195.527152,67.6738172 195.527149,69.3549682 198.1348,68.9346797 C200.74245,68.5143912 205.957744,67.2535286 205.523136,65.992663 C205.088528,64.7317975 204.653919,62.6303579 203.784702,62.6303579 C202.915486,62.6303579 201.611664,56.326036 201.611664,56.326036 L202.480877,52.9637278 L209,45.3985434 L208.565385,30.2681685 Z" id="Path" fill="#FF5859"></path>
                <path d="M222.321519,6.23350717 C222.321519,6.23350717 221.041771,6.23350717 221.041771,5.82161398 C221.041771,5.82161398 216.579786,5.69012311 214.758247,7.60937599 C212.936708,9.52862886 213.36329,6.64539141 213.36329,6.64539141 C213.36329,6.64539141 208.670888,4.58592841 212.510128,2.52646242 L212.936708,2.93835562 C212.936708,2.93835562 213.789873,1.70267602 216.775948,1.29078581 L216.349366,0.878892612 C216.349366,0.878892612 216.349366,0.466999413 218.482279,0.466999413 C220.615192,0.466999413 226.16076,-1.59246658 226.587342,2.93835562 C226.587342,2.93835562 230,1.70267602 230,5.82160502 C230,9.94053401 229.573417,12 229.573417,12 C229.573417,12 228.720252,9.94053401 227.013925,11.1762136 C225.307597,12.4118932 222.321519,6.23350717 222.321519,6.23350717 Z" id="Path" fill="#2F2E41"></path>
                <ellipse id="Oval" stroke="#000000" fill="#FFFFFF" cx="33" cy="142.5" rx="33" ry="3.5"></ellipse>
                <rect id="Rectangle" stroke="#000000" fill="#FFFFFF" x="13" y="93" width="40" height="49"></rect>
                <rect id="Rectangle" fill="#000000" x="19" y="110" width="28" height="1"></rect>
                <rect id="Rectangle" fill="#000000" x="19" y="115" width="28" height="1"></rect>
                <rect id="Rectangle" fill="#000000" x="19" y="120" width="28" height="1"></rect>
                <rect id="Rectangle" fill="#000000" x="19" y="124" width="28" height="1"></rect>
                <path d="M41,72.00777 C40.9962145,75.9904173 38.0631364,79.3636301 34.1195371,79.9207079 C30.1759379,80.4777857 26.4232215,78.0490166 25.3163535,74.2232616 C24.2094854,70.3975065 26.0856693,66.3402687 29.7175365,64.7057265 C33.3494036,63.0711844 37.630518,64.3572955 39.7602449,67.7227072 C40.57037,69.0051053 41.0002481,70.4909269 41,72.00777 Z" id="Path" stroke="#000000" fill="#FFFFFF"></path>
                <path d="M39,68.1827655 L31.2151599,76 C30.7258809,75.2392155 28,71.7036254 28,71.7036254 C28.3493394,71.3490198 28.7221272,71.0185168 29.115818,70.7143728 L31.3762068,73.7413333 L38.0883516,67 C38.4287504,67.3644488 38.7339975,67.7604741 39,68.1827655 L39,68.1827655 Z" id="Path" fill="#FF5859"></path>
                <ellipse id="Oval" stroke="#000000" fill="#FFFFFF" cx="139" cy="140.5" rx="33" ry="3.5"></ellipse>
                <rect id="Rectangle" stroke="#000000" fill="#FFFFFF" x="119" y="91" width="40" height="49"></rect>
                <rect id="Rectangle" fill="#000000" x="125" y="119" width="28" height="1"></rect>
                <rect id="Rectangle" fill="#000000" x="125" y="123" width="28" height="1"></rect>
                <rect id="Rectangle" fill="#000000" x="125" y="128" width="28" height="1"></rect>
                <rect id="Rectangle" fill="#000000" x="125" y="132" width="28" height="1"></rect>
                <path d="M133,109 L124.438205,109 C123.853932,105.360359 123.853932,101.639641 124.438205,98 L133,98 C132.035448,101.593012 132.035448,105.406988 133,109 L133,109 Z" id="Path" fill="#FF5859"></path>
                <rect id="Rectangle" fill="#000000" x="137" y="99" width="17" height="1"></rect>
                <rect id="Rectangle" fill="#000000" x="137" y="103" width="17" height="1"></rect>
                <rect id="Rectangle" fill="#000000" x="137" y="107" width="17" height="1"></rect>
                <rect id="Rectangle" fill="#000000" x="137" y="111" width="17" height="1"></rect>
                <path d="M147,71.0077608 C146.996219,74.9904099 144.063142,78.363627 140.119542,78.9207073 C136.175941,79.4777876 132.423222,77.0490183 131.316353,73.2232616 C130.209485,69.3975048 132.085671,65.3402655 135.717541,63.7057246 C139.34941,62.0711838 143.630526,63.3572994 145.76025,66.722715 C146.570372,68.0051079 147.000248,69.4909237 147,71.0077608 L147,71.0077608 Z" id="Path" stroke="#000000" fill="#FFFFFF"></path>
                <path d="M146,66.1827659 L138.215163,74 C137.725881,73.2392184 135,69.7036271 135,69.7036271 C135.34934,69.3490209 135.722128,69.0185168 136.115818,68.714371 L138.376207,71.7413325 L145.088364,65 C145.428759,65.3644494 145.734002,65.7604748 146,66.1827659 Z" id="Path" fill="#FF5859"></path>
                <ellipse id="Oval" fill="#3F3D56" cx="86.5" cy="161" rx="38.5" ry="4"></ellipse>
                <rect id="Rectangle" fill="#FF5859" x="63" y="104" width="47" height="58"></rect>
                <rect id="Rectangle" fill="#FFFFFF" x="70" y="116" width="33" height="2"></rect>
                <rect id="Rectangle" fill="#FFFFFF" x="70" y="121" width="33" height="2"></rect>
                <rect id="Rectangle" fill="#FFFFFF" x="70" y="127" width="33" height="2"></rect>
                <rect id="Rectangle" fill="#FFFFFF" x="70" y="132" width="33" height="2"></rect>
                <rect id="Rectangle" fill="#FFFFFF" x="70" y="137" width="33" height="2"></rect>
                <rect id="Rectangle" fill="#FFFFFF" x="78" y="143" width="17" height="6"></rect>
                <path d="M98,79.5111633 C97.9945614,85.2362203 93.7782622,90.0852167 88.1093369,90.8860173 C82.4404117,91.686818 77.0458801,88.1954616 75.4547577,82.6959371 C73.8636352,77.1964126 76.5606521,71.3641323 81.7814635,69.0144797 C87.0022749,66.6648272 93.1563775,68.5136164 96.2178569,73.3513993 C97.3824089,75.1948424 98.000357,77.3307063 98,79.5111633 L98,79.5111633 Z" id="Path" fill="#FF5859"></path>
                <path d="M96,72.7084199 L84.6765991,84 C83.9649179,82.901093 80,77.7941177 80,77.7941177 C80.5081303,77.2819091 81.0503673,76.8045154 81.6230089,76.3651959 L84.9108453,80.7374747 L94.6739698,71 C95.1690936,71.5264196 95.6130882,72.0984497 96,72.7084199 L96,72.7084199 Z" id="Path" fill="#FFFFFF"></path>
            </g>
        </g>
    </g>
</svg>