<?xml version="1.0" encoding="UTF-8"?>
<svg width="237px" height="251px" viewBox="0 0 237 251" version="1.1" xmlns="http://www.w3.org/2000/svg" xmlns:xlink="http://www.w3.org/1999/xlink">
    <!-- Generator: Sketch 62 (91390) - https://sketch.com -->
    <title>Group 6</title>
    <desc>Created with Sketch.</desc>
    <g id="Page-1" stroke="none" stroke-width="1" fill="none" fill-rule="evenodd">
        <g id="Group-6">
            <g id="Group-2" transform="translate(46.000000, 0.000000)" fill="#FF6251" fill-opacity="0.1">
                <rect id="Rectangle" x="27" y="40" width="150" height="150" rx="8"></rect>
                <rect id="Rectangle" x="129" y="159" width="62" height="62" rx="8"></rect>
                <rect id="Rectangle" x="0" y="0" width="27" height="27" rx="2"></rect>
            </g>
            <g id="undraw_process_e90d" transform="translate(0.000000, 79.000000)">
                <circle id="Oval" fill="#F1F1F1" fill-rule="nonzero" cx="163" cy="11" r="3"></circle>
                <circle id="Oval" fill="#F1F1F1" fill-rule="nonzero" cx="145" cy="135" r="3"></circle>
                <circle id="Oval" fill="#F1F1F1" fill-rule="nonzero" cx="65" cy="42" r="3"></circle>
                <ellipse id="Oval" fill-opacity="0.1" fill="#FF5859" fill-rule="nonzero" cx="34" cy="167" rx="34" ry="5"></ellipse>
                <path d="M52.2633017,131 L61,128.295029 C60.5164585,124.704054 59.4126553,121.221791 57.7366961,118 L49,120.70496 C51.0501777,123.76297 52.1816465,127.332519 52.2633017,131 Z" id="Path" fill="#FF5859" fill-rule="nonzero"></path>
                <circle id="Oval" fill="#2F2E41" fill-rule="nonzero" cx="32" cy="58" r="8"></circle>
                <polygon id="Path" fill="#9F616A" fill-rule="nonzero" points="23.4583333 158.941176 22 166 25.5416667 166 27 158"></polygon>
                <polygon id="Path" fill="#9F616A" fill-rule="nonzero" points="41 159 41 164.6 45 165 45 159"></polygon>
                <path d="M22,90.2144389 C22,90.2144389 22.4242424,99.4620381 22.8484848,100.107219 C23.2727273,100.752401 27.0909091,110 27.0909091,110 L29,103.978307 C29,103.978307 26.030303,99.0319172 26.4545455,96.2361314 C26.8787879,93.4403456 26.6115152,90 26.6115152,90 L22,90.2144389 Z" id="Path" fill="#9F616A" fill-rule="nonzero"></path>
                <circle id="Oval" fill="#9F616A" fill-rule="nonzero" cx="34" cy="61" r="6"></circle>
                <path d="M29.4835875,61 C29.4835875,61 29.7046584,69.9881902 28.1571617,71.3364188 C26.609665,72.6846473 37,71.5611235 37,71.5611235 C37,71.5611235 34.7892904,65.2693904 36.5578581,63.9211618 C38.3264257,62.5729333 29.4835875,61 29.4835875,61 Z" id="Path" fill="#9F616A" fill-rule="nonzero"></path>
                <path d="M37.9357084,70.2021964 C37.9357084,70.2021964 36.6262813,67.7952503 34.8803785,68.0140636 C33.1344757,68.2328769 27.4602916,68.6705035 27.2420538,69.10813 C27.0238159,69.5457566 26.3691024,71.0774495 25.9326267,71.5150761 C25.496151,71.9527027 22.2225832,72.6091425 22.0043454,75.2349019 C21.7861075,77.8606613 29.860908,93.8340308 29.860908,93.8340308 C29.860908,93.8340308 28.7697187,97.5538566 28.9879566,98.4291097 C29.2061944,99.3043628 27.8967673,101.930122 28.1150052,103.024189 C28.333243,104.118255 24.8414374,110.682653 26.5873402,119.216371 L26.5873402,133.001608 C26.5873402,133.001608 20.6949183,156.852256 22.4408211,158.602762 C24.1867239,160.353268 30.0791458,159.259202 31.1703351,158.602762 C32.2615243,157.946322 36.8445192,124.905517 36.8445192,124.905517 L39.0268977,113.746039 L39.2451355,138.253127 C39.2451355,138.253127 38.8086598,158.821575 40.3363248,159.478015 C41.8639897,160.134455 47.7564117,160.353268 48.1928874,159.040389 C48.5333035,158.01645 50.2011994,130.772187 50.9188571,118.829853 C51.1674771,114.707698 50.8441007,110.570894 49.9579886,106.53791 C49.0496652,102.407223 47.730987,97.5541848 46.2287467,95.584537 C43.3916547,91.8647113 41.6457519,80.0487941 41.6457519,80.0487941 L45.3557953,73.2655824 C45.3557953,73.2655824 43.1734168,71.0774495 41.8639897,71.0774495 C40.5545626,71.0774495 37.9357084,70.2021964 37.9357084,70.2021964 Z" id="Path" fill="#2F2E41" fill-rule="nonzero"></path>
                <path d="M23.3432911,75 L22.3550123,75.7737385 C22.3550123,75.7737385 21.656671,89.6583426 22.2188777,90.5205981 C22.7810844,91.3828535 26.6897851,90.9620212 26.9842615,90.2024 C27.2787378,89.4427788 23.3432911,75 23.3432911,75 Z" id="Path" fill="#2F2E41" fill-rule="nonzero"></path>
                <path d="M41,86.8572669 C41,86.8572669 41.2149653,96.102329 42.5047569,98.7437753 C43.7945484,101.385222 48.5237843,112.391248 48.5237843,112.391248 C48.5237843,112.391248 48.2492736,124.504811 50.6436599,121.529717 C53.0380462,118.554623 51.533298,111.510766 51.533298,111.510766 L47.4489579,95.2218469 C47.4489579,95.2218469 45.2993053,87.9578696 45.5142706,85.7566643 C45.7292358,83.5554591 41,86.8572669 41,86.8572669 Z" id="Path" fill="#9F616A" fill-rule="nonzero"></path>
                <path d="M44.7097848,161.021659 C44.7097848,161.021659 44.9433669,160.842405 45.6441132,161.515272 C46.3448595,162.188139 48.2135164,163.085295 47.9799343,165.552473 C47.7463522,168.019652 46.3448595,168.46823 46.3448595,168.46823 L46.3448595,167.795363 L45.6441132,167.795363 L45.6441132,168.916808 C45.6441132,168.916808 44.4762027,172.505432 39.1038143,170.262542 C39.1038143,170.262542 38.8702322,168.46823 39.1038143,167.346785 C39.3373964,166.22534 39.3373964,160.842405 40.0381427,161.066694 C40.738889,161.290983 42.6075458,161.515272 43.0747101,162.412428 C43.5418743,163.309584 44.9433669,162.995227 44.7097848,161.021659 Z" id="Path" fill="#2F2E41" fill-rule="nonzero"></path>
                <path d="M21.2902152,161.021659 C21.2902152,161.021659 21.0566331,160.842405 20.3558868,161.515272 C19.6551405,162.188139 17.7864836,163.085295 18.0200657,165.552473 C18.2536478,168.019652 19.6551405,168.46823 19.6551405,168.46823 L19.6551405,167.795363 L20.3558868,167.795363 L20.3558868,168.916808 C20.3558868,168.916808 21.5237973,172.505432 26.8961857,170.262542 C26.8961857,170.262542 27.1297678,168.46823 26.8961857,167.346785 C26.6626036,166.22534 26.6626036,160.842405 25.9618573,161.066694 C25.261111,161.290983 23.3924542,161.515272 22.9252899,162.412428 C22.4581257,163.309584 21.0566331,162.995227 21.2902152,161.021659 Z" id="Path" fill="#2F2E41" fill-rule="nonzero"></path>
                <path d="M42.10182,73 L45.191383,73.6446562 C45.191383,73.6446562 45.191383,78.3721352 46.0741152,80.3061038 C46.9568475,82.2400725 48.501629,86.752666 47.8395798,86.9675514 C47.1775306,87.1824369 40.9984047,90.1908325 40.5570386,88.4717493 C40.1156724,86.752666 39.0122571,73 42.10182,73 Z" id="Path" fill="#2F2E41" fill-rule="nonzero"></path>
                <circle id="Oval" fill="#2F2E41" fill-rule="nonzero" cx="23" cy="48" r="8"></circle>
                <path d="M16.598306,54.2753108 C18.7074343,55.7520255 21.4244421,56.1472339 23.8882549,55.3356865 C26.3520677,54.5241392 28.2572458,52.6064439 29,50.1903569 C28.6223733,53.0997495 26.5881881,55.5563297 23.7383148,56.5446217 C20.8884416,57.5329137 17.707031,56.8850215 15.5091818,54.8687641 C13.3113326,52.8525067 12.4704262,49.810416 13.334068,47 C12.967637,49.8207872 14.2192972,52.6104788 16.598306,54.2753108 L16.598306,54.2753108 Z" id="Path" fill="#2F2E41" fill-rule="nonzero"></path>
                <circle id="Oval" fill="#2F2E41" fill-rule="nonzero" cx="29" cy="60" r="6"></circle>
                <ellipse id="Oval" fill="#2F2E41" fill-rule="nonzero" cx="35" cy="58" rx="5" ry="4"></ellipse>
                <ellipse id="Oval" fill="#A0616A" fill-rule="nonzero" cx="36" cy="61" rx="1" ry="2"></ellipse>
                <polygon id="Rectangle" stroke="#000000" fill="#FFFFFF" fill-rule="nonzero" transform="translate(131.018548, 66.331424) rotate(16.714336) translate(-131.018548, -66.331424) " points="72.7383804 19.5119595 189.299361 19.5111567 189.298716 113.150889 72.7377355 113.151692"></polygon>
                <line x1="134" y1="31" x2="160" y2="42" id="Path" stroke="#3F3D56" stroke-width="2"></line>
                <polygon id="Path" fill="#3F3D56" fill-rule="nonzero" points="133.852978 33 134.156907 32.8324431 133.456229 31.0656775 135 30.3697329 134.880037 30 133 30.8480712"></polygon>
                <polygon id="Path" fill="#3F3D56" fill-rule="nonzero" points="158.119973 43 158 42.6302671 159.543733 41.9345203 158.843164 40.1675569 159.147118 40 160 42.1523244"></polygon>
                <circle id="Oval" fill="#3F3D56" fill-rule="nonzero" cx="147.5" cy="36.5" r="2.5"></circle>
                <line x1="132" y1="105" x2="156" y2="90" id="Path" stroke="#3F3D56" stroke-width="2"></line>
                <polygon id="Path" fill="#3F3D56" fill-rule="nonzero" points="133.933766 106 134 105.578944 132.412195 105.154452 132.85233 103.116376 132.535623 103 132 105.482322"></polygon>
                <polygon id="Path" fill="#3F3D56" fill-rule="nonzero" points="155.464136 93 155.147482 92.8836161 155.587708 90.8458235 154 90.4208718 154.066387 90 156 90.51793"></polygon>
                <circle id="Oval" fill="#3F3D56" fill-rule="nonzero" cx="143.5" cy="97.5" r="2.5"></circle>
                <line x1="100.995684" y1="57" x2="101.004316" y2="86" id="Path" stroke="#3F3D56" stroke-width="2"></line>
                <polygon id="Path" fill="#3F3D56" fill-rule="nonzero" points="99 59.7315753 99.3582564 60 100.999389 58.5779789 102.641988 59.9992128 103 59.7305914 100.999144 58"></polygon>
                <polygon id="Path" fill="#3F3D56" fill-rule="nonzero" points="99 85.2694352 99.3582345 85.0007872 101.000245 86.422161 102.641765 85 103 85.2684511 101.000489 87"></polygon>
                <circle id="Oval" fill="#3F3D56" fill-rule="nonzero" cx="101.5" cy="72.5" r="2.5"></circle>
                <rect id="Rectangle" fill="#3F3D56" fill-rule="nonzero" x="81" y="0" width="40" height="49"></rect>
                <path d="M98,19 L89.4382048,19 C88.8539317,15.3603592 88.8539317,11.6396408 89.4382048,8 L98,8 C97.0354468,11.5930121 97.0354468,15.4069879 98,19 L98,19 Z" id="Path" fill="#FF6584" fill-rule="nonzero"></path>
                <path d="M103,24 L111.561795,24 C112.146068,20.3603592 112.146068,16.6396408 111.561795,13 L103,13 C103.964553,16.5930121 103.964553,20.4069879 103,24 Z" id="Path" fill="#FF5859" fill-rule="nonzero"></path>
                <path d="M94,42 L102.561795,42 C103.146068,38.3603592 103.146068,34.6396408 102.561795,31 L94,31 C94.9645532,34.5930121 94.9645532,38.4069879 94,42 L94,42 Z" id="Path" fill="#FF5859" fill-rule="nonzero"></path>
                <rect id="Rectangle" fill="#3F3D56" fill-rule="nonzero" x="163" y="47" width="40" height="49"></rect>
                <rect id="Rectangle" fill="#FF5859" fill-rule="nonzero" x="169" y="57" width="28" height="2"></rect>
                <rect id="Rectangle" fill="#FF5859" fill-rule="nonzero" x="169" y="61" width="28" height="2"></rect>
                <rect id="Rectangle" fill="#FF5859" fill-rule="nonzero" x="169" y="66" width="28" height="2"></rect>
                <rect id="Rectangle" fill="#FF5859" fill-rule="nonzero" x="169" y="71" width="28" height="2"></rect>
                <rect id="Rectangle" fill="#FF5859" fill-rule="nonzero" x="169" y="75" width="28" height="2"></rect>
                <rect id="Rectangle" fill="#FF5859" fill-rule="nonzero" x="176" y="80" width="15" height="5"></rect>
                <rect id="Rectangle" fill="#3F3D56" fill-rule="nonzero" x="84" y="98" width="40" height="49"></rect>
                <rect id="Rectangle" fill="#FF5859" fill-rule="nonzero" x="90" y="124" width="28" height="2"></rect>
                <rect id="Rectangle" fill="#FF5859" fill-rule="nonzero" x="90" y="129" width="28" height="2"></rect>
                <rect id="Rectangle" fill="#FF5859" fill-rule="nonzero" x="90" y="134" width="28" height="2"></rect>
                <rect id="Rectangle" fill="#FF5859" fill-rule="nonzero" x="90" y="138" width="28" height="2"></rect>
                <path d="M99,115 L90.4382048,115 C89.8539317,111.360359 89.8539317,107.639641 90.4382048,104 L99,104 C98.0354469,107.593012 98.0354469,111.406988 99,115 L99,115 Z" id="Path" fill="#FF5859" fill-rule="nonzero" opacity="0.3"></path>
                <rect id="Rectangle" fill="#FF5859" fill-rule="nonzero" opacity="0.3" x="103" y="106" width="16" height="1"></rect>
                <rect id="Rectangle" fill="#FF5859" fill-rule="nonzero" opacity="0.3" x="103" y="110" width="16" height="1"></rect>
                <rect id="Rectangle" fill="#FF5859" fill-rule="nonzero" opacity="0.3" x="103" y="114" width="16" height="1"></rect>
                <rect id="Rectangle" fill="#FF5859" fill-rule="nonzero" opacity="0.3" x="103" y="117" width="16" height="1"></rect>
            </g>
        </g>
    </g>
</svg>