<svg xmlns="http://www.w3.org/2000/svg" xmlns:xlink="http://www.w3.org/1999/xlink" width="289" height="289.5" viewBox="0 0 289 289.5">
  <defs>
    <filter id="Ellipse_78" x="0" y="0" width="289" height="289.5" filterUnits="userSpaceOnUse">
      <feOffset dy="-5" input="SourceAlpha"/>
      <feGaussianBlur stdDeviation="1.5" result="blur"/>
      <feFlood flood-color="#4649c8" flood-opacity="0.961"/>
      <feComposite operator="in" in2="blur"/>
      <feComposite in="SourceGraphic"/>
    </filter>
  </defs>
  <g id="Group_802" data-name="Group 802" transform="translate(-84.5 -869.5)">
    <g transform="matrix(1, 0, 0, 1, 84.5, 869.5)" filter="url(#Ellipse_78)">
      <circle id="Ellipse_78-2" data-name="Ellipse 78" cx="140" cy="140" r="140" transform="translate(4.5 9.5)" fill="#fff"/>
    </g>
    <g id="Third_Service" data-name="Third Service" transform="translate(-7.531 897.252)">
      <g id="Group_664" data-name="Group 664" transform="translate(184.913 81.598)">
        <g id="Group_663" data-name="Group 663" transform="translate(0 0)">
          <g id="Group_656" data-name="Group 656" transform="translate(0 43.072)">
            <g id="Group_655" data-name="Group 655" transform="translate(0 42.309)">
              <path id="Path_1812" data-name="Path 1812" d="M331.915,661.789a9.111,9.111,0,0,1-1.652-.226,28.52,28.52,0,0,1,.661-5.778c.863.958,1.591.4,1.561,2.2A29.667,29.667,0,0,0,331.915,661.789Z" transform="translate(-327.571 -655.785)" fill="#e5d1bd"/>
              <path id="Path_1813" data-name="Path 1813" d="M319.379,679.687c-.651-.233-.8,1.322-.8,1.688a2.724,2.724,0,0,1-.033.657,1.756,1.756,0,0,1-.366.62l-.946,1.19a2.067,2.067,0,0,0-.362.576,1.215,1.215,0,0,0,.627,1.418c1.748.883,3.346-1.256,3.724-2.668.058-.216.1-.437.143-.657.088-.455.432-1.448.251-1.893-.211-.519-.849-.143-1.268-.338C319.958,680.1,319.643,679.782,319.379,679.687Z" transform="translate(-316.813 -674.885)" fill="#292949"/>
            </g>
            <path id="Path_1814" data-name="Path 1814" d="M336.922,460.39c-1.63,4.438-3.511,8.779-4.584,13.424-1.325,5.739-3.462,11.335-4.558,17.087a14.2,14.2,0,0,1-2.123-.09c-.807-.1-2.088-.313-2.379-1.195a5.343,5.343,0,0,1,.032-1.651c.073-1.5.18-3,.29-4.492a115.458,115.458,0,0,1,1.3-12.693c.819-4.391,1.6-8.8,2.324-13.186.372-2.269.831-4.524,1.4-6.753.146-.574,1.66-6.495,1.957-6.447a27.765,27.765,0,0,1,9.9,3.552,1.417,1.417,0,0,1,.691.7,1.308,1.308,0,0,1-.086.873c-.918,2.729-2.143,5.288-3.122,8.006C337.624,458.473,337.278,459.419,336.922,460.39Z" transform="translate(-321.933 -444.393)" fill="#5d66d3"/>
          </g>
          <g id="Group_658" data-name="Group 658" transform="translate(13.998 43.358)">
            <g id="Group_657" data-name="Group 657" transform="translate(1.077 42.271)">
              <path id="Path_1815" data-name="Path 1815" d="M393.237,662.461a9.131,9.131,0,0,0,1.645.276,28.533,28.533,0,0,0,1.087-5.714c-1.109.658-1.638-.09-2.145,1.638A29.7,29.7,0,0,1,393.237,662.461Z" transform="translate(-393.016 -657.023)" fill="#e5d1bd"/>
              <path id="Path_1816" data-name="Path 1816" d="M394.558,679.514c0,1.063.838,2.208,1.3,3.165a.655.655,0,0,1-.107.855,1.366,1.366,0,0,1-.555.523,1.3,1.3,0,0,1-.748-.008q-.621-.136-1.228-.329a.851.851,0,0,1-.285-.133.884.884,0,0,1-.211-.306,3.209,3.209,0,0,1-.513-1.624,9.794,9.794,0,0,0-.022-2c-.06-.318-.139-.725.133-.9.211-.135.6.051.826.088a3.111,3.111,0,0,1,1.151.253.538.538,0,0,1,.2.169A.45.45,0,0,1,394.558,679.514Z" transform="translate(-392.132 -674.366)" fill="#292949"/>
            </g>
            <path id="Path_1817" data-name="Path 1817" d="M387.5,459.508c.236,4.722.741,9.426.384,14.18-.442,5.873-.066,11.852-.73,17.669a14.179,14.179,0,0,0,2.053.545c.8.149,2.087.322,2.627-.433a5.339,5.339,0,0,0,.461-1.586c.376-1.452.719-2.914,1.059-4.375A115.392,115.392,0,0,0,395.881,473c.524-4.436,1.085-8.875,1.7-13.281.319-2.277.552-4.566.676-6.863.032-.592.347-6.694.049-6.737a27.765,27.765,0,0,0-10.51.447,1.417,1.417,0,0,0-.869.466,1.308,1.308,0,0,0-.177.859c.065,2.879.473,5.686.6,8.572C387.4,457.47,387.445,458.476,387.5,459.508Z" transform="translate(-386.75 -445.819)" fill="#5d66d3"/>
          </g>
          <path id="Path_1818" data-name="Path 1818" d="M345.962,323.09q-.086.029-.172.061a9.646,9.646,0,0,0-2.546,1.646,5.136,5.136,0,0,0-2.229,2.8,34.474,34.474,0,0,0-.956,4.085c-1.343,7-1.6,13.974-2.567,21.028-.263,1.92-.465,4.178.955,5.5,2.52-1.961,5.687-2.074,8.743-2.077,2.146,0,4.244-.7,6.4-.457,2.056.229,3.852-.285,5.938-.149.5.033,1.144.027,1.342-.436a27.418,27.418,0,0,1-.873-6.768c-.423-5.887-2.373-11.535-3.16-17.382-.267-1.987-.41-5.286-1.949-6.79-1.673-1.635-5.488-1.668-7.637-1.348A7.414,7.414,0,0,0,345.962,323.09Z" transform="translate(-333.203 -303.934)" fill="#353a85"/>
          <g id="Group_662" data-name="Group 662" transform="translate(3.653)">
            <g id="Group_661" data-name="Group 661">
              <g id="Group_660" data-name="Group 660" transform="translate(8.204 4.975)">
                <g id="Group_659" data-name="Group 659" transform="translate(0 2.374)">
                  <path id="Path_1819" data-name="Path 1819" d="M378.552,277.614a.77.77,0,0,0,.146.2,1.676,1.676,0,0,0,.939.435,4.161,4.161,0,0,0,1.362-.1c.607-.116.586-.471.673-1.022.048-.3.078-.6.1-.908.012-.167-.052-.763.054-.88.072-.079.365-.053.494-.12a1.417,1.417,0,0,0,.5-.493,3.985,3.985,0,0,0,.412-1.01l.555-1.822a9.638,9.638,0,0,0,.44-1.892,4.013,4.013,0,0,0-.8-3.06,4.394,4.394,0,0,0-2.545-.991,5.3,5.3,0,0,0-3.444.7,2.835,2.835,0,0,0-1.051,1.038,4.587,4.587,0,0,0-.308,2.39q.056,1.131.112,2.261a3.018,3.018,0,0,0,.8,2.336c.345.25.8.3,1.091.623a2.246,2.246,0,0,1,.361,1.511A1.856,1.856,0,0,0,378.552,277.614Z" transform="translate(-376.054 -265.906)" fill="#eacdb0"/>
                </g>
                <path id="Path_1820" data-name="Path 1820" d="M395.982,258.383a1.273,1.273,0,0,1,.1.22c.138.4.045.851.18,1.251.214.635.956,1.017,1.067,1.678.091.541-.278,1.055-.309,1.6-.034.6.349,1.164.29,1.755a3.909,3.909,0,0,1-.683,1.645c.095-.127.953-.082,1.176-.218a.9.9,0,0,0,.482-.7,7.183,7.183,0,0,1,.18-1.063c.193-.443.589-.769.727-1.242.189-.646-.154-1.327-.128-2,.041-1.018.92-1.976.6-2.944-.187-.567-.738-.93-1.048-1.441a7.714,7.714,0,0,1-.485-1.268,1.512,1.512,0,0,0-.879-.975,7.438,7.438,0,0,0-.75-.088,9.244,9.244,0,0,1-1.2-.515,2.263,2.263,0,0,0-1.977.9,1.032,1.032,0,0,0,.18,1.358C394.094,257.072,395.5,257.551,395.982,258.383Z" transform="translate(-389.725 -254.046)" fill="#292949"/>
              </g>
              <path id="Path_1821" data-name="Path 1821" d="M358.907,251.906a11.293,11.293,0,0,0-1.114.751,3.328,3.328,0,0,0-.772,2.4,16.145,16.145,0,0,0-.273,2.254,1.961,1.961,0,0,0,.723,1.4c.546.4,1.4.461,1.645,1.089.264.683-.443,1.543-.013,2.136.237.327.7.375,1.04.6a2.985,2.985,0,0,1,.8,1.07,1.366,1.366,0,0,0,1.028.784,3.757,3.757,0,0,0-.254-1.855c-.17-.365-.672-1.038-.287-1.434.243-.329.817-.435.832-.844a.946.946,0,0,0-.233-.516,2.35,2.35,0,0,1-.173-2.137,3.056,3.056,0,0,1,1.517-1.564c.784-.379.657-.571.885-1.321.21-.691.6-.852,1.223-1.1a1.31,1.31,0,0,0,.943-.889,1.52,1.52,0,0,0,.118-1.267,2.578,2.578,0,0,0-.789-.813,3.349,3.349,0,0,0-2.138-.933c-.441.032-.855.239-1.3.264-.294.017-.587-.048-.882-.058a2.344,2.344,0,0,0-1.439.435c-.41.3-.4.617-.626,1.046A1.532,1.532,0,0,1,358.907,251.906Z" transform="translate(-352.397 -245.6)" fill="#292949"/>
              <path id="Path_1822" data-name="Path 1822" d="M343.352,232.675c.077-.478.028-1.1-.428-1.261-.25-.088-.53.008-.789-.044-.553-.112-.742-.783-1.032-1.267a.418.418,0,0,0-.172-.18.68.68,0,0,0-.357.009c-.551.067-.969-.476-1.488-.673a1.3,1.3,0,0,0-1.643.816c-.079.271-.066.562-.14.834-.3,1.1-1.917,1.572-1.957,2.714-.028.772.728,1.512.434,2.226-.188.457-.776.768-.708,1.258a.682.682,0,0,0,.7.525,1.369,1.369,0,0,0,.849-.388c.38-.332.666-.758,1.028-1.109a1.72,1.72,0,0,1,1.345-.574c.485.06.924.438,1.405.357.385-.065.671-.409,1.05-.505a3.562,3.562,0,0,1,1.087.07c.365.022.813-.168.823-.533a.916.916,0,0,1,.005-.264c.078-.236.48-.222.557-.458-.191-.294-.459-.189-.6-.572A2.11,2.11,0,0,1,343.352,232.675Z" transform="translate(-335.064 -229.186)" fill="#292949"/>
            </g>
          </g>
        </g>
      </g>
      <g id="Group_671" data-name="Group 671" transform="translate(192.54 104.897)">
        <g id="Group_669" data-name="Group 669" transform="translate(0 0)">
          <g id="Group_668" data-name="Group 668">
            <g id="Group_667" data-name="Group 667">
              <g id="Group_665" data-name="Group 665">
                <rect id="Rectangle_621" data-name="Rectangle 621" width="75.132" height="52.163" fill="#8cabef"/>
              </g>
              <g id="Group_666" data-name="Group 666" transform="translate(1.751 1.658)">
                <path id="Path_1823" data-name="Path 1823" d="M392.971,364.52H375.038v15.934C375.038,371.654,383.067,364.52,392.971,364.52Z" transform="translate(-375.038 -364.52)" fill="#dddae8" opacity="0.2"/>
              </g>
            </g>
          </g>
        </g>
        <g id="Group_670" data-name="Group 670" transform="translate(32.841 25.459)" opacity="0.2">
          <path id="Path_1824" data-name="Path 1824" d="M530.372,510.143h42.291v-26.7S568.756,510.143,530.372,510.143Z" transform="translate(-530.372 -483.439)" fill="#3b3387"/>
        </g>
      </g>
      <g id="Group_683" data-name="Group 683" transform="translate(154.531 81.254)">
        <g id="Group_674" data-name="Group 674" transform="translate(2.867 42.05)">
          <g id="Group_672" data-name="Group 672" transform="translate(1.924 50.946)">
            <path id="Path_1825" data-name="Path 1825" d="M178.59,693.8l-.12,1.69,3.26,1.931,1.811-1.57-1.57-1.811-3.26-1.931Z" transform="translate(-178.469 -692.114)" fill="#292949"/>
          </g>
          <g id="Group_673" data-name="Group 673">
            <path id="Path_1826" data-name="Path 1826" d="M169.223,438.8l-.365,5.133,5.261,22.732-3.355,22.979,3.305.909,9.766-27.5.329-8.325L182.21,437.57Z" transform="translate(-168.858 -437.57)" fill="#292949"/>
          </g>
        </g>
        <g id="Group_677" data-name="Group 677" transform="translate(11.11 45.499)">
          <g id="Group_675" data-name="Group 675">
            <path id="Path_1827" data-name="Path 1827" d="M223.386,455.616l2.089,21.529-1.689,28.133-3.123.267-4.161-25.47L210.04,454.8Z" transform="translate(-210.04 -454.8)" fill="#292949"/>
          </g>
          <g id="Group_676" data-name="Group 676" transform="translate(10.608 50.083)">
            <path id="Path_1828" data-name="Path 1828" d="M263.043,705.324l.144,1.688,3.521,1.4,1.544-1.833-1.833-1.544Z" transform="translate(-263.043 -705.036)" fill="#292949"/>
          </g>
        </g>
        <g id="Group_678" data-name="Group 678" transform="translate(0 16.125)">
          <path id="Path_1829" data-name="Path 1829" d="M154.761,337.883c-.247,1.958-.46,4.61.284,4.785a.687.687,0,0,0,.413-.077c1.378-.577,2.4-1.483,3.761-2.037a14.888,14.888,0,0,1,4.542-.915,42.718,42.718,0,0,1,6.946,0,54.572,54.572,0,0,1,5.4.836,28.574,28.574,0,0,0,4.375.923,9.875,9.875,0,0,0,4.593-.949.265.265,0,0,0,.133-.106.269.269,0,0,0,0-.186,8.29,8.29,0,0,0-.874-2.587,16.091,16.091,0,0,1-1.291-2.927,44.552,44.552,0,0,1-1.959-6.254c-.743-2.892-1.64-5.726-2.348-8.623a47.953,47.953,0,0,0-1.664-5.977c-.585-1.514-1.677-3.749-3.188-4.546a4.933,4.933,0,0,0-1.672-.426L167,308.126a3.2,3.2,0,0,0-3.913,2.005,41.989,41.989,0,0,0-5.1,11.774c-.589,2.178-1.151,4.363-1.641,6.565-.546,2.456-1,4.933-1.305,7.431C155,336.179,154.878,336.953,154.761,337.883Z" transform="translate(-154.531 -308.036)" fill="#d67086"/>
        </g>
        <g id="Group_679" data-name="Group 679" transform="translate(9.1 16.217)">
          <path id="Path_1830" data-name="Path 1830" d="M204.949,318.413a14.34,14.34,0,0,1-.523,2.936L200,339l14.061,1.336q.094-3.383.188-6.767a24,24,0,0,0-1.841-11.116l-4.176-12.3a1.216,1.216,0,0,0-1.064-.985,13.852,13.852,0,0,0-4.171-.667c-.464,1.19.556,3.447.9,4.634A16.986,16.986,0,0,1,204.949,318.413Z" transform="translate(-199.997 -308.499)" fill="#f7f7f7"/>
        </g>
        <g id="Group_682" data-name="Group 682" transform="translate(8.126)">
          <g id="Group_680" data-name="Group 680" transform="translate(2.877 6.315)">
            <path id="Path_1831" data-name="Path 1831" d="M214.3,270.409l-2.9-.429a14.659,14.659,0,0,1,.27-2.318,6.686,6.686,0,0,1-1.6-1.087,6.278,6.278,0,0,1-.392-2.132c-.21-1.392-.381-2.952.46-4.08.871-1.169,2.52-1.428,3.973-1.316,1.824.141,3.8.883,4.575,2.541.7,1.5-.583,3.467-1.043,4.927-.226.72-.543,1.535-1.258,1.774a6.238,6.238,0,0,0-1.166.262C214.605,268.9,214.643,269.79,214.3,270.409Z" transform="translate(-209.506 -259.022)" fill="#eacdb0"/>
          </g>
          <g id="Group_681" data-name="Group 681">
            <path id="Path_1832" data-name="Path 1832" d="M210.335,233.952l.638-2.984a2.624,2.624,0,0,0,.074-1.121,1.962,1.962,0,0,0-1.288-1.27c-.586-.226-1.22-.3-1.817-.5a7.761,7.761,0,0,0-1.909-.607c-1.273-.076-2.365,1-3.638,1.069-1.763.1-3.272-.863-4.531,1.069-.231.355-.329.781-.539,1.149A8.425,8.425,0,0,1,196.257,232a5.427,5.427,0,0,0,.049,6.678c.722.89.976,1.653,2.059,2.027-.4-1.086.7-5.133,2.137-5.45.381-.084,1.442.482,1.844.584a10.9,10.9,0,0,1,2.569.9,13.218,13.218,0,0,0,3.9,1.411.508.508,0,0,0,.727-.479Z" transform="translate(-195.131 -227.471)" fill="#292949"/>
          </g>
        </g>
      </g>
      <g id="Group_686" data-name="Group 686" transform="translate(222.661 33.839)">
        <g id="Group_685" data-name="Group 685" transform="translate(0 0)">
          <path id="Path_1833" data-name="Path 1833" d="M524.421,57.563a8.457,8.457,0,0,1,7.019-9.6c-.028-.143-.054-.287-.076-.433A10.257,10.257,0,0,1,548.154,38.2a9.485,9.485,0,0,1,17.268,3.2c.21-.048.421-.091.637-.123a8.459,8.459,0,0,1,5.029,15.933,8.184,8.184,0,0,1-6.78,12.478l1.3,8.659c.051.376-.409.6-.574.428l-6.64-6.88a8.179,8.179,0,0,1-11.88-.985,9.139,9.139,0,0,1-14.977-5.6c-.032-.217-.054-.433-.071-.649A8.461,8.461,0,0,1,524.421,57.563Z" transform="translate(-524.326 -33.839)" fill="#5d66d3"/>
          <g id="Group_684" data-name="Group 684" transform="translate(15.377 19.307)">
            <path id="Path_1834" data-name="Path 1834" d="M601.951,144.841a.971.971,0,0,1,.287,1.92A.971.971,0,0,1,601.951,144.841Z" transform="translate(-601.155 -141.921)" fill="#fff"/>
            <path id="Path_1835" data-name="Path 1835" d="M645.118,138.385a.971.971,0,0,1,.287,1.92A.971.971,0,0,1,645.118,138.385Z" transform="translate(-635.682 -136.757)" fill="#fff"/>
            <path id="Path_1836" data-name="Path 1836" d="M699.076,130.315a.971.971,0,0,1,.287,1.92A.971.971,0,0,1,699.076,130.315Z" transform="translate(-678.841 -130.303)" fill="#fff"/>
          </g>
        </g>
      </g>
      <g id="Group_687" data-name="Group 687" transform="translate(198.316 58.513)">
        <rect id="Rectangle_622" data-name="Rectangle 622" width="34.775" height="2.46" transform="matrix(0.576, 0.817, -0.817, 0.576, 7.739, 10.956)" fill="#d67086"/>
        <rect id="Rectangle_623" data-name="Rectangle 623" width="34.775" height="2.46" transform="matrix(0.576, 0.817, -0.817, 0.576, 11.758, 8.12)" fill="#d67086"/>
        <rect id="Rectangle_624" data-name="Rectangle 624" width="34.775" height="2.46" transform="matrix(0.576, 0.817, -0.817, 0.576, 9.748, 9.538)" fill="#fff"/>
        <rect id="Rectangle_625" data-name="Rectangle 625" width="0.663" height="7.379" transform="translate(11.376 7.578) rotate(54.796)" fill="#babcbe"/>
        <rect id="Rectangle_626" data-name="Rectangle 626" width="0.663" height="7.379" transform="matrix(0.576, 0.817, -0.817, 0.576, 10.993, 7.036)" fill="#f7f7f7"/>
        <rect id="Rectangle_627" data-name="Rectangle 627" width="0.663" height="7.379" transform="matrix(0.576, 0.817, -0.817, 0.576, 10.611, 6.494)" fill="#babcbe"/>
        <path id="Rectangle_628" data-name="Rectangle 628" d="M3.689,0H7.284a0,0,0,0,1,0,0V7.379a0,0,0,0,1,0,0h-3.6A3.689,3.689,0,0,1,0,3.689v0A3.689,3.689,0,0,1,3.689,0Z" transform="translate(6.029 0) rotate(54.796)" fill="#e8e8e8"/>
        <rect id="Rectangle_629" data-name="Rectangle 629" width="0.663" height="7.379" transform="matrix(0.576, 0.817, -0.817, 0.576, 10.228, 5.952)" fill="#f7f7f7"/>
        <path id="Path_1837" data-name="Path 1837" d="M524.076,329.016l-6.029,4.254,8.257,5.3Z" transform="translate(-492.271 -292.481)" fill="#eed5d5"/>
        <path id="Path_1838" data-name="Path 1838" d="M551.067,365.605l-1.409.994,1.93,1.24Z" transform="translate(-517.555 -321.747)" fill="#292949"/>
      </g>
      <g id="Group_689" data-name="Group 689" transform="translate(169.214 112.136)">
        <path id="Path_1839" data-name="Path 1839" d="M236.082,430.426s33.548,1.42,33.966,1.155.172-33.915-1.133-35.2C268.915,396.379,238.12,428.333,236.082,430.426Z" transform="translate(-234.443 -395.993)" fill="#3b455a" opacity="0.25"/>
        <path id="Path_1840" data-name="Path 1840" d="M262.327,428.883H227.894a114.466,114.466,0,0,0,1.3-18.288,105.317,105.317,0,0,0-.824-15.434c11.478,0,22.482-.712,33.96-.712.488,4.809.814,10.055.865,15.682A170.578,170.578,0,0,1,262.327,428.883Z" transform="translate(-227.894 -394.45)" fill="#474ebb"/>
        <g id="Group_688" data-name="Group 688" transform="translate(5.097 7.708)">
          <path id="Path_1841" data-name="Path 1841" d="M264.477,439.343c-.245-2.26-1.05-4.909-3.3-5.915-2.569-1.15-5.323.047-7.677,1.145-.324.151-.042.63.281.48.233-.108.471-.219.714-.328.481,5.076-.494,10.157-.134,15.236a.307.307,0,0,0,.028.359c.009.112.015.224.026.336.034.353.59.357.556,0-.012-.121-.018-.243-.028-.365C259.491,448.733,265.057,444.694,264.477,439.343Zm-3.914,7.044a16.508,16.508,0,0,1-5.661,3.328c-.316-5.076.658-10.153.132-15.226,1.962-.839,4.17-1.483,6.147-.448,2.094,1.1,2.812,4.1,2.795,6.285C263.955,442.8,262.314,444.8,260.562,446.387Z" transform="translate(-253.361 -432.96)" fill="#fff"/>
          <path id="Path_1842" data-name="Path 1842" d="M311.223,480.754a3.179,3.179,0,0,0-2.617.515,4.617,4.617,0,0,0-1.941,2.947c-.471,2.212.128,5.053,2.8,5.262,2.569.2,4.513-2.113,4.785-4.5C314.472,482.98,313.265,480.817,311.223,480.754Zm2.391,4.652a4.214,4.214,0,0,1-3.855,3.528c-2.461,0-2.978-2.609-2.558-4.57a4.194,4.194,0,0,1,1.3-2.327,3.688,3.688,0,0,1,1.775-.84.277.277,0,0,0,.318.163,2.787,2.787,0,0,1,.478-.06,1.088,1.088,0,0,1,.179.1.229.229,0,0,0,.346-.068C313.261,481.652,313.968,483.784,313.614,485.406Z" transform="translate(-295.879 -471.092)" fill="#fff"/>
          <path id="Path_1843" data-name="Path 1843" d="M362.724,512.062a.411.411,0,0,0-.032-.044.573.573,0,0,0-.93.219,1.009,1.009,0,0,0-.266.748.613.613,0,0,0,.6.56.763.763,0,0,0,.682-.589.581.581,0,0,0,.166-.532A.6.6,0,0,0,362.724,512.062Z" transform="translate(-339.847 -496.062)" fill="#fff"/>
          <path id="Path_1844" data-name="Path 1844" d="M366.773,448.283c-.259-.46-.976-.456-1.44-.48a.282.282,0,0,0-.278.278q-.143,4.9-.074,9.812a.274.274,0,0,0,.334.264.277.277,0,0,0,.554-.014,58.412,58.412,0,0,1,.63-7.245c.081-.532.171-1.062.265-1.592A1.545,1.545,0,0,0,366.773,448.283Zm-1.169.091.071.008a.309.309,0,0,0-.035.113c-.01.1-.027.2-.046.293C365.6,448.65,365.6,448.512,365.6,448.374Zm-.044,1.858a.249.249,0,0,0,.137.048c-.059.3-.122.58-.151.8Q365.553,450.655,365.56,450.232Z" transform="translate(-342.623 -444.832)" fill="#fff"/>
        </g>
      </g>
      <g id="Group_719" data-name="Group 719" transform="translate(256.102 82.688)">
        <g id="Group_692" data-name="Group 692" transform="translate(0 15.628)">
          <g id="Group_690" data-name="Group 690" transform="translate(0 9.197)">
            <path id="Path_1845" data-name="Path 1845" d="M704.929,369.187a1.175,1.175,0,0,1,.513-.4,5.3,5.3,0,0,0,.958-.394c.245-.161.183-.75.75-.527.209.083.575.345.975.5a4,4,0,0,0,2.116.049,72.988,72.988,0,0,1,8.359-1.446.91.91,0,0,0,.457-.123,1.061,1.061,0,0,0,.337-.722,20.239,20.239,0,0,1,1.135-3.7,7.437,7.437,0,0,1,1.922-2.837,3.415,3.415,0,0,1,3.2-.779,2.33,2.33,0,0,1,1.689,1.707c.427,2.143-1.542,3.747-2.722,5.249-1.117,1.421-2.071,2.627-3.24,3.93a1.482,1.482,0,0,1-.484.4,1.546,1.546,0,0,1-.656.094,38.138,38.138,0,0,0-8.36.428,17.752,17.752,0,0,0-2.173.24c-.458.155-.7.609-1.117.826a3.769,3.769,0,0,1-1.389.469c-.929.063-1.5-.62-2.133-1.182a1.448,1.448,0,0,0-1.547-.4.524.524,0,0,1-.249.051.388.388,0,0,1-.231-.582.984.984,0,0,1,.61-.376,3.023,3.023,0,0,1,.781-.167.478.478,0,0,0,.321-.082C704.827,369.332,704.855,369.271,704.929,369.187Z" transform="translate(-702.976 -358.671)" fill="#e5d1bd"/>
          </g>
          <g id="Group_691" data-name="Group 691" transform="translate(16.786)">
            <path id="Path_1846" data-name="Path 1846" d="M791.666,328.224c-1.594-.6-3.266-.972-4.819-1.7.563-1.353,2.194-6.858,2.474-7.517,1.071-2.515,1.278-3.6,2.754-4.928,3.152-2.836,6.894-.955,6.74,3.07-.167,4.37-2.509,8.121-5.045,11.5a.5.5,0,0,1-.226.167.569.569,0,0,1-.359-.046C792.688,328.574,792.169,328.414,791.666,328.224Z" transform="translate(-786.846 -312.718)" fill="#aab4b5"/>
          </g>
        </g>
        <g id="Group_703" data-name="Group 703" transform="translate(16.681 39.108)">
          <g id="Group_697" data-name="Group 697">
            <g id="Group_696" data-name="Group 696" transform="translate(0 35.413)">
              <g id="Group_695" data-name="Group 695">
                <g id="Group_693" data-name="Group 693" transform="translate(4.201)">
                  <path id="Path_1847" data-name="Path 1847" d="M809.034,623.71a12.959,12.959,0,0,1-1.642-.157c-.283-5.431.231-11.123.453-16.579l4.185.223a48.775,48.775,0,0,0-2.071,8.972C809.9,616.652,809.113,623.708,809.034,623.71Z" transform="translate(-807.309 -606.974)" fill="#e5d1bd"/>
                </g>
                <g id="Group_694" data-name="Group 694" transform="translate(0 15.512)">
                  <path id="Path_1848" data-name="Path 1848" d="M790.434,684.493a.842.842,0,0,0-.777.3c-.133.122-.224.294-.385.382a1.266,1.266,0,0,1-.51.123c-1.006.1-3.325.059-2.09,1.742,1.122,1.529,4.1.92,5.822.5a.592.592,0,0,0,.316-.132.806.806,0,0,0,.174-.342c.2-.719.465-1.617-.419-1.919-.377-.128-.725.121-1.124-.017C791.113,685.024,790.778,684.555,790.434,684.493Z" transform="translate(-786.318 -684.48)" fill="#292949"/>
                </g>
              </g>
            </g>
            <path id="Path_1849" data-name="Path 1849" d="M794.075,468.724l8.536-.166q3.452-16.435,6.078-33.029a5.874,5.874,0,0,0,.021-2.581c-.467-1.574-2.153-2.472-3.766-2.773-2.508-.469-7.116.184-8.4,2.791-1.359,2.756-1.131,7.677-1.461,10.722A185.124,185.124,0,0,0,794.075,468.724Z" transform="translate(-792.466 -430.035)" fill="#292949"/>
          </g>
          <g id="Group_702" data-name="Group 702" transform="translate(11.74)">
            <g id="Group_701" data-name="Group 701" transform="translate(7.459 35.413)">
              <g id="Group_700" data-name="Group 700">
                <g id="Group_698" data-name="Group 698">
                  <path id="Path_1850" data-name="Path 1850" d="M885.243,623.71a12.959,12.959,0,0,0,1.641-.157c.283-5.431-.23-11.123-.453-16.579l-4.186.223a48.755,48.755,0,0,1,2.071,8.972C884.381,616.652,885.164,623.708,885.243,623.71Z" transform="translate(-882.246 -606.974)" fill="#e5d1bd"/>
                </g>
                <g id="Group_699" data-name="Group 699" transform="translate(2.059 15.512)">
                  <path id="Path_1851" data-name="Path 1851" d="M895.284,684.493a.842.842,0,0,1,.777.3c.133.122.224.294.385.382a1.268,1.268,0,0,0,.51.123c1.007.1,3.325.059,2.09,1.742-1.122,1.529-4.1.92-5.822.5a.593.593,0,0,1-.316-.132.807.807,0,0,1-.174-.342c-.2-.719-.465-1.617.42-1.919.377-.128.725.121,1.124-.017C894.6,685.024,894.94,684.555,895.284,684.493Z" transform="translate(-892.536 -684.48)" fill="#292949"/>
                </g>
              </g>
            </g>
            <path id="Path_1852" data-name="Path 1852" d="M859.751,468.724l-8.536-.166q-3.452-16.435-6.078-33.029a5.879,5.879,0,0,1-.021-2.581c.467-1.574,2.153-2.472,3.767-2.773,2.508-.469,7.116.184,8.4,2.791,1.359,2.756,1.131,7.677,1.461,10.722A185.1,185.1,0,0,1,859.751,468.724Z" transform="translate(-844.978 -430.035)" fill="#292949"/>
          </g>
        </g>
        <g id="Group_704" data-name="Group 704" transform="translate(18.821 14.507)">
          <path id="Path_1853" data-name="Path 1853" d="M814.089,310.33a20.34,20.34,0,0,1,5.019,7.848c1.822,5.115,1.857,10.577,1.874,15.929q.008,2.672.017,5.344c.006,1.753-.15,2.13-2.054,1.9a32.657,32.657,0,0,1-10.4-2.724,49.186,49.186,0,0,0-4.54-2.277c-2.321-.855-4.7-.468-7-1.024a54.445,54.445,0,0,0,2.222-8.685c.527-3.2,1.006-6.684,1.778-9.838a25.837,25.837,0,0,1,2.2-5.4,9.805,9.805,0,0,1,2.213-3.212C808.438,305.643,811.816,308.168,814.089,310.33Z" transform="translate(-797.011 -307.12)" fill="#474ebb"/>
        </g>
        <g id="Group_709" data-name="Group 709" transform="translate(27.277 0)">
          <g id="Group_706" data-name="Group 706" transform="translate(0 1.981)">
            <g id="Group_705" data-name="Group 705">
              <path id="Path_1854" data-name="Path 1854" d="M839.651,252.764a19.537,19.537,0,0,0,1.709,2.588,5.8,5.8,0,0,1,.909,2.568c.107.7.358,1.25,1.2,1.37,1.594.227,1.138-1.091,1.5-2.049a17.541,17.541,0,0,1,1.913-2.939c1.782-2.825,1.274-8.409-2.431-9.6C840.4,243.4,838.344,249.907,839.651,252.764Z" transform="translate(-839.26 -244.532)" fill="#e5d1bd"/>
            </g>
          </g>
          <g id="Group_707" data-name="Group 707" transform="translate(4.261 3.107)">
            <path id="Path_1855" data-name="Path 1855" d="M863.136,254.533a2.027,2.027,0,0,1,1.307.364c.341.309.3.982-.146,1.055-.408.066-.937-.36-1.186-.049-.146.182-.018.448.093.66a3.879,3.879,0,0,1,.353,2.629c.168.156.43-.006.577-.168a8.466,8.466,0,0,0,1.679-2.758,1.689,1.689,0,0,0,.617.6,1.954,1.954,0,0,1,.038-1.187c.346-1.429.582-3.1-.416-4.271a3.713,3.713,0,0,0-2.163-1.135,10.85,10.85,0,0,0-2.472-.077c-.352.016-.786.092-.871.418a3.923,3.923,0,0,1,1.958,1.644C862.625,252.48,863.089,254.531,863.136,254.533Z" transform="translate(-860.548 -250.161)" fill="#292949"/>
          </g>
          <g id="Group_708" data-name="Group 708" transform="translate(0.643)">
            <path id="Path_1856" data-name="Path 1856" d="M847.045,238.681l.083.062a3.506,3.506,0,0,0,1.1.709c.61.17,1.266-.124,1.867.084.672.233,1.114,1.036,1.6,1.512a7.105,7.105,0,0,0,2.872,1.679,7.188,7.188,0,0,0,1.684.3,2.978,2.978,0,0,0,.857,0c.339-.091.327-.245-.034-.36-1.131-.363-1.486-1.951-1.4-3a5.381,5.381,0,0,0,.037-2.471,2.934,2.934,0,0,0-1.265-1.23c-.555-.372-1.156-.272-1.785-.45-.657-.187-1.192-.7-1.862-.836a5.653,5.653,0,0,0-2.122.312,4.392,4.392,0,0,1-1.775-.022,7.119,7.119,0,0,0-1.564-.321,2.56,2.56,0,0,0-1.971,1.138,5.232,5.232,0,0,0-.841,3.642c-.035-.185.586-.854.714-1a1.683,1.683,0,0,1,1.008-.638A4.332,4.332,0,0,1,847.045,238.681Z" transform="translate(-842.471 -234.636)" fill="#292949"/>
          </g>
        </g>
        <g id="Group_715" data-name="Group 715" transform="translate(6.789 12.535)">
          <path id="Path_1857" data-name="Path 1857" d="M769.112,529.818l-.215,2.367a1.33,1.33,0,0,0,1.117,1.505l5.554.505a1.33,1.33,0,0,0,1.37-1.279l.215-2.367Z" transform="translate(-762.487 -483.274)" fill="#b1b1b2"/>
          <path id="Path_1858" data-name="Path 1858" d="M763.9,313.62c.758-8.327-4.657-15.626-12.095-16.3s-14.081,5.525-14.839,13.852a16.416,16.416,0,0,0,1.345,8.236h0a44.354,44.354,0,0,1,3.438,13.338l6.776.617,6.776.617a44.355,44.355,0,0,1,5.789-12.5h0A16.416,16.416,0,0,0,763.9,313.62Z" transform="translate(-736.897 -297.267)" fill="#d67086"/>
          <path id="Path_1859" data-name="Path 1859" d="M756.694,474.455l-.915,10.055a.72.72,0,0,0,.594.821l12.538,1.141a.72.72,0,0,0,.733-.7l.915-10.055Z" transform="translate(-751.997 -438.992)" fill="#ddd"/>
          <path id="Path_1860" data-name="Path 1860" d="M783.3,364.761c-4.1,7.176-11.8,18.138-22.171,21.928l0,.041,6.776.617,6.776.617a44.354,44.354,0,0,1,5.789-12.5h0a16.416,16.416,0,0,0,2.81-7.858A17,17,0,0,0,783.3,364.761Z" transform="translate(-756.282 -351.252)" fill="#3b3387" opacity="0.2"/>
          <g id="Group_710" data-name="Group 710" transform="translate(1.355 1.662)">
            <path id="Path_1861" data-name="Path 1861" d="M744.47,319.253c.661-7.27,6.461-12.684,12.954-12.094a11.4,11.4,0,0,1,8.852,5.987,11.646,11.646,0,0,0-9.594-7.53c-6.493-.591-12.293,4.824-12.954,12.094a14.2,14.2,0,0,0,1.707,8.246A14.388,14.388,0,0,1,744.47,319.253Z" transform="translate(-743.667 -305.573)" fill="#fff" opacity="0.5"/>
          </g>
          <g id="Group_711" data-name="Group 711" transform="translate(8.315 13.963)">
            <path id="Path_1862" data-name="Path 1862" d="M779.139,388.925l.125-19.449,2.081,2.323,2.3-3.337,1.7,3.589,2.419-1.819-3.391,19.17.7.063,3.7-20.917-3.162,2.378-1.844-3.893-2.479,3.591L778.58,367.6l-.136,21.26Z" transform="translate(-778.444 -367.032)" fill="#f6f7f7"/>
          </g>
          <g id="Group_712" data-name="Group 712" transform="translate(8.315 27.614)">
            <path id="Path_1863" data-name="Path 1863" d="M778.457,464.839l-.012,1.939.7.063.015-2.4Q778.808,464.648,778.457,464.839Z" transform="translate(-778.444 -458.6)" fill="#edeced"/>
            <path id="Path_1864" data-name="Path 1864" d="M809.482,436.061l-1.4,7.893.7.063,1.553-8.782Q809.914,435.653,809.482,436.061Z" transform="translate(-802.153 -435.235)" fill="#edeced"/>
          </g>
          <g id="Group_713" data-name="Group 713" transform="translate(3.94 37.96)">
            <rect id="Rectangle_630" data-name="Rectangle 630" width="1.865" height="13.922" transform="translate(0.361 1.857) rotate(-84.801)" fill="#c4c4c4"/>
            <rect id="Rectangle_631" data-name="Rectangle 631" width="1.864" height="13.922" transform="matrix(0.091, -0.996, 0.996, 0.091, 0, 5.822)" fill="#c4c4c4"/>
          </g>
          <g id="Group_714" data-name="Group 714" transform="translate(3.788 36.705)">
            <path id="Path_1865" data-name="Path 1865" d="M795.407,502.644l6.263.57.192-2.109L798,500.754A26.385,26.385,0,0,1,795.407,502.644Z" transform="translate(-787.485 -496.732)" fill="#c2c2c4"/>
            <path id="Path_1866" data-name="Path 1866" d="M819.928,483.176l.227-2.5-.218-.02a18.683,18.683,0,0,1-2.155,2.321Z" transform="translate(-805.382 -480.659)" fill="#c2c2c4"/>
            <path id="Path_1867" data-name="Path 1867" d="M756.413,520.327l12.539,1.141a.72.72,0,0,0,.733-.7l.158-1.736-9.053-.824a19.144,19.144,0,0,1-4.964,1.49A.689.689,0,0,0,756.413,520.327Z" transform="translate(-755.825 -510.693)" fill="#c2c2c4"/>
            <path id="Path_1868" data-name="Path 1868" d="M808.356,493.958l3.864.351.169-1.857-2.146-.2Q809.292,493.187,808.356,493.958Z" transform="translate(-797.842 -489.936)" fill="#b1b1b2"/>
            <path id="Path_1869" data-name="Path 1869" d="M780.624,511.8l9.053.824.169-1.857-6.264-.57A22.98,22.98,0,0,1,780.624,511.8Z" transform="translate(-775.661 -504.286)" fill="#b1b1b2"/>
          </g>
          <path id="Path_1870" data-name="Path 1870" d="M786.5,540.657c-1.717,1.543-4.759,1.781-5.76,1.817l4.306.392a1.33,1.33,0,0,0,1.37-1.279Z" transform="translate(-771.963 -491.944)" fill="#9e9e9e"/>
        </g>
        <g id="Group_718" data-name="Group 718" transform="translate(24.492 17.495)">
          <g id="Group_716" data-name="Group 716" transform="translate(0 8.684)">
            <path id="Path_1871" data-name="Path 1871" d="M825.5,378.975a.587.587,0,0,1,.071-.15c.3-.406.7-.44,1.093-.748.177-.137.127-.711.569-.557.163.057.543.252.89.377a3.3,3.3,0,0,0,1.839-.063,17.016,17.016,0,0,0,2.348-.827c.771-.356,1.523-.752,2.257-1.179a8.333,8.333,0,0,0,2.045-1.3c.782-.914-.124-3.143-.227-4.284-.108-1.19,0-4.7,1.6-4.794,2.631-.162,2.673,2.338,2.79,4.351a25.786,25.786,0,0,1-.045,3.791c-.158,1.757-1.3,2.762-2.8,3.594a25.636,25.636,0,0,1-4.977,2.27,19.51,19.51,0,0,1-2.559.471c-.859.139-.749.513-1.47.828a7.088,7.088,0,0,1-1.208.528c-.77.176-1.386-.358-1.971-.771a.849.849,0,0,1-.32-.321,1.227,1.227,0,0,1-.037-.761A2.385,2.385,0,0,1,825.5,378.975Z" transform="translate(-825.347 -365.438)" fill="#e5d1bd"/>
          </g>
          <g id="Group_717" data-name="Group 717" transform="translate(8.57)">
            <path id="Path_1872" data-name="Path 1872" d="M874.978,335.77l-4.463.865c.1-.018-1.722-6.67-1.816-7.07a10.973,10.973,0,0,1-.415-4.646c.66-3.281,2.242-4.089,4.235-.641,1.881,3.255,4.83,7.151,4.246,10.855a.475.475,0,0,1-.078.228.484.484,0,0,1-.3.135Z" transform="translate(-868.168 -322.047)" fill="#474ebb"/>
          </g>
        </g>
      </g>
    </g>
  </g>
</svg>
