<svg xmlns="http://www.w3.org/2000/svg" xmlns:xlink="http://www.w3.org/1999/xlink" width="583.858" height="684.254" viewBox="0 0 583.858 684.254">
  <defs>
    <linearGradient id="linear-gradient" x1="0.067" y1="-0.191" x2="0.932" y2="1.199" gradientUnits="objectBoundingBox">
      <stop offset="0" stop-color="#888bff"/>
      <stop offset="0.34" stop-color="#ba75e7"/>
      <stop offset="0.94" stop-color="#ff5a5d"/>
      <stop offset="1" stop-color="#fb6fb9"/>
    </linearGradient>
    <linearGradient id="linear-gradient-2" y1="0.5" x2="1" y2="0.5" gradientUnits="objectBoundingBox">
      <stop offset="0" stop-color="#5155d4"/>
      <stop offset="1" stop-color="#45f7ff"/>
    </linearGradient>
    <linearGradient id="linear-gradient-3" x1="0.715" y1="0.051" x2="0.075" y2="0.998" gradientUnits="objectBoundingBox">
      <stop offset="0" stop-color="#6851f5"/>
      <stop offset="1" stop-color="#5a5dff"/>
    </linearGradient>
    <linearGradient id="linear-gradient-4" x1="0.5" x2="0.5" y2="1" gradientUnits="objectBoundingBox">
      <stop offset="0" stop-color="#5a5dff"/>
      <stop offset="1" stop-color="#2d2f80"/>
    </linearGradient>
  </defs>
  <g id="Group_299" data-name="Group 299" transform="translate(1732 -521)">
    <g id="Group_97" data-name="Group 97" transform="translate(-1732 521)">
      <g id="Group_57" data-name="Group 57" transform="translate(233.448 510.253)" opacity="0.32">
        <path id="Path_35" data-name="Path 35" d="M222,363.032c-5.012,2.9-5.029,7.577-.058,10.465L388.4,470.231c4.98,2.893,13.053,2.893,18.067,0l39.024-18.27c5-2.888,5.04-7.571.06-10.465L279.094,344.763c-4.97-2.89-13.064-2.89-18.066,0Z" transform="translate(-218.229 -342.596)" fill="#9bf1ef"/>
      </g>
      <g id="Group_67" data-name="Group 67" transform="translate(531.539 125.189)">
        <g id="Group_64" data-name="Group 64" opacity="0.37">
          <g id="Group_63" data-name="Group 63">
            <path id="Path_40" data-name="Path 40" d="M413.8,182.324a3.581,3.581,0,0,1,1.624,2.814l-.081,28.294c0,1.032-.734,1.449-1.634.93l-35.822-20.683a3.577,3.577,0,0,1-1.626-2.811l.081-28.294c0-1.036.734-1.452,1.635-.932Z" transform="translate(-376.263 -161.419)" fill="#a3dff8"/>
          </g>
        </g>
        <g id="Group_66" data-name="Group 66" transform="translate(13.158 50.338)" opacity="0.47">
          <g id="Group_65" data-name="Group 65">
            <path id="Path_41" data-name="Path 41" d="M420.777,209.013a3.576,3.576,0,0,1,1.622,2.812l-.081,28.294c0,1.032-.734,1.449-1.631.93l-35.824-20.681a3.576,3.576,0,0,1-1.624-2.812l.079-28.294c0-1.036.736-1.452,1.635-.932Z" transform="translate(-383.239 -188.106)" fill="#a9aaff"/>
          </g>
        </g>
      </g>
      <g id="Group_72" data-name="Group 72" transform="translate(193.637 241.412)">
        <g id="Group_69" data-name="Group 69" opacity="0.37">
          <g id="Group_68" data-name="Group 68">
            <path id="Path_42" data-name="Path 42" d="M221.376,219.692a2.316,2.316,0,0,1,1.049,1.818l-.053,18.281c0,.666-.474.936-1.054.6l-23.146-13.362a2.312,2.312,0,0,1-1.049-1.816l.051-18.281c0-.668.475-.937,1.058-.6Z" transform="translate(-197.123 -206.185)" fill="#dcf3fc"/>
          </g>
        </g>
        <g id="Group_71" data-name="Group 71" transform="translate(8.501 32.525)" opacity="0.47">
          <g id="Group_70" data-name="Group 70">
            <path id="Path_43" data-name="Path 43" d="M225.883,236.935a2.312,2.312,0,0,1,1.049,1.818l-.053,18.28c0,.668-.473.937-1.054.6l-23.146-13.362a2.315,2.315,0,0,1-1.049-1.816l.051-18.281c0-.668.475-.937,1.056-.6Z" transform="translate(-201.63 -223.428)" fill="#d6d6ff"/>
          </g>
        </g>
      </g>
      <g id="Group_83" data-name="Group 83" transform="translate(251.65)">
        <g id="Group_78" data-name="Group 78">
          <path id="Path_44" data-name="Path 44" d="M433.115,185.071c.128.1.256.209.385.315q1.658,1.358,3.261,2.848l.385.357q1.621,1.528,3.18,3.178c.089.094.177.183.264.277q1.664,1.777,3.242,3.672l.036.043q1.615,1.947,3.133,4l0,0c.924,1.252,1.811,2.545,2.675,3.85.536.811,1.039,1.645,1.551,2.473.424.688.864,1.367,1.271,2.067.194.332.375.672.564,1.005.668,1.181,1.32,2.369,1.935,3.576.066.13.136.258.2.389q1.109,2.2,2.1,4.45c.032.075.064.153.1.228,4.082,9.386,6.455,19.215,6.43,28.3l17.161-9.973a69.835,69.835,0,0,0-5.133-25.083l.026-.015q-.362-.934-.749-1.864c-.187-.449-.381-.9-.575-1.343-.034-.077-.066-.153-.1-.23s-.074-.172-.111-.257q-.41-.931-.843-1.852-.478-1.019-.981-2.028c-.053-.1-.109-.206-.16-.309-.066-.132-.136-.26-.2-.39-.273-.536-.545-1.071-.828-1.6-.357-.668-.738-1.32-1.111-1.979-.187-.332-.366-.668-.558-1-.075-.13-.145-.264-.221-.4-.336-.57-.709-1.117-1.056-1.681-.509-.828-1.013-1.658-1.547-2.467-.087-.128-.162-.264-.247-.392q-1.177-1.76-2.427-3.459h0v0q-.838-1.135-1.707-2.239-.7-.894-1.426-1.764l-.036-.043-.017-.023q-.733-.88-1.483-1.735-.739-.838-1.494-1.654c-.081-.087-.166-.172-.247-.258s-.179-.187-.268-.281c-.351-.37-.7-.743-1.054-1.105q-.8-.812-1.617-1.6c-.168-.16-.34-.313-.507-.472-.128-.121-.257-.24-.387-.36-.264-.245-.526-.5-.794-.738q-.846-.764-1.707-1.49c-.251-.211-.506-.413-.758-.619-.128-.106-.256-.211-.385-.315-.189-.151-.375-.311-.564-.46-.558-.44-1.119-.87-1.684-1.285-.409-.3-.822-.589-1.234-.877-.075-.053-.149-.108-.224-.158s-.14-.1-.211-.151q-.809-.555-1.63-1.077T443.1,170.1c-.124-.075-.251-.147-.377-.221l-163.85-94.6c-.408-.236-.815-.462-1.219-.683q-.792-.427-1.573-.813c-.338-.168-.674-.321-1.011-.477-.081-.038-.164-.079-.245-.115-.1-.045-.2-.1-.3-.141Q273.759,72.7,273,72.4q-.778-.311-1.549-.583c-.089-.03-.174-.055-.262-.085s-.157-.051-.236-.077c-.347-.117-.694-.236-1.039-.34-.532-.162-1.062-.307-1.586-.438-.253-.064-.5-.111-.753-.168-.111-.025-.221-.051-.332-.074-.162-.034-.326-.077-.489-.109q-.849-.164-1.679-.277c-.341-.045-.675-.07-1.013-.1-.117-.011-.238-.026-.355-.038s-.228-.026-.341-.034c-.609-.042-1.211-.062-1.8-.058-.262,0-.515.026-.773.036-.2.008-.4.015-.6.028s-.417.009-.619.028a20.959,20.959,0,0,0-2.213.323l-.04.009c-.162.034-.311.094-.472.13a19.573,19.573,0,0,0-2.171.6c-.083.03-.16.068-.241.1-.119.043-.23.1-.347.141a18.475,18.475,0,0,0-2.52,1.2L234.4,82.577a18.674,18.674,0,0,1,2.52-1.2c.117-.045.23-.1.347-.142a19.243,19.243,0,0,1,2.416-.7c.158-.038.307-.1.468-.13a21.476,21.476,0,0,1,2.871-.36c.2-.013.4-.021.6-.028a24.1,24.1,0,0,1,2.918.058c.117.009.238.025.356.036a28.266,28.266,0,0,1,3.178.489c.111.023.221.049.332.074a33.5,33.5,0,0,1,3.378.945c.079.026.158.049.236.077q1.794.614,3.644,1.46c.083.036.166.077.247.117,1.253.579,2.518,1.23,3.8,1.971l163.85,94.6c1.3.749,2.577,1.567,3.84,2.443.076.051.149.106.224.158Q431.4,183.683,433.115,185.071Z" transform="translate(-222.095 -70.014)" fill="#a3dff8"/>
          <path id="Path_45" data-name="Path 45" d="M378.956,168.147q-.028-.922-.087-1.856t-.149-1.865c-.058-.624-.128-1.252-.209-1.881s-.172-1.285-.273-1.928-.213-1.292-.336-1.939q-.187-1-.405-2c-.147-.668-.3-1.339-.47-2.009s-.345-1.358-.534-2.037-.385-1.352-.592-2.028-.415-1.324-.638-1.984-.445-1.305-.681-1.956q-.342-.942-.707-1.881l-17.159,9.973q.365.939.705,1.881.354.976.683,1.956t.636,1.984q.311,1.013.592,2.028t.536,2.037c.166.67.321,1.341.468,2.009s.281,1.337.406,2q.184.971.336,1.939c.1.645.194,1.286.275,1.928s.149,1.256.209,1.881.108,1.247.147,1.865.068,1.241.087,1.856c.017.581.026,1.158.025,1.732L360.7,573c0,1.458-.077,2.856-.2,4.208-.011.123-.025.241-.038.362q-.187,1.859-.523,3.58c-.028.153-.06.306-.091.457q-.345,1.664-.824,3.19c-.06.19-.124.375-.187.564a28.627,28.627,0,0,1-1.073,2.745c-.043.094-.079.2-.123.29a23.986,23.986,0,0,1-1.543,2.794c-.076.119-.164.223-.241.34a21.365,21.365,0,0,1-1.484,1.958c-.191.224-.391.438-.59.651a19.557,19.557,0,0,1-1.437,1.39c-.208.181-.411.37-.624.539a18.173,18.173,0,0,1-2.22,1.545l17.161-9.973a18.143,18.143,0,0,0,2.22-1.545c.213-.17.415-.358.623-.537a19.607,19.607,0,0,0,1.439-1.392c.2-.215.4-.426.59-.651a21,21,0,0,0,1.483-1.958c.079-.117.168-.221.243-.34.017-.026.038-.049.055-.076a24.078,24.078,0,0,0,1.449-2.626c.013-.03.025-.062.038-.09.045-.1.081-.2.126-.3.266-.585.524-1.173.756-1.8.113-.305.207-.63.313-.945.064-.189.128-.373.189-.566.053-.173.117-.334.168-.509q.28-.953.511-1.958c.053-.234.094-.481.143-.719.032-.153.062-.306.092-.46.045-.234.1-.46.142-.7.1-.6.194-1.209.273-1.833.043-.341.073-.7.108-1.047.013-.121.026-.239.038-.362.013-.147.034-.289.045-.438.049-.592.087-1.2.111-1.807s.041-1.226.043-1.854l0-.109,1.115-393.15Q378.98,169.018,378.956,168.147Z" transform="translate(-120.089 -7.656)" fill="#4bc0f2"/>
          <g id="Group_73" data-name="Group 73" transform="translate(0 9.972)">
            <path id="Path_46" data-name="Path 46" d="M431.352,174.5c21.188,12.153,38.325,41.62,38.257,65.823l-1.115,390.533c-.07,24.186-17.319,33.95-38.508,21.8L266.136,558.682c-21.188-12.151-38.327-41.637-38.257-65.823l1.115-390.531c.068-24.2,17.318-33.949,38.508-21.8Z" transform="translate(-227.879 -75.3)" fill="#0986bc"/>
          </g>
          <g id="Group_77" data-name="Group 77" transform="translate(13.941 75.074)">
            <g id="Group_74" data-name="Group 74" transform="translate(82.189 12.645)">
              <path id="Path_47" data-name="Path 47" d="M325.759,141.55a10.215,10.215,0,0,1,4.633,8.024c-.008,2.965-2.1,4.157-4.663,2.677l-42.252-24.395a10.23,10.23,0,0,1-4.635-8.043c.009-2.948,2.1-4.138,4.665-2.658Z" transform="translate(-278.843 -116.518)" fill="#e4fbf7"/>
            </g>
            <g id="Group_75" data-name="Group 75" transform="translate(89.123 402.298)">
              <ellipse id="Ellipse_4" data-name="Ellipse 4" cx="10.23" cy="17.662" rx="10.23" ry="17.662" transform="translate(0 10.281) rotate(-30.162)" fill="#e4fbf7"/>
            </g>
            <g id="Group_76" data-name="Group 76">
              <path id="Path_48" data-name="Path 48" d="M446.235,228.353a8.382,8.382,0,0,1,3.842,6.6l-.932,325.7c-.006,2.425-1.737,3.4-3.867,2.184L239.112,444.823a8.38,8.38,0,0,1-3.842-6.6l.932-325.7c.006-2.427,1.737-3.406,3.867-2.186Z" transform="translate(-235.27 -109.814)" fill="#f9fbfc"/>
            </g>
          </g>
          <path id="Path_49" data-name="Path 49" d="M361.944,270.227h0a2.435,2.435,0,0,1-2.435-2.435V194.747a2.435,2.435,0,0,1,2.435-2.435h0a2.435,2.435,0,0,1,2.435,2.435v73.045A2.435,2.435,0,0,1,361.944,270.227Z" transform="translate(-111.222 36.636)" fill="#f9fbfc"/>
          <path id="Path_50" data-name="Path 50" d="M361.944,318.418h0a2.435,2.435,0,0,1-2.435-2.435V242.938a2.435,2.435,0,0,1,2.435-2.435h0a2.435,2.435,0,0,1,2.435,2.435v73.045A2.435,2.435,0,0,1,361.944,318.418Z" transform="translate(-111.222 78.661)" fill="#f9fbfc"/>
          <path id="Path_51" data-name="Path 51" d="M361.944,361.094h0a2.435,2.435,0,0,1-2.435-2.435V320.817a2.435,2.435,0,0,1,2.435-2.433h0a2.435,2.435,0,0,1,2.435,2.433v37.842A2.435,2.435,0,0,1,361.944,361.094Z" transform="translate(-111.222 146.2)" fill="#113c7a"/>
        </g>
        <g id="Group_80" data-name="Group 80" transform="translate(32.293 223.29)">
          <path id="Path_53" data-name="Path 53" d="M418.913,287.814a9.686,9.686,0,0,1,4.4,7.605l-.053,18.523c-.008,2.8-1.988,3.933-4.429,2.524L249.4,218.645a9.691,9.691,0,0,1-4.4-7.622l.053-18.523c.008-2.788,1.988-3.916,4.429-2.507Z" transform="translate(-244.999 -189.386)" fill="#e3f5fd"/>
        </g>
        <path id="Path_54" data-name="Path 54" d="M335.126,203.515a58.553,58.553,0,0,1,2.1,9.841,46.579,46.579,0,0,1,.349,5.747c0,.572-.017,1.132-.042,1.684,0,.083-.008.17-.011.253-.026.524-.064,1.037-.109,1.545-.009.1-.019.194-.03.292-.051.506-.109,1-.181,1.492-.1.662-.181,1.134-.274,1.6-.119.6-.228,1.058-.343,1.511-.021.075-.038.155-.058.23q-.175.659-.375,1.286c-.025.077-.051.153-.076.228-.14.422-.287.839-.445,1.241-.2.5-.366.883-.538,1.251-.245.524-.432.885-.626,1.239l-.113.2q-.294.521-.611,1.011c-.034.053-.07.1-.1.155-.225.339-.456.672-.7.986s-.5.628-.762.921c-.036.041-.072.085-.109.124-.251.279-.509.545-.775.8-.049.049-.1.1-.151.145-.268.251-.539.492-.821.722-.043.036-.089.07-.132.1q-.422.337-.862.643c-.366.253-.677.445-.994.628-.06.036-.119.07-.179.1q-.461.26-.943.489l-.2.091c-.33.151-.666.292-1.007.421-.283.1-.462.153-.64.209-.111-12.161-8.652-26.854-19.2-32.941-10.648-6.147-19.3-1.215-19.34,11,.017.026.309.515.877,1.379-.251-.347-.5-.694-.749-1.049-.475-.69-.8-1.17-1.118-1.654-.057-.089-.115-.175-.174-.264q-.506-.778-.994-1.569c-.07-.111-.138-.225-.207-.338-.33-.541-.658-1.087-.975-1.637-.343-.6-.647-1.143-.945-1.692-.059-.106-.117-.211-.174-.317q-.444-.823-.866-1.656l-.153-.3q-.4-.8-.785-1.607c-.34-.722-.6-1.3-.851-1.869-.053-.119-.1-.236-.155-.355q-.373-.857-.722-1.72c-.3-.745-.507-1.29-.711-1.837-.034-.092-.068-.181-.1-.272q-.317-.866-.609-1.732c-.04-.115-.077-.232-.115-.347q-.589-1.774-1.07-3.552c-.032-.117-.064-.234-.094-.351q-.229-.863-.43-1.722c-.025-.1-.045-.2-.07-.306q-.187-.82-.349-1.635c-.151-.766-.251-1.341-.345-1.915-.019-.125-.04-.247-.059-.37-.089-.573-.17-1.147-.239-1.716-.085-.73-.14-1.266-.185-1.8-.008-.1-.017-.192-.025-.29-.045-.556-.079-1.113-.1-1.664-.005-.119-.009-.238-.013-.355-.021-.568-.034-1.132-.032-1.694a37.418,37.418,0,0,1,.379-5.325,26.343,26.343,0,0,1,2.147-7.39c.2-.428.415-.841.637-1.243,5.144-9.235,16.016-11.38,28.575-4.129,11.272,6.508,21.145,19,26.724,32.43.368.885.722,1.771,1.051,2.661Q334.527,201.534,335.126,203.515Zm-28.512.915c6.5,3.752,11.768.73,11.791-6.719.021-7.468-5.217-16.539-11.715-20.29-6.483-3.744-11.77-.747-11.791,6.719-.021,7.449,5.232,16.548,11.716,20.29" transform="translate(-186.75 8.571)" fill="url(#linear-gradient)"/>
        <path id="Path_55" data-name="Path 55" d="M335.126,203.515a58.553,58.553,0,0,1,2.1,9.841,46.579,46.579,0,0,1,.349,5.747c0,.572-.017,1.132-.042,1.684,0,.083-.008.17-.011.253-.026.524-.064,1.037-.109,1.545-.009.1-.019.194-.03.292-.051.506-.109,1-.181,1.492-.1.662-.181,1.134-.274,1.6-.119.6-.228,1.058-.343,1.511-.021.075-.038.155-.058.23q-.175.659-.375,1.286c-.025.077-.051.153-.076.228-.14.422-.287.839-.445,1.241-.2.5-.366.883-.538,1.251-.245.524-.432.885-.626,1.239l-.113.2q-.294.521-.611,1.011c-.034.053-.07.1-.1.155-.225.339-.456.672-.7.986s-.5.628-.762.921c-.036.041-.072.085-.109.124-.251.279-.509.545-.775.8-.049.049-.1.1-.151.145-.268.251-.539.492-.821.722-.043.036-.089.07-.132.1q-.422.337-.862.643c-.366.253-.677.445-.994.628-.06.036-.119.07-.179.1q-.461.26-.943.489l-.2.091c-.33.151-.666.292-1.007.421-.283.1-.462.153-.64.209-.111-12.161-8.652-26.854-19.2-32.941-10.648-6.147-19.3-1.215-19.34,11,.017.026.309.515.877,1.379-.251-.347-.5-.694-.749-1.049-.475-.69-.8-1.17-1.118-1.654-.057-.089-.115-.175-.174-.264q-.506-.778-.994-1.569c-.07-.111-.138-.225-.207-.338-.33-.541-.658-1.087-.975-1.637-.343-.6-.647-1.143-.945-1.692-.059-.106-.117-.211-.174-.317q-.444-.823-.866-1.656l-.153-.3q-.4-.8-.785-1.607c-.34-.722-.6-1.3-.851-1.869-.053-.119-.1-.236-.155-.355q-.373-.857-.722-1.72c-.3-.745-.507-1.29-.711-1.837-.034-.092-.068-.181-.1-.272q-.317-.866-.609-1.732c-.04-.115-.077-.232-.115-.347q-.589-1.774-1.07-3.552c-.032-.117-.064-.234-.094-.351q-.229-.863-.43-1.722c-.025-.1-.045-.2-.07-.306q-.187-.82-.349-1.635c-.151-.766-.251-1.341-.345-1.915-.019-.125-.04-.247-.059-.37-.089-.573-.17-1.147-.239-1.716-.085-.73-.14-1.266-.185-1.8-.008-.1-.017-.192-.025-.29-.045-.556-.079-1.113-.1-1.664-.005-.119-.009-.238-.013-.355-.021-.568-.034-1.132-.032-1.694a37.418,37.418,0,0,1,.379-5.325,26.343,26.343,0,0,1,2.147-7.39c.2-.428.415-.841.637-1.243,5.144-9.235,16.016-11.38,28.575-4.129,11.272,6.508,21.145,19,26.724,32.43.368.885.722,1.771,1.051,2.661Q334.527,201.534,335.126,203.515Zm-28.512.915c6.5,3.752,11.768.73,11.791-6.719.021-7.468-5.217-16.539-11.715-20.29-6.483-3.744-11.77-.747-11.791,6.719-.021,7.449,5.232,16.548,11.716,20.29" transform="translate(-186.75 8.571)" fill="none"/>
        <g id="Group_82" data-name="Group 82" transform="translate(32.178 263.272)">
          <path id="Path_57" data-name="Path 57" d="M418.852,309.188a9.693,9.693,0,0,1,4.4,7.622l-.053,18.525c-.007,2.8-1.988,3.916-4.429,2.507L249.339,240.019a9.657,9.657,0,0,1-4.4-7.6l.053-18.525c.008-2.8,1.988-3.933,4.429-2.524Z" transform="translate(-244.938 -210.76)" fill="#e3f5fd"/>
        </g>
        <path id="Path_58" data-name="Path 58" d="M332.767,294.4c5.783,3.339,10.448,11.434,10.429,18.063l-.013,4.252c-.019,6.645-4.714,9.32-10.5,5.981l-54.8-31.638c-5.783-3.339-10.463-11.427-10.444-18.072l.013-4.25c.019-6.628,4.727-9.312,10.51-5.974Z" transform="translate(-192.814 96.894)" fill="#9c9dff"/>
      </g>
      <ellipse id="Ellipse_5" data-name="Ellipse 5" cx="62.267" cy="36.999" rx="62.267" ry="36.999" transform="translate(211.159 610.255)" opacity="0.32" fill="url(#linear-gradient-2)"/>
      <g id="Group_85" data-name="Group 85" transform="translate(234.832 371.889)">
        <path id="Path_59" data-name="Path 59" d="M276.138,292.676s3.72-2.479,4.65-3.718,2.169-8.369.93-8.679-2.169,4.65-2.169,4.65-.311-13.017-1.86-14.877-6.508,7.437-6.819,8.988-1.549,8.058-1.549,8.058S271.181,292.676,276.138,292.676Z" transform="translate(-174.333 -268.74)" fill="#ff9d6f"/>
        <path id="Path_60" data-name="Path 60" d="M225.218,322.536s-9.718,9.739-2.9,21.516,53.307-17.355,58.264-21.7,37.5-33.471,39.36-37.191-2.169-7.437-7.128-6.817-24.793,21.694-40.29,31.611C272.525,309.96,235.555,318.375,225.218,322.536Z" transform="translate(-218.138 -261.23)" fill="#292a74"/>
        <path id="Path_61" data-name="Path 61" d="M225.87,415.052s-.8,5.868.268,8.267c1.066,2.133,5.332,3.733,8.267,1.6a84.9,84.9,0,0,0,8-7.468s8.535-4.533,9.335-6.934-2.133-4.533-4.534-4-9.333,4.8-12.534,4.8S226.938,412.119,225.87,415.052Z" transform="translate(-213.096 -147.655)" fill="#292a74"/>
        <path id="Path_62" data-name="Path 62" d="M221.074,344.791s7.464,123.183,8.394,126.752,10.612,5.617,12.408-.051c1.139-3.6,3.95-117.594,3.95-117.594Z" transform="translate(-217.091 -202.286)" fill="url(#linear-gradient-3)"/>
        <path id="Path_63" data-name="Path 63" d="M239.129,418.72a1.909,1.909,0,0,0-.654,1.435c-.017,1.694.062,5.47,1.02,6.939a7.17,7.17,0,0,0,9.267,1.732c3.456-1.875,14.087-9.822,16.246-11.582a6.355,6.355,0,0,0,2.148-3.4,1.929,1.929,0,0,0-1.092-2.235c-1.507-.671-4.086-1.509-6.389-.736-3.522,1.185-7.956,5-12.751,4.793A11.782,11.782,0,0,0,239.129,418.72Z" transform="translate(-201.672 -143.993)" fill="#292a74"/>
        <path id="Path_64" data-name="Path 64" d="M266.541,348.178c-.539-5.119-6.666-6.783-12.308-5.04-10.765-.581-27.434-.121-28.018,8.235-.866,12.37,4.934,21.2,10.529,27.2,4.135,4.436,6.885,12.924,8.041,17.061.981,32.672,3.144,78.739,4.5,83.149,2.177,7.1,12.892,6.783,13.377-.134C264.829,455.279,266.541,348.178,266.541,348.178Z" transform="translate(-212.611 -204.343)" fill="url(#linear-gradient-4)"/>
        <path id="Path_65" data-name="Path 65" d="M272.432,390.059c-1.264,6.321-19.279,9.48-29.814,7.8s-21.88-6.855-21.505-19.068c0,0,2-29.2,1.2-34.4s-2.8-14.4-2.8-24,6.04-16.708,6.04-16.708,5.9-6.743,24.44-2.95c0,0,15.107,3.29,22.06,14.458,0,0,4.8,12.268,3.2,37.87S272.432,390.059,272.432,390.059Z" transform="translate(-218.474 -242.367)" fill="#292a74"/>
        <path id="Path_66" data-name="Path 66" d="M228,293.394s1.6,9.333,0,13.6c-.266,2.133,9.069,9.333,17.336,7.468,4.8-1.068,4.533-3.469,4.533-3.469s-4-6.666-3.467-13.068S233.6,292.061,228,293.394Z" transform="translate(-210.958 -248.584)" fill="#ff7c40"/>
        <g id="Group_84" data-name="Group 84" transform="translate(4.241 4.006)">
          <path id="Path_67" data-name="Path 67" d="M265.215,293.368a22,22,0,1,1-22-22A22,22,0,0,1,265.215,293.368Z" transform="translate(-221.211 -271.365)" fill="#ff9d6f"/>
          <path id="Path_68" data-name="Path 68" d="M259.592,286.806s.266,22.039-4.535,26.489-12.17-4.165-23.953-6.926c-11.783-3.027,9.552-25.943,9.552-25.943Z" transform="translate(-215.588 -263.336)" fill="#ff9d6f"/>
        </g>
        <path id="Path_69" data-name="Path 69" d="M271.152,308.666s-2.092-8.6-1.4-9.3,3.488,3.022,3.488,3.022,1.394-8.833,2.556-9.763,5.812,3.72,6.509,6.275-2.79,12.785-4.184,13.017S271.848,312.849,271.152,308.666Z" transform="translate(-174.072 -248.623)" fill="#ff9d6f"/>
        <path id="Path_70" data-name="Path 70" d="M247.045,311.785s-9.761,4.65-5.578,16.737,35.331,16.735,39.049,13.017,19.991-22.78,24.64-37.191c0,0-1.86-5.58-9.3-3.254,0,0-17.667,22.314-20.456,24.638S251.695,310.855,247.045,311.785Z" transform="translate(-199.941 -241.515)" fill="#292a74"/>
        <path id="Path_71" data-name="Path 71" d="M226.376,278.483a28.1,28.1,0,0,1,18.664-9.141c11.808-.762,17.521,3.048,22.092,2.667s8.762,3.427,7.237,9.141-4.951,11.427-12.57,11.427-9.522-1.143-9.522-1.143,6.095,2.667,6.857,8a118.772,118.772,0,0,1,.76,13.332h-1.9S256.468,304,253.421,304s-3.048,9.522-.381,11.046l2.665,1.524s-5.114,9.477-7.888,9.88S235.9,320,235.9,320s-15.237-7.236-16.759-19.044S226.376,278.483,226.376,278.483Z" transform="translate(-218.963 -269.241)" fill="#843837"/>
      </g>
      <g id="Group_96" data-name="Group 96" transform="translate(0 308.798)">
        <g id="Group_90" data-name="Group 90" transform="translate(0 16.161)">
          <ellipse id="Ellipse_6" data-name="Ellipse 6" cx="62.267" cy="36.999" rx="62.267" ry="36.999" transform="translate(15.925 223.992)" opacity="0.32" fill="url(#linear-gradient-2)"/>
          <g id="Group_89" data-name="Group 89">
            <g id="Group_86" data-name="Group 86" transform="translate(45.929 115.166)">
              <path id="Path_72" data-name="Path 72" d="M118.627,332.533s4.186,26.5,7.671,41.141c0,0,.7,24.406,1.394,32.774s2.79,26.5,2.79,26.5a5.011,5.011,0,0,0,5.23.7s3.486-51.951,4.184-60.318,3.137-46.021,3.137-46.021S135.015,319.982,118.627,332.533Z" transform="translate(-117.905 -287.901)" fill="#f5b697"/>
              <path id="Path_73" data-name="Path 73" d="M132.49,326.918s4.186,26.5,7.671,41.141c0,0,.7,24.406,1.394,32.774s2.79,26.5,2.79,26.5a5.008,5.008,0,0,0,5.231.7s3.486-51.949,4.184-60.316,1.045-45.674,1.045-45.674S148.878,314.366,132.49,326.918Z" transform="translate(-105.619 -292.744)" fill="#f5b697"/>
              <path id="Path_74" data-name="Path 74" d="M124.2,314.254s-9.878,10.808-4.184,47.416c.349,5.231,3.835,18.712,3.835,18.712a59.507,59.507,0,0,0,28.241-3.835c15.341-5.927,15.69-9.065,15.69-9.065s.7-45.906-2.79-57.761S124.2,314.254,124.2,314.254Z" transform="translate(-118.244 -305.417)" fill="#292a74"/>
              <path id="Path_75" data-name="Path 75" d="M144.506,375.843a5.384,5.384,0,0,0,2.441,4.708c2.79,2.092,8.018,5.927,8.89,8.194,0,1.743-6.625-.176-9.588-1.745a22.032,22.032,0,0,1-5.753-5.229l.175,1.567a2.954,2.954,0,0,1-1.918-.871c-.871-.871.175-6.275.175-6.275Z" transform="translate(-100.376 -243.002)" fill="#5167b0"/>
              <path id="Path_76" data-name="Path 76" d="M130.643,382.22a5.384,5.384,0,0,0,2.441,4.708c2.79,2.092,8.018,5.927,8.89,8.192,0,1.745-6.624-.173-9.588-1.743a22,22,0,0,1-5.753-5.229l.175,1.567a2.954,2.954,0,0,1-1.918-.871c-.871-.871.175-6.276.175-6.276Z" transform="translate(-112.662 -237.351)" fill="#5167b0"/>
            </g>
            <path id="Path_77" data-name="Path 77" d="M146.4,273.382s9.054,1.43,14.915,21.1c3.508,13,8.6,14.179,14.483,15.356s30.574,0,32.534,0,4.31,4.312,1.567,7.447-36.844,6.272-43.508,6.272-21.95-12.544-28.22-22.735S138.167,272.6,146.4,273.382Z" transform="translate(-56.919 -218.664)" fill="#a9aaff"/>
            <path id="Path_78" data-name="Path 78" d="M179.063,250.084s9.014,11.563,7.055,24.5-13.326,12.348-15.286,19.4,5.487,17.246-4.7,23.91-14.894,5.095-17.638,19.206-12.542,21.558-29.4,23.125-28.614-18.813-24.3-33.709S114,316.325,117.134,304.173s1.96-21.754,12.542-26.456,6.664-22.539,17.246-28.026C157.731,244.087,171.224,241.067,179.063,250.084Z" transform="translate(-93.895 -244.361)" fill="#055070"/>
            <g id="Group_87" data-name="Group 87" transform="translate(38.132 6.305)">
              <path id="Path_79" data-name="Path 79" d="M137.672,271.332s-19.387,13.852-21.305,18.459-4.625,18.949,1.669,25.981c10.9,12.178,4.336,33.1,5.776,39.253s16.229,6.919,26.5,4.932,19.775-7.237,19.387-19.208,2.778-28.394,3.429-33.786-.057-18.938-2.56-28.018c-.528-1.915-6.975-3.927-6.975-3.927S156.784,270.521,137.672,271.332Z" transform="translate(-114.111 -226.851)" fill="#888bff"/>
              <path id="Path_80" data-name="Path 80" d="M143.929,274.192a1.985,1.985,0,0,0,.008.624c.213,1.42.92,5.055,1.053,6.574.126,1.454-1.524,3.976-5.453,3.9s-10.593-1.722-12.811-6.4a108.343,108.343,0,0,0-.653-13.824Z" transform="translate(-103.51 -232.323)" fill="#ff7c40"/>
              <path id="Path_81" data-name="Path 81" d="M159.383,263.45c-2.1-11.236-11.006-17.616-21.075-15.26,0,0-10.916,1.094-15.763,10.68s2.273,17.65,6.834,22.733c1.924,2.086,3.376,3.7,4.293,4.723.332.387.658.781,1.005,1.132l.1.111.011-.009a22.8,22.8,0,0,0,9.329,5.663c4.391,1.309,9.584.56,12.387-2.43S161.487,274.689,159.383,263.45Z" transform="translate(-108.075 -247.704)" fill="#ff9d6f"/>
            </g>
            <path id="Path_82" data-name="Path 82" d="M162.434,272.224s-8.035.785-12.74-4.7-11.367,0-16.854-4.7a17.421,17.421,0,0,1,0,11.759c-2.352,5.879-3.137,14.9-3.137,14.9L119.514,273.4V259.29l12.934-12.151,17.246-.783,8.232,7.839S163.216,266.344,162.434,272.224Z" transform="translate(-71.19 -242.593)" fill="#055070"/>
            <g id="Group_88" data-name="Group 88" transform="translate(38.768 74.903)">
              <path id="Path_84" data-name="Path 84" d="M123.251,284.287s-12.934-3.135-7.447,14.5,23.908,30.572,30.572,29.787,33.709-29.4,33.709-32.924a5.085,5.085,0,0,0-6.272-5.095c-3.137.785-23.91,23.125-25.87,22.341S133.833,291.736,123.251,284.287Z" transform="translate(-114.448 -284.072)" fill="#a9aaff"/>
              <path id="Path_85" data-name="Path 85" d="M148.605,296.583a3.883,3.883,0,0,1-2.59-4.965c1.081-3.886,8.2-6.907,9.282-7.124s11.657,1.943,12.089,3.239-1.943,1.943-4.535,1.294a43.149,43.149,0,0,0-6.476-.862s2.807,3.022,2.59,4.316a8.162,8.162,0,0,1-3.884,4.965c-2.16,1.079-4.75-1.294-4.75-1.294Z" transform="translate(-86.647 -283.711)" fill="#ff9d6f"/>
            </g>
            <path id="Path_86" data-name="Path 86" d="M172.48,295.882s8.547-7.275,9.024-5.974-2.918,4.912-2.918,4.912,11.44-4.382,11.574-2.9-6.04,6.145-7.671,7.247-7.46,2.682-7.46,2.682S171.829,297.568,172.48,295.882Z" transform="translate(-24.327 -204.134)" fill="#ff9d6f"/>
          </g>
        </g>
        <g id="Group_91" data-name="Group 91" transform="translate(104.276)" opacity="0.57">
          <path id="Path_87" data-name="Path 87" d="M154.268,278.755a11.288,11.288,0,0,0-5.091,8.848l.34,120.169c.023,7.656,5.466,10.789,12.1,6.96L233.2,373.405a11.29,11.29,0,0,0,5.093-8.848l-.341-120.169c-.021-7.656-5.464-10.789-12.1-6.96Z" transform="translate(-149.177 -235.794)" fill="#51e7e4"/>
        </g>
        <g id="Group_95" data-name="Group 95" transform="translate(118.834 52.604)">
          <g id="Group_94" data-name="Group 94">
            <g id="Group_92" data-name="Group 92">
              <path id="Path_88" data-name="Path 88" d="M158.411,297.589a3.334,3.334,0,0,0-1.517,2.618l.019,6.381c0,.968.685,1.356,1.526.87l58.366-33.7a3.336,3.336,0,0,0,1.517-2.626l-.019-6.381c0-.958-.685-1.349-1.526-.862Z" transform="translate(-156.895 -263.682)" fill="#fff"/>
            </g>
            <g id="Group_93" data-name="Group 93" transform="translate(0.04 13.888)">
              <path id="Path_89" data-name="Path 89" d="M158.433,304.952a3.336,3.336,0,0,0-1.517,2.626l.019,6.381c0,.966.685,1.349,1.526.862l58.366-33.7a3.324,3.324,0,0,0,1.515-2.618l-.017-6.381c0-.968-.685-1.356-1.526-.87Z" transform="translate(-156.916 -271.045)" fill="#fff"/>
            </g>
          </g>
          <path id="Path_90" data-name="Path 90" d="M171.487,299.856a7.922,7.922,0,0,0-3.593,6.223l0,1.464c.008,2.29,1.624,3.212,3.616,2.062l18.878-10.9a7.921,7.921,0,0,0,3.6-6.225l0-1.466c-.006-2.282-1.63-3.208-3.622-2.058Z" transform="translate(-147.147 -241.72)" fill="#fff"/>
        </g>
      </g>
    </g>
  </g>
</svg>
