<svg xmlns="http://www.w3.org/2000/svg" xmlns:xlink="http://www.w3.org/1999/xlink" width="165.137" height="103.482" viewBox="0 0 165.137 103.482"><defs><clipPath id="a"><path d="M622.846,241.893l15.528,41.417,7.35-9.461,11.552,11.782,4.31-4.226,4.31-4.226L654.344,265.4l9.6-7.162Z" transform="translate(-622.846 -241.893)" fill="none"/></clipPath></defs><g transform="translate(-110.583 -128.686)"><g transform="translate(110.583 135.948)"><g transform="translate(0 41.915)"><g transform="translate(0 48.995)"><path d="M110.78,665.366l-.2,1.638,3.079,2.034L115.5,667.6l-1.441-1.836-3.079-2.034Z" transform="translate(-110.583 -663.728)" fill="#3b3387"/></g><g transform="translate(0.688)"><path d="M115.535,397.367l-.6,4.975,3.665,22.316-4.268,22.2,2.991,1.02,10.393-26.328.732-8.08-.912-16.769Z" transform="translate(-114.331 -396.703)" fill="#292949"/></g></g><g transform="translate(10.363 42.26)"><path d="M179.945,400.476l.244,21.062L176.219,448.7h-3.052l-1.928-25.058-4.176-25.058Z" transform="translate(-167.064 -398.58)" fill="#292949"/><g transform="translate(6.121 49.752)"><path d="M200.425,669.732v1.65l3.3,1.65,1.65-1.65-1.65-1.65Z" transform="translate(-200.425 -669.732)" fill="#3b3387"/></g></g><g transform="translate(0.599 18.542)"><path d="M113.857,298.958c-.042,1.922.018,4.511.757,4.606a.671.671,0,0,0,.392-.117c1.277-.7,2.18-1.678,3.438-2.351a14.5,14.5,0,0,1,4.307-1.343,41.575,41.575,0,0,1,6.728-.694c2.448-.043,7.213.439,7.213.439a26.866,26.866,0,0,0,4.008-1.145,51.259,51.259,0,0,0,6.7-2.478c.682-.339,2.563-1.342,1.89-2.25-.509-.687-2.238-1.147-3.017-1.57a26.512,26.512,0,0,1-4.886-3.313,16.643,16.643,0,0,1-4.6-6.631,27.489,27.489,0,0,1-1.131-3.939c-.157-.722-.3-1.448-.425-2.175-.073-.413-.072-1.975-.374-2.234-3.06-2.629-3.96-4.933-7.665-4.359-8.454,1.309-7.855,1.684-9.741,5.827a46.276,46.276,0,0,0-2.077,7.929c-.351,2.169-.676,4.342-.929,6.523-.282,2.434-.476,4.879-.517,7.328C113.92,297.283,113.877,298.045,113.857,298.958Z" transform="translate(-113.847 -269.315)" fill="#474ebb"/></g><g transform="translate(1.015 0)"><g transform="translate(8.08 5.774)"><g transform="translate(0 2.361)"><path d="M162.177,224.462a.787.787,0,0,0,.134.212,1.719,1.719,0,0,0,.928.514,4.266,4.266,0,0,0,1.4,0c.629-.074.633-.438.764-.995a16.925,16.925,0,0,0,.288-1.845c.9-.074,1.969-.271,2.359-1.19a3.177,3.177,0,0,0,.187-.931l.39-3.936a3.9,3.9,0,0,0-.025-1.357,2.707,2.707,0,0,0-1.478-1.605,5.707,5.707,0,0,0-5.278-.155,2.908,2.908,0,0,0-1.151.983,4.7,4.7,0,0,0-.491,2.419l-.052,2.319a3.092,3.092,0,0,0,.646,2.446c.334.281.791.368,1.069.717a2.3,2.3,0,0,1,.258,1.571A1.9,1.9,0,0,0,162.177,224.462Z" transform="translate(-160.147 -212.601)" fill="#efbfa5"/></g><g transform="translate(4.385)"><path d="M186.735,204.235a1.3,1.3,0,0,1,.087.232c.112.419-.017.873.092,1.292.172.665.9,1.11.967,1.794.053.559-.362,1.057-.434,1.614-.079.609.271,1.215.166,1.814a4,4,0,0,1-.819,1.63c.106-.123.98-.013,1.218-.136a.924.924,0,0,0,.543-.675,7.339,7.339,0,0,1,.262-1.073c.23-.439.658-.743.835-1.216.241-.646-.06-1.367.017-2.052.117-1.037,1.086-1.951.831-2.963-.15-.594-.686-1-.965-1.55a7.88,7.88,0,0,1-.4-1.332,1.55,1.55,0,0,0-.826-1.061,7.551,7.551,0,0,0-.759-.145,9.468,9.468,0,0,1-1.185-.614,2.318,2.318,0,0,0-2.086.772,1.057,1.057,0,0,0,.084,1.4C184.9,202.757,186.305,203.35,186.735,204.235Z" transform="translate(-184.046 -199.732)" fill="#292949"/></g></g><g transform="translate(4.16 4.765)"><path d="M141.39,196.124a11.576,11.576,0,0,0-1.193.685,3.409,3.409,0,0,0-.966,2.4,16.5,16.5,0,0,0-.445,2.283,2.009,2.009,0,0,0,.635,1.484c.528.445,1.4.574,1.6,1.234.22.717-.566,1.543-.171,2.181.218.352.689.435,1.019.685a3.054,3.054,0,0,1,.742,1.153,1.4,1.4,0,0,0,.993.877,3.848,3.848,0,0,0-.123-1.914c-.147-.386-.611-1.111-.188-1.486.273-.318.867-.385.912-.8a.966.966,0,0,0-.2-.544,2.409,2.409,0,0,1-.019-2.2,3.13,3.13,0,0,1,1.665-1.486c.829-.33.714-.535,1-1.285.265-.69.677-.827,1.331-1.038a1.342,1.342,0,0,0,1.03-.839,1.557,1.557,0,0,0,.214-1.285,2.64,2.64,0,0,0-.747-.888,3.429,3.429,0,0,0-2.115-1.111c-.453,0-.892.181-1.344.174-.3,0-.6-.093-.9-.125a2.4,2.4,0,0,0-1.5.338c-.441.278-.453.6-.717,1.022A1.57,1.57,0,0,1,141.39,196.124Z" transform="translate(-138.784 -194.229)" fill="#292949"/></g><path d="M124.9,172.174c.114-.482.109-1.121-.345-1.32-.249-.109-.542-.03-.8-.1-.557-.156-.7-.854-.961-1.371a.427.427,0,0,0-.163-.2.7.7,0,0,0-.366-.017c-.568.028-.955-.558-1.47-.8a1.334,1.334,0,0,0-1.739.713c-.1.271-.108.569-.2.841-.39,1.1-2.074,1.464-2.2,2.629-.085.787.632,1.6.279,2.306-.226.453-.849.728-.817,1.233a.7.7,0,0,0,.673.588,1.4,1.4,0,0,0,.9-.334c.413-.311.737-.725,1.132-1.057a1.762,1.762,0,0,1,1.417-.487c.491.1.911.516,1.41.469.4-.038.716-.368,1.11-.439a3.66,3.66,0,0,1,1.106.152c.371.05.843-.112.88-.484a.944.944,0,0,1,.025-.27c.1-.235.507-.192.6-.427-.173-.314-.455-.226-.567-.628A2.162,2.162,0,0,1,124.9,172.174Z" transform="translate(-116.112 -168.262)" fill="#292949"/></g></g><g transform="translate(133.009 128.686)"><g transform="translate(46.071 78.503)"><path d="M505.531,573.305l-21.634-.24,2.138-16.536,17.725.2Z" transform="translate(-483.897 -556.53)" fill="#efefef"/></g><g transform="translate(47.593 82.282)" opacity="0.14"><path d="M492.193,577.923l18.724-.8.52,4.869Z" transform="translate(-492.193 -577.125)"/></g><g transform="translate(0 0.126)"><rect width="113.96" height="82.954" rx="7.265" fill="#fff"/></g><g transform="translate(0 0)"><path d="M232.808,130.439V201.5h113.96V130.439a1.753,1.753,0,0,0-1.753-1.753H234.561A1.753,1.753,0,0,0,232.808,130.439Z" transform="translate(-232.808 -128.686)" fill="#292949"/></g><g transform="translate(3.004 3.328)"><rect width="107.952" height="65.616" fill="#f7f7f7"/></g><g transform="translate(39.883 93.001)"><rect width="34.194" height="5.964" fill="#fff"/></g></g><g transform="translate(248.814 175.127)"><g transform="translate(2.971)"><g transform="translate(16.826 43.087)"><path d="M977.23,620.116l-1.169,1.374a31.818,31.818,0,0,1-4.221-3.931c.782-.379,1.327-1.474,2.344-.629C974.512,617.2,977.153,620.207,977.23,620.116Z" transform="translate(-971.84 -616.617)" fill="#b97262"/><g transform="translate(1.96 2.583)"><path d="M983.866,632.422a1.3,1.3,0,0,0-.247.919,3.479,3.479,0,0,1,.059.6,1.292,1.292,0,0,1-.19.508c-.451.819-2.023,2.965.167,3.006,1.989.037,3.263-3.259,3.939-4.894a.672.672,0,0,0,.072-.349.846.846,0,0,0-.186-.369c-.463-.622-1.157-1.581-1.815-.928-.281.279-.37.754-.688,1.032C984.715,632.174,984.036,632.207,983.866,632.422Z" transform="translate(-982.52 -630.694)" fill="#353a85"/></g></g><path d="M895.994,392.215c.38,2.588-.1,5.122-.352,7.658a25.942,25.942,0,0,0,.561,8.1c.62,3.1,1.3,6.188,2.165,9.227a42.866,42.866,0,0,0,3.758,8.56,1.613,1.613,0,0,1,.252.781c-.035.983-4.312,3.693-4.59,3.128-2.353-4.8-6.129-9.623-8.159-14.585a240.521,240.521,0,0,1-9.078-26.509c-.358-1.286-.687-2.761-.049-3.852a3.777,3.777,0,0,1,2.3-1.482c2.354-.74,6.6-2.355,8.958-.786C894.333,384.171,895.568,389.315,895.994,392.215Z" transform="translate(-880.139 -381.793)" fill="#3b3387"/></g><g transform="translate(0 0.826)"><g transform="translate(0 45.096)"><g transform="translate(4.076)"><path d="M888.085,638.112l-1.731-.034a35.935,35.935,0,0,1-.123-6.007c.786.38,1.907.1,2.006,1.475C888.27,633.992,887.971,638.11,888.085,638.112Z" transform="translate(-886.16 -632.071)" fill="#b97262"/></g><g transform="translate(0 4.896)"><path d="M867.99,658.756a1.1,1.1,0,0,0-.8.408,3.1,3.1,0,0,1-.373.443,1.085,1.085,0,0,1-.477.182c-.867.178-3.4.327-1.96,2.122,1.309,1.63,4.435.478,6.016-.057a.57.57,0,0,0,.289-.173.856.856,0,0,0,.129-.394c.118-.785.314-1.979-.578-2.078-.381-.042-.768.2-1.173.128C868.732,659.277,868.252,658.751,867.99,658.756Z" transform="translate(-863.947 -658.756)" fill="#353a85"/></g></g><g transform="translate(1.032)"><path d="M883.3,399.255c-.7,3.777-2.974,6.694-4.032,10.368-2.044,7.1-2.476,15.241-3.472,22.61-.076.565-.068,2.593-.068,2.593a14.239,14.239,0,0,1-4.348.212,246.422,246.422,0,0,1-1.379-44.412c.08-1.344.248-2.857,1.2-3.683a3.682,3.682,0,0,1,2.633-.642c2.445.083,6.948-.034,8.649,2.248C884.345,391.043,883.841,396.353,883.3,399.255Z" transform="translate(-869.573 -386.295)" fill="#3b3387"/></g></g></g><g transform="translate(206.382 135.948)"><rect width="30.775" height="59.693" transform="translate(0 0)" fill="#dddae8"/></g><g transform="translate(140.015 134.627)"><rect width="60.314" height="60.314" transform="translate(0 0)" fill="#dddae8"/></g><g transform="translate(215.094 138.774)"><ellipse cx="7.044" cy="6.755" rx="7.044" ry="6.755" transform="translate(0 0)" fill="#dbdddd"/></g><g transform="translate(211.186 157.006)"><g opacity="0.22"><rect width="22.94" height="2.281" fill="#59595b"/><g transform="translate(0 6.25)"><rect width="22.94" height="2.281" fill="#59595b"/></g></g><g transform="translate(0 11.972)" opacity="0.22"><rect width="22.94" height="2.281" fill="#59595b"/><g transform="translate(0 6.25)"><rect width="22.94" height="2.281" fill="#59595b"/></g></g><g transform="translate(0 31.037)" opacity="0.22"><rect width="22.94" height="2.281" fill="#59595b"/></g></g><g transform="translate(144.619 138.774)"><g transform="translate(0 19.467)" opacity="0.22"><rect width="51.107" height="2.019" fill="#59595b"/><g transform="translate(0 5.534)"><rect width="51.107" height="2.019" fill="#59595b"/></g></g><g transform="translate(0 30.067)" opacity="0.22"><rect width="51.107" height="2.019" fill="#59595b"/><g transform="translate(0 5.534)"><rect width="30.962" height="2.019" fill="#59595b"/></g></g><g transform="translate(0 41.414)" opacity="0.22"><rect width="30.962" height="2.019" fill="#59595b"/><g transform="translate(0 5.534)"><rect width="30.962" height="2.019" fill="#59595b"/></g></g><g transform="translate(0 10.003)" opacity="0.22"><rect width="51.107" height="2.019" fill="#59595b"/><g transform="translate(0 5.534)"><rect width="51.107" height="2.019" fill="#59595b"/></g></g><g transform="translate(0 0)" opacity="0.22"><rect width="51.107" height="2.019" fill="#59595b"/><g transform="translate(0 5.534)"><rect width="51.107" height="2.019" fill="#59595b"/></g></g></g><g transform="translate(241.917 141.722)"><g transform="translate(0 0)"><g transform="translate(7.857 5.291)"><path d="M873.032,238.375l2.728-.352a13.713,13.713,0,0,0-.213-2.181c.752-.29,1.618-.717,1.727-1.515a2.267,2.267,0,0,0-.067-.755l-.628-3.085a2.775,2.775,0,0,0-.353-1.022,2.329,2.329,0,0,0-1.657-.833,5.667,5.667,0,0,0-4.553,1.253,2.484,2.484,0,0,0-.744,1.045,3.367,3.367,0,0,0,.171,1.962l.522,1.772c.2.679.483,1.45,1.15,1.687a5.839,5.839,0,0,1,1.09.266C872.774,236.955,872.723,237.788,873.032,238.375Z" transform="translate(-869.182 -228.568)" fill="#b97262"/></g><path d="M828.523,204.794a6.692,6.692,0,0,0-.538-.725,13.071,13.071,0,0,1-1.291-1.465,1.694,1.694,0,0,1-.1-1.839,2.021,2.021,0,0,1,1.056-.651,7.813,7.813,0,0,1,4.1-.2c1.289.288,2.449.793,3.723.274a4.338,4.338,0,0,1,3.353.084c1.383.448,3.223.508,4.482,1.161a3.658,3.658,0,0,1,1.288,1.2,5.507,5.507,0,0,1,.188,5.821,7.871,7.871,0,0,1-.825,1.105,5.9,5.9,0,0,1-2.251,1.892c-.045-.794.6-3.32-.025-3.953-1-1-3.177-.579-4.37-.289-1.3.316-2.442,1.279-3.735,1.515a4.9,4.9,0,0,1-2.946-.712C829.633,207.445,829.125,205.72,828.523,204.794Z" transform="translate(-826.361 -199.731)" fill="#292949"/></g><g transform="translate(5.836 13.223)"><path d="M869.809,272.575A10.49,10.49,0,0,1,874,277.164c3.762,7.427,5.594,15.656,7.361,23.791.574,2.64,1.253,5.471,3.289,7.246a11.272,11.272,0,0,1-5.445.03,25.8,25.8,0,0,1-3.232-1.566,15.858,15.858,0,0,0-8.809-1.144,47.293,47.293,0,0,0-8.708,2.241,33.445,33.445,0,0,1-.236-6.377c.349-6.269,2.857-12.232,2.874-18.539.006-2.223-.3-4.481.191-6.649a5.52,5.52,0,0,1,5.682-4.395A6.5,6.5,0,0,1,869.809,272.575Z" transform="translate(-858.166 -271.799)" fill="#8cabef"/></g></g><g transform="translate(178.012 173.057)"><rect width="17.713" height="14.825" fill="#d67086"/></g><g transform="translate(116.712 155.03)"><g transform="translate(21.939 0)"><path d="M268.431,272.328a.852.852,0,0,0-.142-.047c-.455-.106-.734.272-1.142.3-.182.012-.636-.334-.715-.026-.028.114-.154.488-.258.872-.19.26-.369.53-.582.769-.539.6-2.376,1.17-1.982,2.281a2.071,2.071,0,0,0,.3.611,1.672,1.672,0,0,0,.416.35c.118.076.29.227.417.2s.337-.326.44-.425l.883-.853c.289-.279.655-.578,1.041-.452a1.927,1.927,0,0,0,.251.09.636.636,0,0,0,.289-.036,4.313,4.313,0,0,0,.994-.423c.552-.333.594-1.41.659-2.008a1.081,1.081,0,0,0-.018-.449,1.123,1.123,0,0,0-.483-.527A2.126,2.126,0,0,0,268.431,272.328Z" transform="translate(-263.554 -272.262)" fill="#efbfa5"/></g><g transform="translate(0 2.27)"><path d="M160.032,292.8a5.346,5.346,0,0,0,1.523-.07,4.722,4.722,0,0,0,1.115-.473,23.029,23.029,0,0,0,5.962-4.648,10.171,10.171,0,0,0-2.3-2.979,36.22,36.22,0,0,1-5.441,2.954,4.356,4.356,0,0,1-1.2.383,4.829,4.829,0,0,1-1.818-.253l-6.967-1.89a9.556,9.556,0,0,0-4.251-.491c-3.871.753-3.327,6.091.332,6.871C151.1,293.083,155.862,292.6,160.032,292.8Z" transform="translate(-143.987 -284.634)" fill="#5660c1"/></g></g><g transform="translate(204.575 149.458)" opacity="0.2"><g clip-path="url(#a)"><path d="M622.846,439l1.372,7.571h-1.372Z" transform="translate(-622.846 -402.837)" fill="#fff"/><path d="M622.846,434.508l1.522,8.4h-.15l-1.372-7.57Z" transform="translate(-622.846 -399.166)" fill="#fff"/><path d="M622.846,430.011l1.672,9.221h-.15l-1.522-8.4Z" transform="translate(-622.846 -395.495)" fill="#fefefe"/><path d="M622.846,425.515l1.821,10.046h-.15l-1.672-9.221Z" transform="translate(-622.846 -391.823)" fill="#fdfdfd"/><path d="M622.846,421.018l1.971,10.871h-.15l-1.821-10.046Z" transform="translate(-622.846 -388.152)" fill="#fcfcfc"/><path d="M622.846,416.522l2.12,11.7h-.15l-1.971-10.871Z" transform="translate(-622.846 -384.48)" fill="#fbfbfb"/><path d="M622.846,412.025l2.27,12.521h-.15l-2.12-11.7Z" transform="translate(-622.846 -380.809)" fill="#fbfbfb"/><path d="M622.846,407.529l2.419,13.346h-.15l-2.27-12.521Z" transform="translate(-622.846 -377.137)" fill="#fafafa"/><path d="M622.846,403.032l2.569,14.171h-.15l-2.419-13.346Z" transform="translate(-622.846 -373.466)" fill="#f9f9f9"/><path d="M622.846,398.536l2.719,15h-.15l-2.569-14.171Z" transform="translate(-622.846 -369.794)" fill="#f8f8f8"/><path d="M622.846,394.039l2.868,15.821h-.15l-2.719-15Z" transform="translate(-622.846 -366.123)" fill="#f7f7f7"/><path d="M622.846,389.543l3.018,16.646h-.15l-2.868-15.821Z" transform="translate(-622.846 -362.451)" fill="#f6f6f6"/><path d="M622.846,385.046l3.167,17.471h-.15l-3.018-16.646Z" transform="translate(-622.846 -358.78)" fill="#f5f5f5"/><path d="M622.846,380.549l3.317,18.3h-.15l-3.167-17.471Z" transform="translate(-622.846 -355.108)" fill="#f4f4f4"/><path d="M622.846,376.053l3.466,19.121h-.15l-3.317-18.3Z" transform="translate(-622.846 -351.437)" fill="#f3f3f3"/><path d="M622.846,371.556l3.616,19.946h-.15l-3.466-19.121Z" transform="translate(-622.846 -347.765)" fill="#f2f2f2"/><path d="M622.846,367.06l3.765,20.771h-.15l-3.616-19.946Z" transform="translate(-622.846 -344.094)" fill="#f1f1f1"/><path d="M622.846,362.563l3.915,21.6h-.15l-3.765-20.771Z" transform="translate(-622.846 -340.422)" fill="#f0f0f0"/><path d="M622.846,358.067l4.065,22.421h-.15l-3.915-21.6Z" transform="translate(-622.846 -336.751)" fill="#efefef"/><path d="M622.846,353.57l4.214,23.246h-.149L622.846,354.4Z" transform="translate(-622.846 -333.079)" fill="#eee"/><path d="M622.846,349.074l4.364,24.071h-.15L622.846,349.9Z" transform="translate(-622.846 -329.408)" fill="#ededed"/><path d="M622.846,344.577l4.513,24.9h-.15L622.846,345.4Z" transform="translate(-622.846 -325.736)" fill="#ececec"/><path d="M622.846,340.081l4.663,25.722h-.149l-4.513-24.9Z" transform="translate(-622.846 -322.065)" fill="#ebebeb"/><path d="M622.846,335.584l4.812,26.547h-.15l-4.663-25.722Z" transform="translate(-622.846 -318.393)" fill="#ebebeb"/><path d="M622.846,331.088l4.962,27.372h-.15l-4.812-26.547Z" transform="translate(-622.846 -314.722)" fill="#eaeaea"/><path d="M622.846,326.591l5.112,28.2h-.15l-4.962-27.372Z" transform="translate(-622.846 -311.05)" fill="#e9e9e9"/><path d="M622.846,322.095l5.261,29.022h-.15l-5.112-28.2Z" transform="translate(-622.846 -307.379)" fill="#e8e8e8"/><path d="M622.846,317.6l5.411,29.847h-.15l-5.261-29.022Z" transform="translate(-622.846 -303.707)" fill="#e7e7e7"/><path d="M622.846,313.1l5.56,30.672h-.15l-5.411-29.847Z" transform="translate(-622.846 -300.036)" fill="#e6e6e6"/><path d="M622.846,308.6l5.71,31.5h-.15l-5.56-30.672Z" transform="translate(-622.846 -296.364)" fill="#e5e5e5"/><path d="M622.846,304.108l5.859,32.322h-.15l-5.71-31.5Z" transform="translate(-622.846 -292.693)" fill="#e4e4e4"/><path d="M622.846,299.612l6.009,33.147h-.15l-5.859-32.322Z" transform="translate(-622.846 -289.021)" fill="#e3e3e3"/><path d="M622.846,295.115,629,329.087h-.15l-6.009-33.147Z" transform="translate(-622.846 -285.35)" fill="#e2e2e2"/><path d="M622.846,290.619l6.308,34.8H629l-6.159-33.972Z" transform="translate(-622.846 -281.678)" fill="#e1e1e1"/><path d="M622.846,286.122l6.458,35.622h-.15l-6.308-34.8Z" transform="translate(-622.846 -278.007)" fill="#e0e0e0"/><path d="M622.846,281.626l6.607,36.447h-.15l-6.458-35.622Z" transform="translate(-622.846 -274.335)" fill="#dfdfdf"/><path d="M622.846,277.129,629.6,314.4h-.15l-6.607-36.447Z" transform="translate(-622.846 -270.664)" fill="#dedede"/><path d="M622.846,272.633l6.906,38.1h-.15l-6.757-37.272Z" transform="translate(-622.846 -266.992)" fill="#ddd"/><path d="M622.846,268.136l7.056,38.922h-.15l-6.906-38.1Z" transform="translate(-622.846 -263.321)" fill="#dcdcdc"/><path d="M622.846,263.64l7.206,39.747h-.15l-7.056-38.922Z" transform="translate(-622.846 -259.649)" fill="#dbdbdb"/><path d="M622.846,259.143l7.355,40.572h-.15l-7.206-39.747Z" transform="translate(-622.846 -255.978)" fill="#dadada"/><path d="M622.846,254.647l7.5,41.4h-.15l-7.355-40.572Z" transform="translate(-622.846 -252.307)" fill="#d9d9d9"/><path d="M622.846,250.15l7.654,42.222h-.15l-7.5-41.4Z" transform="translate(-622.846 -248.635)" fill="#d8d8d8"/><path d="M622.846,245.654l7.8,43.048H630.5l-7.654-42.222Z" transform="translate(-622.846 -244.964)" fill="#d7d7d7"/><path d="M622.87,241.893l7.929,43.737h-.15l-7.8-43.048v-.69Z" transform="translate(-622.846 -241.893)" fill="#d6d6d6"/><path d="M623.129,241.893l7.929,43.737h-.15l-7.929-43.737Z" transform="translate(-622.955 -241.893)" fill="#d5d5d5"/><path d="M623.944,241.893l7.929,43.737h-.15l-7.929-43.737Z" transform="translate(-623.62 -241.893)" fill="#d4d4d4"/><path d="M624.759,241.893l7.929,43.737h-.15l-7.929-43.737Z" transform="translate(-624.286 -241.893)" fill="#d3d3d3"/><path d="M625.574,241.893l7.929,43.737h-.15l-7.929-43.737Z" transform="translate(-624.952 -241.893)" fill="#d2d2d2"/><path d="M626.39,241.893l7.929,43.737h-.15l-7.929-43.737Z" transform="translate(-625.617 -241.893)" fill="#d1d1d1"/><path d="M627.2,241.893l7.929,43.737h-.15l-7.929-43.737Z" transform="translate(-626.283 -241.893)" fill="#d0d0d0"/><path d="M628.02,241.893l7.929,43.737h-.15l-7.929-43.737Z" transform="translate(-626.948 -241.893)" fill="#cfcfcf"/><path d="M628.835,241.893l7.929,43.737h-.15l-7.929-43.737Z" transform="translate(-627.614 -241.893)" fill="#cecece"/><path d="M629.65,241.893l7.929,43.737h-.149L629.5,241.893Z" transform="translate(-628.28 -241.893)" fill="#cdcdcd"/><path d="M630.465,241.893l7.929,43.737h-.15l-7.929-43.737Z" transform="translate(-628.945 -241.893)" fill="#ccc"/><path d="M631.28,241.893l7.929,43.737h-.15l-7.929-43.737Z" transform="translate(-629.611 -241.893)" fill="#cbcbcb"/><path d="M632.1,241.893l7.929,43.737h-.15l-7.929-43.737Z" transform="translate(-630.276 -241.893)" fill="#cacaca"/><path d="M632.911,241.893l7.929,43.737h-.15l-7.929-43.737Z" transform="translate(-630.942 -241.893)" fill="#c9c9c9"/><path d="M633.726,241.893l7.929,43.737h-.149l-7.929-43.737Z" transform="translate(-631.608 -241.893)" fill="#c8c8c8"/><path d="M634.541,241.893l7.929,43.737h-.149l-7.929-43.737Z" transform="translate(-632.273 -241.893)" fill="#c7c7c7"/><path d="M635.356,241.893l7.929,43.737h-.15l-7.929-43.737Z" transform="translate(-632.939 -241.893)" fill="#c6c6c6"/><path d="M636.171,241.893l7.929,43.737h-.15l-7.929-43.737Z" transform="translate(-633.604 -241.893)" fill="#c5c5c5"/><path d="M636.986,241.893l7.929,43.737h-.15l-7.929-43.737Z" transform="translate(-634.27 -241.893)" fill="#c4c4c4"/><path d="M637.8,241.893l7.929,43.737h-.15l-7.929-43.737Z" transform="translate(-634.935 -241.893)" fill="#c3c3c3"/><path d="M638.617,241.893l7.929,43.737h-.15l-7.929-43.737Z" transform="translate(-635.601 -241.893)" fill="#c2c2c2"/><path d="M639.432,241.893l7.929,43.737h-.15l-7.929-43.737Z" transform="translate(-636.266 -241.893)" fill="#c1c1c1"/><path d="M640.247,241.893l7.929,43.737h-.15L640.1,241.893Z" transform="translate(-636.932 -241.893)" fill="silver"/><path d="M641.062,241.893l7.929,43.737h-.15l-7.929-43.737Z" transform="translate(-637.598 -241.893)" fill="#bfbfbf"/><path d="M641.878,241.893l7.929,43.737h-.15l-7.929-43.737Z" transform="translate(-638.263 -241.893)" fill="#bebebe"/><path d="M642.693,241.893l7.929,43.737h-.15l-7.929-43.737Z" transform="translate(-638.929 -241.893)" fill="#bdbdbd"/><path d="M643.508,241.893l7.929,43.737h-.15l-7.929-43.737Z" transform="translate(-639.594 -241.893)" fill="#bcbcbc"/><path d="M644.323,241.893l7.929,43.737h-.15l-7.929-43.737Z" transform="translate(-640.26 -241.893)" fill="#bcbcbc"/><path d="M645.138,241.893l7.929,43.737h-.149l-7.929-43.737Z" transform="translate(-640.926 -241.893)" fill="#bbb"/><path d="M645.953,241.893l7.929,43.737h-.15L645.8,241.893Z" transform="translate(-641.591 -241.893)" fill="#bababa"/><path d="M646.768,241.893l7.929,43.737h-.149l-7.929-43.737Z" transform="translate(-642.257 -241.893)" fill="#b9b9b9"/><path d="M647.584,241.893l7.929,43.737h-.15l-7.929-43.737Z" transform="translate(-642.922 -241.893)" fill="#b8b8b8"/><path d="M648.4,241.893l7.929,43.737h-.15l-7.929-43.737Z" transform="translate(-643.588 -241.893)" fill="#b7b7b7"/><path d="M649.214,241.893l7.929,43.737h-.15l-7.929-43.737Z" transform="translate(-644.254 -241.893)" fill="#b6b6b6"/><path d="M650.029,241.893l7.929,43.737h-.149l-7.929-43.737Z" transform="translate(-644.919 -241.893)" fill="#b5b5b5"/><path d="M650.844,241.893l7.929,43.737h-.15l-7.929-43.737Z" transform="translate(-645.585 -241.893)" fill="#b4b4b4"/><path d="M651.659,241.893l7.929,43.737h-.149l-7.929-43.737Z" transform="translate(-646.25 -241.893)" fill="#b3b3b3"/><path d="M652.474,241.893l7.929,43.737h-.15l-7.929-43.737Z" transform="translate(-646.916 -241.893)" fill="#b2b2b2"/><path d="M653.29,241.893l7.929,43.737h-.15l-7.929-43.737Z" transform="translate(-647.582 -241.893)" fill="#b1b1b1"/><path d="M654.1,241.893l7.929,43.737h-.15l-7.929-43.737Z" transform="translate(-648.247 -241.893)" fill="#b0b0b0"/><path d="M654.92,241.893l7.929,43.737h-.15l-7.929-43.737Z" transform="translate(-648.913 -241.893)" fill="#afafaf"/><path d="M655.735,241.893l7.929,43.737h-.149l-7.929-43.737Z" transform="translate(-649.578 -241.893)" fill="#aeaeae"/><path d="M656.55,241.893l7.929,43.737h-.15L656.4,241.893Z" transform="translate(-650.244 -241.893)" fill="#adadad"/><path d="M657.365,241.893l7.929,43.737h-.15l-7.929-43.737Z" transform="translate(-650.909 -241.893)" fill="#acacac"/><path d="M658.181,241.893l7.929,43.737h-.149l-7.929-43.737Z" transform="translate(-651.575 -241.893)" fill="#ababab"/><path d="M659,241.893l7.929,43.737h-.15l-7.929-43.737Z" transform="translate(-652.241 -241.893)" fill="#aaa"/><path d="M659.811,241.893l7.929,43.737h-.15l-7.929-43.737Z" transform="translate(-652.906 -241.893)" fill="#a9a9a9"/><path d="M660.626,241.893l7.929,43.737h-.15l-7.929-43.737Z" transform="translate(-653.572 -241.893)" fill="#a8a8a8"/><path d="M661.441,241.893l7.929,43.737h-.15l-7.929-43.737Z" transform="translate(-654.237 -241.893)" fill="#a7a7a7"/><path d="M662.256,241.893l7.929,43.737h-.149l-7.929-43.737Z" transform="translate(-654.903 -241.893)" fill="#a6a6a6"/><path d="M663.071,241.893,671,285.631h-.15l-7.929-43.737Z" transform="translate(-655.568 -241.893)" fill="#a5a5a5"/><path d="M663.887,241.893l7.929,43.737h-.15l-7.929-43.737Z" transform="translate(-656.234 -241.893)" fill="#a4a4a4"/><path d="M664.7,241.893l7.929,43.737h-.15l-7.929-43.737Z" transform="translate(-656.9 -241.893)" fill="#a3a3a3"/><path d="M665.517,241.893l7.929,43.737h-.15l-7.929-43.737Z" transform="translate(-657.565 -241.893)" fill="#a2a2a2"/><path d="M666.332,241.893l7.929,43.737h-.15l-7.929-43.737Z" transform="translate(-658.231 -241.893)" fill="#a1a1a1"/><path d="M667.147,241.893l7.929,43.737h-.15L667,241.893Z" transform="translate(-658.896 -241.893)" fill="#a0a0a0"/><path d="M667.962,241.893l7.929,43.737h-.15l-7.929-43.737Z" transform="translate(-659.562 -241.893)" fill="#9e9e9e"/><path d="M668.778,241.893l7.929,43.737h-.15l-7.929-43.737Z" transform="translate(-660.228 -241.893)" fill="#9d9d9d"/><path d="M669.593,241.893l7.929,43.737h-.15l-7.929-43.737Z" transform="translate(-660.893 -241.893)" fill="#9c9c9c"/><path d="M670.408,241.893l7.929,43.737h-.15l-7.929-43.737Z" transform="translate(-661.559 -241.893)" fill="#9b9b9b"/><path d="M671.223,241.893l7.929,43.737H679l-7.929-43.737Z" transform="translate(-662.224 -241.893)" fill="#9a9a9a"/><path d="M672.038,241.893l7.929,43.737h-.15l-7.929-43.737Z" transform="translate(-662.89 -241.893)" fill="#999"/><path d="M672.853,241.893l7.929,43.737h-.15L672.7,241.893Z" transform="translate(-663.556 -241.893)" fill="#989898"/><path d="M673.669,241.893l7.929,43.737h-.15l-7.929-43.737Z" transform="translate(-664.221 -241.893)" fill="#979797"/><path d="M674.484,241.893l7.929,43.737h-.149l-7.929-43.737Z" transform="translate(-664.887 -241.893)" fill="#969696"/><path d="M675.3,241.893l7.929,43.737h-.15l-7.929-43.737Z" transform="translate(-665.552 -241.893)" fill="#959595"/><path d="M676.114,241.893l7.929,43.737h-.15l-7.929-43.737Z" transform="translate(-666.218 -241.893)" fill="#949494"/><path d="M676.929,241.893l7.929,43.737h-.15l-7.929-43.737Z" transform="translate(-666.884 -241.893)" fill="#939393"/><path d="M677.744,241.893l7.929,43.737h-.149l-7.929-43.737Z" transform="translate(-667.549 -241.893)" fill="#929292"/><path d="M678.56,241.893l7.929,43.737h-.149l-7.929-43.737Z" transform="translate(-668.215 -241.893)" fill="#919191"/><path d="M679.375,241.893l7.929,43.737h-.15l-7.929-43.737Z" transform="translate(-668.88 -241.893)" fill="#909090"/><path d="M680.19,241.893l7.929,43.737h-.15l-7.929-43.737Z" transform="translate(-669.546 -241.893)" fill="#8f8f8f"/><path d="M681,241.893l7.929,43.737h-.15l-7.929-43.737Z" transform="translate(-670.211 -241.893)" fill="#8e8e8e"/><path d="M681.82,241.893l7.929,43.737h-.15l-7.929-43.737Z" transform="translate(-670.877 -241.893)" fill="#8d8d8d"/><path d="M682.635,241.893l7.929,43.737h-.15l-7.929-43.737Z" transform="translate(-671.543 -241.893)" fill="#8c8c8c"/><path d="M683.45,241.893l7.929,43.737h-.15L683.3,241.893Z" transform="translate(-672.208 -241.893)" fill="#8b8b8b"/><path d="M684.266,241.893l7.929,43.737h-.15l-7.929-43.737Z" transform="translate(-672.874 -241.893)" fill="#8a8a8a"/><path d="M685.081,241.893l7.929,43.737h-.15l-7.929-43.737Z" transform="translate(-673.539 -241.893)" fill="#898989"/><path d="M685.9,241.893l7.929,43.737h-.15l-7.929-43.737Z" transform="translate(-674.205 -241.893)" fill="#888"/><path d="M686.711,241.893l7.929,43.737h-.149l-7.929-43.737Z" transform="translate(-674.871 -241.893)" fill="#878787"/><path d="M687.526,241.893l7.929,43.737h-.15l-7.929-43.737Z" transform="translate(-675.536 -241.893)" fill="#868686"/><path d="M688.341,241.893l7.929,43.737h-.15l-7.929-43.737Z" transform="translate(-676.202 -241.893)" fill="#858585"/><path d="M689.156,241.893l7.929,43.737h-.15l-7.929-43.737Z" transform="translate(-676.867 -241.893)" fill="#848484"/><path d="M689.972,241.893l7.929,43.737h-.149l-7.929-43.737Z" transform="translate(-677.533 -241.893)" fill="#838383"/><path d="M690.787,241.893l7.929,43.737h-.149l-7.929-43.737Z" transform="translate(-678.198 -241.893)" fill="#828282"/><path d="M691.6,241.893l7.929,43.737h-.15l-7.929-43.737Z" transform="translate(-678.864 -241.893)" fill="#818181"/><path d="M692.417,241.893l7.929,43.737h-.15l-7.929-43.737Z" transform="translate(-679.53 -241.893)" fill="gray"/><path d="M693.232,241.893l7.929,43.737h-.15l-7.929-43.737Z" transform="translate(-680.195 -241.893)" fill="#7f7f7f"/><path d="M694.047,241.893l7.929,43.737h-.15L693.9,241.893Z" transform="translate(-680.861 -241.893)" fill="#7e7e7e"/><path d="M694.862,241.893l7.929,43.737h-.15l-7.929-43.737Z" transform="translate(-681.526 -241.893)" fill="#7d7d7d"/><path d="M695.678,241.893l7.929,43.737h-.15l-7.929-43.737Z" transform="translate(-682.192 -241.893)" fill="#7c7c7c"/><path d="M696.493,241.893l7.929,43.737h-.15l-7.929-43.737Z" transform="translate(-682.858 -241.893)" fill="#7b7b7b"/><path d="M697.308,241.893l7.929,43.737h-.15l-7.929-43.737Z" transform="translate(-683.523 -241.893)" fill="#7a7a7a"/><path d="M698.123,241.893l7.929,43.737h-.15l-7.929-43.737Z" transform="translate(-684.189 -241.893)" fill="#797979"/><path d="M698.938,241.893l7.929,43.737h-.15l-7.929-43.737Z" transform="translate(-684.854 -241.893)" fill="#787878"/><path d="M699.753,241.893l7.929,43.737h-.15L699.6,241.893Z" transform="translate(-685.52 -241.893)" fill="#777"/><path d="M700.569,241.893l7.929,43.737h-.15l-7.929-43.737Z" transform="translate(-686.186 -241.893)" fill="#767676"/><path d="M701.384,241.893l7.929,43.737h-.15l-7.929-43.737Z" transform="translate(-686.851 -241.893)" fill="#757575"/><path d="M702.2,241.893l7.929,43.737h-.15l-7.929-43.737Z" transform="translate(-687.517 -241.893)" fill="#747474"/><path d="M703.014,241.893l7.929,43.737h-.149l-7.929-43.737Z" transform="translate(-688.182 -241.893)" fill="#737373"/><path d="M703.829,241.893l7.929,43.737h-.15l-7.929-43.737Z" transform="translate(-688.848 -241.893)" fill="#727272"/><path d="M704.644,241.893l7.929,43.737h-.15l-7.929-43.737Z" transform="translate(-689.513 -241.893)" fill="#717171"/><path d="M705.459,241.893l7.929,43.737h-.15l-7.929-43.737Z" transform="translate(-690.179 -241.893)" fill="#707070"/><path d="M706.275,241.893l7.929,43.737h-.15l-7.929-43.737Z" transform="translate(-690.845 -241.893)" fill="#6f6f6f"/><path d="M707.09,241.893l7.929,43.737h-.15l-7.929-43.737Z" transform="translate(-691.51 -241.893)" fill="#6e6e6e"/><path d="M707.9,241.893l7.929,43.737h-.15l-7.929-43.737Z" transform="translate(-692.176 -241.893)" fill="#6d6d6d"/><path d="M708.72,241.893l7.929,43.737h-.15l-7.929-43.737Z" transform="translate(-692.841 -241.893)" fill="#6c6c6c"/><path d="M709.535,241.893l7.929,43.737h-.15l-7.929-43.737Z" transform="translate(-693.507 -241.893)" fill="#6b6b6b"/><path d="M710.35,241.893l7.929,43.737h-.15L710.2,241.893Z" transform="translate(-694.172 -241.893)" fill="#6a6a6a"/><path d="M711.165,241.893l7.929,43.737h-.15l-7.929-43.737Z" transform="translate(-694.838 -241.893)" fill="#696969"/><path d="M711.981,241.893l7.929,43.737h-.15l-7.929-43.737Z" transform="translate(-695.504 -241.893)" fill="#686868"/><path d="M712.8,241.893l7.929,43.737h-.15l-7.929-43.737Z" transform="translate(-696.169 -241.893)" fill="#676767"/><path d="M713.611,241.893l7.929,43.737h-.15l-7.929-43.737Z" transform="translate(-696.835 -241.893)" fill="#666"/><path d="M714.426,241.893l7.929,43.737h-.15l-7.929-43.737Z" transform="translate(-697.5 -241.893)" fill="#656565"/><path d="M715.241,241.893l7.929,43.737h-.15l-7.929-43.737Z" transform="translate(-698.166 -241.893)" fill="#646464"/><path d="M716.057,241.893l7.929,43.737h-.15l-7.929-43.737Z" transform="translate(-698.832 -241.893)" fill="#636363"/><path d="M716.872,241.893l7.929,43.737h-.15l-7.929-43.737Z" transform="translate(-699.497 -241.893)" fill="#626262"/><path d="M717.687,241.893l7.929,43.737h-.15l-7.929-43.737Z" transform="translate(-700.163 -241.893)" fill="#616161"/><path d="M718.5,241.893l7.929,43.737h-.15l-7.929-43.737Z" transform="translate(-700.828 -241.893)" fill="#606060"/><path d="M719.317,241.893l7.929,43.737h-.15l-7.929-43.737Z" transform="translate(-701.494 -241.893)" fill="#5f5f5f"/><path d="M720.132,241.893l7.929,43.737h-.15l-7.929-43.737Z" transform="translate(-702.16 -241.893)" fill="#5e5e5e"/><path d="M720.947,241.893l7.929,43.737h-.15L720.8,241.893Z" transform="translate(-702.825 -241.893)" fill="#5d5d5d"/><path d="M721.762,241.893l7.929,43.737h-.15l-7.929-43.737Z" transform="translate(-703.491 -241.893)" fill="#5c5c5c"/><path d="M722.578,241.893l7.929,43.737h-.15l-7.929-43.737Z" transform="translate(-704.156 -241.893)" fill="#5b5b5b"/><path d="M723.393,241.893l7.929,43.737h-.15l-7.929-43.737Z" transform="translate(-704.822 -241.893)" fill="#5a5a5a"/><path d="M724.208,241.893l7.929,43.737h-.15l-7.929-43.737Z" transform="translate(-705.487 -241.893)" fill="#595959"/><path d="M725.023,241.893l7.929,43.737h-.15l-7.929-43.737Z" transform="translate(-706.153 -241.893)" fill="#575757"/><path d="M725.838,241.893l7.929,43.737h-.15l-7.929-43.737Z" transform="translate(-706.819 -241.893)" fill="#565656"/><path d="M726.653,241.893l7.929,43.737h-.15L726.5,241.893Z" transform="translate(-707.484 -241.893)" fill="#555"/><path d="M727.469,241.893l7.929,43.737h-.15l-7.929-43.737Z" transform="translate(-708.15 -241.893)" fill="#545454"/><path d="M728.284,241.893l7.929,43.737h-.15l-7.929-43.737Z" transform="translate(-708.815 -241.893)" fill="#535353"/><path d="M729.1,241.893l7.929,43.737h-.15l-7.929-43.737Z" transform="translate(-709.481 -241.893)" fill="#525252"/><path d="M729.914,241.893l7.929,43.737h-.149l-7.929-43.737Z" transform="translate(-710.146 -241.893)" fill="#515151"/><path d="M730.729,241.893l7.929,43.737h-.15l-7.929-43.737Z" transform="translate(-710.812 -241.893)" fill="#505050"/><path d="M731.544,241.893l7.929,43.737h-.15l-7.929-43.737Z" transform="translate(-711.478 -241.893)" fill="#4f4f4f"/><path d="M732.36,241.893l7.929,43.737h-.15l-7.929-43.737Z" transform="translate(-712.143 -241.893)" fill="#4e4e4e"/><path d="M733.175,241.893l7.929,43.737h-.15l-7.929-43.737Z" transform="translate(-712.809 -241.893)" fill="#4d4d4d"/><path d="M733.99,241.893l7.929,43.737h-.15l-7.929-43.737Z" transform="translate(-713.475 -241.893)" fill="#4c4c4c"/><path d="M734.805,241.893l7.929,43.737h-.149l-7.929-43.737Z" transform="translate(-714.14 -241.893)" fill="#4b4b4b"/><path d="M735.62,241.893l7.929,43.737h-.15l-7.929-43.737Z" transform="translate(-714.806 -241.893)" fill="#4a4a4a"/><path d="M736.435,241.893l7.929,43.737h-.15l-7.929-43.737Z" transform="translate(-715.471 -241.893)" fill="#494949"/><path d="M737.25,241.893l7.929,43.737h-.15L737.1,241.893Z" transform="translate(-716.137 -241.893)" fill="#484848"/><path d="M738.066,241.893l7.929,43.737h-.15l-7.929-43.737Z" transform="translate(-716.802 -241.893)" fill="#474747"/><path d="M738.881,241.893l7.929,43.737h-.149l-7.929-43.737Z" transform="translate(-717.468 -241.893)" fill="#464646"/><path d="M739.7,241.893l7.929,43.737h-.15l-7.929-43.737Z" transform="translate(-718.133 -241.893)" fill="#454545"/><path d="M740.511,241.893l7.929,43.737h-.15l-7.929-43.737Z" transform="translate(-718.799 -241.893)" fill="#444"/><path d="M741.326,241.893l7.929,43.737h-.15l-7.929-43.737Z" transform="translate(-719.465 -241.893)" fill="#434343"/><path d="M742.141,241.893l7.929,43.737h-.149l-7.929-43.737Z" transform="translate(-720.13 -241.893)" fill="#424242"/><path d="M742.957,241.893l7.929,43.737h-.149l-7.929-43.737Z" transform="translate(-720.796 -241.893)" fill="#414141"/><path d="M743.772,241.893l7.929,43.737h-.15l-7.929-43.737Z" transform="translate(-721.461 -241.893)" fill="#404040"/><path d="M744.587,241.893l7.929,43.737h-.15l-7.929-43.737Z" transform="translate(-722.127 -241.893)" fill="#3f3f3f"/><path d="M745.4,241.893l7.929,43.737h-.15l-7.929-43.737Z" transform="translate(-722.793 -241.893)" fill="#3e3e3e"/><path d="M746.217,241.893l7.929,43.737H754l-7.929-43.737Z" transform="translate(-723.458 -241.893)" fill="#3d3d3d"/><path d="M747.032,241.893l7.929,43.737h-.149l-7.929-43.737Z" transform="translate(-724.124 -241.893)" fill="#3c3c3c"/><path d="M747.847,241.893l7.929,43.737h-.15L747.7,241.893Z" transform="translate(-724.789 -241.893)" fill="#3b3b3b"/><path d="M748.663,241.893l7.929,43.737h-.15l-7.929-43.737Z" transform="translate(-725.455 -241.893)" fill="#3a3a3a"/><path d="M749.478,241.893l7.929,43.737h-.15l-7.929-43.737Z" transform="translate(-726.121 -241.893)" fill="#393939"/><path d="M750.293,241.893l7.929,43.737h-.15l-7.929-43.737Z" transform="translate(-726.786 -241.893)" fill="#383838"/><path d="M751.108,241.893l7.929,43.737h-.15l-7.929-43.737Z" transform="translate(-727.452 -241.893)" fill="#373737"/><path d="M751.923,241.893l7.929,43.737h-.15l-7.929-43.737Z" transform="translate(-728.117 -241.893)" fill="#363636"/><path d="M752.738,241.893l7.929,43.737h-.15l-7.929-43.737Z" transform="translate(-728.783 -241.893)" fill="#353535"/><path d="M753.553,241.893l7.929,43.737h-.15L753.4,241.893Z" transform="translate(-729.448 -241.893)" fill="#343434"/><path d="M754.369,241.893l7.929,43.737h-.15l-7.929-43.737Z" transform="translate(-730.114 -241.893)" fill="#333"/><path d="M755.184,241.893l7.929,43.737h-.15l-7.929-43.737Z" transform="translate(-730.78 -241.893)" fill="#323232"/><path d="M756,241.893l7.929,43.737h-.15l-7.929-43.737Z" transform="translate(-731.445 -241.893)" fill="#313131"/><path d="M756.814,241.893l7.929,43.737h-.15l-7.929-43.737Z" transform="translate(-732.111 -241.893)" fill="#2f2f2f"/><path d="M757.629,241.893l7.929,43.737h-.15l-7.929-43.737Z" transform="translate(-732.776 -241.893)" fill="#2e2e2e"/><path d="M758.445,241.893l7.929,43.737h-.15l-7.929-43.737Z" transform="translate(-733.442 -241.893)" fill="#2d2d2d"/><path d="M759.26,241.893l7.929,43.737h-.149l-7.929-43.737Z" transform="translate(-734.108 -241.893)" fill="#2c2c2c"/><path d="M760.075,241.893,768,285.631h-.149l-7.929-43.737Z" transform="translate(-734.773 -241.893)" fill="#2b2b2b"/><path d="M760.89,241.893l7.929,43.737h-.15l-7.929-43.737Z" transform="translate(-735.439 -241.893)" fill="#2a2a2a"/><path d="M761.7,241.893l7.929,43.737h-.15l-7.929-43.737Z" transform="translate(-736.104 -241.893)" fill="#292929"/><path d="M762.52,241.893l7.929,43.737h-.15l-7.929-43.737Z" transform="translate(-736.77 -241.893)" fill="#282828"/><path d="M763.335,241.893l7.929,43.737h-.149l-7.929-43.737Z" transform="translate(-737.435 -241.893)" fill="#272727"/><path d="M764.15,241.893l7.929,43.737h-.15L764,241.893Z" transform="translate(-738.101 -241.893)" fill="#262626"/><path d="M764.966,241.893l7.929,43.737h-.15l-7.929-43.737Z" transform="translate(-738.767 -241.893)" fill="#252525"/><path d="M765.781,241.893l7.929,43.737h-.15l-7.929-43.737Z" transform="translate(-739.432 -241.893)" fill="#242424"/><path d="M766.6,241.893l7.929,43.737h-.15l-7.929-43.737Z" transform="translate(-740.098 -241.893)" fill="#232323"/><path d="M767.411,241.893l7.929,43.737h-.15l-7.929-43.737Z" transform="translate(-740.763 -241.893)" fill="#222"/><path d="M768.226,241.893l7.929,43.737h-.15l-7.929-43.737Z" transform="translate(-741.429 -241.893)" fill="#212121"/><path d="M769.041,241.893l7.929,43.737h-.15l-7.929-43.737Z" transform="translate(-742.095 -241.893)" fill="#202020"/><path d="M769.857,241.893l7.929,43.737h-.149l-7.929-43.737Z" transform="translate(-742.76 -241.893)" fill="#1f1f1f"/><path d="M770.672,241.893l7.929,43.737h-.15l-7.929-43.737Z" transform="translate(-743.426 -241.893)" fill="#1e1e1e"/><path d="M771.487,241.893l7.929,43.737h-.149l-7.929-43.737Z" transform="translate(-744.091 -241.893)" fill="#1d1d1d"/><path d="M772.3,241.893l7.929,43.737h-.15l-7.929-43.737Z" transform="translate(-744.757 -241.893)" fill="#1c1c1c"/><path d="M773.117,241.893l7.929,43.737h-.15l-7.929-43.737Z" transform="translate(-745.423 -241.893)" fill="#1b1b1b"/><path d="M773.932,241.893l7.929,43.737h-.15l-7.929-43.737Z" transform="translate(-746.088 -241.893)" fill="#1a1a1a"/><path d="M774.748,241.893l7.929,43.737h-.15L774.6,241.893Z" transform="translate(-746.754 -241.893)" fill="#191919"/><path d="M775.563,241.893l7.929,43.737h-.149l-7.929-43.737Z" transform="translate(-747.419 -241.893)" fill="#181818"/><path d="M776.378,241.893l7.929,43.737h-.15l-7.929-43.737Z" transform="translate(-748.085 -241.893)" fill="#171717"/><path d="M777.193,241.893l7.925,43.717-.112.02h-.034l-7.929-43.737Z" transform="translate(-748.75 -241.893)" fill="#161616"/><path d="M778.008,241.893l7.92,43.691-.145.026-7.925-43.717Z" transform="translate(-749.416 -241.893)" fill="#151515"/><path d="M778.823,241.893l7.916,43.665-.145.026-7.92-43.691Z" transform="translate(-750.082 -241.893)" fill="#141414"/><path d="M779.638,241.893l7.911,43.638-.145.026-7.916-43.665Z" transform="translate(-750.747 -241.893)" fill="#131313"/><path d="M780.454,241.893l7.906,43.612-.145.026L780.3,241.893Z" transform="translate(-751.413 -241.893)" fill="#121212"/><path d="M781.269,241.893l7.9,43.586-.145.026-7.906-43.612Z" transform="translate(-752.078 -241.893)" fill="#111"/><path d="M782.084,241.893l7.9,43.56-.145.026-7.9-43.586Z" transform="translate(-752.744 -241.893)" fill="#101010"/><path d="M782.9,241.893l7.892,43.533-.145.026-7.9-43.56Z" transform="translate(-753.41 -241.893)" fill="#0e0e0e"/><path d="M783.714,241.893,791.6,285.4l-.145.026-7.892-43.533Z" transform="translate(-754.075 -241.893)" fill="#0d0d0d"/><path d="M784.529,241.893l7.882,43.481-.145.026-7.887-43.507Z" transform="translate(-754.741 -241.893)" fill="#0c0c0c"/><path d="M785.345,241.893l7.878,43.455-.145.026-7.882-43.481Z" transform="translate(-755.406 -241.893)" fill="#0b0b0b"/><path d="M786.16,241.893l7.873,43.428-.145.026-7.878-43.455Z" transform="translate(-756.072 -241.893)" fill="#0a0a0a"/><path d="M786.975,241.893l7.868,43.4-.145.026-7.873-43.428Z" transform="translate(-756.738 -241.893)" fill="#090909"/><path d="M787.79,241.893l7.863,43.376-.145.026-7.868-43.4Z" transform="translate(-757.403 -241.893)" fill="#080808"/><path d="M788.605,241.893l7.859,43.35-.145.026-7.863-43.376Z" transform="translate(-758.069 -241.893)" fill="#070707"/><path d="M789.42,241.893l7.854,43.323-.145.026-7.859-43.35Z" transform="translate(-758.734 -241.893)" fill="#060606"/><path d="M790.235,241.893l7.849,43.3-.145.026-7.854-43.323Z" transform="translate(-759.4 -241.893)" fill="#050505"/><path d="M791.051,241.893l7.844,43.271-.145.026-7.849-43.3Z" transform="translate(-760.065 -241.893)" fill="#040404"/><path d="M791.866,241.893l7.84,43.245-.145.026-7.844-43.271Z" transform="translate(-760.731 -241.893)" fill="#030303"/><path d="M792.681,241.893l7.835,43.218-.145.026-7.84-43.245Z" transform="translate(-761.397 -241.893)" fill="#020202"/><path d="M793.5,241.893l7.83,43.192-.145.026-7.835-43.218Z" transform="translate(-762.062 -241.893)" fill="#010101"/><path d="M794.311,241.893l7.825,43.166-.145.026-7.83-43.192Z" transform="translate(-762.728 -241.893)"/><path d="M806.443,284.4l-3.641.66-7.825-43.166h11.466Z" transform="translate(-763.393 -241.893)"/></g></g><g transform="translate(178.012 176.5)"><g transform="translate(0 4.697)"><path d="M478.076,421.719l4.423-6.846,5.765,6.846Z" transform="translate(-478.076 -414.873)" fill="#353a85"/></g><g transform="translate(7.525 2.229)"><path d="M519.088,410.736l5.094-9.314,5.094,9.314Z" transform="translate(-519.088 -401.422)" fill="#353a85"/></g><g transform="translate(5.927 0)"><circle cx="1.422" cy="1.422" r="1.422" transform="translate(0 2.012) rotate(-45)" fill="#353a85"/></g></g><g transform="translate(205.497 141.375)"><g transform="translate(0.839 0.848)"><path d="M632.441,202.465l14.766,40.36,7.215-9.135,11.132,11.536,4.221-4.073,4.221-4.073-11.132-11.536,9.387-6.884Z" transform="translate(-632.441 -202.465)" fill="#3b3387"/></g><path d="M627.922,198.907l5.016,13.71,7.925,21.662,1.825,4.988c.186.508.946.885,1.361.359l7.214-9.135h-1.152l9.718,10.071,1.414,1.465a.827.827,0,0,0,1.152,0l8.441-8.145a.828.828,0,0,0,0-1.152l-9.718-10.072-1.413-1.465-.165,1.279,9.386-6.884a.828.828,0,0,0-.194-1.489l-13.522-5.5-21.366-8.693-4.92-2c-.971-.395-1.393,1.18-.433,1.571l13.522,5.5,21.366,8.693,4.92,2-.195-1.489-9.387,6.884a.829.829,0,0,0-.165,1.279l9.718,10.071,1.414,1.465V232.73l-8.441,8.145H662.4L652.677,230.8l-1.413-1.465a.818.818,0,0,0-1.152,0l-7.214,9.135,1.361.359-5.016-13.71-7.925-21.662-1.825-4.988C629.136,197.5,627.561,197.919,627.922,198.907Z" transform="translate(-627.869 -197.842)" fill="#fff"/></g><g transform="translate(230.481 159.694)"><g transform="translate(0 15.057)"><path d="M764.64,381.7l1.313-1.46c.136-.151.433-.645.67-.456.115.091.527.365.924.666.4.115.791.248,1.2.325,1.03.194,3.434-.608,3.83.775a2.356,2.356,0,0,1,.133.82,2.041,2.041,0,0,1-.192.652c-.071.162-.146.437-.307.5a2.482,2.482,0,0,1-.79-.092l-1.586-.185a1.582,1.582,0,0,0-1.46.326,2.554,2.554,0,0,1-.2.274.9.9,0,0,1-.34.178,6.132,6.132,0,0,1-1.388.32c-.43.041-.62-.241-.925-.5-.357-.3-.812-.324-1.17-.617a.76.76,0,0,1-.3-.682,1.126,1.126,0,0,1,.323-.535Z" transform="translate(-764.033 -379.742)" fill="#b97262"/></g><g transform="translate(6.331)"><path d="M811.934,316.5a8.3,8.3,0,0,1-3.4,1.185,31.942,31.942,0,0,1-9.884-.157,11.84,11.84,0,0,1,.285-4.63A51.208,51.208,0,0,0,807,311.774a3.82,3.82,0,0,0,2.994-2.036,62.58,62.58,0,0,0,3.283-8.776,6.27,6.27,0,0,1,.78-1.91,3.552,3.552,0,0,1,3.36-1.335,5.265,5.265,0,0,1,3.2,1.892,4.172,4.172,0,0,1,1.086,2.445,5.555,5.555,0,0,1-.788,2.673,43.729,43.729,0,0,1-7.193,10.262A9.312,9.312,0,0,1,811.934,316.5Z" transform="translate(-798.538 -297.682)" fill="#7fa3e5"/></g></g></g></svg>