<svg xmlns="http://www.w3.org/2000/svg" xmlns:xlink="http://www.w3.org/1999/xlink" width="822.667" height="571.376" viewBox="0 0 822.667 571.376"><defs><filter id="a" x="723.667" y="194.709" width="38" height="38" filterUnits="userSpaceOnUse"><feOffset dy="5" input="SourceAlpha"/><feGaussianBlur stdDeviation="3" result="b"/><feFlood flood-color="#00e1b4" flood-opacity="0.161"/><feComposite operator="in" in2="b"/><feComposite in="SourceGraphic"/></filter><filter id="c" x="294.667" y="196.709" width="38" height="38" filterUnits="userSpaceOnUse"><feOffset dy="5" input="SourceAlpha"/><feGaussianBlur stdDeviation="3" result="d"/><feFlood flood-color="#00e1b4" flood-opacity="0.161"/><feComposite operator="in" in2="d"/><feComposite in="SourceGraphic"/></filter><filter id="e" x="294.667" y="442.709" width="38" height="38" filterUnits="userSpaceOnUse"><feOffset dy="5" input="SourceAlpha"/><feGaussianBlur stdDeviation="3" result="f"/><feFlood flood-color="#00e1b4" flood-opacity="0.161"/><feComposite operator="in" in2="f"/><feComposite in="SourceGraphic"/></filter><filter id="g" x="669.698" y="228.709" width="152.969" height="83.864" filterUnits="userSpaceOnUse"><feOffset dy="3" input="SourceAlpha"/><feGaussianBlur stdDeviation="3" result="h"/><feFlood flood-opacity="0.102"/><feComposite operator="in" in2="h"/><feComposite in="SourceGraphic"/></filter><filter id="i" x="232.698" y="111.709" width="152.969" height="83.864" filterUnits="userSpaceOnUse"><feOffset dy="3" input="SourceAlpha"/><feGaussianBlur stdDeviation="3" result="j"/><feFlood flood-opacity="0.102"/><feComposite operator="in" in2="j"/><feComposite in="SourceGraphic"/></filter><filter id="k" x="231.698" y="480.265" width="167.819" height="91.111" filterUnits="userSpaceOnUse"><feOffset dy="3" input="SourceAlpha"/><feGaussianBlur stdDeviation="3" result="l"/><feFlood flood-opacity="0.102"/><feComposite operator="in" in2="l"/><feComposite in="SourceGraphic"/></filter></defs><g transform="translate(-556.333 -2708.291)"><g transform="translate(1187.834 2025.101) rotate(90)"><g transform="translate(589.732 328)"><path d="M430.164,0H0" transform="translate(304.665 -439.499) rotate(90)" fill="none" stroke="#ffaa5a" stroke-width="1"/><path d="M246.076.845H0" transform="translate(304.333 -10.512)" fill="none" stroke="#ffaa5a" stroke-width="1"/><path d="M208.5,19.011H0" transform="translate(95.833 -458.678)" fill="none" stroke="#ffaa5a" stroke-width="1"/><path d="M313,0H0" transform="translate(550.665 -9.499) rotate(90)" fill="none" stroke="#ffaa5a" stroke-width="1"/><g transform="matrix(0, -1, 1, 0, 93.46, 303.5)" filter="url(#a)"><circle cx="10" cy="10" r="10" transform="translate(752.67 198.71) rotate(90)" fill="#ff5a5d"/></g><g transform="matrix(0, -1, 1, 0, 93.46, 303.5)" filter="url(#c)"><circle cx="10" cy="10" r="10" transform="translate(323.67 200.71) rotate(90)" fill="#ff5a5d"/></g><g transform="matrix(0, -1, 1, 0, 93.46, 303.5)" filter="url(#e)"><circle cx="10" cy="10" r="10" transform="translate(323.67 446.71) rotate(90)" fill="#ff5a5d"/></g></g></g><path d="M128.939,160.617a2.11,2.11,0,0,1,.016,2.971l-9.8,9.832H156.5a2.1,2.1,0,0,1,0,4.2H119.155l9.816,9.832a2.125,2.125,0,0,1-.016,2.971A2.09,2.09,0,0,1,126,190.4L112.7,177a2.357,2.357,0,0,1-.436-.662,2,2,0,0,1-.161-.807,2.1,2.1,0,0,1,.6-1.469l13.3-13.4a2.057,2.057,0,0,1,2.938-.048Z" transform="translate(1149.31 2866.871) rotate(-90)" fill="#00e1b4"/><g transform="translate(2766 3126.864) rotate(180)"><g transform="matrix(-1, 0, 0, -1, 2209.67, 418.57)" filter="url(#g)"><g transform="translate(813.67 300.57) rotate(180)" fill="#fff"><path d="M 67.90050506591797 65.19967651367188 L 61.52276229858398 59.62388229370117 L 61.38141632080078 59.50030136108398 L 61.19367218017578 59.50030136108398 L 6.000307559967041 59.50030136108398 C 2.967434644699097 59.50030136108398 0.4999983906745911 57.03288269042969 0.4999983906745911 54.00000762939453 L 0.4999983906745911 6.00029993057251 C 0.4999983906745911 2.967427253723145 2.967434644699097 0.5000091195106506 6.000307559967041 0.5000091195106506 L 128.9691009521484 0.5000091195106506 C 132.0014953613281 0.5000091195106506 134.468505859375 2.967427253723145 134.468505859375 6.00029993057251 L 134.468505859375 54.00000762939453 C 134.468505859375 57.03288269042969 132.0014953613281 59.50030136108398 128.9691009521484 59.50030136108398 L 74.60732269287109 59.50030136108398 L 74.41957855224609 59.50030136108398 L 74.27823638916016 59.62388229370117 L 67.90050506591797 65.19967651367188 Z" stroke="none"/><path d="M 67.90050506591797 64.53553009033203 L 73.94914245605469 59.24744415283203 L 74.23183441162109 59.00030136108398 L 74.60732269287109 59.00030136108398 L 128.9691009521484 59.00030136108398 C 131.7257843017578 59.00030136108398 133.968505859375 56.75717163085938 133.968505859375 54.00000762939453 L 133.968505859375 6.00029993057251 C 133.968505859375 3.243136405944824 131.7257843017578 1.000009059906006 128.9691009521484 1.000009059906006 L 6.000307559967041 1.000009059906006 C 3.243125677108765 1.000009059906006 0.9999983906745911 3.243136405944824 0.9999983906745911 6.00029993057251 L 0.9999983906745911 54.00000762939453 C 0.9999983906745911 56.75717163085938 3.243125677108765 59.00030136108398 6.000307559967041 59.00030136108398 L 61.19367218017578 59.00030136108398 L 61.56916046142578 59.00030136108398 L 61.85185241699219 59.24744415283203 L 67.90050506591797 64.53553009033203 M 67.90050506591797 65.86380767822266 L 61.19367218017578 60.00030136108398 L 6.000307559967041 60.00030136108398 C 2.6865074634552 60.00030136108398 -1.615767018847691e-06 57.31380844116211 -1.615767018847691e-06 54.00000762939453 L -1.615767018847691e-06 6.00029993057251 C -1.615767018847691e-06 2.686500072479248 2.6865074634552 9.115323337027803e-06 6.000307559967041 9.115323337027803e-06 L 128.9691009521484 9.115323337027803e-06 C 132.2829132080078 9.115323337027803e-06 134.968505859375 2.686500072479248 134.968505859375 6.00029993057251 L 134.968505859375 54.00000762939453 C 134.968505859375 57.31380844116211 132.2829132080078 60.00030136108398 128.9691009521484 60.00030136108398 L 74.60732269287109 60.00030136108398 L 67.90050506591797 65.86380767822266 Z" stroke="none" fill="#00e1b4"/></g></g></g><text transform="translate(1304 2984)" fill="#343a40" font-size="16" font-family="Sahel"><tspan x="-45.59" y="0">آپلود مستندات</tspan></text><g transform="translate(-437 -124)"><g transform="translate(2766 3126.864) rotate(180)"><g transform="matrix(-1, 0, 0, -1, 1772.67, 294.57)" filter="url(#i)"><g transform="translate(241.7 117.71)" fill="#fff"><path d="M 67.90050506591797 65.19967651367188 L 61.52276229858398 59.62388229370117 L 61.38141632080078 59.50030136108398 L 61.19367218017578 59.50030136108398 L 6.000307559967041 59.50030136108398 C 2.967434644699097 59.50030136108398 0.4999983906745911 57.03288269042969 0.4999983906745911 54.00000762939453 L 0.4999983906745911 6.00029993057251 C 0.4999983906745911 2.967427253723145 2.967434644699097 0.5000091195106506 6.000307559967041 0.5000091195106506 L 128.9691009521484 0.5000091195106506 C 132.0014953613281 0.5000091195106506 134.468505859375 2.967427253723145 134.468505859375 6.00029993057251 L 134.468505859375 54.00000762939453 C 134.468505859375 57.03288269042969 132.0014953613281 59.50030136108398 128.9691009521484 59.50030136108398 L 74.60732269287109 59.50030136108398 L 74.41957855224609 59.50030136108398 L 74.27823638916016 59.62388229370117 L 67.90050506591797 65.19967651367188 Z" stroke="none"/><path d="M 67.90050506591797 64.53553009033203 L 73.94914245605469 59.24744415283203 L 74.23183441162109 59.00030136108398 L 74.60732269287109 59.00030136108398 L 128.9691009521484 59.00030136108398 C 131.7257843017578 59.00030136108398 133.968505859375 56.75717163085938 133.968505859375 54.00000762939453 L 133.968505859375 6.00029993057251 C 133.968505859375 3.243136405944824 131.7257843017578 1.000009059906006 128.9691009521484 1.000009059906006 L 6.000307559967041 1.000009059906006 C 3.243125677108765 1.000009059906006 0.9999983906745911 3.243136405944824 0.9999983906745911 6.00029993057251 L 0.9999983906745911 54.00000762939453 C 0.9999983906745911 56.75717163085938 3.243125677108765 59.00030136108398 6.000307559967041 59.00030136108398 L 61.19367218017578 59.00030136108398 L 61.56916046142578 59.00030136108398 L 61.85185241699219 59.24744415283203 L 67.90050506591797 64.53553009033203 M 67.90050506591797 65.86380767822266 L 61.19367218017578 60.00030136108398 L 6.000307559967041 60.00030136108398 C 2.6865074634552 60.00030136108398 -1.615767018847691e-06 57.31380844116211 -1.615767018847691e-06 54.00000762939453 L -1.615767018847691e-06 6.00029993057251 C -1.615767018847691e-06 2.686500072479248 2.6865074634552 9.115323337027803e-06 6.000307559967041 9.115323337027803e-06 L 128.9691009521484 9.115323337027803e-06 C 132.2829132080078 9.115323337027803e-06 134.968505859375 2.686500072479248 134.968505859375 6.00029993057251 L 134.968505859375 54.00000762939453 C 134.968505859375 57.31380844116211 132.2829132080078 60.00030136108398 128.9691009521484 60.00030136108398 L 74.60732269287109 60.00030136108398 L 67.90050506591797 65.86380767822266 Z" stroke="none" fill="#00e1b4"/></g></g></g><text transform="translate(1304 2984)" fill="#343a40" font-size="16" font-family="Sahel"><tspan x="-25.793" y="0"> </tspan><tspan y="0">ثبت نام</tspan></text></g><g transform="translate(-438 251.556)"><g transform="translate(1384.85 3016.111) rotate(180)"><g transform="matrix(-1, 0, 0, -1, 390.52, 559.38)" filter="url(#k)"><g transform="translate(390.52 559.38) rotate(180)" fill="#fff"><path d="M 75.37142944335938 72.44644165039062 L 68.25631713867188 66.22537994384766 L 68.11495971679688 66.10179901123047 L 67.92720031738281 66.10179901123047 L 6.000298500061035 66.10179901123047 C 2.967418432235718 66.10179901123047 0.4999984800815582 63.63438034057617 0.4999984800815582 60.60150146484375 L 0.4999984800815582 6.000301837921143 C 0.4999984800815582 2.967421770095825 2.967418432235718 0.5000016689300537 6.000298500061035 0.5000016689300537 L 143.8191223144531 0.5000016689300537 C 146.8519744873047 0.5000016689300537 149.3193969726562 2.967421770095825 149.3193969726562 6.000301837921143 L 149.3193969726562 60.60150146484375 C 149.3193969726562 63.63438034057617 146.8519744873047 66.10179901123047 143.8191223144531 66.10179901123047 L 82.81643676757812 66.10179901123047 L 82.62870025634766 66.10179901123047 L 82.48733520507812 66.22537994384766 L 75.37142944335938 72.44644165039062 Z" stroke="none"/><path d="M 75.37142944335938 71.78230285644531 L 82.15825653076172 65.84893798828125 L 82.44094085693359 65.60179901123047 L 82.81643676757812 65.60179901123047 L 143.8191223144531 65.60179901123047 C 146.5762786865234 65.60179901123047 148.8193969726562 63.35868072509766 148.8193969726562 60.60150146484375 L 148.8193969726562 6.000301837921143 C 148.8193969726562 3.24312162399292 146.5762786865234 1.000001668930054 143.8191223144531 1.000001668930054 L 6.000298500061035 1.000001668930054 C 3.243118524551392 1.000001668930054 0.9999985098838806 3.24312162399292 0.9999985098838806 6.000301837921143 L 0.9999985098838806 60.60150146484375 C 0.9999985098838806 63.35868072509766 3.243118524551392 65.60179901123047 6.000298500061035 65.60179901123047 L 67.92720031738281 65.60179901123047 L 68.30271911621094 65.60179901123047 L 68.58541870117188 65.84898376464844 L 75.37142944335938 71.78230285644531 M 75.37139892578125 73.11060333251953 L 67.92720031738281 66.60179901123047 L 6.000298500061035 66.60179901123047 C 2.686498403549194 66.60179901123047 -1.513671918473847e-06 63.91530227661133 -1.513671918473847e-06 60.60150146484375 L -1.513671918473847e-06 6.000301837921143 C -1.513671918473847e-06 2.686501741409302 2.686498403549194 1.666259777266532e-06 6.000298500061035 1.666259777266532e-06 L 143.8191223144531 1.666259777266532e-06 C 147.1329040527344 1.666259777266532e-06 149.8193969726562 2.686501741409302 149.8193969726562 6.000301837921143 L 149.8193969726562 60.60150146484375 C 149.8193969726562 63.91530227661133 147.1329040527344 66.60179901123047 143.8191223144531 66.60179901123047 L 82.81643676757812 66.60179901123047 L 75.37139892578125 73.11060333251953 Z" stroke="none" fill="#00e1b4"/></g></g></g><text transform="translate(1309.547 2989.531)" fill="#343a40" font-size="16" font-family="Sahel"><tspan x="-62.234" y="0">ثبت نهایی و پرداخت</tspan></text></g></g></svg>